<svg xmlns="http://www.w3.org/2000/svg" viewBox="0 0 480 320"><style>@keyframes k0{0%{opacity:1}11.111%{opacity:0}100%{opacity:0}}.f0{opacity:0;animation:k0 2.4s steps(1,end) infinite}@keyframes k1{0%{opacity:0}11.111%{opacity:1}16.667%{opacity:0}100%{opacity:0}}.f1{opacity:0;animation:k1 2.4s steps(1,end) infinite}@keyframes k2{0%{opacity:0}16.667%{opacity:1}22.222%{opacity:0}100%{opacity:0}}.f2{opacity:0;animation:k2 2.4s steps(1,end) infinite}@keyframes k3{0%{opacity:0}22.222%{opacity:1}27.778%{opacity:0}100%{opacity:0}}.f3{opacity:0;animation:k3 2.4s steps(1,end) infinite}@keyframes k4{0%{opacity:0}27.778%{opacity:1}33.333%{opacity:0}100%{opacity:0}}.f4{opacity:0;animation:k4 2.4s steps(1,end) infinite}@keyframes k5{0%{opacity:0}33.333%{opacity:1}38.889%{opacity:0}100%{opacity:0}}.f5{opacity:0;animation:k5 2.4s steps(1,end) infinite}@keyframes k6{0%{opacity:0}38.889%{opacity:1}44.444%{opacity:0}100%{opacity:0}}.f6{opacity:0;animation:k6 2.4s steps(1,end) infinite}@keyframes k7{0%{opacity:0}44.444%{opacity:1}50.000%{opacity:0}100%{opacity:0}}.f7{opacity:0;animation:k7 2.4s steps(1,end) infinite}@keyframes k8{0%{opacity:0}50.000%{opacity:1}61.111%{opacity:0}100%{opacity:0}}.f8{opacity:0;animation:k8 2.4s steps(1,end) infinite}@keyframes k9{0%{opacity:0}61.111%{opacity:1}66.667%{opacity:0}100%{opacity:0}}.f9{opacity:0;animation:k9 2.4s steps(1,end) infinite}@keyframes k10{0%{opacity:0}66.667%{opacity:1}72.222%{opacity:0}100%{opacity:0}}.f10{opacity:0;animation:k10 2.4s steps(1,end) infinite}@keyframes k11{0%{opacity:0}72.222%{opacity:1}77.778%{opacity:0}100%{opacity:0}}.f11{opacity:0;animation:k11 2.4s steps(1,end) infinite}@keyframes k12{0%{opacity:0}77.778%{opacity:1}83.333%{opacity:0}100%{opacity:0}}.f12{opacity:0;animation:k12 2.4s steps(1,end) infinite}@keyframes k13{0%{opacity:0}83.333%{opacity:1}88.889%{opacity:0}100%{opacity:0}}.f13{opacity:0;animation:k13 2.4s steps(1,end) infinite}@keyframes k14{0%{opacity:0}88.889%{opacity:1}94.444%{opacity:0}100%{opacity:0}}.f14{opacity:0;animation:k14 2.4s steps(1,end) infinite}@keyframes k15{0%{opacity:0}94.444%{opacity:1}100%{opacity:1}}.f15{opacity:0;animation:k15 2.4s steps(1,end) infinite}</style><path d="M40.0,292.0 L440.0,292.0" fill="none" stroke="#1f3333" stroke-width="6" stroke-linecap="round" stroke-linejoin="round" opacity="1.0"/><path d="M240.0,196.0 L228.0,242.0 L226.0,292.0" fill="none" stroke="#0d9488" stroke-width="21" stroke-linecap="round" stroke-linejoin="round" opacity="0.95"/><path d="M240.0,196.0 L228.0,242.0 L226.0,292.0" fill="none" stroke="#0c2020" stroke-width="13" stroke-linecap="round" stroke-linejoin="round" opacity="1.0"/><path d="M240.0,196.0 L252.0,242.0 L254.0,292.0" fill="none" stroke="#2dd4bf" stroke-width="21" stroke-linecap="round" stroke-linejoin="round" opacity="0.95"/><path d="M240.0,196.0 L252.0,242.0 L254.0,292.0" fill="none" stroke="#0c2020" stroke-width="13" stroke-linecap="round" stroke-linejoin="round" opacity="1.0"/><path d="M240.0,122.0 L240.0,196.0" fill="none" stroke="#2dd4bf" stroke-width="25" stroke-linecap="round" stroke-linejoin="round" opacity="0.95"/><path d="M240.0,122.0 L240.0,196.0" fill="none" stroke="#0c2020" stroke-width="17" stroke-linecap="round" stroke-linejoin="round" opacity="1.0"/><circle cx="240.0" cy="92.0" r="19.0" fill="#2dd4bf" stroke="none" stroke-width="0" opacity="0.95"/><circle cx="240.0" cy="92.0" r="15.0" fill="#0c2020" stroke="none" stroke-width="6.3" opacity="1.0"/><path d="M230.7,89.0 L249.3,89.0" fill="none" stroke="#a7f3ee" stroke-width="5" stroke-linecap="round" stroke-linejoin="round" opacity="1.0"/><g class="f0"><path d="M240.0,122.0 L235.6,125.4 L231.2,128.8 L226.7,132.1 L222.3,135.5 L217.9,138.9 L213.5,142.3 L209.0,145.7 L206.4,146.3 L207.6,140.9 L208.8,135.4 L210.0,130.0" fill="none" stroke="#8f2a3e" stroke-width="21" stroke-linecap="round" stroke-linejoin="round" opacity="0.95"/><path d="M240.0,122.0 L235.6,125.4 L231.2,128.8 L226.7,132.1 L222.3,135.5 L217.9,138.9 L213.5,142.3 L209.0,145.7 L206.4,146.3 L207.6,140.9 L208.8,135.4 L210.0,130.0" fill="none" stroke="#0c2020" stroke-width="13" stroke-linecap="round" stroke-linejoin="round" opacity="1.0"/><path d="M240.0,122.0 L244.4,125.4 L248.8,128.8 L253.3,132.1 L257.7,135.5 L262.1,138.9 L266.5,142.3 L271.0,145.7 L273.6,146.3 L272.4,140.9 L271.2,135.4 L270.0,130.0" fill="none" stroke="#f43f5e" stroke-width="21" stroke-linecap="round" stroke-linejoin="round" opacity="0.95"/><path d="M240.0,122.0 L244.4,125.4 L248.8,128.8 L253.3,132.1 L257.7,135.5 L262.1,138.9 L266.5,142.3 L271.0,145.7 L273.6,146.3 L272.4,140.9 L271.2,135.4 L270.0,130.0" fill="none" stroke="#0c2020" stroke-width="13" stroke-linecap="round" stroke-linejoin="round" opacity="1.0"/><path d="M184.0,130.0 L194.2,130.0 L204.4,130.0 L214.5,130.0 L224.7,130.0 L234.9,130.0 L245.1,130.0 L255.3,130.0 L265.5,130.0 L275.6,130.0 L285.8,130.0 L296.0,130.0" fill="none" stroke="#fbbf24" stroke-width="6" stroke-linecap="round" stroke-linejoin="round" opacity="1.0"/><path d="M188.0,116.0 L188.0,118.5 L188.0,121.1 L188.0,123.6 L188.0,126.2 L188.0,128.7 L188.0,131.3 L188.0,133.8 L188.0,136.4 L188.0,138.9 L188.0,141.5 L188.0,144.0" fill="none" stroke="#fbbf24" stroke-width="9" stroke-linecap="round" stroke-linejoin="round" opacity="1.0"/><path d="M292.0,116.0 L292.0,118.5 L292.0,121.1 L292.0,123.6 L292.0,126.2 L292.0,128.7 L292.0,131.3 L292.0,133.8 L292.0,136.4 L292.0,138.9 L292.0,141.5 L292.0,144.0" fill="none" stroke="#fbbf24" stroke-width="9" stroke-linecap="round" stroke-linejoin="round" opacity="1.0"/></g><g class="f1"><path d="M240.0,122.0 L235.5,125.0 L231.0,128.0 L226.6,130.9 L222.1,133.9 L217.6,136.9 L213.1,139.9 L208.9,142.7 L206.4,143.0 L207.6,137.4 L208.8,131.9 L210.0,126.3" fill="none" stroke="#8f2a3e" stroke-width="21" stroke-linecap="round" stroke-linejoin="round" opacity="0.95"/><path d="M240.0,122.0 L235.5,125.0 L231.0,128.0 L226.6,130.9 L222.1,133.9 L217.6,136.9 L213.1,139.9 L208.9,142.7 L206.4,143.0 L207.6,137.4 L208.8,131.9 L210.0,126.3" fill="none" stroke="#0c2020" stroke-width="13" stroke-linecap="round" stroke-linejoin="round" opacity="1.0"/><path d="M240.0,122.0 L244.5,125.0 L249.0,128.0 L253.4,130.9 L257.9,133.9 L262.4,136.9 L266.9,139.9 L271.1,142.7 L273.6,143.0 L272.4,137.4 L271.2,131.9 L270.0,126.3" fill="none" stroke="#f43f5e" stroke-width="21" stroke-linecap="round" stroke-linejoin="round" opacity="0.95"/><path d="M240.0,122.0 L244.5,125.0 L249.0,128.0 L253.4,130.9 L257.9,133.9 L262.4,136.9 L266.9,139.9 L271.1,142.7 L273.6,143.0 L272.4,137.4 L271.2,131.9 L270.0,126.3" fill="none" stroke="#0c2020" stroke-width="13" stroke-linecap="round" stroke-linejoin="round" opacity="1.0"/><path d="M184.0,126.3 L194.2,126.3 L204.4,126.3 L214.5,126.3 L224.7,126.3 L234.9,126.3 L245.1,126.3 L255.3,126.3 L265.5,126.3 L275.6,126.3 L285.8,126.3 L296.0,126.3" fill="none" stroke="#fbbf24" stroke-width="6" stroke-linecap="round" stroke-linejoin="round" opacity="1.0"/><path d="M188.0,112.3 L188.0,114.9 L188.0,117.4 L188.0,119.9 L188.0,122.5 L188.0,125.0 L188.0,127.6 L188.0,130.1 L188.0,132.7 L188.0,135.2 L188.0,137.8 L188.0,140.3" fill="none" stroke="#fbbf24" stroke-width="9" stroke-linecap="round" stroke-linejoin="round" opacity="1.0"/><path d="M292.0,112.3 L292.0,114.9 L292.0,117.4 L292.0,119.9 L292.0,122.5 L292.0,125.0 L292.0,127.6 L292.0,130.1 L292.0,132.7 L292.0,135.2 L292.0,137.8 L292.0,140.3" fill="none" stroke="#fbbf24" stroke-width="9" stroke-linecap="round" stroke-linejoin="round" opacity="1.0"/></g><g class="f2"><path d="M240.0,122.0 L235.4,123.9 L230.7,125.8 L226.1,127.7 L221.5,129.6 L216.9,131.5 L212.3,133.4 L208.7,135.0 L206.6,134.2 L207.7,128.3 L208.9,122.4 L210.0,116.6" fill="none" stroke="#8f2a3e" stroke-width="21" stroke-linecap="round" stroke-linejoin="round" opacity="0.95"/><path d="M240.0,122.0 L235.4,123.9 L230.7,125.8 L226.1,127.7 L221.5,129.6 L216.9,131.5 L212.3,133.4 L208.7,135.0 L206.6,134.2 L207.7,128.3 L208.9,122.4 L210.0,116.6" fill="none" stroke="#0c2020" stroke-width="13" stroke-linecap="round" stroke-linejoin="round" opacity="1.0"/><path d="M240.0,122.0 L244.6,123.9 L249.3,125.8 L253.9,127.7 L258.5,129.6 L263.1,131.5 L267.7,133.4 L271.3,135.0 L273.4,134.2 L272.3,128.3 L271.1,122.4 L270.0,116.6" fill="none" stroke="#f43f5e" stroke-width="21" stroke-linecap="round" stroke-linejoin="round" opacity="0.95"/><path d="M240.0,122.0 L244.6,123.9 L249.3,125.8 L253.9,127.7 L258.5,129.6 L263.1,131.5 L267.7,133.4 L271.3,135.0 L273.4,134.2 L272.3,128.3 L271.1,122.4 L270.0,116.6" fill="none" stroke="#0c2020" stroke-width="13" stroke-linecap="round" stroke-linejoin="round" opacity="1.0"/><path d="M184.0,116.6 L194.2,116.6 L204.4,116.6 L214.5,116.6 L224.7,116.6 L234.9,116.6 L245.1,116.6 L255.3,116.6 L265.5,116.6 L275.6,116.6 L285.8,116.6 L296.0,116.6" fill="none" stroke="#fbbf24" stroke-width="6" stroke-linecap="round" stroke-linejoin="round" opacity="1.0"/><path d="M188.0,102.6 L188.0,105.1 L188.0,107.7 L188.0,110.2 L188.0,112.7 L188.0,115.3 L188.0,117.8 L188.0,120.4 L188.0,122.9 L188.0,125.5 L188.0,128.0 L188.0,130.6" fill="none" stroke="#fbbf24" stroke-width="9" stroke-linecap="round" stroke-linejoin="round" opacity="1.0"/><path d="M292.0,102.6 L292.0,105.1 L292.0,107.7 L292.0,110.2 L292.0,112.7 L292.0,115.3 L292.0,117.8 L292.0,120.4 L292.0,122.9 L292.0,125.5 L292.0,128.0 L292.0,130.6" fill="none" stroke="#fbbf24" stroke-width="9" stroke-linecap="round" stroke-linejoin="round" opacity="1.0"/></g><g class="f3"><path d="M240.0,122.0 L235.2,122.4 L230.3,122.8 L225.5,123.2 L220.7,123.6 L215.8,124.0 L211.1,124.3 L208.3,124.0 L206.8,121.8 L207.8,115.5 L208.9,109.1 L210.0,102.8" fill="none" stroke="#8f2a3e" stroke-width="21" stroke-linecap="round" stroke-linejoin="round" opacity="0.95"/><path d="M240.0,122.0 L235.2,122.4 L230.3,122.8 L225.5,123.2 L220.7,123.6 L215.8,124.0 L211.1,124.3 L208.3,124.0 L206.8,121.8 L207.8,115.5 L208.9,109.1 L210.0,102.8" fill="none" stroke="#0c2020" stroke-width="13" stroke-linecap="round" stroke-linejoin="round" opacity="1.0"/><path d="M240.0,122.0 L244.8,122.4 L249.7,122.8 L254.5,123.2 L259.3,123.6 L264.2,124.0 L268.9,124.3 L271.7,124.0 L273.2,121.8 L272.2,115.5 L271.1,109.1 L270.0,102.8" fill="none" stroke="#f43f5e" stroke-width="21" stroke-linecap="round" stroke-linejoin="round" opacity="0.95"/><path d="M240.0,122.0 L244.8,122.4 L249.7,122.8 L254.5,123.2 L259.3,123.6 L264.2,124.0 L268.9,124.3 L271.7,124.0 L273.2,121.8 L272.2,115.5 L271.1,109.1 L270.0,102.8" fill="none" stroke="#0c2020" stroke-width="13" stroke-linecap="round" stroke-linejoin="round" opacity="1.0"/><path d="M184.0,102.8 L194.2,102.8 L204.4,102.8 L214.5,102.8 L224.7,102.8 L234.9,102.8 L245.1,102.8 L255.3,102.8 L265.5,102.8 L275.6,102.8 L285.8,102.8 L296.0,102.8" fill="none" stroke="#fbbf24" stroke-width="6" stroke-linecap="round" stroke-linejoin="round" opacity="1.0"/><path d="M188.0,88.8 L188.0,91.3 L188.0,93.9 L188.0,96.4 L188.0,99.0 L188.0,101.5 L188.0,104.1 L188.0,106.6 L188.0,109.2 L188.0,111.7 L188.0,114.2 L188.0,116.8" fill="none" stroke="#fbbf24" stroke-width="9" stroke-linecap="round" stroke-linejoin="round" opacity="1.0"/><path d="M292.0,88.8 L292.0,91.3 L292.0,93.9 L292.0,96.4 L292.0,99.0 L292.0,101.5 L292.0,104.1 L292.0,106.6 L292.0,109.2 L292.0,111.7 L292.0,114.2 L292.0,116.8" fill="none" stroke="#fbbf24" stroke-width="9" stroke-linecap="round" stroke-linejoin="round" opacity="1.0"/></g><g class="f4"><path d="M240.0,122.0 L234.9,120.7 L229.9,119.3 L224.8,118.0 L219.7,116.6 L214.6,115.3 L209.8,113.9 L207.9,111.4 L207.0,107.6 L208.0,100.7 L209.0,93.9 L210.0,87.0" fill="none" stroke="#8f2a3e" stroke-width="21" stroke-linecap="round" stroke-linejoin="round" opacity="0.95"/><path d="M240.0,122.0 L234.9,120.7 L229.9,119.3 L224.8,118.0 L219.7,116.6 L214.6,115.3 L209.8,113.9 L207.9,111.4 L207.0,107.6 L208.0,100.7 L209.0,93.9 L210.0,87.0" fill="none" stroke="#0c2020" stroke-width="13" stroke-linecap="round" stroke-linejoin="round" opacity="1.0"/><path d="M240.0,122.0 L245.1,120.7 L250.1,119.3 L255.2,118.0 L260.3,116.6 L265.4,115.3 L270.2,113.9 L272.1,111.4 L273.0,107.6 L272.0,100.7 L271.0,93.9 L270.0,87.0" fill="none" stroke="#f43f5e" stroke-width="21" stroke-linecap="round" stroke-linejoin="round" opacity="0.95"/><path d="M240.0,122.0 L245.1,120.7 L250.1,119.3 L255.2,118.0 L260.3,116.6 L265.4,115.3 L270.2,113.9 L272.1,111.4 L273.0,107.6 L272.0,100.7 L271.0,93.9 L270.0,87.0" fill="none" stroke="#0c2020" stroke-width="13" stroke-linecap="round" stroke-linejoin="round" opacity="1.0"/><path d="M184.0,87.0 L194.2,87.0 L204.4,87.0 L214.5,87.0 L224.7,87.0 L234.9,87.0 L245.1,87.0 L255.3,87.0 L265.5,87.0 L275.6,87.0 L285.8,87.0 L296.0,87.0" fill="none" stroke="#fbbf24" stroke-width="6" stroke-linecap="round" stroke-linejoin="round" opacity="1.0"/><path d="M188.0,73.0 L188.0,75.5 L188.0,78.1 L188.0,80.6 L188.0,83.2 L188.0,85.7 L188.0,88.3 L188.0,90.8 L188.0,93.4 L188.0,95.9 L188.0,98.5 L188.0,101.0" fill="none" stroke="#fbbf24" stroke-width="9" stroke-linecap="round" stroke-linejoin="round" opacity="1.0"/><path d="M292.0,73.0 L292.0,75.5 L292.0,78.1 L292.0,80.6 L292.0,83.2 L292.0,85.7 L292.0,88.3 L292.0,90.8 L292.0,93.4 L292.0,95.9 L292.0,98.5 L292.0,101.0" fill="none" stroke="#fbbf24" stroke-width="9" stroke-linecap="round" stroke-linejoin="round" opacity="1.0"/></g><g class="f5"><path d="M240.0,122.0 L234.7,118.9 L229.4,115.9 L224.1,112.8 L218.8,109.7 L213.4,106.6 L208.4,103.5 L207.5,98.9 L207.2,93.4 L208.2,86.0 L209.1,78.6 L210.0,71.2" fill="none" stroke="#8f2a3e" stroke-width="21" stroke-linecap="round" stroke-linejoin="round" opacity="0.95"/><path d="M240.0,122.0 L234.7,118.9 L229.4,115.9 L224.1,112.8 L218.8,109.7 L213.4,106.6 L208.4,103.5 L207.5,98.9 L207.2,93.4 L208.2,86.0 L209.1,78.6 L210.0,71.2" fill="none" stroke="#0c2020" stroke-width="13" stroke-linecap="round" stroke-linejoin="round" opacity="1.0"/><path d="M240.0,122.0 L245.3,118.9 L250.6,115.9 L255.9,112.8 L261.2,109.7 L266.6,106.6 L271.6,103.5 L272.5,98.9 L272.8,93.4 L271.8,86.0 L270.9,78.6 L270.0,71.2" fill="none" stroke="#f43f5e" stroke-width="21" stroke-linecap="round" stroke-linejoin="round" opacity="0.95"/><path d="M240.0,122.0 L245.3,118.9 L250.6,115.9 L255.9,112.8 L261.2,109.7 L266.6,106.6 L271.6,103.5 L272.5,98.9 L272.8,93.4 L271.8,86.0 L270.9,78.6 L270.0,71.2" fill="none" stroke="#0c2020" stroke-width="13" stroke-linecap="round" stroke-linejoin="round" opacity="1.0"/><path d="M184.0,71.2 L194.2,71.2 L204.4,71.2 L214.5,71.2 L224.7,71.2 L234.9,71.2 L245.1,71.2 L255.3,71.2 L265.5,71.2 L275.6,71.2 L285.8,71.2 L296.0,71.2" fill="none" stroke="#fbbf24" stroke-width="6" stroke-linecap="round" stroke-linejoin="round" opacity="1.0"/><path d="M188.0,57.2 L188.0,59.8 L188.0,62.3 L188.0,64.8 L188.0,67.4 L188.0,69.9 L188.0,72.5 L188.0,75.0 L188.0,77.6 L188.0,80.1 L188.0,82.7 L188.0,85.2" fill="none" stroke="#fbbf24" stroke-width="9" stroke-linecap="round" stroke-linejoin="round" opacity="1.0"/><path d="M292.0,57.2 L292.0,59.8 L292.0,62.3 L292.0,64.8 L292.0,67.4 L292.0,69.9 L292.0,72.5 L292.0,75.0 L292.0,77.6 L292.0,80.1 L292.0,82.7 L292.0,85.2" fill="none" stroke="#fbbf24" stroke-width="9" stroke-linecap="round" stroke-linejoin="round" opacity="1.0"/></g><g class="f6"><path d="M240.0,122.0 L234.5,117.4 L229.0,112.8 L223.4,108.2 L217.9,103.7 L212.4,99.1 L207.2,94.4 L207.2,87.9 L207.4,81.0 L208.3,73.1 L209.1,65.3 L210.0,57.4" fill="none" stroke="#8f2a3e" stroke-width="21" stroke-linecap="round" stroke-linejoin="round" opacity="0.95"/><path d="M240.0,122.0 L234.5,117.4 L229.0,112.8 L223.4,108.2 L217.9,103.7 L212.4,99.1 L207.2,94.4 L207.2,87.9 L207.4,81.0 L208.3,73.1 L209.1,65.3 L210.0,57.4" fill="none" stroke="#0c2020" stroke-width="13" stroke-linecap="round" stroke-linejoin="round" opacity="1.0"/><path d="M240.0,122.0 L245.5,117.4 L251.0,112.8 L256.6,108.2 L262.1,103.7 L267.6,99.1 L272.8,94.4 L272.8,87.9 L272.6,81.0 L271.7,73.1 L270.9,65.3 L270.0,57.4" fill="none" stroke="#f43f5e" stroke-width="21" stroke-linecap="round" stroke-linejoin="round" opacity="0.95"/><path d="M240.0,122.0 L245.5,117.4 L251.0,112.8 L256.6,108.2 L262.1,103.7 L267.6,99.1 L272.8,94.4 L272.8,87.9 L272.6,81.0 L271.7,73.1 L270.9,65.3 L270.0,57.4" fill="none" stroke="#0c2020" stroke-width="13" stroke-linecap="round" stroke-linejoin="round" opacity="1.0"/><path d="M184.0,57.4 L194.2,57.4 L204.4,57.4 L214.5,57.4 L224.7,57.4 L234.9,57.4 L245.1,57.4 L255.3,57.4 L265.5,57.4 L275.6,57.4 L285.8,57.4 L296.0,57.4" fill="none" stroke="#fbbf24" stroke-width="6" stroke-linecap="round" stroke-linejoin="round" opacity="1.0"/><path d="M188.0,43.4 L188.0,46.0 L188.0,48.5 L188.0,51.1 L188.0,53.6 L188.0,56.2 L188.0,58.7 L188.0,61.3 L188.0,63.8 L188.0,66.3 L188.0,68.9 L188.0,71.4" fill="none" stroke="#fbbf24" stroke-width="9" stroke-linecap="round" stroke-linejoin="round" opacity="1.0"/><path d="M292.0,43.4 L292.0,46.0 L292.0,48.5 L292.0,51.1 L292.0,53.6 L292.0,56.2 L292.0,58.7 L292.0,61.3 L292.0,63.8 L292.0,66.3 L292.0,68.9 L292.0,71.4" fill="none" stroke="#fbbf24" stroke-width="9" stroke-linecap="round" stroke-linejoin="round" opacity="1.0"/></g><g class="f7"><path d="M240.0,122.0 L234.3,116.3 L228.7,110.7 L223.0,105.0 L217.3,99.4 L211.7,93.7 L206.4,87.9 L206.9,80.1 L207.6,72.2 L208.4,64.0 L209.2,55.9 L210.0,47.7" fill="none" stroke="#8f2a3e" stroke-width="21" stroke-linecap="round" stroke-linejoin="round" opacity="0.95"/><path d="M240.0,122.0 L234.3,116.3 L228.7,110.7 L223.0,105.0 L217.3,99.4 L211.7,93.7 L206.4,87.9 L206.9,80.1 L207.6,72.2 L208.4,64.0 L209.2,55.9 L210.0,47.7" fill="none" stroke="#0c2020" stroke-width="13" stroke-linecap="round" stroke-linejoin="round" opacity="1.0"/><path d="M240.0,122.0 L245.7,116.3 L251.3,110.7 L257.0,105.0 L262.7,99.4 L268.3,93.7 L273.6,87.9 L273.1,80.1 L272.4,72.2 L271.6,64.0 L270.8,55.9 L270.0,47.7" fill="none" stroke="#f43f5e" stroke-width="21" stroke-linecap="round" stroke-linejoin="round" opacity="0.95"/><path d="M240.0,122.0 L245.7,116.3 L251.3,110.7 L257.0,105.0 L262.7,99.4 L268.3,93.7 L273.6,87.9 L273.1,80.1 L272.4,72.2 L271.6,64.0 L270.8,55.9 L270.0,47.7" fill="none" stroke="#0c2020" stroke-width="13" stroke-linecap="round" stroke-linejoin="round" opacity="1.0"/><path d="M184.0,47.7 L194.2,47.7 L204.4,47.7 L214.5,47.7 L224.7,47.7 L234.9,47.7 L245.1,47.7 L255.3,47.7 L265.5,47.7 L275.6,47.7 L285.8,47.7 L296.0,47.7" fill="none" stroke="#fbbf24" stroke-width="6" stroke-linecap="round" stroke-linejoin="round" opacity="1.0"/><path d="M188.0,33.7 L188.0,36.2 L188.0,38.8 L188.0,41.3 L188.0,43.9 L188.0,46.4 L188.0,49.0 L188.0,51.5 L188.0,54.1 L188.0,56.6 L188.0,59.1 L188.0,61.7" fill="none" stroke="#fbbf24" stroke-width="9" stroke-linecap="round" stroke-linejoin="round" opacity="1.0"/><path d="M292.0,33.7 L292.0,36.2 L292.0,38.8 L292.0,41.3 L292.0,43.9 L292.0,46.4 L292.0,49.0 L292.0,51.5 L292.0,54.1 L292.0,56.6 L292.0,59.1 L292.0,61.7" fill="none" stroke="#fbbf24" stroke-width="9" stroke-linecap="round" stroke-linejoin="round" opacity="1.0"/></g><g class="f8"><path d="M240.0,122.0 L234.3,115.9 L228.6,109.9 L222.8,103.8 L217.1,97.8 L211.4,91.7 L206.0,85.5 L206.8,77.2 L207.6,68.9 L208.4,60.6 L209.2,52.3 L210.0,44.0" fill="none" stroke="#8f2a3e" stroke-width="21" stroke-linecap="round" stroke-linejoin="round" opacity="0.95"/><path d="M240.0,122.0 L234.3,115.9 L228.6,109.9 L222.8,103.8 L217.1,97.8 L211.4,91.7 L206.0,85.5 L206.8,77.2 L207.6,68.9 L208.4,60.6 L209.2,52.3 L210.0,44.0" fill="none" stroke="#0c2020" stroke-width="13" stroke-linecap="round" stroke-linejoin="round" opacity="1.0"/><path d="M240.0,122.0 L245.7,115.9 L251.4,109.9 L257.2,103.8 L262.9,97.8 L268.6,91.7 L274.0,85.5 L273.2,77.2 L272.4,68.9 L271.6,60.6 L270.8,52.3 L270.0,44.0" fill="none" stroke="#f43f5e" stroke-width="21" stroke-linecap="round" stroke-linejoin="round" opacity="0.95"/><path d="M240.0,122.0 L245.7,115.9 L251.4,109.9 L257.2,103.8 L262.9,97.8 L268.6,91.7 L274.0,85.5 L273.2,77.2 L272.4,68.9 L271.6,60.6 L270.8,52.3 L270.0,44.0" fill="none" stroke="#0c2020" stroke-width="13" stroke-linecap="round" stroke-linejoin="round" opacity="1.0"/><path d="M184.0,44.0 L194.2,44.0 L204.4,44.0 L214.5,44.0 L224.7,44.0 L234.9,44.0 L245.1,44.0 L255.3,44.0 L265.5,44.0 L275.6,44.0 L285.8,44.0 L296.0,44.0" fill="none" stroke="#fbbf24" stroke-width="6" stroke-linecap="round" stroke-linejoin="round" opacity="1.0"/><path d="M188.0,30.0 L188.0,32.5 L188.0,35.1 L188.0,37.6 L188.0,40.2 L188.0,42.7 L188.0,45.3 L188.0,47.8 L188.0,50.4 L188.0,52.9 L188.0,55.5 L188.0,58.0" fill="none" stroke="#fbbf24" stroke-width="9" stroke-linecap="round" stroke-linejoin="round" opacity="1.0"/><path d="M292.0,30.0 L292.0,32.5 L292.0,35.1 L292.0,37.6 L292.0,40.2 L292.0,42.7 L292.0,45.3 L292.0,47.8 L292.0,50.4 L292.0,52.9 L292.0,55.5 L292.0,58.0" fill="none" stroke="#fbbf24" stroke-width="9" stroke-linecap="round" stroke-linejoin="round" opacity="1.0"/></g><g class="f9"><path d="M240.0,122.0 L234.3,116.3 L228.7,110.7 L223.0,105.0 L217.3,99.4 L211.7,93.7 L206.4,87.9 L206.9,80.1 L207.6,72.2 L208.4,64.0 L209.2,55.9 L210.0,47.7" fill="none" stroke="#8f2a3e" stroke-width="21" stroke-linecap="round" stroke-linejoin="round" opacity="0.95"/><path d="M240.0,122.0 L234.3,116.3 L228.7,110.7 L223.0,105.0 L217.3,99.4 L211.7,93.7 L206.4,87.9 L206.9,80.1 L207.6,72.2 L208.4,64.0 L209.2,55.9 L210.0,47.7" fill="none" stroke="#0c2020" stroke-width="13" stroke-linecap="round" stroke-linejoin="round" opacity="1.0"/><path d="M240.0,122.0 L245.7,116.3 L251.3,110.7 L257.0,105.0 L262.7,99.4 L268.3,93.7 L273.6,87.9 L273.1,80.1 L272.4,72.2 L271.6,64.0 L270.8,55.9 L270.0,47.7" fill="none" stroke="#f43f5e" stroke-width="21" stroke-linecap="round" stroke-linejoin="round" opacity="0.95"/><path d="M240.0,122.0 L245.7,116.3 L251.3,110.7 L257.0,105.0 L262.7,99.4 L268.3,93.7 L273.6,87.9 L273.1,80.1 L272.4,72.2 L271.6,64.0 L270.8,55.9 L270.0,47.7" fill="none" stroke="#0c2020" stroke-width="13" stroke-linecap="round" stroke-linejoin="round" opacity="1.0"/><path d="M184.0,47.7 L194.2,47.7 L204.4,47.7 L214.5,47.7 L224.7,47.7 L234.9,47.7 L245.1,47.7 L255.3,47.7 L265.5,47.7 L275.6,47.7 L285.8,47.7 L296.0,47.7" fill="none" stroke="#fbbf24" stroke-width="6" stroke-linecap="round" stroke-linejoin="round" opacity="1.0"/><path d="M188.0,33.7 L188.0,36.2 L188.0,38.8 L188.0,41.3 L188.0,43.9 L188.0,46.4 L188.0,49.0 L188.0,51.5 L188.0,54.1 L188.0,56.6 L188.0,59.1 L188.0,61.7" fill="none" stroke="#fbbf24" stroke-width="9" stroke-linecap="round" stroke-linejoin="round" opacity="1.0"/><path d="M292.0,33.7 L292.0,36.2 L292.0,38.8 L292.0,41.3 L292.0,43.9 L292.0,46.4 L292.0,49.0 L292.0,51.5 L292.0,54.1 L292.0,56.6 L292.0,59.1 L292.0,61.7" fill="none" stroke="#fbbf24" stroke-width="9" stroke-linecap="round" stroke-linejoin="round" opacity="1.0"/></g><g class="f10"><path d="M240.0,122.0 L234.5,117.4 L229.0,112.8 L223.4,108.2 L217.9,103.7 L212.4,99.1 L207.2,94.4 L207.2,87.9 L207.4,81.0 L208.3,73.1 L209.1,65.3 L210.0,57.4" fill="none" stroke="#8f2a3e" stroke-width="21" stroke-linecap="round" stroke-linejoin="round" opacity="0.95"/><path d="M240.0,122.0 L234.5,117.4 L229.0,112.8 L223.4,108.2 L217.9,103.7 L212.4,99.1 L207.2,94.4 L207.2,87.9 L207.4,81.0 L208.3,73.1 L209.1,65.3 L210.0,57.4" fill="none" stroke="#0c2020" stroke-width="13" stroke-linecap="round" stroke-linejoin="round" opacity="1.0"/><path d="M240.0,122.0 L245.5,117.4 L251.0,112.8 L256.6,108.2 L262.1,103.7 L267.6,99.1 L272.8,94.4 L272.8,87.9 L272.6,81.0 L271.7,73.1 L270.9,65.3 L270.0,57.4" fill="none" stroke="#f43f5e" stroke-width="21" stroke-linecap="round" stroke-linejoin="round" opacity="0.95"/><path d="M240.0,122.0 L245.5,117.4 L251.0,112.8 L256.6,108.2 L262.1,103.7 L267.6,99.1 L272.8,94.4 L272.8,87.9 L272.6,81.0 L271.7,73.1 L270.9,65.3 L270.0,57.4" fill="none" stroke="#0c2020" stroke-width="13" stroke-linecap="round" stroke-linejoin="round" opacity="1.0"/><path d="M184.0,57.4 L194.2,57.4 L204.4,57.4 L214.5,57.4 L224.7,57.4 L234.9,57.4 L245.1,57.4 L255.3,57.4 L265.5,57.4 L275.6,57.4 L285.8,57.4 L296.0,57.4" fill="none" stroke="#fbbf24" stroke-width="6" stroke-linecap="round" stroke-linejoin="round" opacity="1.0"/><path d="M188.0,43.4 L188.0,46.0 L188.0,48.5 L188.0,51.1 L188.0,53.6 L188.0,56.2 L188.0,58.7 L188.0,61.3 L188.0,63.8 L188.0,66.3 L188.0,68.9 L188.0,71.4" fill="none" stroke="#fbbf24" stroke-width="9" stroke-linecap="round" stroke-linejoin="round" opacity="1.0"/><path d="M292.0,43.4 L292.0,46.0 L292.0,48.5 L292.0,51.1 L292.0,53.6 L292.0,56.2 L292.0,58.7 L292.0,61.3 L292.0,63.8 L292.0,66.3 L292.0,68.9 L292.0,71.4" fill="none" stroke="#fbbf24" stroke-width="9" stroke-linecap="round" stroke-linejoin="round" opacity="1.0"/></g><g class="f11"><path d="M240.0,122.0 L234.7,118.9 L229.4,115.9 L224.1,112.8 L218.8,109.7 L213.4,106.6 L208.4,103.5 L207.5,98.9 L207.2,93.4 L208.2,86.0 L209.1,78.6 L210.0,71.2" fill="none" stroke="#8f2a3e" stroke-width="21" stroke-linecap="round" stroke-linejoin="round" opacity="0.95"/><path d="M240.0,122.0 L234.7,118.9 L229.4,115.9 L224.1,112.8 L218.8,109.7 L213.4,106.6 L208.4,103.5 L207.5,98.9 L207.2,93.4 L208.2,86.0 L209.1,78.6 L210.0,71.2" fill="none" stroke="#0c2020" stroke-width="13" stroke-linecap="round" stroke-linejoin="round" opacity="1.0"/><path d="M240.0,122.0 L245.3,118.9 L250.6,115.9 L255.9,112.8 L261.2,109.7 L266.6,106.6 L271.6,103.5 L272.5,98.9 L272.8,93.4 L271.8,86.0 L270.9,78.6 L270.0,71.2" fill="none" stroke="#f43f5e" stroke-width="21" stroke-linecap="round" stroke-linejoin="round" opacity="0.95"/><path d="M240.0,122.0 L245.3,118.9 L250.6,115.9 L255.9,112.8 L261.2,109.7 L266.6,106.6 L271.6,103.5 L272.5,98.9 L272.8,93.4 L271.8,86.0 L270.9,78.6 L270.0,71.2" fill="none" stroke="#0c2020" stroke-width="13" stroke-linecap="round" stroke-linejoin="round" opacity="1.0"/><path d="M184.0,71.2 L194.2,71.2 L204.4,71.2 L214.5,71.2 L224.7,71.2 L234.9,71.2 L245.1,71.2 L255.3,71.2 L265.5,71.2 L275.6,71.2 L285.8,71.2 L296.0,71.2" fill="none" stroke="#fbbf24" stroke-width="6" stroke-linecap="round" stroke-linejoin="round" opacity="1.0"/><path d="M188.0,57.2 L188.0,59.8 L188.0,62.3 L188.0,64.8 L188.0,67.4 L188.0,69.9 L188.0,72.5 L188.0,75.0 L188.0,77.6 L188.0,80.1 L188.0,82.7 L188.0,85.2" fill="none" stroke="#fbbf24" stroke-width="9" stroke-linecap="round" stroke-linejoin="round" opacity="1.0"/><path d="M292.0,57.2 L292.0,59.8 L292.0,62.3 L292.0,64.8 L292.0,67.4 L292.0,69.9 L292.0,72.5 L292.0,75.0 L292.0,77.6 L292.0,80.1 L292.0,82.7 L292.0,85.2" fill="none" stroke="#fbbf24" stroke-width="9" stroke-linecap="round" stroke-linejoin="round" opacity="1.0"/></g><g class="f12"><path d="M240.0,122.0 L234.9,120.7 L229.9,119.3 L224.8,118.0 L219.7,116.6 L214.6,115.3 L209.8,113.9 L207.9,111.4 L207.0,107.6 L208.0,100.7 L209.0,93.9 L210.0,87.0" fill="none" stroke="#8f2a3e" stroke-width="21" stroke-linecap="round" stroke-linejoin="round" opacity="0.95"/><path d="M240.0,122.0 L234.9,120.7 L229.9,119.3 L224.8,118.0 L219.7,116.6 L214.6,115.3 L209.8,113.9 L207.9,111.4 L207.0,107.6 L208.0,100.7 L209.0,93.9 L210.0,87.0" fill="none" stroke="#0c2020" stroke-width="13" stroke-linecap="round" stroke-linejoin="round" opacity="1.0"/><path d="M240.0,122.0 L245.1,120.7 L250.1,119.3 L255.2,118.0 L260.3,116.6 L265.4,115.3 L270.2,113.9 L272.1,111.4 L273.0,107.6 L272.0,100.7 L271.0,93.9 L270.0,87.0" fill="none" stroke="#f43f5e" stroke-width="21" stroke-linecap="round" stroke-linejoin="round" opacity="0.95"/><path d="M240.0,122.0 L245.1,120.7 L250.1,119.3 L255.2,118.0 L260.3,116.6 L265.4,115.3 L270.2,113.9 L272.1,111.4 L273.0,107.6 L272.0,100.7 L271.0,93.9 L270.0,87.0" fill="none" stroke="#0c2020" stroke-width="13" stroke-linecap="round" stroke-linejoin="round" opacity="1.0"/><path d="M184.0,87.0 L194.2,87.0 L204.4,87.0 L214.5,87.0 L224.7,87.0 L234.9,87.0 L245.1,87.0 L255.3,87.0 L265.5,87.0 L275.6,87.0 L285.8,87.0 L296.0,87.0" fill="none" stroke="#fbbf24" stroke-width="6" stroke-linecap="round" stroke-linejoin="round" opacity="1.0"/><path d="M188.0,73.0 L188.0,75.5 L188.0,78.1 L188.0,80.6 L188.0,83.2 L188.0,85.7 L188.0,88.3 L188.0,90.8 L188.0,93.4 L188.0,95.9 L188.0,98.5 L188.0,101.0" fill="none" stroke="#fbbf24" stroke-width="9" stroke-linecap="round" stroke-linejoin="round" opacity="1.0"/><path d="M292.0,73.0 L292.0,75.5 L292.0,78.1 L292.0,80.6 L292.0,83.2 L292.0,85.7 L292.0,88.3 L292.0,90.8 L292.0,93.4 L292.0,95.9 L292.0,98.5 L292.0,101.0" fill="none" stroke="#fbbf24" stroke-width="9" stroke-linecap="round" stroke-linejoin="round" opacity="1.0"/></g><g class="f13"><path d="M240.0,122.0 L235.2,122.4 L230.3,122.8 L225.5,123.2 L220.7,123.6 L215.8,124.0 L211.1,124.3 L208.3,124.0 L206.8,121.8 L207.8,115.5 L208.9,109.1 L210.0,102.8" fill="none" stroke="#8f2a3e" stroke-width="21" stroke-linecap="round" stroke-linejoin="round" opacity="0.95"/><path d="M240.0,122.0 L235.2,122.4 L230.3,122.8 L225.5,123.2 L220.7,123.6 L215.8,124.0 L211.1,124.3 L208.3,124.0 L206.8,121.8 L207.8,115.5 L208.9,109.1 L210.0,102.8" fill="none" stroke="#0c2020" stroke-width="13" stroke-linecap="round" stroke-linejoin="round" opacity="1.0"/><path d="M240.0,122.0 L244.8,122.4 L249.7,122.8 L254.5,123.2 L259.3,123.6 L264.2,124.0 L268.9,124.3 L271.7,124.0 L273.2,121.8 L272.2,115.5 L271.1,109.1 L270.0,102.8" fill="none" stroke="#f43f5e" stroke-width="21" stroke-linecap="round" stroke-linejoin="round" opacity="0.95"/><path d="M240.0,122.0 L244.8,122.4 L249.7,122.8 L254.5,123.2 L259.3,123.6 L264.2,124.0 L268.9,124.3 L271.7,124.0 L273.2,121.8 L272.2,115.5 L271.1,109.1 L270.0,102.8" fill="none" stroke="#0c2020" stroke-width="13" stroke-linecap="round" stroke-linejoin="round" opacity="1.0"/><path d="M184.0,102.8 L194.2,102.8 L204.4,102.8 L214.5,102.8 L224.7,102.8 L234.9,102.8 L245.1,102.8 L255.3,102.8 L265.5,102.8 L275.6,102.8 L285.8,102.8 L296.0,102.8" fill="none" stroke="#fbbf24" stroke-width="6" stroke-linecap="round" stroke-linejoin="round" opacity="1.0"/><path d="M188.0,88.8 L188.0,91.3 L188.0,93.9 L188.0,96.4 L188.0,99.0 L188.0,101.5 L188.0,104.1 L188.0,106.6 L188.0,109.2 L188.0,111.7 L188.0,114.2 L188.0,116.8" fill="none" stroke="#fbbf24" stroke-width="9" stroke-linecap="round" stroke-linejoin="round" opacity="1.0"/><path d="M292.0,88.8 L292.0,91.3 L292.0,93.9 L292.0,96.4 L292.0,99.0 L292.0,101.5 L292.0,104.1 L292.0,106.6 L292.0,109.2 L292.0,111.7 L292.0,114.2 L292.0,116.8" fill="none" stroke="#fbbf24" stroke-width="9" stroke-linecap="round" stroke-linejoin="round" opacity="1.0"/></g><g class="f14"><path d="M240.0,122.0 L235.4,123.9 L230.7,125.8 L226.1,127.7 L221.5,129.6 L216.9,131.5 L212.3,133.4 L208.7,135.0 L206.6,134.2 L207.7,128.3 L208.9,122.4 L210.0,116.6" fill="none" stroke="#8f2a3e" stroke-width="21" stroke-linecap="round" stroke-linejoin="round" opacity="0.95"/><path d="M240.0,122.0 L235.4,123.9 L230.7,125.8 L226.1,127.7 L221.5,129.6 L216.9,131.5 L212.3,133.4 L208.7,135.0 L206.6,134.2 L207.7,128.3 L208.9,122.4 L210.0,116.6" fill="none" stroke="#0c2020" stroke-width="13" stroke-linecap="round" stroke-linejoin="round" opacity="1.0"/><path d="M240.0,122.0 L244.6,123.9 L249.3,125.8 L253.9,127.7 L258.5,129.6 L263.1,131.5 L267.7,133.4 L271.3,135.0 L273.4,134.2 L272.3,128.3 L271.1,122.4 L270.0,116.6" fill="none" stroke="#f43f5e" stroke-width="21" stroke-linecap="round" stroke-linejoin="round" opacity="0.95"/><path d="M240.0,122.0 L244.6,123.9 L249.3,125.8 L253.9,127.7 L258.5,129.6 L263.1,131.5 L267.7,133.4 L271.3,135.0 L273.4,134.2 L272.3,128.3 L271.1,122.4 L270.0,116.6" fill="none" stroke="#0c2020" stroke-width="13" stroke-linecap="round" stroke-linejoin="round" opacity="1.0"/><path d="M184.0,116.6 L194.2,116.6 L204.4,116.6 L214.5,116.6 L224.7,116.6 L234.9,116.6 L245.1,116.6 L255.3,116.6 L265.5,116.6 L275.6,116.6 L285.8,116.6 L296.0,116.6" fill="none" stroke="#fbbf24" stroke-width="6" stroke-linecap="round" stroke-linejoin="round" opacity="1.0"/><path d="M188.0,102.6 L188.0,105.1 L188.0,107.7 L188.0,110.2 L188.0,112.7 L188.0,115.3 L188.0,117.8 L188.0,120.4 L188.0,122.9 L188.0,125.5 L188.0,128.0 L188.0,130.6" fill="none" stroke="#fbbf24" stroke-width="9" stroke-linecap="round" stroke-linejoin="round" opacity="1.0"/><path d="M292.0,102.6 L292.0,105.1 L292.0,107.7 L292.0,110.2 L292.0,112.7 L292.0,115.3 L292.0,117.8 L292.0,120.4 L292.0,122.9 L292.0,125.5 L292.0,128.0 L292.0,130.6" fill="none" stroke="#fbbf24" stroke-width="9" stroke-linecap="round" stroke-linejoin="round" opacity="1.0"/></g><g class="f15"><path d="M240.0,122.0 L235.5,125.0 L231.0,128.0 L226.6,130.9 L222.1,133.9 L217.6,136.9 L213.1,139.9 L208.9,142.7 L206.4,143.0 L207.6,137.4 L208.8,131.9 L210.0,126.3" fill="none" stroke="#8f2a3e" stroke-width="21" stroke-linecap="round" stroke-linejoin="round" opacity="0.95"/><path d="M240.0,122.0 L235.5,125.0 L231.0,128.0 L226.6,130.9 L222.1,133.9 L217.6,136.9 L213.1,139.9 L208.9,142.7 L206.4,143.0 L207.6,137.4 L208.8,131.9 L210.0,126.3" fill="none" stroke="#0c2020" stroke-width="13" stroke-linecap="round" stroke-linejoin="round" opacity="1.0"/><path d="M240.0,122.0 L244.5,125.0 L249.0,128.0 L253.4,130.9 L257.9,133.9 L262.4,136.9 L266.9,139.9 L271.1,142.7 L273.6,143.0 L272.4,137.4 L271.2,131.9 L270.0,126.3" fill="none" stroke="#f43f5e" stroke-width="21" stroke-linecap="round" stroke-linejoin="round" opacity="0.95"/><path d="M240.0,122.0 L244.5,125.0 L249.0,128.0 L253.4,130.9 L257.9,133.9 L262.4,136.9 L266.9,139.9 L271.1,142.7 L273.6,143.0 L272.4,137.4 L271.2,131.9 L270.0,126.3" fill="none" stroke="#0c2020" stroke-width="13" stroke-linecap="round" stroke-linejoin="round" opacity="1.0"/><path d="M184.0,126.3 L194.2,126.3 L204.4,126.3 L214.5,126.3 L224.7,126.3 L234.9,126.3 L245.1,126.3 L255.3,126.3 L265.5,126.3 L275.6,126.3 L285.8,126.3 L296.0,126.3" fill="none" stroke="#fbbf24" stroke-width="6" stroke-linecap="round" stroke-linejoin="round" opacity="1.0"/><path d="M188.0,112.3 L188.0,114.9 L188.0,117.4 L188.0,119.9 L188.0,122.5 L188.0,125.0 L188.0,127.6 L188.0,130.1 L188.0,132.7 L188.0,135.2 L188.0,137.8 L188.0,140.3" fill="none" stroke="#fbbf24" stroke-width="9" stroke-linecap="round" stroke-linejoin="round" opacity="1.0"/><path d="M292.0,112.3 L292.0,114.9 L292.0,117.4 L292.0,119.9 L292.0,122.5 L292.0,125.0 L292.0,127.6 L292.0,130.1 L292.0,132.7 L292.0,135.2 L292.0,137.8 L292.0,140.3" fill="none" stroke="#fbbf24" stroke-width="9" stroke-linecap="round" stroke-linejoin="round" opacity="1.0"/></g></svg>
