<svg xmlns="http://www.w3.org/2000/svg" viewBox="0 0 480 320"><style>@keyframes k0{0%{opacity:1}11.111%{opacity:0}100%{opacity:0}}.f0{opacity:0;animation:k0 2.4s steps(1,end) infinite}@keyframes k1{0%{opacity:0}11.111%{opacity:1}16.667%{opacity:0}100%{opacity:0}}.f1{opacity:0;animation:k1 2.4s steps(1,end) infinite}@keyframes k2{0%{opacity:0}16.667%{opacity:1}22.222%{opacity:0}100%{opacity:0}}.f2{opacity:0;animation:k2 2.4s steps(1,end) infinite}@keyframes k3{0%{opacity:0}22.222%{opacity:1}27.778%{opacity:0}100%{opacity:0}}.f3{opacity:0;animation:k3 2.4s steps(1,end) infinite}@keyframes k4{0%{opacity:0}27.778%{opacity:1}33.333%{opacity:0}100%{opacity:0}}.f4{opacity:0;animation:k4 2.4s steps(1,end) infinite}@keyframes k5{0%{opacity:0}33.333%{opacity:1}38.889%{opacity:0}100%{opacity:0}}.f5{opacity:0;animation:k5 2.4s steps(1,end) infinite}@keyframes k6{0%{opacity:0}38.889%{opacity:1}44.444%{opacity:0}100%{opacity:0}}.f6{opacity:0;animation:k6 2.4s steps(1,end) infinite}@keyframes k7{0%{opacity:0}44.444%{opacity:1}50.000%{opacity:0}100%{opacity:0}}.f7{opacity:0;animation:k7 2.4s steps(1,end) infinite}@keyframes k8{0%{opacity:0}50.000%{opacity:1}61.111%{opacity:0}100%{opacity:0}}.f8{opacity:0;animation:k8 2.4s steps(1,end) infinite}@keyframes k9{0%{opacity:0}61.111%{opacity:1}66.667%{opacity:0}100%{opacity:0}}.f9{opacity:0;animation:k9 2.4s steps(1,end) infinite}@keyframes k10{0%{opacity:0}66.667%{opacity:1}72.222%{opacity:0}100%{opacity:0}}.f10{opacity:0;animation:k10 2.4s steps(1,end) infinite}@keyframes k11{0%{opacity:0}72.222%{opacity:1}77.778%{opacity:0}100%{opacity:0}}.f11{opacity:0;animation:k11 2.4s steps(1,end) infinite}@keyframes k12{0%{opacity:0}77.778%{opacity:1}83.333%{opacity:0}100%{opacity:0}}.f12{opacity:0;animation:k12 2.4s steps(1,end) infinite}@keyframes k13{0%{opacity:0}83.333%{opacity:1}88.889%{opacity:0}100%{opacity:0}}.f13{opacity:0;animation:k13 2.4s steps(1,end) infinite}@keyframes k14{0%{opacity:0}88.889%{opacity:1}94.444%{opacity:0}100%{opacity:0}}.f14{opacity:0;animation:k14 2.4s steps(1,end) infinite}@keyframes k15{0%{opacity:0}94.444%{opacity:1}100%{opacity:1}}.f15{opacity:0;animation:k15 2.4s steps(1,end) infinite}</style><path d="M40.0,292.0 L440.0,292.0" fill="none" stroke="#1f3333" stroke-width="6" stroke-linecap="round" stroke-linejoin="round" opacity="1.0"/><path d="M240.0,205.0 L244.0,248.0 L238.0,292.0" fill="none" stroke="#0d9488" stroke-width="19" stroke-linecap="round" stroke-linejoin="round" opacity="0.95"/><path d="M240.0,205.0 L244.0,248.0 L238.0,292.0" fill="none" stroke="#0c2020" stroke-width="11" stroke-linecap="round" stroke-linejoin="round" opacity="1.0"/><path d="M240.0,205.0 L254.0,248.0 L250.0,292.0" fill="none" stroke="#2dd4bf" stroke-width="19" stroke-linecap="round" stroke-linejoin="round" opacity="0.95"/><path d="M240.0,205.0 L254.0,248.0 L250.0,292.0" fill="none" stroke="#0c2020" stroke-width="11" stroke-linecap="round" stroke-linejoin="round" opacity="1.0"/><path d="M180.0,150.0 L240.0,205.0" fill="none" stroke="#2dd4bf" stroke-width="23" stroke-linecap="round" stroke-linejoin="round" opacity="0.95"/><path d="M180.0,150.0 L240.0,205.0" fill="none" stroke="#0c2020" stroke-width="15" stroke-linecap="round" stroke-linejoin="round" opacity="1.0"/><circle cx="156.0" cy="138.0" r="19.0" fill="#2dd4bf" stroke="none" stroke-width="0" opacity="0.95"/><circle cx="156.0" cy="138.0" r="15.0" fill="#0c2020" stroke="none" stroke-width="6.3" opacity="1.0"/><path d="M154.0,121.0 L135.0,140.0 L139.0,159.0" fill="none" stroke="#2dd4bf" stroke-width="5" stroke-linecap="round" stroke-linejoin="round" opacity="1.0"/><path d="M146.7,135.0 L165.3,135.0" fill="none" stroke="#a7f3ee" stroke-width="5" stroke-linecap="round" stroke-linejoin="round" opacity="1.0"/><g class="f0"><path d="M180.0,150.0 L181.1,159.3 L182.2,168.5 L183.3,177.8 L184.4,187.1 L185.5,196.4 L186.5,205.6 L187.6,214.9 L188.7,224.2 L189.8,233.5 L190.9,242.7 L192.0,252.0" fill="none" stroke="#f43f5e" stroke-width="19" stroke-linecap="round" stroke-linejoin="round" opacity="0.95"/><path d="M180.0,150.0 L181.1,159.3 L182.2,168.5 L183.3,177.8 L184.4,187.1 L185.5,196.4 L186.5,205.6 L187.6,214.9 L188.7,224.2 L189.8,233.5 L190.9,242.7 L192.0,252.0" fill="none" stroke="#0c2020" stroke-width="11" stroke-linecap="round" stroke-linejoin="round" opacity="1.0"/><circle cx="192.0" cy="252.0" r="13.0" fill="none" stroke="#fbbf24" stroke-width="6" opacity="1.0"/><path d="M188.0,252.0 L188.7,252.0 L189.5,252.0 L190.2,252.0 L190.9,252.0 L191.6,252.0 L192.4,252.0 L193.1,252.0 L193.8,252.0 L194.5,252.0 L195.3,252.0 L196.0,252.0" fill="none" stroke="#fbbf24" stroke-width="5" stroke-linecap="round" stroke-linejoin="round" opacity="1.0"/></g><g class="f1"><path d="M180.0,150.0 L181.1,159.1 L182.2,168.1 L183.3,177.2 L184.4,186.2 L185.5,195.3 L186.6,204.4 L187.7,213.4 L188.9,222.5 L190.0,231.6 L191.1,240.6 L192.2,249.7" fill="none" stroke="#f43f5e" stroke-width="19" stroke-linecap="round" stroke-linejoin="round" opacity="0.95"/><path d="M180.0,150.0 L181.1,159.1 L182.2,168.1 L183.3,177.2 L184.4,186.2 L185.5,195.3 L186.6,204.4 L187.7,213.4 L188.9,222.5 L190.0,231.6 L191.1,240.6 L192.2,249.7" fill="none" stroke="#0c2020" stroke-width="11" stroke-linecap="round" stroke-linejoin="round" opacity="1.0"/><circle cx="192.2" cy="249.7" r="13.0" fill="none" stroke="#fbbf24" stroke-width="6" opacity="1.0"/><path d="M188.2,249.7 L188.9,249.7 L189.6,249.7 L190.4,249.7 L191.1,249.7 L191.8,249.7 L192.5,249.7 L193.3,249.7 L194.0,249.7 L194.7,249.7 L195.4,249.7 L196.2,249.7" fill="none" stroke="#fbbf24" stroke-width="5" stroke-linecap="round" stroke-linejoin="round" opacity="1.0"/></g><g class="f2"><path d="M180.0,150.0 L181.1,158.5 L182.3,167.0 L183.4,175.5 L184.6,184.0 L185.7,192.5 L186.9,201.0 L188.0,209.5 L189.2,218.0 L190.3,226.6 L191.5,235.1 L192.6,243.6" fill="none" stroke="#f43f5e" stroke-width="19" stroke-linecap="round" stroke-linejoin="round" opacity="0.95"/><path d="M180.0,150.0 L181.1,158.5 L182.3,167.0 L183.4,175.5 L184.6,184.0 L185.7,192.5 L186.9,201.0 L188.0,209.5 L189.2,218.0 L190.3,226.6 L191.5,235.1 L192.6,243.6" fill="none" stroke="#0c2020" stroke-width="11" stroke-linecap="round" stroke-linejoin="round" opacity="1.0"/><circle cx="192.6" cy="243.6" r="13.0" fill="none" stroke="#fbbf24" stroke-width="6" opacity="1.0"/><path d="M188.6,243.6 L189.4,243.6 L190.1,243.6 L190.8,243.6 L191.5,243.6 L192.3,243.6 L193.0,243.6 L193.7,243.6 L194.4,243.6 L195.2,243.6 L195.9,243.6 L196.6,243.6" fill="none" stroke="#fbbf24" stroke-width="5" stroke-linecap="round" stroke-linejoin="round" opacity="1.0"/></g><g class="f3"><path d="M180.0,150.0 L181.2,157.7 L182.4,165.4 L183.6,173.2 L184.8,180.9 L186.0,188.6 L187.2,196.3 L188.4,204.0 L189.6,211.8 L190.9,219.5 L192.1,227.2 L193.3,234.9" fill="none" stroke="#f43f5e" stroke-width="19" stroke-linecap="round" stroke-linejoin="round" opacity="0.95"/><path d="M180.0,150.0 L181.2,157.7 L182.4,165.4 L183.6,173.2 L184.8,180.9 L186.0,188.6 L187.2,196.3 L188.4,204.0 L189.6,211.8 L190.9,219.5 L192.1,227.2 L193.3,234.9" fill="none" stroke="#0c2020" stroke-width="11" stroke-linecap="round" stroke-linejoin="round" opacity="1.0"/><circle cx="193.3" cy="234.9" r="13.0" fill="none" stroke="#fbbf24" stroke-width="6" opacity="1.0"/><path d="M189.3,234.9 L190.0,234.9 L190.7,234.9 L191.4,234.9 L192.2,234.9 L192.9,234.9 L193.6,234.9 L194.4,234.9 L195.1,234.9 L195.8,234.9 L196.5,234.9 L197.3,234.9" fill="none" stroke="#fbbf24" stroke-width="5" stroke-linecap="round" stroke-linejoin="round" opacity="1.0"/></g><g class="f4"><path d="M180.0,150.0 L181.3,156.8 L182.5,163.6 L183.8,170.5 L185.1,177.3 L186.4,184.1 L187.6,190.9 L188.9,197.7 L190.2,204.5 L191.5,211.4 L192.7,218.2 L194.0,225.0" fill="none" stroke="#f43f5e" stroke-width="19" stroke-linecap="round" stroke-linejoin="round" opacity="0.95"/><path d="M180.0,150.0 L181.3,156.8 L182.5,163.6 L183.8,170.5 L185.1,177.3 L186.4,184.1 L187.6,190.9 L188.9,197.7 L190.2,204.5 L191.5,211.4 L192.7,218.2 L194.0,225.0" fill="none" stroke="#0c2020" stroke-width="11" stroke-linecap="round" stroke-linejoin="round" opacity="1.0"/><circle cx="194.0" cy="225.0" r="13.0" fill="none" stroke="#fbbf24" stroke-width="6" opacity="1.0"/><path d="M190.0,225.0 L190.7,225.0 L191.5,225.0 L192.2,225.0 L192.9,225.0 L193.6,225.0 L194.4,225.0 L195.1,225.0 L195.8,225.0 L196.5,225.0 L197.3,225.0 L198.0,225.0" fill="none" stroke="#fbbf24" stroke-width="5" stroke-linecap="round" stroke-linejoin="round" opacity="1.0"/></g><g class="f5"><path d="M180.0,150.0 L181.3,155.9 L182.7,161.8 L184.0,167.8 L185.4,173.7 L186.7,179.6 L188.0,185.5 L189.4,191.4 L190.7,197.3 L192.1,203.3 L193.4,209.2 L194.7,215.1" fill="none" stroke="#f43f5e" stroke-width="19" stroke-linecap="round" stroke-linejoin="round" opacity="0.95"/><path d="M180.0,150.0 L181.3,155.9 L182.7,161.8 L184.0,167.8 L185.4,173.7 L186.7,179.6 L188.0,185.5 L189.4,191.4 L190.7,197.3 L192.1,203.3 L193.4,209.2 L194.7,215.1" fill="none" stroke="#0c2020" stroke-width="11" stroke-linecap="round" stroke-linejoin="round" opacity="1.0"/><circle cx="194.7" cy="215.1" r="13.0" fill="none" stroke="#fbbf24" stroke-width="6" opacity="1.0"/><path d="M190.7,215.1 L191.5,215.1 L192.2,215.1 L192.9,215.1 L193.6,215.1 L194.4,215.1 L195.1,215.1 L195.8,215.1 L196.6,215.1 L197.3,215.1 L198.0,215.1 L198.7,215.1" fill="none" stroke="#fbbf24" stroke-width="5" stroke-linecap="round" stroke-linejoin="round" opacity="1.0"/></g><g class="f6"><path d="M180.0,150.0 L181.4,155.1 L182.8,160.3 L184.2,165.4 L185.6,170.5 L187.0,175.7 L188.4,180.8 L189.8,185.9 L191.2,191.0 L192.6,196.2 L194.0,201.3 L195.4,206.4" fill="none" stroke="#f43f5e" stroke-width="19" stroke-linecap="round" stroke-linejoin="round" opacity="0.95"/><path d="M180.0,150.0 L181.4,155.1 L182.8,160.3 L184.2,165.4 L185.6,170.5 L187.0,175.7 L188.4,180.8 L189.8,185.9 L191.2,191.0 L192.6,196.2 L194.0,201.3 L195.4,206.4" fill="none" stroke="#0c2020" stroke-width="11" stroke-linecap="round" stroke-linejoin="round" opacity="1.0"/><circle cx="195.4" cy="206.4" r="13.0" fill="none" stroke="#fbbf24" stroke-width="6" opacity="1.0"/><path d="M191.4,206.4 L192.1,206.4 L192.8,206.4 L193.6,206.4 L194.3,206.4 L195.0,206.4 L195.7,206.4 L196.5,206.4 L197.2,206.4 L197.9,206.4 L198.6,206.4 L199.4,206.4" fill="none" stroke="#fbbf24" stroke-width="5" stroke-linecap="round" stroke-linejoin="round" opacity="1.0"/></g><g class="f7"><path d="M180.0,150.0 L181.4,154.6 L182.9,159.1 L184.3,163.7 L185.8,168.3 L187.2,172.9 L188.6,177.4 L190.1,182.0 L191.5,186.6 L193.0,191.2 L194.4,195.7 L195.8,200.3" fill="none" stroke="#f43f5e" stroke-width="19" stroke-linecap="round" stroke-linejoin="round" opacity="0.95"/><path d="M180.0,150.0 L181.4,154.6 L182.9,159.1 L184.3,163.7 L185.8,168.3 L187.2,172.9 L188.6,177.4 L190.1,182.0 L191.5,186.6 L193.0,191.2 L194.4,195.7 L195.8,200.3" fill="none" stroke="#0c2020" stroke-width="11" stroke-linecap="round" stroke-linejoin="round" opacity="1.0"/><circle cx="195.8" cy="200.3" r="13.0" fill="none" stroke="#fbbf24" stroke-width="6" opacity="1.0"/><path d="M191.8,200.3 L192.6,200.3 L193.3,200.3 L194.0,200.3 L194.7,200.3 L195.5,200.3 L196.2,200.3 L196.9,200.3 L197.6,200.3 L198.4,200.3 L199.1,200.3 L199.8,200.3" fill="none" stroke="#fbbf24" stroke-width="5" stroke-linecap="round" stroke-linejoin="round" opacity="1.0"/></g><g class="f8"><path d="M180.0,150.0 L181.5,154.4 L182.9,158.7 L184.4,163.1 L185.8,167.5 L187.3,171.8 L188.7,176.2 L190.2,180.5 L191.6,184.9 L193.1,189.3 L194.5,193.6 L196.0,198.0" fill="none" stroke="#f43f5e" stroke-width="19" stroke-linecap="round" stroke-linejoin="round" opacity="0.95"/><path d="M180.0,150.0 L181.5,154.4 L182.9,158.7 L184.4,163.1 L185.8,167.5 L187.3,171.8 L188.7,176.2 L190.2,180.5 L191.6,184.9 L193.1,189.3 L194.5,193.6 L196.0,198.0" fill="none" stroke="#0c2020" stroke-width="11" stroke-linecap="round" stroke-linejoin="round" opacity="1.0"/><circle cx="196.0" cy="198.0" r="13.0" fill="none" stroke="#fbbf24" stroke-width="6" opacity="1.0"/><path d="M192.0,198.0 L192.7,198.0 L193.5,198.0 L194.2,198.0 L194.9,198.0 L195.6,198.0 L196.4,198.0 L197.1,198.0 L197.8,198.0 L198.5,198.0 L199.3,198.0 L200.0,198.0" fill="none" stroke="#fbbf24" stroke-width="5" stroke-linecap="round" stroke-linejoin="round" opacity="1.0"/></g><g class="f9"><path d="M180.0,150.0 L181.4,154.6 L182.9,159.1 L184.3,163.7 L185.8,168.3 L187.2,172.9 L188.6,177.4 L190.1,182.0 L191.5,186.6 L193.0,191.2 L194.4,195.7 L195.8,200.3" fill="none" stroke="#f43f5e" stroke-width="19" stroke-linecap="round" stroke-linejoin="round" opacity="0.95"/><path d="M180.0,150.0 L181.4,154.6 L182.9,159.1 L184.3,163.7 L185.8,168.3 L187.2,172.9 L188.6,177.4 L190.1,182.0 L191.5,186.6 L193.0,191.2 L194.4,195.7 L195.8,200.3" fill="none" stroke="#0c2020" stroke-width="11" stroke-linecap="round" stroke-linejoin="round" opacity="1.0"/><circle cx="195.8" cy="200.3" r="13.0" fill="none" stroke="#fbbf24" stroke-width="6" opacity="1.0"/><path d="M191.8,200.3 L192.6,200.3 L193.3,200.3 L194.0,200.3 L194.7,200.3 L195.5,200.3 L196.2,200.3 L196.9,200.3 L197.6,200.3 L198.4,200.3 L199.1,200.3 L199.8,200.3" fill="none" stroke="#fbbf24" stroke-width="5" stroke-linecap="round" stroke-linejoin="round" opacity="1.0"/></g><g class="f10"><path d="M180.0,150.0 L181.4,155.1 L182.8,160.3 L184.2,165.4 L185.6,170.5 L187.0,175.7 L188.4,180.8 L189.8,185.9 L191.2,191.0 L192.6,196.2 L194.0,201.3 L195.4,206.4" fill="none" stroke="#f43f5e" stroke-width="19" stroke-linecap="round" stroke-linejoin="round" opacity="0.95"/><path d="M180.0,150.0 L181.4,155.1 L182.8,160.3 L184.2,165.4 L185.6,170.5 L187.0,175.7 L188.4,180.8 L189.8,185.9 L191.2,191.0 L192.6,196.2 L194.0,201.3 L195.4,206.4" fill="none" stroke="#0c2020" stroke-width="11" stroke-linecap="round" stroke-linejoin="round" opacity="1.0"/><circle cx="195.4" cy="206.4" r="13.0" fill="none" stroke="#fbbf24" stroke-width="6" opacity="1.0"/><path d="M191.4,206.4 L192.1,206.4 L192.8,206.4 L193.6,206.4 L194.3,206.4 L195.0,206.4 L195.7,206.4 L196.5,206.4 L197.2,206.4 L197.9,206.4 L198.6,206.4 L199.4,206.4" fill="none" stroke="#fbbf24" stroke-width="5" stroke-linecap="round" stroke-linejoin="round" opacity="1.0"/></g><g class="f11"><path d="M180.0,150.0 L181.3,155.9 L182.7,161.8 L184.0,167.8 L185.4,173.7 L186.7,179.6 L188.0,185.5 L189.4,191.4 L190.7,197.3 L192.1,203.3 L193.4,209.2 L194.7,215.1" fill="none" stroke="#f43f5e" stroke-width="19" stroke-linecap="round" stroke-linejoin="round" opacity="0.95"/><path d="M180.0,150.0 L181.3,155.9 L182.7,161.8 L184.0,167.8 L185.4,173.7 L186.7,179.6 L188.0,185.5 L189.4,191.4 L190.7,197.3 L192.1,203.3 L193.4,209.2 L194.7,215.1" fill="none" stroke="#0c2020" stroke-width="11" stroke-linecap="round" stroke-linejoin="round" opacity="1.0"/><circle cx="194.7" cy="215.1" r="13.0" fill="none" stroke="#fbbf24" stroke-width="6" opacity="1.0"/><path d="M190.7,215.1 L191.5,215.1 L192.2,215.1 L192.9,215.1 L193.6,215.1 L194.4,215.1 L195.1,215.1 L195.8,215.1 L196.6,215.1 L197.3,215.1 L198.0,215.1 L198.7,215.1" fill="none" stroke="#fbbf24" stroke-width="5" stroke-linecap="round" stroke-linejoin="round" opacity="1.0"/></g><g class="f12"><path d="M180.0,150.0 L181.3,156.8 L182.5,163.6 L183.8,170.5 L185.1,177.3 L186.4,184.1 L187.6,190.9 L188.9,197.7 L190.2,204.5 L191.5,211.4 L192.7,218.2 L194.0,225.0" fill="none" stroke="#f43f5e" stroke-width="19" stroke-linecap="round" stroke-linejoin="round" opacity="0.95"/><path d="M180.0,150.0 L181.3,156.8 L182.5,163.6 L183.8,170.5 L185.1,177.3 L186.4,184.1 L187.6,190.9 L188.9,197.7 L190.2,204.5 L191.5,211.4 L192.7,218.2 L194.0,225.0" fill="none" stroke="#0c2020" stroke-width="11" stroke-linecap="round" stroke-linejoin="round" opacity="1.0"/><circle cx="194.0" cy="225.0" r="13.0" fill="none" stroke="#fbbf24" stroke-width="6" opacity="1.0"/><path d="M190.0,225.0 L190.7,225.0 L191.5,225.0 L192.2,225.0 L192.9,225.0 L193.6,225.0 L194.4,225.0 L195.1,225.0 L195.8,225.0 L196.5,225.0 L197.3,225.0 L198.0,225.0" fill="none" stroke="#fbbf24" stroke-width="5" stroke-linecap="round" stroke-linejoin="round" opacity="1.0"/></g><g class="f13"><path d="M180.0,150.0 L181.2,157.7 L182.4,165.4 L183.6,173.2 L184.8,180.9 L186.0,188.6 L187.2,196.3 L188.4,204.0 L189.6,211.8 L190.9,219.5 L192.1,227.2 L193.3,234.9" fill="none" stroke="#f43f5e" stroke-width="19" stroke-linecap="round" stroke-linejoin="round" opacity="0.95"/><path d="M180.0,150.0 L181.2,157.7 L182.4,165.4 L183.6,173.2 L184.8,180.9 L186.0,188.6 L187.2,196.3 L188.4,204.0 L189.6,211.8 L190.9,219.5 L192.1,227.2 L193.3,234.9" fill="none" stroke="#0c2020" stroke-width="11" stroke-linecap="round" stroke-linejoin="round" opacity="1.0"/><circle cx="193.3" cy="234.9" r="13.0" fill="none" stroke="#fbbf24" stroke-width="6" opacity="1.0"/><path d="M189.3,234.9 L190.0,234.9 L190.7,234.9 L191.4,234.9 L192.2,234.9 L192.9,234.9 L193.6,234.9 L194.4,234.9 L195.1,234.9 L195.8,234.9 L196.5,234.9 L197.3,234.9" fill="none" stroke="#fbbf24" stroke-width="5" stroke-linecap="round" stroke-linejoin="round" opacity="1.0"/></g><g class="f14"><path d="M180.0,150.0 L181.1,158.5 L182.3,167.0 L183.4,175.5 L184.6,184.0 L185.7,192.5 L186.9,201.0 L188.0,209.5 L189.2,218.0 L190.3,226.6 L191.5,235.1 L192.6,243.6" fill="none" stroke="#f43f5e" stroke-width="19" stroke-linecap="round" stroke-linejoin="round" opacity="0.95"/><path d="M180.0,150.0 L181.1,158.5 L182.3,167.0 L183.4,175.5 L184.6,184.0 L185.7,192.5 L186.9,201.0 L188.0,209.5 L189.2,218.0 L190.3,226.6 L191.5,235.1 L192.6,243.6" fill="none" stroke="#0c2020" stroke-width="11" stroke-linecap="round" stroke-linejoin="round" opacity="1.0"/><circle cx="192.6" cy="243.6" r="13.0" fill="none" stroke="#fbbf24" stroke-width="6" opacity="1.0"/><path d="M188.6,243.6 L189.4,243.6 L190.1,243.6 L190.8,243.6 L191.5,243.6 L192.3,243.6 L193.0,243.6 L193.7,243.6 L194.4,243.6 L195.2,243.6 L195.9,243.6 L196.6,243.6" fill="none" stroke="#fbbf24" stroke-width="5" stroke-linecap="round" stroke-linejoin="round" opacity="1.0"/></g><g class="f15"><path d="M180.0,150.0 L181.1,159.1 L182.2,168.1 L183.3,177.2 L184.4,186.2 L185.5,195.3 L186.6,204.4 L187.7,213.4 L188.9,222.5 L190.0,231.6 L191.1,240.6 L192.2,249.7" fill="none" stroke="#f43f5e" stroke-width="19" stroke-linecap="round" stroke-linejoin="round" opacity="0.95"/><path d="M180.0,150.0 L181.1,159.1 L182.2,168.1 L183.3,177.2 L184.4,186.2 L185.5,195.3 L186.6,204.4 L187.7,213.4 L188.9,222.5 L190.0,231.6 L191.1,240.6 L192.2,249.7" fill="none" stroke="#0c2020" stroke-width="11" stroke-linecap="round" stroke-linejoin="round" opacity="1.0"/><circle cx="192.2" cy="249.7" r="13.0" fill="none" stroke="#fbbf24" stroke-width="6" opacity="1.0"/><path d="M188.2,249.7 L188.9,249.7 L189.6,249.7 L190.4,249.7 L191.1,249.7 L191.8,249.7 L192.5,249.7 L193.3,249.7 L194.0,249.7 L194.7,249.7 L195.4,249.7 L196.2,249.7" fill="none" stroke="#fbbf24" stroke-width="5" stroke-linecap="round" stroke-linejoin="round" opacity="1.0"/></g></svg>
