<svg xmlns="http://www.w3.org/2000/svg" viewBox="0 0 480 320"><style>@keyframes k0{0%{opacity:1}11.111%{opacity:0}100%{opacity:0}}.f0{opacity:0;animation:k0 2.4s steps(1,end) infinite}@keyframes k1{0%{opacity:0}11.111%{opacity:1}16.667%{opacity:0}100%{opacity:0}}.f1{opacity:0;animation:k1 2.4s steps(1,end) infinite}@keyframes k2{0%{opacity:0}16.667%{opacity:1}22.222%{opacity:0}100%{opacity:0}}.f2{opacity:0;animation:k2 2.4s steps(1,end) infinite}@keyframes k3{0%{opacity:0}22.222%{opacity:1}27.778%{opacity:0}100%{opacity:0}}.f3{opacity:0;animation:k3 2.4s steps(1,end) infinite}@keyframes k4{0%{opacity:0}27.778%{opacity:1}33.333%{opacity:0}100%{opacity:0}}.f4{opacity:0;animation:k4 2.4s steps(1,end) infinite}@keyframes k5{0%{opacity:0}33.333%{opacity:1}38.889%{opacity:0}100%{opacity:0}}.f5{opacity:0;animation:k5 2.4s steps(1,end) infinite}@keyframes k6{0%{opacity:0}38.889%{opacity:1}44.444%{opacity:0}100%{opacity:0}}.f6{opacity:0;animation:k6 2.4s steps(1,end) infinite}@keyframes k7{0%{opacity:0}44.444%{opacity:1}50.000%{opacity:0}100%{opacity:0}}.f7{opacity:0;animation:k7 2.4s steps(1,end) infinite}@keyframes k8{0%{opacity:0}50.000%{opacity:1}61.111%{opacity:0}100%{opacity:0}}.f8{opacity:0;animation:k8 2.4s steps(1,end) infinite}@keyframes k9{0%{opacity:0}61.111%{opacity:1}66.667%{opacity:0}100%{opacity:0}}.f9{opacity:0;animation:k9 2.4s steps(1,end) infinite}@keyframes k10{0%{opacity:0}66.667%{opacity:1}72.222%{opacity:0}100%{opacity:0}}.f10{opacity:0;animation:k10 2.4s steps(1,end) infinite}@keyframes k11{0%{opacity:0}72.222%{opacity:1}77.778%{opacity:0}100%{opacity:0}}.f11{opacity:0;animation:k11 2.4s steps(1,end) infinite}@keyframes k12{0%{opacity:0}77.778%{opacity:1}83.333%{opacity:0}100%{opacity:0}}.f12{opacity:0;animation:k12 2.4s steps(1,end) infinite}@keyframes k13{0%{opacity:0}83.333%{opacity:1}88.889%{opacity:0}100%{opacity:0}}.f13{opacity:0;animation:k13 2.4s steps(1,end) infinite}@keyframes k14{0%{opacity:0}88.889%{opacity:1}94.444%{opacity:0}100%{opacity:0}}.f14{opacity:0;animation:k14 2.4s steps(1,end) infinite}@keyframes k15{0%{opacity:0}94.444%{opacity:1}100%{opacity:1}}.f15{opacity:0;animation:k15 2.4s steps(1,end) infinite}</style><path d="M40.0,292.0 L440.0,292.0" fill="none" stroke="#1f3333" stroke-width="6" stroke-linecap="round" stroke-linejoin="round" opacity="1.0"/><path d="M290.0,200.0 L190.0,202.0" fill="none" stroke="#2dd4bf" stroke-width="25" stroke-linecap="round" stroke-linejoin="round" opacity="0.95"/><path d="M290.0,200.0 L190.0,202.0" fill="none" stroke="#0c2020" stroke-width="17" stroke-linecap="round" stroke-linejoin="round" opacity="1.0"/><circle cx="316.0" cy="192.0" r="19.0" fill="#2dd4bf" stroke="none" stroke-width="0" opacity="0.95"/><circle cx="316.0" cy="192.0" r="15.0" fill="#0c2020" stroke="none" stroke-width="6.3" opacity="1.0"/><path d="M306.7,189.0 L325.3,189.0" fill="none" stroke="#a7f3ee" stroke-width="5" stroke-linecap="round" stroke-linejoin="round" opacity="1.0"/><g class="f0"><path d="M290.0,200.0 L290.5,208.4 L291.1,216.7 L291.6,225.1 L292.2,233.5 L292.7,241.8 L293.3,250.2 L293.8,258.5 L294.4,266.9 L294.9,275.3 L295.5,283.6 L296.0,292.0" fill="none" stroke="#8f2a3e" stroke-width="21" stroke-linecap="round" stroke-linejoin="round" opacity="0.95"/><path d="M290.0,200.0 L290.5,208.4 L291.1,216.7 L291.6,225.1 L292.2,233.5 L292.7,241.8 L293.3,250.2 L293.8,258.5 L294.4,266.9 L294.9,275.3 L295.5,283.6 L296.0,292.0" fill="none" stroke="#0c2020" stroke-width="13" stroke-linecap="round" stroke-linejoin="round" opacity="1.0"/><path d="M290.0,200.0 L292.7,208.4 L295.5,216.7 L298.2,225.1 L300.9,233.5 L303.6,241.8 L306.4,250.2 L309.1,258.5 L311.8,266.9 L314.5,275.3 L317.3,283.6 L320.0,292.0" fill="none" stroke="#f43f5e" stroke-width="21" stroke-linecap="round" stroke-linejoin="round" opacity="0.95"/><path d="M290.0,200.0 L292.7,208.4 L295.5,216.7 L298.2,225.1 L300.9,233.5 L303.6,241.8 L306.4,250.2 L309.1,258.5 L311.8,266.9 L314.5,275.3 L317.3,283.6 L320.0,292.0" fill="none" stroke="#0c2020" stroke-width="13" stroke-linecap="round" stroke-linejoin="round" opacity="1.0"/><path d="M190.0,202.0 L184.9,209.5 L179.8,216.9 L174.7,224.4 L169.7,231.8 L164.6,239.3 L160.0,246.9 L159.6,255.9 L159.2,264.9 L158.8,274.0 L158.4,283.0 L158.0,292.0" fill="none" stroke="#0d9488" stroke-width="21" stroke-linecap="round" stroke-linejoin="round" opacity="0.95"/><path d="M190.0,202.0 L184.9,209.5 L179.8,216.9 L174.7,224.4 L169.7,231.8 L164.6,239.3 L160.0,246.9 L159.6,255.9 L159.2,264.9 L158.8,274.0 L158.4,283.0 L158.0,292.0" fill="none" stroke="#0c2020" stroke-width="13" stroke-linecap="round" stroke-linejoin="round" opacity="1.0"/><path d="M190.0,202.0 L188.2,210.1 L186.3,218.2 L184.5,226.3 L182.6,234.4 L180.8,242.6 L180.6,250.8 L181.7,259.0 L182.8,267.3 L183.8,275.5 L184.9,283.8 L186.0,292.0" fill="none" stroke="#2dd4bf" stroke-width="21" stroke-linecap="round" stroke-linejoin="round" opacity="0.95"/><path d="M190.0,202.0 L188.2,210.1 L186.3,218.2 L184.5,226.3 L182.6,234.4 L180.8,242.6 L180.6,250.8 L181.7,259.0 L182.8,267.3 L183.8,275.5 L184.9,283.8 L186.0,292.0" fill="none" stroke="#0c2020" stroke-width="13" stroke-linecap="round" stroke-linejoin="round" opacity="1.0"/></g><g class="f1"><path d="M290.0,200.0 L290.6,208.4 L291.3,216.7 L291.9,225.1 L292.6,233.5 L293.2,241.8 L293.8,250.2 L294.5,258.5 L295.1,266.9 L295.8,275.3 L296.4,283.6 L297.0,292.0" fill="none" stroke="#8f2a3e" stroke-width="21" stroke-linecap="round" stroke-linejoin="round" opacity="0.95"/><path d="M290.0,200.0 L290.6,208.4 L291.3,216.7 L291.9,225.1 L292.6,233.5 L293.2,241.8 L293.8,250.2 L294.5,258.5 L295.1,266.9 L295.8,275.3 L296.4,283.6 L297.0,292.0" fill="none" stroke="#0c2020" stroke-width="13" stroke-linecap="round" stroke-linejoin="round" opacity="1.0"/><path d="M290.0,200.0 L292.6,208.4 L295.3,216.7 L297.9,225.1 L300.5,233.5 L303.2,241.8 L305.8,250.2 L308.4,258.5 L311.1,266.9 L313.7,275.3 L316.3,283.6 L319.0,292.0" fill="none" stroke="#f43f5e" stroke-width="21" stroke-linecap="round" stroke-linejoin="round" opacity="0.95"/><path d="M290.0,200.0 L292.6,208.4 L295.3,216.7 L297.9,225.1 L300.5,233.5 L303.2,241.8 L305.8,250.2 L308.4,258.5 L311.1,266.9 L313.7,275.3 L316.3,283.6 L319.0,292.0" fill="none" stroke="#0c2020" stroke-width="13" stroke-linecap="round" stroke-linejoin="round" opacity="1.0"/><path d="M190.0,202.0 L185.1,209.5 L180.1,217.0 L175.2,224.5 L170.2,231.9 L165.3,239.4 L160.8,247.1 L160.5,256.1 L160.2,265.0 L159.9,274.0 L159.5,283.0 L159.2,292.0" fill="none" stroke="#0d9488" stroke-width="21" stroke-linecap="round" stroke-linejoin="round" opacity="0.95"/><path d="M190.0,202.0 L185.1,209.5 L180.1,217.0 L175.2,224.5 L170.2,231.9 L165.3,239.4 L160.8,247.1 L160.5,256.1 L160.2,265.0 L159.9,274.0 L159.5,283.0 L159.2,292.0" fill="none" stroke="#0c2020" stroke-width="13" stroke-linecap="round" stroke-linejoin="round" opacity="1.0"/><path d="M190.0,202.0 L188.0,210.1 L186.0,218.2 L184.1,226.3 L182.1,234.3 L180.1,242.4 L179.7,250.6 L180.7,258.9 L181.8,267.2 L182.8,275.4 L183.8,283.7 L184.8,292.0" fill="none" stroke="#2dd4bf" stroke-width="21" stroke-linecap="round" stroke-linejoin="round" opacity="0.95"/><path d="M190.0,202.0 L188.0,210.1 L186.0,218.2 L184.1,226.3 L182.1,234.3 L180.1,242.4 L179.7,250.6 L180.7,258.9 L181.8,267.2 L182.8,275.4 L183.8,283.7 L184.8,292.0" fill="none" stroke="#0c2020" stroke-width="13" stroke-linecap="round" stroke-linejoin="round" opacity="1.0"/></g><g class="f2"><path d="M290.0,200.0 L290.9,208.4 L291.8,216.7 L292.7,225.1 L293.5,233.5 L294.4,241.8 L295.3,250.2 L296.2,258.5 L297.1,266.9 L298.0,275.3 L298.9,283.6 L299.8,292.0" fill="none" stroke="#8f2a3e" stroke-width="21" stroke-linecap="round" stroke-linejoin="round" opacity="0.95"/><path d="M290.0,200.0 L290.9,208.4 L291.8,216.7 L292.7,225.1 L293.5,233.5 L294.4,241.8 L295.3,250.2 L296.2,258.5 L297.1,266.9 L298.0,275.3 L298.9,283.6 L299.8,292.0" fill="none" stroke="#0c2020" stroke-width="13" stroke-linecap="round" stroke-linejoin="round" opacity="1.0"/><path d="M290.0,200.0 L292.4,208.4 L294.8,216.7 L297.2,225.1 L299.5,233.5 L301.9,241.8 L304.3,250.2 L306.7,258.5 L309.1,266.9 L311.5,275.3 L313.9,283.6 L316.2,292.0" fill="none" stroke="#f43f5e" stroke-width="21" stroke-linecap="round" stroke-linejoin="round" opacity="0.95"/><path d="M290.0,200.0 L292.4,208.4 L294.8,216.7 L297.2,225.1 L299.5,233.5 L301.9,241.8 L304.3,250.2 L306.7,258.5 L309.1,266.9 L311.5,275.3 L313.9,283.6 L316.2,292.0" fill="none" stroke="#0c2020" stroke-width="13" stroke-linecap="round" stroke-linejoin="round" opacity="1.0"/><path d="M190.0,202.0 L185.4,209.6 L180.8,217.1 L176.3,224.7 L171.7,232.2 L167.1,239.8 L163.2,247.5 L163.0,256.4 L162.9,265.3 L162.7,274.2 L162.5,283.1 L162.4,292.0" fill="none" stroke="#0d9488" stroke-width="21" stroke-linecap="round" stroke-linejoin="round" opacity="0.95"/><path d="M190.0,202.0 L185.4,209.6 L180.8,217.1 L176.3,224.7 L171.7,232.2 L167.1,239.8 L163.2,247.5 L163.0,256.4 L162.9,265.3 L162.7,274.2 L162.5,283.1 L162.4,292.0" fill="none" stroke="#0c2020" stroke-width="13" stroke-linecap="round" stroke-linejoin="round" opacity="1.0"/><path d="M190.0,202.0 L187.6,210.0 L185.3,218.0 L182.9,226.0 L180.6,234.0 L178.2,242.1 L177.4,250.2 L178.2,258.5 L179.1,266.9 L179.9,275.3 L180.8,283.6 L181.6,292.0" fill="none" stroke="#2dd4bf" stroke-width="21" stroke-linecap="round" stroke-linejoin="round" opacity="0.95"/><path d="M190.0,202.0 L187.6,210.0 L185.3,218.0 L182.9,226.0 L180.6,234.0 L178.2,242.1 L177.4,250.2 L178.2,258.5 L179.1,266.9 L179.9,275.3 L180.8,283.6 L181.6,292.0" fill="none" stroke="#0c2020" stroke-width="13" stroke-linecap="round" stroke-linejoin="round" opacity="1.0"/></g><g class="f3"><path d="M290.0,200.0 L291.2,208.4 L292.5,216.7 L293.7,225.1 L294.9,233.5 L296.2,241.8 L297.4,250.2 L298.7,258.5 L299.9,266.9 L301.1,275.3 L302.4,283.6 L303.6,292.0" fill="none" stroke="#8f2a3e" stroke-width="21" stroke-linecap="round" stroke-linejoin="round" opacity="0.95"/><path d="M290.0,200.0 L291.2,208.4 L292.5,216.7 L293.7,225.1 L294.9,233.5 L296.2,241.8 L297.4,250.2 L298.7,258.5 L299.9,266.9 L301.1,275.3 L302.4,283.6 L303.6,292.0" fill="none" stroke="#0c2020" stroke-width="13" stroke-linecap="round" stroke-linejoin="round" opacity="1.0"/><path d="M290.0,200.0 L292.0,208.4 L294.1,216.7 L296.1,225.1 L298.1,233.5 L300.2,241.8 L302.2,250.2 L304.3,258.5 L306.3,266.9 L308.3,275.3 L310.4,283.6 L312.4,292.0" fill="none" stroke="#f43f5e" stroke-width="21" stroke-linecap="round" stroke-linejoin="round" opacity="0.95"/><path d="M290.0,200.0 L292.0,208.4 L294.1,216.7 L296.1,225.1 L298.1,233.5 L300.2,241.8 L302.2,250.2 L304.3,258.5 L306.3,266.9 L308.3,275.3 L310.4,283.6 L312.4,292.0" fill="none" stroke="#0c2020" stroke-width="13" stroke-linecap="round" stroke-linejoin="round" opacity="1.0"/><path d="M190.0,202.0 L185.9,209.7 L181.9,217.3 L177.8,225.0 L173.8,232.7 L169.7,240.3 L166.5,248.1 L166.6,256.9 L166.6,265.7 L166.7,274.4 L166.8,283.2 L166.9,292.0" fill="none" stroke="#0d9488" stroke-width="21" stroke-linecap="round" stroke-linejoin="round" opacity="0.95"/><path d="M190.0,202.0 L185.9,209.7 L181.9,217.3 L177.8,225.0 L173.8,232.7 L169.7,240.3 L166.5,248.1 L166.6,256.9 L166.6,265.7 L166.7,274.4 L166.8,283.2 L166.9,292.0" fill="none" stroke="#0c2020" stroke-width="13" stroke-linecap="round" stroke-linejoin="round" opacity="1.0"/><path d="M190.0,202.0 L187.1,209.9 L184.3,217.8 L181.4,225.7 L178.5,233.6 L175.7,241.5 L174.1,249.5 L174.7,258.0 L175.3,266.5 L175.9,275.0 L176.5,283.5 L177.1,292.0" fill="none" stroke="#2dd4bf" stroke-width="21" stroke-linecap="round" stroke-linejoin="round" opacity="0.95"/><path d="M190.0,202.0 L187.1,209.9 L184.3,217.8 L181.4,225.7 L178.5,233.6 L175.7,241.5 L174.1,249.5 L174.7,258.0 L175.3,266.5 L175.9,275.0 L176.5,283.5 L177.1,292.0" fill="none" stroke="#0c2020" stroke-width="13" stroke-linecap="round" stroke-linejoin="round" opacity="1.0"/></g><g class="f4"><path d="M290.0,200.0 L291.6,208.4 L293.3,216.7 L294.9,225.1 L296.5,233.5 L298.2,241.8 L299.8,250.2 L301.5,258.5 L303.1,266.9 L304.7,275.3 L306.4,283.6 L308.0,292.0" fill="none" stroke="#8f2a3e" stroke-width="21" stroke-linecap="round" stroke-linejoin="round" opacity="0.95"/><path d="M290.0,200.0 L291.6,208.4 L293.3,216.7 L294.9,225.1 L296.5,233.5 L298.2,241.8 L299.8,250.2 L301.5,258.5 L303.1,266.9 L304.7,275.3 L306.4,283.6 L308.0,292.0" fill="none" stroke="#0c2020" stroke-width="13" stroke-linecap="round" stroke-linejoin="round" opacity="1.0"/><path d="M290.0,200.0 L291.6,208.4 L293.3,216.7 L294.9,225.1 L296.5,233.5 L298.2,241.8 L299.8,250.2 L301.5,258.5 L303.1,266.9 L304.7,275.3 L306.4,283.6 L308.0,292.0" fill="none" stroke="#f43f5e" stroke-width="21" stroke-linecap="round" stroke-linejoin="round" opacity="0.95"/><path d="M290.0,200.0 L291.6,208.4 L293.3,216.7 L294.9,225.1 L296.5,233.5 L298.2,241.8 L299.8,250.2 L301.5,258.5 L303.1,266.9 L304.7,275.3 L306.4,283.6 L308.0,292.0" fill="none" stroke="#0c2020" stroke-width="13" stroke-linecap="round" stroke-linejoin="round" opacity="1.0"/><path d="M190.0,202.0 L186.5,209.8 L183.1,217.6 L179.6,225.4 L176.1,233.1 L172.7,240.9 L170.3,248.8 L170.6,257.5 L171.0,266.1 L171.3,274.7 L171.7,283.4 L172.0,292.0" fill="none" stroke="#0d9488" stroke-width="21" stroke-linecap="round" stroke-linejoin="round" opacity="0.95"/><path d="M190.0,202.0 L186.5,209.8 L183.1,217.6 L179.6,225.4 L176.1,233.1 L172.7,240.9 L170.3,248.8 L170.6,257.5 L171.0,266.1 L171.3,274.7 L171.7,283.4 L172.0,292.0" fill="none" stroke="#0c2020" stroke-width="13" stroke-linecap="round" stroke-linejoin="round" opacity="1.0"/><path d="M190.0,202.0 L186.5,209.8 L183.1,217.6 L179.6,225.4 L176.1,233.1 L172.7,240.9 L170.3,248.8 L170.6,257.5 L171.0,266.1 L171.3,274.7 L171.7,283.4 L172.0,292.0" fill="none" stroke="#2dd4bf" stroke-width="21" stroke-linecap="round" stroke-linejoin="round" opacity="0.95"/><path d="M190.0,202.0 L186.5,209.8 L183.1,217.6 L179.6,225.4 L176.1,233.1 L172.7,240.9 L170.3,248.8 L170.6,257.5 L171.0,266.1 L171.3,274.7 L171.7,283.4 L172.0,292.0" fill="none" stroke="#0c2020" stroke-width="13" stroke-linecap="round" stroke-linejoin="round" opacity="1.0"/></g><g class="f5"><path d="M290.0,200.0 L292.0,208.4 L294.1,216.7 L296.1,225.1 L298.1,233.5 L300.2,241.8 L302.2,250.2 L304.3,258.5 L306.3,266.9 L308.3,275.3 L310.4,283.6 L312.4,292.0" fill="none" stroke="#8f2a3e" stroke-width="21" stroke-linecap="round" stroke-linejoin="round" opacity="0.95"/><path d="M290.0,200.0 L292.0,208.4 L294.1,216.7 L296.1,225.1 L298.1,233.5 L300.2,241.8 L302.2,250.2 L304.3,258.5 L306.3,266.9 L308.3,275.3 L310.4,283.6 L312.4,292.0" fill="none" stroke="#0c2020" stroke-width="13" stroke-linecap="round" stroke-linejoin="round" opacity="1.0"/><path d="M290.0,200.0 L291.2,208.4 L292.5,216.7 L293.7,225.1 L294.9,233.5 L296.2,241.8 L297.4,250.2 L298.7,258.5 L299.9,266.9 L301.1,275.3 L302.4,283.6 L303.6,292.0" fill="none" stroke="#f43f5e" stroke-width="21" stroke-linecap="round" stroke-linejoin="round" opacity="0.95"/><path d="M290.0,200.0 L291.2,208.4 L292.5,216.7 L293.7,225.1 L294.9,233.5 L296.2,241.8 L297.4,250.2 L298.7,258.5 L299.9,266.9 L301.1,275.3 L302.4,283.6 L303.6,292.0" fill="none" stroke="#0c2020" stroke-width="13" stroke-linecap="round" stroke-linejoin="round" opacity="1.0"/><path d="M190.0,202.0 L187.1,209.9 L184.3,217.8 L181.4,225.7 L178.5,233.6 L175.7,241.5 L174.1,249.5 L174.7,258.0 L175.3,266.5 L175.9,275.0 L176.5,283.5 L177.1,292.0" fill="none" stroke="#0d9488" stroke-width="21" stroke-linecap="round" stroke-linejoin="round" opacity="0.95"/><path d="M190.0,202.0 L187.1,209.9 L184.3,217.8 L181.4,225.7 L178.5,233.6 L175.7,241.5 L174.1,249.5 L174.7,258.0 L175.3,266.5 L175.9,275.0 L176.5,283.5 L177.1,292.0" fill="none" stroke="#0c2020" stroke-width="13" stroke-linecap="round" stroke-linejoin="round" opacity="1.0"/><path d="M190.0,202.0 L185.9,209.7 L181.9,217.3 L177.8,225.0 L173.8,232.7 L169.7,240.3 L166.5,248.1 L166.6,256.9 L166.6,265.7 L166.7,274.4 L166.8,283.2 L166.9,292.0" fill="none" stroke="#2dd4bf" stroke-width="21" stroke-linecap="round" stroke-linejoin="round" opacity="0.95"/><path d="M190.0,202.0 L185.9,209.7 L181.9,217.3 L177.8,225.0 L173.8,232.7 L169.7,240.3 L166.5,248.1 L166.6,256.9 L166.6,265.7 L166.7,274.4 L166.8,283.2 L166.9,292.0" fill="none" stroke="#0c2020" stroke-width="13" stroke-linecap="round" stroke-linejoin="round" opacity="1.0"/></g><g class="f6"><path d="M290.0,200.0 L292.4,208.4 L294.8,216.7 L297.2,225.1 L299.5,233.5 L301.9,241.8 L304.3,250.2 L306.7,258.5 L309.1,266.9 L311.5,275.3 L313.9,283.6 L316.2,292.0" fill="none" stroke="#8f2a3e" stroke-width="21" stroke-linecap="round" stroke-linejoin="round" opacity="0.95"/><path d="M290.0,200.0 L292.4,208.4 L294.8,216.7 L297.2,225.1 L299.5,233.5 L301.9,241.8 L304.3,250.2 L306.7,258.5 L309.1,266.9 L311.5,275.3 L313.9,283.6 L316.2,292.0" fill="none" stroke="#0c2020" stroke-width="13" stroke-linecap="round" stroke-linejoin="round" opacity="1.0"/><path d="M290.0,200.0 L290.9,208.4 L291.8,216.7 L292.7,225.1 L293.5,233.5 L294.4,241.8 L295.3,250.2 L296.2,258.5 L297.1,266.9 L298.0,275.3 L298.9,283.6 L299.8,292.0" fill="none" stroke="#f43f5e" stroke-width="21" stroke-linecap="round" stroke-linejoin="round" opacity="0.95"/><path d="M290.0,200.0 L290.9,208.4 L291.8,216.7 L292.7,225.1 L293.5,233.5 L294.4,241.8 L295.3,250.2 L296.2,258.5 L297.1,266.9 L298.0,275.3 L298.9,283.6 L299.8,292.0" fill="none" stroke="#0c2020" stroke-width="13" stroke-linecap="round" stroke-linejoin="round" opacity="1.0"/><path d="M190.0,202.0 L187.6,210.0 L185.3,218.0 L182.9,226.0 L180.6,234.0 L178.2,242.1 L177.4,250.2 L178.2,258.5 L179.1,266.9 L179.9,275.3 L180.8,283.6 L181.6,292.0" fill="none" stroke="#0d9488" stroke-width="21" stroke-linecap="round" stroke-linejoin="round" opacity="0.95"/><path d="M190.0,202.0 L187.6,210.0 L185.3,218.0 L182.9,226.0 L180.6,234.0 L178.2,242.1 L177.4,250.2 L178.2,258.5 L179.1,266.9 L179.9,275.3 L180.8,283.6 L181.6,292.0" fill="none" stroke="#0c2020" stroke-width="13" stroke-linecap="round" stroke-linejoin="round" opacity="1.0"/><path d="M190.0,202.0 L185.4,209.6 L180.8,217.1 L176.3,224.7 L171.7,232.2 L167.1,239.8 L163.2,247.5 L163.0,256.4 L162.9,265.3 L162.7,274.2 L162.5,283.1 L162.4,292.0" fill="none" stroke="#2dd4bf" stroke-width="21" stroke-linecap="round" stroke-linejoin="round" opacity="0.95"/><path d="M190.0,202.0 L185.4,209.6 L180.8,217.1 L176.3,224.7 L171.7,232.2 L167.1,239.8 L163.2,247.5 L163.0,256.4 L162.9,265.3 L162.7,274.2 L162.5,283.1 L162.4,292.0" fill="none" stroke="#0c2020" stroke-width="13" stroke-linecap="round" stroke-linejoin="round" opacity="1.0"/></g><g class="f7"><path d="M290.0,200.0 L292.6,208.4 L295.3,216.7 L297.9,225.1 L300.5,233.5 L303.2,241.8 L305.8,250.2 L308.4,258.5 L311.1,266.9 L313.7,275.3 L316.3,283.6 L319.0,292.0" fill="none" stroke="#8f2a3e" stroke-width="21" stroke-linecap="round" stroke-linejoin="round" opacity="0.95"/><path d="M290.0,200.0 L292.6,208.4 L295.3,216.7 L297.9,225.1 L300.5,233.5 L303.2,241.8 L305.8,250.2 L308.4,258.5 L311.1,266.9 L313.7,275.3 L316.3,283.6 L319.0,292.0" fill="none" stroke="#0c2020" stroke-width="13" stroke-linecap="round" stroke-linejoin="round" opacity="1.0"/><path d="M290.0,200.0 L290.6,208.4 L291.3,216.7 L291.9,225.1 L292.6,233.5 L293.2,241.8 L293.8,250.2 L294.5,258.5 L295.1,266.9 L295.8,275.3 L296.4,283.6 L297.0,292.0" fill="none" stroke="#f43f5e" stroke-width="21" stroke-linecap="round" stroke-linejoin="round" opacity="0.95"/><path d="M290.0,200.0 L290.6,208.4 L291.3,216.7 L291.9,225.1 L292.6,233.5 L293.2,241.8 L293.8,250.2 L294.5,258.5 L295.1,266.9 L295.8,275.3 L296.4,283.6 L297.0,292.0" fill="none" stroke="#0c2020" stroke-width="13" stroke-linecap="round" stroke-linejoin="round" opacity="1.0"/><path d="M190.0,202.0 L188.0,210.1 L186.0,218.2 L184.1,226.3 L182.1,234.3 L180.1,242.4 L179.7,250.6 L180.7,258.9 L181.8,267.2 L182.8,275.4 L183.8,283.7 L184.8,292.0" fill="none" stroke="#0d9488" stroke-width="21" stroke-linecap="round" stroke-linejoin="round" opacity="0.95"/><path d="M190.0,202.0 L188.0,210.1 L186.0,218.2 L184.1,226.3 L182.1,234.3 L180.1,242.4 L179.7,250.6 L180.7,258.9 L181.8,267.2 L182.8,275.4 L183.8,283.7 L184.8,292.0" fill="none" stroke="#0c2020" stroke-width="13" stroke-linecap="round" stroke-linejoin="round" opacity="1.0"/><path d="M190.0,202.0 L185.1,209.5 L180.1,217.0 L175.2,224.5 L170.2,231.9 L165.3,239.4 L160.8,247.1 L160.5,256.1 L160.2,265.0 L159.9,274.0 L159.5,283.0 L159.2,292.0" fill="none" stroke="#2dd4bf" stroke-width="21" stroke-linecap="round" stroke-linejoin="round" opacity="0.95"/><path d="M190.0,202.0 L185.1,209.5 L180.1,217.0 L175.2,224.5 L170.2,231.9 L165.3,239.4 L160.8,247.1 L160.5,256.1 L160.2,265.0 L159.9,274.0 L159.5,283.0 L159.2,292.0" fill="none" stroke="#0c2020" stroke-width="13" stroke-linecap="round" stroke-linejoin="round" opacity="1.0"/></g><g class="f8"><path d="M290.0,200.0 L292.7,208.4 L295.5,216.7 L298.2,225.1 L300.9,233.5 L303.6,241.8 L306.4,250.2 L309.1,258.5 L311.8,266.9 L314.5,275.3 L317.3,283.6 L320.0,292.0" fill="none" stroke="#8f2a3e" stroke-width="21" stroke-linecap="round" stroke-linejoin="round" opacity="0.95"/><path d="M290.0,200.0 L292.7,208.4 L295.5,216.7 L298.2,225.1 L300.9,233.5 L303.6,241.8 L306.4,250.2 L309.1,258.5 L311.8,266.9 L314.5,275.3 L317.3,283.6 L320.0,292.0" fill="none" stroke="#0c2020" stroke-width="13" stroke-linecap="round" stroke-linejoin="round" opacity="1.0"/><path d="M290.0,200.0 L290.5,208.4 L291.1,216.7 L291.6,225.1 L292.2,233.5 L292.7,241.8 L293.3,250.2 L293.8,258.5 L294.4,266.9 L294.9,275.3 L295.5,283.6 L296.0,292.0" fill="none" stroke="#f43f5e" stroke-width="21" stroke-linecap="round" stroke-linejoin="round" opacity="0.95"/><path d="M290.0,200.0 L290.5,208.4 L291.1,216.7 L291.6,225.1 L292.2,233.5 L292.7,241.8 L293.3,250.2 L293.8,258.5 L294.4,266.9 L294.9,275.3 L295.5,283.6 L296.0,292.0" fill="none" stroke="#0c2020" stroke-width="13" stroke-linecap="round" stroke-linejoin="round" opacity="1.0"/><path d="M190.0,202.0 L188.2,210.1 L186.3,218.2 L184.5,226.3 L182.6,234.4 L180.8,242.6 L180.6,250.8 L181.7,259.0 L182.8,267.3 L183.8,275.5 L184.9,283.8 L186.0,292.0" fill="none" stroke="#0d9488" stroke-width="21" stroke-linecap="round" stroke-linejoin="round" opacity="0.95"/><path d="M190.0,202.0 L188.2,210.1 L186.3,218.2 L184.5,226.3 L182.6,234.4 L180.8,242.6 L180.6,250.8 L181.7,259.0 L182.8,267.3 L183.8,275.5 L184.9,283.8 L186.0,292.0" fill="none" stroke="#0c2020" stroke-width="13" stroke-linecap="round" stroke-linejoin="round" opacity="1.0"/><path d="M190.0,202.0 L184.9,209.5 L179.8,216.9 L174.7,224.4 L169.7,231.8 L164.6,239.3 L160.0,246.9 L159.6,255.9 L159.2,264.9 L158.8,274.0 L158.4,283.0 L158.0,292.0" fill="none" stroke="#2dd4bf" stroke-width="21" stroke-linecap="round" stroke-linejoin="round" opacity="0.95"/><path d="M190.0,202.0 L184.9,209.5 L179.8,216.9 L174.7,224.4 L169.7,231.8 L164.6,239.3 L160.0,246.9 L159.6,255.9 L159.2,264.9 L158.8,274.0 L158.4,283.0 L158.0,292.0" fill="none" stroke="#0c2020" stroke-width="13" stroke-linecap="round" stroke-linejoin="round" opacity="1.0"/></g><g class="f9"><path d="M290.0,200.0 L292.6,208.4 L295.3,216.7 L297.9,225.1 L300.5,233.5 L303.2,241.8 L305.8,250.2 L308.4,258.5 L311.1,266.9 L313.7,275.3 L316.3,283.6 L319.0,292.0" fill="none" stroke="#8f2a3e" stroke-width="21" stroke-linecap="round" stroke-linejoin="round" opacity="0.95"/><path d="M290.0,200.0 L292.6,208.4 L295.3,216.7 L297.9,225.1 L300.5,233.5 L303.2,241.8 L305.8,250.2 L308.4,258.5 L311.1,266.9 L313.7,275.3 L316.3,283.6 L319.0,292.0" fill="none" stroke="#0c2020" stroke-width="13" stroke-linecap="round" stroke-linejoin="round" opacity="1.0"/><path d="M290.0,200.0 L290.6,208.4 L291.3,216.7 L291.9,225.1 L292.6,233.5 L293.2,241.8 L293.8,250.2 L294.5,258.5 L295.1,266.9 L295.8,275.3 L296.4,283.6 L297.0,292.0" fill="none" stroke="#f43f5e" stroke-width="21" stroke-linecap="round" stroke-linejoin="round" opacity="0.95"/><path d="M290.0,200.0 L290.6,208.4 L291.3,216.7 L291.9,225.1 L292.6,233.5 L293.2,241.8 L293.8,250.2 L294.5,258.5 L295.1,266.9 L295.8,275.3 L296.4,283.6 L297.0,292.0" fill="none" stroke="#0c2020" stroke-width="13" stroke-linecap="round" stroke-linejoin="round" opacity="1.0"/><path d="M190.0,202.0 L188.0,210.1 L186.0,218.2 L184.1,226.3 L182.1,234.3 L180.1,242.4 L179.7,250.6 L180.7,258.9 L181.8,267.2 L182.8,275.4 L183.8,283.7 L184.8,292.0" fill="none" stroke="#0d9488" stroke-width="21" stroke-linecap="round" stroke-linejoin="round" opacity="0.95"/><path d="M190.0,202.0 L188.0,210.1 L186.0,218.2 L184.1,226.3 L182.1,234.3 L180.1,242.4 L179.7,250.6 L180.7,258.9 L181.8,267.2 L182.8,275.4 L183.8,283.7 L184.8,292.0" fill="none" stroke="#0c2020" stroke-width="13" stroke-linecap="round" stroke-linejoin="round" opacity="1.0"/><path d="M190.0,202.0 L185.1,209.5 L180.1,217.0 L175.2,224.5 L170.2,231.9 L165.3,239.4 L160.8,247.1 L160.5,256.1 L160.2,265.0 L159.9,274.0 L159.5,283.0 L159.2,292.0" fill="none" stroke="#2dd4bf" stroke-width="21" stroke-linecap="round" stroke-linejoin="round" opacity="0.95"/><path d="M190.0,202.0 L185.1,209.5 L180.1,217.0 L175.2,224.5 L170.2,231.9 L165.3,239.4 L160.8,247.1 L160.5,256.1 L160.2,265.0 L159.9,274.0 L159.5,283.0 L159.2,292.0" fill="none" stroke="#0c2020" stroke-width="13" stroke-linecap="round" stroke-linejoin="round" opacity="1.0"/></g><g class="f10"><path d="M290.0,200.0 L292.4,208.4 L294.8,216.7 L297.2,225.1 L299.5,233.5 L301.9,241.8 L304.3,250.2 L306.7,258.5 L309.1,266.9 L311.5,275.3 L313.9,283.6 L316.2,292.0" fill="none" stroke="#8f2a3e" stroke-width="21" stroke-linecap="round" stroke-linejoin="round" opacity="0.95"/><path d="M290.0,200.0 L292.4,208.4 L294.8,216.7 L297.2,225.1 L299.5,233.5 L301.9,241.8 L304.3,250.2 L306.7,258.5 L309.1,266.9 L311.5,275.3 L313.9,283.6 L316.2,292.0" fill="none" stroke="#0c2020" stroke-width="13" stroke-linecap="round" stroke-linejoin="round" opacity="1.0"/><path d="M290.0,200.0 L290.9,208.4 L291.8,216.7 L292.7,225.1 L293.5,233.5 L294.4,241.8 L295.3,250.2 L296.2,258.5 L297.1,266.9 L298.0,275.3 L298.9,283.6 L299.8,292.0" fill="none" stroke="#f43f5e" stroke-width="21" stroke-linecap="round" stroke-linejoin="round" opacity="0.95"/><path d="M290.0,200.0 L290.9,208.4 L291.8,216.7 L292.7,225.1 L293.5,233.5 L294.4,241.8 L295.3,250.2 L296.2,258.5 L297.1,266.9 L298.0,275.3 L298.9,283.6 L299.8,292.0" fill="none" stroke="#0c2020" stroke-width="13" stroke-linecap="round" stroke-linejoin="round" opacity="1.0"/><path d="M190.0,202.0 L187.6,210.0 L185.3,218.0 L182.9,226.0 L180.6,234.0 L178.2,242.1 L177.4,250.2 L178.2,258.5 L179.1,266.9 L179.9,275.3 L180.8,283.6 L181.6,292.0" fill="none" stroke="#0d9488" stroke-width="21" stroke-linecap="round" stroke-linejoin="round" opacity="0.95"/><path d="M190.0,202.0 L187.6,210.0 L185.3,218.0 L182.9,226.0 L180.6,234.0 L178.2,242.1 L177.4,250.2 L178.2,258.5 L179.1,266.9 L179.9,275.3 L180.8,283.6 L181.6,292.0" fill="none" stroke="#0c2020" stroke-width="13" stroke-linecap="round" stroke-linejoin="round" opacity="1.0"/><path d="M190.0,202.0 L185.4,209.6 L180.8,217.1 L176.3,224.7 L171.7,232.2 L167.1,239.8 L163.2,247.5 L163.0,256.4 L162.9,265.3 L162.7,274.2 L162.5,283.1 L162.4,292.0" fill="none" stroke="#2dd4bf" stroke-width="21" stroke-linecap="round" stroke-linejoin="round" opacity="0.95"/><path d="M190.0,202.0 L185.4,209.6 L180.8,217.1 L176.3,224.7 L171.7,232.2 L167.1,239.8 L163.2,247.5 L163.0,256.4 L162.9,265.3 L162.7,274.2 L162.5,283.1 L162.4,292.0" fill="none" stroke="#0c2020" stroke-width="13" stroke-linecap="round" stroke-linejoin="round" opacity="1.0"/></g><g class="f11"><path d="M290.0,200.0 L292.0,208.4 L294.1,216.7 L296.1,225.1 L298.1,233.5 L300.2,241.8 L302.2,250.2 L304.3,258.5 L306.3,266.9 L308.3,275.3 L310.4,283.6 L312.4,292.0" fill="none" stroke="#8f2a3e" stroke-width="21" stroke-linecap="round" stroke-linejoin="round" opacity="0.95"/><path d="M290.0,200.0 L292.0,208.4 L294.1,216.7 L296.1,225.1 L298.1,233.5 L300.2,241.8 L302.2,250.2 L304.3,258.5 L306.3,266.9 L308.3,275.3 L310.4,283.6 L312.4,292.0" fill="none" stroke="#0c2020" stroke-width="13" stroke-linecap="round" stroke-linejoin="round" opacity="1.0"/><path d="M290.0,200.0 L291.2,208.4 L292.5,216.7 L293.7,225.1 L294.9,233.5 L296.2,241.8 L297.4,250.2 L298.7,258.5 L299.9,266.9 L301.1,275.3 L302.4,283.6 L303.6,292.0" fill="none" stroke="#f43f5e" stroke-width="21" stroke-linecap="round" stroke-linejoin="round" opacity="0.95"/><path d="M290.0,200.0 L291.2,208.4 L292.5,216.7 L293.7,225.1 L294.9,233.5 L296.2,241.8 L297.4,250.2 L298.7,258.5 L299.9,266.9 L301.1,275.3 L302.4,283.6 L303.6,292.0" fill="none" stroke="#0c2020" stroke-width="13" stroke-linecap="round" stroke-linejoin="round" opacity="1.0"/><path d="M190.0,202.0 L187.1,209.9 L184.3,217.8 L181.4,225.7 L178.5,233.6 L175.7,241.5 L174.1,249.5 L174.7,258.0 L175.3,266.5 L175.9,275.0 L176.5,283.5 L177.1,292.0" fill="none" stroke="#0d9488" stroke-width="21" stroke-linecap="round" stroke-linejoin="round" opacity="0.95"/><path d="M190.0,202.0 L187.1,209.9 L184.3,217.8 L181.4,225.7 L178.5,233.6 L175.7,241.5 L174.1,249.5 L174.7,258.0 L175.3,266.5 L175.9,275.0 L176.5,283.5 L177.1,292.0" fill="none" stroke="#0c2020" stroke-width="13" stroke-linecap="round" stroke-linejoin="round" opacity="1.0"/><path d="M190.0,202.0 L185.9,209.7 L181.9,217.3 L177.8,225.0 L173.8,232.7 L169.7,240.3 L166.5,248.1 L166.6,256.9 L166.6,265.7 L166.7,274.4 L166.8,283.2 L166.9,292.0" fill="none" stroke="#2dd4bf" stroke-width="21" stroke-linecap="round" stroke-linejoin="round" opacity="0.95"/><path d="M190.0,202.0 L185.9,209.7 L181.9,217.3 L177.8,225.0 L173.8,232.7 L169.7,240.3 L166.5,248.1 L166.6,256.9 L166.6,265.7 L166.7,274.4 L166.8,283.2 L166.9,292.0" fill="none" stroke="#0c2020" stroke-width="13" stroke-linecap="round" stroke-linejoin="round" opacity="1.0"/></g><g class="f12"><path d="M290.0,200.0 L291.6,208.4 L293.3,216.7 L294.9,225.1 L296.5,233.5 L298.2,241.8 L299.8,250.2 L301.5,258.5 L303.1,266.9 L304.7,275.3 L306.4,283.6 L308.0,292.0" fill="none" stroke="#8f2a3e" stroke-width="21" stroke-linecap="round" stroke-linejoin="round" opacity="0.95"/><path d="M290.0,200.0 L291.6,208.4 L293.3,216.7 L294.9,225.1 L296.5,233.5 L298.2,241.8 L299.8,250.2 L301.5,258.5 L303.1,266.9 L304.7,275.3 L306.4,283.6 L308.0,292.0" fill="none" stroke="#0c2020" stroke-width="13" stroke-linecap="round" stroke-linejoin="round" opacity="1.0"/><path d="M290.0,200.0 L291.6,208.4 L293.3,216.7 L294.9,225.1 L296.5,233.5 L298.2,241.8 L299.8,250.2 L301.5,258.5 L303.1,266.9 L304.7,275.3 L306.4,283.6 L308.0,292.0" fill="none" stroke="#f43f5e" stroke-width="21" stroke-linecap="round" stroke-linejoin="round" opacity="0.95"/><path d="M290.0,200.0 L291.6,208.4 L293.3,216.7 L294.9,225.1 L296.5,233.5 L298.2,241.8 L299.8,250.2 L301.5,258.5 L303.1,266.9 L304.7,275.3 L306.4,283.6 L308.0,292.0" fill="none" stroke="#0c2020" stroke-width="13" stroke-linecap="round" stroke-linejoin="round" opacity="1.0"/><path d="M190.0,202.0 L186.5,209.8 L183.1,217.6 L179.6,225.4 L176.1,233.1 L172.7,240.9 L170.3,248.8 L170.6,257.5 L171.0,266.1 L171.3,274.7 L171.7,283.4 L172.0,292.0" fill="none" stroke="#0d9488" stroke-width="21" stroke-linecap="round" stroke-linejoin="round" opacity="0.95"/><path d="M190.0,202.0 L186.5,209.8 L183.1,217.6 L179.6,225.4 L176.1,233.1 L172.7,240.9 L170.3,248.8 L170.6,257.5 L171.0,266.1 L171.3,274.7 L171.7,283.4 L172.0,292.0" fill="none" stroke="#0c2020" stroke-width="13" stroke-linecap="round" stroke-linejoin="round" opacity="1.0"/><path d="M190.0,202.0 L186.5,209.8 L183.1,217.6 L179.6,225.4 L176.1,233.1 L172.7,240.9 L170.3,248.8 L170.6,257.5 L171.0,266.1 L171.3,274.7 L171.7,283.4 L172.0,292.0" fill="none" stroke="#2dd4bf" stroke-width="21" stroke-linecap="round" stroke-linejoin="round" opacity="0.95"/><path d="M190.0,202.0 L186.5,209.8 L183.1,217.6 L179.6,225.4 L176.1,233.1 L172.7,240.9 L170.3,248.8 L170.6,257.5 L171.0,266.1 L171.3,274.7 L171.7,283.4 L172.0,292.0" fill="none" stroke="#0c2020" stroke-width="13" stroke-linecap="round" stroke-linejoin="round" opacity="1.0"/></g><g class="f13"><path d="M290.0,200.0 L291.2,208.4 L292.5,216.7 L293.7,225.1 L294.9,233.5 L296.2,241.8 L297.4,250.2 L298.7,258.5 L299.9,266.9 L301.1,275.3 L302.4,283.6 L303.6,292.0" fill="none" stroke="#8f2a3e" stroke-width="21" stroke-linecap="round" stroke-linejoin="round" opacity="0.95"/><path d="M290.0,200.0 L291.2,208.4 L292.5,216.7 L293.7,225.1 L294.9,233.5 L296.2,241.8 L297.4,250.2 L298.7,258.5 L299.9,266.9 L301.1,275.3 L302.4,283.6 L303.6,292.0" fill="none" stroke="#0c2020" stroke-width="13" stroke-linecap="round" stroke-linejoin="round" opacity="1.0"/><path d="M290.0,200.0 L292.0,208.4 L294.1,216.7 L296.1,225.1 L298.1,233.5 L300.2,241.8 L302.2,250.2 L304.3,258.5 L306.3,266.9 L308.3,275.3 L310.4,283.6 L312.4,292.0" fill="none" stroke="#f43f5e" stroke-width="21" stroke-linecap="round" stroke-linejoin="round" opacity="0.95"/><path d="M290.0,200.0 L292.0,208.4 L294.1,216.7 L296.1,225.1 L298.1,233.5 L300.2,241.8 L302.2,250.2 L304.3,258.5 L306.3,266.9 L308.3,275.3 L310.4,283.6 L312.4,292.0" fill="none" stroke="#0c2020" stroke-width="13" stroke-linecap="round" stroke-linejoin="round" opacity="1.0"/><path d="M190.0,202.0 L185.9,209.7 L181.9,217.3 L177.8,225.0 L173.8,232.7 L169.7,240.3 L166.5,248.1 L166.6,256.9 L166.6,265.7 L166.7,274.4 L166.8,283.2 L166.9,292.0" fill="none" stroke="#0d9488" stroke-width="21" stroke-linecap="round" stroke-linejoin="round" opacity="0.95"/><path d="M190.0,202.0 L185.9,209.7 L181.9,217.3 L177.8,225.0 L173.8,232.7 L169.7,240.3 L166.5,248.1 L166.6,256.9 L166.6,265.7 L166.7,274.4 L166.8,283.2 L166.9,292.0" fill="none" stroke="#0c2020" stroke-width="13" stroke-linecap="round" stroke-linejoin="round" opacity="1.0"/><path d="M190.0,202.0 L187.1,209.9 L184.3,217.8 L181.4,225.7 L178.5,233.6 L175.7,241.5 L174.1,249.5 L174.7,258.0 L175.3,266.5 L175.9,275.0 L176.5,283.5 L177.1,292.0" fill="none" stroke="#2dd4bf" stroke-width="21" stroke-linecap="round" stroke-linejoin="round" opacity="0.95"/><path d="M190.0,202.0 L187.1,209.9 L184.3,217.8 L181.4,225.7 L178.5,233.6 L175.7,241.5 L174.1,249.5 L174.7,258.0 L175.3,266.5 L175.9,275.0 L176.5,283.5 L177.1,292.0" fill="none" stroke="#0c2020" stroke-width="13" stroke-linecap="round" stroke-linejoin="round" opacity="1.0"/></g><g class="f14"><path d="M290.0,200.0 L290.9,208.4 L291.8,216.7 L292.7,225.1 L293.5,233.5 L294.4,241.8 L295.3,250.2 L296.2,258.5 L297.1,266.9 L298.0,275.3 L298.9,283.6 L299.8,292.0" fill="none" stroke="#8f2a3e" stroke-width="21" stroke-linecap="round" stroke-linejoin="round" opacity="0.95"/><path d="M290.0,200.0 L290.9,208.4 L291.8,216.7 L292.7,225.1 L293.5,233.5 L294.4,241.8 L295.3,250.2 L296.2,258.5 L297.1,266.9 L298.0,275.3 L298.9,283.6 L299.8,292.0" fill="none" stroke="#0c2020" stroke-width="13" stroke-linecap="round" stroke-linejoin="round" opacity="1.0"/><path d="M290.0,200.0 L292.4,208.4 L294.8,216.7 L297.2,225.1 L299.5,233.5 L301.9,241.8 L304.3,250.2 L306.7,258.5 L309.1,266.9 L311.5,275.3 L313.9,283.6 L316.2,292.0" fill="none" stroke="#f43f5e" stroke-width="21" stroke-linecap="round" stroke-linejoin="round" opacity="0.95"/><path d="M290.0,200.0 L292.4,208.4 L294.8,216.7 L297.2,225.1 L299.5,233.5 L301.9,241.8 L304.3,250.2 L306.7,258.5 L309.1,266.9 L311.5,275.3 L313.9,283.6 L316.2,292.0" fill="none" stroke="#0c2020" stroke-width="13" stroke-linecap="round" stroke-linejoin="round" opacity="1.0"/><path d="M190.0,202.0 L185.4,209.6 L180.8,217.1 L176.3,224.7 L171.7,232.2 L167.1,239.8 L163.2,247.5 L163.0,256.4 L162.9,265.3 L162.7,274.2 L162.5,283.1 L162.4,292.0" fill="none" stroke="#0d9488" stroke-width="21" stroke-linecap="round" stroke-linejoin="round" opacity="0.95"/><path d="M190.0,202.0 L185.4,209.6 L180.8,217.1 L176.3,224.7 L171.7,232.2 L167.1,239.8 L163.2,247.5 L163.0,256.4 L162.9,265.3 L162.7,274.2 L162.5,283.1 L162.4,292.0" fill="none" stroke="#0c2020" stroke-width="13" stroke-linecap="round" stroke-linejoin="round" opacity="1.0"/><path d="M190.0,202.0 L187.6,210.0 L185.3,218.0 L182.9,226.0 L180.6,234.0 L178.2,242.1 L177.4,250.2 L178.2,258.5 L179.1,266.9 L179.9,275.3 L180.8,283.6 L181.6,292.0" fill="none" stroke="#2dd4bf" stroke-width="21" stroke-linecap="round" stroke-linejoin="round" opacity="0.95"/><path d="M190.0,202.0 L187.6,210.0 L185.3,218.0 L182.9,226.0 L180.6,234.0 L178.2,242.1 L177.4,250.2 L178.2,258.5 L179.1,266.9 L179.9,275.3 L180.8,283.6 L181.6,292.0" fill="none" stroke="#0c2020" stroke-width="13" stroke-linecap="round" stroke-linejoin="round" opacity="1.0"/></g><g class="f15"><path d="M290.0,200.0 L290.6,208.4 L291.3,216.7 L291.9,225.1 L292.6,233.5 L293.2,241.8 L293.8,250.2 L294.5,258.5 L295.1,266.9 L295.8,275.3 L296.4,283.6 L297.0,292.0" fill="none" stroke="#8f2a3e" stroke-width="21" stroke-linecap="round" stroke-linejoin="round" opacity="0.95"/><path d="M290.0,200.0 L290.6,208.4 L291.3,216.7 L291.9,225.1 L292.6,233.5 L293.2,241.8 L293.8,250.2 L294.5,258.5 L295.1,266.9 L295.8,275.3 L296.4,283.6 L297.0,292.0" fill="none" stroke="#0c2020" stroke-width="13" stroke-linecap="round" stroke-linejoin="round" opacity="1.0"/><path d="M290.0,200.0 L292.6,208.4 L295.3,216.7 L297.9,225.1 L300.5,233.5 L303.2,241.8 L305.8,250.2 L308.4,258.5 L311.1,266.9 L313.7,275.3 L316.3,283.6 L319.0,292.0" fill="none" stroke="#f43f5e" stroke-width="21" stroke-linecap="round" stroke-linejoin="round" opacity="0.95"/><path d="M290.0,200.0 L292.6,208.4 L295.3,216.7 L297.9,225.1 L300.5,233.5 L303.2,241.8 L305.8,250.2 L308.4,258.5 L311.1,266.9 L313.7,275.3 L316.3,283.6 L319.0,292.0" fill="none" stroke="#0c2020" stroke-width="13" stroke-linecap="round" stroke-linejoin="round" opacity="1.0"/><path d="M190.0,202.0 L185.1,209.5 L180.1,217.0 L175.2,224.5 L170.2,231.9 L165.3,239.4 L160.8,247.1 L160.5,256.1 L160.2,265.0 L159.9,274.0 L159.5,283.0 L159.2,292.0" fill="none" stroke="#0d9488" stroke-width="21" stroke-linecap="round" stroke-linejoin="round" opacity="0.95"/><path d="M190.0,202.0 L185.1,209.5 L180.1,217.0 L175.2,224.5 L170.2,231.9 L165.3,239.4 L160.8,247.1 L160.5,256.1 L160.2,265.0 L159.9,274.0 L159.5,283.0 L159.2,292.0" fill="none" stroke="#0c2020" stroke-width="13" stroke-linecap="round" stroke-linejoin="round" opacity="1.0"/><path d="M190.0,202.0 L188.0,210.1 L186.0,218.2 L184.1,226.3 L182.1,234.3 L180.1,242.4 L179.7,250.6 L180.7,258.9 L181.8,267.2 L182.8,275.4 L183.8,283.7 L184.8,292.0" fill="none" stroke="#2dd4bf" stroke-width="21" stroke-linecap="round" stroke-linejoin="round" opacity="0.95"/><path d="M190.0,202.0 L188.0,210.1 L186.0,218.2 L184.1,226.3 L182.1,234.3 L180.1,242.4 L179.7,250.6 L180.7,258.9 L181.8,267.2 L182.8,275.4 L183.8,283.7 L184.8,292.0" fill="none" stroke="#0c2020" stroke-width="13" stroke-linecap="round" stroke-linejoin="round" opacity="1.0"/></g></svg>
