<svg xmlns="http://www.w3.org/2000/svg" viewBox="0 0 480 320"><style>@keyframes k0{0%{opacity:1}11.111%{opacity:0}100%{opacity:0}}.f0{opacity:0;animation:k0 2.4s steps(1,end) infinite}@keyframes k1{0%{opacity:0}11.111%{opacity:1}16.667%{opacity:0}100%{opacity:0}}.f1{opacity:0;animation:k1 2.4s steps(1,end) infinite}@keyframes k2{0%{opacity:0}16.667%{opacity:1}22.222%{opacity:0}100%{opacity:0}}.f2{opacity:0;animation:k2 2.4s steps(1,end) infinite}@keyframes k3{0%{opacity:0}22.222%{opacity:1}27.778%{opacity:0}100%{opacity:0}}.f3{opacity:0;animation:k3 2.4s steps(1,end) infinite}@keyframes k4{0%{opacity:0}27.778%{opacity:1}33.333%{opacity:0}100%{opacity:0}}.f4{opacity:0;animation:k4 2.4s steps(1,end) infinite}@keyframes k5{0%{opacity:0}33.333%{opacity:1}38.889%{opacity:0}100%{opacity:0}}.f5{opacity:0;animation:k5 2.4s steps(1,end) infinite}@keyframes k6{0%{opacity:0}38.889%{opacity:1}44.444%{opacity:0}100%{opacity:0}}.f6{opacity:0;animation:k6 2.4s steps(1,end) infinite}@keyframes k7{0%{opacity:0}44.444%{opacity:1}50.000%{opacity:0}100%{opacity:0}}.f7{opacity:0;animation:k7 2.4s steps(1,end) infinite}@keyframes k8{0%{opacity:0}50.000%{opacity:1}61.111%{opacity:0}100%{opacity:0}}.f8{opacity:0;animation:k8 2.4s steps(1,end) infinite}@keyframes k9{0%{opacity:0}61.111%{opacity:1}66.667%{opacity:0}100%{opacity:0}}.f9{opacity:0;animation:k9 2.4s steps(1,end) infinite}@keyframes k10{0%{opacity:0}66.667%{opacity:1}72.222%{opacity:0}100%{opacity:0}}.f10{opacity:0;animation:k10 2.4s steps(1,end) infinite}@keyframes k11{0%{opacity:0}72.222%{opacity:1}77.778%{opacity:0}100%{opacity:0}}.f11{opacity:0;animation:k11 2.4s steps(1,end) infinite}@keyframes k12{0%{opacity:0}77.778%{opacity:1}83.333%{opacity:0}100%{opacity:0}}.f12{opacity:0;animation:k12 2.4s steps(1,end) infinite}@keyframes k13{0%{opacity:0}83.333%{opacity:1}88.889%{opacity:0}100%{opacity:0}}.f13{opacity:0;animation:k13 2.4s steps(1,end) infinite}@keyframes k14{0%{opacity:0}88.889%{opacity:1}94.444%{opacity:0}100%{opacity:0}}.f14{opacity:0;animation:k14 2.4s steps(1,end) infinite}@keyframes k15{0%{opacity:0}94.444%{opacity:1}100%{opacity:1}}.f15{opacity:0;animation:k15 2.4s steps(1,end) infinite}</style><path d="M40.0,292.0 L440.0,292.0" fill="none" stroke="#1f3333" stroke-width="6" stroke-linecap="round" stroke-linejoin="round" opacity="1.0"/><rect x="266.0" y="234.0" width="110.0" height="58.0" rx="6" fill="none" stroke="#1f3333" stroke-width="6"/><g class="f0"><path d="M250.0,158.0 L253.8,164.6 L257.5,171.2 L261.3,177.7 L265.0,184.3 L268.8,190.9 L272.5,197.5 L275.1,204.5 L276.8,211.9 L278.5,219.3 L280.3,226.6 L282.0,234.0" fill="none" stroke="#f43f5e" stroke-width="19" stroke-linecap="round" stroke-linejoin="round" opacity="0.95"/><path d="M250.0,158.0 L253.8,164.6 L257.5,171.2 L261.3,177.7 L265.0,184.3 L268.8,190.9 L272.5,197.5 L275.1,204.5 L276.8,211.9 L278.5,219.3 L280.3,226.6 L282.0,234.0" fill="none" stroke="#0c2020" stroke-width="11" stroke-linecap="round" stroke-linejoin="round" opacity="1.0"/><path d="M256.0,226.0 L243.8,230.3 L231.7,234.5 L219.5,238.8 L207.4,243.1 L195.2,247.3 L183.1,251.6 L172.4,258.7 L161.8,266.0 L151.2,273.3 L140.6,280.7 L130.0,288.0" fill="none" stroke="#2dd4bf" stroke-width="19" stroke-linecap="round" stroke-linejoin="round" opacity="0.95"/><path d="M256.0,226.0 L243.8,230.3 L231.7,234.5 L219.5,238.8 L207.4,243.1 L195.2,247.3 L183.1,251.6 L172.4,258.7 L161.8,266.0 L151.2,273.3 L140.6,280.7 L130.0,288.0" fill="none" stroke="#0c2020" stroke-width="11" stroke-linecap="round" stroke-linejoin="round" opacity="1.0"/><path d="M250.0,158.0 L250.5,164.2 L251.1,170.4 L251.6,176.5 L252.2,182.7 L252.7,188.9 L253.3,195.1 L253.8,201.3 L254.4,207.5 L254.9,213.6 L255.5,219.8 L256.0,226.0" fill="none" stroke="#2dd4bf" stroke-width="23" stroke-linecap="round" stroke-linejoin="round" opacity="0.95"/><path d="M250.0,158.0 L250.5,164.2 L251.1,170.4 L251.6,176.5 L252.2,182.7 L252.7,188.9 L253.3,195.1 L253.8,201.3 L254.4,207.5 L254.9,213.6 L255.5,219.8 L256.0,226.0" fill="none" stroke="#0c2020" stroke-width="15" stroke-linecap="round" stroke-linejoin="round" opacity="1.0"/><circle cx="252.0" cy="130.0" r="19.0" fill="#2dd4bf" stroke="none" stroke-width="0" opacity="0.95"/><circle cx="252.0" cy="130.0" r="15.0" fill="#0c2020" stroke="none" stroke-width="6.3" opacity="1.0"/><path d="M250.0,113.0 L247.0,116.0 L244.0,119.0 L241.1,121.9 L238.1,124.9 L235.1,127.9 L232.1,130.9 L231.5,134.5 L232.4,138.6 L233.3,142.8 L234.1,146.9 L235.0,151.0" fill="none" stroke="#2dd4bf" stroke-width="5" stroke-linecap="round" stroke-linejoin="round" opacity="1.0"/><path d="M242.7,127.0 L244.4,127.0 L246.1,127.0 L247.8,127.0 L249.5,127.0 L251.2,127.0 L252.8,127.0 L254.5,127.0 L256.2,127.0 L257.9,127.0 L259.6,127.0 L261.3,127.0" fill="none" stroke="#a7f3ee" stroke-width="5" stroke-linecap="round" stroke-linejoin="round" opacity="1.0"/></g><g class="f1"><path d="M250.0,159.4 L253.8,165.8 L257.7,172.2 L261.5,178.7 L265.3,185.1 L269.1,191.6 L273.0,198.0 L275.6,204.9 L277.4,212.1 L278.9,219.4 L280.5,226.7 L282.0,234.0" fill="none" stroke="#f43f5e" stroke-width="19" stroke-linecap="round" stroke-linejoin="round" opacity="0.95"/><path d="M250.0,159.4 L253.8,165.8 L257.7,172.2 L261.5,178.7 L265.3,185.1 L269.1,191.6 L273.0,198.0 L275.6,204.9 L277.4,212.1 L278.9,219.4 L280.5,226.7 L282.0,234.0" fill="none" stroke="#0c2020" stroke-width="11" stroke-linecap="round" stroke-linejoin="round" opacity="1.0"/><path d="M255.8,227.1 L243.7,231.2 L231.5,235.3 L219.4,239.4 L207.2,243.5 L195.1,247.5 L182.9,251.7 L172.3,258.7 L161.7,266.1 L151.1,273.4 L140.6,280.7 L130.0,288.0" fill="none" stroke="#2dd4bf" stroke-width="19" stroke-linecap="round" stroke-linejoin="round" opacity="0.95"/><path d="M255.8,227.1 L243.7,231.2 L231.5,235.3 L219.4,239.4 L207.2,243.5 L195.1,247.5 L182.9,251.7 L172.3,258.7 L161.7,266.1 L151.1,273.4 L140.6,280.7 L130.0,288.0" fill="none" stroke="#0c2020" stroke-width="11" stroke-linecap="round" stroke-linejoin="round" opacity="1.0"/><path d="M250.0,159.4 L250.5,165.5 L251.1,171.7 L251.6,177.9 L252.1,184.0 L252.6,190.2 L253.2,196.3 L253.7,202.5 L254.2,208.6 L254.8,214.8 L255.3,221.0 L255.8,227.1" fill="none" stroke="#2dd4bf" stroke-width="23" stroke-linecap="round" stroke-linejoin="round" opacity="0.95"/><path d="M250.0,159.4 L250.5,165.5 L251.1,171.7 L251.6,177.9 L252.1,184.0 L252.6,190.2 L253.2,196.3 L253.7,202.5 L254.2,208.6 L254.8,214.8 L255.3,221.0 L255.8,227.1" fill="none" stroke="#0c2020" stroke-width="15" stroke-linecap="round" stroke-linejoin="round" opacity="1.0"/><circle cx="252.0" cy="131.4" r="19.0" fill="#2dd4bf" stroke="none" stroke-width="0" opacity="0.95"/><circle cx="252.0" cy="131.4" r="15.0" fill="#0c2020" stroke="none" stroke-width="6.3" opacity="1.0"/><path d="M250.0,114.4 L247.0,117.4 L244.0,120.3 L241.1,123.3 L238.1,126.3 L235.1,129.3 L232.1,132.2 L231.5,135.9 L232.4,140.0 L233.3,144.1 L234.1,148.3 L235.0,152.4" fill="none" stroke="#2dd4bf" stroke-width="5" stroke-linecap="round" stroke-linejoin="round" opacity="1.0"/><path d="M242.7,128.4 L244.4,128.4 L246.1,128.4 L247.8,128.4 L249.5,128.4 L251.2,128.4 L252.8,128.4 L254.5,128.4 L256.2,128.4 L257.9,128.4 L259.6,128.4 L261.3,128.4" fill="none" stroke="#a7f3ee" stroke-width="5" stroke-linecap="round" stroke-linejoin="round" opacity="1.0"/></g><g class="f2"><path d="M250.0,163.0 L254.0,169.1 L258.0,175.1 L262.0,181.2 L266.1,187.3 L270.1,193.4 L274.1,199.4 L277.1,205.9 L279.1,212.7 L280.0,219.8 L281.0,226.9 L282.0,234.0" fill="none" stroke="#f43f5e" stroke-width="19" stroke-linecap="round" stroke-linejoin="round" opacity="0.95"/><path d="M250.0,163.0 L254.0,169.1 L258.0,175.1 L262.0,181.2 L266.1,187.3 L270.1,193.4 L274.1,199.4 L277.1,205.9 L279.1,212.7 L280.0,219.8 L281.0,226.9 L282.0,234.0" fill="none" stroke="#0c2020" stroke-width="11" stroke-linecap="round" stroke-linejoin="round" opacity="1.0"/><path d="M255.4,230.1 L243.2,233.7 L231.1,237.3 L218.9,240.9 L206.8,244.5 L194.6,248.1 L182.6,251.9 L172.0,258.9 L161.5,266.2 L151.0,273.5 L140.5,280.7 L130.0,288.0" fill="none" stroke="#2dd4bf" stroke-width="19" stroke-linecap="round" stroke-linejoin="round" opacity="0.95"/><path d="M255.4,230.1 L243.2,233.7 L231.1,237.3 L218.9,240.9 L206.8,244.5 L194.6,248.1 L182.6,251.9 L172.0,258.9 L161.5,266.2 L151.0,273.5 L140.5,280.7 L130.0,288.0" fill="none" stroke="#0c2020" stroke-width="11" stroke-linecap="round" stroke-linejoin="round" opacity="1.0"/><path d="M250.0,163.0 L250.5,169.1 L251.0,175.2 L251.5,181.3 L252.0,187.4 L252.4,193.5 L252.9,199.6 L253.4,205.7 L253.9,211.8 L254.4,217.9 L254.9,224.0 L255.4,230.1" fill="none" stroke="#2dd4bf" stroke-width="23" stroke-linecap="round" stroke-linejoin="round" opacity="0.95"/><path d="M250.0,163.0 L250.5,169.1 L251.0,175.2 L251.5,181.3 L252.0,187.4 L252.4,193.5 L252.9,199.6 L253.4,205.7 L253.9,211.8 L254.4,217.9 L254.9,224.0 L255.4,230.1" fill="none" stroke="#0c2020" stroke-width="15" stroke-linecap="round" stroke-linejoin="round" opacity="1.0"/><circle cx="252.0" cy="135.0" r="19.0" fill="#2dd4bf" stroke="none" stroke-width="0" opacity="0.95"/><circle cx="252.0" cy="135.0" r="15.0" fill="#0c2020" stroke="none" stroke-width="6.3" opacity="1.0"/><path d="M250.0,118.0 L247.0,121.0 L244.0,124.0 L241.1,126.9 L238.1,129.9 L235.1,132.9 L232.1,135.9 L231.5,139.5 L232.4,143.6 L233.3,147.8 L234.1,151.9 L235.0,156.0" fill="none" stroke="#2dd4bf" stroke-width="5" stroke-linecap="round" stroke-linejoin="round" opacity="1.0"/><path d="M242.7,132.0 L244.4,132.0 L246.1,132.0 L247.8,132.0 L249.5,132.0 L251.2,132.0 L252.8,132.0 L254.5,132.0 L256.2,132.0 L257.9,132.0 L259.6,132.0 L261.3,132.0" fill="none" stroke="#a7f3ee" stroke-width="5" stroke-linecap="round" stroke-linejoin="round" opacity="1.0"/></g><g class="f3"><path d="M250.0,168.1 L254.3,173.7 L258.6,179.2 L262.8,184.8 L267.1,190.3 L271.4,195.9 L275.7,201.5 L279.1,207.3 L281.4,213.6 L281.6,220.4 L281.8,227.2 L282.0,234.0" fill="none" stroke="#f43f5e" stroke-width="19" stroke-linecap="round" stroke-linejoin="round" opacity="0.95"/><path d="M250.0,168.1 L254.3,173.7 L258.6,179.2 L262.8,184.8 L267.1,190.3 L271.4,195.9 L275.7,201.5 L279.1,207.3 L281.4,213.6 L281.6,220.4 L281.8,227.2 L282.0,234.0" fill="none" stroke="#0c2020" stroke-width="11" stroke-linecap="round" stroke-linejoin="round" opacity="1.0"/><path d="M254.7,234.2 L242.6,237.1 L230.5,240.1 L218.3,243.0 L206.2,245.9 L194.0,248.8 L182.0,252.2 L171.6,259.2 L161.2,266.4 L150.8,273.6 L140.4,280.8 L130.0,288.0" fill="none" stroke="#2dd4bf" stroke-width="19" stroke-linecap="round" stroke-linejoin="round" opacity="0.95"/><path d="M254.7,234.2 L242.6,237.1 L230.5,240.1 L218.3,243.0 L206.2,245.9 L194.0,248.8 L182.0,252.2 L171.6,259.2 L161.2,266.4 L150.8,273.6 L140.4,280.8 L130.0,288.0" fill="none" stroke="#0c2020" stroke-width="11" stroke-linecap="round" stroke-linejoin="round" opacity="1.0"/><path d="M250.0,168.1 L250.4,174.1 L250.9,180.1 L251.3,186.2 L251.7,192.2 L252.2,198.2 L252.6,204.2 L253.0,210.2 L253.4,216.2 L253.9,222.2 L254.3,228.2 L254.7,234.2" fill="none" stroke="#2dd4bf" stroke-width="23" stroke-linecap="round" stroke-linejoin="round" opacity="0.95"/><path d="M250.0,168.1 L250.4,174.1 L250.9,180.1 L251.3,186.2 L251.7,192.2 L252.2,198.2 L252.6,204.2 L253.0,210.2 L253.4,216.2 L253.9,222.2 L254.3,228.2 L254.7,234.2" fill="none" stroke="#0c2020" stroke-width="15" stroke-linecap="round" stroke-linejoin="round" opacity="1.0"/><circle cx="252.0" cy="140.1" r="19.0" fill="#2dd4bf" stroke="none" stroke-width="0" opacity="0.95"/><circle cx="252.0" cy="140.1" r="15.0" fill="#0c2020" stroke="none" stroke-width="6.3" opacity="1.0"/><path d="M250.0,123.1 L247.0,126.1 L244.0,129.1 L241.1,132.1 L238.1,135.0 L235.1,138.0 L232.1,141.0 L231.5,144.7 L232.4,148.8 L233.3,152.9 L234.1,157.0 L235.0,161.1" fill="none" stroke="#2dd4bf" stroke-width="5" stroke-linecap="round" stroke-linejoin="round" opacity="1.0"/><path d="M242.7,137.1 L244.4,137.1 L246.1,137.1 L247.8,137.1 L249.5,137.1 L251.2,137.1 L252.8,137.1 L254.5,137.1 L256.2,137.1 L257.9,137.1 L259.6,137.1 L261.3,137.1" fill="none" stroke="#a7f3ee" stroke-width="5" stroke-linecap="round" stroke-linejoin="round" opacity="1.0"/></g><g class="f4"><path d="M250.0,174.0 L254.6,179.0 L259.2,183.9 L263.8,188.9 L268.3,193.8 L272.9,198.8 L277.5,203.8 L281.5,209.0 L284.0,214.6 L283.4,221.1 L282.7,227.5 L282.0,234.0" fill="none" stroke="#f43f5e" stroke-width="19" stroke-linecap="round" stroke-linejoin="round" opacity="0.95"/><path d="M250.0,174.0 L254.6,179.0 L259.2,183.9 L263.8,188.9 L268.3,193.8 L272.9,198.8 L277.5,203.8 L281.5,209.0 L284.0,214.6 L283.4,221.1 L282.7,227.5 L282.0,234.0" fill="none" stroke="#0c2020" stroke-width="11" stroke-linecap="round" stroke-linejoin="round" opacity="1.0"/><path d="M254.0,239.0 L241.9,241.1 L229.7,243.3 L217.6,245.4 L205.5,247.5 L193.3,249.7 L181.4,252.6 L171.1,259.5 L160.8,266.7 L150.5,273.8 L140.3,280.9 L130.0,288.0" fill="none" stroke="#2dd4bf" stroke-width="19" stroke-linecap="round" stroke-linejoin="round" opacity="0.95"/><path d="M254.0,239.0 L241.9,241.1 L229.7,243.3 L217.6,245.4 L205.5,247.5 L193.3,249.7 L181.4,252.6 L171.1,259.5 L160.8,266.7 L150.5,273.8 L140.3,280.9 L130.0,288.0" fill="none" stroke="#0c2020" stroke-width="11" stroke-linecap="round" stroke-linejoin="round" opacity="1.0"/><path d="M250.0,174.0 L250.4,179.9 L250.7,185.8 L251.1,191.7 L251.5,197.6 L251.8,203.5 L252.2,209.5 L252.5,215.4 L252.9,221.3 L253.3,227.2 L253.6,233.1 L254.0,239.0" fill="none" stroke="#2dd4bf" stroke-width="23" stroke-linecap="round" stroke-linejoin="round" opacity="0.95"/><path d="M250.0,174.0 L250.4,179.9 L250.7,185.8 L251.1,191.7 L251.5,197.6 L251.8,203.5 L252.2,209.5 L252.5,215.4 L252.9,221.3 L253.3,227.2 L253.6,233.1 L254.0,239.0" fill="none" stroke="#0c2020" stroke-width="15" stroke-linecap="round" stroke-linejoin="round" opacity="1.0"/><circle cx="252.0" cy="146.0" r="19.0" fill="#2dd4bf" stroke="none" stroke-width="0" opacity="0.95"/><circle cx="252.0" cy="146.0" r="15.0" fill="#0c2020" stroke="none" stroke-width="6.3" opacity="1.0"/><path d="M250.0,129.0 L247.0,132.0 L244.0,135.0 L241.1,137.9 L238.1,140.9 L235.1,143.9 L232.1,146.9 L231.5,150.5 L232.4,154.6 L233.3,158.8 L234.1,162.9 L235.0,167.0" fill="none" stroke="#2dd4bf" stroke-width="5" stroke-linecap="round" stroke-linejoin="round" opacity="1.0"/><path d="M242.7,143.0 L244.4,143.0 L246.1,143.0 L247.8,143.0 L249.5,143.0 L251.2,143.0 L252.8,143.0 L254.5,143.0 L256.2,143.0 L257.9,143.0 L259.6,143.0 L261.3,143.0" fill="none" stroke="#a7f3ee" stroke-width="5" stroke-linecap="round" stroke-linejoin="round" opacity="1.0"/></g><g class="f5"><path d="M250.0,179.9 L254.9,184.2 L259.8,188.6 L264.7,193.0 L269.5,197.4 L274.4,201.7 L279.3,206.1 L283.8,210.6 L286.7,215.6 L285.1,221.7 L283.6,227.9 L282.0,234.0" fill="none" stroke="#f43f5e" stroke-width="19" stroke-linecap="round" stroke-linejoin="round" opacity="0.95"/><path d="M250.0,179.9 L254.9,184.2 L259.8,188.6 L264.7,193.0 L269.5,197.4 L274.4,201.7 L279.3,206.1 L283.8,210.6 L286.7,215.6 L285.1,221.7 L283.6,227.9 L282.0,234.0" fill="none" stroke="#0c2020" stroke-width="11" stroke-linecap="round" stroke-linejoin="round" opacity="1.0"/><path d="M253.3,243.8 L241.1,245.1 L229.0,246.5 L216.9,247.8 L204.8,249.2 L192.6,250.5 L180.8,252.9 L170.6,259.9 L160.5,266.9 L150.3,273.9 L140.2,281.0 L130.0,288.0" fill="none" stroke="#2dd4bf" stroke-width="19" stroke-linecap="round" stroke-linejoin="round" opacity="0.95"/><path d="M253.3,243.8 L241.1,245.1 L229.0,246.5 L216.9,247.8 L204.8,249.2 L192.6,250.5 L180.8,252.9 L170.6,259.9 L160.5,266.9 L150.3,273.9 L140.2,281.0 L130.0,288.0" fill="none" stroke="#0c2020" stroke-width="11" stroke-linecap="round" stroke-linejoin="round" opacity="1.0"/><path d="M250.0,179.9 L250.3,185.7 L250.6,191.5 L250.9,197.3 L251.2,203.1 L251.5,208.9 L251.8,214.7 L252.1,220.5 L252.4,226.3 L252.7,232.2 L253.0,238.0 L253.3,243.8" fill="none" stroke="#2dd4bf" stroke-width="23" stroke-linecap="round" stroke-linejoin="round" opacity="0.95"/><path d="M250.0,179.9 L250.3,185.7 L250.6,191.5 L250.9,197.3 L251.2,203.1 L251.5,208.9 L251.8,214.7 L252.1,220.5 L252.4,226.3 L252.7,232.2 L253.0,238.0 L253.3,243.8" fill="none" stroke="#0c2020" stroke-width="15" stroke-linecap="round" stroke-linejoin="round" opacity="1.0"/><circle cx="252.0" cy="151.9" r="19.0" fill="#2dd4bf" stroke="none" stroke-width="0" opacity="0.95"/><circle cx="252.0" cy="151.9" r="15.0" fill="#0c2020" stroke="none" stroke-width="6.3" opacity="1.0"/><path d="M250.0,134.9 L247.0,137.9 L244.0,140.8 L241.1,143.8 L238.1,146.8 L235.1,149.8 L232.1,152.7 L231.5,156.4 L232.4,160.5 L233.3,164.6 L234.1,168.8 L235.0,172.9" fill="none" stroke="#2dd4bf" stroke-width="5" stroke-linecap="round" stroke-linejoin="round" opacity="1.0"/><path d="M242.7,148.9 L244.4,148.9 L246.1,148.9 L247.8,148.9 L249.5,148.9 L251.2,148.9 L252.8,148.9 L254.5,148.9 L256.2,148.9 L257.9,148.9 L259.6,148.9 L261.3,148.9" fill="none" stroke="#a7f3ee" stroke-width="5" stroke-linecap="round" stroke-linejoin="round" opacity="1.0"/></g><g class="f6"><path d="M250.0,185.0 L255.2,188.9 L260.3,192.7 L265.5,196.6 L270.6,200.4 L275.8,204.3 L280.9,208.1 L285.9,212.0 L289.0,216.5 L286.7,222.3 L284.3,228.2 L282.0,234.0" fill="none" stroke="#f43f5e" stroke-width="19" stroke-linecap="round" stroke-linejoin="round" opacity="0.95"/><path d="M250.0,185.0 L255.2,188.9 L260.3,192.7 L265.5,196.6 L270.6,200.4 L275.8,204.3 L280.9,208.1 L285.9,212.0 L289.0,216.5 L286.7,222.3 L284.3,228.2 L282.0,234.0" fill="none" stroke="#0c2020" stroke-width="11" stroke-linecap="round" stroke-linejoin="round" opacity="1.0"/><path d="M252.6,247.9 L240.5,248.6 L228.4,249.3 L216.3,249.9 L204.1,250.6 L192.0,251.3 L180.3,253.2 L170.2,260.1 L160.2,267.1 L150.1,274.1 L140.1,281.0 L130.0,288.0" fill="none" stroke="#2dd4bf" stroke-width="19" stroke-linecap="round" stroke-linejoin="round" opacity="0.95"/><path d="M252.6,247.9 L240.5,248.6 L228.4,249.3 L216.3,249.9 L204.1,250.6 L192.0,251.3 L180.3,253.2 L170.2,260.1 L160.2,267.1 L150.1,274.1 L140.1,281.0 L130.0,288.0" fill="none" stroke="#0c2020" stroke-width="11" stroke-linecap="round" stroke-linejoin="round" opacity="1.0"/><path d="M250.0,185.0 L250.2,190.7 L250.5,196.4 L250.7,202.2 L251.0,207.9 L251.2,213.6 L251.4,219.3 L251.7,225.1 L251.9,230.8 L252.1,236.5 L252.4,242.2 L252.6,247.9" fill="none" stroke="#2dd4bf" stroke-width="23" stroke-linecap="round" stroke-linejoin="round" opacity="0.95"/><path d="M250.0,185.0 L250.2,190.7 L250.5,196.4 L250.7,202.2 L251.0,207.9 L251.2,213.6 L251.4,219.3 L251.7,225.1 L251.9,230.8 L252.1,236.5 L252.4,242.2 L252.6,247.9" fill="none" stroke="#0c2020" stroke-width="15" stroke-linecap="round" stroke-linejoin="round" opacity="1.0"/><circle cx="252.0" cy="157.0" r="19.0" fill="#2dd4bf" stroke="none" stroke-width="0" opacity="0.95"/><circle cx="252.0" cy="157.0" r="15.0" fill="#0c2020" stroke="none" stroke-width="6.3" opacity="1.0"/><path d="M250.0,140.0 L247.0,143.0 L244.0,146.0 L241.1,148.9 L238.1,151.9 L235.1,154.9 L232.1,157.9 L231.5,161.5 L232.4,165.6 L233.3,169.8 L234.1,173.9 L235.0,178.0" fill="none" stroke="#2dd4bf" stroke-width="5" stroke-linecap="round" stroke-linejoin="round" opacity="1.0"/><path d="M242.7,154.0 L244.4,154.0 L246.1,154.0 L247.8,154.0 L249.5,154.0 L251.2,154.0 L252.8,154.0 L254.5,154.0 L256.2,154.0 L257.9,154.0 L259.6,154.0 L261.3,154.0" fill="none" stroke="#a7f3ee" stroke-width="5" stroke-linecap="round" stroke-linejoin="round" opacity="1.0"/></g><g class="f7"><path d="M250.0,188.6 L255.3,192.1 L260.7,195.6 L266.0,199.1 L271.4,202.6 L276.7,206.1 L282.0,209.6 L287.3,213.1 L290.6,217.1 L287.8,222.7 L284.9,228.4 L282.0,234.0" fill="none" stroke="#f43f5e" stroke-width="19" stroke-linecap="round" stroke-linejoin="round" opacity="0.95"/><path d="M250.0,188.6 L255.3,192.1 L260.7,195.6 L266.0,199.1 L271.4,202.6 L276.7,206.1 L282.0,209.6 L287.3,213.1 L290.6,217.1 L287.8,222.7 L284.9,228.4 L282.0,234.0" fill="none" stroke="#0c2020" stroke-width="11" stroke-linecap="round" stroke-linejoin="round" opacity="1.0"/><path d="M252.2,250.9 L240.1,251.1 L227.9,251.2 L215.8,251.4 L203.7,251.6 L191.6,251.8 L179.9,253.4 L169.9,260.3 L160.0,267.3 L150.0,274.2 L140.0,281.1 L130.0,288.0" fill="none" stroke="#2dd4bf" stroke-width="19" stroke-linecap="round" stroke-linejoin="round" opacity="0.95"/><path d="M252.2,250.9 L240.1,251.1 L227.9,251.2 L215.8,251.4 L203.7,251.6 L191.6,251.8 L179.9,253.4 L169.9,260.3 L160.0,267.3 L150.0,274.2 L140.0,281.1 L130.0,288.0" fill="none" stroke="#0c2020" stroke-width="11" stroke-linecap="round" stroke-linejoin="round" opacity="1.0"/><path d="M250.0,188.6 L250.2,194.3 L250.4,199.9 L250.6,205.6 L250.8,211.3 L251.0,216.9 L251.2,222.6 L251.4,228.2 L251.6,233.9 L251.8,239.6 L252.0,245.2 L252.2,250.9" fill="none" stroke="#2dd4bf" stroke-width="23" stroke-linecap="round" stroke-linejoin="round" opacity="0.95"/><path d="M250.0,188.6 L250.2,194.3 L250.4,199.9 L250.6,205.6 L250.8,211.3 L251.0,216.9 L251.2,222.6 L251.4,228.2 L251.6,233.9 L251.8,239.6 L252.0,245.2 L252.2,250.9" fill="none" stroke="#0c2020" stroke-width="15" stroke-linecap="round" stroke-linejoin="round" opacity="1.0"/><circle cx="252.0" cy="160.6" r="19.0" fill="#2dd4bf" stroke="none" stroke-width="0" opacity="0.95"/><circle cx="252.0" cy="160.6" r="15.0" fill="#0c2020" stroke="none" stroke-width="6.3" opacity="1.0"/><path d="M250.0,143.6 L247.0,146.6 L244.0,149.6 L241.1,152.6 L238.1,155.5 L235.1,158.5 L232.1,161.5 L231.5,165.2 L232.4,169.3 L233.3,173.4 L234.1,177.5 L235.0,181.6" fill="none" stroke="#2dd4bf" stroke-width="5" stroke-linecap="round" stroke-linejoin="round" opacity="1.0"/><path d="M242.7,157.6 L244.4,157.6 L246.1,157.6 L247.8,157.6 L249.5,157.6 L251.2,157.6 L252.8,157.6 L254.5,157.6 L256.2,157.6 L257.9,157.6 L259.6,157.6 L261.3,157.6" fill="none" stroke="#a7f3ee" stroke-width="5" stroke-linecap="round" stroke-linejoin="round" opacity="1.0"/></g><g class="f8"><path d="M250.0,190.0 L255.4,193.3 L260.8,196.7 L266.2,200.0 L271.6,203.4 L277.0,206.7 L282.5,210.1 L287.9,213.4 L291.3,217.3 L288.2,222.9 L285.1,228.4 L282.0,234.0" fill="none" stroke="#f43f5e" stroke-width="19" stroke-linecap="round" stroke-linejoin="round" opacity="0.95"/><path d="M250.0,190.0 L255.4,193.3 L260.8,196.7 L266.2,200.0 L271.6,203.4 L277.0,206.7 L282.5,210.1 L287.9,213.4 L291.3,217.3 L288.2,222.9 L285.1,228.4 L282.0,234.0" fill="none" stroke="#0c2020" stroke-width="11" stroke-linecap="round" stroke-linejoin="round" opacity="1.0"/><path d="M252.0,252.0 L239.9,252.0 L227.8,252.0 L215.7,252.0 L203.5,252.0 L191.4,252.0 L179.8,253.5 L169.8,260.4 L159.9,267.3 L149.9,274.2 L140.0,281.1 L130.0,288.0" fill="none" stroke="#2dd4bf" stroke-width="19" stroke-linecap="round" stroke-linejoin="round" opacity="0.95"/><path d="M252.0,252.0 L239.9,252.0 L227.8,252.0 L215.7,252.0 L203.5,252.0 L191.4,252.0 L179.8,253.5 L169.8,260.4 L159.9,267.3 L149.9,274.2 L140.0,281.1 L130.0,288.0" fill="none" stroke="#0c2020" stroke-width="11" stroke-linecap="round" stroke-linejoin="round" opacity="1.0"/><path d="M250.0,190.0 L250.2,195.6 L250.4,201.3 L250.5,206.9 L250.7,212.5 L250.9,218.2 L251.1,223.8 L251.3,229.5 L251.5,235.1 L251.6,240.7 L251.8,246.4 L252.0,252.0" fill="none" stroke="#2dd4bf" stroke-width="23" stroke-linecap="round" stroke-linejoin="round" opacity="0.95"/><path d="M250.0,190.0 L250.2,195.6 L250.4,201.3 L250.5,206.9 L250.7,212.5 L250.9,218.2 L251.1,223.8 L251.3,229.5 L251.5,235.1 L251.6,240.7 L251.8,246.4 L252.0,252.0" fill="none" stroke="#0c2020" stroke-width="15" stroke-linecap="round" stroke-linejoin="round" opacity="1.0"/><circle cx="252.0" cy="162.0" r="19.0" fill="#2dd4bf" stroke="none" stroke-width="0" opacity="0.95"/><circle cx="252.0" cy="162.0" r="15.0" fill="#0c2020" stroke="none" stroke-width="6.3" opacity="1.0"/><path d="M250.0,145.0 L247.0,148.0 L244.0,151.0 L241.1,153.9 L238.1,156.9 L235.1,159.9 L232.1,162.9 L231.5,166.5 L232.4,170.6 L233.3,174.8 L234.1,178.9 L235.0,183.0" fill="none" stroke="#2dd4bf" stroke-width="5" stroke-linecap="round" stroke-linejoin="round" opacity="1.0"/><path d="M242.7,159.0 L244.4,159.0 L246.1,159.0 L247.8,159.0 L249.5,159.0 L251.2,159.0 L252.8,159.0 L254.5,159.0 L256.2,159.0 L257.9,159.0 L259.6,159.0 L261.3,159.0" fill="none" stroke="#a7f3ee" stroke-width="5" stroke-linecap="round" stroke-linejoin="round" opacity="1.0"/></g><g class="f9"><path d="M250.0,188.6 L255.3,192.1 L260.7,195.6 L266.0,199.1 L271.4,202.6 L276.7,206.1 L282.0,209.6 L287.3,213.1 L290.6,217.1 L287.8,222.7 L284.9,228.4 L282.0,234.0" fill="none" stroke="#f43f5e" stroke-width="19" stroke-linecap="round" stroke-linejoin="round" opacity="0.95"/><path d="M250.0,188.6 L255.3,192.1 L260.7,195.6 L266.0,199.1 L271.4,202.6 L276.7,206.1 L282.0,209.6 L287.3,213.1 L290.6,217.1 L287.8,222.7 L284.9,228.4 L282.0,234.0" fill="none" stroke="#0c2020" stroke-width="11" stroke-linecap="round" stroke-linejoin="round" opacity="1.0"/><path d="M252.2,250.9 L240.1,251.1 L227.9,251.2 L215.8,251.4 L203.7,251.6 L191.6,251.8 L179.9,253.4 L169.9,260.3 L160.0,267.3 L150.0,274.2 L140.0,281.1 L130.0,288.0" fill="none" stroke="#2dd4bf" stroke-width="19" stroke-linecap="round" stroke-linejoin="round" opacity="0.95"/><path d="M252.2,250.9 L240.1,251.1 L227.9,251.2 L215.8,251.4 L203.7,251.6 L191.6,251.8 L179.9,253.4 L169.9,260.3 L160.0,267.3 L150.0,274.2 L140.0,281.1 L130.0,288.0" fill="none" stroke="#0c2020" stroke-width="11" stroke-linecap="round" stroke-linejoin="round" opacity="1.0"/><path d="M250.0,188.6 L250.2,194.3 L250.4,199.9 L250.6,205.6 L250.8,211.3 L251.0,216.9 L251.2,222.6 L251.4,228.2 L251.6,233.9 L251.8,239.6 L252.0,245.2 L252.2,250.9" fill="none" stroke="#2dd4bf" stroke-width="23" stroke-linecap="round" stroke-linejoin="round" opacity="0.95"/><path d="M250.0,188.6 L250.2,194.3 L250.4,199.9 L250.6,205.6 L250.8,211.3 L251.0,216.9 L251.2,222.6 L251.4,228.2 L251.6,233.9 L251.8,239.6 L252.0,245.2 L252.2,250.9" fill="none" stroke="#0c2020" stroke-width="15" stroke-linecap="round" stroke-linejoin="round" opacity="1.0"/><circle cx="252.0" cy="160.6" r="19.0" fill="#2dd4bf" stroke="none" stroke-width="0" opacity="0.95"/><circle cx="252.0" cy="160.6" r="15.0" fill="#0c2020" stroke="none" stroke-width="6.3" opacity="1.0"/><path d="M250.0,143.6 L247.0,146.6 L244.0,149.6 L241.1,152.6 L238.1,155.5 L235.1,158.5 L232.1,161.5 L231.5,165.2 L232.4,169.3 L233.3,173.4 L234.1,177.5 L235.0,181.6" fill="none" stroke="#2dd4bf" stroke-width="5" stroke-linecap="round" stroke-linejoin="round" opacity="1.0"/><path d="M242.7,157.6 L244.4,157.6 L246.1,157.6 L247.8,157.6 L249.5,157.6 L251.2,157.6 L252.8,157.6 L254.5,157.6 L256.2,157.6 L257.9,157.6 L259.6,157.6 L261.3,157.6" fill="none" stroke="#a7f3ee" stroke-width="5" stroke-linecap="round" stroke-linejoin="round" opacity="1.0"/></g><g class="f10"><path d="M250.0,185.0 L255.2,188.9 L260.3,192.7 L265.5,196.6 L270.6,200.4 L275.8,204.3 L280.9,208.1 L285.9,212.0 L289.0,216.5 L286.7,222.3 L284.3,228.2 L282.0,234.0" fill="none" stroke="#f43f5e" stroke-width="19" stroke-linecap="round" stroke-linejoin="round" opacity="0.95"/><path d="M250.0,185.0 L255.2,188.9 L260.3,192.7 L265.5,196.6 L270.6,200.4 L275.8,204.3 L280.9,208.1 L285.9,212.0 L289.0,216.5 L286.7,222.3 L284.3,228.2 L282.0,234.0" fill="none" stroke="#0c2020" stroke-width="11" stroke-linecap="round" stroke-linejoin="round" opacity="1.0"/><path d="M252.6,247.9 L240.5,248.6 L228.4,249.3 L216.3,249.9 L204.1,250.6 L192.0,251.3 L180.3,253.2 L170.2,260.1 L160.2,267.1 L150.1,274.1 L140.1,281.0 L130.0,288.0" fill="none" stroke="#2dd4bf" stroke-width="19" stroke-linecap="round" stroke-linejoin="round" opacity="0.95"/><path d="M252.6,247.9 L240.5,248.6 L228.4,249.3 L216.3,249.9 L204.1,250.6 L192.0,251.3 L180.3,253.2 L170.2,260.1 L160.2,267.1 L150.1,274.1 L140.1,281.0 L130.0,288.0" fill="none" stroke="#0c2020" stroke-width="11" stroke-linecap="round" stroke-linejoin="round" opacity="1.0"/><path d="M250.0,185.0 L250.2,190.7 L250.5,196.4 L250.7,202.2 L251.0,207.9 L251.2,213.6 L251.4,219.3 L251.7,225.1 L251.9,230.8 L252.1,236.5 L252.4,242.2 L252.6,247.9" fill="none" stroke="#2dd4bf" stroke-width="23" stroke-linecap="round" stroke-linejoin="round" opacity="0.95"/><path d="M250.0,185.0 L250.2,190.7 L250.5,196.4 L250.7,202.2 L251.0,207.9 L251.2,213.6 L251.4,219.3 L251.7,225.1 L251.9,230.8 L252.1,236.5 L252.4,242.2 L252.6,247.9" fill="none" stroke="#0c2020" stroke-width="15" stroke-linecap="round" stroke-linejoin="round" opacity="1.0"/><circle cx="252.0" cy="157.0" r="19.0" fill="#2dd4bf" stroke="none" stroke-width="0" opacity="0.95"/><circle cx="252.0" cy="157.0" r="15.0" fill="#0c2020" stroke="none" stroke-width="6.3" opacity="1.0"/><path d="M250.0,140.0 L247.0,143.0 L244.0,146.0 L241.1,148.9 L238.1,151.9 L235.1,154.9 L232.1,157.9 L231.5,161.5 L232.4,165.6 L233.3,169.8 L234.1,173.9 L235.0,178.0" fill="none" stroke="#2dd4bf" stroke-width="5" stroke-linecap="round" stroke-linejoin="round" opacity="1.0"/><path d="M242.7,154.0 L244.4,154.0 L246.1,154.0 L247.8,154.0 L249.5,154.0 L251.2,154.0 L252.8,154.0 L254.5,154.0 L256.2,154.0 L257.9,154.0 L259.6,154.0 L261.3,154.0" fill="none" stroke="#a7f3ee" stroke-width="5" stroke-linecap="round" stroke-linejoin="round" opacity="1.0"/></g><g class="f11"><path d="M250.0,179.9 L254.9,184.2 L259.8,188.6 L264.7,193.0 L269.5,197.4 L274.4,201.7 L279.3,206.1 L283.8,210.6 L286.7,215.6 L285.1,221.7 L283.6,227.9 L282.0,234.0" fill="none" stroke="#f43f5e" stroke-width="19" stroke-linecap="round" stroke-linejoin="round" opacity="0.95"/><path d="M250.0,179.9 L254.9,184.2 L259.8,188.6 L264.7,193.0 L269.5,197.4 L274.4,201.7 L279.3,206.1 L283.8,210.6 L286.7,215.6 L285.1,221.7 L283.6,227.9 L282.0,234.0" fill="none" stroke="#0c2020" stroke-width="11" stroke-linecap="round" stroke-linejoin="round" opacity="1.0"/><path d="M253.3,243.8 L241.1,245.1 L229.0,246.5 L216.9,247.8 L204.8,249.2 L192.6,250.5 L180.8,252.9 L170.6,259.9 L160.5,266.9 L150.3,273.9 L140.2,281.0 L130.0,288.0" fill="none" stroke="#2dd4bf" stroke-width="19" stroke-linecap="round" stroke-linejoin="round" opacity="0.95"/><path d="M253.3,243.8 L241.1,245.1 L229.0,246.5 L216.9,247.8 L204.8,249.2 L192.6,250.5 L180.8,252.9 L170.6,259.9 L160.5,266.9 L150.3,273.9 L140.2,281.0 L130.0,288.0" fill="none" stroke="#0c2020" stroke-width="11" stroke-linecap="round" stroke-linejoin="round" opacity="1.0"/><path d="M250.0,179.9 L250.3,185.7 L250.6,191.5 L250.9,197.3 L251.2,203.1 L251.5,208.9 L251.8,214.7 L252.1,220.5 L252.4,226.3 L252.7,232.2 L253.0,238.0 L253.3,243.8" fill="none" stroke="#2dd4bf" stroke-width="23" stroke-linecap="round" stroke-linejoin="round" opacity="0.95"/><path d="M250.0,179.9 L250.3,185.7 L250.6,191.5 L250.9,197.3 L251.2,203.1 L251.5,208.9 L251.8,214.7 L252.1,220.5 L252.4,226.3 L252.7,232.2 L253.0,238.0 L253.3,243.8" fill="none" stroke="#0c2020" stroke-width="15" stroke-linecap="round" stroke-linejoin="round" opacity="1.0"/><circle cx="252.0" cy="151.9" r="19.0" fill="#2dd4bf" stroke="none" stroke-width="0" opacity="0.95"/><circle cx="252.0" cy="151.9" r="15.0" fill="#0c2020" stroke="none" stroke-width="6.3" opacity="1.0"/><path d="M250.0,134.9 L247.0,137.9 L244.0,140.8 L241.1,143.8 L238.1,146.8 L235.1,149.8 L232.1,152.7 L231.5,156.4 L232.4,160.5 L233.3,164.6 L234.1,168.8 L235.0,172.9" fill="none" stroke="#2dd4bf" stroke-width="5" stroke-linecap="round" stroke-linejoin="round" opacity="1.0"/><path d="M242.7,148.9 L244.4,148.9 L246.1,148.9 L247.8,148.9 L249.5,148.9 L251.2,148.9 L252.8,148.9 L254.5,148.9 L256.2,148.9 L257.9,148.9 L259.6,148.9 L261.3,148.9" fill="none" stroke="#a7f3ee" stroke-width="5" stroke-linecap="round" stroke-linejoin="round" opacity="1.0"/></g><g class="f12"><path d="M250.0,174.0 L254.6,179.0 L259.2,183.9 L263.8,188.9 L268.3,193.8 L272.9,198.8 L277.5,203.8 L281.5,209.0 L284.0,214.6 L283.4,221.1 L282.7,227.5 L282.0,234.0" fill="none" stroke="#f43f5e" stroke-width="19" stroke-linecap="round" stroke-linejoin="round" opacity="0.95"/><path d="M250.0,174.0 L254.6,179.0 L259.2,183.9 L263.8,188.9 L268.3,193.8 L272.9,198.8 L277.5,203.8 L281.5,209.0 L284.0,214.6 L283.4,221.1 L282.7,227.5 L282.0,234.0" fill="none" stroke="#0c2020" stroke-width="11" stroke-linecap="round" stroke-linejoin="round" opacity="1.0"/><path d="M254.0,239.0 L241.9,241.1 L229.7,243.3 L217.6,245.4 L205.5,247.5 L193.3,249.7 L181.4,252.6 L171.1,259.5 L160.8,266.7 L150.5,273.8 L140.3,280.9 L130.0,288.0" fill="none" stroke="#2dd4bf" stroke-width="19" stroke-linecap="round" stroke-linejoin="round" opacity="0.95"/><path d="M254.0,239.0 L241.9,241.1 L229.7,243.3 L217.6,245.4 L205.5,247.5 L193.3,249.7 L181.4,252.6 L171.1,259.5 L160.8,266.7 L150.5,273.8 L140.3,280.9 L130.0,288.0" fill="none" stroke="#0c2020" stroke-width="11" stroke-linecap="round" stroke-linejoin="round" opacity="1.0"/><path d="M250.0,174.0 L250.4,179.9 L250.7,185.8 L251.1,191.7 L251.5,197.6 L251.8,203.5 L252.2,209.5 L252.5,215.4 L252.9,221.3 L253.3,227.2 L253.6,233.1 L254.0,239.0" fill="none" stroke="#2dd4bf" stroke-width="23" stroke-linecap="round" stroke-linejoin="round" opacity="0.95"/><path d="M250.0,174.0 L250.4,179.9 L250.7,185.8 L251.1,191.7 L251.5,197.6 L251.8,203.5 L252.2,209.5 L252.5,215.4 L252.9,221.3 L253.3,227.2 L253.6,233.1 L254.0,239.0" fill="none" stroke="#0c2020" stroke-width="15" stroke-linecap="round" stroke-linejoin="round" opacity="1.0"/><circle cx="252.0" cy="146.0" r="19.0" fill="#2dd4bf" stroke="none" stroke-width="0" opacity="0.95"/><circle cx="252.0" cy="146.0" r="15.0" fill="#0c2020" stroke="none" stroke-width="6.3" opacity="1.0"/><path d="M250.0,129.0 L247.0,132.0 L244.0,135.0 L241.1,137.9 L238.1,140.9 L235.1,143.9 L232.1,146.9 L231.5,150.5 L232.4,154.6 L233.3,158.8 L234.1,162.9 L235.0,167.0" fill="none" stroke="#2dd4bf" stroke-width="5" stroke-linecap="round" stroke-linejoin="round" opacity="1.0"/><path d="M242.7,143.0 L244.4,143.0 L246.1,143.0 L247.8,143.0 L249.5,143.0 L251.2,143.0 L252.8,143.0 L254.5,143.0 L256.2,143.0 L257.9,143.0 L259.6,143.0 L261.3,143.0" fill="none" stroke="#a7f3ee" stroke-width="5" stroke-linecap="round" stroke-linejoin="round" opacity="1.0"/></g><g class="f13"><path d="M250.0,168.1 L254.3,173.7 L258.6,179.2 L262.8,184.8 L267.1,190.3 L271.4,195.9 L275.7,201.5 L279.1,207.3 L281.4,213.6 L281.6,220.4 L281.8,227.2 L282.0,234.0" fill="none" stroke="#f43f5e" stroke-width="19" stroke-linecap="round" stroke-linejoin="round" opacity="0.95"/><path d="M250.0,168.1 L254.3,173.7 L258.6,179.2 L262.8,184.8 L267.1,190.3 L271.4,195.9 L275.7,201.5 L279.1,207.3 L281.4,213.6 L281.6,220.4 L281.8,227.2 L282.0,234.0" fill="none" stroke="#0c2020" stroke-width="11" stroke-linecap="round" stroke-linejoin="round" opacity="1.0"/><path d="M254.7,234.2 L242.6,237.1 L230.5,240.1 L218.3,243.0 L206.2,245.9 L194.0,248.8 L182.0,252.2 L171.6,259.2 L161.2,266.4 L150.8,273.6 L140.4,280.8 L130.0,288.0" fill="none" stroke="#2dd4bf" stroke-width="19" stroke-linecap="round" stroke-linejoin="round" opacity="0.95"/><path d="M254.7,234.2 L242.6,237.1 L230.5,240.1 L218.3,243.0 L206.2,245.9 L194.0,248.8 L182.0,252.2 L171.6,259.2 L161.2,266.4 L150.8,273.6 L140.4,280.8 L130.0,288.0" fill="none" stroke="#0c2020" stroke-width="11" stroke-linecap="round" stroke-linejoin="round" opacity="1.0"/><path d="M250.0,168.1 L250.4,174.1 L250.9,180.1 L251.3,186.2 L251.7,192.2 L252.2,198.2 L252.6,204.2 L253.0,210.2 L253.4,216.2 L253.9,222.2 L254.3,228.2 L254.7,234.2" fill="none" stroke="#2dd4bf" stroke-width="23" stroke-linecap="round" stroke-linejoin="round" opacity="0.95"/><path d="M250.0,168.1 L250.4,174.1 L250.9,180.1 L251.3,186.2 L251.7,192.2 L252.2,198.2 L252.6,204.2 L253.0,210.2 L253.4,216.2 L253.9,222.2 L254.3,228.2 L254.7,234.2" fill="none" stroke="#0c2020" stroke-width="15" stroke-linecap="round" stroke-linejoin="round" opacity="1.0"/><circle cx="252.0" cy="140.1" r="19.0" fill="#2dd4bf" stroke="none" stroke-width="0" opacity="0.95"/><circle cx="252.0" cy="140.1" r="15.0" fill="#0c2020" stroke="none" stroke-width="6.3" opacity="1.0"/><path d="M250.0,123.1 L247.0,126.1 L244.0,129.1 L241.1,132.1 L238.1,135.0 L235.1,138.0 L232.1,141.0 L231.5,144.7 L232.4,148.8 L233.3,152.9 L234.1,157.0 L235.0,161.1" fill="none" stroke="#2dd4bf" stroke-width="5" stroke-linecap="round" stroke-linejoin="round" opacity="1.0"/><path d="M242.7,137.1 L244.4,137.1 L246.1,137.1 L247.8,137.1 L249.5,137.1 L251.2,137.1 L252.8,137.1 L254.5,137.1 L256.2,137.1 L257.9,137.1 L259.6,137.1 L261.3,137.1" fill="none" stroke="#a7f3ee" stroke-width="5" stroke-linecap="round" stroke-linejoin="round" opacity="1.0"/></g><g class="f14"><path d="M250.0,163.0 L254.0,169.1 L258.0,175.1 L262.0,181.2 L266.1,187.3 L270.1,193.4 L274.1,199.4 L277.1,205.9 L279.1,212.7 L280.0,219.8 L281.0,226.9 L282.0,234.0" fill="none" stroke="#f43f5e" stroke-width="19" stroke-linecap="round" stroke-linejoin="round" opacity="0.95"/><path d="M250.0,163.0 L254.0,169.1 L258.0,175.1 L262.0,181.2 L266.1,187.3 L270.1,193.4 L274.1,199.4 L277.1,205.9 L279.1,212.7 L280.0,219.8 L281.0,226.9 L282.0,234.0" fill="none" stroke="#0c2020" stroke-width="11" stroke-linecap="round" stroke-linejoin="round" opacity="1.0"/><path d="M255.4,230.1 L243.2,233.7 L231.1,237.3 L218.9,240.9 L206.8,244.5 L194.6,248.1 L182.6,251.9 L172.0,258.9 L161.5,266.2 L151.0,273.5 L140.5,280.7 L130.0,288.0" fill="none" stroke="#2dd4bf" stroke-width="19" stroke-linecap="round" stroke-linejoin="round" opacity="0.95"/><path d="M255.4,230.1 L243.2,233.7 L231.1,237.3 L218.9,240.9 L206.8,244.5 L194.6,248.1 L182.6,251.9 L172.0,258.9 L161.5,266.2 L151.0,273.5 L140.5,280.7 L130.0,288.0" fill="none" stroke="#0c2020" stroke-width="11" stroke-linecap="round" stroke-linejoin="round" opacity="1.0"/><path d="M250.0,163.0 L250.5,169.1 L251.0,175.2 L251.5,181.3 L252.0,187.4 L252.4,193.5 L252.9,199.6 L253.4,205.7 L253.9,211.8 L254.4,217.9 L254.9,224.0 L255.4,230.1" fill="none" stroke="#2dd4bf" stroke-width="23" stroke-linecap="round" stroke-linejoin="round" opacity="0.95"/><path d="M250.0,163.0 L250.5,169.1 L251.0,175.2 L251.5,181.3 L252.0,187.4 L252.4,193.5 L252.9,199.6 L253.4,205.7 L253.9,211.8 L254.4,217.9 L254.9,224.0 L255.4,230.1" fill="none" stroke="#0c2020" stroke-width="15" stroke-linecap="round" stroke-linejoin="round" opacity="1.0"/><circle cx="252.0" cy="135.0" r="19.0" fill="#2dd4bf" stroke="none" stroke-width="0" opacity="0.95"/><circle cx="252.0" cy="135.0" r="15.0" fill="#0c2020" stroke="none" stroke-width="6.3" opacity="1.0"/><path d="M250.0,118.0 L247.0,121.0 L244.0,124.0 L241.1,126.9 L238.1,129.9 L235.1,132.9 L232.1,135.9 L231.5,139.5 L232.4,143.6 L233.3,147.8 L234.1,151.9 L235.0,156.0" fill="none" stroke="#2dd4bf" stroke-width="5" stroke-linecap="round" stroke-linejoin="round" opacity="1.0"/><path d="M242.7,132.0 L244.4,132.0 L246.1,132.0 L247.8,132.0 L249.5,132.0 L251.2,132.0 L252.8,132.0 L254.5,132.0 L256.2,132.0 L257.9,132.0 L259.6,132.0 L261.3,132.0" fill="none" stroke="#a7f3ee" stroke-width="5" stroke-linecap="round" stroke-linejoin="round" opacity="1.0"/></g><g class="f15"><path d="M250.0,159.4 L253.8,165.8 L257.7,172.2 L261.5,178.7 L265.3,185.1 L269.1,191.6 L273.0,198.0 L275.6,204.9 L277.4,212.1 L278.9,219.4 L280.5,226.7 L282.0,234.0" fill="none" stroke="#f43f5e" stroke-width="19" stroke-linecap="round" stroke-linejoin="round" opacity="0.95"/><path d="M250.0,159.4 L253.8,165.8 L257.7,172.2 L261.5,178.7 L265.3,185.1 L269.1,191.6 L273.0,198.0 L275.6,204.9 L277.4,212.1 L278.9,219.4 L280.5,226.7 L282.0,234.0" fill="none" stroke="#0c2020" stroke-width="11" stroke-linecap="round" stroke-linejoin="round" opacity="1.0"/><path d="M255.8,227.1 L243.7,231.2 L231.5,235.3 L219.4,239.4 L207.2,243.5 L195.1,247.5 L182.9,251.7 L172.3,258.7 L161.7,266.1 L151.1,273.4 L140.6,280.7 L130.0,288.0" fill="none" stroke="#2dd4bf" stroke-width="19" stroke-linecap="round" stroke-linejoin="round" opacity="0.95"/><path d="M255.8,227.1 L243.7,231.2 L231.5,235.3 L219.4,239.4 L207.2,243.5 L195.1,247.5 L182.9,251.7 L172.3,258.7 L161.7,266.1 L151.1,273.4 L140.6,280.7 L130.0,288.0" fill="none" stroke="#0c2020" stroke-width="11" stroke-linecap="round" stroke-linejoin="round" opacity="1.0"/><path d="M250.0,159.4 L250.5,165.5 L251.1,171.7 L251.6,177.9 L252.1,184.0 L252.6,190.2 L253.2,196.3 L253.7,202.5 L254.2,208.6 L254.8,214.8 L255.3,221.0 L255.8,227.1" fill="none" stroke="#2dd4bf" stroke-width="23" stroke-linecap="round" stroke-linejoin="round" opacity="0.95"/><path d="M250.0,159.4 L250.5,165.5 L251.1,171.7 L251.6,177.9 L252.1,184.0 L252.6,190.2 L253.2,196.3 L253.7,202.5 L254.2,208.6 L254.8,214.8 L255.3,221.0 L255.8,227.1" fill="none" stroke="#0c2020" stroke-width="15" stroke-linecap="round" stroke-linejoin="round" opacity="1.0"/><circle cx="252.0" cy="131.4" r="19.0" fill="#2dd4bf" stroke="none" stroke-width="0" opacity="0.95"/><circle cx="252.0" cy="131.4" r="15.0" fill="#0c2020" stroke="none" stroke-width="6.3" opacity="1.0"/><path d="M250.0,114.4 L247.0,117.4 L244.0,120.3 L241.1,123.3 L238.1,126.3 L235.1,129.3 L232.1,132.2 L231.5,135.9 L232.4,140.0 L233.3,144.1 L234.1,148.3 L235.0,152.4" fill="none" stroke="#2dd4bf" stroke-width="5" stroke-linecap="round" stroke-linejoin="round" opacity="1.0"/><path d="M242.7,128.4 L244.4,128.4 L246.1,128.4 L247.8,128.4 L249.5,128.4 L251.2,128.4 L252.8,128.4 L254.5,128.4 L256.2,128.4 L257.9,128.4 L259.6,128.4 L261.3,128.4" fill="none" stroke="#a7f3ee" stroke-width="5" stroke-linecap="round" stroke-linejoin="round" opacity="1.0"/></g></svg>
