<svg xmlns="http://www.w3.org/2000/svg" viewBox="0 0 480 320"><style>@keyframes k0{0%{opacity:1}11.111%{opacity:0}100%{opacity:0}}.f0{opacity:0;animation:k0 2.4s steps(1,end) infinite}@keyframes k1{0%{opacity:0}11.111%{opacity:1}16.667%{opacity:0}100%{opacity:0}}.f1{opacity:0;animation:k1 2.4s steps(1,end) infinite}@keyframes k2{0%{opacity:0}16.667%{opacity:1}22.222%{opacity:0}100%{opacity:0}}.f2{opacity:0;animation:k2 2.4s steps(1,end) infinite}@keyframes k3{0%{opacity:0}22.222%{opacity:1}27.778%{opacity:0}100%{opacity:0}}.f3{opacity:0;animation:k3 2.4s steps(1,end) infinite}@keyframes k4{0%{opacity:0}27.778%{opacity:1}33.333%{opacity:0}100%{opacity:0}}.f4{opacity:0;animation:k4 2.4s steps(1,end) infinite}@keyframes k5{0%{opacity:0}33.333%{opacity:1}38.889%{opacity:0}100%{opacity:0}}.f5{opacity:0;animation:k5 2.4s steps(1,end) infinite}@keyframes k6{0%{opacity:0}38.889%{opacity:1}44.444%{opacity:0}100%{opacity:0}}.f6{opacity:0;animation:k6 2.4s steps(1,end) infinite}@keyframes k7{0%{opacity:0}44.444%{opacity:1}50.000%{opacity:0}100%{opacity:0}}.f7{opacity:0;animation:k7 2.4s steps(1,end) infinite}@keyframes k8{0%{opacity:0}50.000%{opacity:1}61.111%{opacity:0}100%{opacity:0}}.f8{opacity:0;animation:k8 2.4s steps(1,end) infinite}@keyframes k9{0%{opacity:0}61.111%{opacity:1}66.667%{opacity:0}100%{opacity:0}}.f9{opacity:0;animation:k9 2.4s steps(1,end) infinite}@keyframes k10{0%{opacity:0}66.667%{opacity:1}72.222%{opacity:0}100%{opacity:0}}.f10{opacity:0;animation:k10 2.4s steps(1,end) infinite}@keyframes k11{0%{opacity:0}72.222%{opacity:1}77.778%{opacity:0}100%{opacity:0}}.f11{opacity:0;animation:k11 2.4s steps(1,end) infinite}@keyframes k12{0%{opacity:0}77.778%{opacity:1}83.333%{opacity:0}100%{opacity:0}}.f12{opacity:0;animation:k12 2.4s steps(1,end) infinite}@keyframes k13{0%{opacity:0}83.333%{opacity:1}88.889%{opacity:0}100%{opacity:0}}.f13{opacity:0;animation:k13 2.4s steps(1,end) infinite}@keyframes k14{0%{opacity:0}88.889%{opacity:1}94.444%{opacity:0}100%{opacity:0}}.f14{opacity:0;animation:k14 2.4s steps(1,end) infinite}@keyframes k15{0%{opacity:0}94.444%{opacity:1}100%{opacity:1}}.f15{opacity:0;animation:k15 2.4s steps(1,end) infinite}</style><path d="M40.0,292.0 L440.0,292.0" fill="none" stroke="#1f3333" stroke-width="6" stroke-linecap="round" stroke-linejoin="round" opacity="1.0"/><path d="M304.0,232.0 L306.0,204.0 L280.0,196.0" fill="none" stroke="#2dd4bf" stroke-width="21" stroke-linecap="round" stroke-linejoin="round" opacity="0.95"/><path d="M304.0,232.0 L306.0,204.0 L280.0,196.0" fill="none" stroke="#0c2020" stroke-width="13" stroke-linecap="round" stroke-linejoin="round" opacity="1.0"/><path d="M304.0,232.0 L230.0,262.0" fill="none" stroke="#f43f5e" stroke-width="25" stroke-linecap="round" stroke-linejoin="round" opacity="0.95"/><path d="M304.0,232.0 L230.0,262.0" fill="none" stroke="#0c2020" stroke-width="17" stroke-linecap="round" stroke-linejoin="round" opacity="1.0"/><circle cx="324.0" cy="214.0" r="19.0" fill="#f43f5e" stroke="none" stroke-width="0" opacity="0.95"/><circle cx="324.0" cy="214.0" r="15.0" fill="#0c2020" stroke="none" stroke-width="6.3" opacity="1.0"/><path d="M314.7,211.0 L333.3,211.0" fill="none" stroke="#a7f3ee" stroke-width="5" stroke-linecap="round" stroke-linejoin="round" opacity="1.0"/><g class="f0"><path d="M230.0,262.0 L218.8,258.5 L207.7,255.0 L196.5,251.5 L185.4,248.0 L174.2,244.5 L163.0,241.0 L151.7,238.2 L140.3,235.6 L128.8,233.1 L117.4,230.5 L106.0,228.0" fill="none" stroke="#0d9488" stroke-width="21" stroke-linecap="round" stroke-linejoin="round" opacity="0.95"/><path d="M230.0,262.0 L218.8,258.5 L207.7,255.0 L196.5,251.5 L185.4,248.0 L174.2,244.5 L163.0,241.0 L151.7,238.2 L140.3,235.6 L128.8,233.1 L117.4,230.5 L106.0,228.0" fill="none" stroke="#0c2020" stroke-width="13" stroke-linecap="round" stroke-linejoin="round" opacity="1.0"/><path d="M230.0,262.0 L226.6,254.1 L223.1,246.2 L219.7,238.3 L216.2,230.4 L212.8,222.4 L211.6,216.3 L220.1,217.8 L228.5,219.4 L237.0,220.9 L245.5,222.5 L254.0,224.0" fill="none" stroke="#2dd4bf" stroke-width="21" stroke-linecap="round" stroke-linejoin="round" opacity="0.95"/><path d="M230.0,262.0 L226.6,254.1 L223.1,246.2 L219.7,238.3 L216.2,230.4 L212.8,222.4 L211.6,216.3 L220.1,217.8 L228.5,219.4 L237.0,220.9 L245.5,222.5 L254.0,224.0" fill="none" stroke="#0c2020" stroke-width="13" stroke-linecap="round" stroke-linejoin="round" opacity="1.0"/></g><g class="f1"><path d="M230.0,262.0 L219.2,258.3 L208.3,254.6 L197.5,250.9 L186.7,247.2 L175.9,243.5 L165.1,239.9 L154.6,237.3 L144.1,234.9 L133.5,232.6 L122.9,230.2 L112.4,227.8" fill="none" stroke="#0d9488" stroke-width="21" stroke-linecap="round" stroke-linejoin="round" opacity="0.95"/><path d="M230.0,262.0 L219.2,258.3 L208.3,254.6 L197.5,250.9 L186.7,247.2 L175.9,243.5 L165.1,239.9 L154.6,237.3 L144.1,234.9 L133.5,232.6 L122.9,230.2 L112.4,227.8" fill="none" stroke="#0c2020" stroke-width="13" stroke-linecap="round" stroke-linejoin="round" opacity="1.0"/><path d="M230.0,262.0 L226.2,254.3 L222.5,246.6 L218.7,238.8 L214.9,231.1 L211.1,223.4 L209.5,217.3 L217.1,218.7 L224.7,220.1 L232.4,221.4 L240.0,222.8 L247.6,224.2" fill="none" stroke="#2dd4bf" stroke-width="21" stroke-linecap="round" stroke-linejoin="round" opacity="0.95"/><path d="M230.0,262.0 L226.2,254.3 L222.5,246.6 L218.7,238.8 L214.9,231.1 L211.1,223.4 L209.5,217.3 L217.1,218.7 L224.7,220.1 L232.4,221.4 L240.0,222.8 L247.6,224.2" fill="none" stroke="#0c2020" stroke-width="13" stroke-linecap="round" stroke-linejoin="round" opacity="1.0"/></g><g class="f2"><path d="M230.0,262.0 L220.0,257.8 L210.1,253.6 L200.1,249.4 L190.2,245.2 L180.2,241.0 L170.6,237.1 L162.4,235.0 L154.1,233.1 L145.7,231.2 L137.4,229.3 L129.1,227.4" fill="none" stroke="#0d9488" stroke-width="21" stroke-linecap="round" stroke-linejoin="round" opacity="0.95"/><path d="M230.0,262.0 L220.0,257.8 L210.1,253.6 L200.1,249.4 L190.2,245.2 L180.2,241.0 L170.6,237.1 L162.4,235.0 L154.1,233.1 L145.7,231.2 L137.4,229.3 L129.1,227.4" fill="none" stroke="#0c2020" stroke-width="13" stroke-linecap="round" stroke-linejoin="round" opacity="1.0"/><path d="M230.0,262.0 L225.4,254.8 L220.7,247.6 L216.1,240.3 L211.4,233.1 L206.8,225.9 L204.0,220.1 L209.4,221.0 L214.7,221.9 L220.1,222.8 L225.5,223.7 L230.9,224.6" fill="none" stroke="#2dd4bf" stroke-width="21" stroke-linecap="round" stroke-linejoin="round" opacity="0.95"/><path d="M230.0,262.0 L225.4,254.8 L220.7,247.6 L216.1,240.3 L211.4,233.1 L206.8,225.9 L204.0,220.1 L209.4,221.0 L214.7,221.9 L220.1,222.8 L225.5,223.7 L230.9,224.6" fill="none" stroke="#0c2020" stroke-width="13" stroke-linecap="round" stroke-linejoin="round" opacity="1.0"/></g><g class="f3"><path d="M230.0,262.0 L221.3,257.1 L212.6,252.2 L203.8,247.3 L195.1,242.4 L186.4,237.5 L178.4,233.1 L173.3,231.7 L168.2,230.5 L163.1,229.2 L158.0,228.0 L152.8,226.7" fill="none" stroke="#0d9488" stroke-width="21" stroke-linecap="round" stroke-linejoin="round" opacity="0.95"/><path d="M230.0,262.0 L221.3,257.1 L212.6,252.2 L203.8,247.3 L195.1,242.4 L186.4,237.5 L178.4,233.1 L173.3,231.7 L168.2,230.5 L163.1,229.2 L158.0,228.0 L152.8,226.7" fill="none" stroke="#0c2020" stroke-width="13" stroke-linecap="round" stroke-linejoin="round" opacity="1.0"/><path d="M230.0,262.0 L224.1,255.5 L218.2,249.0 L212.4,242.4 L206.5,235.9 L200.6,229.4 L196.2,224.1 L198.4,224.3 L200.6,224.5 L202.8,224.8 L205.0,225.0 L207.2,225.3" fill="none" stroke="#2dd4bf" stroke-width="21" stroke-linecap="round" stroke-linejoin="round" opacity="0.95"/><path d="M230.0,262.0 L224.1,255.5 L218.2,249.0 L212.4,242.4 L206.5,235.9 L200.6,229.4 L196.2,224.1 L198.4,224.3 L200.6,224.5 L202.8,224.8 L205.0,225.0 L207.2,225.3" fill="none" stroke="#0c2020" stroke-width="13" stroke-linecap="round" stroke-linejoin="round" opacity="1.0"/></g><g class="f4"><path d="M230.0,262.0 L222.7,256.3 L215.4,250.6 L208.1,244.9 L200.8,239.2 L193.5,233.5 L187.3,228.6 L185.9,228.0 L184.4,227.5 L182.9,227.0 L181.5,226.5 L180.0,226.0" fill="none" stroke="#0d9488" stroke-width="21" stroke-linecap="round" stroke-linejoin="round" opacity="0.95"/><path d="M230.0,262.0 L222.7,256.3 L215.4,250.6 L208.1,244.9 L200.8,239.2 L193.5,233.5 L187.3,228.6 L185.9,228.0 L184.4,227.5 L182.9,227.0 L181.5,226.5 L180.0,226.0" fill="none" stroke="#0c2020" stroke-width="13" stroke-linecap="round" stroke-linejoin="round" opacity="1.0"/><path d="M230.0,262.0 L222.7,256.3 L215.4,250.6 L208.1,244.9 L200.8,239.2 L193.5,233.5 L187.3,228.6 L185.9,228.0 L184.4,227.5 L182.9,227.0 L181.5,226.5 L180.0,226.0" fill="none" stroke="#2dd4bf" stroke-width="21" stroke-linecap="round" stroke-linejoin="round" opacity="0.95"/><path d="M230.0,262.0 L222.7,256.3 L215.4,250.6 L208.1,244.9 L200.8,239.2 L193.5,233.5 L187.3,228.6 L185.9,228.0 L184.4,227.5 L182.9,227.0 L181.5,226.5 L180.0,226.0" fill="none" stroke="#0c2020" stroke-width="13" stroke-linecap="round" stroke-linejoin="round" opacity="1.0"/></g><g class="f5"><path d="M230.0,262.0 L224.1,255.5 L218.2,249.0 L212.4,242.4 L206.5,235.9 L200.6,229.4 L196.2,224.1 L198.4,224.3 L200.6,224.5 L202.8,224.8 L205.0,225.0 L207.2,225.3" fill="none" stroke="#0d9488" stroke-width="21" stroke-linecap="round" stroke-linejoin="round" opacity="0.95"/><path d="M230.0,262.0 L224.1,255.5 L218.2,249.0 L212.4,242.4 L206.5,235.9 L200.6,229.4 L196.2,224.1 L198.4,224.3 L200.6,224.5 L202.8,224.8 L205.0,225.0 L207.2,225.3" fill="none" stroke="#0c2020" stroke-width="13" stroke-linecap="round" stroke-linejoin="round" opacity="1.0"/><path d="M230.0,262.0 L221.3,257.1 L212.6,252.2 L203.8,247.3 L195.1,242.4 L186.4,237.5 L178.4,233.1 L173.3,231.7 L168.2,230.5 L163.1,229.2 L158.0,228.0 L152.8,226.7" fill="none" stroke="#2dd4bf" stroke-width="21" stroke-linecap="round" stroke-linejoin="round" opacity="0.95"/><path d="M230.0,262.0 L221.3,257.1 L212.6,252.2 L203.8,247.3 L195.1,242.4 L186.4,237.5 L178.4,233.1 L173.3,231.7 L168.2,230.5 L163.1,229.2 L158.0,228.0 L152.8,226.7" fill="none" stroke="#0c2020" stroke-width="13" stroke-linecap="round" stroke-linejoin="round" opacity="1.0"/></g><g class="f6"><path d="M230.0,262.0 L225.4,254.8 L220.7,247.6 L216.1,240.3 L211.4,233.1 L206.8,225.9 L204.0,220.1 L209.4,221.0 L214.7,221.9 L220.1,222.8 L225.5,223.7 L230.9,224.6" fill="none" stroke="#0d9488" stroke-width="21" stroke-linecap="round" stroke-linejoin="round" opacity="0.95"/><path d="M230.0,262.0 L225.4,254.8 L220.7,247.6 L216.1,240.3 L211.4,233.1 L206.8,225.9 L204.0,220.1 L209.4,221.0 L214.7,221.9 L220.1,222.8 L225.5,223.7 L230.9,224.6" fill="none" stroke="#0c2020" stroke-width="13" stroke-linecap="round" stroke-linejoin="round" opacity="1.0"/><path d="M230.0,262.0 L220.0,257.8 L210.1,253.6 L200.1,249.4 L190.2,245.2 L180.2,241.0 L170.6,237.1 L162.4,235.0 L154.1,233.1 L145.7,231.2 L137.4,229.3 L129.1,227.4" fill="none" stroke="#2dd4bf" stroke-width="21" stroke-linecap="round" stroke-linejoin="round" opacity="0.95"/><path d="M230.0,262.0 L220.0,257.8 L210.1,253.6 L200.1,249.4 L190.2,245.2 L180.2,241.0 L170.6,237.1 L162.4,235.0 L154.1,233.1 L145.7,231.2 L137.4,229.3 L129.1,227.4" fill="none" stroke="#0c2020" stroke-width="13" stroke-linecap="round" stroke-linejoin="round" opacity="1.0"/></g><g class="f7"><path d="M230.0,262.0 L226.2,254.3 L222.5,246.6 L218.7,238.8 L214.9,231.1 L211.1,223.4 L209.5,217.3 L217.1,218.7 L224.7,220.1 L232.4,221.4 L240.0,222.8 L247.6,224.2" fill="none" stroke="#0d9488" stroke-width="21" stroke-linecap="round" stroke-linejoin="round" opacity="0.95"/><path d="M230.0,262.0 L226.2,254.3 L222.5,246.6 L218.7,238.8 L214.9,231.1 L211.1,223.4 L209.5,217.3 L217.1,218.7 L224.7,220.1 L232.4,221.4 L240.0,222.8 L247.6,224.2" fill="none" stroke="#0c2020" stroke-width="13" stroke-linecap="round" stroke-linejoin="round" opacity="1.0"/><path d="M230.0,262.0 L219.2,258.3 L208.3,254.6 L197.5,250.9 L186.7,247.2 L175.9,243.5 L165.1,239.9 L154.6,237.3 L144.1,234.9 L133.5,232.6 L122.9,230.2 L112.4,227.8" fill="none" stroke="#2dd4bf" stroke-width="21" stroke-linecap="round" stroke-linejoin="round" opacity="0.95"/><path d="M230.0,262.0 L219.2,258.3 L208.3,254.6 L197.5,250.9 L186.7,247.2 L175.9,243.5 L165.1,239.9 L154.6,237.3 L144.1,234.9 L133.5,232.6 L122.9,230.2 L112.4,227.8" fill="none" stroke="#0c2020" stroke-width="13" stroke-linecap="round" stroke-linejoin="round" opacity="1.0"/></g><g class="f8"><path d="M230.0,262.0 L226.6,254.1 L223.1,246.2 L219.7,238.3 L216.2,230.4 L212.8,222.4 L211.6,216.3 L220.1,217.8 L228.5,219.4 L237.0,220.9 L245.5,222.5 L254.0,224.0" fill="none" stroke="#0d9488" stroke-width="21" stroke-linecap="round" stroke-linejoin="round" opacity="0.95"/><path d="M230.0,262.0 L226.6,254.1 L223.1,246.2 L219.7,238.3 L216.2,230.4 L212.8,222.4 L211.6,216.3 L220.1,217.8 L228.5,219.4 L237.0,220.9 L245.5,222.5 L254.0,224.0" fill="none" stroke="#0c2020" stroke-width="13" stroke-linecap="round" stroke-linejoin="round" opacity="1.0"/><path d="M230.0,262.0 L218.8,258.5 L207.7,255.0 L196.5,251.5 L185.4,248.0 L174.2,244.5 L163.0,241.0 L151.7,238.2 L140.3,235.6 L128.8,233.1 L117.4,230.5 L106.0,228.0" fill="none" stroke="#2dd4bf" stroke-width="21" stroke-linecap="round" stroke-linejoin="round" opacity="0.95"/><path d="M230.0,262.0 L218.8,258.5 L207.7,255.0 L196.5,251.5 L185.4,248.0 L174.2,244.5 L163.0,241.0 L151.7,238.2 L140.3,235.6 L128.8,233.1 L117.4,230.5 L106.0,228.0" fill="none" stroke="#0c2020" stroke-width="13" stroke-linecap="round" stroke-linejoin="round" opacity="1.0"/></g><g class="f9"><path d="M230.0,262.0 L226.2,254.3 L222.5,246.6 L218.7,238.8 L214.9,231.1 L211.1,223.4 L209.5,217.3 L217.1,218.7 L224.7,220.1 L232.4,221.4 L240.0,222.8 L247.6,224.2" fill="none" stroke="#0d9488" stroke-width="21" stroke-linecap="round" stroke-linejoin="round" opacity="0.95"/><path d="M230.0,262.0 L226.2,254.3 L222.5,246.6 L218.7,238.8 L214.9,231.1 L211.1,223.4 L209.5,217.3 L217.1,218.7 L224.7,220.1 L232.4,221.4 L240.0,222.8 L247.6,224.2" fill="none" stroke="#0c2020" stroke-width="13" stroke-linecap="round" stroke-linejoin="round" opacity="1.0"/><path d="M230.0,262.0 L219.2,258.3 L208.3,254.6 L197.5,250.9 L186.7,247.2 L175.9,243.5 L165.1,239.9 L154.6,237.3 L144.1,234.9 L133.5,232.6 L122.9,230.2 L112.4,227.8" fill="none" stroke="#2dd4bf" stroke-width="21" stroke-linecap="round" stroke-linejoin="round" opacity="0.95"/><path d="M230.0,262.0 L219.2,258.3 L208.3,254.6 L197.5,250.9 L186.7,247.2 L175.9,243.5 L165.1,239.9 L154.6,237.3 L144.1,234.9 L133.5,232.6 L122.9,230.2 L112.4,227.8" fill="none" stroke="#0c2020" stroke-width="13" stroke-linecap="round" stroke-linejoin="round" opacity="1.0"/></g><g class="f10"><path d="M230.0,262.0 L225.4,254.8 L220.7,247.6 L216.1,240.3 L211.4,233.1 L206.8,225.9 L204.0,220.1 L209.4,221.0 L214.7,221.9 L220.1,222.8 L225.5,223.7 L230.9,224.6" fill="none" stroke="#0d9488" stroke-width="21" stroke-linecap="round" stroke-linejoin="round" opacity="0.95"/><path d="M230.0,262.0 L225.4,254.8 L220.7,247.6 L216.1,240.3 L211.4,233.1 L206.8,225.9 L204.0,220.1 L209.4,221.0 L214.7,221.9 L220.1,222.8 L225.5,223.7 L230.9,224.6" fill="none" stroke="#0c2020" stroke-width="13" stroke-linecap="round" stroke-linejoin="round" opacity="1.0"/><path d="M230.0,262.0 L220.0,257.8 L210.1,253.6 L200.1,249.4 L190.2,245.2 L180.2,241.0 L170.6,237.1 L162.4,235.0 L154.1,233.1 L145.7,231.2 L137.4,229.3 L129.1,227.4" fill="none" stroke="#2dd4bf" stroke-width="21" stroke-linecap="round" stroke-linejoin="round" opacity="0.95"/><path d="M230.0,262.0 L220.0,257.8 L210.1,253.6 L200.1,249.4 L190.2,245.2 L180.2,241.0 L170.6,237.1 L162.4,235.0 L154.1,233.1 L145.7,231.2 L137.4,229.3 L129.1,227.4" fill="none" stroke="#0c2020" stroke-width="13" stroke-linecap="round" stroke-linejoin="round" opacity="1.0"/></g><g class="f11"><path d="M230.0,262.0 L224.1,255.5 L218.2,249.0 L212.4,242.4 L206.5,235.9 L200.6,229.4 L196.2,224.1 L198.4,224.3 L200.6,224.5 L202.8,224.8 L205.0,225.0 L207.2,225.3" fill="none" stroke="#0d9488" stroke-width="21" stroke-linecap="round" stroke-linejoin="round" opacity="0.95"/><path d="M230.0,262.0 L224.1,255.5 L218.2,249.0 L212.4,242.4 L206.5,235.9 L200.6,229.4 L196.2,224.1 L198.4,224.3 L200.6,224.5 L202.8,224.8 L205.0,225.0 L207.2,225.3" fill="none" stroke="#0c2020" stroke-width="13" stroke-linecap="round" stroke-linejoin="round" opacity="1.0"/><path d="M230.0,262.0 L221.3,257.1 L212.6,252.2 L203.8,247.3 L195.1,242.4 L186.4,237.5 L178.4,233.1 L173.3,231.7 L168.2,230.5 L163.1,229.2 L158.0,228.0 L152.8,226.7" fill="none" stroke="#2dd4bf" stroke-width="21" stroke-linecap="round" stroke-linejoin="round" opacity="0.95"/><path d="M230.0,262.0 L221.3,257.1 L212.6,252.2 L203.8,247.3 L195.1,242.4 L186.4,237.5 L178.4,233.1 L173.3,231.7 L168.2,230.5 L163.1,229.2 L158.0,228.0 L152.8,226.7" fill="none" stroke="#0c2020" stroke-width="13" stroke-linecap="round" stroke-linejoin="round" opacity="1.0"/></g><g class="f12"><path d="M230.0,262.0 L222.7,256.3 L215.4,250.6 L208.1,244.9 L200.8,239.2 L193.5,233.5 L187.3,228.6 L185.9,228.0 L184.4,227.5 L182.9,227.0 L181.5,226.5 L180.0,226.0" fill="none" stroke="#0d9488" stroke-width="21" stroke-linecap="round" stroke-linejoin="round" opacity="0.95"/><path d="M230.0,262.0 L222.7,256.3 L215.4,250.6 L208.1,244.9 L200.8,239.2 L193.5,233.5 L187.3,228.6 L185.9,228.0 L184.4,227.5 L182.9,227.0 L181.5,226.5 L180.0,226.0" fill="none" stroke="#0c2020" stroke-width="13" stroke-linecap="round" stroke-linejoin="round" opacity="1.0"/><path d="M230.0,262.0 L222.7,256.3 L215.4,250.6 L208.1,244.9 L200.8,239.2 L193.5,233.5 L187.3,228.6 L185.9,228.0 L184.4,227.5 L182.9,227.0 L181.5,226.5 L180.0,226.0" fill="none" stroke="#2dd4bf" stroke-width="21" stroke-linecap="round" stroke-linejoin="round" opacity="0.95"/><path d="M230.0,262.0 L222.7,256.3 L215.4,250.6 L208.1,244.9 L200.8,239.2 L193.5,233.5 L187.3,228.6 L185.9,228.0 L184.4,227.5 L182.9,227.0 L181.5,226.5 L180.0,226.0" fill="none" stroke="#0c2020" stroke-width="13" stroke-linecap="round" stroke-linejoin="round" opacity="1.0"/></g><g class="f13"><path d="M230.0,262.0 L221.3,257.1 L212.6,252.2 L203.8,247.3 L195.1,242.4 L186.4,237.5 L178.4,233.1 L173.3,231.7 L168.2,230.5 L163.1,229.2 L158.0,228.0 L152.8,226.7" fill="none" stroke="#0d9488" stroke-width="21" stroke-linecap="round" stroke-linejoin="round" opacity="0.95"/><path d="M230.0,262.0 L221.3,257.1 L212.6,252.2 L203.8,247.3 L195.1,242.4 L186.4,237.5 L178.4,233.1 L173.3,231.7 L168.2,230.5 L163.1,229.2 L158.0,228.0 L152.8,226.7" fill="none" stroke="#0c2020" stroke-width="13" stroke-linecap="round" stroke-linejoin="round" opacity="1.0"/><path d="M230.0,262.0 L224.1,255.5 L218.2,249.0 L212.4,242.4 L206.5,235.9 L200.6,229.4 L196.2,224.1 L198.4,224.3 L200.6,224.5 L202.8,224.8 L205.0,225.0 L207.2,225.3" fill="none" stroke="#2dd4bf" stroke-width="21" stroke-linecap="round" stroke-linejoin="round" opacity="0.95"/><path d="M230.0,262.0 L224.1,255.5 L218.2,249.0 L212.4,242.4 L206.5,235.9 L200.6,229.4 L196.2,224.1 L198.4,224.3 L200.6,224.5 L202.8,224.8 L205.0,225.0 L207.2,225.3" fill="none" stroke="#0c2020" stroke-width="13" stroke-linecap="round" stroke-linejoin="round" opacity="1.0"/></g><g class="f14"><path d="M230.0,262.0 L220.0,257.8 L210.1,253.6 L200.1,249.4 L190.2,245.2 L180.2,241.0 L170.6,237.1 L162.4,235.0 L154.1,233.1 L145.7,231.2 L137.4,229.3 L129.1,227.4" fill="none" stroke="#0d9488" stroke-width="21" stroke-linecap="round" stroke-linejoin="round" opacity="0.95"/><path d="M230.0,262.0 L220.0,257.8 L210.1,253.6 L200.1,249.4 L190.2,245.2 L180.2,241.0 L170.6,237.1 L162.4,235.0 L154.1,233.1 L145.7,231.2 L137.4,229.3 L129.1,227.4" fill="none" stroke="#0c2020" stroke-width="13" stroke-linecap="round" stroke-linejoin="round" opacity="1.0"/><path d="M230.0,262.0 L225.4,254.8 L220.7,247.6 L216.1,240.3 L211.4,233.1 L206.8,225.9 L204.0,220.1 L209.4,221.0 L214.7,221.9 L220.1,222.8 L225.5,223.7 L230.9,224.6" fill="none" stroke="#2dd4bf" stroke-width="21" stroke-linecap="round" stroke-linejoin="round" opacity="0.95"/><path d="M230.0,262.0 L225.4,254.8 L220.7,247.6 L216.1,240.3 L211.4,233.1 L206.8,225.9 L204.0,220.1 L209.4,221.0 L214.7,221.9 L220.1,222.8 L225.5,223.7 L230.9,224.6" fill="none" stroke="#0c2020" stroke-width="13" stroke-linecap="round" stroke-linejoin="round" opacity="1.0"/></g><g class="f15"><path d="M230.0,262.0 L219.2,258.3 L208.3,254.6 L197.5,250.9 L186.7,247.2 L175.9,243.5 L165.1,239.9 L154.6,237.3 L144.1,234.9 L133.5,232.6 L122.9,230.2 L112.4,227.8" fill="none" stroke="#0d9488" stroke-width="21" stroke-linecap="round" stroke-linejoin="round" opacity="0.95"/><path d="M230.0,262.0 L219.2,258.3 L208.3,254.6 L197.5,250.9 L186.7,247.2 L175.9,243.5 L165.1,239.9 L154.6,237.3 L144.1,234.9 L133.5,232.6 L122.9,230.2 L112.4,227.8" fill="none" stroke="#0c2020" stroke-width="13" stroke-linecap="round" stroke-linejoin="round" opacity="1.0"/><path d="M230.0,262.0 L226.2,254.3 L222.5,246.6 L218.7,238.8 L214.9,231.1 L211.1,223.4 L209.5,217.3 L217.1,218.7 L224.7,220.1 L232.4,221.4 L240.0,222.8 L247.6,224.2" fill="none" stroke="#2dd4bf" stroke-width="21" stroke-linecap="round" stroke-linejoin="round" opacity="0.95"/><path d="M230.0,262.0 L226.2,254.3 L222.5,246.6 L218.7,238.8 L214.9,231.1 L211.1,223.4 L209.5,217.3 L217.1,218.7 L224.7,220.1 L232.4,221.4 L240.0,222.8 L247.6,224.2" fill="none" stroke="#0c2020" stroke-width="13" stroke-linecap="round" stroke-linejoin="round" opacity="1.0"/></g></svg>
