<svg xmlns="http://www.w3.org/2000/svg" viewBox="0 0 361.43 240.95"><style>g{transform-box:view-box;transform-origin:0 0}@keyframes m0{0%,90%,100%{transform:translate(190px,292px) scale(1,1);opacity:0.9}40%,50%{transform:translate(190px,292px) scale(1.96,1);opacity:0.9}}.m0{animation:m0 2.4s cubic-bezier(.45,0,.55,1) infinite}@keyframes m1{0%,90%,100%{transform:rotate(90deg)}40%,50%{transform:rotate(192.99deg)}}.m1{animation:m1 2.4s cubic-bezier(.45,0,.55,1) infinite}@keyframes m2{0%,90%,100%{transform:scale(0.86,1)}40%{transform:scale(1,1);animation-timing-function:linear}50%{transform:scale(1,1)}}.m2{animation:m2 2.4s cubic-bezier(.45,0,.55,1) infinite}@keyframes m3{0%,90%,100%{transform:translate(46px,0px) rotate(4.76deg)}40%{transform:translate(53.37px,0px) rotate(-2.87deg);animation-timing-function:linear}50%{transform:translate(53.37px,0px) rotate(-2.87deg)}}.m3{animation:m3 2.4s cubic-bezier(.45,0,.55,1) infinite}@keyframes m4{0%,90%,100%{transform:scale(0.85,1)}40%{transform:scale(1,1);animation-timing-function:linear}50%{transform:scale(1,1)}}.m4{animation:m4 2.4s cubic-bezier(.45,0,.55,1) infinite}@keyframes m5{0%,90%,100%{transform:translate(48.17px,0px) rotate(-94.76deg)}40%{transform:translate(56.89px,0px) rotate(-190.12deg);animation-timing-function:linear}50%{transform:translate(56.89px,0px) rotate(-190.12deg)}}.m5{animation:m5 2.4s cubic-bezier(.45,0,.55,1) infinite}@keyframes m6{0%,90%,100%{transform:rotate(79.38deg)}40%,50%{transform:rotate(-28.44deg)}}.m6{animation:m6 2.4s cubic-bezier(.45,0,.55,1) infinite}@keyframes m7{0%,90%,100%{transform:scale(0.89,1)}40%,50%{transform:scale(1,1)}}.m7{animation:m7 2.4s cubic-bezier(.45,0,.55,1) infinite}@keyframes m8{0%,90%,100%{transform:translate(48.84px,0px) rotate(0deg)}40%,50%{transform:translate(54.59px,0px) rotate(17.66deg)}}.m8{animation:m8 2.4s cubic-bezier(.45,0,.55,1) infinite}@keyframes m9{0%,90%,100%{transform:scale(1,1)}40%,50%{transform:scale(0.88,1)}}.m9{animation:m9 2.4s cubic-bezier(.45,0,.55,1) infinite}@keyframes m10{0%,90%,100%{transform:translate(48.84px,0px) rotate(-79.38deg)}40%,50%{transform:translate(42.76px,0px) rotate(10.78deg)}}.m10{animation:m10 2.4s cubic-bezier(.45,0,.55,1) infinite}@media (prefers-reduced-motion:reduce){*{animation-play-state:paused!important}}</style><defs><linearGradient id="tn" x1="0" y1="0" x2="0" y2="1"><stop offset="0" stop-color="#061414"/><stop offset=".45" stop-color="#1f4a47"/><stop offset="1" stop-color="#061414"/></linearGradient><linearGradient id="tf" x1="0" y1="0" x2="0" y2="1"><stop offset="0" stop-color="#040c0c"/><stop offset=".45" stop-color="#102828"/><stop offset="1" stop-color="#040c0c"/></linearGradient><radialGradient id="hd" cx=".35" cy=".3" r=".75"><stop offset="0" stop-color="#2a5a57"/><stop offset=".55" stop-color="#0c2020"/><stop offset="1" stop-color="#050e0e"/></radialGradient><radialGradient id="sh"><stop offset="0" stop-color="#000" stop-opacity=".9"/><stop offset="1" stop-color="#000" stop-opacity="0"/></radialGradient><linearGradient id="fl" x1="0" y1="0" x2="0" y2="1"><stop offset="0" stop-color="#16302f"/><stop offset="1" stop-color="#16302f" stop-opacity="0"/></linearGradient></defs><g transform="translate(-53,-79.05)"><rect x="53" y="292" width="361.43" height="28" fill="url(#fl)"/><path d="M53,292 H414.43" fill="none" stroke="#26403f" stroke-width="3" stroke-linecap="round" stroke-linejoin="round"/><g class="m0"><ellipse rx="85" ry="8" fill="url(#sh)"/></g><g transform="translate(190,198)"><g transform="rotate(104.62)"><circle r="9.5" fill="#0b6f66"/><g transform="scale(1,1)"><path d="M0,0 H47.54" fill="none" stroke="#0b6f66" stroke-width="19" stroke-linecap="butt" stroke-linejoin="round"/></g><g transform="translate(47.54,0) rotate(-9.86)"><circle r="9.5" fill="#0b6f66"/><g transform="scale(1,1)"><path d="M0,0 H48.17" fill="none" stroke="#0b6f66" stroke-width="19" stroke-linecap="butt" stroke-linejoin="round"/></g><g transform="translate(48.17,0) rotate(-94.76)"><circle r="9.5" fill="#0b6f66"/></g></g></g></g><g transform="translate(190,198)"><g transform="rotate(104.62)"><circle r="5.5" fill="#071313"/><g transform="scale(1,1)"><rect y="-5.5" width="47.54" height="11" fill="url(#tf)"/></g><g transform="translate(47.54,0) rotate(-9.86)"><circle r="5.5" fill="#071313"/><g transform="scale(1,1)"><rect y="-5.5" width="48.17" height="11" fill="url(#tf)"/></g><g transform="translate(48.17,0) rotate(-94.76)"><circle r="5.5" fill="#071313"/></g></g></g></g><g transform="translate(190,198) rotate(-1.15)"><g transform="translate(100.02,0) rotate(1.15)"><g transform="rotate(86.42)"><circle r="9.5" fill="#0b6f66"/><g transform="scale(1,1)"><path d="M0,0 H48.09" fill="none" stroke="#0b6f66" stroke-width="19" stroke-linecap="butt" stroke-linejoin="round"/></g><g transform="translate(48.09,0) rotate(0)"><circle r="9.5" fill="#0b6f66"/><g transform="scale(1,1)"><path d="M0,0 H48.09" fill="none" stroke="#0b6f66" stroke-width="19" stroke-linecap="butt" stroke-linejoin="round"/></g><g transform="translate(48.09,0) rotate(-86.42)"><circle r="11.5" fill="#0b6f66"/></g></g></g></g></g><g transform="translate(190,198) rotate(-1.15)"><g transform="translate(100.02,0) rotate(1.15)"><g transform="rotate(86.42)"><circle r="5.5" fill="#071313"/><g transform="scale(1,1)"><rect y="-5.5" width="48.09" height="11" fill="url(#tf)"/></g><g transform="translate(48.09,0) rotate(0)"><circle r="5.5" fill="#071313"/><g transform="scale(1,1)"><rect y="-5.5" width="48.09" height="11" fill="url(#tf)"/></g><g transform="translate(48.09,0) rotate(-86.42)"><circle r="7.5" fill="#173a38"/></g></g></g></g></g><g transform="translate(190,198) rotate(-1.15)"><circle r="12.5" fill="#f43f5e"/><g transform="scale(1,1)"><path d="M0,0 H100.02" fill="none" stroke="#f43f5e" stroke-width="25" stroke-linecap="butt" stroke-linejoin="round"/></g><g transform="translate(100.02,0) rotate(1.15)"><circle r="12.5" fill="#f43f5e"/></g></g><g transform="translate(190,198) rotate(-1.15)"><circle r="8.5" fill="#0b1f1f"/><g transform="scale(1,1)"><rect y="-8.5" width="100.02" height="17" fill="url(#tn)"/></g><g transform="translate(100.02,0) rotate(1.15)"><circle r="8.5" fill="#0b1f1f"/></g></g><g transform="translate(190,198) rotate(-1.15)"><g transform="translate(100.02,0) rotate(1.15)"><g transform="rotate(-15.95)"><g transform="translate(29.12,0) rotate(15.95)"><circle r="19" fill="#f43f5e" opacity="0.95"/><circle r="15" fill="url(#hd)"/><path d="M-9.3,-3 H9.3" fill="none" stroke="#a7f3ee" stroke-width="5" stroke-linecap="round" stroke-linejoin="round"/></g></g></g></g><g transform="translate(190,198)"><g class="m1"><circle r="10.5" fill="#2dd4bf"/><g class="m2"><path d="M0,0 H53.37" fill="none" stroke="#2dd4bf" stroke-width="21" stroke-linecap="butt" stroke-linejoin="round"/></g><g class="m3"><circle r="10.5" fill="#2dd4bf"/><g class="m4"><path d="M0,0 H56.89" fill="none" stroke="#2dd4bf" stroke-width="21" stroke-linecap="butt" stroke-linejoin="round"/></g><g class="m5"><circle r="10.5" fill="#2dd4bf"/></g></g></g></g><g transform="translate(190,198)"><g class="m1"><circle r="6.5" fill="#0b1f1f"/><g class="m2"><rect y="-6.5" width="53.37" height="13" fill="url(#tn)"/></g><g class="m3"><circle r="6.5" fill="#0b1f1f"/><g class="m4"><rect y="-6.5" width="56.89" height="13" fill="url(#tn)"/></g><g class="m5"><circle r="6.5" fill="#0b1f1f"/></g></g></g></g><g transform="translate(190,198) rotate(-1.15)"><g transform="translate(100.02,0) rotate(1.15)"><g class="m6"><circle r="10.5" fill="#2dd4bf"/><g class="m7"><path d="M0,0 H54.59" fill="none" stroke="#2dd4bf" stroke-width="21" stroke-linecap="butt" stroke-linejoin="round"/></g><g class="m8"><circle r="10.5" fill="#2dd4bf"/><g class="m9"><path d="M0,0 H48.84" fill="none" stroke="#2dd4bf" stroke-width="21" stroke-linecap="butt" stroke-linejoin="round"/></g><g class="m10"><circle r="12.5" fill="#2dd4bf"/></g></g></g></g></g><g transform="translate(190,198) rotate(-1.15)"><g transform="translate(100.02,0) rotate(1.15)"><g class="m6"><circle r="6.5" fill="#0b1f1f"/><g class="m7"><rect y="-6.5" width="54.59" height="13" fill="url(#tn)"/></g><g class="m8"><circle r="6.5" fill="#0b1f1f"/><g class="m9"><rect y="-6.5" width="48.84" height="13" fill="url(#tn)"/></g><g class="m10"><circle r="8.5" fill="#2f6e6a"/></g></g></g></g></g></g></svg>
