<svg xmlns="http://www.w3.org/2000/svg" viewBox="0 0 480 320"><style>@keyframes k0{0%{opacity:1}11.111%{opacity:0}100%{opacity:0}}.f0{opacity:0;animation:k0 2.4s steps(1,end) infinite}@keyframes k1{0%{opacity:0}11.111%{opacity:1}16.667%{opacity:0}100%{opacity:0}}.f1{opacity:0;animation:k1 2.4s steps(1,end) infinite}@keyframes k2{0%{opacity:0}16.667%{opacity:1}22.222%{opacity:0}100%{opacity:0}}.f2{opacity:0;animation:k2 2.4s steps(1,end) infinite}@keyframes k3{0%{opacity:0}22.222%{opacity:1}27.778%{opacity:0}100%{opacity:0}}.f3{opacity:0;animation:k3 2.4s steps(1,end) infinite}@keyframes k4{0%{opacity:0}27.778%{opacity:1}33.333%{opacity:0}100%{opacity:0}}.f4{opacity:0;animation:k4 2.4s steps(1,end) infinite}@keyframes k5{0%{opacity:0}33.333%{opacity:1}38.889%{opacity:0}100%{opacity:0}}.f5{opacity:0;animation:k5 2.4s steps(1,end) infinite}@keyframes k6{0%{opacity:0}38.889%{opacity:1}44.444%{opacity:0}100%{opacity:0}}.f6{opacity:0;animation:k6 2.4s steps(1,end) infinite}@keyframes k7{0%{opacity:0}44.444%{opacity:1}50.000%{opacity:0}100%{opacity:0}}.f7{opacity:0;animation:k7 2.4s steps(1,end) infinite}@keyframes k8{0%{opacity:0}50.000%{opacity:1}61.111%{opacity:0}100%{opacity:0}}.f8{opacity:0;animation:k8 2.4s steps(1,end) infinite}@keyframes k9{0%{opacity:0}61.111%{opacity:1}66.667%{opacity:0}100%{opacity:0}}.f9{opacity:0;animation:k9 2.4s steps(1,end) infinite}@keyframes k10{0%{opacity:0}66.667%{opacity:1}72.222%{opacity:0}100%{opacity:0}}.f10{opacity:0;animation:k10 2.4s steps(1,end) infinite}@keyframes k11{0%{opacity:0}72.222%{opacity:1}77.778%{opacity:0}100%{opacity:0}}.f11{opacity:0;animation:k11 2.4s steps(1,end) infinite}@keyframes k12{0%{opacity:0}77.778%{opacity:1}83.333%{opacity:0}100%{opacity:0}}.f12{opacity:0;animation:k12 2.4s steps(1,end) infinite}@keyframes k13{0%{opacity:0}83.333%{opacity:1}88.889%{opacity:0}100%{opacity:0}}.f13{opacity:0;animation:k13 2.4s steps(1,end) infinite}@keyframes k14{0%{opacity:0}88.889%{opacity:1}94.444%{opacity:0}100%{opacity:0}}.f14{opacity:0;animation:k14 2.4s steps(1,end) infinite}@keyframes k15{0%{opacity:0}94.444%{opacity:1}100%{opacity:1}}.f15{opacity:0;animation:k15 2.4s steps(1,end) infinite}</style><path d="M40.0,292.0 L440.0,292.0" fill="none" stroke="#1f3333" stroke-width="6" stroke-linecap="round" stroke-linejoin="round" opacity="1.0"/><path d="M290.0,196.0 L296.0,292.0" fill="none" stroke="#0d9488" stroke-width="19" stroke-linecap="round" stroke-linejoin="round" opacity="0.95"/><path d="M290.0,196.0 L296.0,292.0" fill="none" stroke="#0c2020" stroke-width="11" stroke-linecap="round" stroke-linejoin="round" opacity="1.0"/><path d="M190.0,198.0 L178.0,244.0 L174.0,292.0" fill="none" stroke="#0d9488" stroke-width="19" stroke-linecap="round" stroke-linejoin="round" opacity="0.95"/><path d="M190.0,198.0 L178.0,244.0 L174.0,292.0" fill="none" stroke="#0c2020" stroke-width="11" stroke-linecap="round" stroke-linejoin="round" opacity="1.0"/><path d="M290.0,196.0 L190.0,198.0" fill="none" stroke="#f43f5e" stroke-width="23" stroke-linecap="round" stroke-linejoin="round" opacity="0.95"/><path d="M290.0,196.0 L190.0,198.0" fill="none" stroke="#0c2020" stroke-width="15" stroke-linecap="round" stroke-linejoin="round" opacity="1.0"/><circle cx="318.0" cy="188.0" r="19.0" fill="#f43f5e" stroke="none" stroke-width="0" opacity="0.95"/><circle cx="318.0" cy="188.0" r="15.0" fill="#0c2020" stroke="none" stroke-width="6.3" opacity="1.0"/><path d="M316.0,171.0 L297.0,190.0 L301.0,209.0" fill="none" stroke="#2dd4bf" stroke-width="5" stroke-linecap="round" stroke-linejoin="round" opacity="1.0"/><path d="M308.7,185.0 L327.3,185.0" fill="none" stroke="#a7f3ee" stroke-width="5" stroke-linecap="round" stroke-linejoin="round" opacity="1.0"/><g class="f0"><path d="M290.0,196.0 L291.6,204.7 L293.3,213.5 L294.9,222.2 L296.5,230.9 L298.2,239.6 L299.8,248.4 L301.5,257.1 L303.1,265.8 L304.7,274.5 L306.4,283.3 L308.0,292.0" fill="none" stroke="#2dd4bf" stroke-width="19" stroke-linecap="round" stroke-linejoin="round" opacity="0.95"/><path d="M290.0,196.0 L291.6,204.7 L293.3,213.5 L294.9,222.2 L296.5,230.9 L298.2,239.6 L299.8,248.4 L301.5,257.1 L303.1,265.8 L304.7,274.5 L306.4,283.3 L308.0,292.0" fill="none" stroke="#0c2020" stroke-width="11" stroke-linecap="round" stroke-linejoin="round" opacity="1.0"/><path d="M190.0,198.0 L190.0,206.6 L190.0,215.1 L190.0,223.7 L190.0,232.2 L190.0,240.8 L189.6,249.3 L188.8,257.9 L188.1,266.4 L187.4,274.9 L186.7,283.5 L186.0,292.0" fill="none" stroke="#2dd4bf" stroke-width="19" stroke-linecap="round" stroke-linejoin="round" opacity="0.95"/><path d="M190.0,198.0 L190.0,206.6 L190.0,215.1 L190.0,223.7 L190.0,232.2 L190.0,240.8 L189.6,249.3 L188.8,257.9 L188.1,266.4 L187.4,274.9 L186.7,283.5 L186.0,292.0" fill="none" stroke="#0c2020" stroke-width="11" stroke-linecap="round" stroke-linejoin="round" opacity="1.0"/></g><g class="f1"><path d="M290.0,196.0 L291.9,204.2 L293.8,212.3 L295.7,220.5 L297.6,228.7 L299.5,236.9 L301.4,245.0 L303.3,253.3 L305.3,261.6 L307.2,269.9 L309.2,278.1 L311.1,286.4" fill="none" stroke="#2dd4bf" stroke-width="19" stroke-linecap="round" stroke-linejoin="round" opacity="0.95"/><path d="M290.0,196.0 L291.9,204.2 L293.8,212.3 L295.7,220.5 L297.6,228.7 L299.5,236.9 L301.4,245.0 L303.3,253.3 L305.3,261.6 L307.2,269.9 L309.2,278.1 L311.1,286.4" fill="none" stroke="#0c2020" stroke-width="11" stroke-linecap="round" stroke-linejoin="round" opacity="1.0"/><path d="M190.0,198.0 L189.6,206.1 L189.2,214.2 L188.7,222.3 L188.3,230.4 L187.9,238.5 L187.1,246.6 L185.9,254.7 L184.8,262.7 L183.7,270.8 L182.6,278.9 L181.5,287.0" fill="none" stroke="#2dd4bf" stroke-width="19" stroke-linecap="round" stroke-linejoin="round" opacity="0.95"/><path d="M190.0,198.0 L189.6,206.1 L189.2,214.2 L188.7,222.3 L188.3,230.4 L187.9,238.5 L187.1,246.6 L185.9,254.7 L184.8,262.7 L183.7,270.8 L182.6,278.9 L181.5,287.0" fill="none" stroke="#0c2020" stroke-width="11" stroke-linecap="round" stroke-linejoin="round" opacity="1.0"/></g><g class="f2"><path d="M290.0,196.0 L292.6,202.7 L295.2,209.4 L297.8,216.1 L300.4,222.8 L303.0,229.5 L305.6,236.2 L308.3,243.3 L311.0,250.4 L313.8,257.5 L316.5,264.6 L319.2,271.7" fill="none" stroke="#2dd4bf" stroke-width="19" stroke-linecap="round" stroke-linejoin="round" opacity="0.95"/><path d="M290.0,196.0 L292.6,202.7 L295.2,209.4 L297.8,216.1 L300.4,222.8 L303.0,229.5 L305.6,236.2 L308.3,243.3 L311.0,250.4 L313.8,257.5 L316.5,264.6 L319.2,271.7" fill="none" stroke="#0c2020" stroke-width="11" stroke-linecap="round" stroke-linejoin="round" opacity="1.0"/><path d="M190.0,198.0 L188.5,204.9 L186.9,211.7 L185.4,218.6 L183.9,225.5 L182.4,232.4 L180.5,239.3 L178.3,246.2 L176.2,253.1 L174.0,260.0 L171.9,267.0 L169.8,273.9" fill="none" stroke="#2dd4bf" stroke-width="19" stroke-linecap="round" stroke-linejoin="round" opacity="0.95"/><path d="M190.0,198.0 L188.5,204.9 L186.9,211.7 L185.4,218.6 L183.9,225.5 L182.4,232.4 L180.5,239.3 L178.3,246.2 L176.2,253.1 L174.0,260.0 L171.9,267.0 L169.8,273.9" fill="none" stroke="#0c2020" stroke-width="11" stroke-linecap="round" stroke-linejoin="round" opacity="1.0"/></g><g class="f3"><path d="M290.0,196.0 L293.6,200.6 L297.2,205.3 L300.7,209.9 L304.3,214.5 L307.9,219.2 L311.5,223.8 L315.3,229.1 L319.2,234.5 L323.0,240.0 L326.9,245.4 L330.8,250.9" fill="none" stroke="#2dd4bf" stroke-width="19" stroke-linecap="round" stroke-linejoin="round" opacity="0.95"/><path d="M290.0,196.0 L293.6,200.6 L297.2,205.3 L300.7,209.9 L304.3,214.5 L307.9,219.2 L311.5,223.8 L315.3,229.1 L319.2,234.5 L323.0,240.0 L326.9,245.4 L330.8,250.9" fill="none" stroke="#0c2020" stroke-width="11" stroke-linecap="round" stroke-linejoin="round" opacity="1.0"/><path d="M190.0,198.0 L186.9,203.1 L183.8,208.3 L180.7,213.4 L177.6,218.6 L174.5,223.7 L171.1,228.9 L167.5,234.2 L163.9,239.5 L160.3,244.7 L156.7,250.0 L153.1,255.3" fill="none" stroke="#2dd4bf" stroke-width="19" stroke-linecap="round" stroke-linejoin="round" opacity="0.95"/><path d="M190.0,198.0 L186.9,203.1 L183.8,208.3 L180.7,213.4 L177.6,218.6 L174.5,223.7 L171.1,228.9 L167.5,234.2 L163.9,239.5 L160.3,244.7 L156.7,250.0 L153.1,255.3" fill="none" stroke="#0c2020" stroke-width="11" stroke-linecap="round" stroke-linejoin="round" opacity="1.0"/></g><g class="f4"><path d="M290.0,196.0 L294.7,198.3 L299.4,200.5 L304.1,202.8 L308.8,205.0 L313.5,207.3 L318.3,209.5 L323.3,212.9 L328.5,216.4 L333.7,219.9 L338.8,223.5 L344.0,227.0" fill="none" stroke="#2dd4bf" stroke-width="19" stroke-linecap="round" stroke-linejoin="round" opacity="0.95"/><path d="M290.0,196.0 L294.7,198.3 L299.4,200.5 L304.1,202.8 L308.8,205.0 L313.5,207.3 L318.3,209.5 L323.3,212.9 L328.5,216.4 L333.7,219.9 L338.8,223.5 L344.0,227.0" fill="none" stroke="#0c2020" stroke-width="11" stroke-linecap="round" stroke-linejoin="round" opacity="1.0"/><path d="M190.0,198.0 L185.1,201.2 L180.2,204.3 L175.4,207.5 L170.5,210.6 L165.6,213.8 L160.4,217.1 L155.2,220.5 L149.9,223.8 L144.6,227.2 L139.3,230.6 L134.0,234.0" fill="none" stroke="#2dd4bf" stroke-width="19" stroke-linecap="round" stroke-linejoin="round" opacity="0.95"/><path d="M190.0,198.0 L185.1,201.2 L180.2,204.3 L175.4,207.5 L170.5,210.6 L165.6,213.8 L160.4,217.1 L155.2,220.5 L149.9,223.8 L144.6,227.2 L139.3,230.6 L134.0,234.0" fill="none" stroke="#0c2020" stroke-width="11" stroke-linecap="round" stroke-linejoin="round" opacity="1.0"/></g><g class="f5"><path d="M290.0,196.0 L295.8,195.9 L301.7,195.8 L307.5,195.6 L313.3,195.5 L319.2,195.4 L325.0,195.3 L331.4,196.6 L337.8,198.2 L344.3,199.9 L350.8,201.5 L357.2,203.1" fill="none" stroke="#2dd4bf" stroke-width="19" stroke-linecap="round" stroke-linejoin="round" opacity="0.95"/><path d="M290.0,196.0 L295.8,195.9 L301.7,195.8 L307.5,195.6 L313.3,195.5 L319.2,195.4 L325.0,195.3 L331.4,196.6 L337.8,198.2 L344.3,199.9 L350.8,201.5 L357.2,203.1" fill="none" stroke="#0c2020" stroke-width="11" stroke-linecap="round" stroke-linejoin="round" opacity="1.0"/><path d="M190.0,198.0 L183.3,199.2 L176.6,200.3 L170.0,201.5 L163.3,202.7 L156.6,203.8 L149.8,205.2 L142.8,206.7 L135.8,208.2 L128.8,209.7 L121.9,211.2 L114.9,212.7" fill="none" stroke="#2dd4bf" stroke-width="19" stroke-linecap="round" stroke-linejoin="round" opacity="0.95"/><path d="M190.0,198.0 L183.3,199.2 L176.6,200.3 L170.0,201.5 L163.3,202.7 L156.6,203.8 L149.8,205.2 L142.8,206.7 L135.8,208.2 L128.8,209.7 L121.9,211.2 L114.9,212.7" fill="none" stroke="#0c2020" stroke-width="11" stroke-linecap="round" stroke-linejoin="round" opacity="1.0"/></g><g class="f6"><path d="M290.0,196.0 L296.8,193.8 L303.6,191.6 L310.5,189.4 L317.3,187.2 L324.1,185.0 L330.9,182.8 L338.4,182.4 L346.0,182.4 L353.6,182.4 L361.2,182.3 L368.8,182.3" fill="none" stroke="#2dd4bf" stroke-width="19" stroke-linecap="round" stroke-linejoin="round" opacity="0.95"/><path d="M290.0,196.0 L296.8,193.8 L303.6,191.6 L310.5,189.4 L317.3,187.2 L324.1,185.0 L330.9,182.8 L338.4,182.4 L346.0,182.4 L353.6,182.4 L361.2,182.3 L368.8,182.3" fill="none" stroke="#0c2020" stroke-width="11" stroke-linecap="round" stroke-linejoin="round" opacity="1.0"/><path d="M190.0,198.0 L181.8,197.4 L173.5,196.9 L165.3,196.3 L157.0,195.7 L148.8,195.2 L140.4,194.9 L132.0,194.7 L123.6,194.6 L115.1,194.4 L106.7,194.3 L98.2,194.1" fill="none" stroke="#2dd4bf" stroke-width="19" stroke-linecap="round" stroke-linejoin="round" opacity="0.95"/><path d="M190.0,198.0 L181.8,197.4 L173.5,196.9 L165.3,196.3 L157.0,195.7 L148.8,195.2 L140.4,194.9 L132.0,194.7 L123.6,194.6 L115.1,194.4 L106.7,194.3 L98.2,194.1" fill="none" stroke="#0c2020" stroke-width="11" stroke-linecap="round" stroke-linejoin="round" opacity="1.0"/></g><g class="f7"><path d="M290.0,196.0 L297.5,192.3 L305.0,188.7 L312.6,185.0 L320.1,181.4 L327.6,177.7 L335.1,174.0 L343.3,172.4 L351.7,171.2 L360.1,170.0 L368.5,168.8 L376.9,167.6" fill="none" stroke="#2dd4bf" stroke-width="19" stroke-linecap="round" stroke-linejoin="round" opacity="0.95"/><path d="M290.0,196.0 L297.5,192.3 L305.0,188.7 L312.6,185.0 L320.1,181.4 L327.6,177.7 L335.1,174.0 L343.3,172.4 L351.7,171.2 L360.1,170.0 L368.5,168.8 L376.9,167.6" fill="none" stroke="#0c2020" stroke-width="11" stroke-linecap="round" stroke-linejoin="round" opacity="1.0"/><path d="M190.0,198.0 L180.7,196.2 L171.3,194.4 L162.0,192.6 L152.6,190.8 L143.3,189.1 L133.8,187.6 L124.4,186.3 L114.9,184.9 L105.4,183.6 L95.9,182.3 L86.5,181.0" fill="none" stroke="#2dd4bf" stroke-width="19" stroke-linecap="round" stroke-linejoin="round" opacity="0.95"/><path d="M190.0,198.0 L180.7,196.2 L171.3,194.4 L162.0,192.6 L152.6,190.8 L143.3,189.1 L133.8,187.6 L124.4,186.3 L114.9,184.9 L105.4,183.6 L95.9,182.3 L86.5,181.0" fill="none" stroke="#0c2020" stroke-width="11" stroke-linecap="round" stroke-linejoin="round" opacity="1.0"/></g><g class="f8"><path d="M290.0,196.0 L297.8,191.8 L305.6,187.6 L313.3,183.4 L321.1,179.1 L328.9,174.9 L336.7,170.7 L345.2,168.6 L353.9,167.0 L362.6,165.3 L371.3,163.7 L380.0,162.0" fill="none" stroke="#2dd4bf" stroke-width="19" stroke-linecap="round" stroke-linejoin="round" opacity="0.95"/><path d="M290.0,196.0 L297.8,191.8 L305.6,187.6 L313.3,183.4 L321.1,179.1 L328.9,174.9 L336.7,170.7 L345.2,168.6 L353.9,167.0 L362.6,165.3 L371.3,163.7 L380.0,162.0" fill="none" stroke="#0c2020" stroke-width="11" stroke-linecap="round" stroke-linejoin="round" opacity="1.0"/><path d="M190.0,198.0 L180.2,195.7 L170.5,193.5 L160.7,191.2 L150.9,189.0 L141.2,186.7 L131.3,184.8 L121.5,183.0 L111.6,181.3 L101.7,179.5 L91.9,177.8 L82.0,176.0" fill="none" stroke="#2dd4bf" stroke-width="19" stroke-linecap="round" stroke-linejoin="round" opacity="0.95"/><path d="M190.0,198.0 L180.2,195.7 L170.5,193.5 L160.7,191.2 L150.9,189.0 L141.2,186.7 L131.3,184.8 L121.5,183.0 L111.6,181.3 L101.7,179.5 L91.9,177.8 L82.0,176.0" fill="none" stroke="#0c2020" stroke-width="11" stroke-linecap="round" stroke-linejoin="round" opacity="1.0"/></g><g class="f9"><path d="M290.0,196.0 L297.5,192.3 L305.0,188.7 L312.6,185.0 L320.1,181.4 L327.6,177.7 L335.1,174.0 L343.3,172.4 L351.7,171.2 L360.1,170.0 L368.5,168.8 L376.9,167.6" fill="none" stroke="#2dd4bf" stroke-width="19" stroke-linecap="round" stroke-linejoin="round" opacity="0.95"/><path d="M290.0,196.0 L297.5,192.3 L305.0,188.7 L312.6,185.0 L320.1,181.4 L327.6,177.7 L335.1,174.0 L343.3,172.4 L351.7,171.2 L360.1,170.0 L368.5,168.8 L376.9,167.6" fill="none" stroke="#0c2020" stroke-width="11" stroke-linecap="round" stroke-linejoin="round" opacity="1.0"/><path d="M190.0,198.0 L180.7,196.2 L171.3,194.4 L162.0,192.6 L152.6,190.8 L143.3,189.1 L133.8,187.6 L124.4,186.3 L114.9,184.9 L105.4,183.6 L95.9,182.3 L86.5,181.0" fill="none" stroke="#2dd4bf" stroke-width="19" stroke-linecap="round" stroke-linejoin="round" opacity="0.95"/><path d="M190.0,198.0 L180.7,196.2 L171.3,194.4 L162.0,192.6 L152.6,190.8 L143.3,189.1 L133.8,187.6 L124.4,186.3 L114.9,184.9 L105.4,183.6 L95.9,182.3 L86.5,181.0" fill="none" stroke="#0c2020" stroke-width="11" stroke-linecap="round" stroke-linejoin="round" opacity="1.0"/></g><g class="f10"><path d="M290.0,196.0 L296.8,193.8 L303.6,191.6 L310.5,189.4 L317.3,187.2 L324.1,185.0 L330.9,182.8 L338.4,182.4 L346.0,182.4 L353.6,182.4 L361.2,182.3 L368.8,182.3" fill="none" stroke="#2dd4bf" stroke-width="19" stroke-linecap="round" stroke-linejoin="round" opacity="0.95"/><path d="M290.0,196.0 L296.8,193.8 L303.6,191.6 L310.5,189.4 L317.3,187.2 L324.1,185.0 L330.9,182.8 L338.4,182.4 L346.0,182.4 L353.6,182.4 L361.2,182.3 L368.8,182.3" fill="none" stroke="#0c2020" stroke-width="11" stroke-linecap="round" stroke-linejoin="round" opacity="1.0"/><path d="M190.0,198.0 L181.8,197.4 L173.5,196.9 L165.3,196.3 L157.0,195.7 L148.8,195.2 L140.4,194.9 L132.0,194.7 L123.6,194.6 L115.1,194.4 L106.7,194.3 L98.2,194.1" fill="none" stroke="#2dd4bf" stroke-width="19" stroke-linecap="round" stroke-linejoin="round" opacity="0.95"/><path d="M190.0,198.0 L181.8,197.4 L173.5,196.9 L165.3,196.3 L157.0,195.7 L148.8,195.2 L140.4,194.9 L132.0,194.7 L123.6,194.6 L115.1,194.4 L106.7,194.3 L98.2,194.1" fill="none" stroke="#0c2020" stroke-width="11" stroke-linecap="round" stroke-linejoin="round" opacity="1.0"/></g><g class="f11"><path d="M290.0,196.0 L295.8,195.9 L301.7,195.8 L307.5,195.6 L313.3,195.5 L319.2,195.4 L325.0,195.3 L331.4,196.6 L337.8,198.2 L344.3,199.9 L350.8,201.5 L357.2,203.1" fill="none" stroke="#2dd4bf" stroke-width="19" stroke-linecap="round" stroke-linejoin="round" opacity="0.95"/><path d="M290.0,196.0 L295.8,195.9 L301.7,195.8 L307.5,195.6 L313.3,195.5 L319.2,195.4 L325.0,195.3 L331.4,196.6 L337.8,198.2 L344.3,199.9 L350.8,201.5 L357.2,203.1" fill="none" stroke="#0c2020" stroke-width="11" stroke-linecap="round" stroke-linejoin="round" opacity="1.0"/><path d="M190.0,198.0 L183.3,199.2 L176.6,200.3 L170.0,201.5 L163.3,202.7 L156.6,203.8 L149.8,205.2 L142.8,206.7 L135.8,208.2 L128.8,209.7 L121.9,211.2 L114.9,212.7" fill="none" stroke="#2dd4bf" stroke-width="19" stroke-linecap="round" stroke-linejoin="round" opacity="0.95"/><path d="M190.0,198.0 L183.3,199.2 L176.6,200.3 L170.0,201.5 L163.3,202.7 L156.6,203.8 L149.8,205.2 L142.8,206.7 L135.8,208.2 L128.8,209.7 L121.9,211.2 L114.9,212.7" fill="none" stroke="#0c2020" stroke-width="11" stroke-linecap="round" stroke-linejoin="round" opacity="1.0"/></g><g class="f12"><path d="M290.0,196.0 L294.7,198.3 L299.4,200.5 L304.1,202.8 L308.8,205.0 L313.5,207.3 L318.3,209.5 L323.3,212.9 L328.5,216.4 L333.7,219.9 L338.8,223.5 L344.0,227.0" fill="none" stroke="#2dd4bf" stroke-width="19" stroke-linecap="round" stroke-linejoin="round" opacity="0.95"/><path d="M290.0,196.0 L294.7,198.3 L299.4,200.5 L304.1,202.8 L308.8,205.0 L313.5,207.3 L318.3,209.5 L323.3,212.9 L328.5,216.4 L333.7,219.9 L338.8,223.5 L344.0,227.0" fill="none" stroke="#0c2020" stroke-width="11" stroke-linecap="round" stroke-linejoin="round" opacity="1.0"/><path d="M190.0,198.0 L185.1,201.2 L180.2,204.3 L175.4,207.5 L170.5,210.6 L165.6,213.8 L160.4,217.1 L155.2,220.5 L149.9,223.8 L144.6,227.2 L139.3,230.6 L134.0,234.0" fill="none" stroke="#2dd4bf" stroke-width="19" stroke-linecap="round" stroke-linejoin="round" opacity="0.95"/><path d="M190.0,198.0 L185.1,201.2 L180.2,204.3 L175.4,207.5 L170.5,210.6 L165.6,213.8 L160.4,217.1 L155.2,220.5 L149.9,223.8 L144.6,227.2 L139.3,230.6 L134.0,234.0" fill="none" stroke="#0c2020" stroke-width="11" stroke-linecap="round" stroke-linejoin="round" opacity="1.0"/></g><g class="f13"><path d="M290.0,196.0 L293.6,200.6 L297.2,205.3 L300.7,209.9 L304.3,214.5 L307.9,219.2 L311.5,223.8 L315.3,229.1 L319.2,234.5 L323.0,240.0 L326.9,245.4 L330.8,250.9" fill="none" stroke="#2dd4bf" stroke-width="19" stroke-linecap="round" stroke-linejoin="round" opacity="0.95"/><path d="M290.0,196.0 L293.6,200.6 L297.2,205.3 L300.7,209.9 L304.3,214.5 L307.9,219.2 L311.5,223.8 L315.3,229.1 L319.2,234.5 L323.0,240.0 L326.9,245.4 L330.8,250.9" fill="none" stroke="#0c2020" stroke-width="11" stroke-linecap="round" stroke-linejoin="round" opacity="1.0"/><path d="M190.0,198.0 L186.9,203.1 L183.8,208.3 L180.7,213.4 L177.6,218.6 L174.5,223.7 L171.1,228.9 L167.5,234.2 L163.9,239.5 L160.3,244.7 L156.7,250.0 L153.1,255.3" fill="none" stroke="#2dd4bf" stroke-width="19" stroke-linecap="round" stroke-linejoin="round" opacity="0.95"/><path d="M190.0,198.0 L186.9,203.1 L183.8,208.3 L180.7,213.4 L177.6,218.6 L174.5,223.7 L171.1,228.9 L167.5,234.2 L163.9,239.5 L160.3,244.7 L156.7,250.0 L153.1,255.3" fill="none" stroke="#0c2020" stroke-width="11" stroke-linecap="round" stroke-linejoin="round" opacity="1.0"/></g><g class="f14"><path d="M290.0,196.0 L292.6,202.7 L295.2,209.4 L297.8,216.1 L300.4,222.8 L303.0,229.5 L305.6,236.2 L308.3,243.3 L311.0,250.4 L313.8,257.5 L316.5,264.6 L319.2,271.7" fill="none" stroke="#2dd4bf" stroke-width="19" stroke-linecap="round" stroke-linejoin="round" opacity="0.95"/><path d="M290.0,196.0 L292.6,202.7 L295.2,209.4 L297.8,216.1 L300.4,222.8 L303.0,229.5 L305.6,236.2 L308.3,243.3 L311.0,250.4 L313.8,257.5 L316.5,264.6 L319.2,271.7" fill="none" stroke="#0c2020" stroke-width="11" stroke-linecap="round" stroke-linejoin="round" opacity="1.0"/><path d="M190.0,198.0 L188.5,204.9 L186.9,211.7 L185.4,218.6 L183.9,225.5 L182.4,232.4 L180.5,239.3 L178.3,246.2 L176.2,253.1 L174.0,260.0 L171.9,267.0 L169.8,273.9" fill="none" stroke="#2dd4bf" stroke-width="19" stroke-linecap="round" stroke-linejoin="round" opacity="0.95"/><path d="M190.0,198.0 L188.5,204.9 L186.9,211.7 L185.4,218.6 L183.9,225.5 L182.4,232.4 L180.5,239.3 L178.3,246.2 L176.2,253.1 L174.0,260.0 L171.9,267.0 L169.8,273.9" fill="none" stroke="#0c2020" stroke-width="11" stroke-linecap="round" stroke-linejoin="round" opacity="1.0"/></g><g class="f15"><path d="M290.0,196.0 L291.9,204.2 L293.8,212.3 L295.7,220.5 L297.6,228.7 L299.5,236.9 L301.4,245.0 L303.3,253.3 L305.3,261.6 L307.2,269.9 L309.2,278.1 L311.1,286.4" fill="none" stroke="#2dd4bf" stroke-width="19" stroke-linecap="round" stroke-linejoin="round" opacity="0.95"/><path d="M290.0,196.0 L291.9,204.2 L293.8,212.3 L295.7,220.5 L297.6,228.7 L299.5,236.9 L301.4,245.0 L303.3,253.3 L305.3,261.6 L307.2,269.9 L309.2,278.1 L311.1,286.4" fill="none" stroke="#0c2020" stroke-width="11" stroke-linecap="round" stroke-linejoin="round" opacity="1.0"/><path d="M190.0,198.0 L189.6,206.1 L189.2,214.2 L188.7,222.3 L188.3,230.4 L187.9,238.5 L187.1,246.6 L185.9,254.7 L184.8,262.7 L183.7,270.8 L182.6,278.9 L181.5,287.0" fill="none" stroke="#2dd4bf" stroke-width="19" stroke-linecap="round" stroke-linejoin="round" opacity="0.95"/><path d="M190.0,198.0 L189.6,206.1 L189.2,214.2 L188.7,222.3 L188.3,230.4 L187.9,238.5 L187.1,246.6 L185.9,254.7 L184.8,262.7 L183.7,270.8 L182.6,278.9 L181.5,287.0" fill="none" stroke="#0c2020" stroke-width="11" stroke-linecap="round" stroke-linejoin="round" opacity="1.0"/></g></svg>
