<svg xmlns="http://www.w3.org/2000/svg" viewBox="0 0 480 320"><style>@keyframes k0{0%{opacity:1}11.111%{opacity:0}100%{opacity:0}}.f0{opacity:0;animation:k0 2.4s steps(1,end) infinite}@keyframes k1{0%{opacity:0}11.111%{opacity:1}16.667%{opacity:0}100%{opacity:0}}.f1{opacity:0;animation:k1 2.4s steps(1,end) infinite}@keyframes k2{0%{opacity:0}16.667%{opacity:1}22.222%{opacity:0}100%{opacity:0}}.f2{opacity:0;animation:k2 2.4s steps(1,end) infinite}@keyframes k3{0%{opacity:0}22.222%{opacity:1}27.778%{opacity:0}100%{opacity:0}}.f3{opacity:0;animation:k3 2.4s steps(1,end) infinite}@keyframes k4{0%{opacity:0}27.778%{opacity:1}33.333%{opacity:0}100%{opacity:0}}.f4{opacity:0;animation:k4 2.4s steps(1,end) infinite}@keyframes k5{0%{opacity:0}33.333%{opacity:1}38.889%{opacity:0}100%{opacity:0}}.f5{opacity:0;animation:k5 2.4s steps(1,end) infinite}@keyframes k6{0%{opacity:0}38.889%{opacity:1}44.444%{opacity:0}100%{opacity:0}}.f6{opacity:0;animation:k6 2.4s steps(1,end) infinite}@keyframes k7{0%{opacity:0}44.444%{opacity:1}50.000%{opacity:0}100%{opacity:0}}.f7{opacity:0;animation:k7 2.4s steps(1,end) infinite}@keyframes k8{0%{opacity:0}50.000%{opacity:1}61.111%{opacity:0}100%{opacity:0}}.f8{opacity:0;animation:k8 2.4s steps(1,end) infinite}@keyframes k9{0%{opacity:0}61.111%{opacity:1}66.667%{opacity:0}100%{opacity:0}}.f9{opacity:0;animation:k9 2.4s steps(1,end) infinite}@keyframes k10{0%{opacity:0}66.667%{opacity:1}72.222%{opacity:0}100%{opacity:0}}.f10{opacity:0;animation:k10 2.4s steps(1,end) infinite}@keyframes k11{0%{opacity:0}72.222%{opacity:1}77.778%{opacity:0}100%{opacity:0}}.f11{opacity:0;animation:k11 2.4s steps(1,end) infinite}@keyframes k12{0%{opacity:0}77.778%{opacity:1}83.333%{opacity:0}100%{opacity:0}}.f12{opacity:0;animation:k12 2.4s steps(1,end) infinite}@keyframes k13{0%{opacity:0}83.333%{opacity:1}88.889%{opacity:0}100%{opacity:0}}.f13{opacity:0;animation:k13 2.4s steps(1,end) infinite}@keyframes k14{0%{opacity:0}88.889%{opacity:1}94.444%{opacity:0}100%{opacity:0}}.f14{opacity:0;animation:k14 2.4s steps(1,end) infinite}@keyframes k15{0%{opacity:0}94.444%{opacity:1}100%{opacity:1}}.f15{opacity:0;animation:k15 2.4s steps(1,end) infinite}</style><path d="M40.0,292.0 L440.0,292.0" fill="none" stroke="#1f3333" stroke-width="6" stroke-linecap="round" stroke-linejoin="round" opacity="1.0"/><g class="f0"><path d="M240.0,118.0 L241.8,111.6 L243.6,105.1 L245.4,98.7 L247.2,92.2 L249.0,85.8 L250.3,79.2 L251.0,72.6 L251.8,65.9 L252.5,59.3 L253.3,52.6 L254.0,46.0" fill="none" stroke="#2dd4bf" stroke-width="21" stroke-linecap="round" stroke-linejoin="round" opacity="0.95"/><path d="M240.0,118.0 L241.8,111.6 L243.6,105.1 L245.4,98.7 L247.2,92.2 L249.0,85.8 L250.3,79.2 L251.0,72.6 L251.8,65.9 L252.5,59.3 L253.3,52.6 L254.0,46.0" fill="none" stroke="#0c2020" stroke-width="13" stroke-linecap="round" stroke-linejoin="round" opacity="1.0"/><path d="M240.0,192.0 L238.9,201.1 L237.7,210.1 L236.6,219.2 L235.5,228.2 L234.3,237.3 L233.8,246.4 L233.4,255.5 L233.1,264.6 L232.7,273.8 L232.4,282.9 L232.0,292.0" fill="none" stroke="#8f2a3e" stroke-width="21" stroke-linecap="round" stroke-linejoin="round" opacity="0.95"/><path d="M240.0,192.0 L238.9,201.1 L237.7,210.1 L236.6,219.2 L235.5,228.2 L234.3,237.3 L233.8,246.4 L233.4,255.5 L233.1,264.6 L232.7,273.8 L232.4,282.9 L232.0,292.0" fill="none" stroke="#0c2020" stroke-width="13" stroke-linecap="round" stroke-linejoin="round" opacity="1.0"/><path d="M240.0,192.0 L241.5,201.0 L243.0,210.1 L244.5,219.1 L246.0,228.1 L247.5,237.2 L247.8,246.3 L247.4,255.4 L247.1,264.6 L246.7,273.7 L246.4,282.9 L246.0,292.0" fill="none" stroke="#f43f5e" stroke-width="21" stroke-linecap="round" stroke-linejoin="round" opacity="0.95"/><path d="M240.0,192.0 L241.5,201.0 L243.0,210.1 L244.5,219.1 L246.0,228.1 L247.5,237.2 L247.8,246.3 L247.4,255.4 L247.1,264.6 L246.7,273.7 L246.4,282.9 L246.0,292.0" fill="none" stroke="#0c2020" stroke-width="13" stroke-linecap="round" stroke-linejoin="round" opacity="1.0"/><path d="M240.0,118.0 L240.0,124.7 L240.0,131.5 L240.0,138.2 L240.0,144.9 L240.0,151.6 L240.0,158.4 L240.0,165.1 L240.0,171.8 L240.0,178.5 L240.0,185.3 L240.0,192.0" fill="none" stroke="#2dd4bf" stroke-width="25" stroke-linecap="round" stroke-linejoin="round" opacity="0.95"/><path d="M240.0,118.0 L240.0,124.7 L240.0,131.5 L240.0,138.2 L240.0,144.9 L240.0,151.6 L240.0,158.4 L240.0,165.1 L240.0,171.8 L240.0,178.5 L240.0,185.3 L240.0,192.0" fill="none" stroke="#0c2020" stroke-width="17" stroke-linecap="round" stroke-linejoin="round" opacity="1.0"/><circle cx="242.0" cy="90.0" r="19.0" fill="#2dd4bf" stroke="none" stroke-width="0" opacity="0.95"/><circle cx="242.0" cy="90.0" r="15.0" fill="#0c2020" stroke="none" stroke-width="6.3" opacity="1.0"/><path d="M232.7,87.0 L234.4,87.0 L236.1,87.0 L237.8,87.0 L239.5,87.0 L241.2,87.0 L242.8,87.0 L244.5,87.0 L246.2,87.0 L247.9,87.0 L249.6,87.0 L251.3,87.0" fill="none" stroke="#a7f3ee" stroke-width="5" stroke-linecap="round" stroke-linejoin="round" opacity="1.0"/></g><g class="f1"><path d="M243.1,121.4 L244.8,115.6 L246.5,109.8 L248.2,104.0 L249.8,98.2 L251.5,92.4 L252.8,86.5 L253.4,80.5 L254.1,74.5 L254.8,68.5 L255.4,62.6 L256.1,56.6" fill="none" stroke="#2dd4bf" stroke-width="21" stroke-linecap="round" stroke-linejoin="round" opacity="0.95"/><path d="M243.1,121.4 L244.8,115.6 L246.5,109.8 L248.2,104.0 L249.8,98.2 L251.5,92.4 L252.8,86.5 L253.4,80.5 L254.1,74.5 L254.8,68.5 L255.4,62.6 L256.1,56.6" fill="none" stroke="#0c2020" stroke-width="13" stroke-linecap="round" stroke-linejoin="round" opacity="1.0"/><path d="M238.9,192.9 L237.4,201.9 L235.9,210.8 L234.4,219.7 L232.9,228.7 L231.4,237.6 L230.4,246.6 L229.6,255.6 L228.9,264.6 L228.1,273.6 L227.4,282.6 L226.6,291.7" fill="none" stroke="#8f2a3e" stroke-width="21" stroke-linecap="round" stroke-linejoin="round" opacity="0.95"/><path d="M238.9,192.9 L237.4,201.9 L235.9,210.8 L234.4,219.7 L232.9,228.7 L231.4,237.6 L230.4,246.6 L229.6,255.6 L228.9,264.6 L228.1,273.6 L227.4,282.6 L226.6,291.7" fill="none" stroke="#0c2020" stroke-width="13" stroke-linecap="round" stroke-linejoin="round" opacity="1.0"/><path d="M238.9,192.9 L239.9,201.8 L240.9,210.7 L241.9,219.6 L242.8,228.5 L243.8,237.4 L243.6,246.4 L242.9,255.5 L242.1,264.5 L241.4,273.6 L240.6,282.7 L239.9,291.7" fill="none" stroke="#f43f5e" stroke-width="21" stroke-linecap="round" stroke-linejoin="round" opacity="0.95"/><path d="M238.9,192.9 L239.9,201.8 L240.9,210.7 L241.9,219.6 L242.8,228.5 L243.8,237.4 L243.6,246.4 L242.9,255.5 L242.1,264.5 L241.4,273.6 L240.6,282.7 L239.9,291.7" fill="none" stroke="#0c2020" stroke-width="13" stroke-linecap="round" stroke-linejoin="round" opacity="1.0"/><path d="M243.1,121.4 L242.8,127.9 L242.4,134.4 L242.0,140.9 L241.6,147.4 L241.2,153.9 L240.8,160.4 L240.5,166.9 L240.1,173.4 L239.7,179.9 L239.3,186.4 L238.9,192.9" fill="none" stroke="#2dd4bf" stroke-width="25" stroke-linecap="round" stroke-linejoin="round" opacity="0.95"/><path d="M243.1,121.4 L242.8,127.9 L242.4,134.4 L242.0,140.9 L241.6,147.4 L241.2,153.9 L240.8,160.4 L240.5,166.9 L240.1,173.4 L239.7,179.9 L239.3,186.4 L238.9,192.9" fill="none" stroke="#0c2020" stroke-width="17" stroke-linecap="round" stroke-linejoin="round" opacity="1.0"/><circle cx="246.3" cy="94.2" r="19.0" fill="#2dd4bf" stroke="none" stroke-width="0" opacity="0.95"/><circle cx="246.3" cy="94.2" r="15.0" fill="#0c2020" stroke="none" stroke-width="6.3" opacity="1.0"/><path d="M237.0,91.2 L238.6,91.2 L240.3,91.2 L242.0,91.2 L243.7,91.2 L245.4,91.2 L247.1,91.2 L248.8,91.2 L250.5,91.2 L252.2,91.2 L253.9,91.2 L255.6,91.2" fill="none" stroke="#a7f3ee" stroke-width="5" stroke-linecap="round" stroke-linejoin="round" opacity="1.0"/></g><g class="f2"><path d="M251.4,130.2 L252.8,126.1 L254.1,122.0 L255.5,118.0 L256.9,113.9 L258.2,109.8 L259.2,105.7 L259.7,101.4 L260.2,97.2 L260.7,92.9 L261.2,88.7 L261.7,84.4" fill="none" stroke="#2dd4bf" stroke-width="21" stroke-linecap="round" stroke-linejoin="round" opacity="0.95"/><path d="M251.4,130.2 L252.8,126.1 L254.1,122.0 L255.5,118.0 L256.9,113.9 L258.2,109.8 L259.2,105.7 L259.7,101.4 L260.2,97.2 L260.7,92.9 L261.2,88.7 L261.7,84.4" fill="none" stroke="#0c2020" stroke-width="13" stroke-linecap="round" stroke-linejoin="round" opacity="1.0"/><path d="M236.1,195.4 L233.6,204.0 L231.1,212.6 L228.6,221.2 L226.0,229.8 L223.5,238.4 L221.5,247.1 L219.7,255.9 L217.9,264.6 L216.1,273.3 L214.3,282.0 L212.5,290.8" fill="none" stroke="#8f2a3e" stroke-width="21" stroke-linecap="round" stroke-linejoin="round" opacity="0.95"/><path d="M236.1,195.4 L233.6,204.0 L231.1,212.6 L228.6,221.2 L226.0,229.8 L223.5,238.4 L221.5,247.1 L219.7,255.9 L217.9,264.6 L216.1,273.3 L214.3,282.0 L212.5,290.8" fill="none" stroke="#0c2020" stroke-width="13" stroke-linecap="round" stroke-linejoin="round" opacity="1.0"/><path d="M236.1,195.4 L235.7,204.0 L235.3,212.5 L234.9,221.0 L234.5,229.5 L234.1,238.0 L232.7,246.8 L230.9,255.6 L229.1,264.5 L227.3,273.3 L225.5,282.2 L223.7,291.1" fill="none" stroke="#f43f5e" stroke-width="21" stroke-linecap="round" stroke-linejoin="round" opacity="0.95"/><path d="M236.1,195.4 L235.7,204.0 L235.3,212.5 L234.9,221.0 L234.5,229.5 L234.1,238.0 L232.7,246.8 L230.9,255.6 L229.1,264.5 L227.3,273.3 L225.5,282.2 L223.7,291.1" fill="none" stroke="#0c2020" stroke-width="13" stroke-linecap="round" stroke-linejoin="round" opacity="1.0"/><path d="M251.4,130.2 L250.0,136.1 L248.6,142.1 L247.2,148.0 L245.8,153.9 L244.4,159.8 L243.1,165.8 L241.7,171.7 L240.3,177.6 L238.9,183.6 L237.5,189.5 L236.1,195.4" fill="none" stroke="#2dd4bf" stroke-width="25" stroke-linecap="round" stroke-linejoin="round" opacity="0.95"/><path d="M251.4,130.2 L250.0,136.1 L248.6,142.1 L247.2,148.0 L245.8,153.9 L244.4,159.8 L243.1,165.8 L241.7,171.7 L240.3,177.6 L238.9,183.6 L237.5,189.5 L236.1,195.4" fill="none" stroke="#0c2020" stroke-width="17" stroke-linecap="round" stroke-linejoin="round" opacity="1.0"/><circle cx="257.5" cy="105.3" r="19.0" fill="#2dd4bf" stroke="none" stroke-width="0" opacity="0.95"/><circle cx="257.5" cy="105.3" r="15.0" fill="#0c2020" stroke="none" stroke-width="6.3" opacity="1.0"/><path d="M248.2,102.3 L249.9,102.3 L251.6,102.3 L253.2,102.3 L254.9,102.3 L256.6,102.3 L258.3,102.3 L260.0,102.3 L261.7,102.3 L263.4,102.3 L265.1,102.3 L266.8,102.3" fill="none" stroke="#a7f3ee" stroke-width="5" stroke-linecap="round" stroke-linejoin="round" opacity="1.0"/></g><g class="f3"><path d="M263.1,142.7 L264.0,141.0 L265.0,139.4 L265.9,137.7 L266.8,136.1 L267.8,134.5 L268.4,132.8 L268.6,131.0 L268.9,129.2 L269.1,127.4 L269.3,125.6 L269.5,123.8" fill="none" stroke="#2dd4bf" stroke-width="21" stroke-linecap="round" stroke-linejoin="round" opacity="0.95"/><path d="M263.1,142.7 L264.0,141.0 L265.0,139.4 L265.9,137.7 L266.8,136.1 L267.8,134.5 L268.4,132.8 L268.6,131.0 L268.9,129.2 L269.1,127.4 L269.3,125.6 L269.5,123.8" fill="none" stroke="#0c2020" stroke-width="13" stroke-linecap="round" stroke-linejoin="round" opacity="1.0"/><path d="M232.1,199.0 L228.2,207.1 L224.2,215.2 L220.3,223.4 L216.4,231.5 L212.5,239.6 L209.0,247.9 L205.7,256.2 L202.4,264.5 L199.1,272.8 L195.8,281.2 L192.4,289.5" fill="none" stroke="#8f2a3e" stroke-width="21" stroke-linecap="round" stroke-linejoin="round" opacity="0.95"/><path d="M232.1,199.0 L228.2,207.1 L224.2,215.2 L220.3,223.4 L216.4,231.5 L212.5,239.6 L209.0,247.9 L205.7,256.2 L202.4,264.5 L199.1,272.8 L195.8,281.2 L192.4,289.5" fill="none" stroke="#0c2020" stroke-width="13" stroke-linecap="round" stroke-linejoin="round" opacity="1.0"/><path d="M232.1,199.0 L229.7,206.9 L227.4,214.9 L225.0,222.9 L222.7,230.9 L220.3,238.9 L217.3,247.3 L214.0,255.9 L210.7,264.4 L207.4,273.0 L204.1,281.5 L200.8,290.1" fill="none" stroke="#f43f5e" stroke-width="21" stroke-linecap="round" stroke-linejoin="round" opacity="0.95"/><path d="M232.1,199.0 L229.7,206.9 L227.4,214.9 L225.0,222.9 L222.7,230.9 L220.3,238.9 L217.3,247.3 L214.0,255.9 L210.7,264.4 L207.4,273.0 L204.1,281.5 L200.8,290.1" fill="none" stroke="#0c2020" stroke-width="13" stroke-linecap="round" stroke-linejoin="round" opacity="1.0"/><path d="M263.1,142.7 L260.3,147.8 L257.5,152.9 L254.6,158.0 L251.8,163.1 L249.0,168.3 L246.2,173.4 L243.4,178.5 L240.5,183.6 L237.7,188.7 L234.9,193.8 L232.1,199.0" fill="none" stroke="#2dd4bf" stroke-width="25" stroke-linecap="round" stroke-linejoin="round" opacity="0.95"/><path d="M263.1,142.7 L260.3,147.8 L257.5,152.9 L254.6,158.0 L251.8,163.1 L249.0,168.3 L246.2,173.4 L243.4,178.5 L240.5,183.6 L237.7,188.7 L234.9,193.8 L232.1,199.0" fill="none" stroke="#0c2020" stroke-width="17" stroke-linecap="round" stroke-linejoin="round" opacity="1.0"/><circle cx="273.3" cy="121.0" r="19.0" fill="#2dd4bf" stroke="none" stroke-width="0" opacity="0.95"/><circle cx="273.3" cy="121.0" r="15.0" fill="#0c2020" stroke="none" stroke-width="6.3" opacity="1.0"/><path d="M264.0,118.0 L265.7,118.0 L267.4,118.0 L269.1,118.0 L270.8,118.0 L272.5,118.0 L274.2,118.0 L275.9,118.0 L277.6,118.0 L279.2,118.0 L280.9,118.0 L282.6,118.0" fill="none" stroke="#a7f3ee" stroke-width="5" stroke-linecap="round" stroke-linejoin="round" opacity="1.0"/></g><g class="f4"><path d="M276.5,157.0 L276.9,158.1 L277.4,159.3 L277.8,160.4 L278.3,161.6 L278.7,162.7 L278.9,163.8 L278.8,164.8 L278.8,165.9 L278.7,166.9 L278.6,168.0 L278.5,169.0" fill="none" stroke="#2dd4bf" stroke-width="21" stroke-linecap="round" stroke-linejoin="round" opacity="0.95"/><path d="M276.5,157.0 L276.9,158.1 L277.4,159.3 L277.8,160.4 L278.3,161.6 L278.7,162.7 L278.9,163.8 L278.8,164.8 L278.8,165.9 L278.7,166.9 L278.6,168.0 L278.5,169.0" fill="none" stroke="#0c2020" stroke-width="13" stroke-linecap="round" stroke-linejoin="round" opacity="1.0"/><path d="M227.5,203.0 L222.0,210.6 L216.4,218.2 L210.9,225.8 L205.3,233.4 L199.8,241.0 L194.6,248.8 L189.6,256.6 L184.6,264.5 L179.5,272.3 L174.5,280.2 L169.5,288.0" fill="none" stroke="#8f2a3e" stroke-width="21" stroke-linecap="round" stroke-linejoin="round" opacity="0.95"/><path d="M227.5,203.0 L222.0,210.6 L216.4,218.2 L210.9,225.8 L205.3,233.4 L199.8,241.0 L194.6,248.8 L189.6,256.6 L184.6,264.5 L179.5,272.3 L174.5,280.2 L169.5,288.0" fill="none" stroke="#0c2020" stroke-width="13" stroke-linecap="round" stroke-linejoin="round" opacity="1.0"/><path d="M227.5,203.0 L222.9,210.4 L218.3,217.8 L213.7,225.1 L209.1,232.5 L204.5,239.9 L199.7,247.9 L194.6,256.1 L189.6,264.4 L184.6,272.6 L179.5,280.8 L174.5,289.0" fill="none" stroke="#f43f5e" stroke-width="21" stroke-linecap="round" stroke-linejoin="round" opacity="0.95"/><path d="M227.5,203.0 L222.9,210.4 L218.3,217.8 L213.7,225.1 L209.1,232.5 L204.5,239.9 L199.7,247.9 L194.6,256.1 L189.6,264.4 L184.6,272.6 L179.5,280.8 L174.5,289.0" fill="none" stroke="#0c2020" stroke-width="13" stroke-linecap="round" stroke-linejoin="round" opacity="1.0"/><path d="M276.5,157.0 L272.0,161.2 L267.6,165.4 L263.1,169.5 L258.7,173.7 L254.2,177.9 L249.8,182.1 L245.3,186.3 L240.9,190.5 L236.4,194.6 L232.0,198.8 L227.5,203.0" fill="none" stroke="#2dd4bf" stroke-width="25" stroke-linecap="round" stroke-linejoin="round" opacity="0.95"/><path d="M276.5,157.0 L272.0,161.2 L267.6,165.4 L263.1,169.5 L258.7,173.7 L254.2,177.9 L249.8,182.1 L245.3,186.3 L240.9,190.5 L236.4,194.6 L232.0,198.8 L227.5,203.0" fill="none" stroke="#0c2020" stroke-width="17" stroke-linecap="round" stroke-linejoin="round" opacity="1.0"/><circle cx="291.5" cy="139.0" r="19.0" fill="#2dd4bf" stroke="none" stroke-width="0" opacity="0.95"/><circle cx="291.5" cy="139.0" r="15.0" fill="#0c2020" stroke="none" stroke-width="6.3" opacity="1.0"/><path d="M282.2,136.0 L283.9,136.0 L285.6,136.0 L287.3,136.0 L289.0,136.0 L290.7,136.0 L292.3,136.0 L294.0,136.0 L295.7,136.0 L297.4,136.0 L299.1,136.0 L300.8,136.0" fill="none" stroke="#a7f3ee" stroke-width="5" stroke-linecap="round" stroke-linejoin="round" opacity="1.0"/></g><g class="f5"><path d="M289.9,171.3 L289.8,175.2 L289.8,179.2 L289.7,183.1 L289.7,187.0 L289.6,191.0 L289.4,194.9 L289.0,198.7 L288.7,202.6 L288.3,206.4 L287.9,210.3 L287.5,214.2" fill="none" stroke="#2dd4bf" stroke-width="21" stroke-linecap="round" stroke-linejoin="round" opacity="0.95"/><path d="M289.9,171.3 L289.8,175.2 L289.8,179.2 L289.7,183.1 L289.7,187.0 L289.6,191.0 L289.4,194.9 L289.0,198.7 L288.7,202.6 L288.3,206.4 L287.9,210.3 L287.5,214.2" fill="none" stroke="#0c2020" stroke-width="13" stroke-linecap="round" stroke-linejoin="round" opacity="1.0"/><path d="M222.9,207.0 L215.7,214.1 L208.6,221.2 L201.4,228.2 L194.2,235.3 L187.1,242.3 L180.2,249.6 L173.5,257.0 L166.7,264.4 L160.0,271.8 L153.3,279.2 L146.6,286.5" fill="none" stroke="#8f2a3e" stroke-width="21" stroke-linecap="round" stroke-linejoin="round" opacity="0.95"/><path d="M222.9,207.0 L215.7,214.1 L208.6,221.2 L201.4,228.2 L194.2,235.3 L187.1,242.3 L180.2,249.6 L173.5,257.0 L166.7,264.4 L160.0,271.8 L153.3,279.2 L146.6,286.5" fill="none" stroke="#0c2020" stroke-width="13" stroke-linecap="round" stroke-linejoin="round" opacity="1.0"/><path d="M222.9,207.0 L216.1,213.8 L209.2,220.6 L202.4,227.4 L195.6,234.1 L188.7,240.9 L182.0,248.5 L175.2,256.4 L168.5,264.3 L161.7,272.2 L155.0,280.0 L148.2,287.9" fill="none" stroke="#f43f5e" stroke-width="21" stroke-linecap="round" stroke-linejoin="round" opacity="0.95"/><path d="M222.9,207.0 L216.1,213.8 L209.2,220.6 L202.4,227.4 L195.6,234.1 L188.7,240.9 L182.0,248.5 L175.2,256.4 L168.5,264.3 L161.7,272.2 L155.0,280.0 L148.2,287.9" fill="none" stroke="#0c2020" stroke-width="13" stroke-linecap="round" stroke-linejoin="round" opacity="1.0"/><path d="M289.9,171.3 L283.8,174.6 L277.7,177.8 L271.6,181.1 L265.5,184.3 L259.5,187.6 L253.4,190.8 L247.3,194.1 L241.2,197.3 L235.1,200.5 L229.0,203.8 L222.9,207.0" fill="none" stroke="#2dd4bf" stroke-width="25" stroke-linecap="round" stroke-linejoin="round" opacity="0.95"/><path d="M289.9,171.3 L283.8,174.6 L277.7,177.8 L271.6,181.1 L265.5,184.3 L259.5,187.6 L253.4,190.8 L247.3,194.1 L241.2,197.3 L235.1,200.5 L229.0,203.8 L222.9,207.0" fill="none" stroke="#0c2020" stroke-width="17" stroke-linecap="round" stroke-linejoin="round" opacity="1.0"/><circle cx="309.7" cy="157.0" r="19.0" fill="#2dd4bf" stroke="none" stroke-width="0" opacity="0.95"/><circle cx="309.7" cy="157.0" r="15.0" fill="#0c2020" stroke="none" stroke-width="6.3" opacity="1.0"/><path d="M300.4,154.0 L302.1,154.0 L303.8,154.0 L305.4,154.0 L307.1,154.0 L308.8,154.0 L310.5,154.0 L312.2,154.0 L313.9,154.0 L315.6,154.0 L317.3,154.0 L319.0,154.0" fill="none" stroke="#a7f3ee" stroke-width="5" stroke-linecap="round" stroke-linejoin="round" opacity="1.0"/></g><g class="f6"><path d="M301.6,183.8 L301.1,190.2 L300.6,196.5 L300.1,202.9 L299.6,209.2 L299.2,215.6 L298.6,221.9 L298.0,228.3 L297.3,234.6 L296.6,240.9 L296.0,247.2 L295.3,253.6" fill="none" stroke="#2dd4bf" stroke-width="21" stroke-linecap="round" stroke-linejoin="round" opacity="0.95"/><path d="M301.6,183.8 L301.1,190.2 L300.6,196.5 L300.1,202.9 L299.6,209.2 L299.2,215.6 L298.6,221.9 L298.0,228.3 L297.3,234.6 L296.6,240.9 L296.0,247.2 L295.3,253.6" fill="none" stroke="#0c2020" stroke-width="13" stroke-linecap="round" stroke-linejoin="round" opacity="1.0"/><path d="M218.9,210.6 L210.3,217.2 L201.7,223.7 L193.1,230.3 L184.6,236.9 L176.0,243.5 L167.7,250.4 L159.4,257.4 L151.2,264.3 L143.0,271.3 L134.8,278.3 L126.5,285.2" fill="none" stroke="#8f2a3e" stroke-width="21" stroke-linecap="round" stroke-linejoin="round" opacity="0.95"/><path d="M218.9,210.6 L210.3,217.2 L201.7,223.7 L193.1,230.3 L184.6,236.9 L176.0,243.5 L167.7,250.4 L159.4,257.4 L151.2,264.3 L143.0,271.3 L134.8,278.3 L126.5,285.2" fill="none" stroke="#0c2020" stroke-width="13" stroke-linecap="round" stroke-linejoin="round" opacity="1.0"/><path d="M218.9,210.6 L210.1,216.8 L201.3,223.1 L192.5,229.3 L183.7,235.6 L174.9,241.8 L166.6,249.1 L158.3,256.6 L150.1,264.2 L141.8,271.8 L133.6,279.4 L125.3,286.9" fill="none" stroke="#f43f5e" stroke-width="21" stroke-linecap="round" stroke-linejoin="round" opacity="0.95"/><path d="M218.9,210.6 L210.1,216.8 L201.3,223.1 L192.5,229.3 L183.7,235.6 L174.9,241.8 L166.6,249.1 L158.3,256.6 L150.1,264.2 L141.8,271.8 L133.6,279.4 L125.3,286.9" fill="none" stroke="#0c2020" stroke-width="13" stroke-linecap="round" stroke-linejoin="round" opacity="1.0"/><path d="M301.6,183.8 L294.1,186.2 L286.6,188.7 L279.0,191.1 L271.5,193.5 L264.0,196.0 L256.5,198.4 L249.0,200.8 L241.5,203.3 L233.9,205.7 L226.4,208.1 L218.9,210.6" fill="none" stroke="#2dd4bf" stroke-width="25" stroke-linecap="round" stroke-linejoin="round" opacity="0.95"/><path d="M301.6,183.8 L294.1,186.2 L286.6,188.7 L279.0,191.1 L271.5,193.5 L264.0,196.0 L256.5,198.4 L249.0,200.8 L241.5,203.3 L233.9,205.7 L226.4,208.1 L218.9,210.6" fill="none" stroke="#0c2020" stroke-width="17" stroke-linecap="round" stroke-linejoin="round" opacity="1.0"/><circle cx="325.5" cy="172.7" r="19.0" fill="#2dd4bf" stroke="none" stroke-width="0" opacity="0.95"/><circle cx="325.5" cy="172.7" r="15.0" fill="#0c2020" stroke="none" stroke-width="6.3" opacity="1.0"/><path d="M316.2,169.7 L317.9,169.7 L319.6,169.7 L321.3,169.7 L323.0,169.7 L324.7,169.7 L326.4,169.7 L328.1,169.7 L329.8,169.7 L331.4,169.7 L333.1,169.7 L334.8,169.7" fill="none" stroke="#a7f3ee" stroke-width="5" stroke-linecap="round" stroke-linejoin="round" opacity="1.0"/></g><g class="f7"><path d="M309.9,192.6 L309.1,200.7 L308.3,208.8 L307.5,216.9 L306.7,224.9 L305.9,233.0 L305.1,241.1 L304.2,249.2 L303.4,257.2 L302.6,265.3 L301.7,273.4 L300.9,281.4" fill="none" stroke="#2dd4bf" stroke-width="21" stroke-linecap="round" stroke-linejoin="round" opacity="0.95"/><path d="M309.9,192.6 L309.1,200.7 L308.3,208.8 L307.5,216.9 L306.7,224.9 L305.9,233.0 L305.1,241.1 L304.2,249.2 L303.4,257.2 L302.6,265.3 L301.7,273.4 L300.9,281.4" fill="none" stroke="#0c2020" stroke-width="13" stroke-linecap="round" stroke-linejoin="round" opacity="1.0"/><path d="M216.1,213.1 L206.5,219.3 L196.9,225.6 L187.3,231.8 L177.7,238.1 L168.1,244.4 L158.8,250.9 L149.5,257.6 L140.2,264.3 L130.9,271.0 L121.7,277.7 L112.4,284.3" fill="none" stroke="#8f2a3e" stroke-width="21" stroke-linecap="round" stroke-linejoin="round" opacity="0.95"/><path d="M216.1,213.1 L206.5,219.3 L196.9,225.6 L187.3,231.8 L177.7,238.1 L168.1,244.4 L158.8,250.9 L149.5,257.6 L140.2,264.3 L130.9,271.0 L121.7,277.7 L112.4,284.3" fill="none" stroke="#0c2020" stroke-width="13" stroke-linecap="round" stroke-linejoin="round" opacity="1.0"/><path d="M216.1,213.1 L205.9,218.9 L195.7,224.8 L185.5,230.7 L175.4,236.6 L165.2,242.4 L155.7,249.4 L146.4,256.8 L137.1,264.2 L127.8,271.5 L118.5,278.9 L109.1,286.3" fill="none" stroke="#f43f5e" stroke-width="21" stroke-linecap="round" stroke-linejoin="round" opacity="0.95"/><path d="M216.1,213.1 L205.9,218.9 L195.7,224.8 L185.5,230.7 L175.4,236.6 L165.2,242.4 L155.7,249.4 L146.4,256.8 L137.1,264.2 L127.8,271.5 L118.5,278.9 L109.1,286.3" fill="none" stroke="#0c2020" stroke-width="13" stroke-linecap="round" stroke-linejoin="round" opacity="1.0"/><path d="M309.9,192.6 L301.3,194.5 L292.8,196.4 L284.3,198.2 L275.8,200.1 L267.2,201.9 L258.7,203.8 L250.2,205.6 L241.7,207.5 L233.1,209.3 L224.6,211.2 L216.1,213.1" fill="none" stroke="#2dd4bf" stroke-width="25" stroke-linecap="round" stroke-linejoin="round" opacity="0.95"/><path d="M309.9,192.6 L301.3,194.5 L292.8,196.4 L284.3,198.2 L275.8,200.1 L267.2,201.9 L258.7,203.8 L250.2,205.6 L241.7,207.5 L233.1,209.3 L224.6,211.2 L216.1,213.1" fill="none" stroke="#0c2020" stroke-width="17" stroke-linecap="round" stroke-linejoin="round" opacity="1.0"/><circle cx="336.7" cy="183.8" r="19.0" fill="#2dd4bf" stroke="none" stroke-width="0" opacity="0.95"/><circle cx="336.7" cy="183.8" r="15.0" fill="#0c2020" stroke="none" stroke-width="6.3" opacity="1.0"/><path d="M327.4,180.8 L329.1,180.8 L330.8,180.8 L332.5,180.8 L334.2,180.8 L335.9,180.8 L337.6,180.8 L339.3,180.8 L341.0,180.8 L342.7,180.8 L344.4,180.8 L346.0,180.8" fill="none" stroke="#a7f3ee" stroke-width="5" stroke-linecap="round" stroke-linejoin="round" opacity="1.0"/></g><g class="f8"><path d="M313.0,196.0 L312.1,204.7 L311.2,213.5 L310.3,222.2 L309.4,230.9 L308.5,239.6 L307.5,248.4 L306.6,257.1 L305.7,265.8 L304.8,274.5 L303.9,283.3 L303.0,292.0" fill="none" stroke="#2dd4bf" stroke-width="21" stroke-linecap="round" stroke-linejoin="round" opacity="0.95"/><path d="M313.0,196.0 L312.1,204.7 L311.2,213.5 L310.3,222.2 L309.4,230.9 L308.5,239.6 L307.5,248.4 L306.6,257.1 L305.7,265.8 L304.8,274.5 L303.9,283.3 L303.0,292.0" fill="none" stroke="#0c2020" stroke-width="13" stroke-linecap="round" stroke-linejoin="round" opacity="1.0"/><path d="M215.0,214.0 L205.0,220.1 L195.1,226.3 L185.1,232.4 L175.1,238.5 L165.2,244.7 L155.4,251.1 L145.7,257.7 L136.1,264.3 L126.4,270.9 L116.7,277.4 L107.0,284.0" fill="none" stroke="#8f2a3e" stroke-width="21" stroke-linecap="round" stroke-linejoin="round" opacity="0.95"/><path d="M215.0,214.0 L205.0,220.1 L195.1,226.3 L185.1,232.4 L175.1,238.5 L165.2,244.7 L155.4,251.1 L145.7,257.7 L136.1,264.3 L126.4,270.9 L116.7,277.4 L107.0,284.0" fill="none" stroke="#0c2020" stroke-width="13" stroke-linecap="round" stroke-linejoin="round" opacity="1.0"/><path d="M215.0,214.0 L204.3,219.7 L193.6,225.5 L182.9,231.2 L172.2,236.9 L161.5,242.7 L151.6,249.6 L141.8,256.9 L132.1,264.1 L122.4,271.4 L112.7,278.7 L103.0,286.0" fill="none" stroke="#f43f5e" stroke-width="21" stroke-linecap="round" stroke-linejoin="round" opacity="0.95"/><path d="M215.0,214.0 L204.3,219.7 L193.6,225.5 L182.9,231.2 L172.2,236.9 L161.5,242.7 L151.6,249.6 L141.8,256.9 L132.1,264.1 L122.4,271.4 L112.7,278.7 L103.0,286.0" fill="none" stroke="#0c2020" stroke-width="13" stroke-linecap="round" stroke-linejoin="round" opacity="1.0"/><path d="M313.0,196.0 L304.1,197.6 L295.2,199.3 L286.3,200.9 L277.4,202.5 L268.5,204.2 L259.5,205.8 L250.6,207.5 L241.7,209.1 L232.8,210.7 L223.9,212.4 L215.0,214.0" fill="none" stroke="#2dd4bf" stroke-width="25" stroke-linecap="round" stroke-linejoin="round" opacity="0.95"/><path d="M313.0,196.0 L304.1,197.6 L295.2,199.3 L286.3,200.9 L277.4,202.5 L268.5,204.2 L259.5,205.8 L250.6,207.5 L241.7,209.1 L232.8,210.7 L223.9,212.4 L215.0,214.0" fill="none" stroke="#0c2020" stroke-width="17" stroke-linecap="round" stroke-linejoin="round" opacity="1.0"/><circle cx="341.0" cy="188.0" r="19.0" fill="#2dd4bf" stroke="none" stroke-width="0" opacity="0.95"/><circle cx="341.0" cy="188.0" r="15.0" fill="#0c2020" stroke="none" stroke-width="6.3" opacity="1.0"/><path d="M331.7,185.0 L333.4,185.0 L335.1,185.0 L336.8,185.0 L338.5,185.0 L340.2,185.0 L341.8,185.0 L343.5,185.0 L345.2,185.0 L346.9,185.0 L348.6,185.0 L350.3,185.0" fill="none" stroke="#a7f3ee" stroke-width="5" stroke-linecap="round" stroke-linejoin="round" opacity="1.0"/></g><g class="f9"><path d="M309.9,192.6 L309.1,200.7 L308.3,208.8 L307.5,216.9 L306.7,224.9 L305.9,233.0 L305.1,241.1 L304.2,249.2 L303.4,257.2 L302.6,265.3 L301.7,273.4 L300.9,281.4" fill="none" stroke="#2dd4bf" stroke-width="21" stroke-linecap="round" stroke-linejoin="round" opacity="0.95"/><path d="M309.9,192.6 L309.1,200.7 L308.3,208.8 L307.5,216.9 L306.7,224.9 L305.9,233.0 L305.1,241.1 L304.2,249.2 L303.4,257.2 L302.6,265.3 L301.7,273.4 L300.9,281.4" fill="none" stroke="#0c2020" stroke-width="13" stroke-linecap="round" stroke-linejoin="round" opacity="1.0"/><path d="M216.1,213.1 L206.5,219.3 L196.9,225.6 L187.3,231.8 L177.7,238.1 L168.1,244.4 L158.8,250.9 L149.5,257.6 L140.2,264.3 L130.9,271.0 L121.7,277.7 L112.4,284.3" fill="none" stroke="#8f2a3e" stroke-width="21" stroke-linecap="round" stroke-linejoin="round" opacity="0.95"/><path d="M216.1,213.1 L206.5,219.3 L196.9,225.6 L187.3,231.8 L177.7,238.1 L168.1,244.4 L158.8,250.9 L149.5,257.6 L140.2,264.3 L130.9,271.0 L121.7,277.7 L112.4,284.3" fill="none" stroke="#0c2020" stroke-width="13" stroke-linecap="round" stroke-linejoin="round" opacity="1.0"/><path d="M216.1,213.1 L205.9,218.9 L195.7,224.8 L185.5,230.7 L175.4,236.6 L165.2,242.4 L155.7,249.4 L146.4,256.8 L137.1,264.2 L127.8,271.5 L118.5,278.9 L109.1,286.3" fill="none" stroke="#f43f5e" stroke-width="21" stroke-linecap="round" stroke-linejoin="round" opacity="0.95"/><path d="M216.1,213.1 L205.9,218.9 L195.7,224.8 L185.5,230.7 L175.4,236.6 L165.2,242.4 L155.7,249.4 L146.4,256.8 L137.1,264.2 L127.8,271.5 L118.5,278.9 L109.1,286.3" fill="none" stroke="#0c2020" stroke-width="13" stroke-linecap="round" stroke-linejoin="round" opacity="1.0"/><path d="M309.9,192.6 L301.3,194.5 L292.8,196.4 L284.3,198.2 L275.8,200.1 L267.2,201.9 L258.7,203.8 L250.2,205.6 L241.7,207.5 L233.1,209.3 L224.6,211.2 L216.1,213.1" fill="none" stroke="#2dd4bf" stroke-width="25" stroke-linecap="round" stroke-linejoin="round" opacity="0.95"/><path d="M309.9,192.6 L301.3,194.5 L292.8,196.4 L284.3,198.2 L275.8,200.1 L267.2,201.9 L258.7,203.8 L250.2,205.6 L241.7,207.5 L233.1,209.3 L224.6,211.2 L216.1,213.1" fill="none" stroke="#0c2020" stroke-width="17" stroke-linecap="round" stroke-linejoin="round" opacity="1.0"/><circle cx="336.7" cy="183.8" r="19.0" fill="#2dd4bf" stroke="none" stroke-width="0" opacity="0.95"/><circle cx="336.7" cy="183.8" r="15.0" fill="#0c2020" stroke="none" stroke-width="6.3" opacity="1.0"/><path d="M327.4,180.8 L329.1,180.8 L330.8,180.8 L332.5,180.8 L334.2,180.8 L335.9,180.8 L337.6,180.8 L339.3,180.8 L341.0,180.8 L342.7,180.8 L344.4,180.8 L346.0,180.8" fill="none" stroke="#a7f3ee" stroke-width="5" stroke-linecap="round" stroke-linejoin="round" opacity="1.0"/></g><g class="f10"><path d="M301.6,183.8 L301.1,190.2 L300.6,196.5 L300.1,202.9 L299.6,209.2 L299.2,215.6 L298.6,221.9 L298.0,228.3 L297.3,234.6 L296.6,240.9 L296.0,247.2 L295.3,253.6" fill="none" stroke="#2dd4bf" stroke-width="21" stroke-linecap="round" stroke-linejoin="round" opacity="0.95"/><path d="M301.6,183.8 L301.1,190.2 L300.6,196.5 L300.1,202.9 L299.6,209.2 L299.2,215.6 L298.6,221.9 L298.0,228.3 L297.3,234.6 L296.6,240.9 L296.0,247.2 L295.3,253.6" fill="none" stroke="#0c2020" stroke-width="13" stroke-linecap="round" stroke-linejoin="round" opacity="1.0"/><path d="M218.9,210.6 L210.3,217.2 L201.7,223.7 L193.1,230.3 L184.6,236.9 L176.0,243.5 L167.7,250.4 L159.4,257.4 L151.2,264.3 L143.0,271.3 L134.8,278.3 L126.5,285.2" fill="none" stroke="#8f2a3e" stroke-width="21" stroke-linecap="round" stroke-linejoin="round" opacity="0.95"/><path d="M218.9,210.6 L210.3,217.2 L201.7,223.7 L193.1,230.3 L184.6,236.9 L176.0,243.5 L167.7,250.4 L159.4,257.4 L151.2,264.3 L143.0,271.3 L134.8,278.3 L126.5,285.2" fill="none" stroke="#0c2020" stroke-width="13" stroke-linecap="round" stroke-linejoin="round" opacity="1.0"/><path d="M218.9,210.6 L210.1,216.8 L201.3,223.1 L192.5,229.3 L183.7,235.6 L174.9,241.8 L166.6,249.1 L158.3,256.6 L150.1,264.2 L141.8,271.8 L133.6,279.4 L125.3,286.9" fill="none" stroke="#f43f5e" stroke-width="21" stroke-linecap="round" stroke-linejoin="round" opacity="0.95"/><path d="M218.9,210.6 L210.1,216.8 L201.3,223.1 L192.5,229.3 L183.7,235.6 L174.9,241.8 L166.6,249.1 L158.3,256.6 L150.1,264.2 L141.8,271.8 L133.6,279.4 L125.3,286.9" fill="none" stroke="#0c2020" stroke-width="13" stroke-linecap="round" stroke-linejoin="round" opacity="1.0"/><path d="M301.6,183.8 L294.1,186.2 L286.6,188.7 L279.0,191.1 L271.5,193.5 L264.0,196.0 L256.5,198.4 L249.0,200.8 L241.5,203.3 L233.9,205.7 L226.4,208.1 L218.9,210.6" fill="none" stroke="#2dd4bf" stroke-width="25" stroke-linecap="round" stroke-linejoin="round" opacity="0.95"/><path d="M301.6,183.8 L294.1,186.2 L286.6,188.7 L279.0,191.1 L271.5,193.5 L264.0,196.0 L256.5,198.4 L249.0,200.8 L241.5,203.3 L233.9,205.7 L226.4,208.1 L218.9,210.6" fill="none" stroke="#0c2020" stroke-width="17" stroke-linecap="round" stroke-linejoin="round" opacity="1.0"/><circle cx="325.5" cy="172.7" r="19.0" fill="#2dd4bf" stroke="none" stroke-width="0" opacity="0.95"/><circle cx="325.5" cy="172.7" r="15.0" fill="#0c2020" stroke="none" stroke-width="6.3" opacity="1.0"/><path d="M316.2,169.7 L317.9,169.7 L319.6,169.7 L321.3,169.7 L323.0,169.7 L324.7,169.7 L326.4,169.7 L328.1,169.7 L329.8,169.7 L331.4,169.7 L333.1,169.7 L334.8,169.7" fill="none" stroke="#a7f3ee" stroke-width="5" stroke-linecap="round" stroke-linejoin="round" opacity="1.0"/></g><g class="f11"><path d="M289.9,171.3 L289.8,175.2 L289.8,179.2 L289.7,183.1 L289.7,187.0 L289.6,191.0 L289.4,194.9 L289.0,198.7 L288.7,202.6 L288.3,206.4 L287.9,210.3 L287.5,214.2" fill="none" stroke="#2dd4bf" stroke-width="21" stroke-linecap="round" stroke-linejoin="round" opacity="0.95"/><path d="M289.9,171.3 L289.8,175.2 L289.8,179.2 L289.7,183.1 L289.7,187.0 L289.6,191.0 L289.4,194.9 L289.0,198.7 L288.7,202.6 L288.3,206.4 L287.9,210.3 L287.5,214.2" fill="none" stroke="#0c2020" stroke-width="13" stroke-linecap="round" stroke-linejoin="round" opacity="1.0"/><path d="M222.9,207.0 L215.7,214.1 L208.6,221.2 L201.4,228.2 L194.2,235.3 L187.1,242.3 L180.2,249.6 L173.5,257.0 L166.7,264.4 L160.0,271.8 L153.3,279.2 L146.6,286.5" fill="none" stroke="#8f2a3e" stroke-width="21" stroke-linecap="round" stroke-linejoin="round" opacity="0.95"/><path d="M222.9,207.0 L215.7,214.1 L208.6,221.2 L201.4,228.2 L194.2,235.3 L187.1,242.3 L180.2,249.6 L173.5,257.0 L166.7,264.4 L160.0,271.8 L153.3,279.2 L146.6,286.5" fill="none" stroke="#0c2020" stroke-width="13" stroke-linecap="round" stroke-linejoin="round" opacity="1.0"/><path d="M222.9,207.0 L216.1,213.8 L209.2,220.6 L202.4,227.4 L195.6,234.1 L188.7,240.9 L182.0,248.5 L175.2,256.4 L168.5,264.3 L161.7,272.2 L155.0,280.0 L148.2,287.9" fill="none" stroke="#f43f5e" stroke-width="21" stroke-linecap="round" stroke-linejoin="round" opacity="0.95"/><path d="M222.9,207.0 L216.1,213.8 L209.2,220.6 L202.4,227.4 L195.6,234.1 L188.7,240.9 L182.0,248.5 L175.2,256.4 L168.5,264.3 L161.7,272.2 L155.0,280.0 L148.2,287.9" fill="none" stroke="#0c2020" stroke-width="13" stroke-linecap="round" stroke-linejoin="round" opacity="1.0"/><path d="M289.9,171.3 L283.8,174.6 L277.7,177.8 L271.6,181.1 L265.5,184.3 L259.5,187.6 L253.4,190.8 L247.3,194.1 L241.2,197.3 L235.1,200.5 L229.0,203.8 L222.9,207.0" fill="none" stroke="#2dd4bf" stroke-width="25" stroke-linecap="round" stroke-linejoin="round" opacity="0.95"/><path d="M289.9,171.3 L283.8,174.6 L277.7,177.8 L271.6,181.1 L265.5,184.3 L259.5,187.6 L253.4,190.8 L247.3,194.1 L241.2,197.3 L235.1,200.5 L229.0,203.8 L222.9,207.0" fill="none" stroke="#0c2020" stroke-width="17" stroke-linecap="round" stroke-linejoin="round" opacity="1.0"/><circle cx="309.7" cy="157.0" r="19.0" fill="#2dd4bf" stroke="none" stroke-width="0" opacity="0.95"/><circle cx="309.7" cy="157.0" r="15.0" fill="#0c2020" stroke="none" stroke-width="6.3" opacity="1.0"/><path d="M300.4,154.0 L302.1,154.0 L303.8,154.0 L305.4,154.0 L307.1,154.0 L308.8,154.0 L310.5,154.0 L312.2,154.0 L313.9,154.0 L315.6,154.0 L317.3,154.0 L319.0,154.0" fill="none" stroke="#a7f3ee" stroke-width="5" stroke-linecap="round" stroke-linejoin="round" opacity="1.0"/></g><g class="f12"><path d="M276.5,157.0 L276.9,158.1 L277.4,159.3 L277.8,160.4 L278.3,161.6 L278.7,162.7 L278.9,163.8 L278.8,164.8 L278.8,165.9 L278.7,166.9 L278.6,168.0 L278.5,169.0" fill="none" stroke="#2dd4bf" stroke-width="21" stroke-linecap="round" stroke-linejoin="round" opacity="0.95"/><path d="M276.5,157.0 L276.9,158.1 L277.4,159.3 L277.8,160.4 L278.3,161.6 L278.7,162.7 L278.9,163.8 L278.8,164.8 L278.8,165.9 L278.7,166.9 L278.6,168.0 L278.5,169.0" fill="none" stroke="#0c2020" stroke-width="13" stroke-linecap="round" stroke-linejoin="round" opacity="1.0"/><path d="M227.5,203.0 L222.0,210.6 L216.4,218.2 L210.9,225.8 L205.3,233.4 L199.8,241.0 L194.6,248.8 L189.6,256.6 L184.6,264.5 L179.5,272.3 L174.5,280.2 L169.5,288.0" fill="none" stroke="#8f2a3e" stroke-width="21" stroke-linecap="round" stroke-linejoin="round" opacity="0.95"/><path d="M227.5,203.0 L222.0,210.6 L216.4,218.2 L210.9,225.8 L205.3,233.4 L199.8,241.0 L194.6,248.8 L189.6,256.6 L184.6,264.5 L179.5,272.3 L174.5,280.2 L169.5,288.0" fill="none" stroke="#0c2020" stroke-width="13" stroke-linecap="round" stroke-linejoin="round" opacity="1.0"/><path d="M227.5,203.0 L222.9,210.4 L218.3,217.8 L213.7,225.1 L209.1,232.5 L204.5,239.9 L199.7,247.9 L194.6,256.1 L189.6,264.4 L184.6,272.6 L179.5,280.8 L174.5,289.0" fill="none" stroke="#f43f5e" stroke-width="21" stroke-linecap="round" stroke-linejoin="round" opacity="0.95"/><path d="M227.5,203.0 L222.9,210.4 L218.3,217.8 L213.7,225.1 L209.1,232.5 L204.5,239.9 L199.7,247.9 L194.6,256.1 L189.6,264.4 L184.6,272.6 L179.5,280.8 L174.5,289.0" fill="none" stroke="#0c2020" stroke-width="13" stroke-linecap="round" stroke-linejoin="round" opacity="1.0"/><path d="M276.5,157.0 L272.0,161.2 L267.6,165.4 L263.1,169.5 L258.7,173.7 L254.2,177.9 L249.8,182.1 L245.3,186.3 L240.9,190.5 L236.4,194.6 L232.0,198.8 L227.5,203.0" fill="none" stroke="#2dd4bf" stroke-width="25" stroke-linecap="round" stroke-linejoin="round" opacity="0.95"/><path d="M276.5,157.0 L272.0,161.2 L267.6,165.4 L263.1,169.5 L258.7,173.7 L254.2,177.9 L249.8,182.1 L245.3,186.3 L240.9,190.5 L236.4,194.6 L232.0,198.8 L227.5,203.0" fill="none" stroke="#0c2020" stroke-width="17" stroke-linecap="round" stroke-linejoin="round" opacity="1.0"/><circle cx="291.5" cy="139.0" r="19.0" fill="#2dd4bf" stroke="none" stroke-width="0" opacity="0.95"/><circle cx="291.5" cy="139.0" r="15.0" fill="#0c2020" stroke="none" stroke-width="6.3" opacity="1.0"/><path d="M282.2,136.0 L283.9,136.0 L285.6,136.0 L287.3,136.0 L289.0,136.0 L290.7,136.0 L292.3,136.0 L294.0,136.0 L295.7,136.0 L297.4,136.0 L299.1,136.0 L300.8,136.0" fill="none" stroke="#a7f3ee" stroke-width="5" stroke-linecap="round" stroke-linejoin="round" opacity="1.0"/></g><g class="f13"><path d="M263.1,142.7 L264.0,141.0 L265.0,139.4 L265.9,137.7 L266.8,136.1 L267.8,134.5 L268.4,132.8 L268.6,131.0 L268.9,129.2 L269.1,127.4 L269.3,125.6 L269.5,123.8" fill="none" stroke="#2dd4bf" stroke-width="21" stroke-linecap="round" stroke-linejoin="round" opacity="0.95"/><path d="M263.1,142.7 L264.0,141.0 L265.0,139.4 L265.9,137.7 L266.8,136.1 L267.8,134.5 L268.4,132.8 L268.6,131.0 L268.9,129.2 L269.1,127.4 L269.3,125.6 L269.5,123.8" fill="none" stroke="#0c2020" stroke-width="13" stroke-linecap="round" stroke-linejoin="round" opacity="1.0"/><path d="M232.1,199.0 L228.2,207.1 L224.2,215.2 L220.3,223.4 L216.4,231.5 L212.5,239.6 L209.0,247.9 L205.7,256.2 L202.4,264.5 L199.1,272.8 L195.8,281.2 L192.4,289.5" fill="none" stroke="#8f2a3e" stroke-width="21" stroke-linecap="round" stroke-linejoin="round" opacity="0.95"/><path d="M232.1,199.0 L228.2,207.1 L224.2,215.2 L220.3,223.4 L216.4,231.5 L212.5,239.6 L209.0,247.9 L205.7,256.2 L202.4,264.5 L199.1,272.8 L195.8,281.2 L192.4,289.5" fill="none" stroke="#0c2020" stroke-width="13" stroke-linecap="round" stroke-linejoin="round" opacity="1.0"/><path d="M232.1,199.0 L229.7,206.9 L227.4,214.9 L225.0,222.9 L222.7,230.9 L220.3,238.9 L217.3,247.3 L214.0,255.9 L210.7,264.4 L207.4,273.0 L204.1,281.5 L200.8,290.1" fill="none" stroke="#f43f5e" stroke-width="21" stroke-linecap="round" stroke-linejoin="round" opacity="0.95"/><path d="M232.1,199.0 L229.7,206.9 L227.4,214.9 L225.0,222.9 L222.7,230.9 L220.3,238.9 L217.3,247.3 L214.0,255.9 L210.7,264.4 L207.4,273.0 L204.1,281.5 L200.8,290.1" fill="none" stroke="#0c2020" stroke-width="13" stroke-linecap="round" stroke-linejoin="round" opacity="1.0"/><path d="M263.1,142.7 L260.3,147.8 L257.5,152.9 L254.6,158.0 L251.8,163.1 L249.0,168.3 L246.2,173.4 L243.4,178.5 L240.5,183.6 L237.7,188.7 L234.9,193.8 L232.1,199.0" fill="none" stroke="#2dd4bf" stroke-width="25" stroke-linecap="round" stroke-linejoin="round" opacity="0.95"/><path d="M263.1,142.7 L260.3,147.8 L257.5,152.9 L254.6,158.0 L251.8,163.1 L249.0,168.3 L246.2,173.4 L243.4,178.5 L240.5,183.6 L237.7,188.7 L234.9,193.8 L232.1,199.0" fill="none" stroke="#0c2020" stroke-width="17" stroke-linecap="round" stroke-linejoin="round" opacity="1.0"/><circle cx="273.3" cy="121.0" r="19.0" fill="#2dd4bf" stroke="none" stroke-width="0" opacity="0.95"/><circle cx="273.3" cy="121.0" r="15.0" fill="#0c2020" stroke="none" stroke-width="6.3" opacity="1.0"/><path d="M264.0,118.0 L265.7,118.0 L267.4,118.0 L269.1,118.0 L270.8,118.0 L272.5,118.0 L274.2,118.0 L275.9,118.0 L277.6,118.0 L279.2,118.0 L280.9,118.0 L282.6,118.0" fill="none" stroke="#a7f3ee" stroke-width="5" stroke-linecap="round" stroke-linejoin="round" opacity="1.0"/></g><g class="f14"><path d="M251.4,130.2 L252.8,126.1 L254.1,122.0 L255.5,118.0 L256.9,113.9 L258.2,109.8 L259.2,105.7 L259.7,101.4 L260.2,97.2 L260.7,92.9 L261.2,88.7 L261.7,84.4" fill="none" stroke="#2dd4bf" stroke-width="21" stroke-linecap="round" stroke-linejoin="round" opacity="0.95"/><path d="M251.4,130.2 L252.8,126.1 L254.1,122.0 L255.5,118.0 L256.9,113.9 L258.2,109.8 L259.2,105.7 L259.7,101.4 L260.2,97.2 L260.7,92.9 L261.2,88.7 L261.7,84.4" fill="none" stroke="#0c2020" stroke-width="13" stroke-linecap="round" stroke-linejoin="round" opacity="1.0"/><path d="M236.1,195.4 L233.6,204.0 L231.1,212.6 L228.6,221.2 L226.0,229.8 L223.5,238.4 L221.5,247.1 L219.7,255.9 L217.9,264.6 L216.1,273.3 L214.3,282.0 L212.5,290.8" fill="none" stroke="#8f2a3e" stroke-width="21" stroke-linecap="round" stroke-linejoin="round" opacity="0.95"/><path d="M236.1,195.4 L233.6,204.0 L231.1,212.6 L228.6,221.2 L226.0,229.8 L223.5,238.4 L221.5,247.1 L219.7,255.9 L217.9,264.6 L216.1,273.3 L214.3,282.0 L212.5,290.8" fill="none" stroke="#0c2020" stroke-width="13" stroke-linecap="round" stroke-linejoin="round" opacity="1.0"/><path d="M236.1,195.4 L235.7,204.0 L235.3,212.5 L234.9,221.0 L234.5,229.5 L234.1,238.0 L232.7,246.8 L230.9,255.6 L229.1,264.5 L227.3,273.3 L225.5,282.2 L223.7,291.1" fill="none" stroke="#f43f5e" stroke-width="21" stroke-linecap="round" stroke-linejoin="round" opacity="0.95"/><path d="M236.1,195.4 L235.7,204.0 L235.3,212.5 L234.9,221.0 L234.5,229.5 L234.1,238.0 L232.7,246.8 L230.9,255.6 L229.1,264.5 L227.3,273.3 L225.5,282.2 L223.7,291.1" fill="none" stroke="#0c2020" stroke-width="13" stroke-linecap="round" stroke-linejoin="round" opacity="1.0"/><path d="M251.4,130.2 L250.0,136.1 L248.6,142.1 L247.2,148.0 L245.8,153.9 L244.4,159.8 L243.1,165.8 L241.7,171.7 L240.3,177.6 L238.9,183.6 L237.5,189.5 L236.1,195.4" fill="none" stroke="#2dd4bf" stroke-width="25" stroke-linecap="round" stroke-linejoin="round" opacity="0.95"/><path d="M251.4,130.2 L250.0,136.1 L248.6,142.1 L247.2,148.0 L245.8,153.9 L244.4,159.8 L243.1,165.8 L241.7,171.7 L240.3,177.6 L238.9,183.6 L237.5,189.5 L236.1,195.4" fill="none" stroke="#0c2020" stroke-width="17" stroke-linecap="round" stroke-linejoin="round" opacity="1.0"/><circle cx="257.5" cy="105.3" r="19.0" fill="#2dd4bf" stroke="none" stroke-width="0" opacity="0.95"/><circle cx="257.5" cy="105.3" r="15.0" fill="#0c2020" stroke="none" stroke-width="6.3" opacity="1.0"/><path d="M248.2,102.3 L249.9,102.3 L251.6,102.3 L253.2,102.3 L254.9,102.3 L256.6,102.3 L258.3,102.3 L260.0,102.3 L261.7,102.3 L263.4,102.3 L265.1,102.3 L266.8,102.3" fill="none" stroke="#a7f3ee" stroke-width="5" stroke-linecap="round" stroke-linejoin="round" opacity="1.0"/></g><g class="f15"><path d="M243.1,121.4 L244.8,115.6 L246.5,109.8 L248.2,104.0 L249.8,98.2 L251.5,92.4 L252.8,86.5 L253.4,80.5 L254.1,74.5 L254.8,68.5 L255.4,62.6 L256.1,56.6" fill="none" stroke="#2dd4bf" stroke-width="21" stroke-linecap="round" stroke-linejoin="round" opacity="0.95"/><path d="M243.1,121.4 L244.8,115.6 L246.5,109.8 L248.2,104.0 L249.8,98.2 L251.5,92.4 L252.8,86.5 L253.4,80.5 L254.1,74.5 L254.8,68.5 L255.4,62.6 L256.1,56.6" fill="none" stroke="#0c2020" stroke-width="13" stroke-linecap="round" stroke-linejoin="round" opacity="1.0"/><path d="M238.9,192.9 L237.4,201.9 L235.9,210.8 L234.4,219.7 L232.9,228.7 L231.4,237.6 L230.4,246.6 L229.6,255.6 L228.9,264.6 L228.1,273.6 L227.4,282.6 L226.6,291.7" fill="none" stroke="#8f2a3e" stroke-width="21" stroke-linecap="round" stroke-linejoin="round" opacity="0.95"/><path d="M238.9,192.9 L237.4,201.9 L235.9,210.8 L234.4,219.7 L232.9,228.7 L231.4,237.6 L230.4,246.6 L229.6,255.6 L228.9,264.6 L228.1,273.6 L227.4,282.6 L226.6,291.7" fill="none" stroke="#0c2020" stroke-width="13" stroke-linecap="round" stroke-linejoin="round" opacity="1.0"/><path d="M238.9,192.9 L239.9,201.8 L240.9,210.7 L241.9,219.6 L242.8,228.5 L243.8,237.4 L243.6,246.4 L242.9,255.5 L242.1,264.5 L241.4,273.6 L240.6,282.7 L239.9,291.7" fill="none" stroke="#f43f5e" stroke-width="21" stroke-linecap="round" stroke-linejoin="round" opacity="0.95"/><path d="M238.9,192.9 L239.9,201.8 L240.9,210.7 L241.9,219.6 L242.8,228.5 L243.8,237.4 L243.6,246.4 L242.9,255.5 L242.1,264.5 L241.4,273.6 L240.6,282.7 L239.9,291.7" fill="none" stroke="#0c2020" stroke-width="13" stroke-linecap="round" stroke-linejoin="round" opacity="1.0"/><path d="M243.1,121.4 L242.8,127.9 L242.4,134.4 L242.0,140.9 L241.6,147.4 L241.2,153.9 L240.8,160.4 L240.5,166.9 L240.1,173.4 L239.7,179.9 L239.3,186.4 L238.9,192.9" fill="none" stroke="#2dd4bf" stroke-width="25" stroke-linecap="round" stroke-linejoin="round" opacity="0.95"/><path d="M243.1,121.4 L242.8,127.9 L242.4,134.4 L242.0,140.9 L241.6,147.4 L241.2,153.9 L240.8,160.4 L240.5,166.9 L240.1,173.4 L239.7,179.9 L239.3,186.4 L238.9,192.9" fill="none" stroke="#0c2020" stroke-width="17" stroke-linecap="round" stroke-linejoin="round" opacity="1.0"/><circle cx="246.3" cy="94.2" r="19.0" fill="#2dd4bf" stroke="none" stroke-width="0" opacity="0.95"/><circle cx="246.3" cy="94.2" r="15.0" fill="#0c2020" stroke="none" stroke-width="6.3" opacity="1.0"/><path d="M237.0,91.2 L238.6,91.2 L240.3,91.2 L242.0,91.2 L243.7,91.2 L245.4,91.2 L247.1,91.2 L248.8,91.2 L250.5,91.2 L252.2,91.2 L253.9,91.2 L255.6,91.2" fill="none" stroke="#a7f3ee" stroke-width="5" stroke-linecap="round" stroke-linejoin="round" opacity="1.0"/></g></svg>
