<svg xmlns="http://www.w3.org/2000/svg" viewBox="0 0 480 320"><style>@keyframes k0{0%{opacity:1}11.111%{opacity:0}100%{opacity:0}}.f0{opacity:0;animation:k0 2.4s steps(1,end) infinite}@keyframes k1{0%{opacity:0}11.111%{opacity:1}16.667%{opacity:0}100%{opacity:0}}.f1{opacity:0;animation:k1 2.4s steps(1,end) infinite}@keyframes k2{0%{opacity:0}16.667%{opacity:1}22.222%{opacity:0}100%{opacity:0}}.f2{opacity:0;animation:k2 2.4s steps(1,end) infinite}@keyframes k3{0%{opacity:0}22.222%{opacity:1}27.778%{opacity:0}100%{opacity:0}}.f3{opacity:0;animation:k3 2.4s steps(1,end) infinite}@keyframes k4{0%{opacity:0}27.778%{opacity:1}33.333%{opacity:0}100%{opacity:0}}.f4{opacity:0;animation:k4 2.4s steps(1,end) infinite}@keyframes k5{0%{opacity:0}33.333%{opacity:1}38.889%{opacity:0}100%{opacity:0}}.f5{opacity:0;animation:k5 2.4s steps(1,end) infinite}@keyframes k6{0%{opacity:0}38.889%{opacity:1}44.444%{opacity:0}100%{opacity:0}}.f6{opacity:0;animation:k6 2.4s steps(1,end) infinite}@keyframes k7{0%{opacity:0}44.444%{opacity:1}50.000%{opacity:0}100%{opacity:0}}.f7{opacity:0;animation:k7 2.4s steps(1,end) infinite}@keyframes k8{0%{opacity:0}50.000%{opacity:1}61.111%{opacity:0}100%{opacity:0}}.f8{opacity:0;animation:k8 2.4s steps(1,end) infinite}@keyframes k9{0%{opacity:0}61.111%{opacity:1}66.667%{opacity:0}100%{opacity:0}}.f9{opacity:0;animation:k9 2.4s steps(1,end) infinite}@keyframes k10{0%{opacity:0}66.667%{opacity:1}72.222%{opacity:0}100%{opacity:0}}.f10{opacity:0;animation:k10 2.4s steps(1,end) infinite}@keyframes k11{0%{opacity:0}72.222%{opacity:1}77.778%{opacity:0}100%{opacity:0}}.f11{opacity:0;animation:k11 2.4s steps(1,end) infinite}@keyframes k12{0%{opacity:0}77.778%{opacity:1}83.333%{opacity:0}100%{opacity:0}}.f12{opacity:0;animation:k12 2.4s steps(1,end) infinite}@keyframes k13{0%{opacity:0}83.333%{opacity:1}88.889%{opacity:0}100%{opacity:0}}.f13{opacity:0;animation:k13 2.4s steps(1,end) infinite}@keyframes k14{0%{opacity:0}88.889%{opacity:1}94.444%{opacity:0}100%{opacity:0}}.f14{opacity:0;animation:k14 2.4s steps(1,end) infinite}@keyframes k15{0%{opacity:0}94.444%{opacity:1}100%{opacity:1}}.f15{opacity:0;animation:k15 2.4s steps(1,end) infinite}</style><path d="M40.0,292.0 L440.0,292.0" fill="none" stroke="#1f3333" stroke-width="6" stroke-linecap="round" stroke-linejoin="round" opacity="1.0"/><g class="f0"><path d="M240.0,118.0 L246.6,119.7 L253.2,121.5 L259.9,123.2 L266.5,125.0 L273.1,126.7 L279.8,127.9 L286.6,127.5 L293.5,127.1 L300.3,126.8 L307.2,126.4 L314.0,126.0" fill="none" stroke="#2dd4bf" stroke-width="19" stroke-linecap="round" stroke-linejoin="round" opacity="0.95"/><path d="M240.0,118.0 L246.6,119.7 L253.2,121.5 L259.9,123.2 L266.5,125.0 L273.1,126.7 L279.8,127.9 L286.6,127.5 L293.5,127.1 L300.3,126.8 L307.2,126.4 L314.0,126.0" fill="none" stroke="#0c2020" stroke-width="11" stroke-linecap="round" stroke-linejoin="round" opacity="1.0"/><path d="M240.0,192.0 L238.9,201.1 L237.7,210.1 L236.6,219.2 L235.5,228.2 L234.3,237.3 L233.8,246.4 L233.4,255.5 L233.1,264.6 L232.7,273.8 L232.4,282.9 L232.0,292.0" fill="none" stroke="#8f2a3e" stroke-width="19" stroke-linecap="round" stroke-linejoin="round" opacity="0.95"/><path d="M240.0,192.0 L238.9,201.1 L237.7,210.1 L236.6,219.2 L235.5,228.2 L234.3,237.3 L233.8,246.4 L233.4,255.5 L233.1,264.6 L232.7,273.8 L232.4,282.9 L232.0,292.0" fill="none" stroke="#0c2020" stroke-width="11" stroke-linecap="round" stroke-linejoin="round" opacity="1.0"/><path d="M240.0,192.0 L241.5,201.0 L243.0,210.1 L244.5,219.1 L246.0,228.1 L247.5,237.2 L247.8,246.3 L247.4,255.4 L247.1,264.6 L246.7,273.7 L246.4,282.9 L246.0,292.0" fill="none" stroke="#f43f5e" stroke-width="19" stroke-linecap="round" stroke-linejoin="round" opacity="0.95"/><path d="M240.0,192.0 L241.5,201.0 L243.0,210.1 L244.5,219.1 L246.0,228.1 L247.5,237.2 L247.8,246.3 L247.4,255.4 L247.1,264.6 L246.7,273.7 L246.4,282.9 L246.0,292.0" fill="none" stroke="#0c2020" stroke-width="11" stroke-linecap="round" stroke-linejoin="round" opacity="1.0"/><path d="M240.0,118.0 L240.0,124.7 L240.0,131.5 L240.0,138.2 L240.0,144.9 L240.0,151.6 L240.0,158.4 L240.0,165.1 L240.0,171.8 L240.0,178.5 L240.0,185.3 L240.0,192.0" fill="none" stroke="#2dd4bf" stroke-width="23" stroke-linecap="round" stroke-linejoin="round" opacity="0.95"/><path d="M240.0,118.0 L240.0,124.7 L240.0,131.5 L240.0,138.2 L240.0,144.9 L240.0,151.6 L240.0,158.4 L240.0,165.1 L240.0,171.8 L240.0,178.5 L240.0,185.3 L240.0,192.0" fill="none" stroke="#0c2020" stroke-width="15" stroke-linecap="round" stroke-linejoin="round" opacity="1.0"/><circle cx="242.0" cy="90.0" r="19.0" fill="#2dd4bf" stroke="none" stroke-width="0" opacity="0.95"/><circle cx="242.0" cy="90.0" r="15.0" fill="#0c2020" stroke="none" stroke-width="6.3" opacity="1.0"/><path d="M240.0,73.0 L237.0,76.0 L234.0,79.0 L231.1,81.9 L228.1,84.9 L225.1,87.9 L222.1,90.9 L221.5,94.5 L222.4,98.6 L223.3,102.8 L224.1,106.9 L225.0,111.0" fill="none" stroke="#2dd4bf" stroke-width="5" stroke-linecap="round" stroke-linejoin="round" opacity="1.0"/><path d="M232.7,87.0 L234.4,87.0 L236.1,87.0 L237.8,87.0 L239.5,87.0 L241.2,87.0 L242.8,87.0 L244.5,87.0 L246.2,87.0 L247.9,87.0 L249.6,87.0 L251.3,87.0" fill="none" stroke="#a7f3ee" stroke-width="5" stroke-linecap="round" stroke-linejoin="round" opacity="1.0"/></g><g class="f1"><path d="M239.6,119.7 L246.2,121.5 L252.8,123.2 L259.4,125.0 L266.0,126.7 L272.7,128.4 L279.3,129.6 L286.2,129.2 L293.0,128.9 L299.8,128.5 L306.7,128.1 L313.5,127.7" fill="none" stroke="#2dd4bf" stroke-width="19" stroke-linecap="round" stroke-linejoin="round" opacity="0.95"/><path d="M239.6,119.7 L246.2,121.5 L252.8,123.2 L259.4,125.0 L266.0,126.7 L272.7,128.4 L279.3,129.6 L286.2,129.2 L293.0,128.9 L299.8,128.5 L306.7,128.1 L313.5,127.7" fill="none" stroke="#0c2020" stroke-width="11" stroke-linecap="round" stroke-linejoin="round" opacity="1.0"/><path d="M238.6,194.0 L238.0,202.7 L237.3,211.4 L236.6,220.1 L236.0,228.8 L235.3,237.5 L235.1,246.3 L234.7,255.4 L234.3,264.6 L233.8,273.7 L233.4,282.9 L232.9,292.0" fill="none" stroke="#8f2a3e" stroke-width="19" stroke-linecap="round" stroke-linejoin="round" opacity="0.95"/><path d="M238.6,194.0 L238.0,202.7 L237.3,211.4 L236.6,220.1 L236.0,228.8 L235.3,237.5 L235.1,246.3 L234.7,255.4 L234.3,264.6 L233.8,273.7 L233.4,282.9 L232.9,292.0" fill="none" stroke="#0c2020" stroke-width="11" stroke-linecap="round" stroke-linejoin="round" opacity="1.0"/><path d="M238.6,194.0 L240.5,202.7 L242.4,211.4 L244.2,220.1 L246.1,228.8 L247.9,237.5 L248.6,246.2 L248.3,255.3 L247.9,264.5 L247.5,273.7 L247.0,282.8 L246.6,292.0" fill="none" stroke="#f43f5e" stroke-width="19" stroke-linecap="round" stroke-linejoin="round" opacity="0.95"/><path d="M238.6,194.0 L240.5,202.7 L242.4,211.4 L244.2,220.1 L246.1,228.8 L247.9,237.5 L248.6,246.2 L248.3,255.3 L247.9,264.5 L247.5,273.7 L247.0,282.8 L246.6,292.0" fill="none" stroke="#0c2020" stroke-width="11" stroke-linecap="round" stroke-linejoin="round" opacity="1.0"/><path d="M239.6,119.7 L239.5,126.5 L239.4,133.2 L239.3,140.0 L239.2,146.7 L239.1,153.5 L239.1,160.2 L239.0,167.0 L238.9,173.7 L238.8,180.5 L238.7,187.2 L238.6,194.0" fill="none" stroke="#2dd4bf" stroke-width="23" stroke-linecap="round" stroke-linejoin="round" opacity="0.95"/><path d="M239.6,119.7 L239.5,126.5 L239.4,133.2 L239.3,140.0 L239.2,146.7 L239.1,153.5 L239.1,160.2 L239.0,167.0 L238.9,173.7 L238.8,180.5 L238.7,187.2 L238.6,194.0" fill="none" stroke="#0c2020" stroke-width="15" stroke-linecap="round" stroke-linejoin="round" opacity="1.0"/><circle cx="241.7" cy="91.7" r="19.0" fill="#2dd4bf" stroke="none" stroke-width="0" opacity="0.95"/><circle cx="241.7" cy="91.7" r="15.0" fill="#0c2020" stroke="none" stroke-width="6.3" opacity="1.0"/><path d="M239.7,74.7 L236.8,77.7 L233.8,80.7 L230.8,83.6 L227.8,86.6 L224.9,89.6 L221.9,92.6 L221.3,96.2 L222.1,100.4 L223.0,104.5 L223.9,108.6 L224.7,112.7" fill="none" stroke="#2dd4bf" stroke-width="5" stroke-linecap="round" stroke-linejoin="round" opacity="1.0"/><path d="M232.4,88.7 L234.1,88.7 L235.8,88.7 L237.5,88.7 L239.2,88.7 L240.9,88.7 L242.6,88.7 L244.3,88.7 L246.0,88.7 L247.7,88.7 L249.4,88.7 L251.0,88.7" fill="none" stroke="#a7f3ee" stroke-width="5" stroke-linecap="round" stroke-linejoin="round" opacity="1.0"/></g><g class="f2"><path d="M238.4,124.2 L245.0,126.0 L251.6,127.7 L258.2,129.5 L264.8,131.2 L271.4,133.0 L278.1,134.1 L284.9,133.8 L291.7,133.4 L298.5,133.0 L305.3,132.6 L312.1,132.2" fill="none" stroke="#2dd4bf" stroke-width="19" stroke-linecap="round" stroke-linejoin="round" opacity="0.95"/><path d="M238.4,124.2 L245.0,126.0 L251.6,127.7 L258.2,129.5 L264.8,131.2 L271.4,133.0 L278.1,134.1 L284.9,133.8 L291.7,133.4 L298.5,133.0 L305.3,132.6 L312.1,132.2" fill="none" stroke="#0c2020" stroke-width="11" stroke-linecap="round" stroke-linejoin="round" opacity="1.0"/><path d="M235.0,199.2 L235.6,207.0 L236.1,214.8 L236.7,222.6 L237.3,230.4 L237.8,238.2 L238.8,246.1 L238.1,255.3 L237.4,264.5 L236.8,273.6 L236.1,282.8 L235.4,292.0" fill="none" stroke="#8f2a3e" stroke-width="19" stroke-linecap="round" stroke-linejoin="round" opacity="0.95"/><path d="M235.0,199.2 L235.6,207.0 L236.1,214.8 L236.7,222.6 L237.3,230.4 L237.8,238.2 L238.8,246.1 L238.1,255.3 L237.4,264.5 L236.8,273.6 L236.1,282.8 L235.4,292.0" fill="none" stroke="#0c2020" stroke-width="11" stroke-linecap="round" stroke-linejoin="round" opacity="1.0"/><path d="M235.0,199.2 L237.8,207.0 L240.6,214.8 L243.4,222.6 L246.3,230.5 L249.1,238.3 L250.8,246.2 L250.7,255.0 L250.1,264.3 L249.4,273.5 L248.8,282.8 L248.2,292.0" fill="none" stroke="#f43f5e" stroke-width="19" stroke-linecap="round" stroke-linejoin="round" opacity="0.95"/><path d="M235.0,199.2 L237.8,207.0 L240.6,214.8 L243.4,222.6 L246.3,230.5 L249.1,238.3 L250.8,246.2 L250.7,255.0 L250.1,264.3 L249.4,273.5 L248.8,282.8 L248.2,292.0" fill="none" stroke="#0c2020" stroke-width="11" stroke-linecap="round" stroke-linejoin="round" opacity="1.0"/><path d="M238.4,124.2 L238.1,131.1 L237.8,137.9 L237.5,144.7 L237.2,151.5 L236.9,158.3 L236.6,165.1 L236.2,171.9 L235.9,178.8 L235.6,185.6 L235.3,192.4 L235.0,199.2" fill="none" stroke="#2dd4bf" stroke-width="23" stroke-linecap="round" stroke-linejoin="round" opacity="0.95"/><path d="M238.4,124.2 L238.1,131.1 L237.8,137.9 L237.5,144.7 L237.2,151.5 L236.9,158.3 L236.6,165.1 L236.2,171.9 L235.9,178.8 L235.6,185.6 L235.3,192.4 L235.0,199.2" fill="none" stroke="#0c2020" stroke-width="15" stroke-linecap="round" stroke-linejoin="round" opacity="1.0"/><circle cx="241.1" cy="96.2" r="19.0" fill="#2dd4bf" stroke="none" stroke-width="0" opacity="0.95"/><circle cx="241.1" cy="96.2" r="15.0" fill="#0c2020" stroke="none" stroke-width="6.3" opacity="1.0"/><path d="M239.1,79.2 L236.1,82.2 L233.1,85.2 L230.1,88.2 L227.2,91.2 L224.2,94.1 L221.2,97.1 L220.6,100.8 L221.5,104.9 L222.3,109.0 L223.2,113.1 L224.1,117.2" fill="none" stroke="#2dd4bf" stroke-width="5" stroke-linecap="round" stroke-linejoin="round" opacity="1.0"/><path d="M231.8,93.2 L233.5,93.2 L235.1,93.2 L236.8,93.2 L238.5,93.2 L240.2,93.2 L241.9,93.2 L243.6,93.2 L245.3,93.2 L247.0,93.2 L248.7,93.2 L250.4,93.2" fill="none" stroke="#a7f3ee" stroke-width="5" stroke-linecap="round" stroke-linejoin="round" opacity="1.0"/></g><g class="f3"><path d="M236.8,130.7 L243.4,132.4 L250.0,134.2 L256.5,135.9 L263.1,137.7 L269.7,139.4 L276.3,140.5 L283.1,140.2 L289.9,139.8 L296.6,139.4 L303.4,139.0 L310.2,138.7" fill="none" stroke="#2dd4bf" stroke-width="19" stroke-linecap="round" stroke-linejoin="round" opacity="0.95"/><path d="M236.8,130.7 L243.4,132.4 L250.0,134.2 L256.5,135.9 L263.1,137.7 L269.7,139.4 L276.3,140.5 L283.1,140.2 L289.9,139.8 L296.6,139.4 L303.4,139.0 L310.2,138.7" fill="none" stroke="#0c2020" stroke-width="11" stroke-linecap="round" stroke-linejoin="round" opacity="1.0"/><path d="M229.9,206.6 L232.2,213.1 L234.5,219.6 L236.8,226.1 L239.1,232.6 L241.4,239.1 L243.9,245.8 L242.9,255.0 L241.9,264.3 L240.9,273.5 L240.0,282.8 L239.0,292.0" fill="none" stroke="#8f2a3e" stroke-width="19" stroke-linecap="round" stroke-linejoin="round" opacity="0.95"/><path d="M229.9,206.6 L232.2,213.1 L234.5,219.6 L236.8,226.1 L239.1,232.6 L241.4,239.1 L243.9,245.8 L242.9,255.0 L241.9,264.3 L240.9,273.5 L240.0,282.8 L239.0,292.0" fill="none" stroke="#0c2020" stroke-width="11" stroke-linecap="round" stroke-linejoin="round" opacity="1.0"/><path d="M229.9,206.6 L234.0,213.1 L238.2,219.7 L242.3,226.3 L246.5,232.9 L250.7,239.4 L253.9,246.1 L254.1,254.7 L253.2,264.0 L252.2,273.3 L251.3,282.7 L250.4,292.0" fill="none" stroke="#f43f5e" stroke-width="19" stroke-linecap="round" stroke-linejoin="round" opacity="0.95"/><path d="M229.9,206.6 L234.0,213.1 L238.2,219.7 L242.3,226.3 L246.5,232.9 L250.7,239.4 L253.9,246.1 L254.1,254.7 L253.2,264.0 L252.2,273.3 L251.3,282.7 L250.4,292.0" fill="none" stroke="#0c2020" stroke-width="11" stroke-linecap="round" stroke-linejoin="round" opacity="1.0"/><path d="M236.8,130.7 L236.2,137.6 L235.6,144.5 L234.9,151.4 L234.3,158.3 L233.7,165.2 L233.0,172.1 L232.4,179.0 L231.8,185.9 L231.1,192.8 L230.5,199.7 L229.9,206.6" fill="none" stroke="#2dd4bf" stroke-width="23" stroke-linecap="round" stroke-linejoin="round" opacity="0.95"/><path d="M236.8,130.7 L236.2,137.6 L235.6,144.5 L234.9,151.4 L234.3,158.3 L233.7,165.2 L233.0,172.1 L232.4,179.0 L231.8,185.9 L231.1,192.8 L230.5,199.7 L229.9,206.6" fill="none" stroke="#0c2020" stroke-width="15" stroke-linecap="round" stroke-linejoin="round" opacity="1.0"/><circle cx="240.1" cy="102.7" r="19.0" fill="#2dd4bf" stroke="none" stroke-width="0" opacity="0.95"/><circle cx="240.1" cy="102.7" r="15.0" fill="#0c2020" stroke="none" stroke-width="6.3" opacity="1.0"/><path d="M238.1,85.7 L235.1,88.6 L232.2,91.6 L229.2,94.6 L226.2,97.6 L223.2,100.5 L220.2,103.5 L219.6,107.2 L220.5,111.3 L221.4,115.4 L222.2,119.5 L223.1,123.7" fill="none" stroke="#2dd4bf" stroke-width="5" stroke-linecap="round" stroke-linejoin="round" opacity="1.0"/><path d="M230.8,99.7 L232.5,99.7 L234.2,99.7 L235.9,99.7 L237.6,99.7 L239.3,99.7 L240.9,99.7 L242.6,99.7 L244.3,99.7 L246.0,99.7 L247.7,99.7 L249.4,99.7" fill="none" stroke="#a7f3ee" stroke-width="5" stroke-linecap="round" stroke-linejoin="round" opacity="1.0"/></g><g class="f4"><path d="M235.0,138.0 L241.5,139.8 L248.1,141.5 L254.6,143.3 L261.1,145.1 L267.6,146.8 L274.2,147.9 L281.0,147.5 L287.7,147.1 L294.5,146.8 L301.2,146.4 L308.0,146.0" fill="none" stroke="#2dd4bf" stroke-width="19" stroke-linecap="round" stroke-linejoin="round" opacity="0.95"/><path d="M235.0,138.0 L241.5,139.8 L248.1,141.5 L254.6,143.3 L261.1,145.1 L267.6,146.8 L274.2,147.9 L281.0,147.5 L287.7,147.1 L294.5,146.8 L301.2,146.4 L308.0,146.0" fill="none" stroke="#0c2020" stroke-width="11" stroke-linecap="round" stroke-linejoin="round" opacity="1.0"/><path d="M224.0,215.0 L228.3,220.0 L232.6,225.1 L236.9,230.1 L241.2,235.1 L245.5,240.2 L249.8,245.4 L248.5,254.7 L247.1,264.1 L245.7,273.4 L244.4,282.7 L243.0,292.0" fill="none" stroke="#8f2a3e" stroke-width="19" stroke-linecap="round" stroke-linejoin="round" opacity="0.95"/><path d="M224.0,215.0 L228.3,220.0 L232.6,225.1 L236.9,230.1 L241.2,235.1 L245.5,240.2 L249.8,245.4 L248.5,254.7 L247.1,264.1 L245.7,273.4 L244.4,282.7 L243.0,292.0" fill="none" stroke="#0c2020" stroke-width="11" stroke-linecap="round" stroke-linejoin="round" opacity="1.0"/><path d="M224.0,215.0 L229.7,220.2 L235.4,225.3 L241.1,230.5 L246.8,235.6 L252.5,240.8 L257.5,246.0 L257.9,254.2 L256.7,263.7 L255.5,273.1 L254.2,282.6 L253.0,292.0" fill="none" stroke="#f43f5e" stroke-width="19" stroke-linecap="round" stroke-linejoin="round" opacity="0.95"/><path d="M224.0,215.0 L229.7,220.2 L235.4,225.3 L241.1,230.5 L246.8,235.6 L252.5,240.8 L257.5,246.0 L257.9,254.2 L256.7,263.7 L255.5,273.1 L254.2,282.6 L253.0,292.0" fill="none" stroke="#0c2020" stroke-width="11" stroke-linecap="round" stroke-linejoin="round" opacity="1.0"/><path d="M235.0,138.0 L234.0,145.0 L233.0,152.0 L232.0,159.0 L231.0,166.0 L230.0,173.0 L229.0,180.0 L228.0,187.0 L227.0,194.0 L226.0,201.0 L225.0,208.0 L224.0,215.0" fill="none" stroke="#2dd4bf" stroke-width="23" stroke-linecap="round" stroke-linejoin="round" opacity="0.95"/><path d="M235.0,138.0 L234.0,145.0 L233.0,152.0 L232.0,159.0 L231.0,166.0 L230.0,173.0 L229.0,180.0 L228.0,187.0 L227.0,194.0 L226.0,201.0 L225.0,208.0 L224.0,215.0" fill="none" stroke="#0c2020" stroke-width="15" stroke-linecap="round" stroke-linejoin="round" opacity="1.0"/><circle cx="239.0" cy="110.0" r="19.0" fill="#2dd4bf" stroke="none" stroke-width="0" opacity="0.95"/><circle cx="239.0" cy="110.0" r="15.0" fill="#0c2020" stroke="none" stroke-width="6.3" opacity="1.0"/><path d="M237.0,93.0 L234.0,96.0 L231.0,99.0 L228.1,101.9 L225.1,104.9 L222.1,107.9 L219.1,110.9 L218.5,114.5 L219.4,118.6 L220.3,122.8 L221.1,126.9 L222.0,131.0" fill="none" stroke="#2dd4bf" stroke-width="5" stroke-linecap="round" stroke-linejoin="round" opacity="1.0"/><path d="M229.7,107.0 L231.4,107.0 L233.1,107.0 L234.8,107.0 L236.5,107.0 L238.2,107.0 L239.8,107.0 L241.5,107.0 L243.2,107.0 L244.9,107.0 L246.6,107.0 L248.3,107.0" fill="none" stroke="#a7f3ee" stroke-width="5" stroke-linecap="round" stroke-linejoin="round" opacity="1.0"/></g><g class="f5"><path d="M233.2,145.3 L239.7,147.1 L246.1,148.9 L252.6,150.7 L259.1,152.4 L265.6,154.2 L272.2,155.2 L278.9,154.8 L285.6,154.5 L292.4,154.1 L299.1,153.7 L305.8,153.3" fill="none" stroke="#2dd4bf" stroke-width="19" stroke-linecap="round" stroke-linejoin="round" opacity="0.95"/><path d="M233.2,145.3 L239.7,147.1 L246.1,148.9 L252.6,150.7 L259.1,152.4 L265.6,154.2 L272.2,155.2 L278.9,154.8 L285.6,154.5 L292.4,154.1 L299.1,153.7 L305.8,153.3" fill="none" stroke="#0c2020" stroke-width="11" stroke-linecap="round" stroke-linejoin="round" opacity="1.0"/><path d="M218.1,223.4 L224.4,227.0 L230.7,230.6 L237.0,234.1 L243.3,237.7 L249.6,241.2 L255.7,245.1 L254.0,254.5 L252.2,263.8 L250.5,273.2 L248.8,282.6 L247.0,292.0" fill="none" stroke="#8f2a3e" stroke-width="19" stroke-linecap="round" stroke-linejoin="round" opacity="0.95"/><path d="M218.1,223.4 L224.4,227.0 L230.7,230.6 L237.0,234.1 L243.3,237.7 L249.6,241.2 L255.7,245.1 L254.0,254.5 L252.2,263.8 L250.5,273.2 L248.8,282.6 L247.0,292.0" fill="none" stroke="#0c2020" stroke-width="11" stroke-linecap="round" stroke-linejoin="round" opacity="1.0"/><path d="M218.1,223.4 L225.4,227.2 L232.6,230.9 L239.8,234.6 L247.0,238.4 L254.3,242.1 L261.1,245.8 L261.8,253.8 L260.2,263.4 L258.7,272.9 L257.1,282.5 L255.6,292.0" fill="none" stroke="#f43f5e" stroke-width="19" stroke-linecap="round" stroke-linejoin="round" opacity="0.95"/><path d="M218.1,223.4 L225.4,227.2 L232.6,230.9 L239.8,234.6 L247.0,238.4 L254.3,242.1 L261.1,245.8 L261.8,253.8 L260.2,263.4 L258.7,272.9 L257.1,282.5 L255.6,292.0" fill="none" stroke="#0c2020" stroke-width="11" stroke-linecap="round" stroke-linejoin="round" opacity="1.0"/><path d="M233.2,145.3 L231.8,152.4 L230.4,159.5 L229.1,166.6 L227.7,173.7 L226.3,180.8 L225.0,187.9 L223.6,195.0 L222.2,202.1 L220.9,209.2 L219.5,216.3 L218.1,223.4" fill="none" stroke="#2dd4bf" stroke-width="23" stroke-linecap="round" stroke-linejoin="round" opacity="0.95"/><path d="M233.2,145.3 L231.8,152.4 L230.4,159.5 L229.1,166.6 L227.7,173.7 L226.3,180.8 L225.0,187.9 L223.6,195.0 L222.2,202.1 L220.9,209.2 L219.5,216.3 L218.1,223.4" fill="none" stroke="#0c2020" stroke-width="15" stroke-linecap="round" stroke-linejoin="round" opacity="1.0"/><circle cx="237.9" cy="117.3" r="19.0" fill="#2dd4bf" stroke="none" stroke-width="0" opacity="0.95"/><circle cx="237.9" cy="117.3" r="15.0" fill="#0c2020" stroke="none" stroke-width="6.3" opacity="1.0"/><path d="M235.9,100.3 L232.9,103.3 L229.9,106.3 L227.0,109.3 L224.0,112.2 L221.0,115.2 L218.0,118.2 L217.4,121.9 L218.3,126.0 L219.2,130.1 L220.0,134.2 L220.9,138.3" fill="none" stroke="#2dd4bf" stroke-width="5" stroke-linecap="round" stroke-linejoin="round" opacity="1.0"/><path d="M228.6,114.3 L230.3,114.3 L232.0,114.3 L233.7,114.3 L235.4,114.3 L237.1,114.3 L238.7,114.3 L240.4,114.3 L242.1,114.3 L243.8,114.3 L245.5,114.3 L247.2,114.3" fill="none" stroke="#a7f3ee" stroke-width="5" stroke-linecap="round" stroke-linejoin="round" opacity="1.0"/></g><g class="f6"><path d="M231.6,151.8 L238.0,153.5 L244.5,155.3 L250.9,157.1 L257.4,158.9 L263.9,160.6 L270.4,161.6 L277.1,161.2 L283.8,160.9 L290.5,160.5 L297.2,160.1 L303.9,159.8" fill="none" stroke="#2dd4bf" stroke-width="19" stroke-linecap="round" stroke-linejoin="round" opacity="0.95"/><path d="M231.6,151.8 L238.0,153.5 L244.5,155.3 L250.9,157.1 L257.4,158.9 L263.9,160.6 L270.4,161.6 L277.1,161.2 L283.8,160.9 L290.5,160.5 L297.2,160.1 L303.9,159.8" fill="none" stroke="#0c2020" stroke-width="11" stroke-linecap="round" stroke-linejoin="round" opacity="1.0"/><path d="M213.0,230.8 L221.0,233.1 L229.1,235.3 L237.1,237.6 L245.2,239.9 L253.2,242.1 L260.9,244.8 L258.8,254.2 L256.7,263.7 L254.7,273.1 L252.6,282.6 L250.6,292.0" fill="none" stroke="#8f2a3e" stroke-width="19" stroke-linecap="round" stroke-linejoin="round" opacity="0.95"/><path d="M213.0,230.8 L221.0,233.1 L229.1,235.3 L237.1,237.6 L245.2,239.9 L253.2,242.1 L260.9,244.8 L258.8,254.2 L256.7,263.7 L254.7,273.1 L252.6,282.6 L250.6,292.0" fill="none" stroke="#0c2020" stroke-width="11" stroke-linecap="round" stroke-linejoin="round" opacity="1.0"/><path d="M213.0,230.8 L221.6,233.3 L230.1,235.8 L238.7,238.3 L247.3,240.8 L255.9,243.2 L264.2,245.7 L265.2,253.4 L263.3,263.1 L261.5,272.7 L259.7,282.4 L257.8,292.0" fill="none" stroke="#f43f5e" stroke-width="19" stroke-linecap="round" stroke-linejoin="round" opacity="0.95"/><path d="M213.0,230.8 L221.6,233.3 L230.1,235.8 L238.7,238.3 L247.3,240.8 L255.9,243.2 L264.2,245.7 L265.2,253.4 L263.3,263.1 L261.5,272.7 L259.7,282.4 L257.8,292.0" fill="none" stroke="#0c2020" stroke-width="11" stroke-linecap="round" stroke-linejoin="round" opacity="1.0"/><path d="M231.6,151.8 L229.9,158.9 L228.2,166.1 L226.5,173.3 L224.8,180.5 L223.1,187.7 L221.4,194.9 L219.8,202.1 L218.1,209.2 L216.4,216.4 L214.7,223.6 L213.0,230.8" fill="none" stroke="#2dd4bf" stroke-width="23" stroke-linecap="round" stroke-linejoin="round" opacity="0.95"/><path d="M231.6,151.8 L229.9,158.9 L228.2,166.1 L226.5,173.3 L224.8,180.5 L223.1,187.7 L221.4,194.9 L219.8,202.1 L218.1,209.2 L216.4,216.4 L214.7,223.6 L213.0,230.8" fill="none" stroke="#0c2020" stroke-width="15" stroke-linecap="round" stroke-linejoin="round" opacity="1.0"/><circle cx="236.9" cy="123.8" r="19.0" fill="#2dd4bf" stroke="none" stroke-width="0" opacity="0.95"/><circle cx="236.9" cy="123.8" r="15.0" fill="#0c2020" stroke="none" stroke-width="6.3" opacity="1.0"/><path d="M234.9,106.8 L232.0,109.7 L229.0,112.7 L226.0,115.7 L223.0,118.7 L220.1,121.6 L217.1,124.6 L216.5,128.3 L217.3,132.4 L218.2,136.5 L219.1,140.6 L219.9,144.8" fill="none" stroke="#2dd4bf" stroke-width="5" stroke-linecap="round" stroke-linejoin="round" opacity="1.0"/><path d="M227.6,120.8 L229.3,120.8 L231.0,120.8 L232.7,120.8 L234.4,120.8 L236.1,120.8 L237.8,120.8 L239.5,120.8 L241.2,120.8 L242.9,120.8 L244.5,120.8 L246.2,120.8" fill="none" stroke="#a7f3ee" stroke-width="5" stroke-linecap="round" stroke-linejoin="round" opacity="1.0"/></g><g class="f7"><path d="M230.4,156.3 L236.9,158.1 L243.3,159.9 L249.7,161.6 L256.2,163.4 L262.6,165.2 L269.2,166.1 L275.8,165.8 L282.5,165.4 L289.2,165.0 L295.8,164.7 L302.5,164.3" fill="none" stroke="#2dd4bf" stroke-width="19" stroke-linecap="round" stroke-linejoin="round" opacity="0.95"/><path d="M230.4,156.3 L236.9,158.1 L243.3,159.9 L249.7,161.6 L256.2,163.4 L262.6,165.2 L269.2,166.1 L275.8,165.8 L282.5,165.4 L289.2,165.0 L295.8,164.7 L302.5,164.3" fill="none" stroke="#0c2020" stroke-width="11" stroke-linecap="round" stroke-linejoin="round" opacity="1.0"/><path d="M209.4,236.0 L218.7,237.4 L227.9,238.7 L237.2,240.1 L246.5,241.4 L255.8,242.8 L264.5,244.6 L262.2,254.0 L259.9,263.5 L257.6,273.0 L255.3,282.5 L253.1,292.0" fill="none" stroke="#8f2a3e" stroke-width="19" stroke-linecap="round" stroke-linejoin="round" opacity="0.95"/><path d="M209.4,236.0 L218.7,237.4 L227.9,238.7 L237.2,240.1 L246.5,241.4 L255.8,242.8 L264.5,244.6 L262.2,254.0 L259.9,263.5 L257.6,273.0 L255.3,282.5 L253.1,292.0" fill="none" stroke="#0c2020" stroke-width="11" stroke-linecap="round" stroke-linejoin="round" opacity="1.0"/><path d="M209.4,236.0 L218.9,237.6 L228.4,239.2 L237.9,240.8 L247.5,242.5 L257.0,244.1 L266.4,245.7 L267.6,253.2 L265.5,262.9 L263.5,272.6 L261.4,282.3 L259.4,292.0" fill="none" stroke="#f43f5e" stroke-width="19" stroke-linecap="round" stroke-linejoin="round" opacity="0.95"/><path d="M209.4,236.0 L218.9,237.6 L228.4,239.2 L237.9,240.8 L247.5,242.5 L257.0,244.1 L266.4,245.7 L267.6,253.2 L265.5,262.9 L263.5,272.6 L261.4,282.3 L259.4,292.0" fill="none" stroke="#0c2020" stroke-width="11" stroke-linecap="round" stroke-linejoin="round" opacity="1.0"/><path d="M230.4,156.3 L228.5,163.5 L226.6,170.8 L224.7,178.0 L222.8,185.3 L220.9,192.5 L218.9,199.8 L217.0,207.0 L215.1,214.3 L213.2,221.5 L211.3,228.8 L209.4,236.0" fill="none" stroke="#2dd4bf" stroke-width="23" stroke-linecap="round" stroke-linejoin="round" opacity="0.95"/><path d="M230.4,156.3 L228.5,163.5 L226.6,170.8 L224.7,178.0 L222.8,185.3 L220.9,192.5 L218.9,199.8 L217.0,207.0 L215.1,214.3 L213.2,221.5 L211.3,228.8 L209.4,236.0" fill="none" stroke="#0c2020" stroke-width="15" stroke-linecap="round" stroke-linejoin="round" opacity="1.0"/><circle cx="236.3" cy="128.3" r="19.0" fill="#2dd4bf" stroke="none" stroke-width="0" opacity="0.95"/><circle cx="236.3" cy="128.3" r="15.0" fill="#0c2020" stroke="none" stroke-width="6.3" opacity="1.0"/><path d="M234.3,111.3 L231.3,114.3 L228.3,117.2 L225.3,120.2 L222.4,123.2 L219.4,126.2 L216.4,129.1 L215.8,132.8 L216.7,136.9 L217.5,141.0 L218.4,145.2 L219.3,149.3" fill="none" stroke="#2dd4bf" stroke-width="5" stroke-linecap="round" stroke-linejoin="round" opacity="1.0"/><path d="M227.0,125.3 L228.6,125.3 L230.3,125.3 L232.0,125.3 L233.7,125.3 L235.4,125.3 L237.1,125.3 L238.8,125.3 L240.5,125.3 L242.2,125.3 L243.9,125.3 L245.6,125.3" fill="none" stroke="#a7f3ee" stroke-width="5" stroke-linecap="round" stroke-linejoin="round" opacity="1.0"/></g><g class="f8"><path d="M230.0,158.0 L236.4,159.8 L242.9,161.6 L249.3,163.4 L255.7,165.1 L262.2,166.9 L268.7,167.9 L275.3,167.5 L282.0,167.1 L288.7,166.7 L295.3,166.4 L302.0,166.0" fill="none" stroke="#2dd4bf" stroke-width="19" stroke-linecap="round" stroke-linejoin="round" opacity="0.95"/><path d="M230.0,158.0 L236.4,159.8 L242.9,161.6 L249.3,163.4 L255.7,165.1 L262.2,166.9 L268.7,167.9 L275.3,167.5 L282.0,167.1 L288.7,166.7 L295.3,166.4 L302.0,166.0" fill="none" stroke="#0c2020" stroke-width="11" stroke-linecap="round" stroke-linejoin="round" opacity="1.0"/><path d="M208.0,238.0 L217.7,239.0 L227.5,240.0 L237.2,241.0 L247.0,242.0 L256.7,243.0 L265.9,244.5 L263.5,254.0 L261.1,263.5 L258.8,273.0 L256.4,282.5 L254.0,292.0" fill="none" stroke="#8f2a3e" stroke-width="19" stroke-linecap="round" stroke-linejoin="round" opacity="0.95"/><path d="M208.0,238.0 L217.7,239.0 L227.5,240.0 L237.2,241.0 L247.0,242.0 L256.7,243.0 L265.9,244.5 L263.5,254.0 L261.1,263.5 L258.8,273.0 L256.4,282.5 L254.0,292.0" fill="none" stroke="#0c2020" stroke-width="11" stroke-linecap="round" stroke-linejoin="round" opacity="1.0"/><path d="M208.0,238.0 L217.9,239.3 L227.8,240.5 L237.6,241.8 L247.5,243.1 L257.4,244.4 L267.3,245.6 L268.5,253.1 L266.3,262.8 L264.2,272.5 L262.1,282.3 L260.0,292.0" fill="none" stroke="#f43f5e" stroke-width="19" stroke-linecap="round" stroke-linejoin="round" opacity="0.95"/><path d="M208.0,238.0 L217.9,239.3 L227.8,240.5 L237.6,241.8 L247.5,243.1 L257.4,244.4 L267.3,245.6 L268.5,253.1 L266.3,262.8 L264.2,272.5 L262.1,282.3 L260.0,292.0" fill="none" stroke="#0c2020" stroke-width="11" stroke-linecap="round" stroke-linejoin="round" opacity="1.0"/><path d="M230.0,158.0 L228.0,165.3 L226.0,172.5 L224.0,179.8 L222.0,187.1 L220.0,194.4 L218.0,201.6 L216.0,208.9 L214.0,216.2 L212.0,223.5 L210.0,230.7 L208.0,238.0" fill="none" stroke="#2dd4bf" stroke-width="23" stroke-linecap="round" stroke-linejoin="round" opacity="0.95"/><path d="M230.0,158.0 L228.0,165.3 L226.0,172.5 L224.0,179.8 L222.0,187.1 L220.0,194.4 L218.0,201.6 L216.0,208.9 L214.0,216.2 L212.0,223.5 L210.0,230.7 L208.0,238.0" fill="none" stroke="#0c2020" stroke-width="15" stroke-linecap="round" stroke-linejoin="round" opacity="1.0"/><circle cx="236.0" cy="130.0" r="19.0" fill="#2dd4bf" stroke="none" stroke-width="0" opacity="0.95"/><circle cx="236.0" cy="130.0" r="15.0" fill="#0c2020" stroke="none" stroke-width="6.3" opacity="1.0"/><path d="M234.0,113.0 L231.0,116.0 L228.0,119.0 L225.1,121.9 L222.1,124.9 L219.1,127.9 L216.1,130.9 L215.5,134.5 L216.4,138.6 L217.3,142.8 L218.1,146.9 L219.0,151.0" fill="none" stroke="#2dd4bf" stroke-width="5" stroke-linecap="round" stroke-linejoin="round" opacity="1.0"/><path d="M226.7,127.0 L228.4,127.0 L230.1,127.0 L231.8,127.0 L233.5,127.0 L235.2,127.0 L236.8,127.0 L238.5,127.0 L240.2,127.0 L241.9,127.0 L243.6,127.0 L245.3,127.0" fill="none" stroke="#a7f3ee" stroke-width="5" stroke-linecap="round" stroke-linejoin="round" opacity="1.0"/></g><g class="f9"><path d="M230.4,156.3 L236.9,158.1 L243.3,159.9 L249.7,161.6 L256.2,163.4 L262.6,165.2 L269.2,166.1 L275.8,165.8 L282.5,165.4 L289.2,165.0 L295.8,164.7 L302.5,164.3" fill="none" stroke="#2dd4bf" stroke-width="19" stroke-linecap="round" stroke-linejoin="round" opacity="0.95"/><path d="M230.4,156.3 L236.9,158.1 L243.3,159.9 L249.7,161.6 L256.2,163.4 L262.6,165.2 L269.2,166.1 L275.8,165.8 L282.5,165.4 L289.2,165.0 L295.8,164.7 L302.5,164.3" fill="none" stroke="#0c2020" stroke-width="11" stroke-linecap="round" stroke-linejoin="round" opacity="1.0"/><path d="M209.4,236.0 L218.7,237.4 L227.9,238.7 L237.2,240.1 L246.5,241.4 L255.8,242.8 L264.5,244.6 L262.2,254.0 L259.9,263.5 L257.6,273.0 L255.3,282.5 L253.1,292.0" fill="none" stroke="#8f2a3e" stroke-width="19" stroke-linecap="round" stroke-linejoin="round" opacity="0.95"/><path d="M209.4,236.0 L218.7,237.4 L227.9,238.7 L237.2,240.1 L246.5,241.4 L255.8,242.8 L264.5,244.6 L262.2,254.0 L259.9,263.5 L257.6,273.0 L255.3,282.5 L253.1,292.0" fill="none" stroke="#0c2020" stroke-width="11" stroke-linecap="round" stroke-linejoin="round" opacity="1.0"/><path d="M209.4,236.0 L218.9,237.6 L228.4,239.2 L237.9,240.8 L247.5,242.5 L257.0,244.1 L266.4,245.7 L267.6,253.2 L265.5,262.9 L263.5,272.6 L261.4,282.3 L259.4,292.0" fill="none" stroke="#f43f5e" stroke-width="19" stroke-linecap="round" stroke-linejoin="round" opacity="0.95"/><path d="M209.4,236.0 L218.9,237.6 L228.4,239.2 L237.9,240.8 L247.5,242.5 L257.0,244.1 L266.4,245.7 L267.6,253.2 L265.5,262.9 L263.5,272.6 L261.4,282.3 L259.4,292.0" fill="none" stroke="#0c2020" stroke-width="11" stroke-linecap="round" stroke-linejoin="round" opacity="1.0"/><path d="M230.4,156.3 L228.5,163.5 L226.6,170.8 L224.7,178.0 L222.8,185.3 L220.9,192.5 L218.9,199.8 L217.0,207.0 L215.1,214.3 L213.2,221.5 L211.3,228.8 L209.4,236.0" fill="none" stroke="#2dd4bf" stroke-width="23" stroke-linecap="round" stroke-linejoin="round" opacity="0.95"/><path d="M230.4,156.3 L228.5,163.5 L226.6,170.8 L224.7,178.0 L222.8,185.3 L220.9,192.5 L218.9,199.8 L217.0,207.0 L215.1,214.3 L213.2,221.5 L211.3,228.8 L209.4,236.0" fill="none" stroke="#0c2020" stroke-width="15" stroke-linecap="round" stroke-linejoin="round" opacity="1.0"/><circle cx="236.3" cy="128.3" r="19.0" fill="#2dd4bf" stroke="none" stroke-width="0" opacity="0.95"/><circle cx="236.3" cy="128.3" r="15.0" fill="#0c2020" stroke="none" stroke-width="6.3" opacity="1.0"/><path d="M234.3,111.3 L231.3,114.3 L228.3,117.2 L225.3,120.2 L222.4,123.2 L219.4,126.2 L216.4,129.1 L215.8,132.8 L216.7,136.9 L217.5,141.0 L218.4,145.2 L219.3,149.3" fill="none" stroke="#2dd4bf" stroke-width="5" stroke-linecap="round" stroke-linejoin="round" opacity="1.0"/><path d="M227.0,125.3 L228.6,125.3 L230.3,125.3 L232.0,125.3 L233.7,125.3 L235.4,125.3 L237.1,125.3 L238.8,125.3 L240.5,125.3 L242.2,125.3 L243.9,125.3 L245.6,125.3" fill="none" stroke="#a7f3ee" stroke-width="5" stroke-linecap="round" stroke-linejoin="round" opacity="1.0"/></g><g class="f10"><path d="M231.6,151.8 L238.0,153.5 L244.5,155.3 L250.9,157.1 L257.4,158.9 L263.9,160.6 L270.4,161.6 L277.1,161.2 L283.8,160.9 L290.5,160.5 L297.2,160.1 L303.9,159.8" fill="none" stroke="#2dd4bf" stroke-width="19" stroke-linecap="round" stroke-linejoin="round" opacity="0.95"/><path d="M231.6,151.8 L238.0,153.5 L244.5,155.3 L250.9,157.1 L257.4,158.9 L263.9,160.6 L270.4,161.6 L277.1,161.2 L283.8,160.9 L290.5,160.5 L297.2,160.1 L303.9,159.8" fill="none" stroke="#0c2020" stroke-width="11" stroke-linecap="round" stroke-linejoin="round" opacity="1.0"/><path d="M213.0,230.8 L221.0,233.1 L229.1,235.3 L237.1,237.6 L245.2,239.9 L253.2,242.1 L260.9,244.8 L258.8,254.2 L256.7,263.7 L254.7,273.1 L252.6,282.6 L250.6,292.0" fill="none" stroke="#8f2a3e" stroke-width="19" stroke-linecap="round" stroke-linejoin="round" opacity="0.95"/><path d="M213.0,230.8 L221.0,233.1 L229.1,235.3 L237.1,237.6 L245.2,239.9 L253.2,242.1 L260.9,244.8 L258.8,254.2 L256.7,263.7 L254.7,273.1 L252.6,282.6 L250.6,292.0" fill="none" stroke="#0c2020" stroke-width="11" stroke-linecap="round" stroke-linejoin="round" opacity="1.0"/><path d="M213.0,230.8 L221.6,233.3 L230.1,235.8 L238.7,238.3 L247.3,240.8 L255.9,243.2 L264.2,245.7 L265.2,253.4 L263.3,263.1 L261.5,272.7 L259.7,282.4 L257.8,292.0" fill="none" stroke="#f43f5e" stroke-width="19" stroke-linecap="round" stroke-linejoin="round" opacity="0.95"/><path d="M213.0,230.8 L221.6,233.3 L230.1,235.8 L238.7,238.3 L247.3,240.8 L255.9,243.2 L264.2,245.7 L265.2,253.4 L263.3,263.1 L261.5,272.7 L259.7,282.4 L257.8,292.0" fill="none" stroke="#0c2020" stroke-width="11" stroke-linecap="round" stroke-linejoin="round" opacity="1.0"/><path d="M231.6,151.8 L229.9,158.9 L228.2,166.1 L226.5,173.3 L224.8,180.5 L223.1,187.7 L221.4,194.9 L219.8,202.1 L218.1,209.2 L216.4,216.4 L214.7,223.6 L213.0,230.8" fill="none" stroke="#2dd4bf" stroke-width="23" stroke-linecap="round" stroke-linejoin="round" opacity="0.95"/><path d="M231.6,151.8 L229.9,158.9 L228.2,166.1 L226.5,173.3 L224.8,180.5 L223.1,187.7 L221.4,194.9 L219.8,202.1 L218.1,209.2 L216.4,216.4 L214.7,223.6 L213.0,230.8" fill="none" stroke="#0c2020" stroke-width="15" stroke-linecap="round" stroke-linejoin="round" opacity="1.0"/><circle cx="236.9" cy="123.8" r="19.0" fill="#2dd4bf" stroke="none" stroke-width="0" opacity="0.95"/><circle cx="236.9" cy="123.8" r="15.0" fill="#0c2020" stroke="none" stroke-width="6.3" opacity="1.0"/><path d="M234.9,106.8 L232.0,109.7 L229.0,112.7 L226.0,115.7 L223.0,118.7 L220.1,121.6 L217.1,124.6 L216.5,128.3 L217.3,132.4 L218.2,136.5 L219.1,140.6 L219.9,144.8" fill="none" stroke="#2dd4bf" stroke-width="5" stroke-linecap="round" stroke-linejoin="round" opacity="1.0"/><path d="M227.6,120.8 L229.3,120.8 L231.0,120.8 L232.7,120.8 L234.4,120.8 L236.1,120.8 L237.8,120.8 L239.5,120.8 L241.2,120.8 L242.9,120.8 L244.5,120.8 L246.2,120.8" fill="none" stroke="#a7f3ee" stroke-width="5" stroke-linecap="round" stroke-linejoin="round" opacity="1.0"/></g><g class="f11"><path d="M233.2,145.3 L239.7,147.1 L246.1,148.9 L252.6,150.7 L259.1,152.4 L265.6,154.2 L272.2,155.2 L278.9,154.8 L285.6,154.5 L292.4,154.1 L299.1,153.7 L305.8,153.3" fill="none" stroke="#2dd4bf" stroke-width="19" stroke-linecap="round" stroke-linejoin="round" opacity="0.95"/><path d="M233.2,145.3 L239.7,147.1 L246.1,148.9 L252.6,150.7 L259.1,152.4 L265.6,154.2 L272.2,155.2 L278.9,154.8 L285.6,154.5 L292.4,154.1 L299.1,153.7 L305.8,153.3" fill="none" stroke="#0c2020" stroke-width="11" stroke-linecap="round" stroke-linejoin="round" opacity="1.0"/><path d="M218.1,223.4 L224.4,227.0 L230.7,230.6 L237.0,234.1 L243.3,237.7 L249.6,241.2 L255.7,245.1 L254.0,254.5 L252.2,263.8 L250.5,273.2 L248.8,282.6 L247.0,292.0" fill="none" stroke="#8f2a3e" stroke-width="19" stroke-linecap="round" stroke-linejoin="round" opacity="0.95"/><path d="M218.1,223.4 L224.4,227.0 L230.7,230.6 L237.0,234.1 L243.3,237.7 L249.6,241.2 L255.7,245.1 L254.0,254.5 L252.2,263.8 L250.5,273.2 L248.8,282.6 L247.0,292.0" fill="none" stroke="#0c2020" stroke-width="11" stroke-linecap="round" stroke-linejoin="round" opacity="1.0"/><path d="M218.1,223.4 L225.4,227.2 L232.6,230.9 L239.8,234.6 L247.0,238.4 L254.3,242.1 L261.1,245.8 L261.8,253.8 L260.2,263.4 L258.7,272.9 L257.1,282.5 L255.6,292.0" fill="none" stroke="#f43f5e" stroke-width="19" stroke-linecap="round" stroke-linejoin="round" opacity="0.95"/><path d="M218.1,223.4 L225.4,227.2 L232.6,230.9 L239.8,234.6 L247.0,238.4 L254.3,242.1 L261.1,245.8 L261.8,253.8 L260.2,263.4 L258.7,272.9 L257.1,282.5 L255.6,292.0" fill="none" stroke="#0c2020" stroke-width="11" stroke-linecap="round" stroke-linejoin="round" opacity="1.0"/><path d="M233.2,145.3 L231.8,152.4 L230.4,159.5 L229.1,166.6 L227.7,173.7 L226.3,180.8 L225.0,187.9 L223.6,195.0 L222.2,202.1 L220.9,209.2 L219.5,216.3 L218.1,223.4" fill="none" stroke="#2dd4bf" stroke-width="23" stroke-linecap="round" stroke-linejoin="round" opacity="0.95"/><path d="M233.2,145.3 L231.8,152.4 L230.4,159.5 L229.1,166.6 L227.7,173.7 L226.3,180.8 L225.0,187.9 L223.6,195.0 L222.2,202.1 L220.9,209.2 L219.5,216.3 L218.1,223.4" fill="none" stroke="#0c2020" stroke-width="15" stroke-linecap="round" stroke-linejoin="round" opacity="1.0"/><circle cx="237.9" cy="117.3" r="19.0" fill="#2dd4bf" stroke="none" stroke-width="0" opacity="0.95"/><circle cx="237.9" cy="117.3" r="15.0" fill="#0c2020" stroke="none" stroke-width="6.3" opacity="1.0"/><path d="M235.9,100.3 L232.9,103.3 L229.9,106.3 L227.0,109.3 L224.0,112.2 L221.0,115.2 L218.0,118.2 L217.4,121.9 L218.3,126.0 L219.2,130.1 L220.0,134.2 L220.9,138.3" fill="none" stroke="#2dd4bf" stroke-width="5" stroke-linecap="round" stroke-linejoin="round" opacity="1.0"/><path d="M228.6,114.3 L230.3,114.3 L232.0,114.3 L233.7,114.3 L235.4,114.3 L237.1,114.3 L238.7,114.3 L240.4,114.3 L242.1,114.3 L243.8,114.3 L245.5,114.3 L247.2,114.3" fill="none" stroke="#a7f3ee" stroke-width="5" stroke-linecap="round" stroke-linejoin="round" opacity="1.0"/></g><g class="f12"><path d="M235.0,138.0 L241.5,139.8 L248.1,141.5 L254.6,143.3 L261.1,145.1 L267.6,146.8 L274.2,147.9 L281.0,147.5 L287.7,147.1 L294.5,146.8 L301.2,146.4 L308.0,146.0" fill="none" stroke="#2dd4bf" stroke-width="19" stroke-linecap="round" stroke-linejoin="round" opacity="0.95"/><path d="M235.0,138.0 L241.5,139.8 L248.1,141.5 L254.6,143.3 L261.1,145.1 L267.6,146.8 L274.2,147.9 L281.0,147.5 L287.7,147.1 L294.5,146.8 L301.2,146.4 L308.0,146.0" fill="none" stroke="#0c2020" stroke-width="11" stroke-linecap="round" stroke-linejoin="round" opacity="1.0"/><path d="M224.0,215.0 L228.3,220.0 L232.6,225.1 L236.9,230.1 L241.2,235.1 L245.5,240.2 L249.8,245.4 L248.5,254.7 L247.1,264.1 L245.7,273.4 L244.4,282.7 L243.0,292.0" fill="none" stroke="#8f2a3e" stroke-width="19" stroke-linecap="round" stroke-linejoin="round" opacity="0.95"/><path d="M224.0,215.0 L228.3,220.0 L232.6,225.1 L236.9,230.1 L241.2,235.1 L245.5,240.2 L249.8,245.4 L248.5,254.7 L247.1,264.1 L245.7,273.4 L244.4,282.7 L243.0,292.0" fill="none" stroke="#0c2020" stroke-width="11" stroke-linecap="round" stroke-linejoin="round" opacity="1.0"/><path d="M224.0,215.0 L229.7,220.2 L235.4,225.3 L241.1,230.5 L246.8,235.6 L252.5,240.8 L257.5,246.0 L257.9,254.2 L256.7,263.7 L255.5,273.1 L254.2,282.6 L253.0,292.0" fill="none" stroke="#f43f5e" stroke-width="19" stroke-linecap="round" stroke-linejoin="round" opacity="0.95"/><path d="M224.0,215.0 L229.7,220.2 L235.4,225.3 L241.1,230.5 L246.8,235.6 L252.5,240.8 L257.5,246.0 L257.9,254.2 L256.7,263.7 L255.5,273.1 L254.2,282.6 L253.0,292.0" fill="none" stroke="#0c2020" stroke-width="11" stroke-linecap="round" stroke-linejoin="round" opacity="1.0"/><path d="M235.0,138.0 L234.0,145.0 L233.0,152.0 L232.0,159.0 L231.0,166.0 L230.0,173.0 L229.0,180.0 L228.0,187.0 L227.0,194.0 L226.0,201.0 L225.0,208.0 L224.0,215.0" fill="none" stroke="#2dd4bf" stroke-width="23" stroke-linecap="round" stroke-linejoin="round" opacity="0.95"/><path d="M235.0,138.0 L234.0,145.0 L233.0,152.0 L232.0,159.0 L231.0,166.0 L230.0,173.0 L229.0,180.0 L228.0,187.0 L227.0,194.0 L226.0,201.0 L225.0,208.0 L224.0,215.0" fill="none" stroke="#0c2020" stroke-width="15" stroke-linecap="round" stroke-linejoin="round" opacity="1.0"/><circle cx="239.0" cy="110.0" r="19.0" fill="#2dd4bf" stroke="none" stroke-width="0" opacity="0.95"/><circle cx="239.0" cy="110.0" r="15.0" fill="#0c2020" stroke="none" stroke-width="6.3" opacity="1.0"/><path d="M237.0,93.0 L234.0,96.0 L231.0,99.0 L228.1,101.9 L225.1,104.9 L222.1,107.9 L219.1,110.9 L218.5,114.5 L219.4,118.6 L220.3,122.8 L221.1,126.9 L222.0,131.0" fill="none" stroke="#2dd4bf" stroke-width="5" stroke-linecap="round" stroke-linejoin="round" opacity="1.0"/><path d="M229.7,107.0 L231.4,107.0 L233.1,107.0 L234.8,107.0 L236.5,107.0 L238.2,107.0 L239.8,107.0 L241.5,107.0 L243.2,107.0 L244.9,107.0 L246.6,107.0 L248.3,107.0" fill="none" stroke="#a7f3ee" stroke-width="5" stroke-linecap="round" stroke-linejoin="round" opacity="1.0"/></g><g class="f13"><path d="M236.8,130.7 L243.4,132.4 L250.0,134.2 L256.5,135.9 L263.1,137.7 L269.7,139.4 L276.3,140.5 L283.1,140.2 L289.9,139.8 L296.6,139.4 L303.4,139.0 L310.2,138.7" fill="none" stroke="#2dd4bf" stroke-width="19" stroke-linecap="round" stroke-linejoin="round" opacity="0.95"/><path d="M236.8,130.7 L243.4,132.4 L250.0,134.2 L256.5,135.9 L263.1,137.7 L269.7,139.4 L276.3,140.5 L283.1,140.2 L289.9,139.8 L296.6,139.4 L303.4,139.0 L310.2,138.7" fill="none" stroke="#0c2020" stroke-width="11" stroke-linecap="round" stroke-linejoin="round" opacity="1.0"/><path d="M229.9,206.6 L232.2,213.1 L234.5,219.6 L236.8,226.1 L239.1,232.6 L241.4,239.1 L243.9,245.8 L242.9,255.0 L241.9,264.3 L240.9,273.5 L240.0,282.8 L239.0,292.0" fill="none" stroke="#8f2a3e" stroke-width="19" stroke-linecap="round" stroke-linejoin="round" opacity="0.95"/><path d="M229.9,206.6 L232.2,213.1 L234.5,219.6 L236.8,226.1 L239.1,232.6 L241.4,239.1 L243.9,245.8 L242.9,255.0 L241.9,264.3 L240.9,273.5 L240.0,282.8 L239.0,292.0" fill="none" stroke="#0c2020" stroke-width="11" stroke-linecap="round" stroke-linejoin="round" opacity="1.0"/><path d="M229.9,206.6 L234.0,213.1 L238.2,219.7 L242.3,226.3 L246.5,232.9 L250.7,239.4 L253.9,246.1 L254.1,254.7 L253.2,264.0 L252.2,273.3 L251.3,282.7 L250.4,292.0" fill="none" stroke="#f43f5e" stroke-width="19" stroke-linecap="round" stroke-linejoin="round" opacity="0.95"/><path d="M229.9,206.6 L234.0,213.1 L238.2,219.7 L242.3,226.3 L246.5,232.9 L250.7,239.4 L253.9,246.1 L254.1,254.7 L253.2,264.0 L252.2,273.3 L251.3,282.7 L250.4,292.0" fill="none" stroke="#0c2020" stroke-width="11" stroke-linecap="round" stroke-linejoin="round" opacity="1.0"/><path d="M236.8,130.7 L236.2,137.6 L235.6,144.5 L234.9,151.4 L234.3,158.3 L233.7,165.2 L233.0,172.1 L232.4,179.0 L231.8,185.9 L231.1,192.8 L230.5,199.7 L229.9,206.6" fill="none" stroke="#2dd4bf" stroke-width="23" stroke-linecap="round" stroke-linejoin="round" opacity="0.95"/><path d="M236.8,130.7 L236.2,137.6 L235.6,144.5 L234.9,151.4 L234.3,158.3 L233.7,165.2 L233.0,172.1 L232.4,179.0 L231.8,185.9 L231.1,192.8 L230.5,199.7 L229.9,206.6" fill="none" stroke="#0c2020" stroke-width="15" stroke-linecap="round" stroke-linejoin="round" opacity="1.0"/><circle cx="240.1" cy="102.7" r="19.0" fill="#2dd4bf" stroke="none" stroke-width="0" opacity="0.95"/><circle cx="240.1" cy="102.7" r="15.0" fill="#0c2020" stroke="none" stroke-width="6.3" opacity="1.0"/><path d="M238.1,85.7 L235.1,88.6 L232.2,91.6 L229.2,94.6 L226.2,97.6 L223.2,100.5 L220.2,103.5 L219.6,107.2 L220.5,111.3 L221.4,115.4 L222.2,119.5 L223.1,123.7" fill="none" stroke="#2dd4bf" stroke-width="5" stroke-linecap="round" stroke-linejoin="round" opacity="1.0"/><path d="M230.8,99.7 L232.5,99.7 L234.2,99.7 L235.9,99.7 L237.6,99.7 L239.3,99.7 L240.9,99.7 L242.6,99.7 L244.3,99.7 L246.0,99.7 L247.7,99.7 L249.4,99.7" fill="none" stroke="#a7f3ee" stroke-width="5" stroke-linecap="round" stroke-linejoin="round" opacity="1.0"/></g><g class="f14"><path d="M238.4,124.2 L245.0,126.0 L251.6,127.7 L258.2,129.5 L264.8,131.2 L271.4,133.0 L278.1,134.1 L284.9,133.8 L291.7,133.4 L298.5,133.0 L305.3,132.6 L312.1,132.2" fill="none" stroke="#2dd4bf" stroke-width="19" stroke-linecap="round" stroke-linejoin="round" opacity="0.95"/><path d="M238.4,124.2 L245.0,126.0 L251.6,127.7 L258.2,129.5 L264.8,131.2 L271.4,133.0 L278.1,134.1 L284.9,133.8 L291.7,133.4 L298.5,133.0 L305.3,132.6 L312.1,132.2" fill="none" stroke="#0c2020" stroke-width="11" stroke-linecap="round" stroke-linejoin="round" opacity="1.0"/><path d="M235.0,199.2 L235.6,207.0 L236.1,214.8 L236.7,222.6 L237.3,230.4 L237.8,238.2 L238.8,246.1 L238.1,255.3 L237.4,264.5 L236.8,273.6 L236.1,282.8 L235.4,292.0" fill="none" stroke="#8f2a3e" stroke-width="19" stroke-linecap="round" stroke-linejoin="round" opacity="0.95"/><path d="M235.0,199.2 L235.6,207.0 L236.1,214.8 L236.7,222.6 L237.3,230.4 L237.8,238.2 L238.8,246.1 L238.1,255.3 L237.4,264.5 L236.8,273.6 L236.1,282.8 L235.4,292.0" fill="none" stroke="#0c2020" stroke-width="11" stroke-linecap="round" stroke-linejoin="round" opacity="1.0"/><path d="M235.0,199.2 L237.8,207.0 L240.6,214.8 L243.4,222.6 L246.3,230.5 L249.1,238.3 L250.8,246.2 L250.7,255.0 L250.1,264.3 L249.4,273.5 L248.8,282.8 L248.2,292.0" fill="none" stroke="#f43f5e" stroke-width="19" stroke-linecap="round" stroke-linejoin="round" opacity="0.95"/><path d="M235.0,199.2 L237.8,207.0 L240.6,214.8 L243.4,222.6 L246.3,230.5 L249.1,238.3 L250.8,246.2 L250.7,255.0 L250.1,264.3 L249.4,273.5 L248.8,282.8 L248.2,292.0" fill="none" stroke="#0c2020" stroke-width="11" stroke-linecap="round" stroke-linejoin="round" opacity="1.0"/><path d="M238.4,124.2 L238.1,131.1 L237.8,137.9 L237.5,144.7 L237.2,151.5 L236.9,158.3 L236.6,165.1 L236.2,171.9 L235.9,178.8 L235.6,185.6 L235.3,192.4 L235.0,199.2" fill="none" stroke="#2dd4bf" stroke-width="23" stroke-linecap="round" stroke-linejoin="round" opacity="0.95"/><path d="M238.4,124.2 L238.1,131.1 L237.8,137.9 L237.5,144.7 L237.2,151.5 L236.9,158.3 L236.6,165.1 L236.2,171.9 L235.9,178.8 L235.6,185.6 L235.3,192.4 L235.0,199.2" fill="none" stroke="#0c2020" stroke-width="15" stroke-linecap="round" stroke-linejoin="round" opacity="1.0"/><circle cx="241.1" cy="96.2" r="19.0" fill="#2dd4bf" stroke="none" stroke-width="0" opacity="0.95"/><circle cx="241.1" cy="96.2" r="15.0" fill="#0c2020" stroke="none" stroke-width="6.3" opacity="1.0"/><path d="M239.1,79.2 L236.1,82.2 L233.1,85.2 L230.1,88.2 L227.2,91.2 L224.2,94.1 L221.2,97.1 L220.6,100.8 L221.5,104.9 L222.3,109.0 L223.2,113.1 L224.1,117.2" fill="none" stroke="#2dd4bf" stroke-width="5" stroke-linecap="round" stroke-linejoin="round" opacity="1.0"/><path d="M231.8,93.2 L233.5,93.2 L235.1,93.2 L236.8,93.2 L238.5,93.2 L240.2,93.2 L241.9,93.2 L243.6,93.2 L245.3,93.2 L247.0,93.2 L248.7,93.2 L250.4,93.2" fill="none" stroke="#a7f3ee" stroke-width="5" stroke-linecap="round" stroke-linejoin="round" opacity="1.0"/></g><g class="f15"><path d="M239.6,119.7 L246.2,121.5 L252.8,123.2 L259.4,125.0 L266.0,126.7 L272.7,128.4 L279.3,129.6 L286.2,129.2 L293.0,128.9 L299.8,128.5 L306.7,128.1 L313.5,127.7" fill="none" stroke="#2dd4bf" stroke-width="19" stroke-linecap="round" stroke-linejoin="round" opacity="0.95"/><path d="M239.6,119.7 L246.2,121.5 L252.8,123.2 L259.4,125.0 L266.0,126.7 L272.7,128.4 L279.3,129.6 L286.2,129.2 L293.0,128.9 L299.8,128.5 L306.7,128.1 L313.5,127.7" fill="none" stroke="#0c2020" stroke-width="11" stroke-linecap="round" stroke-linejoin="round" opacity="1.0"/><path d="M238.6,194.0 L238.0,202.7 L237.3,211.4 L236.6,220.1 L236.0,228.8 L235.3,237.5 L235.1,246.3 L234.7,255.4 L234.3,264.6 L233.8,273.7 L233.4,282.9 L232.9,292.0" fill="none" stroke="#8f2a3e" stroke-width="19" stroke-linecap="round" stroke-linejoin="round" opacity="0.95"/><path d="M238.6,194.0 L238.0,202.7 L237.3,211.4 L236.6,220.1 L236.0,228.8 L235.3,237.5 L235.1,246.3 L234.7,255.4 L234.3,264.6 L233.8,273.7 L233.4,282.9 L232.9,292.0" fill="none" stroke="#0c2020" stroke-width="11" stroke-linecap="round" stroke-linejoin="round" opacity="1.0"/><path d="M238.6,194.0 L240.5,202.7 L242.4,211.4 L244.2,220.1 L246.1,228.8 L247.9,237.5 L248.6,246.2 L248.3,255.3 L247.9,264.5 L247.5,273.7 L247.0,282.8 L246.6,292.0" fill="none" stroke="#f43f5e" stroke-width="19" stroke-linecap="round" stroke-linejoin="round" opacity="0.95"/><path d="M238.6,194.0 L240.5,202.7 L242.4,211.4 L244.2,220.1 L246.1,228.8 L247.9,237.5 L248.6,246.2 L248.3,255.3 L247.9,264.5 L247.5,273.7 L247.0,282.8 L246.6,292.0" fill="none" stroke="#0c2020" stroke-width="11" stroke-linecap="round" stroke-linejoin="round" opacity="1.0"/><path d="M239.6,119.7 L239.5,126.5 L239.4,133.2 L239.3,140.0 L239.2,146.7 L239.1,153.5 L239.1,160.2 L239.0,167.0 L238.9,173.7 L238.8,180.5 L238.7,187.2 L238.6,194.0" fill="none" stroke="#2dd4bf" stroke-width="23" stroke-linecap="round" stroke-linejoin="round" opacity="0.95"/><path d="M239.6,119.7 L239.5,126.5 L239.4,133.2 L239.3,140.0 L239.2,146.7 L239.1,153.5 L239.1,160.2 L239.0,167.0 L238.9,173.7 L238.8,180.5 L238.7,187.2 L238.6,194.0" fill="none" stroke="#0c2020" stroke-width="15" stroke-linecap="round" stroke-linejoin="round" opacity="1.0"/><circle cx="241.7" cy="91.7" r="19.0" fill="#2dd4bf" stroke="none" stroke-width="0" opacity="0.95"/><circle cx="241.7" cy="91.7" r="15.0" fill="#0c2020" stroke="none" stroke-width="6.3" opacity="1.0"/><path d="M239.7,74.7 L236.8,77.7 L233.8,80.7 L230.8,83.6 L227.8,86.6 L224.9,89.6 L221.9,92.6 L221.3,96.2 L222.1,100.4 L223.0,104.5 L223.9,108.6 L224.7,112.7" fill="none" stroke="#2dd4bf" stroke-width="5" stroke-linecap="round" stroke-linejoin="round" opacity="1.0"/><path d="M232.4,88.7 L234.1,88.7 L235.8,88.7 L237.5,88.7 L239.2,88.7 L240.9,88.7 L242.6,88.7 L244.3,88.7 L246.0,88.7 L247.7,88.7 L249.4,88.7 L251.0,88.7" fill="none" stroke="#a7f3ee" stroke-width="5" stroke-linecap="round" stroke-linejoin="round" opacity="1.0"/></g></svg>
