<svg xmlns="http://www.w3.org/2000/svg" viewBox="0 0 480 320"><style>@keyframes k0{0%{opacity:1}11.111%{opacity:0}100%{opacity:0}}.f0{opacity:0;animation:k0 2.4s steps(1,end) infinite}@keyframes k1{0%{opacity:0}11.111%{opacity:1}16.667%{opacity:0}100%{opacity:0}}.f1{opacity:0;animation:k1 2.4s steps(1,end) infinite}@keyframes k2{0%{opacity:0}16.667%{opacity:1}22.222%{opacity:0}100%{opacity:0}}.f2{opacity:0;animation:k2 2.4s steps(1,end) infinite}@keyframes k3{0%{opacity:0}22.222%{opacity:1}27.778%{opacity:0}100%{opacity:0}}.f3{opacity:0;animation:k3 2.4s steps(1,end) infinite}@keyframes k4{0%{opacity:0}27.778%{opacity:1}33.333%{opacity:0}100%{opacity:0}}.f4{opacity:0;animation:k4 2.4s steps(1,end) infinite}@keyframes k5{0%{opacity:0}33.333%{opacity:1}38.889%{opacity:0}100%{opacity:0}}.f5{opacity:0;animation:k5 2.4s steps(1,end) infinite}@keyframes k6{0%{opacity:0}38.889%{opacity:1}44.444%{opacity:0}100%{opacity:0}}.f6{opacity:0;animation:k6 2.4s steps(1,end) infinite}@keyframes k7{0%{opacity:0}44.444%{opacity:1}50.000%{opacity:0}100%{opacity:0}}.f7{opacity:0;animation:k7 2.4s steps(1,end) infinite}@keyframes k8{0%{opacity:0}50.000%{opacity:1}61.111%{opacity:0}100%{opacity:0}}.f8{opacity:0;animation:k8 2.4s steps(1,end) infinite}@keyframes k9{0%{opacity:0}61.111%{opacity:1}66.667%{opacity:0}100%{opacity:0}}.f9{opacity:0;animation:k9 2.4s steps(1,end) infinite}@keyframes k10{0%{opacity:0}66.667%{opacity:1}72.222%{opacity:0}100%{opacity:0}}.f10{opacity:0;animation:k10 2.4s steps(1,end) infinite}@keyframes k11{0%{opacity:0}72.222%{opacity:1}77.778%{opacity:0}100%{opacity:0}}.f11{opacity:0;animation:k11 2.4s steps(1,end) infinite}@keyframes k12{0%{opacity:0}77.778%{opacity:1}83.333%{opacity:0}100%{opacity:0}}.f12{opacity:0;animation:k12 2.4s steps(1,end) infinite}@keyframes k13{0%{opacity:0}83.333%{opacity:1}88.889%{opacity:0}100%{opacity:0}}.f13{opacity:0;animation:k13 2.4s steps(1,end) infinite}@keyframes k14{0%{opacity:0}88.889%{opacity:1}94.444%{opacity:0}100%{opacity:0}}.f14{opacity:0;animation:k14 2.4s steps(1,end) infinite}@keyframes k15{0%{opacity:0}94.444%{opacity:1}100%{opacity:1}}.f15{opacity:0;animation:k15 2.4s steps(1,end) infinite}</style><path d="M40.0,292.0 L440.0,292.0" fill="none" stroke="#1f3333" stroke-width="6" stroke-linecap="round" stroke-linejoin="round" opacity="1.0"/><g class="f0"><path d="M240.0,118.0 L240.7,124.1 L241.3,130.2 L242.0,136.2 L242.6,142.3 L243.3,148.4 L243.9,154.5 L243.6,160.6 L243.2,166.7 L242.8,172.8 L242.4,178.9 L242.0,185.0" fill="none" stroke="#2dd4bf" stroke-width="21" stroke-linecap="round" stroke-linejoin="round" opacity="0.95"/><path d="M240.0,118.0 L240.7,124.1 L241.3,130.2 L242.0,136.2 L242.6,142.3 L243.3,148.4 L243.9,154.5 L243.6,160.6 L243.2,166.7 L242.8,172.8 L242.4,178.9 L242.0,185.0" fill="none" stroke="#0c2020" stroke-width="13" stroke-linecap="round" stroke-linejoin="round" opacity="1.0"/><path d="M240.0,192.0 L238.9,201.1 L237.7,210.1 L236.6,219.2 L235.5,228.2 L234.3,237.3 L234.0,246.4 L234.0,255.5 L234.0,264.6 L234.0,273.8 L234.0,282.9 L234.0,292.0" fill="none" stroke="#8f2a3e" stroke-width="21" stroke-linecap="round" stroke-linejoin="round" opacity="0.95"/><path d="M240.0,192.0 L238.9,201.1 L237.7,210.1 L236.6,219.2 L235.5,228.2 L234.3,237.3 L234.0,246.4 L234.0,255.5 L234.0,264.6 L234.0,273.8 L234.0,282.9 L234.0,292.0" fill="none" stroke="#0c2020" stroke-width="13" stroke-linecap="round" stroke-linejoin="round" opacity="1.0"/><path d="M240.0,192.0 L241.5,201.0 L243.0,210.1 L244.5,219.1 L246.0,228.1 L247.5,237.1 L248.0,246.2 L248.0,255.4 L248.0,264.5 L248.0,273.7 L248.0,282.8 L248.0,292.0" fill="none" stroke="#f43f5e" stroke-width="21" stroke-linecap="round" stroke-linejoin="round" opacity="0.95"/><path d="M240.0,192.0 L241.5,201.0 L243.0,210.1 L244.5,219.1 L246.0,228.1 L247.5,237.1 L248.0,246.2 L248.0,255.4 L248.0,264.5 L248.0,273.7 L248.0,282.8 L248.0,292.0" fill="none" stroke="#0c2020" stroke-width="13" stroke-linecap="round" stroke-linejoin="round" opacity="1.0"/><path d="M240.0,118.0 L240.0,124.7 L240.0,131.5 L240.0,138.2 L240.0,144.9 L240.0,151.6 L240.0,158.4 L240.0,165.1 L240.0,171.8 L240.0,178.5 L240.0,185.3 L240.0,192.0" fill="none" stroke="#2dd4bf" stroke-width="25" stroke-linecap="round" stroke-linejoin="round" opacity="0.95"/><path d="M240.0,118.0 L240.0,124.7 L240.0,131.5 L240.0,138.2 L240.0,144.9 L240.0,151.6 L240.0,158.4 L240.0,165.1 L240.0,171.8 L240.0,178.5 L240.0,185.3 L240.0,192.0" fill="none" stroke="#0c2020" stroke-width="17" stroke-linecap="round" stroke-linejoin="round" opacity="1.0"/><circle cx="242.0" cy="90.0" r="19.0" fill="#2dd4bf" stroke="none" stroke-width="0" opacity="0.95"/><circle cx="242.0" cy="90.0" r="15.0" fill="#0c2020" stroke="none" stroke-width="6.3" opacity="1.0"/><path d="M232.7,87.0 L234.4,87.0 L236.1,87.0 L237.8,87.0 L239.5,87.0 L241.2,87.0 L242.8,87.0 L244.5,87.0 L246.2,87.0 L247.9,87.0 L249.6,87.0 L251.3,87.0" fill="none" stroke="#a7f3ee" stroke-width="5" stroke-linecap="round" stroke-linejoin="round" opacity="1.0"/><path d="M234.0,292.0 L234.7,292.0 L235.5,292.0 L236.2,292.0 L236.9,292.0 L237.6,292.0 L238.4,292.0 L239.1,292.0 L239.8,292.0 L240.5,292.0 L241.3,292.0 L242.0,292.0" fill="none" stroke="#2dd4bf" stroke-width="9" stroke-linecap="round" stroke-linejoin="round" opacity="1.0"/><path d="M248.0,292.0 L248.7,292.0 L249.5,292.0 L250.2,292.0 L250.9,292.0 L251.6,292.0 L252.4,292.0 L253.1,292.0 L253.8,292.0 L254.5,292.0 L255.3,292.0 L256.0,292.0" fill="none" stroke="#2dd4bf" stroke-width="9" stroke-linecap="round" stroke-linejoin="round" opacity="1.0"/></g><g class="f1"><path d="M240.0,117.4 L240.7,123.5 L241.3,129.6 L242.0,135.6 L242.6,141.7 L243.3,147.8 L243.9,153.9 L243.6,160.0 L243.2,166.1 L242.8,172.2 L242.4,178.3 L242.0,184.4" fill="none" stroke="#2dd4bf" stroke-width="21" stroke-linecap="round" stroke-linejoin="round" opacity="0.95"/><path d="M240.0,117.4 L240.7,123.5 L241.3,129.6 L242.0,135.6 L242.6,141.7 L243.3,147.8 L243.9,153.9 L243.6,160.0 L243.2,166.1 L242.8,172.2 L242.4,178.3 L242.0,184.4" fill="none" stroke="#0c2020" stroke-width="13" stroke-linecap="round" stroke-linejoin="round" opacity="1.0"/><path d="M240.0,191.4 L238.9,200.5 L237.7,209.5 L236.6,218.6 L235.5,227.6 L234.3,236.7 L234.0,245.8 L234.0,254.9 L234.0,264.0 L234.0,273.1 L234.0,282.3 L234.0,291.4" fill="none" stroke="#8f2a3e" stroke-width="21" stroke-linecap="round" stroke-linejoin="round" opacity="0.95"/><path d="M240.0,191.4 L238.9,200.5 L237.7,209.5 L236.6,218.6 L235.5,227.6 L234.3,236.7 L234.0,245.8 L234.0,254.9 L234.0,264.0 L234.0,273.1 L234.0,282.3 L234.0,291.4" fill="none" stroke="#0c2020" stroke-width="13" stroke-linecap="round" stroke-linejoin="round" opacity="1.0"/><path d="M240.0,191.4 L241.5,200.4 L243.0,209.5 L244.5,218.5 L246.0,227.5 L247.5,236.5 L248.0,245.6 L248.0,254.8 L248.0,263.9 L248.0,273.1 L248.0,282.2 L248.0,291.4" fill="none" stroke="#f43f5e" stroke-width="21" stroke-linecap="round" stroke-linejoin="round" opacity="0.95"/><path d="M240.0,191.4 L241.5,200.4 L243.0,209.5 L244.5,218.5 L246.0,227.5 L247.5,236.5 L248.0,245.6 L248.0,254.8 L248.0,263.9 L248.0,273.1 L248.0,282.2 L248.0,291.4" fill="none" stroke="#0c2020" stroke-width="13" stroke-linecap="round" stroke-linejoin="round" opacity="1.0"/><path d="M240.0,117.4 L240.0,124.1 L240.0,130.9 L240.0,137.6 L240.0,144.3 L240.0,151.0 L240.0,157.8 L240.0,164.5 L240.0,171.2 L240.0,177.9 L240.0,184.7 L240.0,191.4" fill="none" stroke="#2dd4bf" stroke-width="25" stroke-linecap="round" stroke-linejoin="round" opacity="0.95"/><path d="M240.0,117.4 L240.0,124.1 L240.0,130.9 L240.0,137.6 L240.0,144.3 L240.0,151.0 L240.0,157.8 L240.0,164.5 L240.0,171.2 L240.0,177.9 L240.0,184.7 L240.0,191.4" fill="none" stroke="#0c2020" stroke-width="17" stroke-linecap="round" stroke-linejoin="round" opacity="1.0"/><circle cx="242.0" cy="89.4" r="19.0" fill="#2dd4bf" stroke="none" stroke-width="0" opacity="0.95"/><circle cx="242.0" cy="89.4" r="15.0" fill="#0c2020" stroke="none" stroke-width="6.3" opacity="1.0"/><path d="M232.7,86.4 L234.4,86.4 L236.1,86.4 L237.8,86.4 L239.5,86.4 L241.2,86.4 L242.8,86.4 L244.5,86.4 L246.2,86.4 L247.9,86.4 L249.6,86.4 L251.3,86.4" fill="none" stroke="#a7f3ee" stroke-width="5" stroke-linecap="round" stroke-linejoin="round" opacity="1.0"/><path d="M234.0,291.4 L234.7,291.5 L235.5,291.5 L236.2,291.6 L236.9,291.6 L237.6,291.7 L238.4,291.7 L239.1,291.8 L239.8,291.8 L240.5,291.9 L241.3,291.9 L242.0,292.0" fill="none" stroke="#2dd4bf" stroke-width="9" stroke-linecap="round" stroke-linejoin="round" opacity="1.0"/><path d="M248.0,291.4 L248.7,291.5 L249.5,291.5 L250.2,291.6 L250.9,291.6 L251.6,291.7 L252.4,291.7 L253.1,291.8 L253.8,291.8 L254.5,291.9 L255.3,291.9 L256.0,292.0" fill="none" stroke="#2dd4bf" stroke-width="9" stroke-linecap="round" stroke-linejoin="round" opacity="1.0"/></g><g class="f2"><path d="M240.0,115.8 L240.7,121.9 L241.3,128.0 L242.0,134.1 L242.6,140.1 L243.3,146.2 L243.9,152.3 L243.6,158.4 L243.2,164.5 L242.8,170.6 L242.4,176.7 L242.0,182.8" fill="none" stroke="#2dd4bf" stroke-width="21" stroke-linecap="round" stroke-linejoin="round" opacity="0.95"/><path d="M240.0,115.8 L240.7,121.9 L241.3,128.0 L242.0,134.1 L242.6,140.1 L243.3,146.2 L243.9,152.3 L243.6,158.4 L243.2,164.5 L242.8,170.6 L242.4,176.7 L242.0,182.8" fill="none" stroke="#0c2020" stroke-width="13" stroke-linecap="round" stroke-linejoin="round" opacity="1.0"/><path d="M240.0,189.8 L238.9,198.9 L237.7,207.9 L236.6,217.0 L235.5,226.0 L234.3,235.1 L234.0,244.2 L234.0,253.3 L234.0,262.4 L234.0,271.6 L234.0,280.7 L234.0,289.8" fill="none" stroke="#8f2a3e" stroke-width="21" stroke-linecap="round" stroke-linejoin="round" opacity="0.95"/><path d="M240.0,189.8 L238.9,198.9 L237.7,207.9 L236.6,217.0 L235.5,226.0 L234.3,235.1 L234.0,244.2 L234.0,253.3 L234.0,262.4 L234.0,271.6 L234.0,280.7 L234.0,289.8" fill="none" stroke="#0c2020" stroke-width="13" stroke-linecap="round" stroke-linejoin="round" opacity="1.0"/><path d="M240.0,189.8 L241.5,198.8 L243.0,207.9 L244.5,216.9 L246.0,225.9 L247.5,234.9 L248.0,244.1 L248.0,253.2 L248.0,262.4 L248.0,271.5 L248.0,280.7 L248.0,289.8" fill="none" stroke="#f43f5e" stroke-width="21" stroke-linecap="round" stroke-linejoin="round" opacity="0.95"/><path d="M240.0,189.8 L241.5,198.8 L243.0,207.9 L244.5,216.9 L246.0,225.9 L247.5,234.9 L248.0,244.1 L248.0,253.2 L248.0,262.4 L248.0,271.5 L248.0,280.7 L248.0,289.8" fill="none" stroke="#0c2020" stroke-width="13" stroke-linecap="round" stroke-linejoin="round" opacity="1.0"/><path d="M240.0,115.8 L240.0,122.5 L240.0,129.3 L240.0,136.0 L240.0,142.7 L240.0,149.4 L240.0,156.2 L240.0,162.9 L240.0,169.6 L240.0,176.4 L240.0,183.1 L240.0,189.8" fill="none" stroke="#2dd4bf" stroke-width="25" stroke-linecap="round" stroke-linejoin="round" opacity="0.95"/><path d="M240.0,115.8 L240.0,122.5 L240.0,129.3 L240.0,136.0 L240.0,142.7 L240.0,149.4 L240.0,156.2 L240.0,162.9 L240.0,169.6 L240.0,176.4 L240.0,183.1 L240.0,189.8" fill="none" stroke="#0c2020" stroke-width="17" stroke-linecap="round" stroke-linejoin="round" opacity="1.0"/><circle cx="242.0" cy="87.8" r="19.0" fill="#2dd4bf" stroke="none" stroke-width="0" opacity="0.95"/><circle cx="242.0" cy="87.8" r="15.0" fill="#0c2020" stroke="none" stroke-width="6.3" opacity="1.0"/><path d="M232.7,84.8 L234.4,84.8 L236.1,84.8 L237.8,84.8 L239.5,84.8 L241.2,84.8 L242.8,84.8 L244.5,84.8 L246.2,84.8 L247.9,84.8 L249.6,84.8 L251.3,84.8" fill="none" stroke="#a7f3ee" stroke-width="5" stroke-linecap="round" stroke-linejoin="round" opacity="1.0"/><path d="M234.0,289.8 L234.7,290.0 L235.5,290.2 L236.2,290.4 L236.9,290.6 L237.6,290.8 L238.4,291.0 L239.1,291.2 L239.8,291.4 L240.5,291.6 L241.3,291.8 L242.0,292.0" fill="none" stroke="#2dd4bf" stroke-width="9" stroke-linecap="round" stroke-linejoin="round" opacity="1.0"/><path d="M248.0,289.8 L248.7,290.0 L249.5,290.2 L250.2,290.4 L250.9,290.6 L251.6,290.8 L252.4,291.0 L253.1,291.2 L253.8,291.4 L254.5,291.6 L255.3,291.8 L256.0,292.0" fill="none" stroke="#2dd4bf" stroke-width="9" stroke-linecap="round" stroke-linejoin="round" opacity="1.0"/></g><g class="f3"><path d="M240.0,113.6 L240.7,119.7 L241.3,125.7 L242.0,131.8 L242.6,137.9 L243.3,144.0 L243.9,150.1 L243.6,156.2 L243.2,162.3 L242.8,168.4 L242.4,174.5 L242.0,180.6" fill="none" stroke="#2dd4bf" stroke-width="21" stroke-linecap="round" stroke-linejoin="round" opacity="0.95"/><path d="M240.0,113.6 L240.7,119.7 L241.3,125.7 L242.0,131.8 L242.6,137.9 L243.3,144.0 L243.9,150.1 L243.6,156.2 L243.2,162.3 L242.8,168.4 L242.4,174.5 L242.0,180.6" fill="none" stroke="#0c2020" stroke-width="13" stroke-linecap="round" stroke-linejoin="round" opacity="1.0"/><path d="M240.0,187.6 L238.9,196.6 L237.7,205.7 L236.6,214.7 L235.5,223.8 L234.3,232.8 L234.0,241.9 L234.0,251.1 L234.0,260.2 L234.0,269.3 L234.0,278.4 L234.0,287.6" fill="none" stroke="#8f2a3e" stroke-width="21" stroke-linecap="round" stroke-linejoin="round" opacity="0.95"/><path d="M240.0,187.6 L238.9,196.6 L237.7,205.7 L236.6,214.7 L235.5,223.8 L234.3,232.8 L234.0,241.9 L234.0,251.1 L234.0,260.2 L234.0,269.3 L234.0,278.4 L234.0,287.6" fill="none" stroke="#0c2020" stroke-width="13" stroke-linecap="round" stroke-linejoin="round" opacity="1.0"/><path d="M240.0,187.6 L241.5,196.6 L243.0,205.6 L244.5,214.7 L246.0,223.7 L247.5,232.7 L248.0,241.8 L248.0,251.0 L248.0,260.1 L248.0,269.3 L248.0,278.4 L248.0,287.6" fill="none" stroke="#f43f5e" stroke-width="21" stroke-linecap="round" stroke-linejoin="round" opacity="0.95"/><path d="M240.0,187.6 L241.5,196.6 L243.0,205.6 L244.5,214.7 L246.0,223.7 L247.5,232.7 L248.0,241.8 L248.0,251.0 L248.0,260.1 L248.0,269.3 L248.0,278.4 L248.0,287.6" fill="none" stroke="#0c2020" stroke-width="13" stroke-linecap="round" stroke-linejoin="round" opacity="1.0"/><path d="M240.0,113.6 L240.0,120.3 L240.0,127.0 L240.0,133.8 L240.0,140.5 L240.0,147.2 L240.0,153.9 L240.0,160.7 L240.0,167.4 L240.0,174.1 L240.0,180.8 L240.0,187.6" fill="none" stroke="#2dd4bf" stroke-width="25" stroke-linecap="round" stroke-linejoin="round" opacity="0.95"/><path d="M240.0,113.6 L240.0,120.3 L240.0,127.0 L240.0,133.8 L240.0,140.5 L240.0,147.2 L240.0,153.9 L240.0,160.7 L240.0,167.4 L240.0,174.1 L240.0,180.8 L240.0,187.6" fill="none" stroke="#0c2020" stroke-width="17" stroke-linecap="round" stroke-linejoin="round" opacity="1.0"/><circle cx="242.0" cy="85.6" r="19.0" fill="#2dd4bf" stroke="none" stroke-width="0" opacity="0.95"/><circle cx="242.0" cy="85.6" r="15.0" fill="#0c2020" stroke="none" stroke-width="6.3" opacity="1.0"/><path d="M232.7,82.6 L234.4,82.6 L236.1,82.6 L237.8,82.6 L239.5,82.6 L241.2,82.6 L242.8,82.6 L244.5,82.6 L246.2,82.6 L247.9,82.6 L249.6,82.6 L251.3,82.6" fill="none" stroke="#a7f3ee" stroke-width="5" stroke-linecap="round" stroke-linejoin="round" opacity="1.0"/><path d="M234.0,287.6 L234.7,288.0 L235.5,288.4 L236.2,288.8 L236.9,289.2 L237.6,289.6 L238.4,290.0 L239.1,290.4 L239.8,290.8 L240.5,291.2 L241.3,291.6 L242.0,292.0" fill="none" stroke="#2dd4bf" stroke-width="9" stroke-linecap="round" stroke-linejoin="round" opacity="1.0"/><path d="M248.0,287.6 L248.7,288.0 L249.5,288.4 L250.2,288.8 L250.9,289.2 L251.6,289.6 L252.4,290.0 L253.1,290.4 L253.8,290.8 L254.5,291.2 L255.3,291.6 L256.0,292.0" fill="none" stroke="#2dd4bf" stroke-width="9" stroke-linecap="round" stroke-linejoin="round" opacity="1.0"/></g><g class="f4"><path d="M240.0,111.0 L240.7,117.1 L241.3,123.2 L242.0,129.2 L242.6,135.3 L243.3,141.4 L243.9,147.5 L243.6,153.6 L243.2,159.7 L242.8,165.8 L242.4,171.9 L242.0,178.0" fill="none" stroke="#2dd4bf" stroke-width="21" stroke-linecap="round" stroke-linejoin="round" opacity="0.95"/><path d="M240.0,111.0 L240.7,117.1 L241.3,123.2 L242.0,129.2 L242.6,135.3 L243.3,141.4 L243.9,147.5 L243.6,153.6 L243.2,159.7 L242.8,165.8 L242.4,171.9 L242.0,178.0" fill="none" stroke="#0c2020" stroke-width="13" stroke-linecap="round" stroke-linejoin="round" opacity="1.0"/><path d="M240.0,185.0 L238.9,194.1 L237.7,203.1 L236.6,212.2 L235.5,221.2 L234.3,230.3 L234.0,239.4 L234.0,248.5 L234.0,257.6 L234.0,266.8 L234.0,275.9 L234.0,285.0" fill="none" stroke="#8f2a3e" stroke-width="21" stroke-linecap="round" stroke-linejoin="round" opacity="0.95"/><path d="M240.0,185.0 L238.9,194.1 L237.7,203.1 L236.6,212.2 L235.5,221.2 L234.3,230.3 L234.0,239.4 L234.0,248.5 L234.0,257.6 L234.0,266.8 L234.0,275.9 L234.0,285.0" fill="none" stroke="#0c2020" stroke-width="13" stroke-linecap="round" stroke-linejoin="round" opacity="1.0"/><path d="M240.0,185.0 L241.5,194.0 L243.0,203.1 L244.5,212.1 L246.0,221.1 L247.5,230.1 L248.0,239.2 L248.0,248.4 L248.0,257.5 L248.0,266.7 L248.0,275.8 L248.0,285.0" fill="none" stroke="#f43f5e" stroke-width="21" stroke-linecap="round" stroke-linejoin="round" opacity="0.95"/><path d="M240.0,185.0 L241.5,194.0 L243.0,203.1 L244.5,212.1 L246.0,221.1 L247.5,230.1 L248.0,239.2 L248.0,248.4 L248.0,257.5 L248.0,266.7 L248.0,275.8 L248.0,285.0" fill="none" stroke="#0c2020" stroke-width="13" stroke-linecap="round" stroke-linejoin="round" opacity="1.0"/><path d="M240.0,111.0 L240.0,117.7 L240.0,124.5 L240.0,131.2 L240.0,137.9 L240.0,144.6 L240.0,151.4 L240.0,158.1 L240.0,164.8 L240.0,171.5 L240.0,178.3 L240.0,185.0" fill="none" stroke="#2dd4bf" stroke-width="25" stroke-linecap="round" stroke-linejoin="round" opacity="0.95"/><path d="M240.0,111.0 L240.0,117.7 L240.0,124.5 L240.0,131.2 L240.0,137.9 L240.0,144.6 L240.0,151.4 L240.0,158.1 L240.0,164.8 L240.0,171.5 L240.0,178.3 L240.0,185.0" fill="none" stroke="#0c2020" stroke-width="17" stroke-linecap="round" stroke-linejoin="round" opacity="1.0"/><circle cx="242.0" cy="83.0" r="19.0" fill="#2dd4bf" stroke="none" stroke-width="0" opacity="0.95"/><circle cx="242.0" cy="83.0" r="15.0" fill="#0c2020" stroke="none" stroke-width="6.3" opacity="1.0"/><path d="M232.7,80.0 L234.4,80.0 L236.1,80.0 L237.8,80.0 L239.5,80.0 L241.2,80.0 L242.8,80.0 L244.5,80.0 L246.2,80.0 L247.9,80.0 L249.6,80.0 L251.3,80.0" fill="none" stroke="#a7f3ee" stroke-width="5" stroke-linecap="round" stroke-linejoin="round" opacity="1.0"/><path d="M234.0,285.0 L234.7,285.6 L235.5,286.3 L236.2,286.9 L236.9,287.5 L237.6,288.2 L238.4,288.8 L239.1,289.5 L239.8,290.1 L240.5,290.7 L241.3,291.4 L242.0,292.0" fill="none" stroke="#2dd4bf" stroke-width="9" stroke-linecap="round" stroke-linejoin="round" opacity="1.0"/><path d="M248.0,285.0 L248.7,285.6 L249.5,286.3 L250.2,286.9 L250.9,287.5 L251.6,288.2 L252.4,288.8 L253.1,289.5 L253.8,290.1 L254.5,290.7 L255.3,291.4 L256.0,292.0" fill="none" stroke="#2dd4bf" stroke-width="9" stroke-linecap="round" stroke-linejoin="round" opacity="1.0"/></g><g class="f5"><path d="M240.0,108.4 L240.7,114.5 L241.3,120.6 L242.0,126.7 L242.6,132.8 L243.3,138.8 L243.9,144.9 L243.6,151.0 L243.2,157.1 L242.8,163.2 L242.4,169.3 L242.0,175.4" fill="none" stroke="#2dd4bf" stroke-width="21" stroke-linecap="round" stroke-linejoin="round" opacity="0.95"/><path d="M240.0,108.4 L240.7,114.5 L241.3,120.6 L242.0,126.7 L242.6,132.8 L243.3,138.8 L243.9,144.9 L243.6,151.0 L243.2,157.1 L242.8,163.2 L242.4,169.3 L242.0,175.4" fill="none" stroke="#0c2020" stroke-width="13" stroke-linecap="round" stroke-linejoin="round" opacity="1.0"/><path d="M240.0,182.4 L238.9,191.5 L237.7,200.5 L236.6,209.6 L235.5,218.6 L234.3,227.7 L234.0,236.8 L234.0,245.9 L234.0,255.1 L234.0,264.2 L234.0,273.3 L234.0,282.4" fill="none" stroke="#8f2a3e" stroke-width="21" stroke-linecap="round" stroke-linejoin="round" opacity="0.95"/><path d="M240.0,182.4 L238.9,191.5 L237.7,200.5 L236.6,209.6 L235.5,218.6 L234.3,227.7 L234.0,236.8 L234.0,245.9 L234.0,255.1 L234.0,264.2 L234.0,273.3 L234.0,282.4" fill="none" stroke="#0c2020" stroke-width="13" stroke-linecap="round" stroke-linejoin="round" opacity="1.0"/><path d="M240.0,182.4 L241.5,191.5 L243.0,200.5 L244.5,209.5 L246.0,218.5 L247.5,227.6 L248.0,236.7 L248.0,245.8 L248.0,255.0 L248.0,264.1 L248.0,273.3 L248.0,282.4" fill="none" stroke="#f43f5e" stroke-width="21" stroke-linecap="round" stroke-linejoin="round" opacity="0.95"/><path d="M240.0,182.4 L241.5,191.5 L243.0,200.5 L244.5,209.5 L246.0,218.5 L247.5,227.6 L248.0,236.7 L248.0,245.8 L248.0,255.0 L248.0,264.1 L248.0,273.3 L248.0,282.4" fill="none" stroke="#0c2020" stroke-width="13" stroke-linecap="round" stroke-linejoin="round" opacity="1.0"/><path d="M240.0,108.4 L240.0,115.2 L240.0,121.9 L240.0,128.6 L240.0,135.3 L240.0,142.1 L240.0,148.8 L240.0,155.5 L240.0,162.2 L240.0,169.0 L240.0,175.7 L240.0,182.4" fill="none" stroke="#2dd4bf" stroke-width="25" stroke-linecap="round" stroke-linejoin="round" opacity="0.95"/><path d="M240.0,108.4 L240.0,115.2 L240.0,121.9 L240.0,128.6 L240.0,135.3 L240.0,142.1 L240.0,148.8 L240.0,155.5 L240.0,162.2 L240.0,169.0 L240.0,175.7 L240.0,182.4" fill="none" stroke="#0c2020" stroke-width="17" stroke-linecap="round" stroke-linejoin="round" opacity="1.0"/><circle cx="242.0" cy="80.4" r="19.0" fill="#2dd4bf" stroke="none" stroke-width="0" opacity="0.95"/><circle cx="242.0" cy="80.4" r="15.0" fill="#0c2020" stroke="none" stroke-width="6.3" opacity="1.0"/><path d="M232.7,77.4 L234.4,77.4 L236.1,77.4 L237.8,77.4 L239.5,77.4 L241.2,77.4 L242.8,77.4 L244.5,77.4 L246.2,77.4 L247.9,77.4 L249.6,77.4 L251.3,77.4" fill="none" stroke="#a7f3ee" stroke-width="5" stroke-linecap="round" stroke-linejoin="round" opacity="1.0"/><path d="M234.0,282.4 L234.7,283.3 L235.5,284.2 L236.2,285.0 L236.9,285.9 L237.6,286.8 L238.4,287.6 L239.1,288.5 L239.8,289.4 L240.5,290.3 L241.3,291.1 L242.0,292.0" fill="none" stroke="#2dd4bf" stroke-width="9" stroke-linecap="round" stroke-linejoin="round" opacity="1.0"/><path d="M248.0,282.4 L248.7,283.3 L249.5,284.2 L250.2,285.0 L250.9,285.9 L251.6,286.8 L252.4,287.6 L253.1,288.5 L253.8,289.4 L254.5,290.3 L255.3,291.1 L256.0,292.0" fill="none" stroke="#2dd4bf" stroke-width="9" stroke-linecap="round" stroke-linejoin="round" opacity="1.0"/></g><g class="f6"><path d="M240.0,106.2 L240.7,112.3 L241.3,118.3 L242.0,124.4 L242.6,130.5 L243.3,136.6 L243.9,142.7 L243.6,148.8 L243.2,154.9 L242.8,161.0 L242.4,167.1 L242.0,173.2" fill="none" stroke="#2dd4bf" stroke-width="21" stroke-linecap="round" stroke-linejoin="round" opacity="0.95"/><path d="M240.0,106.2 L240.7,112.3 L241.3,118.3 L242.0,124.4 L242.6,130.5 L243.3,136.6 L243.9,142.7 L243.6,148.8 L243.2,154.9 L242.8,161.0 L242.4,167.1 L242.0,173.2" fill="none" stroke="#0c2020" stroke-width="13" stroke-linecap="round" stroke-linejoin="round" opacity="1.0"/><path d="M240.0,180.2 L238.9,189.2 L237.7,198.3 L236.6,207.4 L235.5,216.4 L234.3,225.5 L234.0,234.6 L234.0,243.7 L234.0,252.8 L234.0,261.9 L234.0,271.1 L234.0,280.2" fill="none" stroke="#8f2a3e" stroke-width="21" stroke-linecap="round" stroke-linejoin="round" opacity="0.95"/><path d="M240.0,180.2 L238.9,189.2 L237.7,198.3 L236.6,207.4 L235.5,216.4 L234.3,225.5 L234.0,234.6 L234.0,243.7 L234.0,252.8 L234.0,261.9 L234.0,271.1 L234.0,280.2" fill="none" stroke="#0c2020" stroke-width="13" stroke-linecap="round" stroke-linejoin="round" opacity="1.0"/><path d="M240.0,180.2 L241.5,189.2 L243.0,198.2 L244.5,207.3 L246.0,216.3 L247.5,225.3 L248.0,234.4 L248.0,243.6 L248.0,252.7 L248.0,261.9 L248.0,271.0 L248.0,280.2" fill="none" stroke="#f43f5e" stroke-width="21" stroke-linecap="round" stroke-linejoin="round" opacity="0.95"/><path d="M240.0,180.2 L241.5,189.2 L243.0,198.2 L244.5,207.3 L246.0,216.3 L247.5,225.3 L248.0,234.4 L248.0,243.6 L248.0,252.7 L248.0,261.9 L248.0,271.0 L248.0,280.2" fill="none" stroke="#0c2020" stroke-width="13" stroke-linecap="round" stroke-linejoin="round" opacity="1.0"/><path d="M240.0,106.2 L240.0,112.9 L240.0,119.6 L240.0,126.4 L240.0,133.1 L240.0,139.8 L240.0,146.6 L240.0,153.3 L240.0,160.0 L240.0,166.7 L240.0,173.5 L240.0,180.2" fill="none" stroke="#2dd4bf" stroke-width="25" stroke-linecap="round" stroke-linejoin="round" opacity="0.95"/><path d="M240.0,106.2 L240.0,112.9 L240.0,119.6 L240.0,126.4 L240.0,133.1 L240.0,139.8 L240.0,146.6 L240.0,153.3 L240.0,160.0 L240.0,166.7 L240.0,173.5 L240.0,180.2" fill="none" stroke="#0c2020" stroke-width="17" stroke-linecap="round" stroke-linejoin="round" opacity="1.0"/><circle cx="242.0" cy="78.2" r="19.0" fill="#2dd4bf" stroke="none" stroke-width="0" opacity="0.95"/><circle cx="242.0" cy="78.2" r="15.0" fill="#0c2020" stroke="none" stroke-width="6.3" opacity="1.0"/><path d="M232.7,75.2 L234.4,75.2 L236.1,75.2 L237.8,75.2 L239.5,75.2 L241.2,75.2 L242.8,75.2 L244.5,75.2 L246.2,75.2 L247.9,75.2 L249.6,75.2 L251.3,75.2" fill="none" stroke="#a7f3ee" stroke-width="5" stroke-linecap="round" stroke-linejoin="round" opacity="1.0"/><path d="M234.0,280.2 L234.7,281.3 L235.5,282.3 L236.2,283.4 L236.9,284.5 L237.6,285.6 L238.4,286.6 L239.1,287.7 L239.8,288.8 L240.5,289.9 L241.3,290.9 L242.0,292.0" fill="none" stroke="#2dd4bf" stroke-width="9" stroke-linecap="round" stroke-linejoin="round" opacity="1.0"/><path d="M248.0,280.2 L248.7,281.3 L249.5,282.3 L250.2,283.4 L250.9,284.5 L251.6,285.6 L252.4,286.6 L253.1,287.7 L253.8,288.8 L254.5,289.9 L255.3,290.9 L256.0,292.0" fill="none" stroke="#2dd4bf" stroke-width="9" stroke-linecap="round" stroke-linejoin="round" opacity="1.0"/></g><g class="f7"><path d="M240.0,104.6 L240.7,110.7 L241.3,116.8 L242.0,122.8 L242.6,128.9 L243.3,135.0 L243.9,141.1 L243.6,147.2 L243.2,153.3 L242.8,159.4 L242.4,165.5 L242.0,171.6" fill="none" stroke="#2dd4bf" stroke-width="21" stroke-linecap="round" stroke-linejoin="round" opacity="0.95"/><path d="M240.0,104.6 L240.7,110.7 L241.3,116.8 L242.0,122.8 L242.6,128.9 L243.3,135.0 L243.9,141.1 L243.6,147.2 L243.2,153.3 L242.8,159.4 L242.4,165.5 L242.0,171.6" fill="none" stroke="#0c2020" stroke-width="13" stroke-linecap="round" stroke-linejoin="round" opacity="1.0"/><path d="M240.0,178.6 L238.9,187.7 L237.7,196.7 L236.6,205.8 L235.5,214.8 L234.3,223.9 L234.0,233.0 L234.0,242.1 L234.0,251.2 L234.0,260.4 L234.0,269.5 L234.0,278.6" fill="none" stroke="#8f2a3e" stroke-width="21" stroke-linecap="round" stroke-linejoin="round" opacity="0.95"/><path d="M240.0,178.6 L238.9,187.7 L237.7,196.7 L236.6,205.8 L235.5,214.8 L234.3,223.9 L234.0,233.0 L234.0,242.1 L234.0,251.2 L234.0,260.4 L234.0,269.5 L234.0,278.6" fill="none" stroke="#0c2020" stroke-width="13" stroke-linecap="round" stroke-linejoin="round" opacity="1.0"/><path d="M240.0,178.6 L241.5,187.6 L243.0,196.7 L244.5,205.7 L246.0,214.7 L247.5,223.7 L248.0,232.8 L248.0,242.0 L248.0,251.1 L248.0,260.3 L248.0,269.5 L248.0,278.6" fill="none" stroke="#f43f5e" stroke-width="21" stroke-linecap="round" stroke-linejoin="round" opacity="0.95"/><path d="M240.0,178.6 L241.5,187.6 L243.0,196.7 L244.5,205.7 L246.0,214.7 L247.5,223.7 L248.0,232.8 L248.0,242.0 L248.0,251.1 L248.0,260.3 L248.0,269.5 L248.0,278.6" fill="none" stroke="#0c2020" stroke-width="13" stroke-linecap="round" stroke-linejoin="round" opacity="1.0"/><path d="M240.0,104.6 L240.0,111.3 L240.0,118.1 L240.0,124.8 L240.0,131.5 L240.0,138.2 L240.0,145.0 L240.0,151.7 L240.0,158.4 L240.0,165.1 L240.0,171.9 L240.0,178.6" fill="none" stroke="#2dd4bf" stroke-width="25" stroke-linecap="round" stroke-linejoin="round" opacity="0.95"/><path d="M240.0,104.6 L240.0,111.3 L240.0,118.1 L240.0,124.8 L240.0,131.5 L240.0,138.2 L240.0,145.0 L240.0,151.7 L240.0,158.4 L240.0,165.1 L240.0,171.9 L240.0,178.6" fill="none" stroke="#0c2020" stroke-width="17" stroke-linecap="round" stroke-linejoin="round" opacity="1.0"/><circle cx="242.0" cy="76.6" r="19.0" fill="#2dd4bf" stroke="none" stroke-width="0" opacity="0.95"/><circle cx="242.0" cy="76.6" r="15.0" fill="#0c2020" stroke="none" stroke-width="6.3" opacity="1.0"/><path d="M232.7,73.6 L234.4,73.6 L236.1,73.6 L237.8,73.6 L239.5,73.6 L241.2,73.6 L242.8,73.6 L244.5,73.6 L246.2,73.6 L247.9,73.6 L249.6,73.6 L251.3,73.6" fill="none" stroke="#a7f3ee" stroke-width="5" stroke-linecap="round" stroke-linejoin="round" opacity="1.0"/><path d="M234.0,278.6 L234.7,279.8 L235.5,281.0 L236.2,282.3 L236.9,283.5 L237.6,284.7 L238.4,285.9 L239.1,287.1 L239.8,288.3 L240.5,289.6 L241.3,290.8 L242.0,292.0" fill="none" stroke="#2dd4bf" stroke-width="9" stroke-linecap="round" stroke-linejoin="round" opacity="1.0"/><path d="M248.0,278.6 L248.7,279.8 L249.5,281.0 L250.2,282.3 L250.9,283.5 L251.6,284.7 L252.4,285.9 L253.1,287.1 L253.8,288.3 L254.5,289.6 L255.3,290.8 L256.0,292.0" fill="none" stroke="#2dd4bf" stroke-width="9" stroke-linecap="round" stroke-linejoin="round" opacity="1.0"/></g><g class="f8"><path d="M240.0,104.0 L240.7,110.1 L241.3,116.2 L242.0,122.2 L242.6,128.3 L243.3,134.4 L243.9,140.5 L243.6,146.6 L243.2,152.7 L242.8,158.8 L242.4,164.9 L242.0,171.0" fill="none" stroke="#2dd4bf" stroke-width="21" stroke-linecap="round" stroke-linejoin="round" opacity="0.95"/><path d="M240.0,104.0 L240.7,110.1 L241.3,116.2 L242.0,122.2 L242.6,128.3 L243.3,134.4 L243.9,140.5 L243.6,146.6 L243.2,152.7 L242.8,158.8 L242.4,164.9 L242.0,171.0" fill="none" stroke="#0c2020" stroke-width="13" stroke-linecap="round" stroke-linejoin="round" opacity="1.0"/><path d="M240.0,178.0 L238.9,187.1 L237.7,196.1 L236.6,205.2 L235.5,214.2 L234.3,223.3 L234.0,232.4 L234.0,241.5 L234.0,250.6 L234.0,259.8 L234.0,268.9 L234.0,278.0" fill="none" stroke="#8f2a3e" stroke-width="21" stroke-linecap="round" stroke-linejoin="round" opacity="0.95"/><path d="M240.0,178.0 L238.9,187.1 L237.7,196.1 L236.6,205.2 L235.5,214.2 L234.3,223.3 L234.0,232.4 L234.0,241.5 L234.0,250.6 L234.0,259.8 L234.0,268.9 L234.0,278.0" fill="none" stroke="#0c2020" stroke-width="13" stroke-linecap="round" stroke-linejoin="round" opacity="1.0"/><path d="M240.0,178.0 L241.5,187.0 L243.0,196.1 L244.5,205.1 L246.0,214.1 L247.5,223.1 L248.0,232.2 L248.0,241.4 L248.0,250.5 L248.0,259.7 L248.0,268.8 L248.0,278.0" fill="none" stroke="#f43f5e" stroke-width="21" stroke-linecap="round" stroke-linejoin="round" opacity="0.95"/><path d="M240.0,178.0 L241.5,187.0 L243.0,196.1 L244.5,205.1 L246.0,214.1 L247.5,223.1 L248.0,232.2 L248.0,241.4 L248.0,250.5 L248.0,259.7 L248.0,268.8 L248.0,278.0" fill="none" stroke="#0c2020" stroke-width="13" stroke-linecap="round" stroke-linejoin="round" opacity="1.0"/><path d="M240.0,104.0 L240.0,110.7 L240.0,117.5 L240.0,124.2 L240.0,130.9 L240.0,137.6 L240.0,144.4 L240.0,151.1 L240.0,157.8 L240.0,164.5 L240.0,171.3 L240.0,178.0" fill="none" stroke="#2dd4bf" stroke-width="25" stroke-linecap="round" stroke-linejoin="round" opacity="0.95"/><path d="M240.0,104.0 L240.0,110.7 L240.0,117.5 L240.0,124.2 L240.0,130.9 L240.0,137.6 L240.0,144.4 L240.0,151.1 L240.0,157.8 L240.0,164.5 L240.0,171.3 L240.0,178.0" fill="none" stroke="#0c2020" stroke-width="17" stroke-linecap="round" stroke-linejoin="round" opacity="1.0"/><circle cx="242.0" cy="76.0" r="19.0" fill="#2dd4bf" stroke="none" stroke-width="0" opacity="0.95"/><circle cx="242.0" cy="76.0" r="15.0" fill="#0c2020" stroke="none" stroke-width="6.3" opacity="1.0"/><path d="M232.7,73.0 L234.4,73.0 L236.1,73.0 L237.8,73.0 L239.5,73.0 L241.2,73.0 L242.8,73.0 L244.5,73.0 L246.2,73.0 L247.9,73.0 L249.6,73.0 L251.3,73.0" fill="none" stroke="#a7f3ee" stroke-width="5" stroke-linecap="round" stroke-linejoin="round" opacity="1.0"/><path d="M234.0,278.0 L234.7,279.3 L235.5,280.5 L236.2,281.8 L236.9,283.1 L237.6,284.4 L238.4,285.6 L239.1,286.9 L239.8,288.2 L240.5,289.5 L241.3,290.7 L242.0,292.0" fill="none" stroke="#2dd4bf" stroke-width="9" stroke-linecap="round" stroke-linejoin="round" opacity="1.0"/><path d="M248.0,278.0 L248.7,279.3 L249.5,280.5 L250.2,281.8 L250.9,283.1 L251.6,284.4 L252.4,285.6 L253.1,286.9 L253.8,288.2 L254.5,289.5 L255.3,290.7 L256.0,292.0" fill="none" stroke="#2dd4bf" stroke-width="9" stroke-linecap="round" stroke-linejoin="round" opacity="1.0"/></g><g class="f9"><path d="M240.0,104.6 L240.7,110.7 L241.3,116.8 L242.0,122.8 L242.6,128.9 L243.3,135.0 L243.9,141.1 L243.6,147.2 L243.2,153.3 L242.8,159.4 L242.4,165.5 L242.0,171.6" fill="none" stroke="#2dd4bf" stroke-width="21" stroke-linecap="round" stroke-linejoin="round" opacity="0.95"/><path d="M240.0,104.6 L240.7,110.7 L241.3,116.8 L242.0,122.8 L242.6,128.9 L243.3,135.0 L243.9,141.1 L243.6,147.2 L243.2,153.3 L242.8,159.4 L242.4,165.5 L242.0,171.6" fill="none" stroke="#0c2020" stroke-width="13" stroke-linecap="round" stroke-linejoin="round" opacity="1.0"/><path d="M240.0,178.6 L238.9,187.7 L237.7,196.7 L236.6,205.8 L235.5,214.8 L234.3,223.9 L234.0,233.0 L234.0,242.1 L234.0,251.2 L234.0,260.4 L234.0,269.5 L234.0,278.6" fill="none" stroke="#8f2a3e" stroke-width="21" stroke-linecap="round" stroke-linejoin="round" opacity="0.95"/><path d="M240.0,178.6 L238.9,187.7 L237.7,196.7 L236.6,205.8 L235.5,214.8 L234.3,223.9 L234.0,233.0 L234.0,242.1 L234.0,251.2 L234.0,260.4 L234.0,269.5 L234.0,278.6" fill="none" stroke="#0c2020" stroke-width="13" stroke-linecap="round" stroke-linejoin="round" opacity="1.0"/><path d="M240.0,178.6 L241.5,187.6 L243.0,196.7 L244.5,205.7 L246.0,214.7 L247.5,223.7 L248.0,232.8 L248.0,242.0 L248.0,251.1 L248.0,260.3 L248.0,269.5 L248.0,278.6" fill="none" stroke="#f43f5e" stroke-width="21" stroke-linecap="round" stroke-linejoin="round" opacity="0.95"/><path d="M240.0,178.6 L241.5,187.6 L243.0,196.7 L244.5,205.7 L246.0,214.7 L247.5,223.7 L248.0,232.8 L248.0,242.0 L248.0,251.1 L248.0,260.3 L248.0,269.5 L248.0,278.6" fill="none" stroke="#0c2020" stroke-width="13" stroke-linecap="round" stroke-linejoin="round" opacity="1.0"/><path d="M240.0,104.6 L240.0,111.3 L240.0,118.1 L240.0,124.8 L240.0,131.5 L240.0,138.2 L240.0,145.0 L240.0,151.7 L240.0,158.4 L240.0,165.1 L240.0,171.9 L240.0,178.6" fill="none" stroke="#2dd4bf" stroke-width="25" stroke-linecap="round" stroke-linejoin="round" opacity="0.95"/><path d="M240.0,104.6 L240.0,111.3 L240.0,118.1 L240.0,124.8 L240.0,131.5 L240.0,138.2 L240.0,145.0 L240.0,151.7 L240.0,158.4 L240.0,165.1 L240.0,171.9 L240.0,178.6" fill="none" stroke="#0c2020" stroke-width="17" stroke-linecap="round" stroke-linejoin="round" opacity="1.0"/><circle cx="242.0" cy="76.6" r="19.0" fill="#2dd4bf" stroke="none" stroke-width="0" opacity="0.95"/><circle cx="242.0" cy="76.6" r="15.0" fill="#0c2020" stroke="none" stroke-width="6.3" opacity="1.0"/><path d="M232.7,73.6 L234.4,73.6 L236.1,73.6 L237.8,73.6 L239.5,73.6 L241.2,73.6 L242.8,73.6 L244.5,73.6 L246.2,73.6 L247.9,73.6 L249.6,73.6 L251.3,73.6" fill="none" stroke="#a7f3ee" stroke-width="5" stroke-linecap="round" stroke-linejoin="round" opacity="1.0"/><path d="M234.0,278.6 L234.7,279.8 L235.5,281.0 L236.2,282.3 L236.9,283.5 L237.6,284.7 L238.4,285.9 L239.1,287.1 L239.8,288.3 L240.5,289.6 L241.3,290.8 L242.0,292.0" fill="none" stroke="#2dd4bf" stroke-width="9" stroke-linecap="round" stroke-linejoin="round" opacity="1.0"/><path d="M248.0,278.6 L248.7,279.8 L249.5,281.0 L250.2,282.3 L250.9,283.5 L251.6,284.7 L252.4,285.9 L253.1,287.1 L253.8,288.3 L254.5,289.6 L255.3,290.8 L256.0,292.0" fill="none" stroke="#2dd4bf" stroke-width="9" stroke-linecap="round" stroke-linejoin="round" opacity="1.0"/></g><g class="f10"><path d="M240.0,106.2 L240.7,112.3 L241.3,118.3 L242.0,124.4 L242.6,130.5 L243.3,136.6 L243.9,142.7 L243.6,148.8 L243.2,154.9 L242.8,161.0 L242.4,167.1 L242.0,173.2" fill="none" stroke="#2dd4bf" stroke-width="21" stroke-linecap="round" stroke-linejoin="round" opacity="0.95"/><path d="M240.0,106.2 L240.7,112.3 L241.3,118.3 L242.0,124.4 L242.6,130.5 L243.3,136.6 L243.9,142.7 L243.6,148.8 L243.2,154.9 L242.8,161.0 L242.4,167.1 L242.0,173.2" fill="none" stroke="#0c2020" stroke-width="13" stroke-linecap="round" stroke-linejoin="round" opacity="1.0"/><path d="M240.0,180.2 L238.9,189.2 L237.7,198.3 L236.6,207.4 L235.5,216.4 L234.3,225.5 L234.0,234.6 L234.0,243.7 L234.0,252.8 L234.0,261.9 L234.0,271.1 L234.0,280.2" fill="none" stroke="#8f2a3e" stroke-width="21" stroke-linecap="round" stroke-linejoin="round" opacity="0.95"/><path d="M240.0,180.2 L238.9,189.2 L237.7,198.3 L236.6,207.4 L235.5,216.4 L234.3,225.5 L234.0,234.6 L234.0,243.7 L234.0,252.8 L234.0,261.9 L234.0,271.1 L234.0,280.2" fill="none" stroke="#0c2020" stroke-width="13" stroke-linecap="round" stroke-linejoin="round" opacity="1.0"/><path d="M240.0,180.2 L241.5,189.2 L243.0,198.2 L244.5,207.3 L246.0,216.3 L247.5,225.3 L248.0,234.4 L248.0,243.6 L248.0,252.7 L248.0,261.9 L248.0,271.0 L248.0,280.2" fill="none" stroke="#f43f5e" stroke-width="21" stroke-linecap="round" stroke-linejoin="round" opacity="0.95"/><path d="M240.0,180.2 L241.5,189.2 L243.0,198.2 L244.5,207.3 L246.0,216.3 L247.5,225.3 L248.0,234.4 L248.0,243.6 L248.0,252.7 L248.0,261.9 L248.0,271.0 L248.0,280.2" fill="none" stroke="#0c2020" stroke-width="13" stroke-linecap="round" stroke-linejoin="round" opacity="1.0"/><path d="M240.0,106.2 L240.0,112.9 L240.0,119.6 L240.0,126.4 L240.0,133.1 L240.0,139.8 L240.0,146.6 L240.0,153.3 L240.0,160.0 L240.0,166.7 L240.0,173.5 L240.0,180.2" fill="none" stroke="#2dd4bf" stroke-width="25" stroke-linecap="round" stroke-linejoin="round" opacity="0.95"/><path d="M240.0,106.2 L240.0,112.9 L240.0,119.6 L240.0,126.4 L240.0,133.1 L240.0,139.8 L240.0,146.6 L240.0,153.3 L240.0,160.0 L240.0,166.7 L240.0,173.5 L240.0,180.2" fill="none" stroke="#0c2020" stroke-width="17" stroke-linecap="round" stroke-linejoin="round" opacity="1.0"/><circle cx="242.0" cy="78.2" r="19.0" fill="#2dd4bf" stroke="none" stroke-width="0" opacity="0.95"/><circle cx="242.0" cy="78.2" r="15.0" fill="#0c2020" stroke="none" stroke-width="6.3" opacity="1.0"/><path d="M232.7,75.2 L234.4,75.2 L236.1,75.2 L237.8,75.2 L239.5,75.2 L241.2,75.2 L242.8,75.2 L244.5,75.2 L246.2,75.2 L247.9,75.2 L249.6,75.2 L251.3,75.2" fill="none" stroke="#a7f3ee" stroke-width="5" stroke-linecap="round" stroke-linejoin="round" opacity="1.0"/><path d="M234.0,280.2 L234.7,281.3 L235.5,282.3 L236.2,283.4 L236.9,284.5 L237.6,285.6 L238.4,286.6 L239.1,287.7 L239.8,288.8 L240.5,289.9 L241.3,290.9 L242.0,292.0" fill="none" stroke="#2dd4bf" stroke-width="9" stroke-linecap="round" stroke-linejoin="round" opacity="1.0"/><path d="M248.0,280.2 L248.7,281.3 L249.5,282.3 L250.2,283.4 L250.9,284.5 L251.6,285.6 L252.4,286.6 L253.1,287.7 L253.8,288.8 L254.5,289.9 L255.3,290.9 L256.0,292.0" fill="none" stroke="#2dd4bf" stroke-width="9" stroke-linecap="round" stroke-linejoin="round" opacity="1.0"/></g><g class="f11"><path d="M240.0,108.4 L240.7,114.5 L241.3,120.6 L242.0,126.7 L242.6,132.8 L243.3,138.8 L243.9,144.9 L243.6,151.0 L243.2,157.1 L242.8,163.2 L242.4,169.3 L242.0,175.4" fill="none" stroke="#2dd4bf" stroke-width="21" stroke-linecap="round" stroke-linejoin="round" opacity="0.95"/><path d="M240.0,108.4 L240.7,114.5 L241.3,120.6 L242.0,126.7 L242.6,132.8 L243.3,138.8 L243.9,144.9 L243.6,151.0 L243.2,157.1 L242.8,163.2 L242.4,169.3 L242.0,175.4" fill="none" stroke="#0c2020" stroke-width="13" stroke-linecap="round" stroke-linejoin="round" opacity="1.0"/><path d="M240.0,182.4 L238.9,191.5 L237.7,200.5 L236.6,209.6 L235.5,218.6 L234.3,227.7 L234.0,236.8 L234.0,245.9 L234.0,255.1 L234.0,264.2 L234.0,273.3 L234.0,282.4" fill="none" stroke="#8f2a3e" stroke-width="21" stroke-linecap="round" stroke-linejoin="round" opacity="0.95"/><path d="M240.0,182.4 L238.9,191.5 L237.7,200.5 L236.6,209.6 L235.5,218.6 L234.3,227.7 L234.0,236.8 L234.0,245.9 L234.0,255.1 L234.0,264.2 L234.0,273.3 L234.0,282.4" fill="none" stroke="#0c2020" stroke-width="13" stroke-linecap="round" stroke-linejoin="round" opacity="1.0"/><path d="M240.0,182.4 L241.5,191.5 L243.0,200.5 L244.5,209.5 L246.0,218.5 L247.5,227.6 L248.0,236.7 L248.0,245.8 L248.0,255.0 L248.0,264.1 L248.0,273.3 L248.0,282.4" fill="none" stroke="#f43f5e" stroke-width="21" stroke-linecap="round" stroke-linejoin="round" opacity="0.95"/><path d="M240.0,182.4 L241.5,191.5 L243.0,200.5 L244.5,209.5 L246.0,218.5 L247.5,227.6 L248.0,236.7 L248.0,245.8 L248.0,255.0 L248.0,264.1 L248.0,273.3 L248.0,282.4" fill="none" stroke="#0c2020" stroke-width="13" stroke-linecap="round" stroke-linejoin="round" opacity="1.0"/><path d="M240.0,108.4 L240.0,115.2 L240.0,121.9 L240.0,128.6 L240.0,135.3 L240.0,142.1 L240.0,148.8 L240.0,155.5 L240.0,162.2 L240.0,169.0 L240.0,175.7 L240.0,182.4" fill="none" stroke="#2dd4bf" stroke-width="25" stroke-linecap="round" stroke-linejoin="round" opacity="0.95"/><path d="M240.0,108.4 L240.0,115.2 L240.0,121.9 L240.0,128.6 L240.0,135.3 L240.0,142.1 L240.0,148.8 L240.0,155.5 L240.0,162.2 L240.0,169.0 L240.0,175.7 L240.0,182.4" fill="none" stroke="#0c2020" stroke-width="17" stroke-linecap="round" stroke-linejoin="round" opacity="1.0"/><circle cx="242.0" cy="80.4" r="19.0" fill="#2dd4bf" stroke="none" stroke-width="0" opacity="0.95"/><circle cx="242.0" cy="80.4" r="15.0" fill="#0c2020" stroke="none" stroke-width="6.3" opacity="1.0"/><path d="M232.7,77.4 L234.4,77.4 L236.1,77.4 L237.8,77.4 L239.5,77.4 L241.2,77.4 L242.8,77.4 L244.5,77.4 L246.2,77.4 L247.9,77.4 L249.6,77.4 L251.3,77.4" fill="none" stroke="#a7f3ee" stroke-width="5" stroke-linecap="round" stroke-linejoin="round" opacity="1.0"/><path d="M234.0,282.4 L234.7,283.3 L235.5,284.2 L236.2,285.0 L236.9,285.9 L237.6,286.8 L238.4,287.6 L239.1,288.5 L239.8,289.4 L240.5,290.3 L241.3,291.1 L242.0,292.0" fill="none" stroke="#2dd4bf" stroke-width="9" stroke-linecap="round" stroke-linejoin="round" opacity="1.0"/><path d="M248.0,282.4 L248.7,283.3 L249.5,284.2 L250.2,285.0 L250.9,285.9 L251.6,286.8 L252.4,287.6 L253.1,288.5 L253.8,289.4 L254.5,290.3 L255.3,291.1 L256.0,292.0" fill="none" stroke="#2dd4bf" stroke-width="9" stroke-linecap="round" stroke-linejoin="round" opacity="1.0"/></g><g class="f12"><path d="M240.0,111.0 L240.7,117.1 L241.3,123.2 L242.0,129.2 L242.6,135.3 L243.3,141.4 L243.9,147.5 L243.6,153.6 L243.2,159.7 L242.8,165.8 L242.4,171.9 L242.0,178.0" fill="none" stroke="#2dd4bf" stroke-width="21" stroke-linecap="round" stroke-linejoin="round" opacity="0.95"/><path d="M240.0,111.0 L240.7,117.1 L241.3,123.2 L242.0,129.2 L242.6,135.3 L243.3,141.4 L243.9,147.5 L243.6,153.6 L243.2,159.7 L242.8,165.8 L242.4,171.9 L242.0,178.0" fill="none" stroke="#0c2020" stroke-width="13" stroke-linecap="round" stroke-linejoin="round" opacity="1.0"/><path d="M240.0,185.0 L238.9,194.1 L237.7,203.1 L236.6,212.2 L235.5,221.2 L234.3,230.3 L234.0,239.4 L234.0,248.5 L234.0,257.6 L234.0,266.8 L234.0,275.9 L234.0,285.0" fill="none" stroke="#8f2a3e" stroke-width="21" stroke-linecap="round" stroke-linejoin="round" opacity="0.95"/><path d="M240.0,185.0 L238.9,194.1 L237.7,203.1 L236.6,212.2 L235.5,221.2 L234.3,230.3 L234.0,239.4 L234.0,248.5 L234.0,257.6 L234.0,266.8 L234.0,275.9 L234.0,285.0" fill="none" stroke="#0c2020" stroke-width="13" stroke-linecap="round" stroke-linejoin="round" opacity="1.0"/><path d="M240.0,185.0 L241.5,194.0 L243.0,203.1 L244.5,212.1 L246.0,221.1 L247.5,230.1 L248.0,239.2 L248.0,248.4 L248.0,257.5 L248.0,266.7 L248.0,275.8 L248.0,285.0" fill="none" stroke="#f43f5e" stroke-width="21" stroke-linecap="round" stroke-linejoin="round" opacity="0.95"/><path d="M240.0,185.0 L241.5,194.0 L243.0,203.1 L244.5,212.1 L246.0,221.1 L247.5,230.1 L248.0,239.2 L248.0,248.4 L248.0,257.5 L248.0,266.7 L248.0,275.8 L248.0,285.0" fill="none" stroke="#0c2020" stroke-width="13" stroke-linecap="round" stroke-linejoin="round" opacity="1.0"/><path d="M240.0,111.0 L240.0,117.7 L240.0,124.5 L240.0,131.2 L240.0,137.9 L240.0,144.6 L240.0,151.4 L240.0,158.1 L240.0,164.8 L240.0,171.5 L240.0,178.3 L240.0,185.0" fill="none" stroke="#2dd4bf" stroke-width="25" stroke-linecap="round" stroke-linejoin="round" opacity="0.95"/><path d="M240.0,111.0 L240.0,117.7 L240.0,124.5 L240.0,131.2 L240.0,137.9 L240.0,144.6 L240.0,151.4 L240.0,158.1 L240.0,164.8 L240.0,171.5 L240.0,178.3 L240.0,185.0" fill="none" stroke="#0c2020" stroke-width="17" stroke-linecap="round" stroke-linejoin="round" opacity="1.0"/><circle cx="242.0" cy="83.0" r="19.0" fill="#2dd4bf" stroke="none" stroke-width="0" opacity="0.95"/><circle cx="242.0" cy="83.0" r="15.0" fill="#0c2020" stroke="none" stroke-width="6.3" opacity="1.0"/><path d="M232.7,80.0 L234.4,80.0 L236.1,80.0 L237.8,80.0 L239.5,80.0 L241.2,80.0 L242.8,80.0 L244.5,80.0 L246.2,80.0 L247.9,80.0 L249.6,80.0 L251.3,80.0" fill="none" stroke="#a7f3ee" stroke-width="5" stroke-linecap="round" stroke-linejoin="round" opacity="1.0"/><path d="M234.0,285.0 L234.7,285.6 L235.5,286.3 L236.2,286.9 L236.9,287.5 L237.6,288.2 L238.4,288.8 L239.1,289.5 L239.8,290.1 L240.5,290.7 L241.3,291.4 L242.0,292.0" fill="none" stroke="#2dd4bf" stroke-width="9" stroke-linecap="round" stroke-linejoin="round" opacity="1.0"/><path d="M248.0,285.0 L248.7,285.6 L249.5,286.3 L250.2,286.9 L250.9,287.5 L251.6,288.2 L252.4,288.8 L253.1,289.5 L253.8,290.1 L254.5,290.7 L255.3,291.4 L256.0,292.0" fill="none" stroke="#2dd4bf" stroke-width="9" stroke-linecap="round" stroke-linejoin="round" opacity="1.0"/></g><g class="f13"><path d="M240.0,113.6 L240.7,119.7 L241.3,125.7 L242.0,131.8 L242.6,137.9 L243.3,144.0 L243.9,150.1 L243.6,156.2 L243.2,162.3 L242.8,168.4 L242.4,174.5 L242.0,180.6" fill="none" stroke="#2dd4bf" stroke-width="21" stroke-linecap="round" stroke-linejoin="round" opacity="0.95"/><path d="M240.0,113.6 L240.7,119.7 L241.3,125.7 L242.0,131.8 L242.6,137.9 L243.3,144.0 L243.9,150.1 L243.6,156.2 L243.2,162.3 L242.8,168.4 L242.4,174.5 L242.0,180.6" fill="none" stroke="#0c2020" stroke-width="13" stroke-linecap="round" stroke-linejoin="round" opacity="1.0"/><path d="M240.0,187.6 L238.9,196.6 L237.7,205.7 L236.6,214.7 L235.5,223.8 L234.3,232.8 L234.0,241.9 L234.0,251.1 L234.0,260.2 L234.0,269.3 L234.0,278.4 L234.0,287.6" fill="none" stroke="#8f2a3e" stroke-width="21" stroke-linecap="round" stroke-linejoin="round" opacity="0.95"/><path d="M240.0,187.6 L238.9,196.6 L237.7,205.7 L236.6,214.7 L235.5,223.8 L234.3,232.8 L234.0,241.9 L234.0,251.1 L234.0,260.2 L234.0,269.3 L234.0,278.4 L234.0,287.6" fill="none" stroke="#0c2020" stroke-width="13" stroke-linecap="round" stroke-linejoin="round" opacity="1.0"/><path d="M240.0,187.6 L241.5,196.6 L243.0,205.6 L244.5,214.7 L246.0,223.7 L247.5,232.7 L248.0,241.8 L248.0,251.0 L248.0,260.1 L248.0,269.3 L248.0,278.4 L248.0,287.6" fill="none" stroke="#f43f5e" stroke-width="21" stroke-linecap="round" stroke-linejoin="round" opacity="0.95"/><path d="M240.0,187.6 L241.5,196.6 L243.0,205.6 L244.5,214.7 L246.0,223.7 L247.5,232.7 L248.0,241.8 L248.0,251.0 L248.0,260.1 L248.0,269.3 L248.0,278.4 L248.0,287.6" fill="none" stroke="#0c2020" stroke-width="13" stroke-linecap="round" stroke-linejoin="round" opacity="1.0"/><path d="M240.0,113.6 L240.0,120.3 L240.0,127.0 L240.0,133.8 L240.0,140.5 L240.0,147.2 L240.0,153.9 L240.0,160.7 L240.0,167.4 L240.0,174.1 L240.0,180.8 L240.0,187.6" fill="none" stroke="#2dd4bf" stroke-width="25" stroke-linecap="round" stroke-linejoin="round" opacity="0.95"/><path d="M240.0,113.6 L240.0,120.3 L240.0,127.0 L240.0,133.8 L240.0,140.5 L240.0,147.2 L240.0,153.9 L240.0,160.7 L240.0,167.4 L240.0,174.1 L240.0,180.8 L240.0,187.6" fill="none" stroke="#0c2020" stroke-width="17" stroke-linecap="round" stroke-linejoin="round" opacity="1.0"/><circle cx="242.0" cy="85.6" r="19.0" fill="#2dd4bf" stroke="none" stroke-width="0" opacity="0.95"/><circle cx="242.0" cy="85.6" r="15.0" fill="#0c2020" stroke="none" stroke-width="6.3" opacity="1.0"/><path d="M232.7,82.6 L234.4,82.6 L236.1,82.6 L237.8,82.6 L239.5,82.6 L241.2,82.6 L242.8,82.6 L244.5,82.6 L246.2,82.6 L247.9,82.6 L249.6,82.6 L251.3,82.6" fill="none" stroke="#a7f3ee" stroke-width="5" stroke-linecap="round" stroke-linejoin="round" opacity="1.0"/><path d="M234.0,287.6 L234.7,288.0 L235.5,288.4 L236.2,288.8 L236.9,289.2 L237.6,289.6 L238.4,290.0 L239.1,290.4 L239.8,290.8 L240.5,291.2 L241.3,291.6 L242.0,292.0" fill="none" stroke="#2dd4bf" stroke-width="9" stroke-linecap="round" stroke-linejoin="round" opacity="1.0"/><path d="M248.0,287.6 L248.7,288.0 L249.5,288.4 L250.2,288.8 L250.9,289.2 L251.6,289.6 L252.4,290.0 L253.1,290.4 L253.8,290.8 L254.5,291.2 L255.3,291.6 L256.0,292.0" fill="none" stroke="#2dd4bf" stroke-width="9" stroke-linecap="round" stroke-linejoin="round" opacity="1.0"/></g><g class="f14"><path d="M240.0,115.8 L240.7,121.9 L241.3,128.0 L242.0,134.1 L242.6,140.1 L243.3,146.2 L243.9,152.3 L243.6,158.4 L243.2,164.5 L242.8,170.6 L242.4,176.7 L242.0,182.8" fill="none" stroke="#2dd4bf" stroke-width="21" stroke-linecap="round" stroke-linejoin="round" opacity="0.95"/><path d="M240.0,115.8 L240.7,121.9 L241.3,128.0 L242.0,134.1 L242.6,140.1 L243.3,146.2 L243.9,152.3 L243.6,158.4 L243.2,164.5 L242.8,170.6 L242.4,176.7 L242.0,182.8" fill="none" stroke="#0c2020" stroke-width="13" stroke-linecap="round" stroke-linejoin="round" opacity="1.0"/><path d="M240.0,189.8 L238.9,198.9 L237.7,207.9 L236.6,217.0 L235.5,226.0 L234.3,235.1 L234.0,244.2 L234.0,253.3 L234.0,262.4 L234.0,271.6 L234.0,280.7 L234.0,289.8" fill="none" stroke="#8f2a3e" stroke-width="21" stroke-linecap="round" stroke-linejoin="round" opacity="0.95"/><path d="M240.0,189.8 L238.9,198.9 L237.7,207.9 L236.6,217.0 L235.5,226.0 L234.3,235.1 L234.0,244.2 L234.0,253.3 L234.0,262.4 L234.0,271.6 L234.0,280.7 L234.0,289.8" fill="none" stroke="#0c2020" stroke-width="13" stroke-linecap="round" stroke-linejoin="round" opacity="1.0"/><path d="M240.0,189.8 L241.5,198.8 L243.0,207.9 L244.5,216.9 L246.0,225.9 L247.5,234.9 L248.0,244.1 L248.0,253.2 L248.0,262.4 L248.0,271.5 L248.0,280.7 L248.0,289.8" fill="none" stroke="#f43f5e" stroke-width="21" stroke-linecap="round" stroke-linejoin="round" opacity="0.95"/><path d="M240.0,189.8 L241.5,198.8 L243.0,207.9 L244.5,216.9 L246.0,225.9 L247.5,234.9 L248.0,244.1 L248.0,253.2 L248.0,262.4 L248.0,271.5 L248.0,280.7 L248.0,289.8" fill="none" stroke="#0c2020" stroke-width="13" stroke-linecap="round" stroke-linejoin="round" opacity="1.0"/><path d="M240.0,115.8 L240.0,122.5 L240.0,129.3 L240.0,136.0 L240.0,142.7 L240.0,149.4 L240.0,156.2 L240.0,162.9 L240.0,169.6 L240.0,176.4 L240.0,183.1 L240.0,189.8" fill="none" stroke="#2dd4bf" stroke-width="25" stroke-linecap="round" stroke-linejoin="round" opacity="0.95"/><path d="M240.0,115.8 L240.0,122.5 L240.0,129.3 L240.0,136.0 L240.0,142.7 L240.0,149.4 L240.0,156.2 L240.0,162.9 L240.0,169.6 L240.0,176.4 L240.0,183.1 L240.0,189.8" fill="none" stroke="#0c2020" stroke-width="17" stroke-linecap="round" stroke-linejoin="round" opacity="1.0"/><circle cx="242.0" cy="87.8" r="19.0" fill="#2dd4bf" stroke="none" stroke-width="0" opacity="0.95"/><circle cx="242.0" cy="87.8" r="15.0" fill="#0c2020" stroke="none" stroke-width="6.3" opacity="1.0"/><path d="M232.7,84.8 L234.4,84.8 L236.1,84.8 L237.8,84.8 L239.5,84.8 L241.2,84.8 L242.8,84.8 L244.5,84.8 L246.2,84.8 L247.9,84.8 L249.6,84.8 L251.3,84.8" fill="none" stroke="#a7f3ee" stroke-width="5" stroke-linecap="round" stroke-linejoin="round" opacity="1.0"/><path d="M234.0,289.8 L234.7,290.0 L235.5,290.2 L236.2,290.4 L236.9,290.6 L237.6,290.8 L238.4,291.0 L239.1,291.2 L239.8,291.4 L240.5,291.6 L241.3,291.8 L242.0,292.0" fill="none" stroke="#2dd4bf" stroke-width="9" stroke-linecap="round" stroke-linejoin="round" opacity="1.0"/><path d="M248.0,289.8 L248.7,290.0 L249.5,290.2 L250.2,290.4 L250.9,290.6 L251.6,290.8 L252.4,291.0 L253.1,291.2 L253.8,291.4 L254.5,291.6 L255.3,291.8 L256.0,292.0" fill="none" stroke="#2dd4bf" stroke-width="9" stroke-linecap="round" stroke-linejoin="round" opacity="1.0"/></g><g class="f15"><path d="M240.0,117.4 L240.7,123.5 L241.3,129.6 L242.0,135.6 L242.6,141.7 L243.3,147.8 L243.9,153.9 L243.6,160.0 L243.2,166.1 L242.8,172.2 L242.4,178.3 L242.0,184.4" fill="none" stroke="#2dd4bf" stroke-width="21" stroke-linecap="round" stroke-linejoin="round" opacity="0.95"/><path d="M240.0,117.4 L240.7,123.5 L241.3,129.6 L242.0,135.6 L242.6,141.7 L243.3,147.8 L243.9,153.9 L243.6,160.0 L243.2,166.1 L242.8,172.2 L242.4,178.3 L242.0,184.4" fill="none" stroke="#0c2020" stroke-width="13" stroke-linecap="round" stroke-linejoin="round" opacity="1.0"/><path d="M240.0,191.4 L238.9,200.5 L237.7,209.5 L236.6,218.6 L235.5,227.6 L234.3,236.7 L234.0,245.8 L234.0,254.9 L234.0,264.0 L234.0,273.1 L234.0,282.3 L234.0,291.4" fill="none" stroke="#8f2a3e" stroke-width="21" stroke-linecap="round" stroke-linejoin="round" opacity="0.95"/><path d="M240.0,191.4 L238.9,200.5 L237.7,209.5 L236.6,218.6 L235.5,227.6 L234.3,236.7 L234.0,245.8 L234.0,254.9 L234.0,264.0 L234.0,273.1 L234.0,282.3 L234.0,291.4" fill="none" stroke="#0c2020" stroke-width="13" stroke-linecap="round" stroke-linejoin="round" opacity="1.0"/><path d="M240.0,191.4 L241.5,200.4 L243.0,209.5 L244.5,218.5 L246.0,227.5 L247.5,236.5 L248.0,245.6 L248.0,254.8 L248.0,263.9 L248.0,273.1 L248.0,282.2 L248.0,291.4" fill="none" stroke="#f43f5e" stroke-width="21" stroke-linecap="round" stroke-linejoin="round" opacity="0.95"/><path d="M240.0,191.4 L241.5,200.4 L243.0,209.5 L244.5,218.5 L246.0,227.5 L247.5,236.5 L248.0,245.6 L248.0,254.8 L248.0,263.9 L248.0,273.1 L248.0,282.2 L248.0,291.4" fill="none" stroke="#0c2020" stroke-width="13" stroke-linecap="round" stroke-linejoin="round" opacity="1.0"/><path d="M240.0,117.4 L240.0,124.1 L240.0,130.9 L240.0,137.6 L240.0,144.3 L240.0,151.0 L240.0,157.8 L240.0,164.5 L240.0,171.2 L240.0,177.9 L240.0,184.7 L240.0,191.4" fill="none" stroke="#2dd4bf" stroke-width="25" stroke-linecap="round" stroke-linejoin="round" opacity="0.95"/><path d="M240.0,117.4 L240.0,124.1 L240.0,130.9 L240.0,137.6 L240.0,144.3 L240.0,151.0 L240.0,157.8 L240.0,164.5 L240.0,171.2 L240.0,177.9 L240.0,184.7 L240.0,191.4" fill="none" stroke="#0c2020" stroke-width="17" stroke-linecap="round" stroke-linejoin="round" opacity="1.0"/><circle cx="242.0" cy="89.4" r="19.0" fill="#2dd4bf" stroke="none" stroke-width="0" opacity="0.95"/><circle cx="242.0" cy="89.4" r="15.0" fill="#0c2020" stroke="none" stroke-width="6.3" opacity="1.0"/><path d="M232.7,86.4 L234.4,86.4 L236.1,86.4 L237.8,86.4 L239.5,86.4 L241.2,86.4 L242.8,86.4 L244.5,86.4 L246.2,86.4 L247.9,86.4 L249.6,86.4 L251.3,86.4" fill="none" stroke="#a7f3ee" stroke-width="5" stroke-linecap="round" stroke-linejoin="round" opacity="1.0"/><path d="M234.0,291.4 L234.7,291.5 L235.5,291.5 L236.2,291.6 L236.9,291.6 L237.6,291.7 L238.4,291.7 L239.1,291.8 L239.8,291.8 L240.5,291.9 L241.3,291.9 L242.0,292.0" fill="none" stroke="#2dd4bf" stroke-width="9" stroke-linecap="round" stroke-linejoin="round" opacity="1.0"/><path d="M248.0,291.4 L248.7,291.5 L249.5,291.5 L250.2,291.6 L250.9,291.6 L251.6,291.7 L252.4,291.7 L253.1,291.8 L253.8,291.8 L254.5,291.9 L255.3,291.9 L256.0,292.0" fill="none" stroke="#2dd4bf" stroke-width="9" stroke-linecap="round" stroke-linejoin="round" opacity="1.0"/></g></svg>
