<svg xmlns="http://www.w3.org/2000/svg" viewBox="0 0 480 320"><style>@keyframes k0{0%{opacity:1}11.111%{opacity:0}100%{opacity:0}}.f0{opacity:0;animation:k0 2.4s steps(1,end) infinite}@keyframes k1{0%{opacity:0}11.111%{opacity:1}16.667%{opacity:0}100%{opacity:0}}.f1{opacity:0;animation:k1 2.4s steps(1,end) infinite}@keyframes k2{0%{opacity:0}16.667%{opacity:1}22.222%{opacity:0}100%{opacity:0}}.f2{opacity:0;animation:k2 2.4s steps(1,end) infinite}@keyframes k3{0%{opacity:0}22.222%{opacity:1}27.778%{opacity:0}100%{opacity:0}}.f3{opacity:0;animation:k3 2.4s steps(1,end) infinite}@keyframes k4{0%{opacity:0}27.778%{opacity:1}33.333%{opacity:0}100%{opacity:0}}.f4{opacity:0;animation:k4 2.4s steps(1,end) infinite}@keyframes k5{0%{opacity:0}33.333%{opacity:1}38.889%{opacity:0}100%{opacity:0}}.f5{opacity:0;animation:k5 2.4s steps(1,end) infinite}@keyframes k6{0%{opacity:0}38.889%{opacity:1}44.444%{opacity:0}100%{opacity:0}}.f6{opacity:0;animation:k6 2.4s steps(1,end) infinite}@keyframes k7{0%{opacity:0}44.444%{opacity:1}50.000%{opacity:0}100%{opacity:0}}.f7{opacity:0;animation:k7 2.4s steps(1,end) infinite}@keyframes k8{0%{opacity:0}50.000%{opacity:1}61.111%{opacity:0}100%{opacity:0}}.f8{opacity:0;animation:k8 2.4s steps(1,end) infinite}@keyframes k9{0%{opacity:0}61.111%{opacity:1}66.667%{opacity:0}100%{opacity:0}}.f9{opacity:0;animation:k9 2.4s steps(1,end) infinite}@keyframes k10{0%{opacity:0}66.667%{opacity:1}72.222%{opacity:0}100%{opacity:0}}.f10{opacity:0;animation:k10 2.4s steps(1,end) infinite}@keyframes k11{0%{opacity:0}72.222%{opacity:1}77.778%{opacity:0}100%{opacity:0}}.f11{opacity:0;animation:k11 2.4s steps(1,end) infinite}@keyframes k12{0%{opacity:0}77.778%{opacity:1}83.333%{opacity:0}100%{opacity:0}}.f12{opacity:0;animation:k12 2.4s steps(1,end) infinite}@keyframes k13{0%{opacity:0}83.333%{opacity:1}88.889%{opacity:0}100%{opacity:0}}.f13{opacity:0;animation:k13 2.4s steps(1,end) infinite}@keyframes k14{0%{opacity:0}88.889%{opacity:1}94.444%{opacity:0}100%{opacity:0}}.f14{opacity:0;animation:k14 2.4s steps(1,end) infinite}@keyframes k15{0%{opacity:0}94.444%{opacity:1}100%{opacity:1}}.f15{opacity:0;animation:k15 2.4s steps(1,end) infinite}</style><path d="M40.0,292.0 L440.0,292.0" fill="none" stroke="#1f3333" stroke-width="6" stroke-linecap="round" stroke-linejoin="round" opacity="1.0"/><g class="f0"><path d="M192.0,152.0 L198.1,154.1 L204.2,156.2 L210.3,158.3 L216.4,160.4 L222.5,162.4 L228.6,164.5 L234.9,166.1 L241.2,167.6 L247.4,169.1 L253.7,170.5 L260.0,172.0" fill="none" stroke="#2dd4bf" stroke-width="19" stroke-linecap="round" stroke-linejoin="round" opacity="0.95"/><path d="M192.0,152.0 L198.1,154.1 L204.2,156.2 L210.3,158.3 L216.4,160.4 L222.5,162.4 L228.6,164.5 L234.9,166.1 L241.2,167.6 L247.4,169.1 L253.7,170.5 L260.0,172.0" fill="none" stroke="#0c2020" stroke-width="11" stroke-linecap="round" stroke-linejoin="round" opacity="1.0"/><path d="M185.0,232.0 L179.3,235.8 L173.7,239.6 L168.0,243.3 L162.3,247.1 L157.8,251.6 L156.8,258.3 L155.9,265.0 L154.9,271.8 L153.9,278.5 L153.0,285.3 L152.0,292.0" fill="none" stroke="#8f2a3e" stroke-width="19" stroke-linecap="round" stroke-linejoin="round" opacity="0.95"/><path d="M185.0,232.0 L179.3,235.8 L173.7,239.6 L168.0,243.3 L162.3,247.1 L157.8,251.6 L156.8,258.3 L155.9,265.0 L154.9,271.8 L153.9,278.5 L153.0,285.3 L152.0,292.0" fill="none" stroke="#0c2020" stroke-width="11" stroke-linecap="round" stroke-linejoin="round" opacity="1.0"/><path d="M185.0,232.0 L198.9,239.0 L212.9,246.1 L226.8,253.1 L240.7,260.2 L254.7,267.2 L268.6,274.3 L283.8,277.8 L299.1,280.8 L314.4,283.9 L329.7,286.9 L345.0,290.0" fill="none" stroke="#f43f5e" stroke-width="19" stroke-linecap="round" stroke-linejoin="round" opacity="0.95"/><path d="M185.0,232.0 L198.9,239.0 L212.9,246.1 L226.8,253.1 L240.7,260.2 L254.7,267.2 L268.6,274.3 L283.8,277.8 L299.1,280.8 L314.4,283.9 L329.7,286.9 L345.0,290.0" fill="none" stroke="#0c2020" stroke-width="11" stroke-linecap="round" stroke-linejoin="round" opacity="1.0"/><path d="M192.0,152.0 L191.4,159.3 L190.7,166.5 L190.1,173.8 L189.5,181.1 L188.8,188.4 L188.2,195.6 L187.5,202.9 L186.9,210.2 L186.3,217.5 L185.6,224.7 L185.0,232.0" fill="none" stroke="#2dd4bf" stroke-width="23" stroke-linecap="round" stroke-linejoin="round" opacity="0.95"/><path d="M192.0,152.0 L191.4,159.3 L190.7,166.5 L190.1,173.8 L189.5,181.1 L188.8,188.4 L188.2,195.6 L187.5,202.9 L186.9,210.2 L186.3,217.5 L185.6,224.7 L185.0,232.0" fill="none" stroke="#0c2020" stroke-width="15" stroke-linecap="round" stroke-linejoin="round" opacity="1.0"/><circle cx="192.0" cy="124.0" r="19.0" fill="#2dd4bf" stroke="none" stroke-width="0" opacity="0.95"/><circle cx="192.0" cy="124.0" r="15.0" fill="#0c2020" stroke="none" stroke-width="6.3" opacity="1.0"/><path d="M190.0,107.0 L187.0,110.0 L184.0,113.0 L181.1,115.9 L178.1,118.9 L175.1,121.9 L172.1,124.9 L171.5,128.5 L172.4,132.6 L173.3,136.8 L174.1,140.9 L175.0,145.0" fill="none" stroke="#2dd4bf" stroke-width="5" stroke-linecap="round" stroke-linejoin="round" opacity="1.0"/><path d="M182.7,121.0 L184.4,121.0 L186.1,121.0 L187.8,121.0 L189.5,121.0 L191.2,121.0 L192.8,121.0 L194.5,121.0 L196.2,121.0 L197.9,121.0 L199.6,121.0 L201.3,121.0" fill="none" stroke="#a7f3ee" stroke-width="5" stroke-linecap="round" stroke-linejoin="round" opacity="1.0"/></g><g class="f1"><path d="M196.1,152.0 L201.7,154.1 L207.3,156.2 L212.9,158.3 L218.4,160.4 L224.0,162.4 L229.6,164.5 L235.3,166.1 L241.1,167.6 L246.8,169.1 L252.5,170.5 L258.3,172.0" fill="none" stroke="#2dd4bf" stroke-width="19" stroke-linecap="round" stroke-linejoin="round" opacity="0.95"/><path d="M196.1,152.0 L201.7,154.1 L207.3,156.2 L212.9,158.3 L218.4,160.4 L224.0,162.4 L229.6,164.5 L235.3,166.1 L241.1,167.6 L246.8,169.1 L252.5,170.5 L258.3,172.0" fill="none" stroke="#0c2020" stroke-width="11" stroke-linecap="round" stroke-linejoin="round" opacity="1.0"/><path d="M189.7,232.0 L184.5,235.8 L179.4,239.6 L174.2,243.3 L169.0,247.1 L164.8,251.6 L164.0,258.3 L163.1,265.0 L162.2,271.8 L161.3,278.5 L160.4,285.3 L159.6,292.0" fill="none" stroke="#8f2a3e" stroke-width="19" stroke-linecap="round" stroke-linejoin="round" opacity="0.95"/><path d="M189.7,232.0 L184.5,235.8 L179.4,239.6 L174.2,243.3 L169.0,247.1 L164.8,251.6 L164.0,258.3 L163.1,265.0 L162.2,271.8 L161.3,278.5 L160.4,285.3 L159.6,292.0" fill="none" stroke="#0c2020" stroke-width="11" stroke-linecap="round" stroke-linejoin="round" opacity="1.0"/><path d="M189.7,232.0 L202.5,239.0 L215.2,246.1 L227.9,253.1 L240.7,260.2 L253.4,267.2 L266.1,274.3 L280.0,277.8 L294.0,280.8 L308.0,283.9 L322.0,286.9 L336.0,290.0" fill="none" stroke="#f43f5e" stroke-width="19" stroke-linecap="round" stroke-linejoin="round" opacity="0.95"/><path d="M189.7,232.0 L202.5,239.0 L215.2,246.1 L227.9,253.1 L240.7,260.2 L253.4,267.2 L266.1,274.3 L280.0,277.8 L294.0,280.8 L308.0,283.9 L322.0,286.9 L336.0,290.0" fill="none" stroke="#0c2020" stroke-width="11" stroke-linecap="round" stroke-linejoin="round" opacity="1.0"/><path d="M196.1,152.0 L195.5,159.3 L195.0,166.5 L194.4,173.8 L193.8,181.1 L193.2,188.4 L192.6,195.6 L192.1,202.9 L191.5,210.2 L190.9,217.5 L190.3,224.7 L189.7,232.0" fill="none" stroke="#2dd4bf" stroke-width="23" stroke-linecap="round" stroke-linejoin="round" opacity="0.95"/><path d="M196.1,152.0 L195.5,159.3 L195.0,166.5 L194.4,173.8 L193.8,181.1 L193.2,188.4 L192.6,195.6 L192.1,202.9 L191.5,210.2 L190.9,217.5 L190.3,224.7 L189.7,232.0" fill="none" stroke="#0c2020" stroke-width="15" stroke-linecap="round" stroke-linejoin="round" opacity="1.0"/><circle cx="196.1" cy="124.0" r="19.0" fill="#2dd4bf" stroke="none" stroke-width="0" opacity="0.95"/><circle cx="196.1" cy="124.0" r="15.0" fill="#0c2020" stroke="none" stroke-width="6.3" opacity="1.0"/><path d="M194.1,107.0 L191.1,110.0 L188.2,113.0 L185.2,115.9 L182.2,118.9 L179.2,121.9 L176.3,124.9 L175.7,128.5 L176.5,132.6 L177.4,136.8 L178.3,140.9 L179.1,145.0" fill="none" stroke="#2dd4bf" stroke-width="5" stroke-linecap="round" stroke-linejoin="round" opacity="1.0"/><path d="M186.8,121.0 L188.5,121.0 L190.2,121.0 L191.9,121.0 L193.6,121.0 L195.3,121.0 L197.0,121.0 L198.7,121.0 L200.4,121.0 L202.0,121.0 L203.7,121.0 L205.4,121.0" fill="none" stroke="#a7f3ee" stroke-width="5" stroke-linecap="round" stroke-linejoin="round" opacity="1.0"/></g><g class="f2"><path d="M207.0,152.0 L211.2,154.1 L215.4,156.2 L219.6,158.3 L223.8,160.4 L228.0,162.4 L232.2,164.5 L236.5,166.1 L240.8,167.6 L245.1,169.1 L249.4,170.5 L253.8,172.0" fill="none" stroke="#2dd4bf" stroke-width="19" stroke-linecap="round" stroke-linejoin="round" opacity="0.95"/><path d="M207.0,152.0 L211.2,154.1 L215.4,156.2 L219.6,158.3 L223.8,160.4 L228.0,162.4 L232.2,164.5 L236.5,166.1 L240.8,167.6 L245.1,169.1 L249.4,170.5 L253.8,172.0" fill="none" stroke="#0c2020" stroke-width="11" stroke-linecap="round" stroke-linejoin="round" opacity="1.0"/><path d="M202.2,232.0 L198.3,235.8 L194.4,239.6 L190.5,243.3 L186.6,247.1 L183.5,251.6 L182.8,258.3 L182.1,265.0 L181.5,271.8 L180.8,278.5 L180.2,285.3 L179.5,292.0" fill="none" stroke="#8f2a3e" stroke-width="19" stroke-linecap="round" stroke-linejoin="round" opacity="0.95"/><path d="M202.2,232.0 L198.3,235.8 L194.4,239.6 L190.5,243.3 L186.6,247.1 L183.5,251.6 L182.8,258.3 L182.1,265.0 L181.5,271.8 L180.8,278.5 L180.2,285.3 L179.5,292.0" fill="none" stroke="#0c2020" stroke-width="11" stroke-linecap="round" stroke-linejoin="round" opacity="1.0"/><path d="M202.2,232.0 L211.8,239.0 L221.3,246.1 L230.9,253.1 L240.5,260.2 L250.1,267.2 L259.7,274.3 L270.1,277.8 L280.6,280.8 L291.1,283.9 L301.7,286.9 L312.2,290.0" fill="none" stroke="#f43f5e" stroke-width="19" stroke-linecap="round" stroke-linejoin="round" opacity="0.95"/><path d="M202.2,232.0 L211.8,239.0 L221.3,246.1 L230.9,253.1 L240.5,260.2 L250.1,267.2 L259.7,274.3 L270.1,277.8 L280.6,280.8 L291.1,283.9 L301.7,286.9 L312.2,290.0" fill="none" stroke="#0c2020" stroke-width="11" stroke-linecap="round" stroke-linejoin="round" opacity="1.0"/><path d="M207.0,152.0 L206.6,159.3 L206.1,166.5 L205.7,173.8 L205.2,181.1 L204.8,188.4 L204.4,195.6 L203.9,202.9 L203.5,210.2 L203.1,217.5 L202.6,224.7 L202.2,232.0" fill="none" stroke="#2dd4bf" stroke-width="23" stroke-linecap="round" stroke-linejoin="round" opacity="0.95"/><path d="M207.0,152.0 L206.6,159.3 L206.1,166.5 L205.7,173.8 L205.2,181.1 L204.8,188.4 L204.4,195.6 L203.9,202.9 L203.5,210.2 L203.1,217.5 L202.6,224.7 L202.2,232.0" fill="none" stroke="#0c2020" stroke-width="15" stroke-linecap="round" stroke-linejoin="round" opacity="1.0"/><circle cx="207.0" cy="124.0" r="19.0" fill="#2dd4bf" stroke="none" stroke-width="0" opacity="0.95"/><circle cx="207.0" cy="124.0" r="15.0" fill="#0c2020" stroke="none" stroke-width="6.3" opacity="1.0"/><path d="M205.0,107.0 L202.0,110.0 L199.0,113.0 L196.1,115.9 L193.1,118.9 L190.1,121.9 L187.1,124.9 L186.5,128.5 L187.4,132.6 L188.3,136.8 L189.1,140.9 L190.0,145.0" fill="none" stroke="#2dd4bf" stroke-width="5" stroke-linecap="round" stroke-linejoin="round" opacity="1.0"/><path d="M197.7,121.0 L199.4,121.0 L201.1,121.0 L202.8,121.0 L204.5,121.0 L206.2,121.0 L207.8,121.0 L209.5,121.0 L211.2,121.0 L212.9,121.0 L214.6,121.0 L216.3,121.0" fill="none" stroke="#a7f3ee" stroke-width="5" stroke-linecap="round" stroke-linejoin="round" opacity="1.0"/></g><g class="f3"><path d="M222.4,152.0 L224.6,154.1 L226.9,156.2 L229.1,158.3 L231.3,160.4 L233.6,162.4 L235.8,164.5 L238.1,166.1 L240.4,167.6 L242.7,169.1 L245.0,170.5 L247.3,172.0" fill="none" stroke="#2dd4bf" stroke-width="19" stroke-linecap="round" stroke-linejoin="round" opacity="0.95"/><path d="M222.4,152.0 L224.6,154.1 L226.9,156.2 L229.1,158.3 L231.3,160.4 L233.6,162.4 L235.8,164.5 L238.1,166.1 L240.4,167.6 L242.7,169.1 L245.0,170.5 L247.3,172.0" fill="none" stroke="#0c2020" stroke-width="11" stroke-linecap="round" stroke-linejoin="round" opacity="1.0"/><path d="M219.8,232.0 L217.7,235.8 L215.6,239.6 L213.6,243.3 L211.5,247.1 L209.8,251.6 L209.5,258.3 L209.1,265.0 L208.7,271.8 L208.4,278.5 L208.0,285.3 L207.7,292.0" fill="none" stroke="#8f2a3e" stroke-width="19" stroke-linecap="round" stroke-linejoin="round" opacity="0.95"/><path d="M219.8,232.0 L217.7,235.8 L215.6,239.6 L213.6,243.3 L211.5,247.1 L209.8,251.6 L209.5,258.3 L209.1,265.0 L208.7,271.8 L208.4,278.5 L208.0,285.3 L207.7,292.0" fill="none" stroke="#0c2020" stroke-width="11" stroke-linecap="round" stroke-linejoin="round" opacity="1.0"/><path d="M219.8,232.0 L224.9,239.0 L230.0,246.1 L235.2,253.1 L240.3,260.2 L245.4,267.2 L250.5,274.3 L256.1,277.8 L261.7,280.8 L267.3,283.9 L272.9,286.9 L278.6,290.0" fill="none" stroke="#f43f5e" stroke-width="19" stroke-linecap="round" stroke-linejoin="round" opacity="0.95"/><path d="M219.8,232.0 L224.9,239.0 L230.0,246.1 L235.2,253.1 L240.3,260.2 L245.4,267.2 L250.5,274.3 L256.1,277.8 L261.7,280.8 L267.3,283.9 L272.9,286.9 L278.6,290.0" fill="none" stroke="#0c2020" stroke-width="11" stroke-linecap="round" stroke-linejoin="round" opacity="1.0"/><path d="M222.4,152.0 L222.1,159.3 L221.9,166.5 L221.7,173.8 L221.4,181.1 L221.2,188.4 L221.0,195.6 L220.7,202.9 L220.5,210.2 L220.3,217.5 L220.0,224.7 L219.8,232.0" fill="none" stroke="#2dd4bf" stroke-width="23" stroke-linecap="round" stroke-linejoin="round" opacity="0.95"/><path d="M222.4,152.0 L222.1,159.3 L221.9,166.5 L221.7,173.8 L221.4,181.1 L221.2,188.4 L221.0,195.6 L220.7,202.9 L220.5,210.2 L220.3,217.5 L220.0,224.7 L219.8,232.0" fill="none" stroke="#0c2020" stroke-width="15" stroke-linecap="round" stroke-linejoin="round" opacity="1.0"/><circle cx="222.4" cy="124.0" r="19.0" fill="#2dd4bf" stroke="none" stroke-width="0" opacity="0.95"/><circle cx="222.4" cy="124.0" r="15.0" fill="#0c2020" stroke="none" stroke-width="6.3" opacity="1.0"/><path d="M220.4,107.0 L217.4,110.0 L214.4,113.0 L211.4,115.9 L208.5,118.9 L205.5,121.9 L202.5,124.9 L201.9,128.5 L202.8,132.6 L203.6,136.8 L204.5,140.9 L205.4,145.0" fill="none" stroke="#2dd4bf" stroke-width="5" stroke-linecap="round" stroke-linejoin="round" opacity="1.0"/><path d="M213.1,121.0 L214.8,121.0 L216.5,121.0 L218.1,121.0 L219.8,121.0 L221.5,121.0 L223.2,121.0 L224.9,121.0 L226.6,121.0 L228.3,121.0 L230.0,121.0 L231.7,121.0" fill="none" stroke="#a7f3ee" stroke-width="5" stroke-linecap="round" stroke-linejoin="round" opacity="1.0"/></g><g class="f4"><path d="M240.0,152.0 L240.0,154.1 L240.0,156.2 L240.0,158.3 L240.0,160.4 L240.0,162.4 L240.0,164.5 L240.0,166.1 L240.0,167.6 L240.0,169.1 L240.0,170.5 L240.0,172.0" fill="none" stroke="#2dd4bf" stroke-width="19" stroke-linecap="round" stroke-linejoin="round" opacity="0.95"/><path d="M240.0,152.0 L240.0,154.1 L240.0,156.2 L240.0,158.3 L240.0,160.4 L240.0,162.4 L240.0,164.5 L240.0,166.1 L240.0,167.6 L240.0,169.1 L240.0,170.5 L240.0,172.0" fill="none" stroke="#0c2020" stroke-width="11" stroke-linecap="round" stroke-linejoin="round" opacity="1.0"/><path d="M240.0,232.0 L240.0,235.8 L240.0,239.6 L240.0,243.3 L240.0,247.1 L240.0,251.6 L240.0,258.3 L240.0,265.0 L240.0,271.8 L240.0,278.5 L240.0,285.3 L240.0,292.0" fill="none" stroke="#8f2a3e" stroke-width="19" stroke-linecap="round" stroke-linejoin="round" opacity="0.95"/><path d="M240.0,232.0 L240.0,235.8 L240.0,239.6 L240.0,243.3 L240.0,247.1 L240.0,251.6 L240.0,258.3 L240.0,265.0 L240.0,271.8 L240.0,278.5 L240.0,285.3 L240.0,292.0" fill="none" stroke="#0c2020" stroke-width="11" stroke-linecap="round" stroke-linejoin="round" opacity="1.0"/><path d="M240.0,232.0 L240.0,239.0 L240.0,246.1 L240.0,253.1 L240.0,260.2 L240.0,267.2 L240.0,274.3 L240.0,277.8 L240.0,280.8 L240.0,283.9 L240.0,286.9 L240.0,290.0" fill="none" stroke="#f43f5e" stroke-width="19" stroke-linecap="round" stroke-linejoin="round" opacity="0.95"/><path d="M240.0,232.0 L240.0,239.0 L240.0,246.1 L240.0,253.1 L240.0,260.2 L240.0,267.2 L240.0,274.3 L240.0,277.8 L240.0,280.8 L240.0,283.9 L240.0,286.9 L240.0,290.0" fill="none" stroke="#0c2020" stroke-width="11" stroke-linecap="round" stroke-linejoin="round" opacity="1.0"/><path d="M240.0,152.0 L240.0,159.3 L240.0,166.5 L240.0,173.8 L240.0,181.1 L240.0,188.4 L240.0,195.6 L240.0,202.9 L240.0,210.2 L240.0,217.5 L240.0,224.7 L240.0,232.0" fill="none" stroke="#2dd4bf" stroke-width="23" stroke-linecap="round" stroke-linejoin="round" opacity="0.95"/><path d="M240.0,152.0 L240.0,159.3 L240.0,166.5 L240.0,173.8 L240.0,181.1 L240.0,188.4 L240.0,195.6 L240.0,202.9 L240.0,210.2 L240.0,217.5 L240.0,224.7 L240.0,232.0" fill="none" stroke="#0c2020" stroke-width="15" stroke-linecap="round" stroke-linejoin="round" opacity="1.0"/><circle cx="240.0" cy="124.0" r="19.0" fill="#2dd4bf" stroke="none" stroke-width="0" opacity="0.95"/><circle cx="240.0" cy="124.0" r="15.0" fill="#0c2020" stroke="none" stroke-width="6.3" opacity="1.0"/><path d="M238.0,107.0 L235.0,110.0 L232.0,113.0 L229.1,115.9 L226.1,118.9 L223.1,121.9 L220.1,124.9 L219.5,128.5 L220.4,132.6 L221.3,136.8 L222.1,140.9 L223.0,145.0" fill="none" stroke="#2dd4bf" stroke-width="5" stroke-linecap="round" stroke-linejoin="round" opacity="1.0"/><path d="M230.7,121.0 L232.4,121.0 L234.1,121.0 L235.8,121.0 L237.5,121.0 L239.2,121.0 L240.8,121.0 L242.5,121.0 L244.2,121.0 L245.9,121.0 L247.6,121.0 L249.3,121.0" fill="none" stroke="#a7f3ee" stroke-width="5" stroke-linecap="round" stroke-linejoin="round" opacity="1.0"/></g><g class="f5"><path d="M257.6,152.0 L255.4,154.1 L253.1,156.2 L250.9,158.3 L248.7,160.4 L246.4,162.4 L244.2,164.5 L241.9,166.1 L239.6,167.6 L237.3,169.1 L235.0,170.5 L232.7,172.0" fill="none" stroke="#2dd4bf" stroke-width="19" stroke-linecap="round" stroke-linejoin="round" opacity="0.95"/><path d="M257.6,152.0 L255.4,154.1 L253.1,156.2 L250.9,158.3 L248.7,160.4 L246.4,162.4 L244.2,164.5 L241.9,166.1 L239.6,167.6 L237.3,169.1 L235.0,170.5 L232.7,172.0" fill="none" stroke="#0c2020" stroke-width="11" stroke-linecap="round" stroke-linejoin="round" opacity="1.0"/><path d="M260.2,232.0 L262.3,235.8 L264.4,239.6 L266.4,243.3 L268.5,247.1 L270.2,251.6 L270.5,258.3 L270.9,265.0 L271.3,271.8 L271.6,278.5 L272.0,285.3 L272.3,292.0" fill="none" stroke="#8f2a3e" stroke-width="19" stroke-linecap="round" stroke-linejoin="round" opacity="0.95"/><path d="M260.2,232.0 L262.3,235.8 L264.4,239.6 L266.4,243.3 L268.5,247.1 L270.2,251.6 L270.5,258.3 L270.9,265.0 L271.3,271.8 L271.6,278.5 L272.0,285.3 L272.3,292.0" fill="none" stroke="#0c2020" stroke-width="11" stroke-linecap="round" stroke-linejoin="round" opacity="1.0"/><path d="M260.2,232.0 L255.1,239.0 L250.0,246.1 L244.8,253.1 L239.7,260.2 L234.6,267.2 L229.5,274.3 L223.9,277.8 L218.3,280.8 L212.7,283.9 L207.1,286.9 L201.4,290.0" fill="none" stroke="#f43f5e" stroke-width="19" stroke-linecap="round" stroke-linejoin="round" opacity="0.95"/><path d="M260.2,232.0 L255.1,239.0 L250.0,246.1 L244.8,253.1 L239.7,260.2 L234.6,267.2 L229.5,274.3 L223.9,277.8 L218.3,280.8 L212.7,283.9 L207.1,286.9 L201.4,290.0" fill="none" stroke="#0c2020" stroke-width="11" stroke-linecap="round" stroke-linejoin="round" opacity="1.0"/><path d="M257.6,152.0 L257.9,159.3 L258.1,166.5 L258.3,173.8 L258.6,181.1 L258.8,188.4 L259.0,195.6 L259.3,202.9 L259.5,210.2 L259.7,217.5 L260.0,224.7 L260.2,232.0" fill="none" stroke="#2dd4bf" stroke-width="23" stroke-linecap="round" stroke-linejoin="round" opacity="0.95"/><path d="M257.6,152.0 L257.9,159.3 L258.1,166.5 L258.3,173.8 L258.6,181.1 L258.8,188.4 L259.0,195.6 L259.3,202.9 L259.5,210.2 L259.7,217.5 L260.0,224.7 L260.2,232.0" fill="none" stroke="#0c2020" stroke-width="15" stroke-linecap="round" stroke-linejoin="round" opacity="1.0"/><circle cx="257.6" cy="124.0" r="19.0" fill="#2dd4bf" stroke="none" stroke-width="0" opacity="0.95"/><circle cx="257.6" cy="124.0" r="15.0" fill="#0c2020" stroke="none" stroke-width="6.3" opacity="1.0"/><path d="M255.6,107.0 L252.6,110.0 L249.7,113.0 L246.7,115.9 L243.7,118.9 L240.7,121.9 L237.8,124.9 L237.2,128.5 L238.0,132.6 L238.9,136.8 L239.8,140.9 L240.6,145.0" fill="none" stroke="#2dd4bf" stroke-width="5" stroke-linecap="round" stroke-linejoin="round" opacity="1.0"/><path d="M248.3,121.0 L250.0,121.0 L251.7,121.0 L253.4,121.0 L255.1,121.0 L256.8,121.0 L258.5,121.0 L260.2,121.0 L261.9,121.0 L263.5,121.0 L265.2,121.0 L266.9,121.0" fill="none" stroke="#a7f3ee" stroke-width="5" stroke-linecap="round" stroke-linejoin="round" opacity="1.0"/></g><g class="f6"><path d="M273.0,152.0 L268.8,154.1 L264.6,156.2 L260.4,158.3 L256.2,160.4 L252.0,162.4 L247.8,164.5 L243.5,166.1 L239.2,167.6 L234.9,169.1 L230.6,170.5 L226.2,172.0" fill="none" stroke="#2dd4bf" stroke-width="19" stroke-linecap="round" stroke-linejoin="round" opacity="0.95"/><path d="M273.0,152.0 L268.8,154.1 L264.6,156.2 L260.4,158.3 L256.2,160.4 L252.0,162.4 L247.8,164.5 L243.5,166.1 L239.2,167.6 L234.9,169.1 L230.6,170.5 L226.2,172.0" fill="none" stroke="#0c2020" stroke-width="11" stroke-linecap="round" stroke-linejoin="round" opacity="1.0"/><path d="M277.8,232.0 L281.7,235.8 L285.6,239.6 L289.5,243.3 L293.4,247.1 L296.5,251.6 L297.2,258.3 L297.9,265.0 L298.5,271.8 L299.2,278.5 L299.8,285.3 L300.5,292.0" fill="none" stroke="#8f2a3e" stroke-width="19" stroke-linecap="round" stroke-linejoin="round" opacity="0.95"/><path d="M277.8,232.0 L281.7,235.8 L285.6,239.6 L289.5,243.3 L293.4,247.1 L296.5,251.6 L297.2,258.3 L297.9,265.0 L298.5,271.8 L299.2,278.5 L299.8,285.3 L300.5,292.0" fill="none" stroke="#0c2020" stroke-width="11" stroke-linecap="round" stroke-linejoin="round" opacity="1.0"/><path d="M277.8,232.0 L268.2,239.0 L258.7,246.1 L249.1,253.1 L239.5,260.2 L229.9,267.2 L220.3,274.3 L209.9,277.8 L199.4,280.8 L188.9,283.9 L178.3,286.9 L167.8,290.0" fill="none" stroke="#f43f5e" stroke-width="19" stroke-linecap="round" stroke-linejoin="round" opacity="0.95"/><path d="M277.8,232.0 L268.2,239.0 L258.7,246.1 L249.1,253.1 L239.5,260.2 L229.9,267.2 L220.3,274.3 L209.9,277.8 L199.4,280.8 L188.9,283.9 L178.3,286.9 L167.8,290.0" fill="none" stroke="#0c2020" stroke-width="11" stroke-linecap="round" stroke-linejoin="round" opacity="1.0"/><path d="M273.0,152.0 L273.4,159.3 L273.9,166.5 L274.3,173.8 L274.8,181.1 L275.2,188.4 L275.6,195.6 L276.1,202.9 L276.5,210.2 L276.9,217.5 L277.4,224.7 L277.8,232.0" fill="none" stroke="#2dd4bf" stroke-width="23" stroke-linecap="round" stroke-linejoin="round" opacity="0.95"/><path d="M273.0,152.0 L273.4,159.3 L273.9,166.5 L274.3,173.8 L274.8,181.1 L275.2,188.4 L275.6,195.6 L276.1,202.9 L276.5,210.2 L276.9,217.5 L277.4,224.7 L277.8,232.0" fill="none" stroke="#0c2020" stroke-width="15" stroke-linecap="round" stroke-linejoin="round" opacity="1.0"/><circle cx="273.0" cy="124.0" r="19.0" fill="#2dd4bf" stroke="none" stroke-width="0" opacity="0.95"/><circle cx="273.0" cy="124.0" r="15.0" fill="#0c2020" stroke="none" stroke-width="6.3" opacity="1.0"/><path d="M271.0,107.0 L268.0,110.0 L265.0,113.0 L262.1,115.9 L259.1,118.9 L256.1,121.9 L253.1,124.9 L252.5,128.5 L253.4,132.6 L254.3,136.8 L255.1,140.9 L256.0,145.0" fill="none" stroke="#2dd4bf" stroke-width="5" stroke-linecap="round" stroke-linejoin="round" opacity="1.0"/><path d="M263.7,121.0 L265.4,121.0 L267.1,121.0 L268.8,121.0 L270.5,121.0 L272.2,121.0 L273.8,121.0 L275.5,121.0 L277.2,121.0 L278.9,121.0 L280.6,121.0 L282.3,121.0" fill="none" stroke="#a7f3ee" stroke-width="5" stroke-linecap="round" stroke-linejoin="round" opacity="1.0"/></g><g class="f7"><path d="M283.9,152.0 L278.3,154.1 L272.7,156.2 L267.1,158.3 L261.6,160.4 L256.0,162.4 L250.4,164.5 L244.7,166.1 L238.9,167.6 L233.2,169.1 L227.5,170.5 L221.7,172.0" fill="none" stroke="#2dd4bf" stroke-width="19" stroke-linecap="round" stroke-linejoin="round" opacity="0.95"/><path d="M283.9,152.0 L278.3,154.1 L272.7,156.2 L267.1,158.3 L261.6,160.4 L256.0,162.4 L250.4,164.5 L244.7,166.1 L238.9,167.6 L233.2,169.1 L227.5,170.5 L221.7,172.0" fill="none" stroke="#0c2020" stroke-width="11" stroke-linecap="round" stroke-linejoin="round" opacity="1.0"/><path d="M290.3,232.0 L295.5,235.8 L300.6,239.6 L305.8,243.3 L311.0,247.1 L315.2,251.6 L316.0,258.3 L316.9,265.0 L317.8,271.8 L318.7,278.5 L319.6,285.3 L320.4,292.0" fill="none" stroke="#8f2a3e" stroke-width="19" stroke-linecap="round" stroke-linejoin="round" opacity="0.95"/><path d="M290.3,232.0 L295.5,235.8 L300.6,239.6 L305.8,243.3 L311.0,247.1 L315.2,251.6 L316.0,258.3 L316.9,265.0 L317.8,271.8 L318.7,278.5 L319.6,285.3 L320.4,292.0" fill="none" stroke="#0c2020" stroke-width="11" stroke-linecap="round" stroke-linejoin="round" opacity="1.0"/><path d="M290.3,232.0 L277.5,239.0 L264.8,246.1 L252.1,253.1 L239.3,260.2 L226.6,267.2 L213.9,274.3 L200.0,277.8 L186.0,280.8 L172.0,283.9 L158.0,286.9 L144.0,290.0" fill="none" stroke="#f43f5e" stroke-width="19" stroke-linecap="round" stroke-linejoin="round" opacity="0.95"/><path d="M290.3,232.0 L277.5,239.0 L264.8,246.1 L252.1,253.1 L239.3,260.2 L226.6,267.2 L213.9,274.3 L200.0,277.8 L186.0,280.8 L172.0,283.9 L158.0,286.9 L144.0,290.0" fill="none" stroke="#0c2020" stroke-width="11" stroke-linecap="round" stroke-linejoin="round" opacity="1.0"/><path d="M283.9,152.0 L284.5,159.3 L285.0,166.5 L285.6,173.8 L286.2,181.1 L286.8,188.4 L287.4,195.6 L287.9,202.9 L288.5,210.2 L289.1,217.5 L289.7,224.7 L290.3,232.0" fill="none" stroke="#2dd4bf" stroke-width="23" stroke-linecap="round" stroke-linejoin="round" opacity="0.95"/><path d="M283.9,152.0 L284.5,159.3 L285.0,166.5 L285.6,173.8 L286.2,181.1 L286.8,188.4 L287.4,195.6 L287.9,202.9 L288.5,210.2 L289.1,217.5 L289.7,224.7 L290.3,232.0" fill="none" stroke="#0c2020" stroke-width="15" stroke-linecap="round" stroke-linejoin="round" opacity="1.0"/><circle cx="283.9" cy="124.0" r="19.0" fill="#2dd4bf" stroke="none" stroke-width="0" opacity="0.95"/><circle cx="283.9" cy="124.0" r="15.0" fill="#0c2020" stroke="none" stroke-width="6.3" opacity="1.0"/><path d="M281.9,107.0 L278.9,110.0 L275.9,113.0 L272.9,115.9 L270.0,118.9 L267.0,121.9 L264.0,124.9 L263.4,128.5 L264.3,132.6 L265.1,136.8 L266.0,140.9 L266.9,145.0" fill="none" stroke="#2dd4bf" stroke-width="5" stroke-linecap="round" stroke-linejoin="round" opacity="1.0"/><path d="M274.6,121.0 L276.3,121.0 L278.0,121.0 L279.6,121.0 L281.3,121.0 L283.0,121.0 L284.7,121.0 L286.4,121.0 L288.1,121.0 L289.8,121.0 L291.5,121.0 L293.2,121.0" fill="none" stroke="#a7f3ee" stroke-width="5" stroke-linecap="round" stroke-linejoin="round" opacity="1.0"/></g><g class="f8"><path d="M288.0,152.0 L281.9,154.1 L275.8,156.2 L269.7,158.3 L263.6,160.4 L257.5,162.4 L251.4,164.5 L245.1,166.1 L238.8,167.6 L232.6,169.1 L226.3,170.5 L220.0,172.0" fill="none" stroke="#2dd4bf" stroke-width="19" stroke-linecap="round" stroke-linejoin="round" opacity="0.95"/><path d="M288.0,152.0 L281.9,154.1 L275.8,156.2 L269.7,158.3 L263.6,160.4 L257.5,162.4 L251.4,164.5 L245.1,166.1 L238.8,167.6 L232.6,169.1 L226.3,170.5 L220.0,172.0" fill="none" stroke="#0c2020" stroke-width="11" stroke-linecap="round" stroke-linejoin="round" opacity="1.0"/><path d="M295.0,232.0 L300.7,235.8 L306.3,239.6 L312.0,243.3 L317.7,247.1 L322.2,251.6 L323.2,258.3 L324.1,265.0 L325.1,271.8 L326.1,278.5 L327.0,285.3 L328.0,292.0" fill="none" stroke="#8f2a3e" stroke-width="19" stroke-linecap="round" stroke-linejoin="round" opacity="0.95"/><path d="M295.0,232.0 L300.7,235.8 L306.3,239.6 L312.0,243.3 L317.7,247.1 L322.2,251.6 L323.2,258.3 L324.1,265.0 L325.1,271.8 L326.1,278.5 L327.0,285.3 L328.0,292.0" fill="none" stroke="#0c2020" stroke-width="11" stroke-linecap="round" stroke-linejoin="round" opacity="1.0"/><path d="M295.0,232.0 L281.1,239.0 L267.1,246.1 L253.2,253.1 L239.3,260.2 L225.3,267.2 L211.4,274.3 L196.2,277.8 L180.9,280.8 L165.6,283.9 L150.3,286.9 L135.0,290.0" fill="none" stroke="#f43f5e" stroke-width="19" stroke-linecap="round" stroke-linejoin="round" opacity="0.95"/><path d="M295.0,232.0 L281.1,239.0 L267.1,246.1 L253.2,253.1 L239.3,260.2 L225.3,267.2 L211.4,274.3 L196.2,277.8 L180.9,280.8 L165.6,283.9 L150.3,286.9 L135.0,290.0" fill="none" stroke="#0c2020" stroke-width="11" stroke-linecap="round" stroke-linejoin="round" opacity="1.0"/><path d="M288.0,152.0 L288.6,159.3 L289.3,166.5 L289.9,173.8 L290.5,181.1 L291.2,188.4 L291.8,195.6 L292.5,202.9 L293.1,210.2 L293.7,217.5 L294.4,224.7 L295.0,232.0" fill="none" stroke="#2dd4bf" stroke-width="23" stroke-linecap="round" stroke-linejoin="round" opacity="0.95"/><path d="M288.0,152.0 L288.6,159.3 L289.3,166.5 L289.9,173.8 L290.5,181.1 L291.2,188.4 L291.8,195.6 L292.5,202.9 L293.1,210.2 L293.7,217.5 L294.4,224.7 L295.0,232.0" fill="none" stroke="#0c2020" stroke-width="15" stroke-linecap="round" stroke-linejoin="round" opacity="1.0"/><circle cx="288.0" cy="124.0" r="19.0" fill="#2dd4bf" stroke="none" stroke-width="0" opacity="0.95"/><circle cx="288.0" cy="124.0" r="15.0" fill="#0c2020" stroke="none" stroke-width="6.3" opacity="1.0"/><path d="M286.0,107.0 L283.0,110.0 L280.0,113.0 L277.1,115.9 L274.1,118.9 L271.1,121.9 L268.1,124.9 L267.5,128.5 L268.4,132.6 L269.3,136.8 L270.1,140.9 L271.0,145.0" fill="none" stroke="#2dd4bf" stroke-width="5" stroke-linecap="round" stroke-linejoin="round" opacity="1.0"/><path d="M278.7,121.0 L280.4,121.0 L282.1,121.0 L283.8,121.0 L285.5,121.0 L287.2,121.0 L288.8,121.0 L290.5,121.0 L292.2,121.0 L293.9,121.0 L295.6,121.0 L297.3,121.0" fill="none" stroke="#a7f3ee" stroke-width="5" stroke-linecap="round" stroke-linejoin="round" opacity="1.0"/></g><g class="f9"><path d="M283.9,152.0 L278.3,154.1 L272.7,156.2 L267.1,158.3 L261.6,160.4 L256.0,162.4 L250.4,164.5 L244.7,166.1 L238.9,167.6 L233.2,169.1 L227.5,170.5 L221.7,172.0" fill="none" stroke="#2dd4bf" stroke-width="19" stroke-linecap="round" stroke-linejoin="round" opacity="0.95"/><path d="M283.9,152.0 L278.3,154.1 L272.7,156.2 L267.1,158.3 L261.6,160.4 L256.0,162.4 L250.4,164.5 L244.7,166.1 L238.9,167.6 L233.2,169.1 L227.5,170.5 L221.7,172.0" fill="none" stroke="#0c2020" stroke-width="11" stroke-linecap="round" stroke-linejoin="round" opacity="1.0"/><path d="M290.3,232.0 L295.5,235.8 L300.6,239.6 L305.8,243.3 L311.0,247.1 L315.2,251.6 L316.0,258.3 L316.9,265.0 L317.8,271.8 L318.7,278.5 L319.6,285.3 L320.4,292.0" fill="none" stroke="#8f2a3e" stroke-width="19" stroke-linecap="round" stroke-linejoin="round" opacity="0.95"/><path d="M290.3,232.0 L295.5,235.8 L300.6,239.6 L305.8,243.3 L311.0,247.1 L315.2,251.6 L316.0,258.3 L316.9,265.0 L317.8,271.8 L318.7,278.5 L319.6,285.3 L320.4,292.0" fill="none" stroke="#0c2020" stroke-width="11" stroke-linecap="round" stroke-linejoin="round" opacity="1.0"/><path d="M290.3,232.0 L277.5,239.0 L264.8,246.1 L252.1,253.1 L239.3,260.2 L226.6,267.2 L213.9,274.3 L200.0,277.8 L186.0,280.8 L172.0,283.9 L158.0,286.9 L144.0,290.0" fill="none" stroke="#f43f5e" stroke-width="19" stroke-linecap="round" stroke-linejoin="round" opacity="0.95"/><path d="M290.3,232.0 L277.5,239.0 L264.8,246.1 L252.1,253.1 L239.3,260.2 L226.6,267.2 L213.9,274.3 L200.0,277.8 L186.0,280.8 L172.0,283.9 L158.0,286.9 L144.0,290.0" fill="none" stroke="#0c2020" stroke-width="11" stroke-linecap="round" stroke-linejoin="round" opacity="1.0"/><path d="M283.9,152.0 L284.5,159.3 L285.0,166.5 L285.6,173.8 L286.2,181.1 L286.8,188.4 L287.4,195.6 L287.9,202.9 L288.5,210.2 L289.1,217.5 L289.7,224.7 L290.3,232.0" fill="none" stroke="#2dd4bf" stroke-width="23" stroke-linecap="round" stroke-linejoin="round" opacity="0.95"/><path d="M283.9,152.0 L284.5,159.3 L285.0,166.5 L285.6,173.8 L286.2,181.1 L286.8,188.4 L287.4,195.6 L287.9,202.9 L288.5,210.2 L289.1,217.5 L289.7,224.7 L290.3,232.0" fill="none" stroke="#0c2020" stroke-width="15" stroke-linecap="round" stroke-linejoin="round" opacity="1.0"/><circle cx="283.9" cy="124.0" r="19.0" fill="#2dd4bf" stroke="none" stroke-width="0" opacity="0.95"/><circle cx="283.9" cy="124.0" r="15.0" fill="#0c2020" stroke="none" stroke-width="6.3" opacity="1.0"/><path d="M281.9,107.0 L278.9,110.0 L275.9,113.0 L272.9,115.9 L270.0,118.9 L267.0,121.9 L264.0,124.9 L263.4,128.5 L264.3,132.6 L265.1,136.8 L266.0,140.9 L266.9,145.0" fill="none" stroke="#2dd4bf" stroke-width="5" stroke-linecap="round" stroke-linejoin="round" opacity="1.0"/><path d="M274.6,121.0 L276.3,121.0 L278.0,121.0 L279.6,121.0 L281.3,121.0 L283.0,121.0 L284.7,121.0 L286.4,121.0 L288.1,121.0 L289.8,121.0 L291.5,121.0 L293.2,121.0" fill="none" stroke="#a7f3ee" stroke-width="5" stroke-linecap="round" stroke-linejoin="round" opacity="1.0"/></g><g class="f10"><path d="M273.0,152.0 L268.8,154.1 L264.6,156.2 L260.4,158.3 L256.2,160.4 L252.0,162.4 L247.8,164.5 L243.5,166.1 L239.2,167.6 L234.9,169.1 L230.6,170.5 L226.2,172.0" fill="none" stroke="#2dd4bf" stroke-width="19" stroke-linecap="round" stroke-linejoin="round" opacity="0.95"/><path d="M273.0,152.0 L268.8,154.1 L264.6,156.2 L260.4,158.3 L256.2,160.4 L252.0,162.4 L247.8,164.5 L243.5,166.1 L239.2,167.6 L234.9,169.1 L230.6,170.5 L226.2,172.0" fill="none" stroke="#0c2020" stroke-width="11" stroke-linecap="round" stroke-linejoin="round" opacity="1.0"/><path d="M277.8,232.0 L281.7,235.8 L285.6,239.6 L289.5,243.3 L293.4,247.1 L296.5,251.6 L297.2,258.3 L297.9,265.0 L298.5,271.8 L299.2,278.5 L299.8,285.3 L300.5,292.0" fill="none" stroke="#8f2a3e" stroke-width="19" stroke-linecap="round" stroke-linejoin="round" opacity="0.95"/><path d="M277.8,232.0 L281.7,235.8 L285.6,239.6 L289.5,243.3 L293.4,247.1 L296.5,251.6 L297.2,258.3 L297.9,265.0 L298.5,271.8 L299.2,278.5 L299.8,285.3 L300.5,292.0" fill="none" stroke="#0c2020" stroke-width="11" stroke-linecap="round" stroke-linejoin="round" opacity="1.0"/><path d="M277.8,232.0 L268.2,239.0 L258.7,246.1 L249.1,253.1 L239.5,260.2 L229.9,267.2 L220.3,274.3 L209.9,277.8 L199.4,280.8 L188.9,283.9 L178.3,286.9 L167.8,290.0" fill="none" stroke="#f43f5e" stroke-width="19" stroke-linecap="round" stroke-linejoin="round" opacity="0.95"/><path d="M277.8,232.0 L268.2,239.0 L258.7,246.1 L249.1,253.1 L239.5,260.2 L229.9,267.2 L220.3,274.3 L209.9,277.8 L199.4,280.8 L188.9,283.9 L178.3,286.9 L167.8,290.0" fill="none" stroke="#0c2020" stroke-width="11" stroke-linecap="round" stroke-linejoin="round" opacity="1.0"/><path d="M273.0,152.0 L273.4,159.3 L273.9,166.5 L274.3,173.8 L274.8,181.1 L275.2,188.4 L275.6,195.6 L276.1,202.9 L276.5,210.2 L276.9,217.5 L277.4,224.7 L277.8,232.0" fill="none" stroke="#2dd4bf" stroke-width="23" stroke-linecap="round" stroke-linejoin="round" opacity="0.95"/><path d="M273.0,152.0 L273.4,159.3 L273.9,166.5 L274.3,173.8 L274.8,181.1 L275.2,188.4 L275.6,195.6 L276.1,202.9 L276.5,210.2 L276.9,217.5 L277.4,224.7 L277.8,232.0" fill="none" stroke="#0c2020" stroke-width="15" stroke-linecap="round" stroke-linejoin="round" opacity="1.0"/><circle cx="273.0" cy="124.0" r="19.0" fill="#2dd4bf" stroke="none" stroke-width="0" opacity="0.95"/><circle cx="273.0" cy="124.0" r="15.0" fill="#0c2020" stroke="none" stroke-width="6.3" opacity="1.0"/><path d="M271.0,107.0 L268.0,110.0 L265.0,113.0 L262.1,115.9 L259.1,118.9 L256.1,121.9 L253.1,124.9 L252.5,128.5 L253.4,132.6 L254.3,136.8 L255.1,140.9 L256.0,145.0" fill="none" stroke="#2dd4bf" stroke-width="5" stroke-linecap="round" stroke-linejoin="round" opacity="1.0"/><path d="M263.7,121.0 L265.4,121.0 L267.1,121.0 L268.8,121.0 L270.5,121.0 L272.2,121.0 L273.8,121.0 L275.5,121.0 L277.2,121.0 L278.9,121.0 L280.6,121.0 L282.3,121.0" fill="none" stroke="#a7f3ee" stroke-width="5" stroke-linecap="round" stroke-linejoin="round" opacity="1.0"/></g><g class="f11"><path d="M257.6,152.0 L255.4,154.1 L253.1,156.2 L250.9,158.3 L248.7,160.4 L246.4,162.4 L244.2,164.5 L241.9,166.1 L239.6,167.6 L237.3,169.1 L235.0,170.5 L232.7,172.0" fill="none" stroke="#2dd4bf" stroke-width="19" stroke-linecap="round" stroke-linejoin="round" opacity="0.95"/><path d="M257.6,152.0 L255.4,154.1 L253.1,156.2 L250.9,158.3 L248.7,160.4 L246.4,162.4 L244.2,164.5 L241.9,166.1 L239.6,167.6 L237.3,169.1 L235.0,170.5 L232.7,172.0" fill="none" stroke="#0c2020" stroke-width="11" stroke-linecap="round" stroke-linejoin="round" opacity="1.0"/><path d="M260.2,232.0 L262.3,235.8 L264.4,239.6 L266.4,243.3 L268.5,247.1 L270.2,251.6 L270.5,258.3 L270.9,265.0 L271.3,271.8 L271.6,278.5 L272.0,285.3 L272.3,292.0" fill="none" stroke="#8f2a3e" stroke-width="19" stroke-linecap="round" stroke-linejoin="round" opacity="0.95"/><path d="M260.2,232.0 L262.3,235.8 L264.4,239.6 L266.4,243.3 L268.5,247.1 L270.2,251.6 L270.5,258.3 L270.9,265.0 L271.3,271.8 L271.6,278.5 L272.0,285.3 L272.3,292.0" fill="none" stroke="#0c2020" stroke-width="11" stroke-linecap="round" stroke-linejoin="round" opacity="1.0"/><path d="M260.2,232.0 L255.1,239.0 L250.0,246.1 L244.8,253.1 L239.7,260.2 L234.6,267.2 L229.5,274.3 L223.9,277.8 L218.3,280.8 L212.7,283.9 L207.1,286.9 L201.4,290.0" fill="none" stroke="#f43f5e" stroke-width="19" stroke-linecap="round" stroke-linejoin="round" opacity="0.95"/><path d="M260.2,232.0 L255.1,239.0 L250.0,246.1 L244.8,253.1 L239.7,260.2 L234.6,267.2 L229.5,274.3 L223.9,277.8 L218.3,280.8 L212.7,283.9 L207.1,286.9 L201.4,290.0" fill="none" stroke="#0c2020" stroke-width="11" stroke-linecap="round" stroke-linejoin="round" opacity="1.0"/><path d="M257.6,152.0 L257.9,159.3 L258.1,166.5 L258.3,173.8 L258.6,181.1 L258.8,188.4 L259.0,195.6 L259.3,202.9 L259.5,210.2 L259.7,217.5 L260.0,224.7 L260.2,232.0" fill="none" stroke="#2dd4bf" stroke-width="23" stroke-linecap="round" stroke-linejoin="round" opacity="0.95"/><path d="M257.6,152.0 L257.9,159.3 L258.1,166.5 L258.3,173.8 L258.6,181.1 L258.8,188.4 L259.0,195.6 L259.3,202.9 L259.5,210.2 L259.7,217.5 L260.0,224.7 L260.2,232.0" fill="none" stroke="#0c2020" stroke-width="15" stroke-linecap="round" stroke-linejoin="round" opacity="1.0"/><circle cx="257.6" cy="124.0" r="19.0" fill="#2dd4bf" stroke="none" stroke-width="0" opacity="0.95"/><circle cx="257.6" cy="124.0" r="15.0" fill="#0c2020" stroke="none" stroke-width="6.3" opacity="1.0"/><path d="M255.6,107.0 L252.6,110.0 L249.7,113.0 L246.7,115.9 L243.7,118.9 L240.7,121.9 L237.8,124.9 L237.2,128.5 L238.0,132.6 L238.9,136.8 L239.8,140.9 L240.6,145.0" fill="none" stroke="#2dd4bf" stroke-width="5" stroke-linecap="round" stroke-linejoin="round" opacity="1.0"/><path d="M248.3,121.0 L250.0,121.0 L251.7,121.0 L253.4,121.0 L255.1,121.0 L256.8,121.0 L258.5,121.0 L260.2,121.0 L261.9,121.0 L263.5,121.0 L265.2,121.0 L266.9,121.0" fill="none" stroke="#a7f3ee" stroke-width="5" stroke-linecap="round" stroke-linejoin="round" opacity="1.0"/></g><g class="f12"><path d="M240.0,152.0 L240.0,154.1 L240.0,156.2 L240.0,158.3 L240.0,160.4 L240.0,162.4 L240.0,164.5 L240.0,166.1 L240.0,167.6 L240.0,169.1 L240.0,170.5 L240.0,172.0" fill="none" stroke="#2dd4bf" stroke-width="19" stroke-linecap="round" stroke-linejoin="round" opacity="0.95"/><path d="M240.0,152.0 L240.0,154.1 L240.0,156.2 L240.0,158.3 L240.0,160.4 L240.0,162.4 L240.0,164.5 L240.0,166.1 L240.0,167.6 L240.0,169.1 L240.0,170.5 L240.0,172.0" fill="none" stroke="#0c2020" stroke-width="11" stroke-linecap="round" stroke-linejoin="round" opacity="1.0"/><path d="M240.0,232.0 L240.0,235.8 L240.0,239.6 L240.0,243.3 L240.0,247.1 L240.0,251.6 L240.0,258.3 L240.0,265.0 L240.0,271.8 L240.0,278.5 L240.0,285.3 L240.0,292.0" fill="none" stroke="#8f2a3e" stroke-width="19" stroke-linecap="round" stroke-linejoin="round" opacity="0.95"/><path d="M240.0,232.0 L240.0,235.8 L240.0,239.6 L240.0,243.3 L240.0,247.1 L240.0,251.6 L240.0,258.3 L240.0,265.0 L240.0,271.8 L240.0,278.5 L240.0,285.3 L240.0,292.0" fill="none" stroke="#0c2020" stroke-width="11" stroke-linecap="round" stroke-linejoin="round" opacity="1.0"/><path d="M240.0,232.0 L240.0,239.0 L240.0,246.1 L240.0,253.1 L240.0,260.2 L240.0,267.2 L240.0,274.3 L240.0,277.8 L240.0,280.8 L240.0,283.9 L240.0,286.9 L240.0,290.0" fill="none" stroke="#f43f5e" stroke-width="19" stroke-linecap="round" stroke-linejoin="round" opacity="0.95"/><path d="M240.0,232.0 L240.0,239.0 L240.0,246.1 L240.0,253.1 L240.0,260.2 L240.0,267.2 L240.0,274.3 L240.0,277.8 L240.0,280.8 L240.0,283.9 L240.0,286.9 L240.0,290.0" fill="none" stroke="#0c2020" stroke-width="11" stroke-linecap="round" stroke-linejoin="round" opacity="1.0"/><path d="M240.0,152.0 L240.0,159.3 L240.0,166.5 L240.0,173.8 L240.0,181.1 L240.0,188.4 L240.0,195.6 L240.0,202.9 L240.0,210.2 L240.0,217.5 L240.0,224.7 L240.0,232.0" fill="none" stroke="#2dd4bf" stroke-width="23" stroke-linecap="round" stroke-linejoin="round" opacity="0.95"/><path d="M240.0,152.0 L240.0,159.3 L240.0,166.5 L240.0,173.8 L240.0,181.1 L240.0,188.4 L240.0,195.6 L240.0,202.9 L240.0,210.2 L240.0,217.5 L240.0,224.7 L240.0,232.0" fill="none" stroke="#0c2020" stroke-width="15" stroke-linecap="round" stroke-linejoin="round" opacity="1.0"/><circle cx="240.0" cy="124.0" r="19.0" fill="#2dd4bf" stroke="none" stroke-width="0" opacity="0.95"/><circle cx="240.0" cy="124.0" r="15.0" fill="#0c2020" stroke="none" stroke-width="6.3" opacity="1.0"/><path d="M238.0,107.0 L235.0,110.0 L232.0,113.0 L229.1,115.9 L226.1,118.9 L223.1,121.9 L220.1,124.9 L219.5,128.5 L220.4,132.6 L221.3,136.8 L222.1,140.9 L223.0,145.0" fill="none" stroke="#2dd4bf" stroke-width="5" stroke-linecap="round" stroke-linejoin="round" opacity="1.0"/><path d="M230.7,121.0 L232.4,121.0 L234.1,121.0 L235.8,121.0 L237.5,121.0 L239.2,121.0 L240.8,121.0 L242.5,121.0 L244.2,121.0 L245.9,121.0 L247.6,121.0 L249.3,121.0" fill="none" stroke="#a7f3ee" stroke-width="5" stroke-linecap="round" stroke-linejoin="round" opacity="1.0"/></g><g class="f13"><path d="M222.4,152.0 L224.6,154.1 L226.9,156.2 L229.1,158.3 L231.3,160.4 L233.6,162.4 L235.8,164.5 L238.1,166.1 L240.4,167.6 L242.7,169.1 L245.0,170.5 L247.3,172.0" fill="none" stroke="#2dd4bf" stroke-width="19" stroke-linecap="round" stroke-linejoin="round" opacity="0.95"/><path d="M222.4,152.0 L224.6,154.1 L226.9,156.2 L229.1,158.3 L231.3,160.4 L233.6,162.4 L235.8,164.5 L238.1,166.1 L240.4,167.6 L242.7,169.1 L245.0,170.5 L247.3,172.0" fill="none" stroke="#0c2020" stroke-width="11" stroke-linecap="round" stroke-linejoin="round" opacity="1.0"/><path d="M219.8,232.0 L217.7,235.8 L215.6,239.6 L213.6,243.3 L211.5,247.1 L209.8,251.6 L209.5,258.3 L209.1,265.0 L208.7,271.8 L208.4,278.5 L208.0,285.3 L207.7,292.0" fill="none" stroke="#8f2a3e" stroke-width="19" stroke-linecap="round" stroke-linejoin="round" opacity="0.95"/><path d="M219.8,232.0 L217.7,235.8 L215.6,239.6 L213.6,243.3 L211.5,247.1 L209.8,251.6 L209.5,258.3 L209.1,265.0 L208.7,271.8 L208.4,278.5 L208.0,285.3 L207.7,292.0" fill="none" stroke="#0c2020" stroke-width="11" stroke-linecap="round" stroke-linejoin="round" opacity="1.0"/><path d="M219.8,232.0 L224.9,239.0 L230.0,246.1 L235.2,253.1 L240.3,260.2 L245.4,267.2 L250.5,274.3 L256.1,277.8 L261.7,280.8 L267.3,283.9 L272.9,286.9 L278.6,290.0" fill="none" stroke="#f43f5e" stroke-width="19" stroke-linecap="round" stroke-linejoin="round" opacity="0.95"/><path d="M219.8,232.0 L224.9,239.0 L230.0,246.1 L235.2,253.1 L240.3,260.2 L245.4,267.2 L250.5,274.3 L256.1,277.8 L261.7,280.8 L267.3,283.9 L272.9,286.9 L278.6,290.0" fill="none" stroke="#0c2020" stroke-width="11" stroke-linecap="round" stroke-linejoin="round" opacity="1.0"/><path d="M222.4,152.0 L222.1,159.3 L221.9,166.5 L221.7,173.8 L221.4,181.1 L221.2,188.4 L221.0,195.6 L220.7,202.9 L220.5,210.2 L220.3,217.5 L220.0,224.7 L219.8,232.0" fill="none" stroke="#2dd4bf" stroke-width="23" stroke-linecap="round" stroke-linejoin="round" opacity="0.95"/><path d="M222.4,152.0 L222.1,159.3 L221.9,166.5 L221.7,173.8 L221.4,181.1 L221.2,188.4 L221.0,195.6 L220.7,202.9 L220.5,210.2 L220.3,217.5 L220.0,224.7 L219.8,232.0" fill="none" stroke="#0c2020" stroke-width="15" stroke-linecap="round" stroke-linejoin="round" opacity="1.0"/><circle cx="222.4" cy="124.0" r="19.0" fill="#2dd4bf" stroke="none" stroke-width="0" opacity="0.95"/><circle cx="222.4" cy="124.0" r="15.0" fill="#0c2020" stroke="none" stroke-width="6.3" opacity="1.0"/><path d="M220.4,107.0 L217.4,110.0 L214.4,113.0 L211.4,115.9 L208.5,118.9 L205.5,121.9 L202.5,124.9 L201.9,128.5 L202.8,132.6 L203.6,136.8 L204.5,140.9 L205.4,145.0" fill="none" stroke="#2dd4bf" stroke-width="5" stroke-linecap="round" stroke-linejoin="round" opacity="1.0"/><path d="M213.1,121.0 L214.8,121.0 L216.5,121.0 L218.1,121.0 L219.8,121.0 L221.5,121.0 L223.2,121.0 L224.9,121.0 L226.6,121.0 L228.3,121.0 L230.0,121.0 L231.7,121.0" fill="none" stroke="#a7f3ee" stroke-width="5" stroke-linecap="round" stroke-linejoin="round" opacity="1.0"/></g><g class="f14"><path d="M207.0,152.0 L211.2,154.1 L215.4,156.2 L219.6,158.3 L223.8,160.4 L228.0,162.4 L232.2,164.5 L236.5,166.1 L240.8,167.6 L245.1,169.1 L249.4,170.5 L253.8,172.0" fill="none" stroke="#2dd4bf" stroke-width="19" stroke-linecap="round" stroke-linejoin="round" opacity="0.95"/><path d="M207.0,152.0 L211.2,154.1 L215.4,156.2 L219.6,158.3 L223.8,160.4 L228.0,162.4 L232.2,164.5 L236.5,166.1 L240.8,167.6 L245.1,169.1 L249.4,170.5 L253.8,172.0" fill="none" stroke="#0c2020" stroke-width="11" stroke-linecap="round" stroke-linejoin="round" opacity="1.0"/><path d="M202.2,232.0 L198.3,235.8 L194.4,239.6 L190.5,243.3 L186.6,247.1 L183.5,251.6 L182.8,258.3 L182.1,265.0 L181.5,271.8 L180.8,278.5 L180.2,285.3 L179.5,292.0" fill="none" stroke="#8f2a3e" stroke-width="19" stroke-linecap="round" stroke-linejoin="round" opacity="0.95"/><path d="M202.2,232.0 L198.3,235.8 L194.4,239.6 L190.5,243.3 L186.6,247.1 L183.5,251.6 L182.8,258.3 L182.1,265.0 L181.5,271.8 L180.8,278.5 L180.2,285.3 L179.5,292.0" fill="none" stroke="#0c2020" stroke-width="11" stroke-linecap="round" stroke-linejoin="round" opacity="1.0"/><path d="M202.2,232.0 L211.8,239.0 L221.3,246.1 L230.9,253.1 L240.5,260.2 L250.1,267.2 L259.7,274.3 L270.1,277.8 L280.6,280.8 L291.1,283.9 L301.7,286.9 L312.2,290.0" fill="none" stroke="#f43f5e" stroke-width="19" stroke-linecap="round" stroke-linejoin="round" opacity="0.95"/><path d="M202.2,232.0 L211.8,239.0 L221.3,246.1 L230.9,253.1 L240.5,260.2 L250.1,267.2 L259.7,274.3 L270.1,277.8 L280.6,280.8 L291.1,283.9 L301.7,286.9 L312.2,290.0" fill="none" stroke="#0c2020" stroke-width="11" stroke-linecap="round" stroke-linejoin="round" opacity="1.0"/><path d="M207.0,152.0 L206.6,159.3 L206.1,166.5 L205.7,173.8 L205.2,181.1 L204.8,188.4 L204.4,195.6 L203.9,202.9 L203.5,210.2 L203.1,217.5 L202.6,224.7 L202.2,232.0" fill="none" stroke="#2dd4bf" stroke-width="23" stroke-linecap="round" stroke-linejoin="round" opacity="0.95"/><path d="M207.0,152.0 L206.6,159.3 L206.1,166.5 L205.7,173.8 L205.2,181.1 L204.8,188.4 L204.4,195.6 L203.9,202.9 L203.5,210.2 L203.1,217.5 L202.6,224.7 L202.2,232.0" fill="none" stroke="#0c2020" stroke-width="15" stroke-linecap="round" stroke-linejoin="round" opacity="1.0"/><circle cx="207.0" cy="124.0" r="19.0" fill="#2dd4bf" stroke="none" stroke-width="0" opacity="0.95"/><circle cx="207.0" cy="124.0" r="15.0" fill="#0c2020" stroke="none" stroke-width="6.3" opacity="1.0"/><path d="M205.0,107.0 L202.0,110.0 L199.0,113.0 L196.1,115.9 L193.1,118.9 L190.1,121.9 L187.1,124.9 L186.5,128.5 L187.4,132.6 L188.3,136.8 L189.1,140.9 L190.0,145.0" fill="none" stroke="#2dd4bf" stroke-width="5" stroke-linecap="round" stroke-linejoin="round" opacity="1.0"/><path d="M197.7,121.0 L199.4,121.0 L201.1,121.0 L202.8,121.0 L204.5,121.0 L206.2,121.0 L207.8,121.0 L209.5,121.0 L211.2,121.0 L212.9,121.0 L214.6,121.0 L216.3,121.0" fill="none" stroke="#a7f3ee" stroke-width="5" stroke-linecap="round" stroke-linejoin="round" opacity="1.0"/></g><g class="f15"><path d="M196.1,152.0 L201.7,154.1 L207.3,156.2 L212.9,158.3 L218.4,160.4 L224.0,162.4 L229.6,164.5 L235.3,166.1 L241.1,167.6 L246.8,169.1 L252.5,170.5 L258.3,172.0" fill="none" stroke="#2dd4bf" stroke-width="19" stroke-linecap="round" stroke-linejoin="round" opacity="0.95"/><path d="M196.1,152.0 L201.7,154.1 L207.3,156.2 L212.9,158.3 L218.4,160.4 L224.0,162.4 L229.6,164.5 L235.3,166.1 L241.1,167.6 L246.8,169.1 L252.5,170.5 L258.3,172.0" fill="none" stroke="#0c2020" stroke-width="11" stroke-linecap="round" stroke-linejoin="round" opacity="1.0"/><path d="M189.7,232.0 L184.5,235.8 L179.4,239.6 L174.2,243.3 L169.0,247.1 L164.8,251.6 L164.0,258.3 L163.1,265.0 L162.2,271.8 L161.3,278.5 L160.4,285.3 L159.6,292.0" fill="none" stroke="#8f2a3e" stroke-width="19" stroke-linecap="round" stroke-linejoin="round" opacity="0.95"/><path d="M189.7,232.0 L184.5,235.8 L179.4,239.6 L174.2,243.3 L169.0,247.1 L164.8,251.6 L164.0,258.3 L163.1,265.0 L162.2,271.8 L161.3,278.5 L160.4,285.3 L159.6,292.0" fill="none" stroke="#0c2020" stroke-width="11" stroke-linecap="round" stroke-linejoin="round" opacity="1.0"/><path d="M189.7,232.0 L202.5,239.0 L215.2,246.1 L227.9,253.1 L240.7,260.2 L253.4,267.2 L266.1,274.3 L280.0,277.8 L294.0,280.8 L308.0,283.9 L322.0,286.9 L336.0,290.0" fill="none" stroke="#f43f5e" stroke-width="19" stroke-linecap="round" stroke-linejoin="round" opacity="0.95"/><path d="M189.7,232.0 L202.5,239.0 L215.2,246.1 L227.9,253.1 L240.7,260.2 L253.4,267.2 L266.1,274.3 L280.0,277.8 L294.0,280.8 L308.0,283.9 L322.0,286.9 L336.0,290.0" fill="none" stroke="#0c2020" stroke-width="11" stroke-linecap="round" stroke-linejoin="round" opacity="1.0"/><path d="M196.1,152.0 L195.5,159.3 L195.0,166.5 L194.4,173.8 L193.8,181.1 L193.2,188.4 L192.6,195.6 L192.1,202.9 L191.5,210.2 L190.9,217.5 L190.3,224.7 L189.7,232.0" fill="none" stroke="#2dd4bf" stroke-width="23" stroke-linecap="round" stroke-linejoin="round" opacity="0.95"/><path d="M196.1,152.0 L195.5,159.3 L195.0,166.5 L194.4,173.8 L193.8,181.1 L193.2,188.4 L192.6,195.6 L192.1,202.9 L191.5,210.2 L190.9,217.5 L190.3,224.7 L189.7,232.0" fill="none" stroke="#0c2020" stroke-width="15" stroke-linecap="round" stroke-linejoin="round" opacity="1.0"/><circle cx="196.1" cy="124.0" r="19.0" fill="#2dd4bf" stroke="none" stroke-width="0" opacity="0.95"/><circle cx="196.1" cy="124.0" r="15.0" fill="#0c2020" stroke="none" stroke-width="6.3" opacity="1.0"/><path d="M194.1,107.0 L191.1,110.0 L188.2,113.0 L185.2,115.9 L182.2,118.9 L179.2,121.9 L176.3,124.9 L175.7,128.5 L176.5,132.6 L177.4,136.8 L178.3,140.9 L179.1,145.0" fill="none" stroke="#2dd4bf" stroke-width="5" stroke-linecap="round" stroke-linejoin="round" opacity="1.0"/><path d="M186.8,121.0 L188.5,121.0 L190.2,121.0 L191.9,121.0 L193.6,121.0 L195.3,121.0 L197.0,121.0 L198.7,121.0 L200.4,121.0 L202.0,121.0 L203.7,121.0 L205.4,121.0" fill="none" stroke="#a7f3ee" stroke-width="5" stroke-linecap="round" stroke-linejoin="round" opacity="1.0"/></g></svg>
