<svg xmlns="http://www.w3.org/2000/svg" viewBox="0 0 480 320"><style>@keyframes k0{0%{opacity:1}11.111%{opacity:0}100%{opacity:0}}.f0{opacity:0;animation:k0 2.4s steps(1,end) infinite}@keyframes k1{0%{opacity:0}11.111%{opacity:1}16.667%{opacity:0}100%{opacity:0}}.f1{opacity:0;animation:k1 2.4s steps(1,end) infinite}@keyframes k2{0%{opacity:0}16.667%{opacity:1}22.222%{opacity:0}100%{opacity:0}}.f2{opacity:0;animation:k2 2.4s steps(1,end) infinite}@keyframes k3{0%{opacity:0}22.222%{opacity:1}27.778%{opacity:0}100%{opacity:0}}.f3{opacity:0;animation:k3 2.4s steps(1,end) infinite}@keyframes k4{0%{opacity:0}27.778%{opacity:1}33.333%{opacity:0}100%{opacity:0}}.f4{opacity:0;animation:k4 2.4s steps(1,end) infinite}@keyframes k5{0%{opacity:0}33.333%{opacity:1}38.889%{opacity:0}100%{opacity:0}}.f5{opacity:0;animation:k5 2.4s steps(1,end) infinite}@keyframes k6{0%{opacity:0}38.889%{opacity:1}44.444%{opacity:0}100%{opacity:0}}.f6{opacity:0;animation:k6 2.4s steps(1,end) infinite}@keyframes k7{0%{opacity:0}44.444%{opacity:1}50.000%{opacity:0}100%{opacity:0}}.f7{opacity:0;animation:k7 2.4s steps(1,end) infinite}@keyframes k8{0%{opacity:0}50.000%{opacity:1}61.111%{opacity:0}100%{opacity:0}}.f8{opacity:0;animation:k8 2.4s steps(1,end) infinite}@keyframes k9{0%{opacity:0}61.111%{opacity:1}66.667%{opacity:0}100%{opacity:0}}.f9{opacity:0;animation:k9 2.4s steps(1,end) infinite}@keyframes k10{0%{opacity:0}66.667%{opacity:1}72.222%{opacity:0}100%{opacity:0}}.f10{opacity:0;animation:k10 2.4s steps(1,end) infinite}@keyframes k11{0%{opacity:0}72.222%{opacity:1}77.778%{opacity:0}100%{opacity:0}}.f11{opacity:0;animation:k11 2.4s steps(1,end) infinite}@keyframes k12{0%{opacity:0}77.778%{opacity:1}83.333%{opacity:0}100%{opacity:0}}.f12{opacity:0;animation:k12 2.4s steps(1,end) infinite}@keyframes k13{0%{opacity:0}83.333%{opacity:1}88.889%{opacity:0}100%{opacity:0}}.f13{opacity:0;animation:k13 2.4s steps(1,end) infinite}@keyframes k14{0%{opacity:0}88.889%{opacity:1}94.444%{opacity:0}100%{opacity:0}}.f14{opacity:0;animation:k14 2.4s steps(1,end) infinite}@keyframes k15{0%{opacity:0}94.444%{opacity:1}100%{opacity:1}}.f15{opacity:0;animation:k15 2.4s steps(1,end) infinite}</style><path d="M40.0,292.0 L440.0,292.0" fill="none" stroke="#1f3333" stroke-width="6" stroke-linecap="round" stroke-linejoin="round" opacity="1.0"/><path d="M240.0,192.0 L234.0,240.0 L232.0,292.0" fill="none" stroke="#0d9488" stroke-width="21" stroke-linecap="round" stroke-linejoin="round" opacity="0.95"/><path d="M240.0,192.0 L234.0,240.0 L232.0,292.0" fill="none" stroke="#0c2020" stroke-width="13" stroke-linecap="round" stroke-linejoin="round" opacity="1.0"/><path d="M240.0,192.0 L248.0,240.0 L246.0,292.0" fill="none" stroke="#2dd4bf" stroke-width="21" stroke-linecap="round" stroke-linejoin="round" opacity="0.95"/><path d="M240.0,192.0 L248.0,240.0 L246.0,292.0" fill="none" stroke="#0c2020" stroke-width="13" stroke-linecap="round" stroke-linejoin="round" opacity="1.0"/><path d="M240.0,118.0 L240.0,192.0" fill="none" stroke="#2dd4bf" stroke-width="25" stroke-linecap="round" stroke-linejoin="round" opacity="0.95"/><path d="M240.0,118.0 L240.0,192.0" fill="none" stroke="#0c2020" stroke-width="17" stroke-linecap="round" stroke-linejoin="round" opacity="1.0"/><circle cx="242.0" cy="90.0" r="19.0" fill="#2dd4bf" stroke="none" stroke-width="0" opacity="0.95"/><circle cx="242.0" cy="90.0" r="15.0" fill="#0c2020" stroke="none" stroke-width="6.3" opacity="1.0"/><path d="M232.7,87.0 L251.3,87.0" fill="none" stroke="#a7f3ee" stroke-width="5" stroke-linecap="round" stroke-linejoin="round" opacity="1.0"/><g class="f0"><path d="M240.0,118.0 L241.0,124.7 L242.0,131.4 L243.0,138.1 L244.0,144.9 L245.0,151.6 L246.0,158.3 L246.8,165.0 L247.6,171.8 L248.4,178.5 L249.2,185.3 L250.0,192.0" fill="none" stroke="#f43f5e" stroke-width="21" stroke-linecap="round" stroke-linejoin="round" opacity="0.95"/><path d="M240.0,118.0 L241.0,124.7 L242.0,131.4 L243.0,138.1 L244.0,144.9 L245.0,151.6 L246.0,158.3 L246.8,165.0 L247.6,171.8 L248.4,178.5 L249.2,185.3 L250.0,192.0" fill="none" stroke="#0c2020" stroke-width="13" stroke-linecap="round" stroke-linejoin="round" opacity="1.0"/><path d="M239.0,192.0 L241.0,192.0 L243.0,192.0 L245.0,192.0 L247.0,192.0 L249.0,192.0 L251.0,192.0 L253.0,192.0 L255.0,192.0 L257.0,192.0 L259.0,192.0 L261.0,192.0" fill="none" stroke="#fbbf24" stroke-width="6" stroke-linecap="round" stroke-linejoin="round" opacity="1.0"/><circle cx="239.0" cy="192.0" r="6.0" fill="#fbbf24" stroke="none" stroke-width="6.3" opacity="1.0"/><circle cx="261.0" cy="192.0" r="6.0" fill="#fbbf24" stroke="none" stroke-width="6.3" opacity="1.0"/></g><g class="f1"><path d="M240.0,118.0 L241.0,124.7 L242.0,131.4 L243.0,138.2 L244.0,144.9 L245.0,151.6 L246.1,158.2 L247.0,164.5 L248.0,170.7 L248.9,177.0 L249.9,183.2 L250.9,189.4" fill="none" stroke="#f43f5e" stroke-width="21" stroke-linecap="round" stroke-linejoin="round" opacity="0.95"/><path d="M240.0,118.0 L241.0,124.7 L242.0,131.4 L243.0,138.2 L244.0,144.9 L245.0,151.6 L246.1,158.2 L247.0,164.5 L248.0,170.7 L248.9,177.0 L249.9,183.2 L250.9,189.4" fill="none" stroke="#0c2020" stroke-width="13" stroke-linecap="round" stroke-linejoin="round" opacity="1.0"/><path d="M239.9,189.4 L241.9,189.4 L243.9,189.4 L245.9,189.4 L247.9,189.4 L249.9,189.4 L251.9,189.4 L253.9,189.4 L255.9,189.4 L257.9,189.4 L259.9,189.4 L261.9,189.4" fill="none" stroke="#fbbf24" stroke-width="6" stroke-linecap="round" stroke-linejoin="round" opacity="1.0"/><circle cx="239.9" cy="189.4" r="6.0" fill="#fbbf24" stroke="none" stroke-width="6.3" opacity="1.0"/><circle cx="261.9" cy="189.4" r="6.0" fill="#fbbf24" stroke="none" stroke-width="6.3" opacity="1.0"/></g><g class="f2"><path d="M240.0,118.0 L241.0,124.7 L242.0,131.5 L243.0,138.2 L244.0,144.9 L245.0,151.7 L246.1,158.1 L247.5,163.0 L248.9,167.9 L250.3,172.8 L251.7,177.7 L253.1,182.6" fill="none" stroke="#f43f5e" stroke-width="21" stroke-linecap="round" stroke-linejoin="round" opacity="0.95"/><path d="M240.0,118.0 L241.0,124.7 L242.0,131.5 L243.0,138.2 L244.0,144.9 L245.0,151.7 L246.1,158.1 L247.5,163.0 L248.9,167.9 L250.3,172.8 L251.7,177.7 L253.1,182.6" fill="none" stroke="#0c2020" stroke-width="13" stroke-linecap="round" stroke-linejoin="round" opacity="1.0"/><path d="M242.1,182.6 L244.1,182.6 L246.1,182.6 L248.1,182.6 L250.1,182.6 L252.1,182.6 L254.1,182.6 L256.1,182.6 L258.1,182.6 L260.1,182.6 L262.1,182.6 L264.1,182.6" fill="none" stroke="#fbbf24" stroke-width="6" stroke-linecap="round" stroke-linejoin="round" opacity="1.0"/><circle cx="242.1" cy="182.6" r="6.0" fill="#fbbf24" stroke="none" stroke-width="6.3" opacity="1.0"/><circle cx="264.1" cy="182.6" r="6.0" fill="#fbbf24" stroke="none" stroke-width="6.3" opacity="1.0"/></g><g class="f3"><path d="M240.0,118.0 L241.0,124.7 L242.0,131.5 L243.0,138.2 L244.0,145.0 L245.1,151.7 L246.2,158.0 L248.2,161.0 L250.3,164.0 L252.3,167.0 L254.3,170.0 L256.3,173.0" fill="none" stroke="#f43f5e" stroke-width="21" stroke-linecap="round" stroke-linejoin="round" opacity="0.95"/><path d="M240.0,118.0 L241.0,124.7 L242.0,131.5 L243.0,138.2 L244.0,145.0 L245.1,151.7 L246.2,158.0 L248.2,161.0 L250.3,164.0 L252.3,167.0 L254.3,170.0 L256.3,173.0" fill="none" stroke="#0c2020" stroke-width="13" stroke-linecap="round" stroke-linejoin="round" opacity="1.0"/><path d="M245.3,173.0 L247.3,173.0 L249.3,173.0 L251.3,173.0 L253.3,173.0 L255.3,173.0 L257.3,173.0 L259.3,173.0 L261.3,173.0 L263.3,173.0 L265.3,173.0 L267.3,173.0" fill="none" stroke="#fbbf24" stroke-width="6" stroke-linecap="round" stroke-linejoin="round" opacity="1.0"/><circle cx="245.3" cy="173.0" r="6.0" fill="#fbbf24" stroke="none" stroke-width="6.3" opacity="1.0"/><circle cx="267.3" cy="173.0" r="6.0" fill="#fbbf24" stroke="none" stroke-width="6.3" opacity="1.0"/></g><g class="f4"><path d="M240.0,118.0 L241.0,124.8 L242.0,131.5 L243.0,138.3 L244.1,145.1 L245.1,151.8 L246.3,157.8 L249.1,158.6 L251.8,159.5 L254.5,160.3 L257.3,161.2 L260.0,162.0" fill="none" stroke="#f43f5e" stroke-width="21" stroke-linecap="round" stroke-linejoin="round" opacity="0.95"/><path d="M240.0,118.0 L241.0,124.8 L242.0,131.5 L243.0,138.3 L244.1,145.1 L245.1,151.8 L246.3,157.8 L249.1,158.6 L251.8,159.5 L254.5,160.3 L257.3,161.2 L260.0,162.0" fill="none" stroke="#0c2020" stroke-width="13" stroke-linecap="round" stroke-linejoin="round" opacity="1.0"/><path d="M249.0,162.0 L251.0,162.0 L253.0,162.0 L255.0,162.0 L257.0,162.0 L259.0,162.0 L261.0,162.0 L263.0,162.0 L265.0,162.0 L267.0,162.0 L269.0,162.0 L271.0,162.0" fill="none" stroke="#fbbf24" stroke-width="6" stroke-linecap="round" stroke-linejoin="round" opacity="1.0"/><circle cx="249.0" cy="162.0" r="6.0" fill="#fbbf24" stroke="none" stroke-width="6.3" opacity="1.0"/><circle cx="271.0" cy="162.0" r="6.0" fill="#fbbf24" stroke="none" stroke-width="6.3" opacity="1.0"/></g><g class="f5"><path d="M240.0,118.0 L241.0,124.8 L242.0,131.6 L243.1,138.4 L244.1,145.1 L245.1,151.9 L246.4,157.6 L249.9,156.3 L253.3,155.0 L256.8,153.6 L260.2,152.3 L263.7,151.0" fill="none" stroke="#f43f5e" stroke-width="21" stroke-linecap="round" stroke-linejoin="round" opacity="0.95"/><path d="M240.0,118.0 L241.0,124.8 L242.0,131.6 L243.1,138.4 L244.1,145.1 L245.1,151.9 L246.4,157.6 L249.9,156.3 L253.3,155.0 L256.8,153.6 L260.2,152.3 L263.7,151.0" fill="none" stroke="#0c2020" stroke-width="13" stroke-linecap="round" stroke-linejoin="round" opacity="1.0"/><path d="M252.7,151.0 L254.7,151.0 L256.7,151.0 L258.7,151.0 L260.7,151.0 L262.7,151.0 L264.7,151.0 L266.7,151.0 L268.7,151.0 L270.7,151.0 L272.7,151.0 L274.7,151.0" fill="none" stroke="#fbbf24" stroke-width="6" stroke-linecap="round" stroke-linejoin="round" opacity="1.0"/><circle cx="252.7" cy="151.0" r="6.0" fill="#fbbf24" stroke="none" stroke-width="6.3" opacity="1.0"/><circle cx="274.7" cy="151.0" r="6.0" fill="#fbbf24" stroke="none" stroke-width="6.3" opacity="1.0"/></g><g class="f6"><path d="M240.0,118.0 L241.0,124.8 L242.0,131.6 L243.1,138.4 L244.1,145.2 L245.1,152.0 L246.5,157.5 L250.6,154.3 L254.7,151.0 L258.7,147.8 L262.8,144.6 L266.9,141.4" fill="none" stroke="#f43f5e" stroke-width="21" stroke-linecap="round" stroke-linejoin="round" opacity="0.95"/><path d="M240.0,118.0 L241.0,124.8 L242.0,131.6 L243.1,138.4 L244.1,145.2 L245.1,152.0 L246.5,157.5 L250.6,154.3 L254.7,151.0 L258.7,147.8 L262.8,144.6 L266.9,141.4" fill="none" stroke="#0c2020" stroke-width="13" stroke-linecap="round" stroke-linejoin="round" opacity="1.0"/><path d="M255.9,141.4 L257.9,141.4 L259.9,141.4 L261.9,141.4 L263.9,141.4 L265.9,141.4 L267.9,141.4 L269.9,141.4 L271.9,141.4 L273.9,141.4 L275.9,141.4 L277.9,141.4" fill="none" stroke="#fbbf24" stroke-width="6" stroke-linecap="round" stroke-linejoin="round" opacity="1.0"/><circle cx="255.9" cy="141.4" r="6.0" fill="#fbbf24" stroke="none" stroke-width="6.3" opacity="1.0"/><circle cx="277.9" cy="141.4" r="6.0" fill="#fbbf24" stroke="none" stroke-width="6.3" opacity="1.0"/></g><g class="f7"><path d="M240.0,118.0 L241.0,124.8 L242.0,131.6 L243.1,138.4 L244.1,145.3 L245.1,152.1 L246.6,157.4 L251.1,152.8 L255.6,148.3 L260.1,143.7 L264.6,139.1 L269.1,134.6" fill="none" stroke="#f43f5e" stroke-width="21" stroke-linecap="round" stroke-linejoin="round" opacity="0.95"/><path d="M240.0,118.0 L241.0,124.8 L242.0,131.6 L243.1,138.4 L244.1,145.3 L245.1,152.1 L246.6,157.4 L251.1,152.8 L255.6,148.3 L260.1,143.7 L264.6,139.1 L269.1,134.6" fill="none" stroke="#0c2020" stroke-width="13" stroke-linecap="round" stroke-linejoin="round" opacity="1.0"/><path d="M258.1,134.6 L260.1,134.6 L262.1,134.6 L264.1,134.6 L266.1,134.6 L268.1,134.6 L270.1,134.6 L272.1,134.6 L274.1,134.6 L276.1,134.6 L278.1,134.6 L280.1,134.6" fill="none" stroke="#fbbf24" stroke-width="6" stroke-linecap="round" stroke-linejoin="round" opacity="1.0"/><circle cx="258.1" cy="134.6" r="6.0" fill="#fbbf24" stroke="none" stroke-width="6.3" opacity="1.0"/><circle cx="280.1" cy="134.6" r="6.0" fill="#fbbf24" stroke="none" stroke-width="6.3" opacity="1.0"/></g><g class="f8"><path d="M240.0,118.0 L241.0,124.8 L242.0,131.6 L243.1,138.5 L244.1,145.3 L245.1,152.1 L246.6,157.3 L251.3,152.3 L256.0,147.2 L260.6,142.1 L265.3,137.1 L270.0,132.0" fill="none" stroke="#f43f5e" stroke-width="21" stroke-linecap="round" stroke-linejoin="round" opacity="0.95"/><path d="M240.0,118.0 L241.0,124.8 L242.0,131.6 L243.1,138.5 L244.1,145.3 L245.1,152.1 L246.6,157.3 L251.3,152.3 L256.0,147.2 L260.6,142.1 L265.3,137.1 L270.0,132.0" fill="none" stroke="#0c2020" stroke-width="13" stroke-linecap="round" stroke-linejoin="round" opacity="1.0"/><path d="M259.0,132.0 L261.0,132.0 L263.0,132.0 L265.0,132.0 L267.0,132.0 L269.0,132.0 L271.0,132.0 L273.0,132.0 L275.0,132.0 L277.0,132.0 L279.0,132.0 L281.0,132.0" fill="none" stroke="#fbbf24" stroke-width="6" stroke-linecap="round" stroke-linejoin="round" opacity="1.0"/><circle cx="259.0" cy="132.0" r="6.0" fill="#fbbf24" stroke="none" stroke-width="6.3" opacity="1.0"/><circle cx="281.0" cy="132.0" r="6.0" fill="#fbbf24" stroke="none" stroke-width="6.3" opacity="1.0"/></g><g class="f9"><path d="M240.0,118.0 L241.0,124.8 L242.0,131.6 L243.1,138.4 L244.1,145.3 L245.1,152.1 L246.6,157.4 L251.1,152.8 L255.6,148.3 L260.1,143.7 L264.6,139.1 L269.1,134.6" fill="none" stroke="#f43f5e" stroke-width="21" stroke-linecap="round" stroke-linejoin="round" opacity="0.95"/><path d="M240.0,118.0 L241.0,124.8 L242.0,131.6 L243.1,138.4 L244.1,145.3 L245.1,152.1 L246.6,157.4 L251.1,152.8 L255.6,148.3 L260.1,143.7 L264.6,139.1 L269.1,134.6" fill="none" stroke="#0c2020" stroke-width="13" stroke-linecap="round" stroke-linejoin="round" opacity="1.0"/><path d="M258.1,134.6 L260.1,134.6 L262.1,134.6 L264.1,134.6 L266.1,134.6 L268.1,134.6 L270.1,134.6 L272.1,134.6 L274.1,134.6 L276.1,134.6 L278.1,134.6 L280.1,134.6" fill="none" stroke="#fbbf24" stroke-width="6" stroke-linecap="round" stroke-linejoin="round" opacity="1.0"/><circle cx="258.1" cy="134.6" r="6.0" fill="#fbbf24" stroke="none" stroke-width="6.3" opacity="1.0"/><circle cx="280.1" cy="134.6" r="6.0" fill="#fbbf24" stroke="none" stroke-width="6.3" opacity="1.0"/></g><g class="f10"><path d="M240.0,118.0 L241.0,124.8 L242.0,131.6 L243.1,138.4 L244.1,145.2 L245.1,152.0 L246.5,157.5 L250.6,154.3 L254.7,151.0 L258.7,147.8 L262.8,144.6 L266.9,141.4" fill="none" stroke="#f43f5e" stroke-width="21" stroke-linecap="round" stroke-linejoin="round" opacity="0.95"/><path d="M240.0,118.0 L241.0,124.8 L242.0,131.6 L243.1,138.4 L244.1,145.2 L245.1,152.0 L246.5,157.5 L250.6,154.3 L254.7,151.0 L258.7,147.8 L262.8,144.6 L266.9,141.4" fill="none" stroke="#0c2020" stroke-width="13" stroke-linecap="round" stroke-linejoin="round" opacity="1.0"/><path d="M255.9,141.4 L257.9,141.4 L259.9,141.4 L261.9,141.4 L263.9,141.4 L265.9,141.4 L267.9,141.4 L269.9,141.4 L271.9,141.4 L273.9,141.4 L275.9,141.4 L277.9,141.4" fill="none" stroke="#fbbf24" stroke-width="6" stroke-linecap="round" stroke-linejoin="round" opacity="1.0"/><circle cx="255.9" cy="141.4" r="6.0" fill="#fbbf24" stroke="none" stroke-width="6.3" opacity="1.0"/><circle cx="277.9" cy="141.4" r="6.0" fill="#fbbf24" stroke="none" stroke-width="6.3" opacity="1.0"/></g><g class="f11"><path d="M240.0,118.0 L241.0,124.8 L242.0,131.6 L243.1,138.4 L244.1,145.1 L245.1,151.9 L246.4,157.6 L249.9,156.3 L253.3,155.0 L256.8,153.6 L260.2,152.3 L263.7,151.0" fill="none" stroke="#f43f5e" stroke-width="21" stroke-linecap="round" stroke-linejoin="round" opacity="0.95"/><path d="M240.0,118.0 L241.0,124.8 L242.0,131.6 L243.1,138.4 L244.1,145.1 L245.1,151.9 L246.4,157.6 L249.9,156.3 L253.3,155.0 L256.8,153.6 L260.2,152.3 L263.7,151.0" fill="none" stroke="#0c2020" stroke-width="13" stroke-linecap="round" stroke-linejoin="round" opacity="1.0"/><path d="M252.7,151.0 L254.7,151.0 L256.7,151.0 L258.7,151.0 L260.7,151.0 L262.7,151.0 L264.7,151.0 L266.7,151.0 L268.7,151.0 L270.7,151.0 L272.7,151.0 L274.7,151.0" fill="none" stroke="#fbbf24" stroke-width="6" stroke-linecap="round" stroke-linejoin="round" opacity="1.0"/><circle cx="252.7" cy="151.0" r="6.0" fill="#fbbf24" stroke="none" stroke-width="6.3" opacity="1.0"/><circle cx="274.7" cy="151.0" r="6.0" fill="#fbbf24" stroke="none" stroke-width="6.3" opacity="1.0"/></g><g class="f12"><path d="M240.0,118.0 L241.0,124.8 L242.0,131.5 L243.0,138.3 L244.1,145.1 L245.1,151.8 L246.3,157.8 L249.1,158.6 L251.8,159.5 L254.5,160.3 L257.3,161.2 L260.0,162.0" fill="none" stroke="#f43f5e" stroke-width="21" stroke-linecap="round" stroke-linejoin="round" opacity="0.95"/><path d="M240.0,118.0 L241.0,124.8 L242.0,131.5 L243.0,138.3 L244.1,145.1 L245.1,151.8 L246.3,157.8 L249.1,158.6 L251.8,159.5 L254.5,160.3 L257.3,161.2 L260.0,162.0" fill="none" stroke="#0c2020" stroke-width="13" stroke-linecap="round" stroke-linejoin="round" opacity="1.0"/><path d="M249.0,162.0 L251.0,162.0 L253.0,162.0 L255.0,162.0 L257.0,162.0 L259.0,162.0 L261.0,162.0 L263.0,162.0 L265.0,162.0 L267.0,162.0 L269.0,162.0 L271.0,162.0" fill="none" stroke="#fbbf24" stroke-width="6" stroke-linecap="round" stroke-linejoin="round" opacity="1.0"/><circle cx="249.0" cy="162.0" r="6.0" fill="#fbbf24" stroke="none" stroke-width="6.3" opacity="1.0"/><circle cx="271.0" cy="162.0" r="6.0" fill="#fbbf24" stroke="none" stroke-width="6.3" opacity="1.0"/></g><g class="f13"><path d="M240.0,118.0 L241.0,124.7 L242.0,131.5 L243.0,138.2 L244.0,145.0 L245.1,151.7 L246.2,158.0 L248.2,161.0 L250.3,164.0 L252.3,167.0 L254.3,170.0 L256.3,173.0" fill="none" stroke="#f43f5e" stroke-width="21" stroke-linecap="round" stroke-linejoin="round" opacity="0.95"/><path d="M240.0,118.0 L241.0,124.7 L242.0,131.5 L243.0,138.2 L244.0,145.0 L245.1,151.7 L246.2,158.0 L248.2,161.0 L250.3,164.0 L252.3,167.0 L254.3,170.0 L256.3,173.0" fill="none" stroke="#0c2020" stroke-width="13" stroke-linecap="round" stroke-linejoin="round" opacity="1.0"/><path d="M245.3,173.0 L247.3,173.0 L249.3,173.0 L251.3,173.0 L253.3,173.0 L255.3,173.0 L257.3,173.0 L259.3,173.0 L261.3,173.0 L263.3,173.0 L265.3,173.0 L267.3,173.0" fill="none" stroke="#fbbf24" stroke-width="6" stroke-linecap="round" stroke-linejoin="round" opacity="1.0"/><circle cx="245.3" cy="173.0" r="6.0" fill="#fbbf24" stroke="none" stroke-width="6.3" opacity="1.0"/><circle cx="267.3" cy="173.0" r="6.0" fill="#fbbf24" stroke="none" stroke-width="6.3" opacity="1.0"/></g><g class="f14"><path d="M240.0,118.0 L241.0,124.7 L242.0,131.5 L243.0,138.2 L244.0,144.9 L245.0,151.7 L246.1,158.1 L247.5,163.0 L248.9,167.9 L250.3,172.8 L251.7,177.7 L253.1,182.6" fill="none" stroke="#f43f5e" stroke-width="21" stroke-linecap="round" stroke-linejoin="round" opacity="0.95"/><path d="M240.0,118.0 L241.0,124.7 L242.0,131.5 L243.0,138.2 L244.0,144.9 L245.0,151.7 L246.1,158.1 L247.5,163.0 L248.9,167.9 L250.3,172.8 L251.7,177.7 L253.1,182.6" fill="none" stroke="#0c2020" stroke-width="13" stroke-linecap="round" stroke-linejoin="round" opacity="1.0"/><path d="M242.1,182.6 L244.1,182.6 L246.1,182.6 L248.1,182.6 L250.1,182.6 L252.1,182.6 L254.1,182.6 L256.1,182.6 L258.1,182.6 L260.1,182.6 L262.1,182.6 L264.1,182.6" fill="none" stroke="#fbbf24" stroke-width="6" stroke-linecap="round" stroke-linejoin="round" opacity="1.0"/><circle cx="242.1" cy="182.6" r="6.0" fill="#fbbf24" stroke="none" stroke-width="6.3" opacity="1.0"/><circle cx="264.1" cy="182.6" r="6.0" fill="#fbbf24" stroke="none" stroke-width="6.3" opacity="1.0"/></g><g class="f15"><path d="M240.0,118.0 L241.0,124.7 L242.0,131.4 L243.0,138.2 L244.0,144.9 L245.0,151.6 L246.1,158.2 L247.0,164.5 L248.0,170.7 L248.9,177.0 L249.9,183.2 L250.9,189.4" fill="none" stroke="#f43f5e" stroke-width="21" stroke-linecap="round" stroke-linejoin="round" opacity="0.95"/><path d="M240.0,118.0 L241.0,124.7 L242.0,131.4 L243.0,138.2 L244.0,144.9 L245.0,151.6 L246.1,158.2 L247.0,164.5 L248.0,170.7 L248.9,177.0 L249.9,183.2 L250.9,189.4" fill="none" stroke="#0c2020" stroke-width="13" stroke-linecap="round" stroke-linejoin="round" opacity="1.0"/><path d="M239.9,189.4 L241.9,189.4 L243.9,189.4 L245.9,189.4 L247.9,189.4 L249.9,189.4 L251.9,189.4 L253.9,189.4 L255.9,189.4 L257.9,189.4 L259.9,189.4 L261.9,189.4" fill="none" stroke="#fbbf24" stroke-width="6" stroke-linecap="round" stroke-linejoin="round" opacity="1.0"/><circle cx="239.9" cy="189.4" r="6.0" fill="#fbbf24" stroke="none" stroke-width="6.3" opacity="1.0"/><circle cx="261.9" cy="189.4" r="6.0" fill="#fbbf24" stroke="none" stroke-width="6.3" opacity="1.0"/></g></svg>
