<svg xmlns="http://www.w3.org/2000/svg" viewBox="0 0 480 320"><style>@keyframes k0{0%{opacity:1}11.111%{opacity:0}100%{opacity:0}}.f0{opacity:0;animation:k0 2.4s steps(1,end) infinite}@keyframes k1{0%{opacity:0}11.111%{opacity:1}16.667%{opacity:0}100%{opacity:0}}.f1{opacity:0;animation:k1 2.4s steps(1,end) infinite}@keyframes k2{0%{opacity:0}16.667%{opacity:1}22.222%{opacity:0}100%{opacity:0}}.f2{opacity:0;animation:k2 2.4s steps(1,end) infinite}@keyframes k3{0%{opacity:0}22.222%{opacity:1}27.778%{opacity:0}100%{opacity:0}}.f3{opacity:0;animation:k3 2.4s steps(1,end) infinite}@keyframes k4{0%{opacity:0}27.778%{opacity:1}33.333%{opacity:0}100%{opacity:0}}.f4{opacity:0;animation:k4 2.4s steps(1,end) infinite}@keyframes k5{0%{opacity:0}33.333%{opacity:1}38.889%{opacity:0}100%{opacity:0}}.f5{opacity:0;animation:k5 2.4s steps(1,end) infinite}@keyframes k6{0%{opacity:0}38.889%{opacity:1}44.444%{opacity:0}100%{opacity:0}}.f6{opacity:0;animation:k6 2.4s steps(1,end) infinite}@keyframes k7{0%{opacity:0}44.444%{opacity:1}50.000%{opacity:0}100%{opacity:0}}.f7{opacity:0;animation:k7 2.4s steps(1,end) infinite}@keyframes k8{0%{opacity:0}50.000%{opacity:1}61.111%{opacity:0}100%{opacity:0}}.f8{opacity:0;animation:k8 2.4s steps(1,end) infinite}@keyframes k9{0%{opacity:0}61.111%{opacity:1}66.667%{opacity:0}100%{opacity:0}}.f9{opacity:0;animation:k9 2.4s steps(1,end) infinite}@keyframes k10{0%{opacity:0}66.667%{opacity:1}72.222%{opacity:0}100%{opacity:0}}.f10{opacity:0;animation:k10 2.4s steps(1,end) infinite}@keyframes k11{0%{opacity:0}72.222%{opacity:1}77.778%{opacity:0}100%{opacity:0}}.f11{opacity:0;animation:k11 2.4s steps(1,end) infinite}@keyframes k12{0%{opacity:0}77.778%{opacity:1}83.333%{opacity:0}100%{opacity:0}}.f12{opacity:0;animation:k12 2.4s steps(1,end) infinite}@keyframes k13{0%{opacity:0}83.333%{opacity:1}88.889%{opacity:0}100%{opacity:0}}.f13{opacity:0;animation:k13 2.4s steps(1,end) infinite}@keyframes k14{0%{opacity:0}88.889%{opacity:1}94.444%{opacity:0}100%{opacity:0}}.f14{opacity:0;animation:k14 2.4s steps(1,end) infinite}@keyframes k15{0%{opacity:0}94.444%{opacity:1}100%{opacity:1}}.f15{opacity:0;animation:k15 2.4s steps(1,end) infinite}</style><path d="M40.0,292.0 L440.0,292.0" fill="none" stroke="#1f3333" stroke-width="6" stroke-linecap="round" stroke-linejoin="round" opacity="1.0"/><path d="M240.0,196.0 L228.0,242.0 L226.0,292.0" fill="none" stroke="#0d9488" stroke-width="19" stroke-linecap="round" stroke-linejoin="round" opacity="0.95"/><path d="M240.0,196.0 L228.0,242.0 L226.0,292.0" fill="none" stroke="#0c2020" stroke-width="11" stroke-linecap="round" stroke-linejoin="round" opacity="1.0"/><path d="M240.0,196.0 L252.0,242.0 L254.0,292.0" fill="none" stroke="#2dd4bf" stroke-width="19" stroke-linecap="round" stroke-linejoin="round" opacity="0.95"/><path d="M240.0,196.0 L252.0,242.0 L254.0,292.0" fill="none" stroke="#0c2020" stroke-width="11" stroke-linecap="round" stroke-linejoin="round" opacity="1.0"/><path d="M240.0,122.0 L240.0,196.0" fill="none" stroke="#2dd4bf" stroke-width="23" stroke-linecap="round" stroke-linejoin="round" opacity="0.95"/><path d="M240.0,122.0 L240.0,196.0" fill="none" stroke="#0c2020" stroke-width="15" stroke-linecap="round" stroke-linejoin="round" opacity="1.0"/><circle cx="240.0" cy="92.0" r="19.0" fill="#2dd4bf" stroke="none" stroke-width="0" opacity="0.95"/><circle cx="240.0" cy="92.0" r="15.0" fill="#0c2020" stroke="none" stroke-width="6.3" opacity="1.0"/><path d="M238.0,75.0 L219.0,94.0 L223.0,113.0" fill="none" stroke="#2dd4bf" stroke-width="5" stroke-linecap="round" stroke-linejoin="round" opacity="1.0"/><path d="M230.7,89.0 L249.3,89.0" fill="none" stroke="#a7f3ee" stroke-width="5" stroke-linecap="round" stroke-linejoin="round" opacity="1.0"/><g class="f0"><path d="M240.0,122.0 L234.7,126.1 L229.4,130.2 L224.1,134.4 L218.8,138.5 L213.5,142.6 L208.2,146.7 L203.8,148.6 L202.8,141.9 L201.9,135.3 L200.9,128.6 L200.0,122.0" fill="none" stroke="#8f2a3e" stroke-width="19" stroke-linecap="round" stroke-linejoin="round" opacity="0.95"/><path d="M240.0,122.0 L234.7,126.1 L229.4,130.2 L224.1,134.4 L218.8,138.5 L213.5,142.6 L208.2,146.7 L203.8,148.6 L202.8,141.9 L201.9,135.3 L200.9,128.6 L200.0,122.0" fill="none" stroke="#0c2020" stroke-width="11" stroke-linecap="round" stroke-linejoin="round" opacity="1.0"/><path d="M240.0,122.0 L245.3,126.1 L250.6,130.2 L255.9,134.4 L261.2,138.5 L266.5,142.6 L271.8,146.7 L276.2,148.6 L277.2,141.9 L278.1,135.3 L279.1,128.6 L280.0,122.0" fill="none" stroke="#f43f5e" stroke-width="19" stroke-linecap="round" stroke-linejoin="round" opacity="0.95"/><path d="M240.0,122.0 L245.3,126.1 L250.6,130.2 L255.9,134.4 L261.2,138.5 L266.5,142.6 L271.8,146.7 L276.2,148.6 L277.2,141.9 L278.1,135.3 L279.1,128.6 L280.0,122.0" fill="none" stroke="#0c2020" stroke-width="11" stroke-linecap="round" stroke-linejoin="round" opacity="1.0"/><path d="M188.0,122.0 L190.2,122.0 L192.4,122.0 L194.5,122.0 L196.7,122.0 L198.9,122.0 L201.1,122.0 L203.3,122.0 L205.5,122.0 L207.6,122.0 L209.8,122.0 L212.0,122.0" fill="none" stroke="#fbbf24" stroke-width="6" stroke-linecap="round" stroke-linejoin="round" opacity="1.0"/><circle cx="188.0" cy="122.0" r="6.0" fill="#fbbf24" stroke="none" stroke-width="6.3" opacity="1.0"/><circle cx="212.0" cy="122.0" r="6.0" fill="#fbbf24" stroke="none" stroke-width="6.3" opacity="1.0"/><path d="M268.0,122.0 L270.2,122.0 L272.4,122.0 L274.5,122.0 L276.7,122.0 L278.9,122.0 L281.1,122.0 L283.3,122.0 L285.5,122.0 L287.6,122.0 L289.8,122.0 L292.0,122.0" fill="none" stroke="#fbbf24" stroke-width="6" stroke-linecap="round" stroke-linejoin="round" opacity="1.0"/><circle cx="268.0" cy="122.0" r="6.0" fill="#fbbf24" stroke="none" stroke-width="6.3" opacity="1.0"/><circle cx="292.0" cy="122.0" r="6.0" fill="#fbbf24" stroke="none" stroke-width="6.3" opacity="1.0"/></g><g class="f1"><path d="M240.0,122.0 L234.7,125.7 L229.4,129.4 L224.0,133.1 L218.7,136.8 L213.4,140.5 L208.1,144.2 L203.8,145.7 L202.9,139.0 L201.9,132.2 L201.0,125.5 L200.1,118.8" fill="none" stroke="#8f2a3e" stroke-width="19" stroke-linecap="round" stroke-linejoin="round" opacity="0.95"/><path d="M240.0,122.0 L234.7,125.7 L229.4,129.4 L224.0,133.1 L218.7,136.8 L213.4,140.5 L208.1,144.2 L203.8,145.7 L202.9,139.0 L201.9,132.2 L201.0,125.5 L200.1,118.8" fill="none" stroke="#0c2020" stroke-width="11" stroke-linecap="round" stroke-linejoin="round" opacity="1.0"/><path d="M240.0,122.0 L245.3,125.7 L250.6,129.4 L256.0,133.1 L261.3,136.8 L266.6,140.5 L271.9,144.2 L276.2,145.7 L277.1,139.0 L278.1,132.2 L279.0,125.5 L279.9,118.8" fill="none" stroke="#f43f5e" stroke-width="19" stroke-linecap="round" stroke-linejoin="round" opacity="0.95"/><path d="M240.0,122.0 L245.3,125.7 L250.6,129.4 L256.0,133.1 L261.3,136.8 L266.6,140.5 L271.9,144.2 L276.2,145.7 L277.1,139.0 L278.1,132.2 L279.0,125.5 L279.9,118.8" fill="none" stroke="#0c2020" stroke-width="11" stroke-linecap="round" stroke-linejoin="round" opacity="1.0"/><path d="M188.1,118.8 L190.3,118.8 L192.4,118.8 L194.6,118.8 L196.8,118.8 L199.0,118.8 L201.2,118.8 L203.4,118.8 L205.5,118.8 L207.7,118.8 L209.9,118.8 L212.1,118.8" fill="none" stroke="#fbbf24" stroke-width="6" stroke-linecap="round" stroke-linejoin="round" opacity="1.0"/><circle cx="188.1" cy="118.8" r="6.0" fill="#fbbf24" stroke="none" stroke-width="6.3" opacity="1.0"/><circle cx="212.1" cy="118.8" r="6.0" fill="#fbbf24" stroke="none" stroke-width="6.3" opacity="1.0"/><path d="M267.9,118.8 L270.1,118.8 L272.3,118.8 L274.5,118.8 L276.6,118.8 L278.8,118.8 L281.0,118.8 L283.2,118.8 L285.4,118.8 L287.6,118.8 L289.7,118.8 L291.9,118.8" fill="none" stroke="#fbbf24" stroke-width="6" stroke-linecap="round" stroke-linejoin="round" opacity="1.0"/><circle cx="267.9" cy="118.8" r="6.0" fill="#fbbf24" stroke="none" stroke-width="6.3" opacity="1.0"/><circle cx="291.9" cy="118.8" r="6.0" fill="#fbbf24" stroke="none" stroke-width="6.3" opacity="1.0"/></g><g class="f2"><path d="M240.0,122.0 L234.6,124.6 L229.3,127.2 L223.9,129.8 L218.5,132.3 L213.2,134.9 L207.8,137.5 L203.8,137.9 L202.9,131.1 L202.0,124.2 L201.2,117.3 L200.3,110.4" fill="none" stroke="#8f2a3e" stroke-width="19" stroke-linecap="round" stroke-linejoin="round" opacity="0.95"/><path d="M240.0,122.0 L234.6,124.6 L229.3,127.2 L223.9,129.8 L218.5,132.3 L213.2,134.9 L207.8,137.5 L203.8,137.9 L202.9,131.1 L202.0,124.2 L201.2,117.3 L200.3,110.4" fill="none" stroke="#0c2020" stroke-width="11" stroke-linecap="round" stroke-linejoin="round" opacity="1.0"/><path d="M240.0,122.0 L245.4,124.6 L250.7,127.2 L256.1,129.8 L261.5,132.3 L266.8,134.9 L272.2,137.5 L276.2,137.9 L277.1,131.1 L278.0,124.2 L278.8,117.3 L279.7,110.4" fill="none" stroke="#f43f5e" stroke-width="19" stroke-linecap="round" stroke-linejoin="round" opacity="0.95"/><path d="M240.0,122.0 L245.4,124.6 L250.7,127.2 L256.1,129.8 L261.5,132.3 L266.8,134.9 L272.2,137.5 L276.2,137.9 L277.1,131.1 L278.0,124.2 L278.8,117.3 L279.7,110.4" fill="none" stroke="#0c2020" stroke-width="11" stroke-linecap="round" stroke-linejoin="round" opacity="1.0"/><path d="M188.3,110.4 L190.5,110.4 L192.7,110.4 L194.9,110.4 L197.0,110.4 L199.2,110.4 L201.4,110.4 L203.6,110.4 L205.8,110.4 L207.9,110.4 L210.1,110.4 L212.3,110.4" fill="none" stroke="#fbbf24" stroke-width="6" stroke-linecap="round" stroke-linejoin="round" opacity="1.0"/><circle cx="188.3" cy="110.4" r="6.0" fill="#fbbf24" stroke="none" stroke-width="6.3" opacity="1.0"/><circle cx="212.3" cy="110.4" r="6.0" fill="#fbbf24" stroke="none" stroke-width="6.3" opacity="1.0"/><path d="M267.7,110.4 L269.9,110.4 L272.1,110.4 L274.2,110.4 L276.4,110.4 L278.6,110.4 L280.8,110.4 L283.0,110.4 L285.1,110.4 L287.3,110.4 L289.5,110.4 L291.7,110.4" fill="none" stroke="#fbbf24" stroke-width="6" stroke-linecap="round" stroke-linejoin="round" opacity="1.0"/><circle cx="267.7" cy="110.4" r="6.0" fill="#fbbf24" stroke="none" stroke-width="6.3" opacity="1.0"/><circle cx="291.7" cy="110.4" r="6.0" fill="#fbbf24" stroke="none" stroke-width="6.3" opacity="1.0"/></g><g class="f3"><path d="M240.0,122.0 L234.6,123.0 L229.1,124.0 L223.7,125.0 L218.3,126.0 L212.8,127.0 L207.4,128.1 L203.8,127.0 L203.0,119.9 L202.2,112.8 L201.4,105.7 L200.6,98.6" fill="none" stroke="#8f2a3e" stroke-width="19" stroke-linecap="round" stroke-linejoin="round" opacity="0.95"/><path d="M240.0,122.0 L234.6,123.0 L229.1,124.0 L223.7,125.0 L218.3,126.0 L212.8,127.0 L207.4,128.1 L203.8,127.0 L203.0,119.9 L202.2,112.8 L201.4,105.7 L200.6,98.6" fill="none" stroke="#0c2020" stroke-width="11" stroke-linecap="round" stroke-linejoin="round" opacity="1.0"/><path d="M240.0,122.0 L245.4,123.0 L250.9,124.0 L256.3,125.0 L261.7,126.0 L267.2,127.0 L272.6,128.1 L276.2,127.0 L277.0,119.9 L277.8,112.8 L278.6,105.7 L279.4,98.6" fill="none" stroke="#f43f5e" stroke-width="19" stroke-linecap="round" stroke-linejoin="round" opacity="0.95"/><path d="M240.0,122.0 L245.4,123.0 L250.9,124.0 L256.3,125.0 L261.7,126.0 L267.2,127.0 L272.6,128.1 L276.2,127.0 L277.0,119.9 L277.8,112.8 L278.6,105.7 L279.4,98.6" fill="none" stroke="#0c2020" stroke-width="11" stroke-linecap="round" stroke-linejoin="round" opacity="1.0"/><path d="M188.6,98.6 L190.8,98.6 L193.0,98.6 L195.2,98.6 L197.4,98.6 L199.5,98.6 L201.7,98.6 L203.9,98.6 L206.1,98.6 L208.3,98.6 L210.5,98.6 L212.6,98.6" fill="none" stroke="#fbbf24" stroke-width="6" stroke-linecap="round" stroke-linejoin="round" opacity="1.0"/><circle cx="188.6" cy="98.6" r="6.0" fill="#fbbf24" stroke="none" stroke-width="6.3" opacity="1.0"/><circle cx="212.6" cy="98.6" r="6.0" fill="#fbbf24" stroke="none" stroke-width="6.3" opacity="1.0"/><path d="M267.4,98.6 L269.5,98.6 L271.7,98.6 L273.9,98.6 L276.1,98.6 L278.3,98.6 L280.5,98.6 L282.6,98.6 L284.8,98.6 L287.0,98.6 L289.2,98.6 L291.4,98.6" fill="none" stroke="#fbbf24" stroke-width="6" stroke-linecap="round" stroke-linejoin="round" opacity="1.0"/><circle cx="267.4" cy="98.6" r="6.0" fill="#fbbf24" stroke="none" stroke-width="6.3" opacity="1.0"/><circle cx="291.4" cy="98.6" r="6.0" fill="#fbbf24" stroke="none" stroke-width="6.3" opacity="1.0"/></g><g class="f4"><path d="M240.0,122.0 L234.5,121.2 L229.0,120.4 L223.5,119.6 L218.0,118.8 L212.4,118.0 L206.9,117.2 L203.8,114.5 L203.1,107.1 L202.4,99.7 L201.7,92.4 L201.0,85.0" fill="none" stroke="#8f2a3e" stroke-width="19" stroke-linecap="round" stroke-linejoin="round" opacity="0.95"/><path d="M240.0,122.0 L234.5,121.2 L229.0,120.4 L223.5,119.6 L218.0,118.8 L212.4,118.0 L206.9,117.2 L203.8,114.5 L203.1,107.1 L202.4,99.7 L201.7,92.4 L201.0,85.0" fill="none" stroke="#0c2020" stroke-width="11" stroke-linecap="round" stroke-linejoin="round" opacity="1.0"/><path d="M240.0,122.0 L245.5,121.2 L251.0,120.4 L256.5,119.6 L262.0,118.8 L267.6,118.0 L273.1,117.2 L276.2,114.5 L276.9,107.1 L277.6,99.7 L278.3,92.4 L279.0,85.0" fill="none" stroke="#f43f5e" stroke-width="19" stroke-linecap="round" stroke-linejoin="round" opacity="0.95"/><path d="M240.0,122.0 L245.5,121.2 L251.0,120.4 L256.5,119.6 L262.0,118.8 L267.6,118.0 L273.1,117.2 L276.2,114.5 L276.9,107.1 L277.6,99.7 L278.3,92.4 L279.0,85.0" fill="none" stroke="#0c2020" stroke-width="11" stroke-linecap="round" stroke-linejoin="round" opacity="1.0"/><path d="M189.0,85.0 L191.2,85.0 L193.4,85.0 L195.5,85.0 L197.7,85.0 L199.9,85.0 L202.1,85.0 L204.3,85.0 L206.5,85.0 L208.6,85.0 L210.8,85.0 L213.0,85.0" fill="none" stroke="#fbbf24" stroke-width="6" stroke-linecap="round" stroke-linejoin="round" opacity="1.0"/><circle cx="189.0" cy="85.0" r="6.0" fill="#fbbf24" stroke="none" stroke-width="6.3" opacity="1.0"/><circle cx="213.0" cy="85.0" r="6.0" fill="#fbbf24" stroke="none" stroke-width="6.3" opacity="1.0"/><path d="M267.0,85.0 L269.2,85.0 L271.4,85.0 L273.5,85.0 L275.7,85.0 L277.9,85.0 L280.1,85.0 L282.3,85.0 L284.5,85.0 L286.6,85.0 L288.8,85.0 L291.0,85.0" fill="none" stroke="#fbbf24" stroke-width="6" stroke-linecap="round" stroke-linejoin="round" opacity="1.0"/><circle cx="267.0" cy="85.0" r="6.0" fill="#fbbf24" stroke="none" stroke-width="6.3" opacity="1.0"/><circle cx="291.0" cy="85.0" r="6.0" fill="#fbbf24" stroke="none" stroke-width="6.3" opacity="1.0"/></g><g class="f5"><path d="M240.0,122.0 L234.4,119.4 L228.8,116.8 L223.2,114.2 L217.7,111.6 L212.1,109.0 L206.5,106.4 L203.7,101.9 L203.1,94.3 L202.5,86.7 L202.0,79.0 L201.4,71.4" fill="none" stroke="#8f2a3e" stroke-width="19" stroke-linecap="round" stroke-linejoin="round" opacity="0.95"/><path d="M240.0,122.0 L234.4,119.4 L228.8,116.8 L223.2,114.2 L217.7,111.6 L212.1,109.0 L206.5,106.4 L203.7,101.9 L203.1,94.3 L202.5,86.7 L202.0,79.0 L201.4,71.4" fill="none" stroke="#0c2020" stroke-width="11" stroke-linecap="round" stroke-linejoin="round" opacity="1.0"/><path d="M240.0,122.0 L245.6,119.4 L251.2,116.8 L256.8,114.2 L262.3,111.6 L267.9,109.0 L273.5,106.4 L276.3,101.9 L276.9,94.3 L277.5,86.7 L278.0,79.0 L278.6,71.4" fill="none" stroke="#f43f5e" stroke-width="19" stroke-linecap="round" stroke-linejoin="round" opacity="0.95"/><path d="M240.0,122.0 L245.6,119.4 L251.2,116.8 L256.8,114.2 L262.3,111.6 L267.9,109.0 L273.5,106.4 L276.3,101.9 L276.9,94.3 L277.5,86.7 L278.0,79.0 L278.6,71.4" fill="none" stroke="#0c2020" stroke-width="11" stroke-linecap="round" stroke-linejoin="round" opacity="1.0"/><path d="M189.4,71.4 L191.5,71.4 L193.7,71.4 L195.9,71.4 L198.1,71.4 L200.3,71.4 L202.5,71.4 L204.6,71.4 L206.8,71.4 L209.0,71.4 L211.2,71.4 L213.4,71.4" fill="none" stroke="#fbbf24" stroke-width="6" stroke-linecap="round" stroke-linejoin="round" opacity="1.0"/><circle cx="189.4" cy="71.4" r="6.0" fill="#fbbf24" stroke="none" stroke-width="6.3" opacity="1.0"/><circle cx="213.4" cy="71.4" r="6.0" fill="#fbbf24" stroke="none" stroke-width="6.3" opacity="1.0"/><path d="M266.6,71.4 L268.8,71.4 L271.0,71.4 L273.2,71.4 L275.4,71.4 L277.5,71.4 L279.7,71.4 L281.9,71.4 L284.1,71.4 L286.3,71.4 L288.5,71.4 L290.6,71.4" fill="none" stroke="#fbbf24" stroke-width="6" stroke-linecap="round" stroke-linejoin="round" opacity="1.0"/><circle cx="266.6" cy="71.4" r="6.0" fill="#fbbf24" stroke="none" stroke-width="6.3" opacity="1.0"/><circle cx="290.6" cy="71.4" r="6.0" fill="#fbbf24" stroke="none" stroke-width="6.3" opacity="1.0"/></g><g class="f6"><path d="M240.0,122.0 L234.3,117.8 L228.7,113.6 L223.0,109.5 L217.4,105.3 L211.7,101.1 L206.1,96.9 L203.7,91.0 L203.2,83.1 L202.7,75.3 L202.2,67.4 L201.7,59.6" fill="none" stroke="#8f2a3e" stroke-width="19" stroke-linecap="round" stroke-linejoin="round" opacity="0.95"/><path d="M240.0,122.0 L234.3,117.8 L228.7,113.6 L223.0,109.5 L217.4,105.3 L211.7,101.1 L206.1,96.9 L203.7,91.0 L203.2,83.1 L202.7,75.3 L202.2,67.4 L201.7,59.6" fill="none" stroke="#0c2020" stroke-width="11" stroke-linecap="round" stroke-linejoin="round" opacity="1.0"/><path d="M240.0,122.0 L245.7,117.8 L251.3,113.6 L257.0,109.5 L262.6,105.3 L268.3,101.1 L273.9,96.9 L276.3,91.0 L276.8,83.1 L277.3,75.3 L277.8,67.4 L278.3,59.6" fill="none" stroke="#f43f5e" stroke-width="19" stroke-linecap="round" stroke-linejoin="round" opacity="0.95"/><path d="M240.0,122.0 L245.7,117.8 L251.3,113.6 L257.0,109.5 L262.6,105.3 L268.3,101.1 L273.9,96.9 L276.3,91.0 L276.8,83.1 L277.3,75.3 L277.8,67.4 L278.3,59.6" fill="none" stroke="#0c2020" stroke-width="11" stroke-linecap="round" stroke-linejoin="round" opacity="1.0"/><path d="M189.7,59.6 L191.9,59.6 L194.1,59.6 L196.2,59.6 L198.4,59.6 L200.6,59.6 L202.8,59.6 L205.0,59.6 L207.1,59.6 L209.3,59.6 L211.5,59.6 L213.7,59.6" fill="none" stroke="#fbbf24" stroke-width="6" stroke-linecap="round" stroke-linejoin="round" opacity="1.0"/><circle cx="189.7" cy="59.6" r="6.0" fill="#fbbf24" stroke="none" stroke-width="6.3" opacity="1.0"/><circle cx="213.7" cy="59.6" r="6.0" fill="#fbbf24" stroke="none" stroke-width="6.3" opacity="1.0"/><path d="M266.3,59.6 L268.5,59.6 L270.7,59.6 L272.9,59.6 L275.0,59.6 L277.2,59.6 L279.4,59.6 L281.6,59.6 L283.8,59.6 L285.9,59.6 L288.1,59.6 L290.3,59.6" fill="none" stroke="#fbbf24" stroke-width="6" stroke-linecap="round" stroke-linejoin="round" opacity="1.0"/><circle cx="266.3" cy="59.6" r="6.0" fill="#fbbf24" stroke="none" stroke-width="6.3" opacity="1.0"/><circle cx="290.3" cy="59.6" r="6.0" fill="#fbbf24" stroke="none" stroke-width="6.3" opacity="1.0"/></g><g class="f7"><path d="M240.0,122.0 L234.3,116.7 L228.6,111.4 L222.9,106.1 L217.2,100.8 L211.5,95.5 L205.8,90.2 L203.7,83.2 L203.3,75.2 L202.8,67.2 L202.4,59.2 L201.9,51.2" fill="none" stroke="#8f2a3e" stroke-width="19" stroke-linecap="round" stroke-linejoin="round" opacity="0.95"/><path d="M240.0,122.0 L234.3,116.7 L228.6,111.4 L222.9,106.1 L217.2,100.8 L211.5,95.5 L205.8,90.2 L203.7,83.2 L203.3,75.2 L202.8,67.2 L202.4,59.2 L201.9,51.2" fill="none" stroke="#0c2020" stroke-width="11" stroke-linecap="round" stroke-linejoin="round" opacity="1.0"/><path d="M240.0,122.0 L245.7,116.7 L251.4,111.4 L257.1,106.1 L262.8,100.8 L268.5,95.5 L274.2,90.2 L276.3,83.2 L276.7,75.2 L277.2,67.2 L277.6,59.2 L278.1,51.2" fill="none" stroke="#f43f5e" stroke-width="19" stroke-linecap="round" stroke-linejoin="round" opacity="0.95"/><path d="M240.0,122.0 L245.7,116.7 L251.4,111.4 L257.1,106.1 L262.8,100.8 L268.5,95.5 L274.2,90.2 L276.3,83.2 L276.7,75.2 L277.2,67.2 L277.6,59.2 L278.1,51.2" fill="none" stroke="#0c2020" stroke-width="11" stroke-linecap="round" stroke-linejoin="round" opacity="1.0"/><path d="M189.9,51.2 L192.1,51.2 L194.3,51.2 L196.5,51.2 L198.6,51.2 L200.8,51.2 L203.0,51.2 L205.2,51.2 L207.4,51.2 L209.6,51.2 L211.7,51.2 L213.9,51.2" fill="none" stroke="#fbbf24" stroke-width="6" stroke-linecap="round" stroke-linejoin="round" opacity="1.0"/><circle cx="189.9" cy="51.2" r="6.0" fill="#fbbf24" stroke="none" stroke-width="6.3" opacity="1.0"/><circle cx="213.9" cy="51.2" r="6.0" fill="#fbbf24" stroke="none" stroke-width="6.3" opacity="1.0"/><path d="M266.1,51.2 L268.3,51.2 L270.4,51.2 L272.6,51.2 L274.8,51.2 L277.0,51.2 L279.2,51.2 L281.4,51.2 L283.5,51.2 L285.7,51.2 L287.9,51.2 L290.1,51.2" fill="none" stroke="#fbbf24" stroke-width="6" stroke-linecap="round" stroke-linejoin="round" opacity="1.0"/><circle cx="266.1" cy="51.2" r="6.0" fill="#fbbf24" stroke="none" stroke-width="6.3" opacity="1.0"/><circle cx="290.1" cy="51.2" r="6.0" fill="#fbbf24" stroke="none" stroke-width="6.3" opacity="1.0"/></g><g class="f8"><path d="M240.0,122.0 L234.3,116.3 L228.6,110.6 L222.8,104.8 L217.1,99.1 L211.4,93.4 L205.7,87.7 L203.7,80.3 L203.3,72.2 L202.9,64.2 L202.4,56.1 L202.0,48.0" fill="none" stroke="#8f2a3e" stroke-width="19" stroke-linecap="round" stroke-linejoin="round" opacity="0.95"/><path d="M240.0,122.0 L234.3,116.3 L228.6,110.6 L222.8,104.8 L217.1,99.1 L211.4,93.4 L205.7,87.7 L203.7,80.3 L203.3,72.2 L202.9,64.2 L202.4,56.1 L202.0,48.0" fill="none" stroke="#0c2020" stroke-width="11" stroke-linecap="round" stroke-linejoin="round" opacity="1.0"/><path d="M240.0,122.0 L245.7,116.3 L251.4,110.6 L257.2,104.8 L262.9,99.1 L268.6,93.4 L274.3,87.7 L276.3,80.3 L276.7,72.2 L277.1,64.2 L277.6,56.1 L278.0,48.0" fill="none" stroke="#f43f5e" stroke-width="19" stroke-linecap="round" stroke-linejoin="round" opacity="0.95"/><path d="M240.0,122.0 L245.7,116.3 L251.4,110.6 L257.2,104.8 L262.9,99.1 L268.6,93.4 L274.3,87.7 L276.3,80.3 L276.7,72.2 L277.1,64.2 L277.6,56.1 L278.0,48.0" fill="none" stroke="#0c2020" stroke-width="11" stroke-linecap="round" stroke-linejoin="round" opacity="1.0"/><path d="M190.0,48.0 L192.2,48.0 L194.4,48.0 L196.5,48.0 L198.7,48.0 L200.9,48.0 L203.1,48.0 L205.3,48.0 L207.5,48.0 L209.6,48.0 L211.8,48.0 L214.0,48.0" fill="none" stroke="#fbbf24" stroke-width="6" stroke-linecap="round" stroke-linejoin="round" opacity="1.0"/><circle cx="190.0" cy="48.0" r="6.0" fill="#fbbf24" stroke="none" stroke-width="6.3" opacity="1.0"/><circle cx="214.0" cy="48.0" r="6.0" fill="#fbbf24" stroke="none" stroke-width="6.3" opacity="1.0"/><path d="M266.0,48.0 L268.2,48.0 L270.4,48.0 L272.5,48.0 L274.7,48.0 L276.9,48.0 L279.1,48.0 L281.3,48.0 L283.5,48.0 L285.6,48.0 L287.8,48.0 L290.0,48.0" fill="none" stroke="#fbbf24" stroke-width="6" stroke-linecap="round" stroke-linejoin="round" opacity="1.0"/><circle cx="266.0" cy="48.0" r="6.0" fill="#fbbf24" stroke="none" stroke-width="6.3" opacity="1.0"/><circle cx="290.0" cy="48.0" r="6.0" fill="#fbbf24" stroke="none" stroke-width="6.3" opacity="1.0"/></g><g class="f9"><path d="M240.0,122.0 L234.3,116.7 L228.6,111.4 L222.9,106.1 L217.2,100.8 L211.5,95.5 L205.8,90.2 L203.7,83.2 L203.3,75.2 L202.8,67.2 L202.4,59.2 L201.9,51.2" fill="none" stroke="#8f2a3e" stroke-width="19" stroke-linecap="round" stroke-linejoin="round" opacity="0.95"/><path d="M240.0,122.0 L234.3,116.7 L228.6,111.4 L222.9,106.1 L217.2,100.8 L211.5,95.5 L205.8,90.2 L203.7,83.2 L203.3,75.2 L202.8,67.2 L202.4,59.2 L201.9,51.2" fill="none" stroke="#0c2020" stroke-width="11" stroke-linecap="round" stroke-linejoin="round" opacity="1.0"/><path d="M240.0,122.0 L245.7,116.7 L251.4,111.4 L257.1,106.1 L262.8,100.8 L268.5,95.5 L274.2,90.2 L276.3,83.2 L276.7,75.2 L277.2,67.2 L277.6,59.2 L278.1,51.2" fill="none" stroke="#f43f5e" stroke-width="19" stroke-linecap="round" stroke-linejoin="round" opacity="0.95"/><path d="M240.0,122.0 L245.7,116.7 L251.4,111.4 L257.1,106.1 L262.8,100.8 L268.5,95.5 L274.2,90.2 L276.3,83.2 L276.7,75.2 L277.2,67.2 L277.6,59.2 L278.1,51.2" fill="none" stroke="#0c2020" stroke-width="11" stroke-linecap="round" stroke-linejoin="round" opacity="1.0"/><path d="M189.9,51.2 L192.1,51.2 L194.3,51.2 L196.5,51.2 L198.6,51.2 L200.8,51.2 L203.0,51.2 L205.2,51.2 L207.4,51.2 L209.6,51.2 L211.7,51.2 L213.9,51.2" fill="none" stroke="#fbbf24" stroke-width="6" stroke-linecap="round" stroke-linejoin="round" opacity="1.0"/><circle cx="189.9" cy="51.2" r="6.0" fill="#fbbf24" stroke="none" stroke-width="6.3" opacity="1.0"/><circle cx="213.9" cy="51.2" r="6.0" fill="#fbbf24" stroke="none" stroke-width="6.3" opacity="1.0"/><path d="M266.1,51.2 L268.3,51.2 L270.4,51.2 L272.6,51.2 L274.8,51.2 L277.0,51.2 L279.2,51.2 L281.4,51.2 L283.5,51.2 L285.7,51.2 L287.9,51.2 L290.1,51.2" fill="none" stroke="#fbbf24" stroke-width="6" stroke-linecap="round" stroke-linejoin="round" opacity="1.0"/><circle cx="266.1" cy="51.2" r="6.0" fill="#fbbf24" stroke="none" stroke-width="6.3" opacity="1.0"/><circle cx="290.1" cy="51.2" r="6.0" fill="#fbbf24" stroke="none" stroke-width="6.3" opacity="1.0"/></g><g class="f10"><path d="M240.0,122.0 L234.3,117.8 L228.7,113.6 L223.0,109.5 L217.4,105.3 L211.7,101.1 L206.1,96.9 L203.7,91.0 L203.2,83.1 L202.7,75.3 L202.2,67.4 L201.7,59.6" fill="none" stroke="#8f2a3e" stroke-width="19" stroke-linecap="round" stroke-linejoin="round" opacity="0.95"/><path d="M240.0,122.0 L234.3,117.8 L228.7,113.6 L223.0,109.5 L217.4,105.3 L211.7,101.1 L206.1,96.9 L203.7,91.0 L203.2,83.1 L202.7,75.3 L202.2,67.4 L201.7,59.6" fill="none" stroke="#0c2020" stroke-width="11" stroke-linecap="round" stroke-linejoin="round" opacity="1.0"/><path d="M240.0,122.0 L245.7,117.8 L251.3,113.6 L257.0,109.5 L262.6,105.3 L268.3,101.1 L273.9,96.9 L276.3,91.0 L276.8,83.1 L277.3,75.3 L277.8,67.4 L278.3,59.6" fill="none" stroke="#f43f5e" stroke-width="19" stroke-linecap="round" stroke-linejoin="round" opacity="0.95"/><path d="M240.0,122.0 L245.7,117.8 L251.3,113.6 L257.0,109.5 L262.6,105.3 L268.3,101.1 L273.9,96.9 L276.3,91.0 L276.8,83.1 L277.3,75.3 L277.8,67.4 L278.3,59.6" fill="none" stroke="#0c2020" stroke-width="11" stroke-linecap="round" stroke-linejoin="round" opacity="1.0"/><path d="M189.7,59.6 L191.9,59.6 L194.1,59.6 L196.2,59.6 L198.4,59.6 L200.6,59.6 L202.8,59.6 L205.0,59.6 L207.1,59.6 L209.3,59.6 L211.5,59.6 L213.7,59.6" fill="none" stroke="#fbbf24" stroke-width="6" stroke-linecap="round" stroke-linejoin="round" opacity="1.0"/><circle cx="189.7" cy="59.6" r="6.0" fill="#fbbf24" stroke="none" stroke-width="6.3" opacity="1.0"/><circle cx="213.7" cy="59.6" r="6.0" fill="#fbbf24" stroke="none" stroke-width="6.3" opacity="1.0"/><path d="M266.3,59.6 L268.5,59.6 L270.7,59.6 L272.9,59.6 L275.0,59.6 L277.2,59.6 L279.4,59.6 L281.6,59.6 L283.8,59.6 L285.9,59.6 L288.1,59.6 L290.3,59.6" fill="none" stroke="#fbbf24" stroke-width="6" stroke-linecap="round" stroke-linejoin="round" opacity="1.0"/><circle cx="266.3" cy="59.6" r="6.0" fill="#fbbf24" stroke="none" stroke-width="6.3" opacity="1.0"/><circle cx="290.3" cy="59.6" r="6.0" fill="#fbbf24" stroke="none" stroke-width="6.3" opacity="1.0"/></g><g class="f11"><path d="M240.0,122.0 L234.4,119.4 L228.8,116.8 L223.2,114.2 L217.7,111.6 L212.1,109.0 L206.5,106.4 L203.7,101.9 L203.1,94.3 L202.5,86.7 L202.0,79.0 L201.4,71.4" fill="none" stroke="#8f2a3e" stroke-width="19" stroke-linecap="round" stroke-linejoin="round" opacity="0.95"/><path d="M240.0,122.0 L234.4,119.4 L228.8,116.8 L223.2,114.2 L217.7,111.6 L212.1,109.0 L206.5,106.4 L203.7,101.9 L203.1,94.3 L202.5,86.7 L202.0,79.0 L201.4,71.4" fill="none" stroke="#0c2020" stroke-width="11" stroke-linecap="round" stroke-linejoin="round" opacity="1.0"/><path d="M240.0,122.0 L245.6,119.4 L251.2,116.8 L256.8,114.2 L262.3,111.6 L267.9,109.0 L273.5,106.4 L276.3,101.9 L276.9,94.3 L277.5,86.7 L278.0,79.0 L278.6,71.4" fill="none" stroke="#f43f5e" stroke-width="19" stroke-linecap="round" stroke-linejoin="round" opacity="0.95"/><path d="M240.0,122.0 L245.6,119.4 L251.2,116.8 L256.8,114.2 L262.3,111.6 L267.9,109.0 L273.5,106.4 L276.3,101.9 L276.9,94.3 L277.5,86.7 L278.0,79.0 L278.6,71.4" fill="none" stroke="#0c2020" stroke-width="11" stroke-linecap="round" stroke-linejoin="round" opacity="1.0"/><path d="M189.4,71.4 L191.5,71.4 L193.7,71.4 L195.9,71.4 L198.1,71.4 L200.3,71.4 L202.5,71.4 L204.6,71.4 L206.8,71.4 L209.0,71.4 L211.2,71.4 L213.4,71.4" fill="none" stroke="#fbbf24" stroke-width="6" stroke-linecap="round" stroke-linejoin="round" opacity="1.0"/><circle cx="189.4" cy="71.4" r="6.0" fill="#fbbf24" stroke="none" stroke-width="6.3" opacity="1.0"/><circle cx="213.4" cy="71.4" r="6.0" fill="#fbbf24" stroke="none" stroke-width="6.3" opacity="1.0"/><path d="M266.6,71.4 L268.8,71.4 L271.0,71.4 L273.2,71.4 L275.4,71.4 L277.5,71.4 L279.7,71.4 L281.9,71.4 L284.1,71.4 L286.3,71.4 L288.5,71.4 L290.6,71.4" fill="none" stroke="#fbbf24" stroke-width="6" stroke-linecap="round" stroke-linejoin="round" opacity="1.0"/><circle cx="266.6" cy="71.4" r="6.0" fill="#fbbf24" stroke="none" stroke-width="6.3" opacity="1.0"/><circle cx="290.6" cy="71.4" r="6.0" fill="#fbbf24" stroke="none" stroke-width="6.3" opacity="1.0"/></g><g class="f12"><path d="M240.0,122.0 L234.5,121.2 L229.0,120.4 L223.5,119.6 L218.0,118.8 L212.4,118.0 L206.9,117.2 L203.8,114.5 L203.1,107.1 L202.4,99.7 L201.7,92.4 L201.0,85.0" fill="none" stroke="#8f2a3e" stroke-width="19" stroke-linecap="round" stroke-linejoin="round" opacity="0.95"/><path d="M240.0,122.0 L234.5,121.2 L229.0,120.4 L223.5,119.6 L218.0,118.8 L212.4,118.0 L206.9,117.2 L203.8,114.5 L203.1,107.1 L202.4,99.7 L201.7,92.4 L201.0,85.0" fill="none" stroke="#0c2020" stroke-width="11" stroke-linecap="round" stroke-linejoin="round" opacity="1.0"/><path d="M240.0,122.0 L245.5,121.2 L251.0,120.4 L256.5,119.6 L262.0,118.8 L267.6,118.0 L273.1,117.2 L276.2,114.5 L276.9,107.1 L277.6,99.7 L278.3,92.4 L279.0,85.0" fill="none" stroke="#f43f5e" stroke-width="19" stroke-linecap="round" stroke-linejoin="round" opacity="0.95"/><path d="M240.0,122.0 L245.5,121.2 L251.0,120.4 L256.5,119.6 L262.0,118.8 L267.6,118.0 L273.1,117.2 L276.2,114.5 L276.9,107.1 L277.6,99.7 L278.3,92.4 L279.0,85.0" fill="none" stroke="#0c2020" stroke-width="11" stroke-linecap="round" stroke-linejoin="round" opacity="1.0"/><path d="M189.0,85.0 L191.2,85.0 L193.4,85.0 L195.5,85.0 L197.7,85.0 L199.9,85.0 L202.1,85.0 L204.3,85.0 L206.5,85.0 L208.6,85.0 L210.8,85.0 L213.0,85.0" fill="none" stroke="#fbbf24" stroke-width="6" stroke-linecap="round" stroke-linejoin="round" opacity="1.0"/><circle cx="189.0" cy="85.0" r="6.0" fill="#fbbf24" stroke="none" stroke-width="6.3" opacity="1.0"/><circle cx="213.0" cy="85.0" r="6.0" fill="#fbbf24" stroke="none" stroke-width="6.3" opacity="1.0"/><path d="M267.0,85.0 L269.2,85.0 L271.4,85.0 L273.5,85.0 L275.7,85.0 L277.9,85.0 L280.1,85.0 L282.3,85.0 L284.5,85.0 L286.6,85.0 L288.8,85.0 L291.0,85.0" fill="none" stroke="#fbbf24" stroke-width="6" stroke-linecap="round" stroke-linejoin="round" opacity="1.0"/><circle cx="267.0" cy="85.0" r="6.0" fill="#fbbf24" stroke="none" stroke-width="6.3" opacity="1.0"/><circle cx="291.0" cy="85.0" r="6.0" fill="#fbbf24" stroke="none" stroke-width="6.3" opacity="1.0"/></g><g class="f13"><path d="M240.0,122.0 L234.6,123.0 L229.1,124.0 L223.7,125.0 L218.3,126.0 L212.8,127.0 L207.4,128.1 L203.8,127.0 L203.0,119.9 L202.2,112.8 L201.4,105.7 L200.6,98.6" fill="none" stroke="#8f2a3e" stroke-width="19" stroke-linecap="round" stroke-linejoin="round" opacity="0.95"/><path d="M240.0,122.0 L234.6,123.0 L229.1,124.0 L223.7,125.0 L218.3,126.0 L212.8,127.0 L207.4,128.1 L203.8,127.0 L203.0,119.9 L202.2,112.8 L201.4,105.7 L200.6,98.6" fill="none" stroke="#0c2020" stroke-width="11" stroke-linecap="round" stroke-linejoin="round" opacity="1.0"/><path d="M240.0,122.0 L245.4,123.0 L250.9,124.0 L256.3,125.0 L261.7,126.0 L267.2,127.0 L272.6,128.1 L276.2,127.0 L277.0,119.9 L277.8,112.8 L278.6,105.7 L279.4,98.6" fill="none" stroke="#f43f5e" stroke-width="19" stroke-linecap="round" stroke-linejoin="round" opacity="0.95"/><path d="M240.0,122.0 L245.4,123.0 L250.9,124.0 L256.3,125.0 L261.7,126.0 L267.2,127.0 L272.6,128.1 L276.2,127.0 L277.0,119.9 L277.8,112.8 L278.6,105.7 L279.4,98.6" fill="none" stroke="#0c2020" stroke-width="11" stroke-linecap="round" stroke-linejoin="round" opacity="1.0"/><path d="M188.6,98.6 L190.8,98.6 L193.0,98.6 L195.2,98.6 L197.4,98.6 L199.5,98.6 L201.7,98.6 L203.9,98.6 L206.1,98.6 L208.3,98.6 L210.5,98.6 L212.6,98.6" fill="none" stroke="#fbbf24" stroke-width="6" stroke-linecap="round" stroke-linejoin="round" opacity="1.0"/><circle cx="188.6" cy="98.6" r="6.0" fill="#fbbf24" stroke="none" stroke-width="6.3" opacity="1.0"/><circle cx="212.6" cy="98.6" r="6.0" fill="#fbbf24" stroke="none" stroke-width="6.3" opacity="1.0"/><path d="M267.4,98.6 L269.5,98.6 L271.7,98.6 L273.9,98.6 L276.1,98.6 L278.3,98.6 L280.5,98.6 L282.6,98.6 L284.8,98.6 L287.0,98.6 L289.2,98.6 L291.4,98.6" fill="none" stroke="#fbbf24" stroke-width="6" stroke-linecap="round" stroke-linejoin="round" opacity="1.0"/><circle cx="267.4" cy="98.6" r="6.0" fill="#fbbf24" stroke="none" stroke-width="6.3" opacity="1.0"/><circle cx="291.4" cy="98.6" r="6.0" fill="#fbbf24" stroke="none" stroke-width="6.3" opacity="1.0"/></g><g class="f14"><path d="M240.0,122.0 L234.6,124.6 L229.3,127.2 L223.9,129.8 L218.5,132.3 L213.2,134.9 L207.8,137.5 L203.8,137.9 L202.9,131.1 L202.0,124.2 L201.2,117.3 L200.3,110.4" fill="none" stroke="#8f2a3e" stroke-width="19" stroke-linecap="round" stroke-linejoin="round" opacity="0.95"/><path d="M240.0,122.0 L234.6,124.6 L229.3,127.2 L223.9,129.8 L218.5,132.3 L213.2,134.9 L207.8,137.5 L203.8,137.9 L202.9,131.1 L202.0,124.2 L201.2,117.3 L200.3,110.4" fill="none" stroke="#0c2020" stroke-width="11" stroke-linecap="round" stroke-linejoin="round" opacity="1.0"/><path d="M240.0,122.0 L245.4,124.6 L250.7,127.2 L256.1,129.8 L261.5,132.3 L266.8,134.9 L272.2,137.5 L276.2,137.9 L277.1,131.1 L278.0,124.2 L278.8,117.3 L279.7,110.4" fill="none" stroke="#f43f5e" stroke-width="19" stroke-linecap="round" stroke-linejoin="round" opacity="0.95"/><path d="M240.0,122.0 L245.4,124.6 L250.7,127.2 L256.1,129.8 L261.5,132.3 L266.8,134.9 L272.2,137.5 L276.2,137.9 L277.1,131.1 L278.0,124.2 L278.8,117.3 L279.7,110.4" fill="none" stroke="#0c2020" stroke-width="11" stroke-linecap="round" stroke-linejoin="round" opacity="1.0"/><path d="M188.3,110.4 L190.5,110.4 L192.7,110.4 L194.9,110.4 L197.0,110.4 L199.2,110.4 L201.4,110.4 L203.6,110.4 L205.8,110.4 L207.9,110.4 L210.1,110.4 L212.3,110.4" fill="none" stroke="#fbbf24" stroke-width="6" stroke-linecap="round" stroke-linejoin="round" opacity="1.0"/><circle cx="188.3" cy="110.4" r="6.0" fill="#fbbf24" stroke="none" stroke-width="6.3" opacity="1.0"/><circle cx="212.3" cy="110.4" r="6.0" fill="#fbbf24" stroke="none" stroke-width="6.3" opacity="1.0"/><path d="M267.7,110.4 L269.9,110.4 L272.1,110.4 L274.2,110.4 L276.4,110.4 L278.6,110.4 L280.8,110.4 L283.0,110.4 L285.1,110.4 L287.3,110.4 L289.5,110.4 L291.7,110.4" fill="none" stroke="#fbbf24" stroke-width="6" stroke-linecap="round" stroke-linejoin="round" opacity="1.0"/><circle cx="267.7" cy="110.4" r="6.0" fill="#fbbf24" stroke="none" stroke-width="6.3" opacity="1.0"/><circle cx="291.7" cy="110.4" r="6.0" fill="#fbbf24" stroke="none" stroke-width="6.3" opacity="1.0"/></g><g class="f15"><path d="M240.0,122.0 L234.7,125.7 L229.4,129.4 L224.0,133.1 L218.7,136.8 L213.4,140.5 L208.1,144.2 L203.8,145.7 L202.9,139.0 L201.9,132.2 L201.0,125.5 L200.1,118.8" fill="none" stroke="#8f2a3e" stroke-width="19" stroke-linecap="round" stroke-linejoin="round" opacity="0.95"/><path d="M240.0,122.0 L234.7,125.7 L229.4,129.4 L224.0,133.1 L218.7,136.8 L213.4,140.5 L208.1,144.2 L203.8,145.7 L202.9,139.0 L201.9,132.2 L201.0,125.5 L200.1,118.8" fill="none" stroke="#0c2020" stroke-width="11" stroke-linecap="round" stroke-linejoin="round" opacity="1.0"/><path d="M240.0,122.0 L245.3,125.7 L250.6,129.4 L256.0,133.1 L261.3,136.8 L266.6,140.5 L271.9,144.2 L276.2,145.7 L277.1,139.0 L278.1,132.2 L279.0,125.5 L279.9,118.8" fill="none" stroke="#f43f5e" stroke-width="19" stroke-linecap="round" stroke-linejoin="round" opacity="0.95"/><path d="M240.0,122.0 L245.3,125.7 L250.6,129.4 L256.0,133.1 L261.3,136.8 L266.6,140.5 L271.9,144.2 L276.2,145.7 L277.1,139.0 L278.1,132.2 L279.0,125.5 L279.9,118.8" fill="none" stroke="#0c2020" stroke-width="11" stroke-linecap="round" stroke-linejoin="round" opacity="1.0"/><path d="M188.1,118.8 L190.3,118.8 L192.4,118.8 L194.6,118.8 L196.8,118.8 L199.0,118.8 L201.2,118.8 L203.4,118.8 L205.5,118.8 L207.7,118.8 L209.9,118.8 L212.1,118.8" fill="none" stroke="#fbbf24" stroke-width="6" stroke-linecap="round" stroke-linejoin="round" opacity="1.0"/><circle cx="188.1" cy="118.8" r="6.0" fill="#fbbf24" stroke="none" stroke-width="6.3" opacity="1.0"/><circle cx="212.1" cy="118.8" r="6.0" fill="#fbbf24" stroke="none" stroke-width="6.3" opacity="1.0"/><path d="M267.9,118.8 L270.1,118.8 L272.3,118.8 L274.5,118.8 L276.6,118.8 L278.8,118.8 L281.0,118.8 L283.2,118.8 L285.4,118.8 L287.6,118.8 L289.7,118.8 L291.9,118.8" fill="none" stroke="#fbbf24" stroke-width="6" stroke-linecap="round" stroke-linejoin="round" opacity="1.0"/><circle cx="267.9" cy="118.8" r="6.0" fill="#fbbf24" stroke="none" stroke-width="6.3" opacity="1.0"/><circle cx="291.9" cy="118.8" r="6.0" fill="#fbbf24" stroke="none" stroke-width="6.3" opacity="1.0"/></g></svg>
