<svg xmlns="http://www.w3.org/2000/svg" viewBox="0 0 480 320"><style>@keyframes k0{0%{opacity:1}11.111%{opacity:0}100%{opacity:0}}.f0{opacity:0;animation:k0 2.4s steps(1,end) infinite}@keyframes k1{0%{opacity:0}11.111%{opacity:1}16.667%{opacity:0}100%{opacity:0}}.f1{opacity:0;animation:k1 2.4s steps(1,end) infinite}@keyframes k2{0%{opacity:0}16.667%{opacity:1}22.222%{opacity:0}100%{opacity:0}}.f2{opacity:0;animation:k2 2.4s steps(1,end) infinite}@keyframes k3{0%{opacity:0}22.222%{opacity:1}27.778%{opacity:0}100%{opacity:0}}.f3{opacity:0;animation:k3 2.4s steps(1,end) infinite}@keyframes k4{0%{opacity:0}27.778%{opacity:1}33.333%{opacity:0}100%{opacity:0}}.f4{opacity:0;animation:k4 2.4s steps(1,end) infinite}@keyframes k5{0%{opacity:0}33.333%{opacity:1}38.889%{opacity:0}100%{opacity:0}}.f5{opacity:0;animation:k5 2.4s steps(1,end) infinite}@keyframes k6{0%{opacity:0}38.889%{opacity:1}44.444%{opacity:0}100%{opacity:0}}.f6{opacity:0;animation:k6 2.4s steps(1,end) infinite}@keyframes k7{0%{opacity:0}44.444%{opacity:1}50.000%{opacity:0}100%{opacity:0}}.f7{opacity:0;animation:k7 2.4s steps(1,end) infinite}@keyframes k8{0%{opacity:0}50.000%{opacity:1}61.111%{opacity:0}100%{opacity:0}}.f8{opacity:0;animation:k8 2.4s steps(1,end) infinite}@keyframes k9{0%{opacity:0}61.111%{opacity:1}66.667%{opacity:0}100%{opacity:0}}.f9{opacity:0;animation:k9 2.4s steps(1,end) infinite}@keyframes k10{0%{opacity:0}66.667%{opacity:1}72.222%{opacity:0}100%{opacity:0}}.f10{opacity:0;animation:k10 2.4s steps(1,end) infinite}@keyframes k11{0%{opacity:0}72.222%{opacity:1}77.778%{opacity:0}100%{opacity:0}}.f11{opacity:0;animation:k11 2.4s steps(1,end) infinite}@keyframes k12{0%{opacity:0}77.778%{opacity:1}83.333%{opacity:0}100%{opacity:0}}.f12{opacity:0;animation:k12 2.4s steps(1,end) infinite}@keyframes k13{0%{opacity:0}83.333%{opacity:1}88.889%{opacity:0}100%{opacity:0}}.f13{opacity:0;animation:k13 2.4s steps(1,end) infinite}@keyframes k14{0%{opacity:0}88.889%{opacity:1}94.444%{opacity:0}100%{opacity:0}}.f14{opacity:0;animation:k14 2.4s steps(1,end) infinite}@keyframes k15{0%{opacity:0}94.444%{opacity:1}100%{opacity:1}}.f15{opacity:0;animation:k15 2.4s steps(1,end) infinite}</style><path d="M40.0,292.0 L440.0,292.0" fill="none" stroke="#1f3333" stroke-width="6" stroke-linecap="round" stroke-linejoin="round" opacity="1.0"/><path d="M240.0,205.0 L244.0,248.0 L238.0,292.0" fill="none" stroke="#0d9488" stroke-width="21" stroke-linecap="round" stroke-linejoin="round" opacity="0.95"/><path d="M240.0,205.0 L244.0,248.0 L238.0,292.0" fill="none" stroke="#0c2020" stroke-width="13" stroke-linecap="round" stroke-linejoin="round" opacity="1.0"/><path d="M240.0,205.0 L254.0,248.0 L250.0,292.0" fill="none" stroke="#2dd4bf" stroke-width="21" stroke-linecap="round" stroke-linejoin="round" opacity="0.95"/><path d="M240.0,205.0 L254.0,248.0 L250.0,292.0" fill="none" stroke="#0c2020" stroke-width="13" stroke-linecap="round" stroke-linejoin="round" opacity="1.0"/><path d="M180.0,150.0 L240.0,205.0" fill="none" stroke="#2dd4bf" stroke-width="25" stroke-linecap="round" stroke-linejoin="round" opacity="0.95"/><path d="M180.0,150.0 L240.0,205.0" fill="none" stroke="#0c2020" stroke-width="17" stroke-linecap="round" stroke-linejoin="round" opacity="1.0"/><circle cx="156.0" cy="138.0" r="19.0" fill="#2dd4bf" stroke="none" stroke-width="0" opacity="0.95"/><circle cx="156.0" cy="138.0" r="15.0" fill="#0c2020" stroke="none" stroke-width="6.3" opacity="1.0"/><path d="M146.7,135.0 L165.3,135.0" fill="none" stroke="#a7f3ee" stroke-width="5" stroke-linecap="round" stroke-linejoin="round" opacity="1.0"/><g class="f0"><path d="M180.0,150.0 L180.7,159.1 L181.5,168.2 L182.2,177.3 L182.9,186.4 L183.6,195.5 L184.4,204.5 L185.1,213.6 L185.8,222.7 L186.5,231.8 L187.3,240.9 L188.0,250.0" fill="none" stroke="#8f2a3e" stroke-width="21" stroke-linecap="round" stroke-linejoin="round" opacity="0.95"/><path d="M180.0,150.0 L180.7,159.1 L181.5,168.2 L182.2,177.3 L182.9,186.4 L183.6,195.5 L184.4,204.5 L185.1,213.6 L185.8,222.7 L186.5,231.8 L187.3,240.9 L188.0,250.0" fill="none" stroke="#0c2020" stroke-width="13" stroke-linecap="round" stroke-linejoin="round" opacity="1.0"/><path d="M180.0,150.0 L181.1,159.1 L182.2,168.2 L183.3,177.3 L184.4,186.4 L185.5,195.5 L186.5,204.5 L187.6,213.6 L188.7,222.7 L189.8,231.8 L190.9,240.9 L192.0,250.0" fill="none" stroke="#f43f5e" stroke-width="21" stroke-linecap="round" stroke-linejoin="round" opacity="0.95"/><path d="M180.0,150.0 L181.1,159.1 L182.2,168.2 L183.3,177.3 L184.4,186.4 L185.5,195.5 L186.5,204.5 L187.6,213.6 L188.7,222.7 L189.8,231.8 L190.9,240.9 L192.0,250.0" fill="none" stroke="#0c2020" stroke-width="13" stroke-linecap="round" stroke-linejoin="round" opacity="1.0"/><path d="M182.0,253.0 L183.8,252.5 L185.6,251.9 L187.5,251.4 L189.3,250.8 L191.1,250.3 L192.9,249.7 L194.7,249.2 L196.5,248.6 L198.4,248.1 L200.2,247.5 L202.0,247.0" fill="none" stroke="#fbbf24" stroke-width="6" stroke-linecap="round" stroke-linejoin="round" opacity="1.0"/><circle cx="182.0" cy="253.0" r="6.0" fill="#fbbf24" stroke="none" stroke-width="6.3" opacity="1.0"/><circle cx="202.0" cy="247.0" r="6.0" fill="#fbbf24" stroke="none" stroke-width="6.3" opacity="1.0"/><path d="M178.0,253.0 L179.8,252.5 L181.6,251.9 L183.5,251.4 L185.3,250.8 L187.1,250.3 L188.9,249.7 L190.7,249.2 L192.5,248.6 L194.4,248.1 L196.2,247.5 L198.0,247.0" fill="none" stroke="#fbbf24" stroke-width="6" stroke-linecap="round" stroke-linejoin="round" opacity="1.0"/><circle cx="178.0" cy="253.0" r="6.0" fill="#fbbf24" stroke="none" stroke-width="6.3" opacity="1.0"/><circle cx="198.0" cy="247.0" r="6.0" fill="#fbbf24" stroke="none" stroke-width="6.3" opacity="1.0"/></g><g class="f1"><path d="M180.0,150.0 L180.7,159.1 L181.4,168.2 L182.1,177.3 L182.8,186.4 L183.6,195.5 L184.3,204.5 L185.0,213.6 L185.7,222.7 L186.4,231.8 L187.1,240.9 L187.8,250.0" fill="none" stroke="#8f2a3e" stroke-width="21" stroke-linecap="round" stroke-linejoin="round" opacity="0.95"/><path d="M180.0,150.0 L180.7,159.1 L181.4,168.2 L182.1,177.3 L182.8,186.4 L183.6,195.5 L184.3,204.5 L185.0,213.6 L185.7,222.7 L186.4,231.8 L187.1,240.9 L187.8,250.0" fill="none" stroke="#0c2020" stroke-width="13" stroke-linecap="round" stroke-linejoin="round" opacity="1.0"/><path d="M180.0,150.0 L181.1,158.9 L182.2,167.8 L183.3,176.6 L184.4,185.5 L185.5,194.4 L186.6,203.3 L187.7,212.2 L188.9,221.0 L190.0,229.9 L191.1,238.8 L192.2,247.7" fill="none" stroke="#f43f5e" stroke-width="21" stroke-linecap="round" stroke-linejoin="round" opacity="0.95"/><path d="M180.0,150.0 L181.1,158.9 L182.2,167.8 L183.3,176.6 L184.4,185.5 L185.5,194.4 L186.6,203.3 L187.7,212.2 L188.9,221.0 L190.0,229.9 L191.1,238.8 L192.2,247.7" fill="none" stroke="#0c2020" stroke-width="13" stroke-linecap="round" stroke-linejoin="round" opacity="1.0"/><path d="M182.2,250.7 L184.0,250.1 L185.8,249.6 L187.6,249.0 L189.4,248.5 L191.3,248.0 L193.1,247.4 L194.9,246.9 L196.7,246.3 L198.5,245.8 L200.4,245.2 L202.2,244.7" fill="none" stroke="#fbbf24" stroke-width="6" stroke-linecap="round" stroke-linejoin="round" opacity="1.0"/><circle cx="182.2" cy="250.7" r="6.0" fill="#fbbf24" stroke="none" stroke-width="6.3" opacity="1.0"/><circle cx="202.2" cy="244.7" r="6.0" fill="#fbbf24" stroke="none" stroke-width="6.3" opacity="1.0"/><path d="M177.8,253.0 L179.6,252.5 L181.5,251.9 L183.3,251.4 L185.1,250.8 L186.9,250.3 L188.7,249.7 L190.6,249.2 L192.4,248.6 L194.2,248.1 L196.0,247.5 L197.8,247.0" fill="none" stroke="#fbbf24" stroke-width="6" stroke-linecap="round" stroke-linejoin="round" opacity="1.0"/><circle cx="177.8" cy="253.0" r="6.0" fill="#fbbf24" stroke="none" stroke-width="6.3" opacity="1.0"/><circle cx="197.8" cy="247.0" r="6.0" fill="#fbbf24" stroke="none" stroke-width="6.3" opacity="1.0"/></g><g class="f2"><path d="M180.0,150.0 L180.7,159.1 L181.3,168.2 L182.0,177.3 L182.7,186.4 L183.4,195.5 L184.0,204.5 L184.7,213.6 L185.4,222.7 L186.0,231.8 L186.7,240.9 L187.4,250.0" fill="none" stroke="#8f2a3e" stroke-width="21" stroke-linecap="round" stroke-linejoin="round" opacity="0.95"/><path d="M180.0,150.0 L180.7,159.1 L181.3,168.2 L182.0,177.3 L182.7,186.4 L183.4,195.5 L184.0,204.5 L184.7,213.6 L185.4,222.7 L186.0,231.8 L186.7,240.9 L187.4,250.0" fill="none" stroke="#0c2020" stroke-width="13" stroke-linecap="round" stroke-linejoin="round" opacity="1.0"/><path d="M180.0,150.0 L181.1,158.3 L182.3,166.6 L183.4,175.0 L184.6,183.3 L185.7,191.6 L186.9,199.9 L188.0,208.3 L189.2,216.6 L190.3,224.9 L191.5,233.2 L192.6,241.6" fill="none" stroke="#f43f5e" stroke-width="21" stroke-linecap="round" stroke-linejoin="round" opacity="0.95"/><path d="M180.0,150.0 L181.1,158.3 L182.3,166.6 L183.4,175.0 L184.6,183.3 L185.7,191.6 L186.9,199.9 L188.0,208.3 L189.2,216.6 L190.3,224.9 L191.5,233.2 L192.6,241.6" fill="none" stroke="#0c2020" stroke-width="13" stroke-linecap="round" stroke-linejoin="round" opacity="1.0"/><path d="M182.6,244.6 L184.4,244.0 L186.3,243.5 L188.1,242.9 L189.9,242.4 L191.7,241.8 L193.5,241.3 L195.4,240.7 L197.2,240.2 L199.0,239.7 L200.8,239.1 L202.6,238.6" fill="none" stroke="#fbbf24" stroke-width="6" stroke-linecap="round" stroke-linejoin="round" opacity="1.0"/><circle cx="182.6" cy="244.6" r="6.0" fill="#fbbf24" stroke="none" stroke-width="6.3" opacity="1.0"/><circle cx="202.6" cy="238.6" r="6.0" fill="#fbbf24" stroke="none" stroke-width="6.3" opacity="1.0"/><path d="M177.4,253.0 L179.2,252.5 L181.0,251.9 L182.8,251.4 L184.6,250.8 L186.5,250.3 L188.3,249.7 L190.1,249.2 L191.9,248.6 L193.7,248.1 L195.6,247.5 L197.4,247.0" fill="none" stroke="#fbbf24" stroke-width="6" stroke-linecap="round" stroke-linejoin="round" opacity="1.0"/><circle cx="177.4" cy="253.0" r="6.0" fill="#fbbf24" stroke="none" stroke-width="6.3" opacity="1.0"/><circle cx="197.4" cy="247.0" r="6.0" fill="#fbbf24" stroke="none" stroke-width="6.3" opacity="1.0"/></g><g class="f3"><path d="M180.0,150.0 L180.6,159.1 L181.2,168.2 L181.8,177.3 L182.4,186.4 L183.1,195.5 L183.7,204.5 L184.3,213.6 L184.9,222.7 L185.5,231.8 L186.1,240.9 L186.7,250.0" fill="none" stroke="#8f2a3e" stroke-width="21" stroke-linecap="round" stroke-linejoin="round" opacity="0.95"/><path d="M180.0,150.0 L180.6,159.1 L181.2,168.2 L181.8,177.3 L182.4,186.4 L183.1,195.5 L183.7,204.5 L184.3,213.6 L184.9,222.7 L185.5,231.8 L186.1,240.9 L186.7,250.0" fill="none" stroke="#0c2020" stroke-width="13" stroke-linecap="round" stroke-linejoin="round" opacity="1.0"/><path d="M180.0,150.0 L181.2,157.5 L182.4,165.1 L183.6,172.6 L184.8,180.2 L186.0,187.7 L187.2,195.2 L188.4,202.8 L189.6,210.3 L190.9,217.8 L192.1,225.4 L193.3,232.9" fill="none" stroke="#f43f5e" stroke-width="21" stroke-linecap="round" stroke-linejoin="round" opacity="0.95"/><path d="M180.0,150.0 L181.2,157.5 L182.4,165.1 L183.6,172.6 L184.8,180.2 L186.0,187.7 L187.2,195.2 L188.4,202.8 L189.6,210.3 L190.9,217.8 L192.1,225.4 L193.3,232.9" fill="none" stroke="#0c2020" stroke-width="13" stroke-linecap="round" stroke-linejoin="round" opacity="1.0"/><path d="M183.3,235.9 L185.1,235.4 L186.9,234.8 L188.7,234.3 L190.5,233.7 L192.4,233.2 L194.2,232.6 L196.0,232.1 L197.8,231.6 L199.6,231.0 L201.4,230.5 L203.3,229.9" fill="none" stroke="#fbbf24" stroke-width="6" stroke-linecap="round" stroke-linejoin="round" opacity="1.0"/><circle cx="183.3" cy="235.9" r="6.0" fill="#fbbf24" stroke="none" stroke-width="6.3" opacity="1.0"/><circle cx="203.3" cy="229.9" r="6.0" fill="#fbbf24" stroke="none" stroke-width="6.3" opacity="1.0"/><path d="M176.7,253.0 L178.6,252.5 L180.4,251.9 L182.2,251.4 L184.0,250.8 L185.8,250.3 L187.6,249.7 L189.5,249.2 L191.3,248.6 L193.1,248.1 L194.9,247.5 L196.7,247.0" fill="none" stroke="#fbbf24" stroke-width="6" stroke-linecap="round" stroke-linejoin="round" opacity="1.0"/><circle cx="176.7" cy="253.0" r="6.0" fill="#fbbf24" stroke="none" stroke-width="6.3" opacity="1.0"/><circle cx="196.7" cy="247.0" r="6.0" fill="#fbbf24" stroke="none" stroke-width="6.3" opacity="1.0"/></g><g class="f4"><path d="M180.0,150.0 L180.5,159.1 L181.1,168.2 L181.6,177.3 L182.2,186.4 L182.7,195.5 L183.3,204.5 L183.8,213.6 L184.4,222.7 L184.9,231.8 L185.5,240.9 L186.0,250.0" fill="none" stroke="#8f2a3e" stroke-width="21" stroke-linecap="round" stroke-linejoin="round" opacity="0.95"/><path d="M180.0,150.0 L180.5,159.1 L181.1,168.2 L181.6,177.3 L182.2,186.4 L182.7,195.5 L183.3,204.5 L183.8,213.6 L184.4,222.7 L184.9,231.8 L185.5,240.9 L186.0,250.0" fill="none" stroke="#0c2020" stroke-width="13" stroke-linecap="round" stroke-linejoin="round" opacity="1.0"/><path d="M180.0,150.0 L181.3,156.6 L182.5,163.3 L183.8,169.9 L185.1,176.5 L186.4,183.2 L187.6,189.8 L188.9,196.5 L190.2,203.1 L191.5,209.7 L192.7,216.4 L194.0,223.0" fill="none" stroke="#f43f5e" stroke-width="21" stroke-linecap="round" stroke-linejoin="round" opacity="0.95"/><path d="M180.0,150.0 L181.3,156.6 L182.5,163.3 L183.8,169.9 L185.1,176.5 L186.4,183.2 L187.6,189.8 L188.9,196.5 L190.2,203.1 L191.5,209.7 L192.7,216.4 L194.0,223.0" fill="none" stroke="#0c2020" stroke-width="13" stroke-linecap="round" stroke-linejoin="round" opacity="1.0"/><path d="M184.0,226.0 L185.8,225.5 L187.6,224.9 L189.5,224.4 L191.3,223.8 L193.1,223.3 L194.9,222.7 L196.7,222.2 L198.5,221.6 L200.4,221.1 L202.2,220.5 L204.0,220.0" fill="none" stroke="#fbbf24" stroke-width="6" stroke-linecap="round" stroke-linejoin="round" opacity="1.0"/><circle cx="184.0" cy="226.0" r="6.0" fill="#fbbf24" stroke="none" stroke-width="6.3" opacity="1.0"/><circle cx="204.0" cy="220.0" r="6.0" fill="#fbbf24" stroke="none" stroke-width="6.3" opacity="1.0"/><path d="M176.0,253.0 L177.8,252.5 L179.6,251.9 L181.5,251.4 L183.3,250.8 L185.1,250.3 L186.9,249.7 L188.7,249.2 L190.5,248.6 L192.4,248.1 L194.2,247.5 L196.0,247.0" fill="none" stroke="#fbbf24" stroke-width="6" stroke-linecap="round" stroke-linejoin="round" opacity="1.0"/><circle cx="176.0" cy="253.0" r="6.0" fill="#fbbf24" stroke="none" stroke-width="6.3" opacity="1.0"/><circle cx="196.0" cy="247.0" r="6.0" fill="#fbbf24" stroke="none" stroke-width="6.3" opacity="1.0"/></g><g class="f5"><path d="M180.0,150.0 L180.5,159.1 L181.0,168.2 L181.4,177.3 L181.9,186.4 L182.4,195.5 L182.9,204.5 L183.4,213.6 L183.8,222.7 L184.3,231.8 L184.8,240.9 L185.3,250.0" fill="none" stroke="#8f2a3e" stroke-width="21" stroke-linecap="round" stroke-linejoin="round" opacity="0.95"/><path d="M180.0,150.0 L180.5,159.1 L181.0,168.2 L181.4,177.3 L181.9,186.4 L182.4,195.5 L182.9,204.5 L183.4,213.6 L183.8,222.7 L184.3,231.8 L184.8,240.9 L185.3,250.0" fill="none" stroke="#0c2020" stroke-width="13" stroke-linecap="round" stroke-linejoin="round" opacity="1.0"/><path d="M180.0,150.0 L181.3,155.7 L182.7,161.5 L184.0,167.2 L185.4,172.9 L186.7,178.7 L188.0,184.4 L189.4,190.1 L190.7,195.9 L192.1,201.6 L193.4,207.4 L194.7,213.1" fill="none" stroke="#f43f5e" stroke-width="21" stroke-linecap="round" stroke-linejoin="round" opacity="0.95"/><path d="M180.0,150.0 L181.3,155.7 L182.7,161.5 L184.0,167.2 L185.4,172.9 L186.7,178.7 L188.0,184.4 L189.4,190.1 L190.7,195.9 L192.1,201.6 L193.4,207.4 L194.7,213.1" fill="none" stroke="#0c2020" stroke-width="13" stroke-linecap="round" stroke-linejoin="round" opacity="1.0"/><path d="M184.7,216.1 L186.6,215.5 L188.4,215.0 L190.2,214.4 L192.0,213.9 L193.8,213.4 L195.6,212.8 L197.5,212.3 L199.3,211.7 L201.1,211.2 L202.9,210.6 L204.7,210.1" fill="none" stroke="#fbbf24" stroke-width="6" stroke-linecap="round" stroke-linejoin="round" opacity="1.0"/><circle cx="184.7" cy="216.1" r="6.0" fill="#fbbf24" stroke="none" stroke-width="6.3" opacity="1.0"/><circle cx="204.7" cy="210.1" r="6.0" fill="#fbbf24" stroke="none" stroke-width="6.3" opacity="1.0"/><path d="M175.3,253.0 L177.1,252.5 L178.9,251.9 L180.7,251.4 L182.5,250.8 L184.4,250.3 L186.2,249.7 L188.0,249.2 L189.8,248.6 L191.6,248.1 L193.4,247.5 L195.3,247.0" fill="none" stroke="#fbbf24" stroke-width="6" stroke-linecap="round" stroke-linejoin="round" opacity="1.0"/><circle cx="175.3" cy="253.0" r="6.0" fill="#fbbf24" stroke="none" stroke-width="6.3" opacity="1.0"/><circle cx="195.3" cy="247.0" r="6.0" fill="#fbbf24" stroke="none" stroke-width="6.3" opacity="1.0"/></g><g class="f6"><path d="M180.0,150.0 L180.4,159.1 L180.8,168.2 L181.3,177.3 L181.7,186.4 L182.1,195.5 L182.5,204.5 L182.9,213.6 L183.4,222.7 L183.8,231.8 L184.2,240.9 L184.6,250.0" fill="none" stroke="#8f2a3e" stroke-width="21" stroke-linecap="round" stroke-linejoin="round" opacity="0.95"/><path d="M180.0,150.0 L180.4,159.1 L180.8,168.2 L181.3,177.3 L181.7,186.4 L182.1,195.5 L182.5,204.5 L182.9,213.6 L183.4,222.7 L183.8,231.8 L184.2,240.9 L184.6,250.0" fill="none" stroke="#0c2020" stroke-width="13" stroke-linecap="round" stroke-linejoin="round" opacity="1.0"/><path d="M180.0,150.0 L181.4,154.9 L182.8,159.9 L184.2,164.8 L185.6,169.8 L187.0,174.7 L188.4,179.7 L189.8,184.6 L191.2,189.6 L192.6,194.5 L194.0,199.5 L195.4,204.4" fill="none" stroke="#f43f5e" stroke-width="21" stroke-linecap="round" stroke-linejoin="round" opacity="0.95"/><path d="M180.0,150.0 L181.4,154.9 L182.8,159.9 L184.2,164.8 L185.6,169.8 L187.0,174.7 L188.4,179.7 L189.8,184.6 L191.2,189.6 L192.6,194.5 L194.0,199.5 L195.4,204.4" fill="none" stroke="#0c2020" stroke-width="13" stroke-linecap="round" stroke-linejoin="round" opacity="1.0"/><path d="M185.4,207.4 L187.2,206.9 L189.0,206.3 L190.8,205.8 L192.6,205.3 L194.5,204.7 L196.3,204.2 L198.1,203.6 L199.9,203.1 L201.7,202.5 L203.6,202.0 L205.4,201.4" fill="none" stroke="#fbbf24" stroke-width="6" stroke-linecap="round" stroke-linejoin="round" opacity="1.0"/><circle cx="185.4" cy="207.4" r="6.0" fill="#fbbf24" stroke="none" stroke-width="6.3" opacity="1.0"/><circle cx="205.4" cy="201.4" r="6.0" fill="#fbbf24" stroke="none" stroke-width="6.3" opacity="1.0"/><path d="M174.6,253.0 L176.4,252.5 L178.3,251.9 L180.1,251.4 L181.9,250.8 L183.7,250.3 L185.5,249.7 L187.4,249.2 L189.2,248.6 L191.0,248.1 L192.8,247.5 L194.6,247.0" fill="none" stroke="#fbbf24" stroke-width="6" stroke-linecap="round" stroke-linejoin="round" opacity="1.0"/><circle cx="174.6" cy="253.0" r="6.0" fill="#fbbf24" stroke="none" stroke-width="6.3" opacity="1.0"/><circle cx="194.6" cy="247.0" r="6.0" fill="#fbbf24" stroke="none" stroke-width="6.3" opacity="1.0"/></g><g class="f7"><path d="M180.0,150.0 L180.4,159.1 L180.8,168.2 L181.1,177.3 L181.5,186.4 L181.9,195.5 L182.3,204.5 L182.7,213.6 L183.0,222.7 L183.4,231.8 L183.8,240.9 L184.2,250.0" fill="none" stroke="#8f2a3e" stroke-width="21" stroke-linecap="round" stroke-linejoin="round" opacity="0.95"/><path d="M180.0,150.0 L180.4,159.1 L180.8,168.2 L181.1,177.3 L181.5,186.4 L181.9,195.5 L182.3,204.5 L182.7,213.6 L183.0,222.7 L183.4,231.8 L183.8,240.9 L184.2,250.0" fill="none" stroke="#0c2020" stroke-width="13" stroke-linecap="round" stroke-linejoin="round" opacity="1.0"/><path d="M180.0,150.0 L181.4,154.4 L182.9,158.8 L184.3,163.2 L185.8,167.6 L187.2,172.0 L188.6,176.4 L190.1,180.7 L191.5,185.1 L193.0,189.5 L194.4,193.9 L195.8,198.3" fill="none" stroke="#f43f5e" stroke-width="21" stroke-linecap="round" stroke-linejoin="round" opacity="0.95"/><path d="M180.0,150.0 L181.4,154.4 L182.9,158.8 L184.3,163.2 L185.8,167.6 L187.2,172.0 L188.6,176.4 L190.1,180.7 L191.5,185.1 L193.0,189.5 L194.4,193.9 L195.8,198.3" fill="none" stroke="#0c2020" stroke-width="13" stroke-linecap="round" stroke-linejoin="round" opacity="1.0"/><path d="M185.8,201.3 L187.6,200.8 L189.5,200.2 L191.3,199.7 L193.1,199.1 L194.9,198.6 L196.7,198.0 L198.6,197.5 L200.4,197.0 L202.2,196.4 L204.0,195.9 L205.8,195.3" fill="none" stroke="#fbbf24" stroke-width="6" stroke-linecap="round" stroke-linejoin="round" opacity="1.0"/><circle cx="185.8" cy="201.3" r="6.0" fill="#fbbf24" stroke="none" stroke-width="6.3" opacity="1.0"/><circle cx="205.8" cy="195.3" r="6.0" fill="#fbbf24" stroke="none" stroke-width="6.3" opacity="1.0"/><path d="M174.2,253.0 L176.0,252.5 L177.8,251.9 L179.6,251.4 L181.4,250.8 L183.3,250.3 L185.1,249.7 L186.9,249.2 L188.7,248.6 L190.5,248.1 L192.4,247.5 L194.2,247.0" fill="none" stroke="#fbbf24" stroke-width="6" stroke-linecap="round" stroke-linejoin="round" opacity="1.0"/><circle cx="174.2" cy="253.0" r="6.0" fill="#fbbf24" stroke="none" stroke-width="6.3" opacity="1.0"/><circle cx="194.2" cy="247.0" r="6.0" fill="#fbbf24" stroke="none" stroke-width="6.3" opacity="1.0"/></g><g class="f8"><path d="M180.0,150.0 L180.4,159.1 L180.7,168.2 L181.1,177.3 L181.5,186.4 L181.8,195.5 L182.2,204.5 L182.5,213.6 L182.9,222.7 L183.3,231.8 L183.6,240.9 L184.0,250.0" fill="none" stroke="#8f2a3e" stroke-width="21" stroke-linecap="round" stroke-linejoin="round" opacity="0.95"/><path d="M180.0,150.0 L180.4,159.1 L180.7,168.2 L181.1,177.3 L181.5,186.4 L181.8,195.5 L182.2,204.5 L182.5,213.6 L182.9,222.7 L183.3,231.8 L183.6,240.9 L184.0,250.0" fill="none" stroke="#0c2020" stroke-width="13" stroke-linecap="round" stroke-linejoin="round" opacity="1.0"/><path d="M180.0,150.0 L181.5,154.2 L182.9,158.4 L184.4,162.5 L185.8,166.7 L187.3,170.9 L188.7,175.1 L190.2,179.3 L191.6,183.5 L193.1,187.6 L194.5,191.8 L196.0,196.0" fill="none" stroke="#f43f5e" stroke-width="21" stroke-linecap="round" stroke-linejoin="round" opacity="0.95"/><path d="M180.0,150.0 L181.5,154.2 L182.9,158.4 L184.4,162.5 L185.8,166.7 L187.3,170.9 L188.7,175.1 L190.2,179.3 L191.6,183.5 L193.1,187.6 L194.5,191.8 L196.0,196.0" fill="none" stroke="#0c2020" stroke-width="13" stroke-linecap="round" stroke-linejoin="round" opacity="1.0"/><path d="M186.0,199.0 L187.8,198.5 L189.6,197.9 L191.5,197.4 L193.3,196.8 L195.1,196.3 L196.9,195.7 L198.7,195.2 L200.5,194.6 L202.4,194.1 L204.2,193.5 L206.0,193.0" fill="none" stroke="#fbbf24" stroke-width="6" stroke-linecap="round" stroke-linejoin="round" opacity="1.0"/><circle cx="186.0" cy="199.0" r="6.0" fill="#fbbf24" stroke="none" stroke-width="6.3" opacity="1.0"/><circle cx="206.0" cy="193.0" r="6.0" fill="#fbbf24" stroke="none" stroke-width="6.3" opacity="1.0"/><path d="M174.0,253.0 L175.8,252.5 L177.6,251.9 L179.5,251.4 L181.3,250.8 L183.1,250.3 L184.9,249.7 L186.7,249.2 L188.5,248.6 L190.4,248.1 L192.2,247.5 L194.0,247.0" fill="none" stroke="#fbbf24" stroke-width="6" stroke-linecap="round" stroke-linejoin="round" opacity="1.0"/><circle cx="174.0" cy="253.0" r="6.0" fill="#fbbf24" stroke="none" stroke-width="6.3" opacity="1.0"/><circle cx="194.0" cy="247.0" r="6.0" fill="#fbbf24" stroke="none" stroke-width="6.3" opacity="1.0"/></g><g class="f9"><path d="M180.0,150.0 L180.4,159.1 L180.8,168.2 L181.1,177.3 L181.5,186.4 L181.9,195.5 L182.3,204.5 L182.7,213.6 L183.0,222.7 L183.4,231.8 L183.8,240.9 L184.2,250.0" fill="none" stroke="#8f2a3e" stroke-width="21" stroke-linecap="round" stroke-linejoin="round" opacity="0.95"/><path d="M180.0,150.0 L180.4,159.1 L180.8,168.2 L181.1,177.3 L181.5,186.4 L181.9,195.5 L182.3,204.5 L182.7,213.6 L183.0,222.7 L183.4,231.8 L183.8,240.9 L184.2,250.0" fill="none" stroke="#0c2020" stroke-width="13" stroke-linecap="round" stroke-linejoin="round" opacity="1.0"/><path d="M180.0,150.0 L181.4,154.4 L182.9,158.8 L184.3,163.2 L185.8,167.6 L187.2,172.0 L188.6,176.4 L190.1,180.7 L191.5,185.1 L193.0,189.5 L194.4,193.9 L195.8,198.3" fill="none" stroke="#f43f5e" stroke-width="21" stroke-linecap="round" stroke-linejoin="round" opacity="0.95"/><path d="M180.0,150.0 L181.4,154.4 L182.9,158.8 L184.3,163.2 L185.8,167.6 L187.2,172.0 L188.6,176.4 L190.1,180.7 L191.5,185.1 L193.0,189.5 L194.4,193.9 L195.8,198.3" fill="none" stroke="#0c2020" stroke-width="13" stroke-linecap="round" stroke-linejoin="round" opacity="1.0"/><path d="M185.8,201.3 L187.6,200.8 L189.5,200.2 L191.3,199.7 L193.1,199.1 L194.9,198.6 L196.7,198.0 L198.6,197.5 L200.4,197.0 L202.2,196.4 L204.0,195.9 L205.8,195.3" fill="none" stroke="#fbbf24" stroke-width="6" stroke-linecap="round" stroke-linejoin="round" opacity="1.0"/><circle cx="185.8" cy="201.3" r="6.0" fill="#fbbf24" stroke="none" stroke-width="6.3" opacity="1.0"/><circle cx="205.8" cy="195.3" r="6.0" fill="#fbbf24" stroke="none" stroke-width="6.3" opacity="1.0"/><path d="M174.2,253.0 L176.0,252.5 L177.8,251.9 L179.6,251.4 L181.4,250.8 L183.3,250.3 L185.1,249.7 L186.9,249.2 L188.7,248.6 L190.5,248.1 L192.4,247.5 L194.2,247.0" fill="none" stroke="#fbbf24" stroke-width="6" stroke-linecap="round" stroke-linejoin="round" opacity="1.0"/><circle cx="174.2" cy="253.0" r="6.0" fill="#fbbf24" stroke="none" stroke-width="6.3" opacity="1.0"/><circle cx="194.2" cy="247.0" r="6.0" fill="#fbbf24" stroke="none" stroke-width="6.3" opacity="1.0"/></g><g class="f10"><path d="M180.0,150.0 L180.4,159.1 L180.8,168.2 L181.3,177.3 L181.7,186.4 L182.1,195.5 L182.5,204.5 L182.9,213.6 L183.4,222.7 L183.8,231.8 L184.2,240.9 L184.6,250.0" fill="none" stroke="#8f2a3e" stroke-width="21" stroke-linecap="round" stroke-linejoin="round" opacity="0.95"/><path d="M180.0,150.0 L180.4,159.1 L180.8,168.2 L181.3,177.3 L181.7,186.4 L182.1,195.5 L182.5,204.5 L182.9,213.6 L183.4,222.7 L183.8,231.8 L184.2,240.9 L184.6,250.0" fill="none" stroke="#0c2020" stroke-width="13" stroke-linecap="round" stroke-linejoin="round" opacity="1.0"/><path d="M180.0,150.0 L181.4,154.9 L182.8,159.9 L184.2,164.8 L185.6,169.8 L187.0,174.7 L188.4,179.7 L189.8,184.6 L191.2,189.6 L192.6,194.5 L194.0,199.5 L195.4,204.4" fill="none" stroke="#f43f5e" stroke-width="21" stroke-linecap="round" stroke-linejoin="round" opacity="0.95"/><path d="M180.0,150.0 L181.4,154.9 L182.8,159.9 L184.2,164.8 L185.6,169.8 L187.0,174.7 L188.4,179.7 L189.8,184.6 L191.2,189.6 L192.6,194.5 L194.0,199.5 L195.4,204.4" fill="none" stroke="#0c2020" stroke-width="13" stroke-linecap="round" stroke-linejoin="round" opacity="1.0"/><path d="M185.4,207.4 L187.2,206.9 L189.0,206.3 L190.8,205.8 L192.6,205.3 L194.5,204.7 L196.3,204.2 L198.1,203.6 L199.9,203.1 L201.7,202.5 L203.6,202.0 L205.4,201.4" fill="none" stroke="#fbbf24" stroke-width="6" stroke-linecap="round" stroke-linejoin="round" opacity="1.0"/><circle cx="185.4" cy="207.4" r="6.0" fill="#fbbf24" stroke="none" stroke-width="6.3" opacity="1.0"/><circle cx="205.4" cy="201.4" r="6.0" fill="#fbbf24" stroke="none" stroke-width="6.3" opacity="1.0"/><path d="M174.6,253.0 L176.4,252.5 L178.3,251.9 L180.1,251.4 L181.9,250.8 L183.7,250.3 L185.5,249.7 L187.4,249.2 L189.2,248.6 L191.0,248.1 L192.8,247.5 L194.6,247.0" fill="none" stroke="#fbbf24" stroke-width="6" stroke-linecap="round" stroke-linejoin="round" opacity="1.0"/><circle cx="174.6" cy="253.0" r="6.0" fill="#fbbf24" stroke="none" stroke-width="6.3" opacity="1.0"/><circle cx="194.6" cy="247.0" r="6.0" fill="#fbbf24" stroke="none" stroke-width="6.3" opacity="1.0"/></g><g class="f11"><path d="M180.0,150.0 L180.5,159.1 L181.0,168.2 L181.4,177.3 L181.9,186.4 L182.4,195.5 L182.9,204.5 L183.4,213.6 L183.8,222.7 L184.3,231.8 L184.8,240.9 L185.3,250.0" fill="none" stroke="#8f2a3e" stroke-width="21" stroke-linecap="round" stroke-linejoin="round" opacity="0.95"/><path d="M180.0,150.0 L180.5,159.1 L181.0,168.2 L181.4,177.3 L181.9,186.4 L182.4,195.5 L182.9,204.5 L183.4,213.6 L183.8,222.7 L184.3,231.8 L184.8,240.9 L185.3,250.0" fill="none" stroke="#0c2020" stroke-width="13" stroke-linecap="round" stroke-linejoin="round" opacity="1.0"/><path d="M180.0,150.0 L181.3,155.7 L182.7,161.5 L184.0,167.2 L185.4,172.9 L186.7,178.7 L188.0,184.4 L189.4,190.1 L190.7,195.9 L192.1,201.6 L193.4,207.4 L194.7,213.1" fill="none" stroke="#f43f5e" stroke-width="21" stroke-linecap="round" stroke-linejoin="round" opacity="0.95"/><path d="M180.0,150.0 L181.3,155.7 L182.7,161.5 L184.0,167.2 L185.4,172.9 L186.7,178.7 L188.0,184.4 L189.4,190.1 L190.7,195.9 L192.1,201.6 L193.4,207.4 L194.7,213.1" fill="none" stroke="#0c2020" stroke-width="13" stroke-linecap="round" stroke-linejoin="round" opacity="1.0"/><path d="M184.7,216.1 L186.6,215.5 L188.4,215.0 L190.2,214.4 L192.0,213.9 L193.8,213.4 L195.6,212.8 L197.5,212.3 L199.3,211.7 L201.1,211.2 L202.9,210.6 L204.7,210.1" fill="none" stroke="#fbbf24" stroke-width="6" stroke-linecap="round" stroke-linejoin="round" opacity="1.0"/><circle cx="184.7" cy="216.1" r="6.0" fill="#fbbf24" stroke="none" stroke-width="6.3" opacity="1.0"/><circle cx="204.7" cy="210.1" r="6.0" fill="#fbbf24" stroke="none" stroke-width="6.3" opacity="1.0"/><path d="M175.3,253.0 L177.1,252.5 L178.9,251.9 L180.7,251.4 L182.5,250.8 L184.4,250.3 L186.2,249.7 L188.0,249.2 L189.8,248.6 L191.6,248.1 L193.4,247.5 L195.3,247.0" fill="none" stroke="#fbbf24" stroke-width="6" stroke-linecap="round" stroke-linejoin="round" opacity="1.0"/><circle cx="175.3" cy="253.0" r="6.0" fill="#fbbf24" stroke="none" stroke-width="6.3" opacity="1.0"/><circle cx="195.3" cy="247.0" r="6.0" fill="#fbbf24" stroke="none" stroke-width="6.3" opacity="1.0"/></g><g class="f12"><path d="M180.0,150.0 L180.5,159.1 L181.1,168.2 L181.6,177.3 L182.2,186.4 L182.7,195.5 L183.3,204.5 L183.8,213.6 L184.4,222.7 L184.9,231.8 L185.5,240.9 L186.0,250.0" fill="none" stroke="#8f2a3e" stroke-width="21" stroke-linecap="round" stroke-linejoin="round" opacity="0.95"/><path d="M180.0,150.0 L180.5,159.1 L181.1,168.2 L181.6,177.3 L182.2,186.4 L182.7,195.5 L183.3,204.5 L183.8,213.6 L184.4,222.7 L184.9,231.8 L185.5,240.9 L186.0,250.0" fill="none" stroke="#0c2020" stroke-width="13" stroke-linecap="round" stroke-linejoin="round" opacity="1.0"/><path d="M180.0,150.0 L181.3,156.6 L182.5,163.3 L183.8,169.9 L185.1,176.5 L186.4,183.2 L187.6,189.8 L188.9,196.5 L190.2,203.1 L191.5,209.7 L192.7,216.4 L194.0,223.0" fill="none" stroke="#f43f5e" stroke-width="21" stroke-linecap="round" stroke-linejoin="round" opacity="0.95"/><path d="M180.0,150.0 L181.3,156.6 L182.5,163.3 L183.8,169.9 L185.1,176.5 L186.4,183.2 L187.6,189.8 L188.9,196.5 L190.2,203.1 L191.5,209.7 L192.7,216.4 L194.0,223.0" fill="none" stroke="#0c2020" stroke-width="13" stroke-linecap="round" stroke-linejoin="round" opacity="1.0"/><path d="M184.0,226.0 L185.8,225.5 L187.6,224.9 L189.5,224.4 L191.3,223.8 L193.1,223.3 L194.9,222.7 L196.7,222.2 L198.5,221.6 L200.4,221.1 L202.2,220.5 L204.0,220.0" fill="none" stroke="#fbbf24" stroke-width="6" stroke-linecap="round" stroke-linejoin="round" opacity="1.0"/><circle cx="184.0" cy="226.0" r="6.0" fill="#fbbf24" stroke="none" stroke-width="6.3" opacity="1.0"/><circle cx="204.0" cy="220.0" r="6.0" fill="#fbbf24" stroke="none" stroke-width="6.3" opacity="1.0"/><path d="M176.0,253.0 L177.8,252.5 L179.6,251.9 L181.5,251.4 L183.3,250.8 L185.1,250.3 L186.9,249.7 L188.7,249.2 L190.5,248.6 L192.4,248.1 L194.2,247.5 L196.0,247.0" fill="none" stroke="#fbbf24" stroke-width="6" stroke-linecap="round" stroke-linejoin="round" opacity="1.0"/><circle cx="176.0" cy="253.0" r="6.0" fill="#fbbf24" stroke="none" stroke-width="6.3" opacity="1.0"/><circle cx="196.0" cy="247.0" r="6.0" fill="#fbbf24" stroke="none" stroke-width="6.3" opacity="1.0"/></g><g class="f13"><path d="M180.0,150.0 L180.6,159.1 L181.2,168.2 L181.8,177.3 L182.4,186.4 L183.1,195.5 L183.7,204.5 L184.3,213.6 L184.9,222.7 L185.5,231.8 L186.1,240.9 L186.7,250.0" fill="none" stroke="#8f2a3e" stroke-width="21" stroke-linecap="round" stroke-linejoin="round" opacity="0.95"/><path d="M180.0,150.0 L180.6,159.1 L181.2,168.2 L181.8,177.3 L182.4,186.4 L183.1,195.5 L183.7,204.5 L184.3,213.6 L184.9,222.7 L185.5,231.8 L186.1,240.9 L186.7,250.0" fill="none" stroke="#0c2020" stroke-width="13" stroke-linecap="round" stroke-linejoin="round" opacity="1.0"/><path d="M180.0,150.0 L181.2,157.5 L182.4,165.1 L183.6,172.6 L184.8,180.2 L186.0,187.7 L187.2,195.2 L188.4,202.8 L189.6,210.3 L190.9,217.8 L192.1,225.4 L193.3,232.9" fill="none" stroke="#f43f5e" stroke-width="21" stroke-linecap="round" stroke-linejoin="round" opacity="0.95"/><path d="M180.0,150.0 L181.2,157.5 L182.4,165.1 L183.6,172.6 L184.8,180.2 L186.0,187.7 L187.2,195.2 L188.4,202.8 L189.6,210.3 L190.9,217.8 L192.1,225.4 L193.3,232.9" fill="none" stroke="#0c2020" stroke-width="13" stroke-linecap="round" stroke-linejoin="round" opacity="1.0"/><path d="M183.3,235.9 L185.1,235.4 L186.9,234.8 L188.7,234.3 L190.5,233.7 L192.4,233.2 L194.2,232.6 L196.0,232.1 L197.8,231.6 L199.6,231.0 L201.4,230.5 L203.3,229.9" fill="none" stroke="#fbbf24" stroke-width="6" stroke-linecap="round" stroke-linejoin="round" opacity="1.0"/><circle cx="183.3" cy="235.9" r="6.0" fill="#fbbf24" stroke="none" stroke-width="6.3" opacity="1.0"/><circle cx="203.3" cy="229.9" r="6.0" fill="#fbbf24" stroke="none" stroke-width="6.3" opacity="1.0"/><path d="M176.7,253.0 L178.6,252.5 L180.4,251.9 L182.2,251.4 L184.0,250.8 L185.8,250.3 L187.6,249.7 L189.5,249.2 L191.3,248.6 L193.1,248.1 L194.9,247.5 L196.7,247.0" fill="none" stroke="#fbbf24" stroke-width="6" stroke-linecap="round" stroke-linejoin="round" opacity="1.0"/><circle cx="176.7" cy="253.0" r="6.0" fill="#fbbf24" stroke="none" stroke-width="6.3" opacity="1.0"/><circle cx="196.7" cy="247.0" r="6.0" fill="#fbbf24" stroke="none" stroke-width="6.3" opacity="1.0"/></g><g class="f14"><path d="M180.0,150.0 L180.7,159.1 L181.3,168.2 L182.0,177.3 L182.7,186.4 L183.4,195.5 L184.0,204.5 L184.7,213.6 L185.4,222.7 L186.0,231.8 L186.7,240.9 L187.4,250.0" fill="none" stroke="#8f2a3e" stroke-width="21" stroke-linecap="round" stroke-linejoin="round" opacity="0.95"/><path d="M180.0,150.0 L180.7,159.1 L181.3,168.2 L182.0,177.3 L182.7,186.4 L183.4,195.5 L184.0,204.5 L184.7,213.6 L185.4,222.7 L186.0,231.8 L186.7,240.9 L187.4,250.0" fill="none" stroke="#0c2020" stroke-width="13" stroke-linecap="round" stroke-linejoin="round" opacity="1.0"/><path d="M180.0,150.0 L181.1,158.3 L182.3,166.6 L183.4,175.0 L184.6,183.3 L185.7,191.6 L186.9,199.9 L188.0,208.3 L189.2,216.6 L190.3,224.9 L191.5,233.2 L192.6,241.6" fill="none" stroke="#f43f5e" stroke-width="21" stroke-linecap="round" stroke-linejoin="round" opacity="0.95"/><path d="M180.0,150.0 L181.1,158.3 L182.3,166.6 L183.4,175.0 L184.6,183.3 L185.7,191.6 L186.9,199.9 L188.0,208.3 L189.2,216.6 L190.3,224.9 L191.5,233.2 L192.6,241.6" fill="none" stroke="#0c2020" stroke-width="13" stroke-linecap="round" stroke-linejoin="round" opacity="1.0"/><path d="M182.6,244.6 L184.4,244.0 L186.3,243.5 L188.1,242.9 L189.9,242.4 L191.7,241.8 L193.5,241.3 L195.4,240.7 L197.2,240.2 L199.0,239.7 L200.8,239.1 L202.6,238.6" fill="none" stroke="#fbbf24" stroke-width="6" stroke-linecap="round" stroke-linejoin="round" opacity="1.0"/><circle cx="182.6" cy="244.6" r="6.0" fill="#fbbf24" stroke="none" stroke-width="6.3" opacity="1.0"/><circle cx="202.6" cy="238.6" r="6.0" fill="#fbbf24" stroke="none" stroke-width="6.3" opacity="1.0"/><path d="M177.4,253.0 L179.2,252.5 L181.0,251.9 L182.8,251.4 L184.6,250.8 L186.5,250.3 L188.3,249.7 L190.1,249.2 L191.9,248.6 L193.7,248.1 L195.6,247.5 L197.4,247.0" fill="none" stroke="#fbbf24" stroke-width="6" stroke-linecap="round" stroke-linejoin="round" opacity="1.0"/><circle cx="177.4" cy="253.0" r="6.0" fill="#fbbf24" stroke="none" stroke-width="6.3" opacity="1.0"/><circle cx="197.4" cy="247.0" r="6.0" fill="#fbbf24" stroke="none" stroke-width="6.3" opacity="1.0"/></g><g class="f15"><path d="M180.0,150.0 L180.7,159.1 L181.4,168.2 L182.1,177.3 L182.8,186.4 L183.6,195.5 L184.3,204.5 L185.0,213.6 L185.7,222.7 L186.4,231.8 L187.1,240.9 L187.8,250.0" fill="none" stroke="#8f2a3e" stroke-width="21" stroke-linecap="round" stroke-linejoin="round" opacity="0.95"/><path d="M180.0,150.0 L180.7,159.1 L181.4,168.2 L182.1,177.3 L182.8,186.4 L183.6,195.5 L184.3,204.5 L185.0,213.6 L185.7,222.7 L186.4,231.8 L187.1,240.9 L187.8,250.0" fill="none" stroke="#0c2020" stroke-width="13" stroke-linecap="round" stroke-linejoin="round" opacity="1.0"/><path d="M180.0,150.0 L181.1,158.9 L182.2,167.8 L183.3,176.6 L184.4,185.5 L185.5,194.4 L186.6,203.3 L187.7,212.2 L188.9,221.0 L190.0,229.9 L191.1,238.8 L192.2,247.7" fill="none" stroke="#f43f5e" stroke-width="21" stroke-linecap="round" stroke-linejoin="round" opacity="0.95"/><path d="M180.0,150.0 L181.1,158.9 L182.2,167.8 L183.3,176.6 L184.4,185.5 L185.5,194.4 L186.6,203.3 L187.7,212.2 L188.9,221.0 L190.0,229.9 L191.1,238.8 L192.2,247.7" fill="none" stroke="#0c2020" stroke-width="13" stroke-linecap="round" stroke-linejoin="round" opacity="1.0"/><path d="M182.2,250.7 L184.0,250.1 L185.8,249.6 L187.6,249.0 L189.4,248.5 L191.3,248.0 L193.1,247.4 L194.9,246.9 L196.7,246.3 L198.5,245.8 L200.4,245.2 L202.2,244.7" fill="none" stroke="#fbbf24" stroke-width="6" stroke-linecap="round" stroke-linejoin="round" opacity="1.0"/><circle cx="182.2" cy="250.7" r="6.0" fill="#fbbf24" stroke="none" stroke-width="6.3" opacity="1.0"/><circle cx="202.2" cy="244.7" r="6.0" fill="#fbbf24" stroke="none" stroke-width="6.3" opacity="1.0"/><path d="M177.8,253.0 L179.6,252.5 L181.5,251.9 L183.3,251.4 L185.1,250.8 L186.9,250.3 L188.7,249.7 L190.6,249.2 L192.4,248.6 L194.2,248.1 L196.0,247.5 L197.8,247.0" fill="none" stroke="#fbbf24" stroke-width="6" stroke-linecap="round" stroke-linejoin="round" opacity="1.0"/><circle cx="177.8" cy="253.0" r="6.0" fill="#fbbf24" stroke="none" stroke-width="6.3" opacity="1.0"/><circle cx="197.8" cy="247.0" r="6.0" fill="#fbbf24" stroke="none" stroke-width="6.3" opacity="1.0"/></g></svg>
