<svg xmlns="http://www.w3.org/2000/svg" viewBox="0 0 233.56 155.71"><style>g{transform-box:view-box;transform-origin:0 0}@keyframes m0{0%,90%,100%{transform:translate(222px,292px) scale(1,1);opacity:0.86}40%,50%{transform:translate(222px,292px) scale(0.84,1);opacity:0.86}}.m0{animation:m0 2.4s cubic-bezier(.45,0,.55,1) infinite}@keyframes m1{0%,90%,100%{transform:rotate(-99.46deg)}40%,50%{transform:rotate(-102.8deg)}}.m1{animation:m1 2.4s cubic-bezier(.45,0,.55,1) infinite}@keyframes m2{0%,90%,100%{transform:scale(1,1)}40%,50%{transform:scale(0.93,1)}}.m2{animation:m2 2.4s cubic-bezier(.45,0,.55,1) infinite}@keyframes m3{0%,90%,100%{transform:translate(48.66px,0px) rotate(122.66deg)}40%,50%{transform:translate(45.12px,0px) rotate(2.8deg)}}.m3{animation:m3 2.4s cubic-bezier(.45,0,.55,1) infinite}@keyframes m4{0%,90%,100%{transform:scale(0.88,1)}40%,50%{transform:scale(1,1)}}.m4{animation:m4 2.4s cubic-bezier(.45,0,.55,1) infinite}@keyframes m5{0%,90%,100%{transform:translate(30.46px,0px) rotate(-23.2deg)}40%,50%{transform:translate(34.53px,0px) rotate(100.01deg)}}.m5{animation:m5 2.4s cubic-bezier(.45,0,.55,1) infinite}@keyframes m6{0%,90%,100%{transform:rotate(-90deg)}40%,50%{transform:rotate(-92.86deg)}}.m6{animation:m6 2.4s cubic-bezier(.45,0,.55,1) infinite}@keyframes m7{0%,90%,100%{transform:scale(1,1)}40%,50%{transform:scale(0.91,1)}}.m7{animation:m7 2.4s cubic-bezier(.45,0,.55,1) infinite}@keyframes m8{0%,100%{transform:translate(44px,0px) rotate(115.02deg)}40%,50%{transform:translate(40.05px,0px) rotate(-4.26deg)}90%{transform:translate(44px,0px) rotate(115.02deg);animation-timing-function:linear}}.m8{animation:m8 2.4s cubic-bezier(.45,0,.55,1) infinite}@keyframes m9{0%,90%,100%{transform:scale(1,1)}40%,50%{transform:scale(0.97,1)}}.m9{animation:m9 2.4s cubic-bezier(.45,0,.55,1) infinite}@keyframes m10{0%,100%{transform:translate(33.11px,0px) rotate(-25.02deg)}40%,50%{transform:translate(32.25px,0px) rotate(97.13deg)}90%{transform:translate(33.11px,0px) rotate(-25.02deg);animation-timing-function:linear}}.m10{animation:m10 2.4s cubic-bezier(.45,0,.55,1) infinite}@media (prefers-reduced-motion:reduce){*{animation-play-state:paused!important}}</style><defs><linearGradient id="tn" x1="0" y1="0" x2="0" y2="1"><stop offset="0" stop-color="#061414"/><stop offset=".45" stop-color="#1f4a47"/><stop offset="1" stop-color="#061414"/></linearGradient><linearGradient id="tf" x1="0" y1="0" x2="0" y2="1"><stop offset="0" stop-color="#040c0c"/><stop offset=".45" stop-color="#102828"/><stop offset="1" stop-color="#040c0c"/></linearGradient><radialGradient id="hd" cx=".35" cy=".3" r=".75"><stop offset="0" stop-color="#2a5a57"/><stop offset=".55" stop-color="#0c2020"/><stop offset="1" stop-color="#050e0e"/></radialGradient><radialGradient id="sh"><stop offset="0" stop-color="#000" stop-opacity=".9"/><stop offset="1" stop-color="#000" stop-opacity="0"/></radialGradient><linearGradient id="fl" x1="0" y1="0" x2="0" y2="1"><stop offset="0" stop-color="#16302f"/><stop offset="1" stop-color="#16302f" stop-opacity="0"/></linearGradient></defs><g transform="translate(-145.65,-152.29)"><rect x="145.65" y="292" width="233.56" height="16" fill="url(#fl)"/><path d="M145.65,292 H379.21" fill="none" stroke="#26403f" stroke-width="3" stroke-linecap="round" stroke-linejoin="round"/><g class="m0"><ellipse rx="90.93" ry="8" fill="url(#sh)"/></g><g transform="translate(222,266)"><g transform="rotate(-147.53)"><circle r="9.5" fill="#0b6f66"/><g transform="scale(1,1)"><path d="M0,0 H52.15" fill="none" stroke="#0b6f66" stroke-width="19" stroke-linecap="butt" stroke-linejoin="round"/></g><g transform="translate(52.15,0) rotate(205.25)"><circle r="9.5" fill="#0b6f66"/><g transform="scale(1,1)"><path d="M0,0 H44.94" fill="none" stroke="#0b6f66" stroke-width="19" stroke-linecap="butt" stroke-linejoin="round"/></g><g transform="translate(44.94,0) rotate(-57.72)"><circle r="9.5" fill="#0b6f66"/></g></g></g></g><g transform="translate(222,266)"><g transform="rotate(-147.53)"><circle r="5.5" fill="#071313"/><g transform="scale(1,1)"><rect y="-5.5" width="52.15" height="11" fill="url(#tf)"/></g><g transform="translate(52.15,0) rotate(205.25)"><circle r="5.5" fill="#071313"/><g transform="scale(1,1)"><rect y="-5.5" width="44.94" height="11" fill="url(#tf)"/></g><g transform="translate(44.94,0) rotate(-57.72)"><circle r="5.5" fill="#071313"/></g></g></g></g><g transform="translate(222,266) rotate(-4.29)"><g transform="translate(80.22,0) rotate(4.29)"><g class="m1"><circle r="9.5" fill="#7a2436"/><g class="m2"><path d="M0,0 H48.66" fill="none" stroke="#7a2436" stroke-width="19" stroke-linecap="butt" stroke-linejoin="round"/></g><g class="m3"><circle r="9.5" fill="#7a2436"/><g class="m4"><path d="M0,0 H34.53" fill="none" stroke="#7a2436" stroke-width="19" stroke-linecap="butt" stroke-linejoin="round"/></g><g class="m5"><circle r="11.5" fill="#7a2436"/></g></g></g></g></g><g transform="translate(222,266) rotate(-4.29)"><g transform="translate(80.22,0) rotate(4.29)"><g class="m1"><circle r="5.5" fill="#071313"/><g class="m2"><rect y="-5.5" width="48.66" height="11" fill="url(#tf)"/></g><g class="m3"><circle r="5.5" fill="#071313"/><g class="m4"><rect y="-5.5" width="34.53" height="11" fill="url(#tf)"/></g><g class="m5"><circle r="7.5" fill="#173a38"/><g transform="translate(-11,0) rotate(0) scale(1,1)"><circle cx="0" cy="0" r="6" fill="#fbbf24" stroke="none" stroke-width="6.3"/></g><g transform="translate(10,6) rotate(0) scale(1,1)"><path d="M-11,0 L11,0" fill="none" stroke="#fbbf24" stroke-width="6" stroke-linecap="round" stroke-linejoin="round"/></g><g transform="translate(-1,6) rotate(0) scale(1,1)"><circle cx="0" cy="0" r="6" fill="#fbbf24" stroke="none" stroke-width="6.3"/></g></g></g></g></g></g><g transform="translate(222,266) rotate(-4.29)"><circle r="12.5" fill="#2dd4bf"/><g transform="scale(1,1)"><path d="M0,0 H80.22" fill="none" stroke="#2dd4bf" stroke-width="25" stroke-linecap="butt" stroke-linejoin="round"/></g><g transform="translate(80.22,0) rotate(4.29)"><circle r="12.5" fill="#2dd4bf"/></g></g><g transform="translate(222,266) rotate(-4.29)"><circle r="8.5" fill="#0b1f1f"/><g transform="scale(1,1)"><rect y="-8.5" width="80.22" height="17" fill="url(#tn)"/></g><g transform="translate(80.22,0) rotate(4.29)"><circle r="8.5" fill="#0b1f1f"/></g></g><g transform="translate(222,266) rotate(-4.29)"><g transform="translate(80.22,0) rotate(4.29)"><g transform="rotate(-12.99)"><g transform="translate(26.68,0) rotate(12.99)"><circle r="19" fill="#2dd4bf" opacity="0.95"/><circle r="15" fill="url(#hd)"/><path d="M-0.75,-3 H12" fill="none" stroke="#a7f3ee" stroke-width="5" stroke-linecap="round" stroke-linejoin="round"/></g></g></g></g><g transform="translate(222,266)"><g transform="rotate(-143.13)"><circle r="10.5" fill="#2dd4bf"/><g transform="scale(1,1)"><path d="M0,0 H40" fill="none" stroke="#2dd4bf" stroke-width="21" stroke-linecap="butt" stroke-linejoin="round"/></g><g transform="translate(40,0) rotate(199.44)"><circle r="10.5" fill="#2dd4bf"/><g transform="scale(1,1)"><path d="M0,0 H43.27" fill="none" stroke="#2dd4bf" stroke-width="21" stroke-linecap="butt" stroke-linejoin="round"/></g><g transform="translate(43.27,0) rotate(-56.31)"><circle r="10.5" fill="#2dd4bf"/></g></g></g></g><g transform="translate(222,266)"><g transform="rotate(-143.13)"><circle r="6.5" fill="#0b1f1f"/><g transform="scale(1,1)"><rect y="-6.5" width="40" height="13" fill="url(#tn)"/></g><g transform="translate(40,0) rotate(199.44)"><circle r="6.5" fill="#0b1f1f"/><g transform="scale(1,1)"><rect y="-6.5" width="43.27" height="13" fill="url(#tn)"/></g><g transform="translate(43.27,0) rotate(-56.31)"><circle r="6.5" fill="#0b1f1f"/></g></g></g></g><g transform="translate(222,266) rotate(-4.29)"><g transform="translate(80.22,0) rotate(4.29)"><g class="m6"><circle r="10.5" fill="#f43f5e"/><g class="m7"><path d="M0,0 H44" fill="none" stroke="#f43f5e" stroke-width="21" stroke-linecap="butt" stroke-linejoin="round"/></g><g class="m8"><circle r="10.5" fill="#f43f5e"/><g class="m9"><path d="M0,0 H33.11" fill="none" stroke="#f43f5e" stroke-width="21" stroke-linecap="butt" stroke-linejoin="round"/></g><g class="m10"><circle r="12.5" fill="#f43f5e"/></g></g></g></g></g><g transform="translate(222,266) rotate(-4.29)"><g transform="translate(80.22,0) rotate(4.29)"><g class="m6"><circle r="6.5" fill="#0b1f1f"/><g class="m7"><rect y="-6.5" width="44" height="13" fill="url(#tn)"/></g><g class="m8"><circle r="6.5" fill="#0b1f1f"/><g class="m9"><rect y="-6.5" width="33.11" height="13" fill="url(#tn)"/></g><g class="m10"><circle r="8.5" fill="#2f6e6a"/><g transform="translate(-10,-6) rotate(0) scale(1,1)"><path d="M-11,0 L11,0" fill="none" stroke="#fbbf24" stroke-width="6" stroke-linecap="round" stroke-linejoin="round"/></g><g transform="translate(1,-6) rotate(0) scale(1,1)"><circle cx="0" cy="0" r="6" fill="#fbbf24" stroke="none" stroke-width="6.3"/></g><g transform="translate(11,0) rotate(0) scale(1,1)"><circle cx="0" cy="0" r="6" fill="#fbbf24" stroke="none" stroke-width="6.3"/></g></g></g></g></g></g></g></svg>
