<svg xmlns="http://www.w3.org/2000/svg" viewBox="0 0 480 320"><style>@keyframes k0{0%{opacity:1}11.111%{opacity:0}100%{opacity:0}}.f0{opacity:0;animation:k0 2.4s steps(1,end) infinite}@keyframes k1{0%{opacity:0}11.111%{opacity:1}16.667%{opacity:0}100%{opacity:0}}.f1{opacity:0;animation:k1 2.4s steps(1,end) infinite}@keyframes k2{0%{opacity:0}16.667%{opacity:1}22.222%{opacity:0}100%{opacity:0}}.f2{opacity:0;animation:k2 2.4s steps(1,end) infinite}@keyframes k3{0%{opacity:0}22.222%{opacity:1}27.778%{opacity:0}100%{opacity:0}}.f3{opacity:0;animation:k3 2.4s steps(1,end) infinite}@keyframes k4{0%{opacity:0}27.778%{opacity:1}33.333%{opacity:0}100%{opacity:0}}.f4{opacity:0;animation:k4 2.4s steps(1,end) infinite}@keyframes k5{0%{opacity:0}33.333%{opacity:1}38.889%{opacity:0}100%{opacity:0}}.f5{opacity:0;animation:k5 2.4s steps(1,end) infinite}@keyframes k6{0%{opacity:0}38.889%{opacity:1}44.444%{opacity:0}100%{opacity:0}}.f6{opacity:0;animation:k6 2.4s steps(1,end) infinite}@keyframes k7{0%{opacity:0}44.444%{opacity:1}50.000%{opacity:0}100%{opacity:0}}.f7{opacity:0;animation:k7 2.4s steps(1,end) infinite}@keyframes k8{0%{opacity:0}50.000%{opacity:1}61.111%{opacity:0}100%{opacity:0}}.f8{opacity:0;animation:k8 2.4s steps(1,end) infinite}@keyframes k9{0%{opacity:0}61.111%{opacity:1}66.667%{opacity:0}100%{opacity:0}}.f9{opacity:0;animation:k9 2.4s steps(1,end) infinite}@keyframes k10{0%{opacity:0}66.667%{opacity:1}72.222%{opacity:0}100%{opacity:0}}.f10{opacity:0;animation:k10 2.4s steps(1,end) infinite}@keyframes k11{0%{opacity:0}72.222%{opacity:1}77.778%{opacity:0}100%{opacity:0}}.f11{opacity:0;animation:k11 2.4s steps(1,end) infinite}@keyframes k12{0%{opacity:0}77.778%{opacity:1}83.333%{opacity:0}100%{opacity:0}}.f12{opacity:0;animation:k12 2.4s steps(1,end) infinite}@keyframes k13{0%{opacity:0}83.333%{opacity:1}88.889%{opacity:0}100%{opacity:0}}.f13{opacity:0;animation:k13 2.4s steps(1,end) infinite}@keyframes k14{0%{opacity:0}88.889%{opacity:1}94.444%{opacity:0}100%{opacity:0}}.f14{opacity:0;animation:k14 2.4s steps(1,end) infinite}@keyframes k15{0%{opacity:0}94.444%{opacity:1}100%{opacity:1}}.f15{opacity:0;animation:k15 2.4s steps(1,end) infinite}</style><path d="M40.0,292.0 L440.0,292.0" fill="none" stroke="#1f3333" stroke-width="6" stroke-linecap="round" stroke-linejoin="round" opacity="1.0"/><path d="M314.0,260.0 L224.0,266.0" fill="none" stroke="#f43f5e" stroke-width="23" stroke-linecap="round" stroke-linejoin="round" opacity="0.95"/><path d="M314.0,260.0 L224.0,266.0" fill="none" stroke="#0c2020" stroke-width="15" stroke-linecap="round" stroke-linejoin="round" opacity="1.0"/><circle cx="340.0" cy="254.0" r="19.0" fill="#f43f5e" stroke="none" stroke-width="0" opacity="0.95"/><circle cx="340.0" cy="254.0" r="15.0" fill="#0c2020" stroke="none" stroke-width="6.3" opacity="1.0"/><path d="M338.0,237.0 L319.0,256.0 L323.0,275.0" fill="none" stroke="#2dd4bf" stroke-width="5" stroke-linecap="round" stroke-linejoin="round" opacity="1.0"/><path d="M330.7,251.0 L349.3,251.0" fill="none" stroke="#a7f3ee" stroke-width="5" stroke-linecap="round" stroke-linejoin="round" opacity="1.0"/><g class="f0"><path d="M314.0,260.0 L317.8,258.5 L321.6,257.1 L325.5,255.6 L329.3,254.2 L333.1,252.7 L336.9,251.3 L340.7,249.8 L344.5,248.4 L348.4,246.9 L352.2,245.5 L356.0,244.0" fill="none" stroke="#0d9488" stroke-width="19" stroke-linecap="round" stroke-linejoin="round" opacity="0.95"/><path d="M314.0,260.0 L317.8,258.5 L321.6,257.1 L325.5,255.6 L329.3,254.2 L333.1,252.7 L336.9,251.3 L340.7,249.8 L344.5,248.4 L348.4,246.9 L352.2,245.5 L356.0,244.0" fill="none" stroke="#0c2020" stroke-width="11" stroke-linecap="round" stroke-linejoin="round" opacity="1.0"/><path d="M314.0,260.0 L316.4,252.1 L318.8,244.2 L321.2,236.3 L323.6,228.4 L326.0,220.5 L328.3,212.6 L329.8,204.4 L331.4,196.3 L332.9,188.2 L334.5,180.1 L336.0,172.0" fill="none" stroke="#2dd4bf" stroke-width="19" stroke-linecap="round" stroke-linejoin="round" opacity="0.95"/><path d="M314.0,260.0 L316.4,252.1 L318.8,244.2 L321.2,236.3 L323.6,228.4 L326.0,220.5 L328.3,212.6 L329.8,204.4 L331.4,196.3 L332.9,188.2 L334.5,180.1 L336.0,172.0" fill="none" stroke="#0c2020" stroke-width="11" stroke-linecap="round" stroke-linejoin="round" opacity="1.0"/><path d="M224.0,266.0 L215.8,258.5 L207.7,251.0 L199.5,243.5 L191.4,236.0 L183.2,228.5 L175.0,221.0 L166.5,213.9 L157.9,206.9 L149.2,200.0 L140.6,193.0 L132.0,186.0" fill="none" stroke="#0d9488" stroke-width="19" stroke-linecap="round" stroke-linejoin="round" opacity="0.95"/><path d="M224.0,266.0 L215.8,258.5 L207.7,251.0 L199.5,243.5 L191.4,236.0 L183.2,228.5 L175.0,221.0 L166.5,213.9 L157.9,206.9 L149.2,200.0 L140.6,193.0 L132.0,186.0" fill="none" stroke="#0c2020" stroke-width="11" stroke-linecap="round" stroke-linejoin="round" opacity="1.0"/><path d="M224.0,266.0 L212.8,263.8 L201.6,261.6 L190.4,259.5 L179.2,257.3 L168.0,255.1 L156.8,252.9 L145.5,251.5 L134.1,250.6 L122.8,249.8 L111.4,248.9 L100.0,248.0" fill="none" stroke="#2dd4bf" stroke-width="19" stroke-linecap="round" stroke-linejoin="round" opacity="0.95"/><path d="M224.0,266.0 L212.8,263.8 L201.6,261.6 L190.4,259.5 L179.2,257.3 L168.0,255.1 L156.8,252.9 L145.5,251.5 L134.1,250.6 L122.8,249.8 L111.4,248.9 L100.0,248.0" fill="none" stroke="#0c2020" stroke-width="11" stroke-linecap="round" stroke-linejoin="round" opacity="1.0"/></g><g class="f1"><path d="M314.0,260.0 L317.8,258.3 L321.5,256.5 L325.3,254.8 L329.0,253.1 L332.8,251.3 L336.5,249.6 L340.3,247.9 L344.0,246.1 L347.7,244.4 L351.4,242.6 L355.1,240.9" fill="none" stroke="#0d9488" stroke-width="19" stroke-linecap="round" stroke-linejoin="round" opacity="0.95"/><path d="M314.0,260.0 L317.8,258.3 L321.5,256.5 L325.3,254.8 L329.0,253.1 L332.8,251.3 L336.5,249.6 L340.3,247.9 L344.0,246.1 L347.7,244.4 L351.4,242.6 L355.1,240.9" fill="none" stroke="#0c2020" stroke-width="11" stroke-linecap="round" stroke-linejoin="round" opacity="1.0"/><path d="M314.0,260.0 L316.5,252.4 L318.9,244.8 L321.4,237.1 L323.9,229.5 L326.3,221.9 L328.6,214.2 L330.3,206.4 L331.9,198.6 L333.6,190.7 L335.2,182.9 L336.9,175.1" fill="none" stroke="#2dd4bf" stroke-width="19" stroke-linecap="round" stroke-linejoin="round" opacity="0.95"/><path d="M314.0,260.0 L316.5,252.4 L318.9,244.8 L321.4,237.1 L323.9,229.5 L326.3,221.9 L328.6,214.2 L330.3,206.4 L331.9,198.6 L333.6,190.7 L335.2,182.9 L336.9,175.1" fill="none" stroke="#0c2020" stroke-width="11" stroke-linecap="round" stroke-linejoin="round" opacity="1.0"/><path d="M224.0,266.0 L215.7,258.7 L207.4,251.4 L199.1,244.2 L190.8,236.9 L182.5,229.6 L174.3,222.3 L165.6,215.5 L156.8,208.8 L148.1,202.1 L139.4,195.4 L130.6,188.7" fill="none" stroke="#0d9488" stroke-width="19" stroke-linecap="round" stroke-linejoin="round" opacity="0.95"/><path d="M224.0,266.0 L215.7,258.7 L207.4,251.4 L199.1,244.2 L190.8,236.9 L182.5,229.6 L174.3,222.3 L165.6,215.5 L156.8,208.8 L148.1,202.1 L139.4,195.4 L130.6,188.7" fill="none" stroke="#0c2020" stroke-width="11" stroke-linecap="round" stroke-linejoin="round" opacity="1.0"/><path d="M224.0,266.0 L212.9,263.6 L201.9,261.2 L190.8,258.8 L179.7,256.4 L168.7,254.0 L157.6,251.6 L146.4,249.9 L135.1,248.7 L123.9,247.6 L112.6,246.5 L101.4,245.3" fill="none" stroke="#2dd4bf" stroke-width="19" stroke-linecap="round" stroke-linejoin="round" opacity="0.95"/><path d="M224.0,266.0 L212.9,263.6 L201.9,261.2 L190.8,258.8 L179.7,256.4 L168.7,254.0 L157.6,251.6 L146.4,249.9 L135.1,248.7 L123.9,247.6 L112.6,246.5 L101.4,245.3" fill="none" stroke="#0c2020" stroke-width="11" stroke-linecap="round" stroke-linejoin="round" opacity="1.0"/></g><g class="f2"><path d="M314.0,260.0 L317.6,257.5 L321.2,255.1 L324.8,252.6 L328.4,250.2 L332.0,247.7 L335.6,245.2 L339.0,242.7 L342.5,240.2 L345.9,237.7 L349.4,235.2 L352.9,232.8" fill="none" stroke="#0d9488" stroke-width="19" stroke-linecap="round" stroke-linejoin="round" opacity="0.95"/><path d="M314.0,260.0 L317.6,257.5 L321.2,255.1 L324.8,252.6 L328.4,250.2 L332.0,247.7 L335.6,245.2 L339.0,242.7 L342.5,240.2 L345.9,237.7 L349.4,235.2 L352.9,232.8" fill="none" stroke="#0c2020" stroke-width="11" stroke-linecap="round" stroke-linejoin="round" opacity="1.0"/><path d="M314.0,260.0 L316.6,253.1 L319.3,246.2 L321.9,239.3 L324.5,232.4 L327.1,225.5 L329.6,218.6 L331.5,211.5 L333.4,204.5 L335.3,197.4 L337.2,190.3 L339.1,183.2" fill="none" stroke="#2dd4bf" stroke-width="19" stroke-linecap="round" stroke-linejoin="round" opacity="0.95"/><path d="M314.0,260.0 L316.6,253.1 L319.3,246.2 L321.9,239.3 L324.5,232.4 L327.1,225.5 L329.6,218.6 L331.5,211.5 L333.4,204.5 L335.3,197.4 L337.2,190.3 L339.1,183.2" fill="none" stroke="#0c2020" stroke-width="11" stroke-linecap="round" stroke-linejoin="round" opacity="1.0"/><path d="M224.0,266.0 L215.4,259.3 L206.7,252.7 L198.1,246.0 L189.5,239.3 L180.8,232.6 L172.2,226.0 L163.2,219.8 L154.1,213.8 L145.1,207.7 L136.0,201.7 L127.0,195.7" fill="none" stroke="#0d9488" stroke-width="19" stroke-linecap="round" stroke-linejoin="round" opacity="0.95"/><path d="M224.0,266.0 L215.4,259.3 L206.7,252.7 L198.1,246.0 L189.5,239.3 L180.8,232.6 L172.2,226.0 L163.2,219.8 L154.1,213.8 L145.1,207.7 L136.0,201.7 L127.0,195.7" fill="none" stroke="#0c2020" stroke-width="11" stroke-linecap="round" stroke-linejoin="round" opacity="1.0"/><path d="M224.0,266.0 L213.3,263.0 L202.6,260.0 L191.8,257.0 L181.1,254.0 L170.4,250.9 L159.7,247.9 L148.8,245.6 L137.8,243.8 L126.9,242.0 L115.9,240.1 L105.0,238.3" fill="none" stroke="#2dd4bf" stroke-width="19" stroke-linecap="round" stroke-linejoin="round" opacity="0.95"/><path d="M224.0,266.0 L213.3,263.0 L202.6,260.0 L191.8,257.0 L181.1,254.0 L170.4,250.9 L159.7,247.9 L148.8,245.6 L137.8,243.8 L126.9,242.0 L115.9,240.1 L105.0,238.3" fill="none" stroke="#0c2020" stroke-width="11" stroke-linecap="round" stroke-linejoin="round" opacity="1.0"/></g><g class="f3"><path d="M314.0,260.0 L317.4,256.5 L320.7,253.0 L324.1,249.5 L327.5,246.0 L330.9,242.5 L334.2,239.0 L337.3,235.5 L340.4,231.9 L343.5,228.3 L346.6,224.8 L349.7,221.2" fill="none" stroke="#0d9488" stroke-width="19" stroke-linecap="round" stroke-linejoin="round" opacity="0.95"/><path d="M314.0,260.0 L317.4,256.5 L320.7,253.0 L324.1,249.5 L327.5,246.0 L330.9,242.5 L334.2,239.0 L337.3,235.5 L340.4,231.9 L343.5,228.3 L346.6,224.8 L349.7,221.2" fill="none" stroke="#0c2020" stroke-width="11" stroke-linecap="round" stroke-linejoin="round" opacity="1.0"/><path d="M314.0,260.0 L316.9,254.1 L319.7,248.3 L322.6,242.4 L325.4,236.6 L328.3,230.7 L331.0,224.8 L333.3,218.8 L335.5,212.8 L337.8,206.8 L340.1,200.8 L342.3,194.8" fill="none" stroke="#2dd4bf" stroke-width="19" stroke-linecap="round" stroke-linejoin="round" opacity="0.95"/><path d="M314.0,260.0 L316.9,254.1 L319.7,248.3 L322.6,242.4 L325.4,236.6 L328.3,230.7 L331.0,224.8 L333.3,218.8 L335.5,212.8 L337.8,206.8 L340.1,200.8 L342.3,194.8" fill="none" stroke="#0c2020" stroke-width="11" stroke-linecap="round" stroke-linejoin="round" opacity="1.0"/><path d="M224.0,266.0 L214.9,260.2 L205.8,254.4 L196.6,248.5 L187.5,242.7 L178.4,236.9 L169.3,231.1 L159.8,225.8 L150.3,220.8 L140.9,215.7 L131.4,210.7 L121.9,205.6" fill="none" stroke="#0d9488" stroke-width="19" stroke-linecap="round" stroke-linejoin="round" opacity="0.95"/><path d="M224.0,266.0 L214.9,260.2 L205.8,254.4 L196.6,248.5 L187.5,242.7 L178.4,236.9 L169.3,231.1 L159.8,225.8 L150.3,220.8 L140.9,215.7 L131.4,210.7 L121.9,205.6" fill="none" stroke="#0c2020" stroke-width="11" stroke-linecap="round" stroke-linejoin="round" opacity="1.0"/><path d="M224.0,266.0 L213.8,262.1 L203.5,258.3 L193.3,254.4 L183.0,250.5 L172.8,246.7 L162.6,242.8 L152.1,239.6 L141.6,236.8 L131.1,234.0 L120.6,231.2 L110.1,228.4" fill="none" stroke="#2dd4bf" stroke-width="19" stroke-linecap="round" stroke-linejoin="round" opacity="0.95"/><path d="M224.0,266.0 L213.8,262.1 L203.5,258.3 L193.3,254.4 L183.0,250.5 L172.8,246.7 L162.6,242.8 L152.1,239.6 L141.6,236.8 L131.1,234.0 L120.6,231.2 L110.1,228.4" fill="none" stroke="#0c2020" stroke-width="11" stroke-linecap="round" stroke-linejoin="round" opacity="1.0"/></g><g class="f4"><path d="M314.0,260.0 L317.1,255.3 L320.2,250.6 L323.3,246.0 L326.4,241.3 L329.6,236.6 L332.6,231.9 L335.3,227.1 L338.0,222.4 L340.6,217.6 L343.3,212.8 L346.0,208.0" fill="none" stroke="#0d9488" stroke-width="19" stroke-linecap="round" stroke-linejoin="round" opacity="0.95"/><path d="M314.0,260.0 L317.1,255.3 L320.2,250.6 L323.3,246.0 L326.4,241.3 L329.6,236.6 L332.6,231.9 L335.3,227.1 L338.0,222.4 L340.6,217.6 L343.3,212.8 L346.0,208.0" fill="none" stroke="#0c2020" stroke-width="11" stroke-linecap="round" stroke-linejoin="round" opacity="1.0"/><path d="M314.0,260.0 L317.1,255.3 L320.2,250.6 L323.3,246.0 L326.4,241.3 L329.6,236.6 L332.6,231.9 L335.3,227.1 L338.0,222.4 L340.6,217.6 L343.3,212.8 L346.0,208.0" fill="none" stroke="#2dd4bf" stroke-width="19" stroke-linecap="round" stroke-linejoin="round" opacity="0.95"/><path d="M314.0,260.0 L317.1,255.3 L320.2,250.6 L323.3,246.0 L326.4,241.3 L329.6,236.6 L332.6,231.9 L335.3,227.1 L338.0,222.4 L340.6,217.6 L343.3,212.8 L346.0,208.0" fill="none" stroke="#0c2020" stroke-width="11" stroke-linecap="round" stroke-linejoin="round" opacity="1.0"/><path d="M224.0,266.0 L214.3,261.2 L204.6,256.3 L195.0,251.5 L185.3,246.6 L175.6,241.8 L165.9,236.9 L156.0,232.7 L146.0,228.8 L136.0,224.9 L126.0,220.9 L116.0,217.0" fill="none" stroke="#0d9488" stroke-width="19" stroke-linecap="round" stroke-linejoin="round" opacity="0.95"/><path d="M224.0,266.0 L214.3,261.2 L204.6,256.3 L195.0,251.5 L185.3,246.6 L175.6,241.8 L165.9,236.9 L156.0,232.7 L146.0,228.8 L136.0,224.9 L126.0,220.9 L116.0,217.0" fill="none" stroke="#0c2020" stroke-width="11" stroke-linecap="round" stroke-linejoin="round" opacity="1.0"/><path d="M224.0,266.0 L214.3,261.2 L204.6,256.3 L195.0,251.5 L185.3,246.6 L175.6,241.8 L165.9,236.9 L156.0,232.7 L146.0,228.8 L136.0,224.9 L126.0,220.9 L116.0,217.0" fill="none" stroke="#2dd4bf" stroke-width="19" stroke-linecap="round" stroke-linejoin="round" opacity="0.95"/><path d="M224.0,266.0 L214.3,261.2 L204.6,256.3 L195.0,251.5 L185.3,246.6 L175.6,241.8 L165.9,236.9 L156.0,232.7 L146.0,228.8 L136.0,224.9 L126.0,220.9 L116.0,217.0" fill="none" stroke="#0c2020" stroke-width="11" stroke-linecap="round" stroke-linejoin="round" opacity="1.0"/></g><g class="f5"><path d="M314.0,260.0 L316.9,254.1 L319.7,248.3 L322.6,242.4 L325.4,236.6 L328.3,230.7 L331.0,224.8 L333.3,218.8 L335.5,212.8 L337.8,206.8 L340.1,200.8 L342.3,194.8" fill="none" stroke="#0d9488" stroke-width="19" stroke-linecap="round" stroke-linejoin="round" opacity="0.95"/><path d="M314.0,260.0 L316.9,254.1 L319.7,248.3 L322.6,242.4 L325.4,236.6 L328.3,230.7 L331.0,224.8 L333.3,218.8 L335.5,212.8 L337.8,206.8 L340.1,200.8 L342.3,194.8" fill="none" stroke="#0c2020" stroke-width="11" stroke-linecap="round" stroke-linejoin="round" opacity="1.0"/><path d="M314.0,260.0 L317.4,256.5 L320.7,253.0 L324.1,249.5 L327.5,246.0 L330.9,242.5 L334.2,239.0 L337.3,235.5 L340.4,231.9 L343.5,228.3 L346.6,224.8 L349.7,221.2" fill="none" stroke="#2dd4bf" stroke-width="19" stroke-linecap="round" stroke-linejoin="round" opacity="0.95"/><path d="M314.0,260.0 L317.4,256.5 L320.7,253.0 L324.1,249.5 L327.5,246.0 L330.9,242.5 L334.2,239.0 L337.3,235.5 L340.4,231.9 L343.5,228.3 L346.6,224.8 L349.7,221.2" fill="none" stroke="#0c2020" stroke-width="11" stroke-linecap="round" stroke-linejoin="round" opacity="1.0"/><path d="M224.0,266.0 L213.8,262.1 L203.5,258.3 L193.3,254.4 L183.0,250.5 L172.8,246.7 L162.6,242.8 L152.1,239.6 L141.6,236.8 L131.1,234.0 L120.6,231.2 L110.1,228.4" fill="none" stroke="#0d9488" stroke-width="19" stroke-linecap="round" stroke-linejoin="round" opacity="0.95"/><path d="M224.0,266.0 L213.8,262.1 L203.5,258.3 L193.3,254.4 L183.0,250.5 L172.8,246.7 L162.6,242.8 L152.1,239.6 L141.6,236.8 L131.1,234.0 L120.6,231.2 L110.1,228.4" fill="none" stroke="#0c2020" stroke-width="11" stroke-linecap="round" stroke-linejoin="round" opacity="1.0"/><path d="M224.0,266.0 L214.9,260.2 L205.8,254.4 L196.6,248.5 L187.5,242.7 L178.4,236.9 L169.3,231.1 L159.8,225.8 L150.3,220.8 L140.9,215.7 L131.4,210.7 L121.9,205.6" fill="none" stroke="#2dd4bf" stroke-width="19" stroke-linecap="round" stroke-linejoin="round" opacity="0.95"/><path d="M224.0,266.0 L214.9,260.2 L205.8,254.4 L196.6,248.5 L187.5,242.7 L178.4,236.9 L169.3,231.1 L159.8,225.8 L150.3,220.8 L140.9,215.7 L131.4,210.7 L121.9,205.6" fill="none" stroke="#0c2020" stroke-width="11" stroke-linecap="round" stroke-linejoin="round" opacity="1.0"/></g><g class="f6"><path d="M314.0,260.0 L316.6,253.1 L319.3,246.2 L321.9,239.3 L324.5,232.4 L327.1,225.5 L329.6,218.6 L331.5,211.5 L333.4,204.5 L335.3,197.4 L337.2,190.3 L339.1,183.2" fill="none" stroke="#0d9488" stroke-width="19" stroke-linecap="round" stroke-linejoin="round" opacity="0.95"/><path d="M314.0,260.0 L316.6,253.1 L319.3,246.2 L321.9,239.3 L324.5,232.4 L327.1,225.5 L329.6,218.6 L331.5,211.5 L333.4,204.5 L335.3,197.4 L337.2,190.3 L339.1,183.2" fill="none" stroke="#0c2020" stroke-width="11" stroke-linecap="round" stroke-linejoin="round" opacity="1.0"/><path d="M314.0,260.0 L317.6,257.5 L321.2,255.1 L324.8,252.6 L328.4,250.2 L332.0,247.7 L335.6,245.2 L339.0,242.7 L342.5,240.2 L345.9,237.7 L349.4,235.2 L352.9,232.8" fill="none" stroke="#2dd4bf" stroke-width="19" stroke-linecap="round" stroke-linejoin="round" opacity="0.95"/><path d="M314.0,260.0 L317.6,257.5 L321.2,255.1 L324.8,252.6 L328.4,250.2 L332.0,247.7 L335.6,245.2 L339.0,242.7 L342.5,240.2 L345.9,237.7 L349.4,235.2 L352.9,232.8" fill="none" stroke="#0c2020" stroke-width="11" stroke-linecap="round" stroke-linejoin="round" opacity="1.0"/><path d="M224.0,266.0 L213.3,263.0 L202.6,260.0 L191.8,257.0 L181.1,254.0 L170.4,250.9 L159.7,247.9 L148.8,245.6 L137.8,243.8 L126.9,242.0 L115.9,240.1 L105.0,238.3" fill="none" stroke="#0d9488" stroke-width="19" stroke-linecap="round" stroke-linejoin="round" opacity="0.95"/><path d="M224.0,266.0 L213.3,263.0 L202.6,260.0 L191.8,257.0 L181.1,254.0 L170.4,250.9 L159.7,247.9 L148.8,245.6 L137.8,243.8 L126.9,242.0 L115.9,240.1 L105.0,238.3" fill="none" stroke="#0c2020" stroke-width="11" stroke-linecap="round" stroke-linejoin="round" opacity="1.0"/><path d="M224.0,266.0 L215.4,259.3 L206.7,252.7 L198.1,246.0 L189.5,239.3 L180.8,232.6 L172.2,226.0 L163.2,219.8 L154.1,213.8 L145.1,207.7 L136.0,201.7 L127.0,195.7" fill="none" stroke="#2dd4bf" stroke-width="19" stroke-linecap="round" stroke-linejoin="round" opacity="0.95"/><path d="M224.0,266.0 L215.4,259.3 L206.7,252.7 L198.1,246.0 L189.5,239.3 L180.8,232.6 L172.2,226.0 L163.2,219.8 L154.1,213.8 L145.1,207.7 L136.0,201.7 L127.0,195.7" fill="none" stroke="#0c2020" stroke-width="11" stroke-linecap="round" stroke-linejoin="round" opacity="1.0"/></g><g class="f7"><path d="M314.0,260.0 L316.5,252.4 L318.9,244.8 L321.4,237.1 L323.9,229.5 L326.3,221.9 L328.6,214.2 L330.3,206.4 L331.9,198.6 L333.6,190.7 L335.2,182.9 L336.9,175.1" fill="none" stroke="#0d9488" stroke-width="19" stroke-linecap="round" stroke-linejoin="round" opacity="0.95"/><path d="M314.0,260.0 L316.5,252.4 L318.9,244.8 L321.4,237.1 L323.9,229.5 L326.3,221.9 L328.6,214.2 L330.3,206.4 L331.9,198.6 L333.6,190.7 L335.2,182.9 L336.9,175.1" fill="none" stroke="#0c2020" stroke-width="11" stroke-linecap="round" stroke-linejoin="round" opacity="1.0"/><path d="M314.0,260.0 L317.8,258.3 L321.5,256.5 L325.3,254.8 L329.0,253.1 L332.8,251.3 L336.5,249.6 L340.3,247.9 L344.0,246.1 L347.7,244.4 L351.4,242.6 L355.1,240.9" fill="none" stroke="#2dd4bf" stroke-width="19" stroke-linecap="round" stroke-linejoin="round" opacity="0.95"/><path d="M314.0,260.0 L317.8,258.3 L321.5,256.5 L325.3,254.8 L329.0,253.1 L332.8,251.3 L336.5,249.6 L340.3,247.9 L344.0,246.1 L347.7,244.4 L351.4,242.6 L355.1,240.9" fill="none" stroke="#0c2020" stroke-width="11" stroke-linecap="round" stroke-linejoin="round" opacity="1.0"/><path d="M224.0,266.0 L212.9,263.6 L201.9,261.2 L190.8,258.8 L179.7,256.4 L168.7,254.0 L157.6,251.6 L146.4,249.9 L135.1,248.7 L123.9,247.6 L112.6,246.5 L101.4,245.3" fill="none" stroke="#0d9488" stroke-width="19" stroke-linecap="round" stroke-linejoin="round" opacity="0.95"/><path d="M224.0,266.0 L212.9,263.6 L201.9,261.2 L190.8,258.8 L179.7,256.4 L168.7,254.0 L157.6,251.6 L146.4,249.9 L135.1,248.7 L123.9,247.6 L112.6,246.5 L101.4,245.3" fill="none" stroke="#0c2020" stroke-width="11" stroke-linecap="round" stroke-linejoin="round" opacity="1.0"/><path d="M224.0,266.0 L215.7,258.7 L207.4,251.4 L199.1,244.2 L190.8,236.9 L182.5,229.6 L174.3,222.3 L165.6,215.5 L156.8,208.8 L148.1,202.1 L139.4,195.4 L130.6,188.7" fill="none" stroke="#2dd4bf" stroke-width="19" stroke-linecap="round" stroke-linejoin="round" opacity="0.95"/><path d="M224.0,266.0 L215.7,258.7 L207.4,251.4 L199.1,244.2 L190.8,236.9 L182.5,229.6 L174.3,222.3 L165.6,215.5 L156.8,208.8 L148.1,202.1 L139.4,195.4 L130.6,188.7" fill="none" stroke="#0c2020" stroke-width="11" stroke-linecap="round" stroke-linejoin="round" opacity="1.0"/></g><g class="f8"><path d="M314.0,260.0 L316.4,252.1 L318.8,244.2 L321.2,236.3 L323.6,228.4 L326.0,220.5 L328.3,212.6 L329.8,204.4 L331.4,196.3 L332.9,188.2 L334.5,180.1 L336.0,172.0" fill="none" stroke="#0d9488" stroke-width="19" stroke-linecap="round" stroke-linejoin="round" opacity="0.95"/><path d="M314.0,260.0 L316.4,252.1 L318.8,244.2 L321.2,236.3 L323.6,228.4 L326.0,220.5 L328.3,212.6 L329.8,204.4 L331.4,196.3 L332.9,188.2 L334.5,180.1 L336.0,172.0" fill="none" stroke="#0c2020" stroke-width="11" stroke-linecap="round" stroke-linejoin="round" opacity="1.0"/><path d="M314.0,260.0 L317.8,258.5 L321.6,257.1 L325.5,255.6 L329.3,254.2 L333.1,252.7 L336.9,251.3 L340.7,249.8 L344.5,248.4 L348.4,246.9 L352.2,245.5 L356.0,244.0" fill="none" stroke="#2dd4bf" stroke-width="19" stroke-linecap="round" stroke-linejoin="round" opacity="0.95"/><path d="M314.0,260.0 L317.8,258.5 L321.6,257.1 L325.5,255.6 L329.3,254.2 L333.1,252.7 L336.9,251.3 L340.7,249.8 L344.5,248.4 L348.4,246.9 L352.2,245.5 L356.0,244.0" fill="none" stroke="#0c2020" stroke-width="11" stroke-linecap="round" stroke-linejoin="round" opacity="1.0"/><path d="M224.0,266.0 L212.8,263.8 L201.6,261.6 L190.4,259.5 L179.2,257.3 L168.0,255.1 L156.8,252.9 L145.5,251.5 L134.1,250.6 L122.8,249.8 L111.4,248.9 L100.0,248.0" fill="none" stroke="#0d9488" stroke-width="19" stroke-linecap="round" stroke-linejoin="round" opacity="0.95"/><path d="M224.0,266.0 L212.8,263.8 L201.6,261.6 L190.4,259.5 L179.2,257.3 L168.0,255.1 L156.8,252.9 L145.5,251.5 L134.1,250.6 L122.8,249.8 L111.4,248.9 L100.0,248.0" fill="none" stroke="#0c2020" stroke-width="11" stroke-linecap="round" stroke-linejoin="round" opacity="1.0"/><path d="M224.0,266.0 L215.8,258.5 L207.7,251.0 L199.5,243.5 L191.4,236.0 L183.2,228.5 L175.0,221.0 L166.5,213.9 L157.9,206.9 L149.2,200.0 L140.6,193.0 L132.0,186.0" fill="none" stroke="#2dd4bf" stroke-width="19" stroke-linecap="round" stroke-linejoin="round" opacity="0.95"/><path d="M224.0,266.0 L215.8,258.5 L207.7,251.0 L199.5,243.5 L191.4,236.0 L183.2,228.5 L175.0,221.0 L166.5,213.9 L157.9,206.9 L149.2,200.0 L140.6,193.0 L132.0,186.0" fill="none" stroke="#0c2020" stroke-width="11" stroke-linecap="round" stroke-linejoin="round" opacity="1.0"/></g><g class="f9"><path d="M314.0,260.0 L316.5,252.4 L318.9,244.8 L321.4,237.1 L323.9,229.5 L326.3,221.9 L328.6,214.2 L330.3,206.4 L331.9,198.6 L333.6,190.7 L335.2,182.9 L336.9,175.1" fill="none" stroke="#0d9488" stroke-width="19" stroke-linecap="round" stroke-linejoin="round" opacity="0.95"/><path d="M314.0,260.0 L316.5,252.4 L318.9,244.8 L321.4,237.1 L323.9,229.5 L326.3,221.9 L328.6,214.2 L330.3,206.4 L331.9,198.6 L333.6,190.7 L335.2,182.9 L336.9,175.1" fill="none" stroke="#0c2020" stroke-width="11" stroke-linecap="round" stroke-linejoin="round" opacity="1.0"/><path d="M314.0,260.0 L317.8,258.3 L321.5,256.5 L325.3,254.8 L329.0,253.1 L332.8,251.3 L336.5,249.6 L340.3,247.9 L344.0,246.1 L347.7,244.4 L351.4,242.6 L355.1,240.9" fill="none" stroke="#2dd4bf" stroke-width="19" stroke-linecap="round" stroke-linejoin="round" opacity="0.95"/><path d="M314.0,260.0 L317.8,258.3 L321.5,256.5 L325.3,254.8 L329.0,253.1 L332.8,251.3 L336.5,249.6 L340.3,247.9 L344.0,246.1 L347.7,244.4 L351.4,242.6 L355.1,240.9" fill="none" stroke="#0c2020" stroke-width="11" stroke-linecap="round" stroke-linejoin="round" opacity="1.0"/><path d="M224.0,266.0 L212.9,263.6 L201.9,261.2 L190.8,258.8 L179.7,256.4 L168.7,254.0 L157.6,251.6 L146.4,249.9 L135.1,248.7 L123.9,247.6 L112.6,246.5 L101.4,245.3" fill="none" stroke="#0d9488" stroke-width="19" stroke-linecap="round" stroke-linejoin="round" opacity="0.95"/><path d="M224.0,266.0 L212.9,263.6 L201.9,261.2 L190.8,258.8 L179.7,256.4 L168.7,254.0 L157.6,251.6 L146.4,249.9 L135.1,248.7 L123.9,247.6 L112.6,246.5 L101.4,245.3" fill="none" stroke="#0c2020" stroke-width="11" stroke-linecap="round" stroke-linejoin="round" opacity="1.0"/><path d="M224.0,266.0 L215.7,258.7 L207.4,251.4 L199.1,244.2 L190.8,236.9 L182.5,229.6 L174.3,222.3 L165.6,215.5 L156.8,208.8 L148.1,202.1 L139.4,195.4 L130.6,188.7" fill="none" stroke="#2dd4bf" stroke-width="19" stroke-linecap="round" stroke-linejoin="round" opacity="0.95"/><path d="M224.0,266.0 L215.7,258.7 L207.4,251.4 L199.1,244.2 L190.8,236.9 L182.5,229.6 L174.3,222.3 L165.6,215.5 L156.8,208.8 L148.1,202.1 L139.4,195.4 L130.6,188.7" fill="none" stroke="#0c2020" stroke-width="11" stroke-linecap="round" stroke-linejoin="round" opacity="1.0"/></g><g class="f10"><path d="M314.0,260.0 L316.6,253.1 L319.3,246.2 L321.9,239.3 L324.5,232.4 L327.1,225.5 L329.6,218.6 L331.5,211.5 L333.4,204.5 L335.3,197.4 L337.2,190.3 L339.1,183.2" fill="none" stroke="#0d9488" stroke-width="19" stroke-linecap="round" stroke-linejoin="round" opacity="0.95"/><path d="M314.0,260.0 L316.6,253.1 L319.3,246.2 L321.9,239.3 L324.5,232.4 L327.1,225.5 L329.6,218.6 L331.5,211.5 L333.4,204.5 L335.3,197.4 L337.2,190.3 L339.1,183.2" fill="none" stroke="#0c2020" stroke-width="11" stroke-linecap="round" stroke-linejoin="round" opacity="1.0"/><path d="M314.0,260.0 L317.6,257.5 L321.2,255.1 L324.8,252.6 L328.4,250.2 L332.0,247.7 L335.6,245.2 L339.0,242.7 L342.5,240.2 L345.9,237.7 L349.4,235.2 L352.9,232.8" fill="none" stroke="#2dd4bf" stroke-width="19" stroke-linecap="round" stroke-linejoin="round" opacity="0.95"/><path d="M314.0,260.0 L317.6,257.5 L321.2,255.1 L324.8,252.6 L328.4,250.2 L332.0,247.7 L335.6,245.2 L339.0,242.7 L342.5,240.2 L345.9,237.7 L349.4,235.2 L352.9,232.8" fill="none" stroke="#0c2020" stroke-width="11" stroke-linecap="round" stroke-linejoin="round" opacity="1.0"/><path d="M224.0,266.0 L213.3,263.0 L202.6,260.0 L191.8,257.0 L181.1,254.0 L170.4,250.9 L159.7,247.9 L148.8,245.6 L137.8,243.8 L126.9,242.0 L115.9,240.1 L105.0,238.3" fill="none" stroke="#0d9488" stroke-width="19" stroke-linecap="round" stroke-linejoin="round" opacity="0.95"/><path d="M224.0,266.0 L213.3,263.0 L202.6,260.0 L191.8,257.0 L181.1,254.0 L170.4,250.9 L159.7,247.9 L148.8,245.6 L137.8,243.8 L126.9,242.0 L115.9,240.1 L105.0,238.3" fill="none" stroke="#0c2020" stroke-width="11" stroke-linecap="round" stroke-linejoin="round" opacity="1.0"/><path d="M224.0,266.0 L215.4,259.3 L206.7,252.7 L198.1,246.0 L189.5,239.3 L180.8,232.6 L172.2,226.0 L163.2,219.8 L154.1,213.8 L145.1,207.7 L136.0,201.7 L127.0,195.7" fill="none" stroke="#2dd4bf" stroke-width="19" stroke-linecap="round" stroke-linejoin="round" opacity="0.95"/><path d="M224.0,266.0 L215.4,259.3 L206.7,252.7 L198.1,246.0 L189.5,239.3 L180.8,232.6 L172.2,226.0 L163.2,219.8 L154.1,213.8 L145.1,207.7 L136.0,201.7 L127.0,195.7" fill="none" stroke="#0c2020" stroke-width="11" stroke-linecap="round" stroke-linejoin="round" opacity="1.0"/></g><g class="f11"><path d="M314.0,260.0 L316.9,254.1 L319.7,248.3 L322.6,242.4 L325.4,236.6 L328.3,230.7 L331.0,224.8 L333.3,218.8 L335.5,212.8 L337.8,206.8 L340.1,200.8 L342.3,194.8" fill="none" stroke="#0d9488" stroke-width="19" stroke-linecap="round" stroke-linejoin="round" opacity="0.95"/><path d="M314.0,260.0 L316.9,254.1 L319.7,248.3 L322.6,242.4 L325.4,236.6 L328.3,230.7 L331.0,224.8 L333.3,218.8 L335.5,212.8 L337.8,206.8 L340.1,200.8 L342.3,194.8" fill="none" stroke="#0c2020" stroke-width="11" stroke-linecap="round" stroke-linejoin="round" opacity="1.0"/><path d="M314.0,260.0 L317.4,256.5 L320.7,253.0 L324.1,249.5 L327.5,246.0 L330.9,242.5 L334.2,239.0 L337.3,235.5 L340.4,231.9 L343.5,228.3 L346.6,224.8 L349.7,221.2" fill="none" stroke="#2dd4bf" stroke-width="19" stroke-linecap="round" stroke-linejoin="round" opacity="0.95"/><path d="M314.0,260.0 L317.4,256.5 L320.7,253.0 L324.1,249.5 L327.5,246.0 L330.9,242.5 L334.2,239.0 L337.3,235.5 L340.4,231.9 L343.5,228.3 L346.6,224.8 L349.7,221.2" fill="none" stroke="#0c2020" stroke-width="11" stroke-linecap="round" stroke-linejoin="round" opacity="1.0"/><path d="M224.0,266.0 L213.8,262.1 L203.5,258.3 L193.3,254.4 L183.0,250.5 L172.8,246.7 L162.6,242.8 L152.1,239.6 L141.6,236.8 L131.1,234.0 L120.6,231.2 L110.1,228.4" fill="none" stroke="#0d9488" stroke-width="19" stroke-linecap="round" stroke-linejoin="round" opacity="0.95"/><path d="M224.0,266.0 L213.8,262.1 L203.5,258.3 L193.3,254.4 L183.0,250.5 L172.8,246.7 L162.6,242.8 L152.1,239.6 L141.6,236.8 L131.1,234.0 L120.6,231.2 L110.1,228.4" fill="none" stroke="#0c2020" stroke-width="11" stroke-linecap="round" stroke-linejoin="round" opacity="1.0"/><path d="M224.0,266.0 L214.9,260.2 L205.8,254.4 L196.6,248.5 L187.5,242.7 L178.4,236.9 L169.3,231.1 L159.8,225.8 L150.3,220.8 L140.9,215.7 L131.4,210.7 L121.9,205.6" fill="none" stroke="#2dd4bf" stroke-width="19" stroke-linecap="round" stroke-linejoin="round" opacity="0.95"/><path d="M224.0,266.0 L214.9,260.2 L205.8,254.4 L196.6,248.5 L187.5,242.7 L178.4,236.9 L169.3,231.1 L159.8,225.8 L150.3,220.8 L140.9,215.7 L131.4,210.7 L121.9,205.6" fill="none" stroke="#0c2020" stroke-width="11" stroke-linecap="round" stroke-linejoin="round" opacity="1.0"/></g><g class="f12"><path d="M314.0,260.0 L317.1,255.3 L320.2,250.6 L323.3,246.0 L326.4,241.3 L329.6,236.6 L332.6,231.9 L335.3,227.1 L338.0,222.4 L340.6,217.6 L343.3,212.8 L346.0,208.0" fill="none" stroke="#0d9488" stroke-width="19" stroke-linecap="round" stroke-linejoin="round" opacity="0.95"/><path d="M314.0,260.0 L317.1,255.3 L320.2,250.6 L323.3,246.0 L326.4,241.3 L329.6,236.6 L332.6,231.9 L335.3,227.1 L338.0,222.4 L340.6,217.6 L343.3,212.8 L346.0,208.0" fill="none" stroke="#0c2020" stroke-width="11" stroke-linecap="round" stroke-linejoin="round" opacity="1.0"/><path d="M314.0,260.0 L317.1,255.3 L320.2,250.6 L323.3,246.0 L326.4,241.3 L329.6,236.6 L332.6,231.9 L335.3,227.1 L338.0,222.4 L340.6,217.6 L343.3,212.8 L346.0,208.0" fill="none" stroke="#2dd4bf" stroke-width="19" stroke-linecap="round" stroke-linejoin="round" opacity="0.95"/><path d="M314.0,260.0 L317.1,255.3 L320.2,250.6 L323.3,246.0 L326.4,241.3 L329.6,236.6 L332.6,231.9 L335.3,227.1 L338.0,222.4 L340.6,217.6 L343.3,212.8 L346.0,208.0" fill="none" stroke="#0c2020" stroke-width="11" stroke-linecap="round" stroke-linejoin="round" opacity="1.0"/><path d="M224.0,266.0 L214.3,261.2 L204.6,256.3 L195.0,251.5 L185.3,246.6 L175.6,241.8 L165.9,236.9 L156.0,232.7 L146.0,228.8 L136.0,224.9 L126.0,220.9 L116.0,217.0" fill="none" stroke="#0d9488" stroke-width="19" stroke-linecap="round" stroke-linejoin="round" opacity="0.95"/><path d="M224.0,266.0 L214.3,261.2 L204.6,256.3 L195.0,251.5 L185.3,246.6 L175.6,241.8 L165.9,236.9 L156.0,232.7 L146.0,228.8 L136.0,224.9 L126.0,220.9 L116.0,217.0" fill="none" stroke="#0c2020" stroke-width="11" stroke-linecap="round" stroke-linejoin="round" opacity="1.0"/><path d="M224.0,266.0 L214.3,261.2 L204.6,256.3 L195.0,251.5 L185.3,246.6 L175.6,241.8 L165.9,236.9 L156.0,232.7 L146.0,228.8 L136.0,224.9 L126.0,220.9 L116.0,217.0" fill="none" stroke="#2dd4bf" stroke-width="19" stroke-linecap="round" stroke-linejoin="round" opacity="0.95"/><path d="M224.0,266.0 L214.3,261.2 L204.6,256.3 L195.0,251.5 L185.3,246.6 L175.6,241.8 L165.9,236.9 L156.0,232.7 L146.0,228.8 L136.0,224.9 L126.0,220.9 L116.0,217.0" fill="none" stroke="#0c2020" stroke-width="11" stroke-linecap="round" stroke-linejoin="round" opacity="1.0"/></g><g class="f13"><path d="M314.0,260.0 L317.4,256.5 L320.7,253.0 L324.1,249.5 L327.5,246.0 L330.9,242.5 L334.2,239.0 L337.3,235.5 L340.4,231.9 L343.5,228.3 L346.6,224.8 L349.7,221.2" fill="none" stroke="#0d9488" stroke-width="19" stroke-linecap="round" stroke-linejoin="round" opacity="0.95"/><path d="M314.0,260.0 L317.4,256.5 L320.7,253.0 L324.1,249.5 L327.5,246.0 L330.9,242.5 L334.2,239.0 L337.3,235.5 L340.4,231.9 L343.5,228.3 L346.6,224.8 L349.7,221.2" fill="none" stroke="#0c2020" stroke-width="11" stroke-linecap="round" stroke-linejoin="round" opacity="1.0"/><path d="M314.0,260.0 L316.9,254.1 L319.7,248.3 L322.6,242.4 L325.4,236.6 L328.3,230.7 L331.0,224.8 L333.3,218.8 L335.5,212.8 L337.8,206.8 L340.1,200.8 L342.3,194.8" fill="none" stroke="#2dd4bf" stroke-width="19" stroke-linecap="round" stroke-linejoin="round" opacity="0.95"/><path d="M314.0,260.0 L316.9,254.1 L319.7,248.3 L322.6,242.4 L325.4,236.6 L328.3,230.7 L331.0,224.8 L333.3,218.8 L335.5,212.8 L337.8,206.8 L340.1,200.8 L342.3,194.8" fill="none" stroke="#0c2020" stroke-width="11" stroke-linecap="round" stroke-linejoin="round" opacity="1.0"/><path d="M224.0,266.0 L214.9,260.2 L205.8,254.4 L196.6,248.5 L187.5,242.7 L178.4,236.9 L169.3,231.1 L159.8,225.8 L150.3,220.8 L140.9,215.7 L131.4,210.7 L121.9,205.6" fill="none" stroke="#0d9488" stroke-width="19" stroke-linecap="round" stroke-linejoin="round" opacity="0.95"/><path d="M224.0,266.0 L214.9,260.2 L205.8,254.4 L196.6,248.5 L187.5,242.7 L178.4,236.9 L169.3,231.1 L159.8,225.8 L150.3,220.8 L140.9,215.7 L131.4,210.7 L121.9,205.6" fill="none" stroke="#0c2020" stroke-width="11" stroke-linecap="round" stroke-linejoin="round" opacity="1.0"/><path d="M224.0,266.0 L213.8,262.1 L203.5,258.3 L193.3,254.4 L183.0,250.5 L172.8,246.7 L162.6,242.8 L152.1,239.6 L141.6,236.8 L131.1,234.0 L120.6,231.2 L110.1,228.4" fill="none" stroke="#2dd4bf" stroke-width="19" stroke-linecap="round" stroke-linejoin="round" opacity="0.95"/><path d="M224.0,266.0 L213.8,262.1 L203.5,258.3 L193.3,254.4 L183.0,250.5 L172.8,246.7 L162.6,242.8 L152.1,239.6 L141.6,236.8 L131.1,234.0 L120.6,231.2 L110.1,228.4" fill="none" stroke="#0c2020" stroke-width="11" stroke-linecap="round" stroke-linejoin="round" opacity="1.0"/></g><g class="f14"><path d="M314.0,260.0 L317.6,257.5 L321.2,255.1 L324.8,252.6 L328.4,250.2 L332.0,247.7 L335.6,245.2 L339.0,242.7 L342.5,240.2 L345.9,237.7 L349.4,235.2 L352.9,232.8" fill="none" stroke="#0d9488" stroke-width="19" stroke-linecap="round" stroke-linejoin="round" opacity="0.95"/><path d="M314.0,260.0 L317.6,257.5 L321.2,255.1 L324.8,252.6 L328.4,250.2 L332.0,247.7 L335.6,245.2 L339.0,242.7 L342.5,240.2 L345.9,237.7 L349.4,235.2 L352.9,232.8" fill="none" stroke="#0c2020" stroke-width="11" stroke-linecap="round" stroke-linejoin="round" opacity="1.0"/><path d="M314.0,260.0 L316.6,253.1 L319.3,246.2 L321.9,239.3 L324.5,232.4 L327.1,225.5 L329.6,218.6 L331.5,211.5 L333.4,204.5 L335.3,197.4 L337.2,190.3 L339.1,183.2" fill="none" stroke="#2dd4bf" stroke-width="19" stroke-linecap="round" stroke-linejoin="round" opacity="0.95"/><path d="M314.0,260.0 L316.6,253.1 L319.3,246.2 L321.9,239.3 L324.5,232.4 L327.1,225.5 L329.6,218.6 L331.5,211.5 L333.4,204.5 L335.3,197.4 L337.2,190.3 L339.1,183.2" fill="none" stroke="#0c2020" stroke-width="11" stroke-linecap="round" stroke-linejoin="round" opacity="1.0"/><path d="M224.0,266.0 L215.4,259.3 L206.7,252.7 L198.1,246.0 L189.5,239.3 L180.8,232.6 L172.2,226.0 L163.2,219.8 L154.1,213.8 L145.1,207.7 L136.0,201.7 L127.0,195.7" fill="none" stroke="#0d9488" stroke-width="19" stroke-linecap="round" stroke-linejoin="round" opacity="0.95"/><path d="M224.0,266.0 L215.4,259.3 L206.7,252.7 L198.1,246.0 L189.5,239.3 L180.8,232.6 L172.2,226.0 L163.2,219.8 L154.1,213.8 L145.1,207.7 L136.0,201.7 L127.0,195.7" fill="none" stroke="#0c2020" stroke-width="11" stroke-linecap="round" stroke-linejoin="round" opacity="1.0"/><path d="M224.0,266.0 L213.3,263.0 L202.6,260.0 L191.8,257.0 L181.1,254.0 L170.4,250.9 L159.7,247.9 L148.8,245.6 L137.8,243.8 L126.9,242.0 L115.9,240.1 L105.0,238.3" fill="none" stroke="#2dd4bf" stroke-width="19" stroke-linecap="round" stroke-linejoin="round" opacity="0.95"/><path d="M224.0,266.0 L213.3,263.0 L202.6,260.0 L191.8,257.0 L181.1,254.0 L170.4,250.9 L159.7,247.9 L148.8,245.6 L137.8,243.8 L126.9,242.0 L115.9,240.1 L105.0,238.3" fill="none" stroke="#0c2020" stroke-width="11" stroke-linecap="round" stroke-linejoin="round" opacity="1.0"/></g><g class="f15"><path d="M314.0,260.0 L317.8,258.3 L321.5,256.5 L325.3,254.8 L329.0,253.1 L332.8,251.3 L336.5,249.6 L340.3,247.9 L344.0,246.1 L347.7,244.4 L351.4,242.6 L355.1,240.9" fill="none" stroke="#0d9488" stroke-width="19" stroke-linecap="round" stroke-linejoin="round" opacity="0.95"/><path d="M314.0,260.0 L317.8,258.3 L321.5,256.5 L325.3,254.8 L329.0,253.1 L332.8,251.3 L336.5,249.6 L340.3,247.9 L344.0,246.1 L347.7,244.4 L351.4,242.6 L355.1,240.9" fill="none" stroke="#0c2020" stroke-width="11" stroke-linecap="round" stroke-linejoin="round" opacity="1.0"/><path d="M314.0,260.0 L316.5,252.4 L318.9,244.8 L321.4,237.1 L323.9,229.5 L326.3,221.9 L328.6,214.2 L330.3,206.4 L331.9,198.6 L333.6,190.7 L335.2,182.9 L336.9,175.1" fill="none" stroke="#2dd4bf" stroke-width="19" stroke-linecap="round" stroke-linejoin="round" opacity="0.95"/><path d="M314.0,260.0 L316.5,252.4 L318.9,244.8 L321.4,237.1 L323.9,229.5 L326.3,221.9 L328.6,214.2 L330.3,206.4 L331.9,198.6 L333.6,190.7 L335.2,182.9 L336.9,175.1" fill="none" stroke="#0c2020" stroke-width="11" stroke-linecap="round" stroke-linejoin="round" opacity="1.0"/><path d="M224.0,266.0 L215.7,258.7 L207.4,251.4 L199.1,244.2 L190.8,236.9 L182.5,229.6 L174.3,222.3 L165.6,215.5 L156.8,208.8 L148.1,202.1 L139.4,195.4 L130.6,188.7" fill="none" stroke="#0d9488" stroke-width="19" stroke-linecap="round" stroke-linejoin="round" opacity="0.95"/><path d="M224.0,266.0 L215.7,258.7 L207.4,251.4 L199.1,244.2 L190.8,236.9 L182.5,229.6 L174.3,222.3 L165.6,215.5 L156.8,208.8 L148.1,202.1 L139.4,195.4 L130.6,188.7" fill="none" stroke="#0c2020" stroke-width="11" stroke-linecap="round" stroke-linejoin="round" opacity="1.0"/><path d="M224.0,266.0 L212.9,263.6 L201.9,261.2 L190.8,258.8 L179.7,256.4 L168.7,254.0 L157.6,251.6 L146.4,249.9 L135.1,248.7 L123.9,247.6 L112.6,246.5 L101.4,245.3" fill="none" stroke="#2dd4bf" stroke-width="19" stroke-linecap="round" stroke-linejoin="round" opacity="0.95"/><path d="M224.0,266.0 L212.9,263.6 L201.9,261.2 L190.8,258.8 L179.7,256.4 L168.7,254.0 L157.6,251.6 L146.4,249.9 L135.1,248.7 L123.9,247.6 L112.6,246.5 L101.4,245.3" fill="none" stroke="#0c2020" stroke-width="11" stroke-linecap="round" stroke-linejoin="round" opacity="1.0"/></g></svg>
