<svg xmlns="http://www.w3.org/2000/svg" viewBox="0 0 480 320"><style>@keyframes k0{0%{opacity:1}11.111%{opacity:0}100%{opacity:0}}.f0{opacity:0;animation:k0 2.4s steps(1,end) infinite}@keyframes k1{0%{opacity:0}11.111%{opacity:1}16.667%{opacity:0}100%{opacity:0}}.f1{opacity:0;animation:k1 2.4s steps(1,end) infinite}@keyframes k2{0%{opacity:0}16.667%{opacity:1}22.222%{opacity:0}100%{opacity:0}}.f2{opacity:0;animation:k2 2.4s steps(1,end) infinite}@keyframes k3{0%{opacity:0}22.222%{opacity:1}27.778%{opacity:0}100%{opacity:0}}.f3{opacity:0;animation:k3 2.4s steps(1,end) infinite}@keyframes k4{0%{opacity:0}27.778%{opacity:1}33.333%{opacity:0}100%{opacity:0}}.f4{opacity:0;animation:k4 2.4s steps(1,end) infinite}@keyframes k5{0%{opacity:0}33.333%{opacity:1}38.889%{opacity:0}100%{opacity:0}}.f5{opacity:0;animation:k5 2.4s steps(1,end) infinite}@keyframes k6{0%{opacity:0}38.889%{opacity:1}44.444%{opacity:0}100%{opacity:0}}.f6{opacity:0;animation:k6 2.4s steps(1,end) infinite}@keyframes k7{0%{opacity:0}44.444%{opacity:1}50.000%{opacity:0}100%{opacity:0}}.f7{opacity:0;animation:k7 2.4s steps(1,end) infinite}@keyframes k8{0%{opacity:0}50.000%{opacity:1}61.111%{opacity:0}100%{opacity:0}}.f8{opacity:0;animation:k8 2.4s steps(1,end) infinite}@keyframes k9{0%{opacity:0}61.111%{opacity:1}66.667%{opacity:0}100%{opacity:0}}.f9{opacity:0;animation:k9 2.4s steps(1,end) infinite}@keyframes k10{0%{opacity:0}66.667%{opacity:1}72.222%{opacity:0}100%{opacity:0}}.f10{opacity:0;animation:k10 2.4s steps(1,end) infinite}@keyframes k11{0%{opacity:0}72.222%{opacity:1}77.778%{opacity:0}100%{opacity:0}}.f11{opacity:0;animation:k11 2.4s steps(1,end) infinite}@keyframes k12{0%{opacity:0}77.778%{opacity:1}83.333%{opacity:0}100%{opacity:0}}.f12{opacity:0;animation:k12 2.4s steps(1,end) infinite}@keyframes k13{0%{opacity:0}83.333%{opacity:1}88.889%{opacity:0}100%{opacity:0}}.f13{opacity:0;animation:k13 2.4s steps(1,end) infinite}@keyframes k14{0%{opacity:0}88.889%{opacity:1}94.444%{opacity:0}100%{opacity:0}}.f14{opacity:0;animation:k14 2.4s steps(1,end) infinite}@keyframes k15{0%{opacity:0}94.444%{opacity:1}100%{opacity:1}}.f15{opacity:0;animation:k15 2.4s steps(1,end) infinite}</style><path d="M40.0,292.0 L440.0,292.0" fill="none" stroke="#1f3333" stroke-width="6" stroke-linecap="round" stroke-linejoin="round" opacity="1.0"/><path d="M240.0,120.0 L274.0,158.0 L292.0,202.0" fill="none" stroke="#f43f5e" stroke-width="21" stroke-linecap="round" stroke-linejoin="round" opacity="0.95"/><path d="M240.0,120.0 L274.0,158.0 L292.0,202.0" fill="none" stroke="#0c2020" stroke-width="13" stroke-linecap="round" stroke-linejoin="round" opacity="1.0"/><path d="M240.0,120.0 L240.0,194.0" fill="none" stroke="#2dd4bf" stroke-width="25" stroke-linecap="round" stroke-linejoin="round" opacity="0.95"/><path d="M240.0,120.0 L240.0,194.0" fill="none" stroke="#0c2020" stroke-width="17" stroke-linecap="round" stroke-linejoin="round" opacity="1.0"/><circle cx="244.0" cy="92.0" r="19.0" fill="#2dd4bf" stroke="none" stroke-width="0" opacity="0.95"/><circle cx="244.0" cy="92.0" r="15.0" fill="#0c2020" stroke="none" stroke-width="6.3" opacity="1.0"/><path d="M234.7,89.0 L253.3,89.0" fill="none" stroke="#a7f3ee" stroke-width="5" stroke-linecap="round" stroke-linejoin="round" opacity="1.0"/><path d="M279.0,212.0 L305.0,212.0" fill="none" stroke="#fbbf24" stroke-width="6" stroke-linecap="round" stroke-linejoin="round" opacity="1.0"/><circle cx="279.0" cy="212.0" r="6.0" fill="#fbbf24" stroke="none" stroke-width="6.3" opacity="1.0"/><circle cx="305.0" cy="212.0" r="6.0" fill="#fbbf24" stroke="none" stroke-width="6.3" opacity="1.0"/><g class="f0"><path d="M240.0,194.0 L236.2,202.7 L232.5,211.3 L228.7,220.0 L224.9,228.7 L221.1,237.4 L218.3,246.3 L215.8,255.5 L213.4,264.6 L210.9,273.7 L208.5,282.9 L206.0,292.0" fill="none" stroke="#0d9488" stroke-width="21" stroke-linecap="round" stroke-linejoin="round" opacity="0.95"/><path d="M240.0,194.0 L236.2,202.7 L232.5,211.3 L228.7,220.0 L224.9,228.7 L221.1,237.4 L218.3,246.3 L215.8,255.5 L213.4,264.6 L210.9,273.7 L208.5,282.9 L206.0,292.0" fill="none" stroke="#0c2020" stroke-width="13" stroke-linecap="round" stroke-linejoin="round" opacity="1.0"/><path d="M240.0,194.0 L244.1,202.6 L248.2,211.1 L252.3,219.7 L256.4,228.2 L260.5,236.8 L263.3,245.8 L265.5,255.0 L267.6,264.3 L269.7,273.5 L271.9,282.8 L274.0,292.0" fill="none" stroke="#2dd4bf" stroke-width="21" stroke-linecap="round" stroke-linejoin="round" opacity="0.95"/><path d="M240.0,194.0 L244.1,202.6 L248.2,211.1 L252.3,219.7 L256.4,228.2 L260.5,236.8 L263.3,245.8 L265.5,255.0 L267.6,264.3 L269.7,273.5 L271.9,282.8 L274.0,292.0" fill="none" stroke="#0c2020" stroke-width="13" stroke-linecap="round" stroke-linejoin="round" opacity="1.0"/></g><g class="f1"><path d="M240.0,194.0 L236.6,202.7 L233.1,211.3 L229.7,220.0 L226.2,228.7 L222.8,237.4 L220.2,246.3 L217.9,255.5 L215.7,264.6 L213.4,273.7 L211.2,282.9 L208.9,292.0" fill="none" stroke="#0d9488" stroke-width="21" stroke-linecap="round" stroke-linejoin="round" opacity="0.95"/><path d="M240.0,194.0 L236.6,202.7 L233.1,211.3 L229.7,220.0 L226.2,228.7 L222.8,237.4 L220.2,246.3 L217.9,255.5 L215.7,264.6 L213.4,273.7 L211.2,282.9 L208.9,292.0" fill="none" stroke="#0c2020" stroke-width="13" stroke-linecap="round" stroke-linejoin="round" opacity="1.0"/><path d="M240.0,194.0 L243.7,202.6 L247.5,211.1 L251.2,219.7 L255.0,228.2 L258.7,236.8 L261.3,245.8 L263.3,255.0 L265.2,264.3 L267.2,273.5 L269.1,282.8 L271.1,292.0" fill="none" stroke="#2dd4bf" stroke-width="21" stroke-linecap="round" stroke-linejoin="round" opacity="0.95"/><path d="M240.0,194.0 L243.7,202.6 L247.5,211.1 L251.2,219.7 L255.0,228.2 L258.7,236.8 L261.3,245.8 L263.3,255.0 L265.2,264.3 L267.2,273.5 L269.1,282.8 L271.1,292.0" fill="none" stroke="#0c2020" stroke-width="13" stroke-linecap="round" stroke-linejoin="round" opacity="1.0"/></g><g class="f2"><path d="M240.0,194.0 L237.4,202.7 L234.8,211.3 L232.2,220.0 L229.6,228.7 L227.0,237.4 L225.1,246.3 L223.4,255.5 L221.7,264.6 L220.0,273.7 L218.3,282.9 L216.6,292.0" fill="none" stroke="#0d9488" stroke-width="21" stroke-linecap="round" stroke-linejoin="round" opacity="0.95"/><path d="M240.0,194.0 L237.4,202.7 L234.8,211.3 L232.2,220.0 L229.6,228.7 L227.0,237.4 L225.1,246.3 L223.4,255.5 L221.7,264.6 L220.0,273.7 L218.3,282.9 L216.6,292.0" fill="none" stroke="#0c2020" stroke-width="13" stroke-linecap="round" stroke-linejoin="round" opacity="1.0"/><path d="M240.0,194.0 L242.8,202.6 L245.6,211.1 L248.4,219.7 L251.3,228.2 L254.1,236.8 L256.0,245.8 L257.5,255.0 L259.0,264.3 L260.4,273.5 L261.9,282.8 L263.4,292.0" fill="none" stroke="#2dd4bf" stroke-width="21" stroke-linecap="round" stroke-linejoin="round" opacity="0.95"/><path d="M240.0,194.0 L242.8,202.6 L245.6,211.1 L248.4,219.7 L251.3,228.2 L254.1,236.8 L256.0,245.8 L257.5,255.0 L259.0,264.3 L260.4,273.5 L261.9,282.8 L263.4,292.0" fill="none" stroke="#0c2020" stroke-width="13" stroke-linecap="round" stroke-linejoin="round" opacity="1.0"/></g><g class="f3"><path d="M240.0,194.0 L238.6,202.7 L237.2,211.3 L235.8,220.0 L234.5,228.7 L233.1,237.4 L232.0,246.3 L231.1,255.5 L230.2,264.6 L229.3,273.7 L228.4,282.9 L227.5,292.0" fill="none" stroke="#0d9488" stroke-width="21" stroke-linecap="round" stroke-linejoin="round" opacity="0.95"/><path d="M240.0,194.0 L238.6,202.7 L237.2,211.3 L235.8,220.0 L234.5,228.7 L233.1,237.4 L232.0,246.3 L231.1,255.5 L230.2,264.6 L229.3,273.7 L228.4,282.9 L227.5,292.0" fill="none" stroke="#0c2020" stroke-width="13" stroke-linecap="round" stroke-linejoin="round" opacity="1.0"/><path d="M240.0,194.0 L241.5,202.6 L243.0,211.1 L244.5,219.7 L246.0,228.2 L247.5,236.8 L248.6,245.8 L249.4,255.0 L250.1,264.3 L250.9,273.5 L251.7,282.8 L252.5,292.0" fill="none" stroke="#2dd4bf" stroke-width="21" stroke-linecap="round" stroke-linejoin="round" opacity="0.95"/><path d="M240.0,194.0 L241.5,202.6 L243.0,211.1 L244.5,219.7 L246.0,228.2 L247.5,236.8 L248.6,245.8 L249.4,255.0 L250.1,264.3 L250.9,273.5 L251.7,282.8 L252.5,292.0" fill="none" stroke="#0c2020" stroke-width="13" stroke-linecap="round" stroke-linejoin="round" opacity="1.0"/></g><g class="f4"><path d="M240.0,194.0 L240.0,202.7 L240.0,211.3 L240.0,220.0 L240.0,228.7 L240.0,237.4 L240.0,246.3 L240.0,255.5 L240.0,264.6 L240.0,273.7 L240.0,282.9 L240.0,292.0" fill="none" stroke="#0d9488" stroke-width="21" stroke-linecap="round" stroke-linejoin="round" opacity="0.95"/><path d="M240.0,194.0 L240.0,202.7 L240.0,211.3 L240.0,220.0 L240.0,228.7 L240.0,237.4 L240.0,246.3 L240.0,255.5 L240.0,264.6 L240.0,273.7 L240.0,282.9 L240.0,292.0" fill="none" stroke="#0c2020" stroke-width="13" stroke-linecap="round" stroke-linejoin="round" opacity="1.0"/><path d="M240.0,194.0 L240.0,202.6 L240.0,211.1 L240.0,219.7 L240.0,228.2 L240.0,236.8 L240.0,245.8 L240.0,255.0 L240.0,264.3 L240.0,273.5 L240.0,282.8 L240.0,292.0" fill="none" stroke="#2dd4bf" stroke-width="21" stroke-linecap="round" stroke-linejoin="round" opacity="0.95"/><path d="M240.0,194.0 L240.0,202.6 L240.0,211.1 L240.0,219.7 L240.0,228.2 L240.0,236.8 L240.0,245.8 L240.0,255.0 L240.0,264.3 L240.0,273.5 L240.0,282.8 L240.0,292.0" fill="none" stroke="#0c2020" stroke-width="13" stroke-linecap="round" stroke-linejoin="round" opacity="1.0"/></g><g class="f5"><path d="M240.0,194.0 L241.4,202.7 L242.8,211.3 L244.2,220.0 L245.5,228.7 L246.9,237.4 L248.0,246.3 L248.9,255.5 L249.8,264.6 L250.7,273.7 L251.6,282.9 L252.5,292.0" fill="none" stroke="#0d9488" stroke-width="21" stroke-linecap="round" stroke-linejoin="round" opacity="0.95"/><path d="M240.0,194.0 L241.4,202.7 L242.8,211.3 L244.2,220.0 L245.5,228.7 L246.9,237.4 L248.0,246.3 L248.9,255.5 L249.8,264.6 L250.7,273.7 L251.6,282.9 L252.5,292.0" fill="none" stroke="#0c2020" stroke-width="13" stroke-linecap="round" stroke-linejoin="round" opacity="1.0"/><path d="M240.0,194.0 L238.5,202.6 L237.0,211.1 L235.5,219.7 L234.0,228.2 L232.5,236.8 L231.4,245.8 L230.6,255.0 L229.9,264.3 L229.1,273.5 L228.3,282.8 L227.5,292.0" fill="none" stroke="#2dd4bf" stroke-width="21" stroke-linecap="round" stroke-linejoin="round" opacity="0.95"/><path d="M240.0,194.0 L238.5,202.6 L237.0,211.1 L235.5,219.7 L234.0,228.2 L232.5,236.8 L231.4,245.8 L230.6,255.0 L229.9,264.3 L229.1,273.5 L228.3,282.8 L227.5,292.0" fill="none" stroke="#0c2020" stroke-width="13" stroke-linecap="round" stroke-linejoin="round" opacity="1.0"/></g><g class="f6"><path d="M240.0,194.0 L242.6,202.7 L245.2,211.3 L247.8,220.0 L250.4,228.7 L253.0,237.4 L254.9,246.3 L256.6,255.5 L258.3,264.6 L260.0,273.7 L261.7,282.9 L263.4,292.0" fill="none" stroke="#0d9488" stroke-width="21" stroke-linecap="round" stroke-linejoin="round" opacity="0.95"/><path d="M240.0,194.0 L242.6,202.7 L245.2,211.3 L247.8,220.0 L250.4,228.7 L253.0,237.4 L254.9,246.3 L256.6,255.5 L258.3,264.6 L260.0,273.7 L261.7,282.9 L263.4,292.0" fill="none" stroke="#0c2020" stroke-width="13" stroke-linecap="round" stroke-linejoin="round" opacity="1.0"/><path d="M240.0,194.0 L237.2,202.6 L234.4,211.1 L231.6,219.7 L228.7,228.2 L225.9,236.8 L224.0,245.8 L222.5,255.0 L221.0,264.3 L219.6,273.5 L218.1,282.8 L216.6,292.0" fill="none" stroke="#2dd4bf" stroke-width="21" stroke-linecap="round" stroke-linejoin="round" opacity="0.95"/><path d="M240.0,194.0 L237.2,202.6 L234.4,211.1 L231.6,219.7 L228.7,228.2 L225.9,236.8 L224.0,245.8 L222.5,255.0 L221.0,264.3 L219.6,273.5 L218.1,282.8 L216.6,292.0" fill="none" stroke="#0c2020" stroke-width="13" stroke-linecap="round" stroke-linejoin="round" opacity="1.0"/></g><g class="f7"><path d="M240.0,194.0 L243.4,202.7 L246.9,211.3 L250.3,220.0 L253.8,228.7 L257.2,237.4 L259.8,246.3 L262.1,255.5 L264.3,264.6 L266.6,273.7 L268.8,282.9 L271.1,292.0" fill="none" stroke="#0d9488" stroke-width="21" stroke-linecap="round" stroke-linejoin="round" opacity="0.95"/><path d="M240.0,194.0 L243.4,202.7 L246.9,211.3 L250.3,220.0 L253.8,228.7 L257.2,237.4 L259.8,246.3 L262.1,255.5 L264.3,264.6 L266.6,273.7 L268.8,282.9 L271.1,292.0" fill="none" stroke="#0c2020" stroke-width="13" stroke-linecap="round" stroke-linejoin="round" opacity="1.0"/><path d="M240.0,194.0 L236.3,202.6 L232.5,211.1 L228.8,219.7 L225.0,228.2 L221.3,236.8 L218.7,245.8 L216.7,255.0 L214.8,264.3 L212.8,273.5 L210.9,282.8 L208.9,292.0" fill="none" stroke="#2dd4bf" stroke-width="21" stroke-linecap="round" stroke-linejoin="round" opacity="0.95"/><path d="M240.0,194.0 L236.3,202.6 L232.5,211.1 L228.8,219.7 L225.0,228.2 L221.3,236.8 L218.7,245.8 L216.7,255.0 L214.8,264.3 L212.8,273.5 L210.9,282.8 L208.9,292.0" fill="none" stroke="#0c2020" stroke-width="13" stroke-linecap="round" stroke-linejoin="round" opacity="1.0"/></g><g class="f8"><path d="M240.0,194.0 L243.8,202.7 L247.5,211.3 L251.3,220.0 L255.1,228.7 L258.9,237.4 L261.7,246.3 L264.2,255.5 L266.6,264.6 L269.1,273.7 L271.5,282.9 L274.0,292.0" fill="none" stroke="#0d9488" stroke-width="21" stroke-linecap="round" stroke-linejoin="round" opacity="0.95"/><path d="M240.0,194.0 L243.8,202.7 L247.5,211.3 L251.3,220.0 L255.1,228.7 L258.9,237.4 L261.7,246.3 L264.2,255.5 L266.6,264.6 L269.1,273.7 L271.5,282.9 L274.0,292.0" fill="none" stroke="#0c2020" stroke-width="13" stroke-linecap="round" stroke-linejoin="round" opacity="1.0"/><path d="M240.0,194.0 L235.9,202.6 L231.8,211.1 L227.7,219.7 L223.6,228.2 L219.5,236.8 L216.7,245.8 L214.5,255.0 L212.4,264.3 L210.3,273.5 L208.1,282.8 L206.0,292.0" fill="none" stroke="#2dd4bf" stroke-width="21" stroke-linecap="round" stroke-linejoin="round" opacity="0.95"/><path d="M240.0,194.0 L235.9,202.6 L231.8,211.1 L227.7,219.7 L223.6,228.2 L219.5,236.8 L216.7,245.8 L214.5,255.0 L212.4,264.3 L210.3,273.5 L208.1,282.8 L206.0,292.0" fill="none" stroke="#0c2020" stroke-width="13" stroke-linecap="round" stroke-linejoin="round" opacity="1.0"/></g><g class="f9"><path d="M240.0,194.0 L243.4,202.7 L246.9,211.3 L250.3,220.0 L253.8,228.7 L257.2,237.4 L259.8,246.3 L262.1,255.5 L264.3,264.6 L266.6,273.7 L268.8,282.9 L271.1,292.0" fill="none" stroke="#0d9488" stroke-width="21" stroke-linecap="round" stroke-linejoin="round" opacity="0.95"/><path d="M240.0,194.0 L243.4,202.7 L246.9,211.3 L250.3,220.0 L253.8,228.7 L257.2,237.4 L259.8,246.3 L262.1,255.5 L264.3,264.6 L266.6,273.7 L268.8,282.9 L271.1,292.0" fill="none" stroke="#0c2020" stroke-width="13" stroke-linecap="round" stroke-linejoin="round" opacity="1.0"/><path d="M240.0,194.0 L236.3,202.6 L232.5,211.1 L228.8,219.7 L225.0,228.2 L221.3,236.8 L218.7,245.8 L216.7,255.0 L214.8,264.3 L212.8,273.5 L210.9,282.8 L208.9,292.0" fill="none" stroke="#2dd4bf" stroke-width="21" stroke-linecap="round" stroke-linejoin="round" opacity="0.95"/><path d="M240.0,194.0 L236.3,202.6 L232.5,211.1 L228.8,219.7 L225.0,228.2 L221.3,236.8 L218.7,245.8 L216.7,255.0 L214.8,264.3 L212.8,273.5 L210.9,282.8 L208.9,292.0" fill="none" stroke="#0c2020" stroke-width="13" stroke-linecap="round" stroke-linejoin="round" opacity="1.0"/></g><g class="f10"><path d="M240.0,194.0 L242.6,202.7 L245.2,211.3 L247.8,220.0 L250.4,228.7 L253.0,237.4 L254.9,246.3 L256.6,255.5 L258.3,264.6 L260.0,273.7 L261.7,282.9 L263.4,292.0" fill="none" stroke="#0d9488" stroke-width="21" stroke-linecap="round" stroke-linejoin="round" opacity="0.95"/><path d="M240.0,194.0 L242.6,202.7 L245.2,211.3 L247.8,220.0 L250.4,228.7 L253.0,237.4 L254.9,246.3 L256.6,255.5 L258.3,264.6 L260.0,273.7 L261.7,282.9 L263.4,292.0" fill="none" stroke="#0c2020" stroke-width="13" stroke-linecap="round" stroke-linejoin="round" opacity="1.0"/><path d="M240.0,194.0 L237.2,202.6 L234.4,211.1 L231.6,219.7 L228.7,228.2 L225.9,236.8 L224.0,245.8 L222.5,255.0 L221.0,264.3 L219.6,273.5 L218.1,282.8 L216.6,292.0" fill="none" stroke="#2dd4bf" stroke-width="21" stroke-linecap="round" stroke-linejoin="round" opacity="0.95"/><path d="M240.0,194.0 L237.2,202.6 L234.4,211.1 L231.6,219.7 L228.7,228.2 L225.9,236.8 L224.0,245.8 L222.5,255.0 L221.0,264.3 L219.6,273.5 L218.1,282.8 L216.6,292.0" fill="none" stroke="#0c2020" stroke-width="13" stroke-linecap="round" stroke-linejoin="round" opacity="1.0"/></g><g class="f11"><path d="M240.0,194.0 L241.4,202.7 L242.8,211.3 L244.2,220.0 L245.5,228.7 L246.9,237.4 L248.0,246.3 L248.9,255.5 L249.8,264.6 L250.7,273.7 L251.6,282.9 L252.5,292.0" fill="none" stroke="#0d9488" stroke-width="21" stroke-linecap="round" stroke-linejoin="round" opacity="0.95"/><path d="M240.0,194.0 L241.4,202.7 L242.8,211.3 L244.2,220.0 L245.5,228.7 L246.9,237.4 L248.0,246.3 L248.9,255.5 L249.8,264.6 L250.7,273.7 L251.6,282.9 L252.5,292.0" fill="none" stroke="#0c2020" stroke-width="13" stroke-linecap="round" stroke-linejoin="round" opacity="1.0"/><path d="M240.0,194.0 L238.5,202.6 L237.0,211.1 L235.5,219.7 L234.0,228.2 L232.5,236.8 L231.4,245.8 L230.6,255.0 L229.9,264.3 L229.1,273.5 L228.3,282.8 L227.5,292.0" fill="none" stroke="#2dd4bf" stroke-width="21" stroke-linecap="round" stroke-linejoin="round" opacity="0.95"/><path d="M240.0,194.0 L238.5,202.6 L237.0,211.1 L235.5,219.7 L234.0,228.2 L232.5,236.8 L231.4,245.8 L230.6,255.0 L229.9,264.3 L229.1,273.5 L228.3,282.8 L227.5,292.0" fill="none" stroke="#0c2020" stroke-width="13" stroke-linecap="round" stroke-linejoin="round" opacity="1.0"/></g><g class="f12"><path d="M240.0,194.0 L240.0,202.7 L240.0,211.3 L240.0,220.0 L240.0,228.7 L240.0,237.4 L240.0,246.3 L240.0,255.5 L240.0,264.6 L240.0,273.7 L240.0,282.9 L240.0,292.0" fill="none" stroke="#0d9488" stroke-width="21" stroke-linecap="round" stroke-linejoin="round" opacity="0.95"/><path d="M240.0,194.0 L240.0,202.7 L240.0,211.3 L240.0,220.0 L240.0,228.7 L240.0,237.4 L240.0,246.3 L240.0,255.5 L240.0,264.6 L240.0,273.7 L240.0,282.9 L240.0,292.0" fill="none" stroke="#0c2020" stroke-width="13" stroke-linecap="round" stroke-linejoin="round" opacity="1.0"/><path d="M240.0,194.0 L240.0,202.6 L240.0,211.1 L240.0,219.7 L240.0,228.2 L240.0,236.8 L240.0,245.8 L240.0,255.0 L240.0,264.3 L240.0,273.5 L240.0,282.8 L240.0,292.0" fill="none" stroke="#2dd4bf" stroke-width="21" stroke-linecap="round" stroke-linejoin="round" opacity="0.95"/><path d="M240.0,194.0 L240.0,202.6 L240.0,211.1 L240.0,219.7 L240.0,228.2 L240.0,236.8 L240.0,245.8 L240.0,255.0 L240.0,264.3 L240.0,273.5 L240.0,282.8 L240.0,292.0" fill="none" stroke="#0c2020" stroke-width="13" stroke-linecap="round" stroke-linejoin="round" opacity="1.0"/></g><g class="f13"><path d="M240.0,194.0 L238.6,202.7 L237.2,211.3 L235.8,220.0 L234.5,228.7 L233.1,237.4 L232.0,246.3 L231.1,255.5 L230.2,264.6 L229.3,273.7 L228.4,282.9 L227.5,292.0" fill="none" stroke="#0d9488" stroke-width="21" stroke-linecap="round" stroke-linejoin="round" opacity="0.95"/><path d="M240.0,194.0 L238.6,202.7 L237.2,211.3 L235.8,220.0 L234.5,228.7 L233.1,237.4 L232.0,246.3 L231.1,255.5 L230.2,264.6 L229.3,273.7 L228.4,282.9 L227.5,292.0" fill="none" stroke="#0c2020" stroke-width="13" stroke-linecap="round" stroke-linejoin="round" opacity="1.0"/><path d="M240.0,194.0 L241.5,202.6 L243.0,211.1 L244.5,219.7 L246.0,228.2 L247.5,236.8 L248.6,245.8 L249.4,255.0 L250.1,264.3 L250.9,273.5 L251.7,282.8 L252.5,292.0" fill="none" stroke="#2dd4bf" stroke-width="21" stroke-linecap="round" stroke-linejoin="round" opacity="0.95"/><path d="M240.0,194.0 L241.5,202.6 L243.0,211.1 L244.5,219.7 L246.0,228.2 L247.5,236.8 L248.6,245.8 L249.4,255.0 L250.1,264.3 L250.9,273.5 L251.7,282.8 L252.5,292.0" fill="none" stroke="#0c2020" stroke-width="13" stroke-linecap="round" stroke-linejoin="round" opacity="1.0"/></g><g class="f14"><path d="M240.0,194.0 L237.4,202.7 L234.8,211.3 L232.2,220.0 L229.6,228.7 L227.0,237.4 L225.1,246.3 L223.4,255.5 L221.7,264.6 L220.0,273.7 L218.3,282.9 L216.6,292.0" fill="none" stroke="#0d9488" stroke-width="21" stroke-linecap="round" stroke-linejoin="round" opacity="0.95"/><path d="M240.0,194.0 L237.4,202.7 L234.8,211.3 L232.2,220.0 L229.6,228.7 L227.0,237.4 L225.1,246.3 L223.4,255.5 L221.7,264.6 L220.0,273.7 L218.3,282.9 L216.6,292.0" fill="none" stroke="#0c2020" stroke-width="13" stroke-linecap="round" stroke-linejoin="round" opacity="1.0"/><path d="M240.0,194.0 L242.8,202.6 L245.6,211.1 L248.4,219.7 L251.3,228.2 L254.1,236.8 L256.0,245.8 L257.5,255.0 L259.0,264.3 L260.4,273.5 L261.9,282.8 L263.4,292.0" fill="none" stroke="#2dd4bf" stroke-width="21" stroke-linecap="round" stroke-linejoin="round" opacity="0.95"/><path d="M240.0,194.0 L242.8,202.6 L245.6,211.1 L248.4,219.7 L251.3,228.2 L254.1,236.8 L256.0,245.8 L257.5,255.0 L259.0,264.3 L260.4,273.5 L261.9,282.8 L263.4,292.0" fill="none" stroke="#0c2020" stroke-width="13" stroke-linecap="round" stroke-linejoin="round" opacity="1.0"/></g><g class="f15"><path d="M240.0,194.0 L236.6,202.7 L233.1,211.3 L229.7,220.0 L226.2,228.7 L222.8,237.4 L220.2,246.3 L217.9,255.5 L215.7,264.6 L213.4,273.7 L211.2,282.9 L208.9,292.0" fill="none" stroke="#0d9488" stroke-width="21" stroke-linecap="round" stroke-linejoin="round" opacity="0.95"/><path d="M240.0,194.0 L236.6,202.7 L233.1,211.3 L229.7,220.0 L226.2,228.7 L222.8,237.4 L220.2,246.3 L217.9,255.5 L215.7,264.6 L213.4,273.7 L211.2,282.9 L208.9,292.0" fill="none" stroke="#0c2020" stroke-width="13" stroke-linecap="round" stroke-linejoin="round" opacity="1.0"/><path d="M240.0,194.0 L243.7,202.6 L247.5,211.1 L251.2,219.7 L255.0,228.2 L258.7,236.8 L261.3,245.8 L263.3,255.0 L265.2,264.3 L267.2,273.5 L269.1,282.8 L271.1,292.0" fill="none" stroke="#2dd4bf" stroke-width="21" stroke-linecap="round" stroke-linejoin="round" opacity="0.95"/><path d="M240.0,194.0 L243.7,202.6 L247.5,211.1 L251.2,219.7 L255.0,228.2 L258.7,236.8 L261.3,245.8 L263.3,255.0 L265.2,264.3 L267.2,273.5 L269.1,282.8 L271.1,292.0" fill="none" stroke="#0c2020" stroke-width="13" stroke-linecap="round" stroke-linejoin="round" opacity="1.0"/></g></svg>
