<svg xmlns="http://www.w3.org/2000/svg" viewBox="0 0 480 320"><style>@keyframes k0{0%{opacity:1}11.111%{opacity:0}100%{opacity:0}}.f0{opacity:0;animation:k0 2.4s steps(1,end) infinite}@keyframes k1{0%{opacity:0}11.111%{opacity:1}16.667%{opacity:0}100%{opacity:0}}.f1{opacity:0;animation:k1 2.4s steps(1,end) infinite}@keyframes k2{0%{opacity:0}16.667%{opacity:1}22.222%{opacity:0}100%{opacity:0}}.f2{opacity:0;animation:k2 2.4s steps(1,end) infinite}@keyframes k3{0%{opacity:0}22.222%{opacity:1}27.778%{opacity:0}100%{opacity:0}}.f3{opacity:0;animation:k3 2.4s steps(1,end) infinite}@keyframes k4{0%{opacity:0}27.778%{opacity:1}33.333%{opacity:0}100%{opacity:0}}.f4{opacity:0;animation:k4 2.4s steps(1,end) infinite}@keyframes k5{0%{opacity:0}33.333%{opacity:1}38.889%{opacity:0}100%{opacity:0}}.f5{opacity:0;animation:k5 2.4s steps(1,end) infinite}@keyframes k6{0%{opacity:0}38.889%{opacity:1}44.444%{opacity:0}100%{opacity:0}}.f6{opacity:0;animation:k6 2.4s steps(1,end) infinite}@keyframes k7{0%{opacity:0}44.444%{opacity:1}50.000%{opacity:0}100%{opacity:0}}.f7{opacity:0;animation:k7 2.4s steps(1,end) infinite}@keyframes k8{0%{opacity:0}50.000%{opacity:1}61.111%{opacity:0}100%{opacity:0}}.f8{opacity:0;animation:k8 2.4s steps(1,end) infinite}@keyframes k9{0%{opacity:0}61.111%{opacity:1}66.667%{opacity:0}100%{opacity:0}}.f9{opacity:0;animation:k9 2.4s steps(1,end) infinite}@keyframes k10{0%{opacity:0}66.667%{opacity:1}72.222%{opacity:0}100%{opacity:0}}.f10{opacity:0;animation:k10 2.4s steps(1,end) infinite}@keyframes k11{0%{opacity:0}72.222%{opacity:1}77.778%{opacity:0}100%{opacity:0}}.f11{opacity:0;animation:k11 2.4s steps(1,end) infinite}@keyframes k12{0%{opacity:0}77.778%{opacity:1}83.333%{opacity:0}100%{opacity:0}}.f12{opacity:0;animation:k12 2.4s steps(1,end) infinite}@keyframes k13{0%{opacity:0}83.333%{opacity:1}88.889%{opacity:0}100%{opacity:0}}.f13{opacity:0;animation:k13 2.4s steps(1,end) infinite}@keyframes k14{0%{opacity:0}88.889%{opacity:1}94.444%{opacity:0}100%{opacity:0}}.f14{opacity:0;animation:k14 2.4s steps(1,end) infinite}@keyframes k15{0%{opacity:0}94.444%{opacity:1}100%{opacity:1}}.f15{opacity:0;animation:k15 2.4s steps(1,end) infinite}</style><path d="M40.0,292.0 L440.0,292.0" fill="none" stroke="#1f3333" stroke-width="6" stroke-linecap="round" stroke-linejoin="round" opacity="1.0"/><path d="M310.0,258.0 L280.0,288.0" fill="none" stroke="#2dd4bf" stroke-width="19" stroke-linecap="round" stroke-linejoin="round" opacity="0.95"/><path d="M310.0,258.0 L280.0,288.0" fill="none" stroke="#0c2020" stroke-width="11" stroke-linecap="round" stroke-linejoin="round" opacity="1.0"/><path d="M310.0,258.0 L220.0,266.0" fill="none" stroke="#f43f5e" stroke-width="23" stroke-linecap="round" stroke-linejoin="round" opacity="0.95"/><path d="M310.0,258.0 L220.0,266.0" fill="none" stroke="#0c2020" stroke-width="15" stroke-linecap="round" stroke-linejoin="round" opacity="1.0"/><circle cx="336.0" cy="250.0" r="19.0" fill="#f43f5e" stroke="none" stroke-width="0" opacity="0.95"/><circle cx="336.0" cy="250.0" r="15.0" fill="#0c2020" stroke="none" stroke-width="6.3" opacity="1.0"/><path d="M334.0,233.0 L315.0,252.0 L319.0,271.0" fill="none" stroke="#2dd4bf" stroke-width="5" stroke-linecap="round" stroke-linejoin="round" opacity="1.0"/><path d="M326.7,247.0 L345.3,247.0" fill="none" stroke="#a7f3ee" stroke-width="5" stroke-linecap="round" stroke-linejoin="round" opacity="1.0"/><g class="f0"><path d="M220.0,266.0 L209.9,258.4 L199.8,250.7 L189.8,243.1 L179.7,235.5 L169.6,227.8 L159.5,220.2 L148.3,215.4 L135.7,214.0 L123.2,212.7 L110.6,211.3 L98.0,210.0" fill="none" stroke="#0d9488" stroke-width="19" stroke-linecap="round" stroke-linejoin="round" opacity="0.95"/><path d="M220.0,266.0 L209.9,258.4 L199.8,250.7 L189.8,243.1 L179.7,235.5 L169.6,227.8 L159.5,220.2 L148.3,215.4 L135.7,214.0 L123.2,212.7 L110.6,211.3 L98.0,210.0" fill="none" stroke="#0c2020" stroke-width="11" stroke-linecap="round" stroke-linejoin="round" opacity="1.0"/><path d="M220.0,266.0 L209.3,261.5 L198.6,256.9 L187.9,252.4 L177.1,247.8 L166.4,243.3 L155.7,238.7 L144.3,237.0 L132.7,235.7 L121.1,234.5 L109.6,233.2 L98.0,232.0" fill="none" stroke="#2dd4bf" stroke-width="19" stroke-linecap="round" stroke-linejoin="round" opacity="0.95"/><path d="M220.0,266.0 L209.3,261.5 L198.6,256.9 L187.9,252.4 L177.1,247.8 L166.4,243.3 L155.7,238.7 L144.3,237.0 L132.7,235.7 L121.1,234.5 L109.6,233.2 L98.0,232.0" fill="none" stroke="#0c2020" stroke-width="11" stroke-linecap="round" stroke-linejoin="round" opacity="1.0"/></g><g class="f1"><path d="M220.0,266.0 L209.9,258.5 L199.8,251.0 L189.7,243.5 L179.6,236.0 L169.5,228.5 L159.4,221.0 L148.1,216.3 L135.6,215.0 L123.1,213.6 L110.5,212.3 L98.0,210.9" fill="none" stroke="#0d9488" stroke-width="19" stroke-linecap="round" stroke-linejoin="round" opacity="0.95"/><path d="M220.0,266.0 L209.9,258.5 L199.8,251.0 L189.7,243.5 L179.6,236.0 L169.5,228.5 L159.4,221.0 L148.1,216.3 L135.6,215.0 L123.1,213.6 L110.5,212.3 L98.0,210.9" fill="none" stroke="#0c2020" stroke-width="11" stroke-linecap="round" stroke-linejoin="round" opacity="1.0"/><path d="M220.0,266.0 L209.3,261.3 L198.6,256.6 L187.9,252.0 L177.3,247.3 L166.6,242.6 L155.9,237.9 L144.5,236.0 L132.8,234.8 L121.2,233.5 L109.6,232.3 L98.0,231.1" fill="none" stroke="#2dd4bf" stroke-width="19" stroke-linecap="round" stroke-linejoin="round" opacity="0.95"/><path d="M220.0,266.0 L209.3,261.3 L198.6,256.6 L187.9,252.0 L177.3,247.3 L166.6,242.6 L155.9,237.9 L144.5,236.0 L132.8,234.8 L121.2,233.5 L109.6,232.3 L98.0,231.1" fill="none" stroke="#0c2020" stroke-width="11" stroke-linecap="round" stroke-linejoin="round" opacity="1.0"/></g><g class="f2"><path d="M220.0,266.0 L209.8,258.8 L199.6,251.7 L189.5,244.5 L179.3,237.4 L169.1,230.2 L158.9,223.1 L147.7,218.8 L135.3,217.4 L122.8,216.1 L110.4,214.8 L98.0,213.4" fill="none" stroke="#0d9488" stroke-width="19" stroke-linecap="round" stroke-linejoin="round" opacity="0.95"/><path d="M220.0,266.0 L209.8,258.8 L199.6,251.7 L189.5,244.5 L179.3,237.4 L169.1,230.2 L158.9,223.1 L147.7,218.8 L135.3,217.4 L122.8,216.1 L110.4,214.8 L98.0,213.4" fill="none" stroke="#0c2020" stroke-width="11" stroke-linecap="round" stroke-linejoin="round" opacity="1.0"/><path d="M220.0,266.0 L209.4,261.0 L198.8,255.9 L188.2,250.9 L177.5,245.9 L166.9,240.9 L156.3,235.8 L144.9,233.6 L133.2,232.3 L121.5,231.1 L109.7,229.8 L98.0,228.6" fill="none" stroke="#2dd4bf" stroke-width="19" stroke-linecap="round" stroke-linejoin="round" opacity="0.95"/><path d="M220.0,266.0 L209.4,261.0 L198.8,255.9 L188.2,250.9 L177.5,245.9 L166.9,240.9 L156.3,235.8 L144.9,233.6 L133.2,232.3 L121.5,231.1 L109.7,229.8 L98.0,228.6" fill="none" stroke="#0c2020" stroke-width="11" stroke-linecap="round" stroke-linejoin="round" opacity="1.0"/></g><g class="f3"><path d="M220.0,266.0 L209.7,259.3 L199.4,252.7 L189.2,246.0 L178.9,239.4 L168.6,232.7 L158.3,226.0 L147.0,222.2 L134.8,220.9 L122.5,219.6 L110.3,218.3 L98.0,217.0" fill="none" stroke="#0d9488" stroke-width="19" stroke-linecap="round" stroke-linejoin="round" opacity="0.95"/><path d="M220.0,266.0 L209.7,259.3 L199.4,252.7 L189.2,246.0 L178.9,239.4 L168.6,232.7 L158.3,226.0 L147.0,222.2 L134.8,220.9 L122.5,219.6 L110.3,218.3 L98.0,217.0" fill="none" stroke="#0c2020" stroke-width="11" stroke-linecap="round" stroke-linejoin="round" opacity="1.0"/><path d="M220.0,266.0 L209.5,260.5 L199.0,255.0 L188.5,249.4 L177.9,243.9 L167.4,238.4 L156.9,232.9 L145.6,230.1 L133.7,228.9 L121.8,227.6 L109.9,226.3 L98.0,225.0" fill="none" stroke="#2dd4bf" stroke-width="19" stroke-linecap="round" stroke-linejoin="round" opacity="0.95"/><path d="M220.0,266.0 L209.5,260.5 L199.0,255.0 L188.5,249.4 L177.9,243.9 L167.4,238.4 L156.9,232.9 L145.6,230.1 L133.7,228.9 L121.8,227.6 L109.9,226.3 L98.0,225.0" fill="none" stroke="#0c2020" stroke-width="11" stroke-linecap="round" stroke-linejoin="round" opacity="1.0"/></g><g class="f4"><path d="M220.0,266.0 L209.6,259.9 L199.2,253.8 L188.8,247.7 L178.4,241.6 L168.0,235.5 L157.6,229.5 L146.3,226.2 L134.2,224.9 L122.1,223.6 L110.1,222.3 L98.0,221.0" fill="none" stroke="#0d9488" stroke-width="19" stroke-linecap="round" stroke-linejoin="round" opacity="0.95"/><path d="M220.0,266.0 L209.6,259.9 L199.2,253.8 L188.8,247.7 L178.4,241.6 L168.0,235.5 L157.6,229.5 L146.3,226.2 L134.2,224.9 L122.1,223.6 L110.1,222.3 L98.0,221.0" fill="none" stroke="#0c2020" stroke-width="11" stroke-linecap="round" stroke-linejoin="round" opacity="1.0"/><path d="M220.0,266.0 L209.6,259.9 L199.2,253.8 L188.8,247.7 L178.4,241.6 L168.0,235.5 L157.6,229.5 L146.3,226.2 L134.2,224.9 L122.1,223.6 L110.1,222.3 L98.0,221.0" fill="none" stroke="#2dd4bf" stroke-width="19" stroke-linecap="round" stroke-linejoin="round" opacity="0.95"/><path d="M220.0,266.0 L209.6,259.9 L199.2,253.8 L188.8,247.7 L178.4,241.6 L168.0,235.5 L157.6,229.5 L146.3,226.2 L134.2,224.9 L122.1,223.6 L110.1,222.3 L98.0,221.0" fill="none" stroke="#0c2020" stroke-width="11" stroke-linecap="round" stroke-linejoin="round" opacity="1.0"/></g><g class="f5"><path d="M220.0,266.0 L209.5,260.5 L199.0,255.0 L188.5,249.4 L177.9,243.9 L167.4,238.4 L156.9,232.9 L145.6,230.1 L133.7,228.9 L121.8,227.6 L109.9,226.3 L98.0,225.0" fill="none" stroke="#0d9488" stroke-width="19" stroke-linecap="round" stroke-linejoin="round" opacity="0.95"/><path d="M220.0,266.0 L209.5,260.5 L199.0,255.0 L188.5,249.4 L177.9,243.9 L167.4,238.4 L156.9,232.9 L145.6,230.1 L133.7,228.9 L121.8,227.6 L109.9,226.3 L98.0,225.0" fill="none" stroke="#0c2020" stroke-width="11" stroke-linecap="round" stroke-linejoin="round" opacity="1.0"/><path d="M220.0,266.0 L209.7,259.3 L199.4,252.7 L189.2,246.0 L178.9,239.4 L168.6,232.7 L158.3,226.0 L147.0,222.2 L134.8,220.9 L122.5,219.6 L110.3,218.3 L98.0,217.0" fill="none" stroke="#2dd4bf" stroke-width="19" stroke-linecap="round" stroke-linejoin="round" opacity="0.95"/><path d="M220.0,266.0 L209.7,259.3 L199.4,252.7 L189.2,246.0 L178.9,239.4 L168.6,232.7 L158.3,226.0 L147.0,222.2 L134.8,220.9 L122.5,219.6 L110.3,218.3 L98.0,217.0" fill="none" stroke="#0c2020" stroke-width="11" stroke-linecap="round" stroke-linejoin="round" opacity="1.0"/></g><g class="f6"><path d="M220.0,266.0 L209.4,261.0 L198.8,255.9 L188.2,250.9 L177.5,245.9 L166.9,240.9 L156.3,235.8 L144.9,233.6 L133.2,232.3 L121.5,231.1 L109.7,229.8 L98.0,228.6" fill="none" stroke="#0d9488" stroke-width="19" stroke-linecap="round" stroke-linejoin="round" opacity="0.95"/><path d="M220.0,266.0 L209.4,261.0 L198.8,255.9 L188.2,250.9 L177.5,245.9 L166.9,240.9 L156.3,235.8 L144.9,233.6 L133.2,232.3 L121.5,231.1 L109.7,229.8 L98.0,228.6" fill="none" stroke="#0c2020" stroke-width="11" stroke-linecap="round" stroke-linejoin="round" opacity="1.0"/><path d="M220.0,266.0 L209.8,258.8 L199.6,251.7 L189.5,244.5 L179.3,237.4 L169.1,230.2 L158.9,223.1 L147.7,218.8 L135.3,217.4 L122.8,216.1 L110.4,214.8 L98.0,213.4" fill="none" stroke="#2dd4bf" stroke-width="19" stroke-linecap="round" stroke-linejoin="round" opacity="0.95"/><path d="M220.0,266.0 L209.8,258.8 L199.6,251.7 L189.5,244.5 L179.3,237.4 L169.1,230.2 L158.9,223.1 L147.7,218.8 L135.3,217.4 L122.8,216.1 L110.4,214.8 L98.0,213.4" fill="none" stroke="#0c2020" stroke-width="11" stroke-linecap="round" stroke-linejoin="round" opacity="1.0"/></g><g class="f7"><path d="M220.0,266.0 L209.3,261.3 L198.6,256.6 L187.9,252.0 L177.3,247.3 L166.6,242.6 L155.9,237.9 L144.5,236.0 L132.8,234.8 L121.2,233.5 L109.6,232.3 L98.0,231.1" fill="none" stroke="#0d9488" stroke-width="19" stroke-linecap="round" stroke-linejoin="round" opacity="0.95"/><path d="M220.0,266.0 L209.3,261.3 L198.6,256.6 L187.9,252.0 L177.3,247.3 L166.6,242.6 L155.9,237.9 L144.5,236.0 L132.8,234.8 L121.2,233.5 L109.6,232.3 L98.0,231.1" fill="none" stroke="#0c2020" stroke-width="11" stroke-linecap="round" stroke-linejoin="round" opacity="1.0"/><path d="M220.0,266.0 L209.9,258.5 L199.8,251.0 L189.7,243.5 L179.6,236.0 L169.5,228.5 L159.4,221.0 L148.1,216.3 L135.6,215.0 L123.1,213.6 L110.5,212.3 L98.0,210.9" fill="none" stroke="#2dd4bf" stroke-width="19" stroke-linecap="round" stroke-linejoin="round" opacity="0.95"/><path d="M220.0,266.0 L209.9,258.5 L199.8,251.0 L189.7,243.5 L179.6,236.0 L169.5,228.5 L159.4,221.0 L148.1,216.3 L135.6,215.0 L123.1,213.6 L110.5,212.3 L98.0,210.9" fill="none" stroke="#0c2020" stroke-width="11" stroke-linecap="round" stroke-linejoin="round" opacity="1.0"/></g><g class="f8"><path d="M220.0,266.0 L209.3,261.5 L198.6,256.9 L187.9,252.4 L177.1,247.8 L166.4,243.3 L155.7,238.7 L144.3,237.0 L132.7,235.7 L121.1,234.5 L109.6,233.2 L98.0,232.0" fill="none" stroke="#0d9488" stroke-width="19" stroke-linecap="round" stroke-linejoin="round" opacity="0.95"/><path d="M220.0,266.0 L209.3,261.5 L198.6,256.9 L187.9,252.4 L177.1,247.8 L166.4,243.3 L155.7,238.7 L144.3,237.0 L132.7,235.7 L121.1,234.5 L109.6,233.2 L98.0,232.0" fill="none" stroke="#0c2020" stroke-width="11" stroke-linecap="round" stroke-linejoin="round" opacity="1.0"/><path d="M220.0,266.0 L209.9,258.4 L199.8,250.7 L189.8,243.1 L179.7,235.5 L169.6,227.8 L159.5,220.2 L148.3,215.4 L135.7,214.0 L123.2,212.7 L110.6,211.3 L98.0,210.0" fill="none" stroke="#2dd4bf" stroke-width="19" stroke-linecap="round" stroke-linejoin="round" opacity="0.95"/><path d="M220.0,266.0 L209.9,258.4 L199.8,250.7 L189.8,243.1 L179.7,235.5 L169.6,227.8 L159.5,220.2 L148.3,215.4 L135.7,214.0 L123.2,212.7 L110.6,211.3 L98.0,210.0" fill="none" stroke="#0c2020" stroke-width="11" stroke-linecap="round" stroke-linejoin="round" opacity="1.0"/></g><g class="f9"><path d="M220.0,266.0 L209.3,261.3 L198.6,256.6 L187.9,252.0 L177.3,247.3 L166.6,242.6 L155.9,237.9 L144.5,236.0 L132.8,234.8 L121.2,233.5 L109.6,232.3 L98.0,231.1" fill="none" stroke="#0d9488" stroke-width="19" stroke-linecap="round" stroke-linejoin="round" opacity="0.95"/><path d="M220.0,266.0 L209.3,261.3 L198.6,256.6 L187.9,252.0 L177.3,247.3 L166.6,242.6 L155.9,237.9 L144.5,236.0 L132.8,234.8 L121.2,233.5 L109.6,232.3 L98.0,231.1" fill="none" stroke="#0c2020" stroke-width="11" stroke-linecap="round" stroke-linejoin="round" opacity="1.0"/><path d="M220.0,266.0 L209.9,258.5 L199.8,251.0 L189.7,243.5 L179.6,236.0 L169.5,228.5 L159.4,221.0 L148.1,216.3 L135.6,215.0 L123.1,213.6 L110.5,212.3 L98.0,210.9" fill="none" stroke="#2dd4bf" stroke-width="19" stroke-linecap="round" stroke-linejoin="round" opacity="0.95"/><path d="M220.0,266.0 L209.9,258.5 L199.8,251.0 L189.7,243.5 L179.6,236.0 L169.5,228.5 L159.4,221.0 L148.1,216.3 L135.6,215.0 L123.1,213.6 L110.5,212.3 L98.0,210.9" fill="none" stroke="#0c2020" stroke-width="11" stroke-linecap="round" stroke-linejoin="round" opacity="1.0"/></g><g class="f10"><path d="M220.0,266.0 L209.4,261.0 L198.8,255.9 L188.2,250.9 L177.5,245.9 L166.9,240.9 L156.3,235.8 L144.9,233.6 L133.2,232.3 L121.5,231.1 L109.7,229.8 L98.0,228.6" fill="none" stroke="#0d9488" stroke-width="19" stroke-linecap="round" stroke-linejoin="round" opacity="0.95"/><path d="M220.0,266.0 L209.4,261.0 L198.8,255.9 L188.2,250.9 L177.5,245.9 L166.9,240.9 L156.3,235.8 L144.9,233.6 L133.2,232.3 L121.5,231.1 L109.7,229.8 L98.0,228.6" fill="none" stroke="#0c2020" stroke-width="11" stroke-linecap="round" stroke-linejoin="round" opacity="1.0"/><path d="M220.0,266.0 L209.8,258.8 L199.6,251.7 L189.5,244.5 L179.3,237.4 L169.1,230.2 L158.9,223.1 L147.7,218.8 L135.3,217.4 L122.8,216.1 L110.4,214.8 L98.0,213.4" fill="none" stroke="#2dd4bf" stroke-width="19" stroke-linecap="round" stroke-linejoin="round" opacity="0.95"/><path d="M220.0,266.0 L209.8,258.8 L199.6,251.7 L189.5,244.5 L179.3,237.4 L169.1,230.2 L158.9,223.1 L147.7,218.8 L135.3,217.4 L122.8,216.1 L110.4,214.8 L98.0,213.4" fill="none" stroke="#0c2020" stroke-width="11" stroke-linecap="round" stroke-linejoin="round" opacity="1.0"/></g><g class="f11"><path d="M220.0,266.0 L209.5,260.5 L199.0,255.0 L188.5,249.4 L177.9,243.9 L167.4,238.4 L156.9,232.9 L145.6,230.1 L133.7,228.9 L121.8,227.6 L109.9,226.3 L98.0,225.0" fill="none" stroke="#0d9488" stroke-width="19" stroke-linecap="round" stroke-linejoin="round" opacity="0.95"/><path d="M220.0,266.0 L209.5,260.5 L199.0,255.0 L188.5,249.4 L177.9,243.9 L167.4,238.4 L156.9,232.9 L145.6,230.1 L133.7,228.9 L121.8,227.6 L109.9,226.3 L98.0,225.0" fill="none" stroke="#0c2020" stroke-width="11" stroke-linecap="round" stroke-linejoin="round" opacity="1.0"/><path d="M220.0,266.0 L209.7,259.3 L199.4,252.7 L189.2,246.0 L178.9,239.4 L168.6,232.7 L158.3,226.0 L147.0,222.2 L134.8,220.9 L122.5,219.6 L110.3,218.3 L98.0,217.0" fill="none" stroke="#2dd4bf" stroke-width="19" stroke-linecap="round" stroke-linejoin="round" opacity="0.95"/><path d="M220.0,266.0 L209.7,259.3 L199.4,252.7 L189.2,246.0 L178.9,239.4 L168.6,232.7 L158.3,226.0 L147.0,222.2 L134.8,220.9 L122.5,219.6 L110.3,218.3 L98.0,217.0" fill="none" stroke="#0c2020" stroke-width="11" stroke-linecap="round" stroke-linejoin="round" opacity="1.0"/></g><g class="f12"><path d="M220.0,266.0 L209.6,259.9 L199.2,253.8 L188.8,247.7 L178.4,241.6 L168.0,235.5 L157.6,229.5 L146.3,226.2 L134.2,224.9 L122.1,223.6 L110.1,222.3 L98.0,221.0" fill="none" stroke="#0d9488" stroke-width="19" stroke-linecap="round" stroke-linejoin="round" opacity="0.95"/><path d="M220.0,266.0 L209.6,259.9 L199.2,253.8 L188.8,247.7 L178.4,241.6 L168.0,235.5 L157.6,229.5 L146.3,226.2 L134.2,224.9 L122.1,223.6 L110.1,222.3 L98.0,221.0" fill="none" stroke="#0c2020" stroke-width="11" stroke-linecap="round" stroke-linejoin="round" opacity="1.0"/><path d="M220.0,266.0 L209.6,259.9 L199.2,253.8 L188.8,247.7 L178.4,241.6 L168.0,235.5 L157.6,229.5 L146.3,226.2 L134.2,224.9 L122.1,223.6 L110.1,222.3 L98.0,221.0" fill="none" stroke="#2dd4bf" stroke-width="19" stroke-linecap="round" stroke-linejoin="round" opacity="0.95"/><path d="M220.0,266.0 L209.6,259.9 L199.2,253.8 L188.8,247.7 L178.4,241.6 L168.0,235.5 L157.6,229.5 L146.3,226.2 L134.2,224.9 L122.1,223.6 L110.1,222.3 L98.0,221.0" fill="none" stroke="#0c2020" stroke-width="11" stroke-linecap="round" stroke-linejoin="round" opacity="1.0"/></g><g class="f13"><path d="M220.0,266.0 L209.7,259.3 L199.4,252.7 L189.2,246.0 L178.9,239.4 L168.6,232.7 L158.3,226.0 L147.0,222.2 L134.8,220.9 L122.5,219.6 L110.3,218.3 L98.0,217.0" fill="none" stroke="#0d9488" stroke-width="19" stroke-linecap="round" stroke-linejoin="round" opacity="0.95"/><path d="M220.0,266.0 L209.7,259.3 L199.4,252.7 L189.2,246.0 L178.9,239.4 L168.6,232.7 L158.3,226.0 L147.0,222.2 L134.8,220.9 L122.5,219.6 L110.3,218.3 L98.0,217.0" fill="none" stroke="#0c2020" stroke-width="11" stroke-linecap="round" stroke-linejoin="round" opacity="1.0"/><path d="M220.0,266.0 L209.5,260.5 L199.0,255.0 L188.5,249.4 L177.9,243.9 L167.4,238.4 L156.9,232.9 L145.6,230.1 L133.7,228.9 L121.8,227.6 L109.9,226.3 L98.0,225.0" fill="none" stroke="#2dd4bf" stroke-width="19" stroke-linecap="round" stroke-linejoin="round" opacity="0.95"/><path d="M220.0,266.0 L209.5,260.5 L199.0,255.0 L188.5,249.4 L177.9,243.9 L167.4,238.4 L156.9,232.9 L145.6,230.1 L133.7,228.9 L121.8,227.6 L109.9,226.3 L98.0,225.0" fill="none" stroke="#0c2020" stroke-width="11" stroke-linecap="round" stroke-linejoin="round" opacity="1.0"/></g><g class="f14"><path d="M220.0,266.0 L209.8,258.8 L199.6,251.7 L189.5,244.5 L179.3,237.4 L169.1,230.2 L158.9,223.1 L147.7,218.8 L135.3,217.4 L122.8,216.1 L110.4,214.8 L98.0,213.4" fill="none" stroke="#0d9488" stroke-width="19" stroke-linecap="round" stroke-linejoin="round" opacity="0.95"/><path d="M220.0,266.0 L209.8,258.8 L199.6,251.7 L189.5,244.5 L179.3,237.4 L169.1,230.2 L158.9,223.1 L147.7,218.8 L135.3,217.4 L122.8,216.1 L110.4,214.8 L98.0,213.4" fill="none" stroke="#0c2020" stroke-width="11" stroke-linecap="round" stroke-linejoin="round" opacity="1.0"/><path d="M220.0,266.0 L209.4,261.0 L198.8,255.9 L188.2,250.9 L177.5,245.9 L166.9,240.9 L156.3,235.8 L144.9,233.6 L133.2,232.3 L121.5,231.1 L109.7,229.8 L98.0,228.6" fill="none" stroke="#2dd4bf" stroke-width="19" stroke-linecap="round" stroke-linejoin="round" opacity="0.95"/><path d="M220.0,266.0 L209.4,261.0 L198.8,255.9 L188.2,250.9 L177.5,245.9 L166.9,240.9 L156.3,235.8 L144.9,233.6 L133.2,232.3 L121.5,231.1 L109.7,229.8 L98.0,228.6" fill="none" stroke="#0c2020" stroke-width="11" stroke-linecap="round" stroke-linejoin="round" opacity="1.0"/></g><g class="f15"><path d="M220.0,266.0 L209.9,258.5 L199.8,251.0 L189.7,243.5 L179.6,236.0 L169.5,228.5 L159.4,221.0 L148.1,216.3 L135.6,215.0 L123.1,213.6 L110.5,212.3 L98.0,210.9" fill="none" stroke="#0d9488" stroke-width="19" stroke-linecap="round" stroke-linejoin="round" opacity="0.95"/><path d="M220.0,266.0 L209.9,258.5 L199.8,251.0 L189.7,243.5 L179.6,236.0 L169.5,228.5 L159.4,221.0 L148.1,216.3 L135.6,215.0 L123.1,213.6 L110.5,212.3 L98.0,210.9" fill="none" stroke="#0c2020" stroke-width="11" stroke-linecap="round" stroke-linejoin="round" opacity="1.0"/><path d="M220.0,266.0 L209.3,261.3 L198.6,256.6 L187.9,252.0 L177.3,247.3 L166.6,242.6 L155.9,237.9 L144.5,236.0 L132.8,234.8 L121.2,233.5 L109.6,232.3 L98.0,231.1" fill="none" stroke="#2dd4bf" stroke-width="19" stroke-linecap="round" stroke-linejoin="round" opacity="0.95"/><path d="M220.0,266.0 L209.3,261.3 L198.6,256.6 L187.9,252.0 L177.3,247.3 L166.6,242.6 L155.9,237.9 L144.5,236.0 L132.8,234.8 L121.2,233.5 L109.6,232.3 L98.0,231.1" fill="none" stroke="#0c2020" stroke-width="11" stroke-linecap="round" stroke-linejoin="round" opacity="1.0"/></g></svg>
