<svg xmlns="http://www.w3.org/2000/svg" viewBox="0 0 480 320"><style>@keyframes k0{0%{opacity:1}11.111%{opacity:0}100%{opacity:0}}.f0{opacity:0;animation:k0 2.4s steps(1,end) infinite}@keyframes k1{0%{opacity:0}11.111%{opacity:1}16.667%{opacity:0}100%{opacity:0}}.f1{opacity:0;animation:k1 2.4s steps(1,end) infinite}@keyframes k2{0%{opacity:0}16.667%{opacity:1}22.222%{opacity:0}100%{opacity:0}}.f2{opacity:0;animation:k2 2.4s steps(1,end) infinite}@keyframes k3{0%{opacity:0}22.222%{opacity:1}27.778%{opacity:0}100%{opacity:0}}.f3{opacity:0;animation:k3 2.4s steps(1,end) infinite}@keyframes k4{0%{opacity:0}27.778%{opacity:1}33.333%{opacity:0}100%{opacity:0}}.f4{opacity:0;animation:k4 2.4s steps(1,end) infinite}@keyframes k5{0%{opacity:0}33.333%{opacity:1}38.889%{opacity:0}100%{opacity:0}}.f5{opacity:0;animation:k5 2.4s steps(1,end) infinite}@keyframes k6{0%{opacity:0}38.889%{opacity:1}44.444%{opacity:0}100%{opacity:0}}.f6{opacity:0;animation:k6 2.4s steps(1,end) infinite}@keyframes k7{0%{opacity:0}44.444%{opacity:1}50.000%{opacity:0}100%{opacity:0}}.f7{opacity:0;animation:k7 2.4s steps(1,end) infinite}@keyframes k8{0%{opacity:0}50.000%{opacity:1}61.111%{opacity:0}100%{opacity:0}}.f8{opacity:0;animation:k8 2.4s steps(1,end) infinite}@keyframes k9{0%{opacity:0}61.111%{opacity:1}66.667%{opacity:0}100%{opacity:0}}.f9{opacity:0;animation:k9 2.4s steps(1,end) infinite}@keyframes k10{0%{opacity:0}66.667%{opacity:1}72.222%{opacity:0}100%{opacity:0}}.f10{opacity:0;animation:k10 2.4s steps(1,end) infinite}@keyframes k11{0%{opacity:0}72.222%{opacity:1}77.778%{opacity:0}100%{opacity:0}}.f11{opacity:0;animation:k11 2.4s steps(1,end) infinite}@keyframes k12{0%{opacity:0}77.778%{opacity:1}83.333%{opacity:0}100%{opacity:0}}.f12{opacity:0;animation:k12 2.4s steps(1,end) infinite}@keyframes k13{0%{opacity:0}83.333%{opacity:1}88.889%{opacity:0}100%{opacity:0}}.f13{opacity:0;animation:k13 2.4s steps(1,end) infinite}@keyframes k14{0%{opacity:0}88.889%{opacity:1}94.444%{opacity:0}100%{opacity:0}}.f14{opacity:0;animation:k14 2.4s steps(1,end) infinite}@keyframes k15{0%{opacity:0}94.444%{opacity:1}100%{opacity:1}}.f15{opacity:0;animation:k15 2.4s steps(1,end) infinite}</style><path d="M40.0,292.0 L440.0,292.0" fill="none" stroke="#1f3333" stroke-width="6" stroke-linecap="round" stroke-linejoin="round" opacity="1.0"/><path d="M240.0,116.0 L240.0,190.0" fill="none" stroke="#2dd4bf" stroke-width="23" stroke-linecap="round" stroke-linejoin="round" opacity="0.95"/><path d="M240.0,116.0 L240.0,190.0" fill="none" stroke="#0c2020" stroke-width="15" stroke-linecap="round" stroke-linejoin="round" opacity="1.0"/><circle cx="242.0" cy="88.0" r="19.0" fill="#2dd4bf" stroke="none" stroke-width="0" opacity="0.95"/><circle cx="242.0" cy="88.0" r="15.0" fill="#0c2020" stroke="none" stroke-width="6.3" opacity="1.0"/><path d="M240.0,71.0 L221.0,90.0 L225.0,109.0" fill="none" stroke="#2dd4bf" stroke-width="5" stroke-linecap="round" stroke-linejoin="round" opacity="1.0"/><path d="M232.7,85.0 L251.3,85.0" fill="none" stroke="#a7f3ee" stroke-width="5" stroke-linecap="round" stroke-linejoin="round" opacity="1.0"/><g class="f0"><path d="M240.0,116.0 L244.7,119.8 L249.5,123.6 L254.2,127.4 L259.0,131.2 L263.7,135.0 L268.5,138.8 L273.2,137.4 L277.9,133.5 L282.6,129.7 L287.3,125.8 L292.0,122.0" fill="none" stroke="#2dd4bf" stroke-width="19" stroke-linecap="round" stroke-linejoin="round" opacity="0.95"/><path d="M240.0,116.0 L244.7,119.8 L249.5,123.6 L254.2,127.4 L259.0,131.2 L263.7,135.0 L268.5,138.8 L273.2,137.4 L277.9,133.5 L282.6,129.7 L287.3,125.8 L292.0,122.0" fill="none" stroke="#0c2020" stroke-width="11" stroke-linecap="round" stroke-linejoin="round" opacity="1.0"/><path d="M240.0,190.0 L239.3,199.3 L238.5,208.5 L237.8,217.8 L237.0,227.0 L236.3,236.3 L235.8,245.6 L235.4,254.9 L235.1,264.1 L234.7,273.4 L234.4,282.7 L234.0,292.0" fill="none" stroke="#8f2a3e" stroke-width="19" stroke-linecap="round" stroke-linejoin="round" opacity="0.95"/><path d="M240.0,190.0 L239.3,199.3 L238.5,208.5 L237.8,217.8 L237.0,227.0 L236.3,236.3 L235.8,245.6 L235.4,254.9 L235.1,264.1 L234.7,273.4 L234.4,282.7 L234.0,292.0" fill="none" stroke="#0c2020" stroke-width="11" stroke-linecap="round" stroke-linejoin="round" opacity="1.0"/><path d="M240.0,190.0 L247.2,191.4 L254.5,192.8 L261.7,194.1 L268.9,195.5 L276.2,196.9 L282.1,199.4 L282.9,206.7 L283.7,214.0 L284.5,221.4 L285.2,228.7 L286.0,236.0" fill="none" stroke="#f43f5e" stroke-width="19" stroke-linecap="round" stroke-linejoin="round" opacity="0.95"/><path d="M240.0,190.0 L247.2,191.4 L254.5,192.8 L261.7,194.1 L268.9,195.5 L276.2,196.9 L282.1,199.4 L282.9,206.7 L283.7,214.0 L284.5,221.4 L285.2,228.7 L286.0,236.0" fill="none" stroke="#0c2020" stroke-width="11" stroke-linecap="round" stroke-linejoin="round" opacity="1.0"/></g><g class="f1"><path d="M240.0,116.0 L244.4,119.8 L248.8,123.7 L253.2,127.5 L257.6,131.4 L262.0,135.2 L266.4,139.1 L270.7,137.8 L275.0,133.9 L279.3,130.1 L283.6,126.3 L287.9,122.4" fill="none" stroke="#2dd4bf" stroke-width="19" stroke-linecap="round" stroke-linejoin="round" opacity="0.95"/><path d="M240.0,116.0 L244.4,119.8 L248.8,123.7 L253.2,127.5 L257.6,131.4 L262.0,135.2 L266.4,139.1 L270.7,137.8 L275.0,133.9 L279.3,130.1 L283.6,126.3 L287.9,122.4" fill="none" stroke="#0c2020" stroke-width="11" stroke-linecap="round" stroke-linejoin="round" opacity="1.0"/><path d="M240.0,190.0 L239.6,198.9 L239.2,207.8 L238.8,216.8 L238.4,225.7 L238.0,234.6 L237.8,243.6 L237.5,252.8 L237.2,262.0 L236.9,271.2 L236.5,280.4 L236.2,289.6" fill="none" stroke="#8f2a3e" stroke-width="19" stroke-linecap="round" stroke-linejoin="round" opacity="0.95"/><path d="M240.0,190.0 L239.6,198.9 L239.2,207.8 L238.8,216.8 L238.4,225.7 L238.0,234.6 L237.8,243.6 L237.5,252.8 L237.2,262.0 L236.9,271.2 L236.5,280.4 L236.2,289.6" fill="none" stroke="#0c2020" stroke-width="11" stroke-linecap="round" stroke-linejoin="round" opacity="1.0"/><path d="M240.0,190.0 L246.9,191.7 L253.8,193.4 L260.7,195.1 L267.6,196.9 L274.4,198.6 L280.2,201.4 L280.9,208.8 L281.6,216.2 L282.3,223.6 L283.0,231.0 L283.8,238.4" fill="none" stroke="#f43f5e" stroke-width="19" stroke-linecap="round" stroke-linejoin="round" opacity="0.95"/><path d="M240.0,190.0 L246.9,191.7 L253.8,193.4 L260.7,195.1 L267.6,196.9 L274.4,198.6 L280.2,201.4 L280.9,208.8 L281.6,216.2 L282.3,223.6 L283.0,231.0 L283.8,238.4" fill="none" stroke="#0c2020" stroke-width="11" stroke-linecap="round" stroke-linejoin="round" opacity="1.0"/></g><g class="f2"><path d="M240.0,116.0 L243.5,120.0 L246.9,124.0 L250.4,127.9 L253.9,131.9 L257.4,135.9 L260.8,139.9 L264.2,138.8 L267.4,135.0 L270.6,131.2 L273.8,127.4 L277.0,123.6" fill="none" stroke="#2dd4bf" stroke-width="19" stroke-linecap="round" stroke-linejoin="round" opacity="0.95"/><path d="M240.0,116.0 L243.5,120.0 L246.9,124.0 L250.4,127.9 L253.9,131.9 L257.4,135.9 L260.8,139.9 L264.2,138.8 L267.4,135.0 L270.6,131.2 L273.8,127.4 L277.0,123.6" fill="none" stroke="#0c2020" stroke-width="11" stroke-linecap="round" stroke-linejoin="round" opacity="1.0"/><path d="M240.0,190.0 L240.5,198.0 L241.0,206.1 L241.5,214.1 L242.0,222.1 L242.5,230.1 L243.0,238.4 L242.8,247.3 L242.7,256.3 L242.5,265.3 L242.3,274.3 L242.1,283.2" fill="none" stroke="#8f2a3e" stroke-width="19" stroke-linecap="round" stroke-linejoin="round" opacity="0.95"/><path d="M240.0,190.0 L240.5,198.0 L241.0,206.1 L241.5,214.1 L242.0,222.1 L242.5,230.1 L243.0,238.4 L242.8,247.3 L242.7,256.3 L242.5,265.3 L242.3,274.3 L242.1,283.2" fill="none" stroke="#0c2020" stroke-width="11" stroke-linecap="round" stroke-linejoin="round" opacity="1.0"/><path d="M240.0,190.0 L246.0,192.6 L252.0,195.2 L258.0,197.8 L263.9,200.4 L269.9,203.0 L274.9,206.6 L275.5,214.2 L276.1,221.9 L276.7,229.5 L277.3,237.1 L277.9,244.8" fill="none" stroke="#f43f5e" stroke-width="19" stroke-linecap="round" stroke-linejoin="round" opacity="0.95"/><path d="M240.0,190.0 L246.0,192.6 L252.0,195.2 L258.0,197.8 L263.9,200.4 L269.9,203.0 L274.9,206.6 L275.5,214.2 L276.1,221.9 L276.7,229.5 L277.3,237.1 L277.9,244.8" fill="none" stroke="#0c2020" stroke-width="11" stroke-linecap="round" stroke-linejoin="round" opacity="1.0"/></g><g class="f3"><path d="M240.0,116.0 L242.2,120.2 L244.3,124.3 L246.5,128.5 L248.7,132.6 L250.8,136.8 L253.0,141.0 L254.9,140.2 L256.6,136.4 L258.3,132.7 L259.9,128.9 L261.6,125.2" fill="none" stroke="#2dd4bf" stroke-width="19" stroke-linecap="round" stroke-linejoin="round" opacity="0.95"/><path d="M240.0,116.0 L242.2,120.2 L244.3,124.3 L246.5,128.5 L248.7,132.6 L250.8,136.8 L253.0,141.0 L254.9,140.2 L256.6,136.4 L258.3,132.7 L259.9,128.9 L261.6,125.2" fill="none" stroke="#0c2020" stroke-width="11" stroke-linecap="round" stroke-linejoin="round" opacity="1.0"/><path d="M240.0,190.0 L241.8,196.8 L243.6,203.5 L245.3,210.3 L247.1,217.1 L248.9,223.8 L250.5,231.0 L250.5,239.6 L250.5,248.3 L250.5,257.0 L250.5,265.6 L250.5,274.3" fill="none" stroke="#8f2a3e" stroke-width="19" stroke-linecap="round" stroke-linejoin="round" opacity="0.95"/><path d="M240.0,190.0 L241.8,196.8 L243.6,203.5 L245.3,210.3 L247.1,217.1 L248.9,223.8 L250.5,231.0 L250.5,239.6 L250.5,248.3 L250.5,257.0 L250.5,265.6 L250.5,274.3" fill="none" stroke="#0c2020" stroke-width="11" stroke-linecap="round" stroke-linejoin="round" opacity="1.0"/><path d="M240.0,190.0 L244.7,193.9 L249.4,197.7 L254.1,201.6 L258.8,205.5 L263.5,209.4 L267.5,214.0 L267.9,222.0 L268.3,229.9 L268.7,237.8 L269.1,245.8 L269.5,253.7" fill="none" stroke="#f43f5e" stroke-width="19" stroke-linecap="round" stroke-linejoin="round" opacity="0.95"/><path d="M240.0,190.0 L244.7,193.9 L249.4,197.7 L254.1,201.6 L258.8,205.5 L263.5,209.4 L267.5,214.0 L267.9,222.0 L268.3,229.9 L268.7,237.8 L269.1,245.8 L269.5,253.7" fill="none" stroke="#0c2020" stroke-width="11" stroke-linecap="round" stroke-linejoin="round" opacity="1.0"/></g><g class="f4"><path d="M240.0,116.0 L240.7,120.4 L241.3,124.7 L242.0,129.1 L242.7,133.5 L243.4,137.9 L244.0,142.2 L244.3,141.8 L244.2,138.1 L244.2,134.4 L244.1,130.7 L244.0,127.0" fill="none" stroke="#2dd4bf" stroke-width="19" stroke-linecap="round" stroke-linejoin="round" opacity="0.95"/><path d="M240.0,116.0 L240.7,120.4 L241.3,124.7 L242.0,129.1 L242.7,133.5 L243.4,137.9 L244.0,142.2 L244.3,141.8 L244.2,138.1 L244.2,134.4 L244.1,130.7 L244.0,127.0" fill="none" stroke="#0c2020" stroke-width="11" stroke-linecap="round" stroke-linejoin="round" opacity="1.0"/><path d="M240.0,190.0 L243.2,195.3 L246.5,200.6 L249.7,206.0 L253.0,211.3 L256.2,216.6 L259.0,222.5 L259.2,230.8 L259.4,239.1 L259.6,247.4 L259.8,255.7 L260.0,264.0" fill="none" stroke="#8f2a3e" stroke-width="19" stroke-linecap="round" stroke-linejoin="round" opacity="0.95"/><path d="M240.0,190.0 L243.2,195.3 L246.5,200.6 L249.7,206.0 L253.0,211.3 L256.2,216.6 L259.0,222.5 L259.2,230.8 L259.4,239.1 L259.6,247.4 L259.8,255.7 L260.0,264.0" fill="none" stroke="#0c2020" stroke-width="11" stroke-linecap="round" stroke-linejoin="round" opacity="1.0"/><path d="M240.0,190.0 L243.2,195.3 L246.5,200.6 L249.7,206.0 L253.0,211.3 L256.2,216.6 L259.0,222.5 L259.2,230.8 L259.4,239.1 L259.6,247.4 L259.8,255.7 L260.0,264.0" fill="none" stroke="#f43f5e" stroke-width="19" stroke-linecap="round" stroke-linejoin="round" opacity="0.95"/><path d="M240.0,190.0 L243.2,195.3 L246.5,200.6 L249.7,206.0 L253.0,211.3 L256.2,216.6 L259.0,222.5 L259.2,230.8 L259.4,239.1 L259.6,247.4 L259.8,255.7 L260.0,264.0" fill="none" stroke="#0c2020" stroke-width="11" stroke-linecap="round" stroke-linejoin="round" opacity="1.0"/></g><g class="f5"><path d="M240.0,116.0 L239.2,120.6 L238.4,125.2 L237.5,129.7 L236.7,134.3 L235.9,138.9 L235.1,143.5 L233.7,143.4 L231.9,139.7 L230.0,136.1 L228.2,132.5 L226.4,128.8" fill="none" stroke="#2dd4bf" stroke-width="19" stroke-linecap="round" stroke-linejoin="round" opacity="0.95"/><path d="M240.0,116.0 L239.2,120.6 L238.4,125.2 L237.5,129.7 L236.7,134.3 L235.9,138.9 L235.1,143.5 L233.7,143.4 L231.9,139.7 L230.0,136.1 L228.2,132.5 L226.4,128.8" fill="none" stroke="#0c2020" stroke-width="11" stroke-linecap="round" stroke-linejoin="round" opacity="1.0"/><path d="M240.0,190.0 L244.7,193.9 L249.4,197.7 L254.1,201.6 L258.8,205.5 L263.5,209.4 L267.5,214.0 L267.9,222.0 L268.3,229.9 L268.7,237.8 L269.1,245.8 L269.5,253.7" fill="none" stroke="#8f2a3e" stroke-width="19" stroke-linecap="round" stroke-linejoin="round" opacity="0.95"/><path d="M240.0,190.0 L244.7,193.9 L249.4,197.7 L254.1,201.6 L258.8,205.5 L263.5,209.4 L267.5,214.0 L267.9,222.0 L268.3,229.9 L268.7,237.8 L269.1,245.8 L269.5,253.7" fill="none" stroke="#0c2020" stroke-width="11" stroke-linecap="round" stroke-linejoin="round" opacity="1.0"/><path d="M240.0,190.0 L241.8,196.8 L243.6,203.5 L245.3,210.3 L247.1,217.1 L248.9,223.8 L250.5,231.0 L250.5,239.6 L250.5,248.3 L250.5,257.0 L250.5,265.6 L250.5,274.3" fill="none" stroke="#f43f5e" stroke-width="19" stroke-linecap="round" stroke-linejoin="round" opacity="0.95"/><path d="M240.0,190.0 L241.8,196.8 L243.6,203.5 L245.3,210.3 L247.1,217.1 L248.9,223.8 L250.5,231.0 L250.5,239.6 L250.5,248.3 L250.5,257.0 L250.5,265.6 L250.5,274.3" fill="none" stroke="#0c2020" stroke-width="11" stroke-linecap="round" stroke-linejoin="round" opacity="1.0"/></g><g class="f6"><path d="M240.0,116.0 L237.9,120.8 L235.7,125.5 L233.6,130.3 L231.5,135.1 L229.4,139.8 L227.2,144.6 L224.4,144.8 L221.1,141.2 L217.7,137.6 L214.4,134.0 L211.0,130.4" fill="none" stroke="#2dd4bf" stroke-width="19" stroke-linecap="round" stroke-linejoin="round" opacity="0.95"/><path d="M240.0,116.0 L237.9,120.8 L235.7,125.5 L233.6,130.3 L231.5,135.1 L229.4,139.8 L227.2,144.6 L224.4,144.8 L221.1,141.2 L217.7,137.6 L214.4,134.0 L211.0,130.4" fill="none" stroke="#0c2020" stroke-width="11" stroke-linecap="round" stroke-linejoin="round" opacity="1.0"/><path d="M240.0,190.0 L246.0,192.6 L252.0,195.2 L258.0,197.8 L263.9,200.4 L269.9,203.0 L274.9,206.6 L275.5,214.2 L276.1,221.9 L276.7,229.5 L277.3,237.1 L277.9,244.8" fill="none" stroke="#8f2a3e" stroke-width="19" stroke-linecap="round" stroke-linejoin="round" opacity="0.95"/><path d="M240.0,190.0 L246.0,192.6 L252.0,195.2 L258.0,197.8 L263.9,200.4 L269.9,203.0 L274.9,206.6 L275.5,214.2 L276.1,221.9 L276.7,229.5 L277.3,237.1 L277.9,244.8" fill="none" stroke="#0c2020" stroke-width="11" stroke-linecap="round" stroke-linejoin="round" opacity="1.0"/><path d="M240.0,190.0 L240.5,198.0 L241.0,206.1 L241.5,214.1 L242.0,222.1 L242.5,230.1 L243.0,238.4 L242.8,247.3 L242.7,256.3 L242.5,265.3 L242.3,274.3 L242.1,283.2" fill="none" stroke="#f43f5e" stroke-width="19" stroke-linecap="round" stroke-linejoin="round" opacity="0.95"/><path d="M240.0,190.0 L240.5,198.0 L241.0,206.1 L241.5,214.1 L242.0,222.1 L242.5,230.1 L243.0,238.4 L242.8,247.3 L242.7,256.3 L242.5,265.3 L242.3,274.3 L242.1,283.2" fill="none" stroke="#0c2020" stroke-width="11" stroke-linecap="round" stroke-linejoin="round" opacity="1.0"/></g><g class="f7"><path d="M240.0,116.0 L236.9,120.9 L233.9,125.8 L230.8,130.7 L227.8,135.6 L224.7,140.5 L221.7,145.4 L217.9,145.7 L213.5,142.2 L209.0,138.7 L204.6,135.1 L200.1,131.6" fill="none" stroke="#2dd4bf" stroke-width="19" stroke-linecap="round" stroke-linejoin="round" opacity="0.95"/><path d="M240.0,116.0 L236.9,120.9 L233.9,125.8 L230.8,130.7 L227.8,135.6 L224.7,140.5 L221.7,145.4 L217.9,145.7 L213.5,142.2 L209.0,138.7 L204.6,135.1 L200.1,131.6" fill="none" stroke="#0c2020" stroke-width="11" stroke-linecap="round" stroke-linejoin="round" opacity="1.0"/><path d="M240.0,190.0 L246.9,191.7 L253.8,193.4 L260.7,195.1 L267.6,196.9 L274.4,198.6 L280.2,201.4 L280.9,208.8 L281.6,216.2 L282.3,223.6 L283.0,231.0 L283.8,238.4" fill="none" stroke="#8f2a3e" stroke-width="19" stroke-linecap="round" stroke-linejoin="round" opacity="0.95"/><path d="M240.0,190.0 L246.9,191.7 L253.8,193.4 L260.7,195.1 L267.6,196.9 L274.4,198.6 L280.2,201.4 L280.9,208.8 L281.6,216.2 L282.3,223.6 L283.0,231.0 L283.8,238.4" fill="none" stroke="#0c2020" stroke-width="11" stroke-linecap="round" stroke-linejoin="round" opacity="1.0"/><path d="M240.0,190.0 L239.6,198.9 L239.2,207.8 L238.8,216.8 L238.4,225.7 L238.0,234.6 L237.8,243.6 L237.5,252.8 L237.2,262.0 L236.9,271.2 L236.5,280.4 L236.2,289.6" fill="none" stroke="#f43f5e" stroke-width="19" stroke-linecap="round" stroke-linejoin="round" opacity="0.95"/><path d="M240.0,190.0 L239.6,198.9 L239.2,207.8 L238.8,216.8 L238.4,225.7 L238.0,234.6 L237.8,243.6 L237.5,252.8 L237.2,262.0 L236.9,271.2 L236.5,280.4 L236.2,289.6" fill="none" stroke="#0c2020" stroke-width="11" stroke-linecap="round" stroke-linejoin="round" opacity="1.0"/></g><g class="f8"><path d="M240.0,116.0 L236.6,120.9 L233.2,125.9 L229.8,130.8 L226.4,135.8 L223.0,140.7 L219.6,145.7 L215.4,146.1 L210.6,142.6 L205.7,139.1 L200.9,135.5 L196.0,132.0" fill="none" stroke="#2dd4bf" stroke-width="19" stroke-linecap="round" stroke-linejoin="round" opacity="0.95"/><path d="M240.0,116.0 L236.6,120.9 L233.2,125.9 L229.8,130.8 L226.4,135.8 L223.0,140.7 L219.6,145.7 L215.4,146.1 L210.6,142.6 L205.7,139.1 L200.9,135.5 L196.0,132.0" fill="none" stroke="#0c2020" stroke-width="11" stroke-linecap="round" stroke-linejoin="round" opacity="1.0"/><path d="M240.0,190.0 L247.2,191.4 L254.5,192.8 L261.7,194.1 L268.9,195.5 L276.2,196.9 L282.1,199.4 L282.9,206.7 L283.7,214.0 L284.5,221.4 L285.2,228.7 L286.0,236.0" fill="none" stroke="#8f2a3e" stroke-width="19" stroke-linecap="round" stroke-linejoin="round" opacity="0.95"/><path d="M240.0,190.0 L247.2,191.4 L254.5,192.8 L261.7,194.1 L268.9,195.5 L276.2,196.9 L282.1,199.4 L282.9,206.7 L283.7,214.0 L284.5,221.4 L285.2,228.7 L286.0,236.0" fill="none" stroke="#0c2020" stroke-width="11" stroke-linecap="round" stroke-linejoin="round" opacity="1.0"/><path d="M240.0,190.0 L239.3,199.3 L238.5,208.5 L237.8,217.8 L237.0,227.0 L236.3,236.3 L235.8,245.6 L235.4,254.9 L235.1,264.1 L234.7,273.4 L234.4,282.7 L234.0,292.0" fill="none" stroke="#f43f5e" stroke-width="19" stroke-linecap="round" stroke-linejoin="round" opacity="0.95"/><path d="M240.0,190.0 L239.3,199.3 L238.5,208.5 L237.8,217.8 L237.0,227.0 L236.3,236.3 L235.8,245.6 L235.4,254.9 L235.1,264.1 L234.7,273.4 L234.4,282.7 L234.0,292.0" fill="none" stroke="#0c2020" stroke-width="11" stroke-linecap="round" stroke-linejoin="round" opacity="1.0"/></g><g class="f9"><path d="M240.0,116.0 L236.9,120.9 L233.9,125.8 L230.8,130.7 L227.8,135.6 L224.7,140.5 L221.7,145.4 L217.9,145.7 L213.5,142.2 L209.0,138.7 L204.6,135.1 L200.1,131.6" fill="none" stroke="#2dd4bf" stroke-width="19" stroke-linecap="round" stroke-linejoin="round" opacity="0.95"/><path d="M240.0,116.0 L236.9,120.9 L233.9,125.8 L230.8,130.7 L227.8,135.6 L224.7,140.5 L221.7,145.4 L217.9,145.7 L213.5,142.2 L209.0,138.7 L204.6,135.1 L200.1,131.6" fill="none" stroke="#0c2020" stroke-width="11" stroke-linecap="round" stroke-linejoin="round" opacity="1.0"/><path d="M240.0,190.0 L246.9,191.7 L253.8,193.4 L260.7,195.1 L267.6,196.9 L274.4,198.6 L280.2,201.4 L280.9,208.8 L281.6,216.2 L282.3,223.6 L283.0,231.0 L283.8,238.4" fill="none" stroke="#8f2a3e" stroke-width="19" stroke-linecap="round" stroke-linejoin="round" opacity="0.95"/><path d="M240.0,190.0 L246.9,191.7 L253.8,193.4 L260.7,195.1 L267.6,196.9 L274.4,198.6 L280.2,201.4 L280.9,208.8 L281.6,216.2 L282.3,223.6 L283.0,231.0 L283.8,238.4" fill="none" stroke="#0c2020" stroke-width="11" stroke-linecap="round" stroke-linejoin="round" opacity="1.0"/><path d="M240.0,190.0 L239.6,198.9 L239.2,207.8 L238.8,216.8 L238.4,225.7 L238.0,234.6 L237.8,243.6 L237.5,252.8 L237.2,262.0 L236.9,271.2 L236.5,280.4 L236.2,289.6" fill="none" stroke="#f43f5e" stroke-width="19" stroke-linecap="round" stroke-linejoin="round" opacity="0.95"/><path d="M240.0,190.0 L239.6,198.9 L239.2,207.8 L238.8,216.8 L238.4,225.7 L238.0,234.6 L237.8,243.6 L237.5,252.8 L237.2,262.0 L236.9,271.2 L236.5,280.4 L236.2,289.6" fill="none" stroke="#0c2020" stroke-width="11" stroke-linecap="round" stroke-linejoin="round" opacity="1.0"/></g><g class="f10"><path d="M240.0,116.0 L237.9,120.8 L235.7,125.5 L233.6,130.3 L231.5,135.1 L229.4,139.8 L227.2,144.6 L224.4,144.8 L221.1,141.2 L217.7,137.6 L214.4,134.0 L211.0,130.4" fill="none" stroke="#2dd4bf" stroke-width="19" stroke-linecap="round" stroke-linejoin="round" opacity="0.95"/><path d="M240.0,116.0 L237.9,120.8 L235.7,125.5 L233.6,130.3 L231.5,135.1 L229.4,139.8 L227.2,144.6 L224.4,144.8 L221.1,141.2 L217.7,137.6 L214.4,134.0 L211.0,130.4" fill="none" stroke="#0c2020" stroke-width="11" stroke-linecap="round" stroke-linejoin="round" opacity="1.0"/><path d="M240.0,190.0 L246.0,192.6 L252.0,195.2 L258.0,197.8 L263.9,200.4 L269.9,203.0 L274.9,206.6 L275.5,214.2 L276.1,221.9 L276.7,229.5 L277.3,237.1 L277.9,244.8" fill="none" stroke="#8f2a3e" stroke-width="19" stroke-linecap="round" stroke-linejoin="round" opacity="0.95"/><path d="M240.0,190.0 L246.0,192.6 L252.0,195.2 L258.0,197.8 L263.9,200.4 L269.9,203.0 L274.9,206.6 L275.5,214.2 L276.1,221.9 L276.7,229.5 L277.3,237.1 L277.9,244.8" fill="none" stroke="#0c2020" stroke-width="11" stroke-linecap="round" stroke-linejoin="round" opacity="1.0"/><path d="M240.0,190.0 L240.5,198.0 L241.0,206.1 L241.5,214.1 L242.0,222.1 L242.5,230.1 L243.0,238.4 L242.8,247.3 L242.7,256.3 L242.5,265.3 L242.3,274.3 L242.1,283.2" fill="none" stroke="#f43f5e" stroke-width="19" stroke-linecap="round" stroke-linejoin="round" opacity="0.95"/><path d="M240.0,190.0 L240.5,198.0 L241.0,206.1 L241.5,214.1 L242.0,222.1 L242.5,230.1 L243.0,238.4 L242.8,247.3 L242.7,256.3 L242.5,265.3 L242.3,274.3 L242.1,283.2" fill="none" stroke="#0c2020" stroke-width="11" stroke-linecap="round" stroke-linejoin="round" opacity="1.0"/></g><g class="f11"><path d="M240.0,116.0 L239.2,120.6 L238.4,125.2 L237.5,129.7 L236.7,134.3 L235.9,138.9 L235.1,143.5 L233.7,143.4 L231.9,139.7 L230.0,136.1 L228.2,132.5 L226.4,128.8" fill="none" stroke="#2dd4bf" stroke-width="19" stroke-linecap="round" stroke-linejoin="round" opacity="0.95"/><path d="M240.0,116.0 L239.2,120.6 L238.4,125.2 L237.5,129.7 L236.7,134.3 L235.9,138.9 L235.1,143.5 L233.7,143.4 L231.9,139.7 L230.0,136.1 L228.2,132.5 L226.4,128.8" fill="none" stroke="#0c2020" stroke-width="11" stroke-linecap="round" stroke-linejoin="round" opacity="1.0"/><path d="M240.0,190.0 L244.7,193.9 L249.4,197.7 L254.1,201.6 L258.8,205.5 L263.5,209.4 L267.5,214.0 L267.9,222.0 L268.3,229.9 L268.7,237.8 L269.1,245.8 L269.5,253.7" fill="none" stroke="#8f2a3e" stroke-width="19" stroke-linecap="round" stroke-linejoin="round" opacity="0.95"/><path d="M240.0,190.0 L244.7,193.9 L249.4,197.7 L254.1,201.6 L258.8,205.5 L263.5,209.4 L267.5,214.0 L267.9,222.0 L268.3,229.9 L268.7,237.8 L269.1,245.8 L269.5,253.7" fill="none" stroke="#0c2020" stroke-width="11" stroke-linecap="round" stroke-linejoin="round" opacity="1.0"/><path d="M240.0,190.0 L241.8,196.8 L243.6,203.5 L245.3,210.3 L247.1,217.1 L248.9,223.8 L250.5,231.0 L250.5,239.6 L250.5,248.3 L250.5,257.0 L250.5,265.6 L250.5,274.3" fill="none" stroke="#f43f5e" stroke-width="19" stroke-linecap="round" stroke-linejoin="round" opacity="0.95"/><path d="M240.0,190.0 L241.8,196.8 L243.6,203.5 L245.3,210.3 L247.1,217.1 L248.9,223.8 L250.5,231.0 L250.5,239.6 L250.5,248.3 L250.5,257.0 L250.5,265.6 L250.5,274.3" fill="none" stroke="#0c2020" stroke-width="11" stroke-linecap="round" stroke-linejoin="round" opacity="1.0"/></g><g class="f12"><path d="M240.0,116.0 L240.7,120.4 L241.3,124.7 L242.0,129.1 L242.7,133.5 L243.4,137.9 L244.0,142.2 L244.3,141.8 L244.2,138.1 L244.2,134.4 L244.1,130.7 L244.0,127.0" fill="none" stroke="#2dd4bf" stroke-width="19" stroke-linecap="round" stroke-linejoin="round" opacity="0.95"/><path d="M240.0,116.0 L240.7,120.4 L241.3,124.7 L242.0,129.1 L242.7,133.5 L243.4,137.9 L244.0,142.2 L244.3,141.8 L244.2,138.1 L244.2,134.4 L244.1,130.7 L244.0,127.0" fill="none" stroke="#0c2020" stroke-width="11" stroke-linecap="round" stroke-linejoin="round" opacity="1.0"/><path d="M240.0,190.0 L243.2,195.3 L246.5,200.6 L249.7,206.0 L253.0,211.3 L256.2,216.6 L259.0,222.5 L259.2,230.8 L259.4,239.1 L259.6,247.4 L259.8,255.7 L260.0,264.0" fill="none" stroke="#8f2a3e" stroke-width="19" stroke-linecap="round" stroke-linejoin="round" opacity="0.95"/><path d="M240.0,190.0 L243.2,195.3 L246.5,200.6 L249.7,206.0 L253.0,211.3 L256.2,216.6 L259.0,222.5 L259.2,230.8 L259.4,239.1 L259.6,247.4 L259.8,255.7 L260.0,264.0" fill="none" stroke="#0c2020" stroke-width="11" stroke-linecap="round" stroke-linejoin="round" opacity="1.0"/><path d="M240.0,190.0 L243.2,195.3 L246.5,200.6 L249.7,206.0 L253.0,211.3 L256.2,216.6 L259.0,222.5 L259.2,230.8 L259.4,239.1 L259.6,247.4 L259.8,255.7 L260.0,264.0" fill="none" stroke="#f43f5e" stroke-width="19" stroke-linecap="round" stroke-linejoin="round" opacity="0.95"/><path d="M240.0,190.0 L243.2,195.3 L246.5,200.6 L249.7,206.0 L253.0,211.3 L256.2,216.6 L259.0,222.5 L259.2,230.8 L259.4,239.1 L259.6,247.4 L259.8,255.7 L260.0,264.0" fill="none" stroke="#0c2020" stroke-width="11" stroke-linecap="round" stroke-linejoin="round" opacity="1.0"/></g><g class="f13"><path d="M240.0,116.0 L242.2,120.2 L244.3,124.3 L246.5,128.5 L248.7,132.6 L250.8,136.8 L253.0,141.0 L254.9,140.2 L256.6,136.4 L258.3,132.7 L259.9,128.9 L261.6,125.2" fill="none" stroke="#2dd4bf" stroke-width="19" stroke-linecap="round" stroke-linejoin="round" opacity="0.95"/><path d="M240.0,116.0 L242.2,120.2 L244.3,124.3 L246.5,128.5 L248.7,132.6 L250.8,136.8 L253.0,141.0 L254.9,140.2 L256.6,136.4 L258.3,132.7 L259.9,128.9 L261.6,125.2" fill="none" stroke="#0c2020" stroke-width="11" stroke-linecap="round" stroke-linejoin="round" opacity="1.0"/><path d="M240.0,190.0 L241.8,196.8 L243.6,203.5 L245.3,210.3 L247.1,217.1 L248.9,223.8 L250.5,231.0 L250.5,239.6 L250.5,248.3 L250.5,257.0 L250.5,265.6 L250.5,274.3" fill="none" stroke="#8f2a3e" stroke-width="19" stroke-linecap="round" stroke-linejoin="round" opacity="0.95"/><path d="M240.0,190.0 L241.8,196.8 L243.6,203.5 L245.3,210.3 L247.1,217.1 L248.9,223.8 L250.5,231.0 L250.5,239.6 L250.5,248.3 L250.5,257.0 L250.5,265.6 L250.5,274.3" fill="none" stroke="#0c2020" stroke-width="11" stroke-linecap="round" stroke-linejoin="round" opacity="1.0"/><path d="M240.0,190.0 L244.7,193.9 L249.4,197.7 L254.1,201.6 L258.8,205.5 L263.5,209.4 L267.5,214.0 L267.9,222.0 L268.3,229.9 L268.7,237.8 L269.1,245.8 L269.5,253.7" fill="none" stroke="#f43f5e" stroke-width="19" stroke-linecap="round" stroke-linejoin="round" opacity="0.95"/><path d="M240.0,190.0 L244.7,193.9 L249.4,197.7 L254.1,201.6 L258.8,205.5 L263.5,209.4 L267.5,214.0 L267.9,222.0 L268.3,229.9 L268.7,237.8 L269.1,245.8 L269.5,253.7" fill="none" stroke="#0c2020" stroke-width="11" stroke-linecap="round" stroke-linejoin="round" opacity="1.0"/></g><g class="f14"><path d="M240.0,116.0 L243.5,120.0 L246.9,124.0 L250.4,127.9 L253.9,131.9 L257.4,135.9 L260.8,139.9 L264.2,138.8 L267.4,135.0 L270.6,131.2 L273.8,127.4 L277.0,123.6" fill="none" stroke="#2dd4bf" stroke-width="19" stroke-linecap="round" stroke-linejoin="round" opacity="0.95"/><path d="M240.0,116.0 L243.5,120.0 L246.9,124.0 L250.4,127.9 L253.9,131.9 L257.4,135.9 L260.8,139.9 L264.2,138.8 L267.4,135.0 L270.6,131.2 L273.8,127.4 L277.0,123.6" fill="none" stroke="#0c2020" stroke-width="11" stroke-linecap="round" stroke-linejoin="round" opacity="1.0"/><path d="M240.0,190.0 L240.5,198.0 L241.0,206.1 L241.5,214.1 L242.0,222.1 L242.5,230.1 L243.0,238.4 L242.8,247.3 L242.7,256.3 L242.5,265.3 L242.3,274.3 L242.1,283.2" fill="none" stroke="#8f2a3e" stroke-width="19" stroke-linecap="round" stroke-linejoin="round" opacity="0.95"/><path d="M240.0,190.0 L240.5,198.0 L241.0,206.1 L241.5,214.1 L242.0,222.1 L242.5,230.1 L243.0,238.4 L242.8,247.3 L242.7,256.3 L242.5,265.3 L242.3,274.3 L242.1,283.2" fill="none" stroke="#0c2020" stroke-width="11" stroke-linecap="round" stroke-linejoin="round" opacity="1.0"/><path d="M240.0,190.0 L246.0,192.6 L252.0,195.2 L258.0,197.8 L263.9,200.4 L269.9,203.0 L274.9,206.6 L275.5,214.2 L276.1,221.9 L276.7,229.5 L277.3,237.1 L277.9,244.8" fill="none" stroke="#f43f5e" stroke-width="19" stroke-linecap="round" stroke-linejoin="round" opacity="0.95"/><path d="M240.0,190.0 L246.0,192.6 L252.0,195.2 L258.0,197.8 L263.9,200.4 L269.9,203.0 L274.9,206.6 L275.5,214.2 L276.1,221.9 L276.7,229.5 L277.3,237.1 L277.9,244.8" fill="none" stroke="#0c2020" stroke-width="11" stroke-linecap="round" stroke-linejoin="round" opacity="1.0"/></g><g class="f15"><path d="M240.0,116.0 L244.4,119.8 L248.8,123.7 L253.2,127.5 L257.6,131.4 L262.0,135.2 L266.4,139.1 L270.7,137.8 L275.0,133.9 L279.3,130.1 L283.6,126.3 L287.9,122.4" fill="none" stroke="#2dd4bf" stroke-width="19" stroke-linecap="round" stroke-linejoin="round" opacity="0.95"/><path d="M240.0,116.0 L244.4,119.8 L248.8,123.7 L253.2,127.5 L257.6,131.4 L262.0,135.2 L266.4,139.1 L270.7,137.8 L275.0,133.9 L279.3,130.1 L283.6,126.3 L287.9,122.4" fill="none" stroke="#0c2020" stroke-width="11" stroke-linecap="round" stroke-linejoin="round" opacity="1.0"/><path d="M240.0,190.0 L239.6,198.9 L239.2,207.8 L238.8,216.8 L238.4,225.7 L238.0,234.6 L237.8,243.6 L237.5,252.8 L237.2,262.0 L236.9,271.2 L236.5,280.4 L236.2,289.6" fill="none" stroke="#8f2a3e" stroke-width="19" stroke-linecap="round" stroke-linejoin="round" opacity="0.95"/><path d="M240.0,190.0 L239.6,198.9 L239.2,207.8 L238.8,216.8 L238.4,225.7 L238.0,234.6 L237.8,243.6 L237.5,252.8 L237.2,262.0 L236.9,271.2 L236.5,280.4 L236.2,289.6" fill="none" stroke="#0c2020" stroke-width="11" stroke-linecap="round" stroke-linejoin="round" opacity="1.0"/><path d="M240.0,190.0 L246.9,191.7 L253.8,193.4 L260.7,195.1 L267.6,196.9 L274.4,198.6 L280.2,201.4 L280.9,208.8 L281.6,216.2 L282.3,223.6 L283.0,231.0 L283.8,238.4" fill="none" stroke="#f43f5e" stroke-width="19" stroke-linecap="round" stroke-linejoin="round" opacity="0.95"/><path d="M240.0,190.0 L246.9,191.7 L253.8,193.4 L260.7,195.1 L267.6,196.9 L274.4,198.6 L280.2,201.4 L280.9,208.8 L281.6,216.2 L282.3,223.6 L283.0,231.0 L283.8,238.4" fill="none" stroke="#0c2020" stroke-width="11" stroke-linecap="round" stroke-linejoin="round" opacity="1.0"/></g></svg>
