<svg xmlns="http://www.w3.org/2000/svg" viewBox="0 0 480 320"><style>@keyframes k0{0%{opacity:1}11.111%{opacity:0}100%{opacity:0}}.f0{opacity:0;animation:k0 2.4s steps(1,end) infinite}@keyframes k1{0%{opacity:0}11.111%{opacity:1}16.667%{opacity:0}100%{opacity:0}}.f1{opacity:0;animation:k1 2.4s steps(1,end) infinite}@keyframes k2{0%{opacity:0}16.667%{opacity:1}22.222%{opacity:0}100%{opacity:0}}.f2{opacity:0;animation:k2 2.4s steps(1,end) infinite}@keyframes k3{0%{opacity:0}22.222%{opacity:1}27.778%{opacity:0}100%{opacity:0}}.f3{opacity:0;animation:k3 2.4s steps(1,end) infinite}@keyframes k4{0%{opacity:0}27.778%{opacity:1}33.333%{opacity:0}100%{opacity:0}}.f4{opacity:0;animation:k4 2.4s steps(1,end) infinite}@keyframes k5{0%{opacity:0}33.333%{opacity:1}38.889%{opacity:0}100%{opacity:0}}.f5{opacity:0;animation:k5 2.4s steps(1,end) infinite}@keyframes k6{0%{opacity:0}38.889%{opacity:1}44.444%{opacity:0}100%{opacity:0}}.f6{opacity:0;animation:k6 2.4s steps(1,end) infinite}@keyframes k7{0%{opacity:0}44.444%{opacity:1}50.000%{opacity:0}100%{opacity:0}}.f7{opacity:0;animation:k7 2.4s steps(1,end) infinite}@keyframes k8{0%{opacity:0}50.000%{opacity:1}61.111%{opacity:0}100%{opacity:0}}.f8{opacity:0;animation:k8 2.4s steps(1,end) infinite}@keyframes k9{0%{opacity:0}61.111%{opacity:1}66.667%{opacity:0}100%{opacity:0}}.f9{opacity:0;animation:k9 2.4s steps(1,end) infinite}@keyframes k10{0%{opacity:0}66.667%{opacity:1}72.222%{opacity:0}100%{opacity:0}}.f10{opacity:0;animation:k10 2.4s steps(1,end) infinite}@keyframes k11{0%{opacity:0}72.222%{opacity:1}77.778%{opacity:0}100%{opacity:0}}.f11{opacity:0;animation:k11 2.4s steps(1,end) infinite}@keyframes k12{0%{opacity:0}77.778%{opacity:1}83.333%{opacity:0}100%{opacity:0}}.f12{opacity:0;animation:k12 2.4s steps(1,end) infinite}@keyframes k13{0%{opacity:0}83.333%{opacity:1}88.889%{opacity:0}100%{opacity:0}}.f13{opacity:0;animation:k13 2.4s steps(1,end) infinite}@keyframes k14{0%{opacity:0}88.889%{opacity:1}94.444%{opacity:0}100%{opacity:0}}.f14{opacity:0;animation:k14 2.4s steps(1,end) infinite}@keyframes k15{0%{opacity:0}94.444%{opacity:1}100%{opacity:1}}.f15{opacity:0;animation:k15 2.4s steps(1,end) infinite}</style><path d="M40.0,292.0 L440.0,292.0" fill="none" stroke="#1f3333" stroke-width="6" stroke-linecap="round" stroke-linejoin="round" opacity="1.0"/><g class="f0"><path d="M314.0,230.0 L319.3,224.7 L324.7,219.3 L330.0,214.0 L335.3,208.7 L340.7,203.3 L346.0,198.0 L352.3,194.1 L359.3,191.1 L366.2,188.0 L373.1,185.0 L380.0,182.0" fill="none" stroke="#2dd4bf" stroke-width="21" stroke-linecap="round" stroke-linejoin="round" opacity="0.95"/><path d="M314.0,230.0 L319.3,224.7 L324.7,219.3 L330.0,214.0 L335.3,208.7 L340.7,203.3 L346.0,198.0 L352.3,194.1 L359.3,191.1 L366.2,188.0 L373.1,185.0 L380.0,182.0" fill="none" stroke="#0c2020" stroke-width="13" stroke-linecap="round" stroke-linejoin="round" opacity="1.0"/><path d="M240.0,258.0 L227.5,253.8 L215.0,249.7 L202.5,245.5 L190.0,241.3 L177.5,237.2 L165.0,233.0 L152.5,229.1 L139.8,225.4 L127.2,221.6 L114.6,217.8 L102.0,214.0" fill="none" stroke="#2dd4bf" stroke-width="21" stroke-linecap="round" stroke-linejoin="round" opacity="0.95"/><path d="M240.0,258.0 L227.5,253.8 L215.0,249.7 L202.5,245.5 L190.0,241.3 L177.5,237.2 L165.0,233.0 L152.5,229.1 L139.8,225.4 L127.2,221.6 L114.6,217.8 L102.0,214.0" fill="none" stroke="#0c2020" stroke-width="13" stroke-linecap="round" stroke-linejoin="round" opacity="1.0"/><path d="M314.0,230.0 L307.3,232.5 L300.5,235.1 L293.8,237.6 L287.1,240.2 L280.4,242.7 L273.6,245.3 L266.9,247.8 L260.2,250.4 L253.5,252.9 L246.7,255.5 L240.0,258.0" fill="none" stroke="#f43f5e" stroke-width="25" stroke-linecap="round" stroke-linejoin="round" opacity="0.95"/><path d="M314.0,230.0 L307.3,232.5 L300.5,235.1 L293.8,237.6 L287.1,240.2 L280.4,242.7 L273.6,245.3 L266.9,247.8 L260.2,250.4 L253.5,252.9 L246.7,255.5 L240.0,258.0" fill="none" stroke="#0c2020" stroke-width="17" stroke-linecap="round" stroke-linejoin="round" opacity="1.0"/><circle cx="336.0" cy="214.0" r="19.0" fill="#f43f5e" stroke="none" stroke-width="0" opacity="0.95"/><circle cx="336.0" cy="214.0" r="15.0" fill="#0c2020" stroke="none" stroke-width="6.3" opacity="1.0"/><path d="M326.7,211.0 L328.4,211.0 L330.1,211.0 L331.8,211.0 L333.5,211.0 L335.2,211.0 L336.8,211.0 L338.5,211.0 L340.2,211.0 L341.9,211.0 L343.6,211.0 L345.3,211.0" fill="none" stroke="#a7f3ee" stroke-width="5" stroke-linecap="round" stroke-linejoin="round" opacity="1.0"/></g><g class="f1"><path d="M313.7,230.0 L319.0,224.7 L324.3,219.3 L329.7,214.0 L335.0,208.7 L340.3,203.3 L345.7,198.0 L352.0,194.1 L358.9,191.1 L365.8,188.0 L372.7,185.0 L379.7,182.0" fill="none" stroke="#2dd4bf" stroke-width="21" stroke-linecap="round" stroke-linejoin="round" opacity="0.95"/><path d="M313.7,230.0 L319.0,224.7 L324.3,219.3 L329.7,214.0 L335.0,208.7 L340.3,203.3 L345.7,198.0 L352.0,194.1 L358.9,191.1 L365.8,188.0 L372.7,185.0 L379.7,182.0" fill="none" stroke="#0c2020" stroke-width="13" stroke-linecap="round" stroke-linejoin="round" opacity="1.0"/><path d="M239.7,258.0 L227.2,253.8 L214.7,249.7 L202.2,245.5 L189.7,241.3 L177.2,237.2 L164.7,233.0 L152.1,229.1 L139.5,225.4 L126.9,221.6 L114.3,217.8 L101.7,214.0" fill="none" stroke="#2dd4bf" stroke-width="21" stroke-linecap="round" stroke-linejoin="round" opacity="0.95"/><path d="M239.7,258.0 L227.2,253.8 L214.7,249.7 L202.2,245.5 L189.7,241.3 L177.2,237.2 L164.7,233.0 L152.1,229.1 L139.5,225.4 L126.9,221.6 L114.3,217.8 L101.7,214.0" fill="none" stroke="#0c2020" stroke-width="13" stroke-linecap="round" stroke-linejoin="round" opacity="1.0"/><path d="M313.7,230.0 L306.9,232.5 L300.2,235.1 L293.5,237.6 L286.7,240.2 L280.0,242.7 L273.3,245.3 L266.6,247.8 L259.8,250.4 L253.1,252.9 L246.4,255.5 L239.7,258.0" fill="none" stroke="#f43f5e" stroke-width="25" stroke-linecap="round" stroke-linejoin="round" opacity="0.95"/><path d="M313.7,230.0 L306.9,232.5 L300.2,235.1 L293.5,237.6 L286.7,240.2 L280.0,242.7 L273.3,245.3 L266.6,247.8 L259.8,250.4 L253.1,252.9 L246.4,255.5 L239.7,258.0" fill="none" stroke="#0c2020" stroke-width="17" stroke-linecap="round" stroke-linejoin="round" opacity="1.0"/><circle cx="335.7" cy="214.0" r="19.0" fill="#f43f5e" stroke="none" stroke-width="0" opacity="0.95"/><circle cx="335.7" cy="214.0" r="15.0" fill="#0c2020" stroke="none" stroke-width="6.3" opacity="1.0"/><path d="M326.4,211.0 L328.0,211.0 L329.7,211.0 L331.4,211.0 L333.1,211.0 L334.8,211.0 L336.5,211.0 L338.2,211.0 L339.9,211.0 L341.6,211.0 L343.3,211.0 L345.0,211.0" fill="none" stroke="#a7f3ee" stroke-width="5" stroke-linecap="round" stroke-linejoin="round" opacity="1.0"/></g><g class="f2"><path d="M312.8,230.0 L318.1,224.7 L323.4,219.3 L328.8,214.0 L334.1,208.7 L339.4,203.3 L344.8,198.0 L351.1,194.1 L358.0,191.1 L364.9,188.0 L371.8,185.0 L378.8,182.0" fill="none" stroke="#2dd4bf" stroke-width="21" stroke-linecap="round" stroke-linejoin="round" opacity="0.95"/><path d="M312.8,230.0 L318.1,224.7 L323.4,219.3 L328.8,214.0 L334.1,208.7 L339.4,203.3 L344.8,198.0 L351.1,194.1 L358.0,191.1 L364.9,188.0 L371.8,185.0 L378.8,182.0" fill="none" stroke="#0c2020" stroke-width="13" stroke-linecap="round" stroke-linejoin="round" opacity="1.0"/><path d="M238.8,258.0 L226.3,253.8 L213.8,249.7 L201.3,245.5 L188.8,241.3 L176.3,237.2 L163.8,233.0 L151.2,229.1 L138.6,225.4 L126.0,221.6 L113.4,217.8 L100.8,214.0" fill="none" stroke="#2dd4bf" stroke-width="21" stroke-linecap="round" stroke-linejoin="round" opacity="0.95"/><path d="M238.8,258.0 L226.3,253.8 L213.8,249.7 L201.3,245.5 L188.8,241.3 L176.3,237.2 L163.8,233.0 L151.2,229.1 L138.6,225.4 L126.0,221.6 L113.4,217.8 L100.8,214.0" fill="none" stroke="#0c2020" stroke-width="13" stroke-linecap="round" stroke-linejoin="round" opacity="1.0"/><path d="M312.8,230.0 L306.0,232.5 L299.3,235.1 L292.6,237.6 L285.8,240.2 L279.1,242.7 L272.4,245.3 L265.7,247.8 L258.9,250.4 L252.2,252.9 L245.5,255.5 L238.8,258.0" fill="none" stroke="#f43f5e" stroke-width="25" stroke-linecap="round" stroke-linejoin="round" opacity="0.95"/><path d="M312.8,230.0 L306.0,232.5 L299.3,235.1 L292.6,237.6 L285.8,240.2 L279.1,242.7 L272.4,245.3 L265.7,247.8 L258.9,250.4 L252.2,252.9 L245.5,255.5 L238.8,258.0" fill="none" stroke="#0c2020" stroke-width="17" stroke-linecap="round" stroke-linejoin="round" opacity="1.0"/><circle cx="334.8" cy="214.0" r="19.0" fill="#f43f5e" stroke="none" stroke-width="0" opacity="0.95"/><circle cx="334.8" cy="214.0" r="15.0" fill="#0c2020" stroke="none" stroke-width="6.3" opacity="1.0"/><path d="M325.4,211.0 L327.1,211.0 L328.8,211.0 L330.5,211.0 L332.2,211.0 L333.9,211.0 L335.6,211.0 L337.3,211.0 L339.0,211.0 L340.7,211.0 L342.4,211.0 L344.1,211.0" fill="none" stroke="#a7f3ee" stroke-width="5" stroke-linecap="round" stroke-linejoin="round" opacity="1.0"/></g><g class="f3"><path d="M311.5,230.0 L316.8,224.7 L322.1,219.3 L327.5,214.0 L332.8,208.7 L338.1,203.3 L343.5,198.0 L349.8,194.1 L356.7,191.1 L363.6,188.0 L370.6,185.0 L377.5,182.0" fill="none" stroke="#2dd4bf" stroke-width="21" stroke-linecap="round" stroke-linejoin="round" opacity="0.95"/><path d="M311.5,230.0 L316.8,224.7 L322.1,219.3 L327.5,214.0 L332.8,208.7 L338.1,203.3 L343.5,198.0 L349.8,194.1 L356.7,191.1 L363.6,188.0 L370.6,185.0 L377.5,182.0" fill="none" stroke="#0c2020" stroke-width="13" stroke-linecap="round" stroke-linejoin="round" opacity="1.0"/><path d="M237.5,258.0 L225.0,253.8 L212.5,249.7 L200.0,245.5 L187.5,241.3 L175.0,237.2 L162.5,233.0 L149.9,229.1 L137.3,225.4 L124.7,221.6 L112.1,217.8 L99.5,214.0" fill="none" stroke="#2dd4bf" stroke-width="21" stroke-linecap="round" stroke-linejoin="round" opacity="0.95"/><path d="M237.5,258.0 L225.0,253.8 L212.5,249.7 L200.0,245.5 L187.5,241.3 L175.0,237.2 L162.5,233.0 L149.9,229.1 L137.3,225.4 L124.7,221.6 L112.1,217.8 L99.5,214.0" fill="none" stroke="#0c2020" stroke-width="13" stroke-linecap="round" stroke-linejoin="round" opacity="1.0"/><path d="M311.5,230.0 L304.7,232.5 L298.0,235.1 L291.3,237.6 L284.6,240.2 L277.8,242.7 L271.1,245.3 L264.4,247.8 L257.7,250.4 L250.9,252.9 L244.2,255.5 L237.5,258.0" fill="none" stroke="#f43f5e" stroke-width="25" stroke-linecap="round" stroke-linejoin="round" opacity="0.95"/><path d="M311.5,230.0 L304.7,232.5 L298.0,235.1 L291.3,237.6 L284.6,240.2 L277.8,242.7 L271.1,245.3 L264.4,247.8 L257.7,250.4 L250.9,252.9 L244.2,255.5 L237.5,258.0" fill="none" stroke="#0c2020" stroke-width="17" stroke-linecap="round" stroke-linejoin="round" opacity="1.0"/><circle cx="333.5" cy="214.0" r="19.0" fill="#f43f5e" stroke="none" stroke-width="0" opacity="0.95"/><circle cx="333.5" cy="214.0" r="15.0" fill="#0c2020" stroke="none" stroke-width="6.3" opacity="1.0"/><path d="M324.2,211.0 L325.9,211.0 L327.6,211.0 L329.2,211.0 L330.9,211.0 L332.6,211.0 L334.3,211.0 L336.0,211.0 L337.7,211.0 L339.4,211.0 L341.1,211.0 L342.8,211.0" fill="none" stroke="#a7f3ee" stroke-width="5" stroke-linecap="round" stroke-linejoin="round" opacity="1.0"/></g><g class="f4"><path d="M310.0,230.0 L315.3,224.7 L320.7,219.3 L326.0,214.0 L331.3,208.7 L336.7,203.3 L342.0,198.0 L348.3,194.1 L355.3,191.1 L362.2,188.0 L369.1,185.0 L376.0,182.0" fill="none" stroke="#2dd4bf" stroke-width="21" stroke-linecap="round" stroke-linejoin="round" opacity="0.95"/><path d="M310.0,230.0 L315.3,224.7 L320.7,219.3 L326.0,214.0 L331.3,208.7 L336.7,203.3 L342.0,198.0 L348.3,194.1 L355.3,191.1 L362.2,188.0 L369.1,185.0 L376.0,182.0" fill="none" stroke="#0c2020" stroke-width="13" stroke-linecap="round" stroke-linejoin="round" opacity="1.0"/><path d="M236.0,258.0 L223.5,253.8 L211.0,249.7 L198.5,245.5 L186.0,241.3 L173.5,237.2 L161.0,233.0 L148.5,229.1 L135.8,225.4 L123.2,221.6 L110.6,217.8 L98.0,214.0" fill="none" stroke="#2dd4bf" stroke-width="21" stroke-linecap="round" stroke-linejoin="round" opacity="0.95"/><path d="M236.0,258.0 L223.5,253.8 L211.0,249.7 L198.5,245.5 L186.0,241.3 L173.5,237.2 L161.0,233.0 L148.5,229.1 L135.8,225.4 L123.2,221.6 L110.6,217.8 L98.0,214.0" fill="none" stroke="#0c2020" stroke-width="13" stroke-linecap="round" stroke-linejoin="round" opacity="1.0"/><path d="M310.0,230.0 L303.3,232.5 L296.5,235.1 L289.8,237.6 L283.1,240.2 L276.4,242.7 L269.6,245.3 L262.9,247.8 L256.2,250.4 L249.5,252.9 L242.7,255.5 L236.0,258.0" fill="none" stroke="#f43f5e" stroke-width="25" stroke-linecap="round" stroke-linejoin="round" opacity="0.95"/><path d="M310.0,230.0 L303.3,232.5 L296.5,235.1 L289.8,237.6 L283.1,240.2 L276.4,242.7 L269.6,245.3 L262.9,247.8 L256.2,250.4 L249.5,252.9 L242.7,255.5 L236.0,258.0" fill="none" stroke="#0c2020" stroke-width="17" stroke-linecap="round" stroke-linejoin="round" opacity="1.0"/><circle cx="332.0" cy="214.0" r="19.0" fill="#f43f5e" stroke="none" stroke-width="0" opacity="0.95"/><circle cx="332.0" cy="214.0" r="15.0" fill="#0c2020" stroke="none" stroke-width="6.3" opacity="1.0"/><path d="M322.7,211.0 L324.4,211.0 L326.1,211.0 L327.8,211.0 L329.5,211.0 L331.2,211.0 L332.8,211.0 L334.5,211.0 L336.2,211.0 L337.9,211.0 L339.6,211.0 L341.3,211.0" fill="none" stroke="#a7f3ee" stroke-width="5" stroke-linecap="round" stroke-linejoin="round" opacity="1.0"/></g><g class="f5"><path d="M308.5,230.0 L313.9,224.7 L319.2,219.3 L324.5,214.0 L329.9,208.7 L335.2,203.3 L340.5,198.0 L346.9,194.1 L353.8,191.1 L360.7,188.0 L367.6,185.0 L374.5,182.0" fill="none" stroke="#2dd4bf" stroke-width="21" stroke-linecap="round" stroke-linejoin="round" opacity="0.95"/><path d="M308.5,230.0 L313.9,224.7 L319.2,219.3 L324.5,214.0 L329.9,208.7 L335.2,203.3 L340.5,198.0 L346.9,194.1 L353.8,191.1 L360.7,188.0 L367.6,185.0 L374.5,182.0" fill="none" stroke="#0c2020" stroke-width="13" stroke-linecap="round" stroke-linejoin="round" opacity="1.0"/><path d="M234.5,258.0 L222.0,253.8 L209.5,249.7 L197.1,245.5 L184.6,241.3 L172.1,237.2 L159.6,233.0 L147.0,229.1 L134.4,225.4 L121.8,221.6 L109.1,217.8 L96.5,214.0" fill="none" stroke="#2dd4bf" stroke-width="21" stroke-linecap="round" stroke-linejoin="round" opacity="0.95"/><path d="M234.5,258.0 L222.0,253.8 L209.5,249.7 L197.1,245.5 L184.6,241.3 L172.1,237.2 L159.6,233.0 L147.0,229.1 L134.4,225.4 L121.8,221.6 L109.1,217.8 L96.5,214.0" fill="none" stroke="#0c2020" stroke-width="13" stroke-linecap="round" stroke-linejoin="round" opacity="1.0"/><path d="M308.5,230.0 L301.8,232.5 L295.1,235.1 L288.3,237.6 L281.6,240.2 L274.9,242.7 L268.2,245.3 L261.4,247.8 L254.7,250.4 L248.0,252.9 L241.3,255.5 L234.5,258.0" fill="none" stroke="#f43f5e" stroke-width="25" stroke-linecap="round" stroke-linejoin="round" opacity="0.95"/><path d="M308.5,230.0 L301.8,232.5 L295.1,235.1 L288.3,237.6 L281.6,240.2 L274.9,242.7 L268.2,245.3 L261.4,247.8 L254.7,250.4 L248.0,252.9 L241.3,255.5 L234.5,258.0" fill="none" stroke="#0c2020" stroke-width="17" stroke-linecap="round" stroke-linejoin="round" opacity="1.0"/><circle cx="330.5" cy="214.0" r="19.0" fill="#f43f5e" stroke="none" stroke-width="0" opacity="0.95"/><circle cx="330.5" cy="214.0" r="15.0" fill="#0c2020" stroke="none" stroke-width="6.3" opacity="1.0"/><path d="M321.2,211.0 L322.9,211.0 L324.6,211.0 L326.3,211.0 L328.0,211.0 L329.7,211.0 L331.4,211.0 L333.1,211.0 L334.8,211.0 L336.4,211.0 L338.1,211.0 L339.8,211.0" fill="none" stroke="#a7f3ee" stroke-width="5" stroke-linecap="round" stroke-linejoin="round" opacity="1.0"/></g><g class="f6"><path d="M307.2,230.0 L312.6,224.7 L317.9,219.3 L323.3,214.0 L328.6,208.7 L333.9,203.3 L339.3,198.0 L345.6,194.1 L352.5,191.1 L359.4,188.0 L366.3,185.0 L373.2,182.0" fill="none" stroke="#2dd4bf" stroke-width="21" stroke-linecap="round" stroke-linejoin="round" opacity="0.95"/><path d="M307.2,230.0 L312.6,224.7 L317.9,219.3 L323.3,214.0 L328.6,208.7 L333.9,203.3 L339.3,198.0 L345.6,194.1 L352.5,191.1 L359.4,188.0 L366.3,185.0 L373.2,182.0" fill="none" stroke="#0c2020" stroke-width="13" stroke-linecap="round" stroke-linejoin="round" opacity="1.0"/><path d="M233.2,258.0 L220.8,253.8 L208.3,249.7 L195.8,245.5 L183.3,241.3 L170.8,237.2 L158.3,233.0 L145.7,229.1 L133.1,225.4 L120.5,221.6 L107.9,217.8 L95.2,214.0" fill="none" stroke="#2dd4bf" stroke-width="21" stroke-linecap="round" stroke-linejoin="round" opacity="0.95"/><path d="M233.2,258.0 L220.8,253.8 L208.3,249.7 L195.8,245.5 L183.3,241.3 L170.8,237.2 L158.3,233.0 L145.7,229.1 L133.1,225.4 L120.5,221.6 L107.9,217.8 L95.2,214.0" fill="none" stroke="#0c2020" stroke-width="13" stroke-linecap="round" stroke-linejoin="round" opacity="1.0"/><path d="M307.2,230.0 L300.5,232.5 L293.8,235.1 L287.1,237.6 L280.3,240.2 L273.6,242.7 L266.9,245.3 L260.2,247.8 L253.4,250.4 L246.7,252.9 L240.0,255.5 L233.2,258.0" fill="none" stroke="#f43f5e" stroke-width="25" stroke-linecap="round" stroke-linejoin="round" opacity="0.95"/><path d="M307.2,230.0 L300.5,232.5 L293.8,235.1 L287.1,237.6 L280.3,240.2 L273.6,242.7 L266.9,245.3 L260.2,247.8 L253.4,250.4 L246.7,252.9 L240.0,255.5 L233.2,258.0" fill="none" stroke="#0c2020" stroke-width="17" stroke-linecap="round" stroke-linejoin="round" opacity="1.0"/><circle cx="329.2" cy="214.0" r="19.0" fill="#f43f5e" stroke="none" stroke-width="0" opacity="0.95"/><circle cx="329.2" cy="214.0" r="15.0" fill="#0c2020" stroke="none" stroke-width="6.3" opacity="1.0"/><path d="M319.9,211.0 L321.6,211.0 L323.3,211.0 L325.0,211.0 L326.7,211.0 L328.4,211.0 L330.1,211.0 L331.8,211.0 L333.5,211.0 L335.2,211.0 L336.9,211.0 L338.6,211.0" fill="none" stroke="#a7f3ee" stroke-width="5" stroke-linecap="round" stroke-linejoin="round" opacity="1.0"/></g><g class="f7"><path d="M306.3,230.0 L311.7,224.7 L317.0,219.3 L322.4,214.0 L327.7,208.7 L333.0,203.3 L338.4,198.0 L344.7,194.1 L351.6,191.1 L358.5,188.0 L365.4,185.0 L372.3,182.0" fill="none" stroke="#2dd4bf" stroke-width="21" stroke-linecap="round" stroke-linejoin="round" opacity="0.95"/><path d="M306.3,230.0 L311.7,224.7 L317.0,219.3 L322.4,214.0 L327.7,208.7 L333.0,203.3 L338.4,198.0 L344.7,194.1 L351.6,191.1 L358.5,188.0 L365.4,185.0 L372.3,182.0" fill="none" stroke="#0c2020" stroke-width="13" stroke-linecap="round" stroke-linejoin="round" opacity="1.0"/><path d="M232.3,258.0 L219.9,253.8 L207.4,249.7 L194.9,245.5 L182.4,241.3 L169.9,237.2 L157.4,233.0 L144.8,229.1 L132.2,225.4 L119.6,221.6 L107.0,217.8 L94.3,214.0" fill="none" stroke="#2dd4bf" stroke-width="21" stroke-linecap="round" stroke-linejoin="round" opacity="0.95"/><path d="M232.3,258.0 L219.9,253.8 L207.4,249.7 L194.9,245.5 L182.4,241.3 L169.9,237.2 L157.4,233.0 L144.8,229.1 L132.2,225.4 L119.6,221.6 L107.0,217.8 L94.3,214.0" fill="none" stroke="#0c2020" stroke-width="13" stroke-linecap="round" stroke-linejoin="round" opacity="1.0"/><path d="M306.3,230.0 L299.6,232.5 L292.9,235.1 L286.2,237.6 L279.4,240.2 L272.7,242.7 L266.0,245.3 L259.3,247.8 L252.5,250.4 L245.8,252.9 L239.1,255.5 L232.3,258.0" fill="none" stroke="#f43f5e" stroke-width="25" stroke-linecap="round" stroke-linejoin="round" opacity="0.95"/><path d="M306.3,230.0 L299.6,232.5 L292.9,235.1 L286.2,237.6 L279.4,240.2 L272.7,242.7 L266.0,245.3 L259.3,247.8 L252.5,250.4 L245.8,252.9 L239.1,255.5 L232.3,258.0" fill="none" stroke="#0c2020" stroke-width="17" stroke-linecap="round" stroke-linejoin="round" opacity="1.0"/><circle cx="328.3" cy="214.0" r="19.0" fill="#f43f5e" stroke="none" stroke-width="0" opacity="0.95"/><circle cx="328.3" cy="214.0" r="15.0" fill="#0c2020" stroke="none" stroke-width="6.3" opacity="1.0"/><path d="M319.0,211.0 L320.7,211.0 L322.4,211.0 L324.1,211.0 L325.8,211.0 L327.5,211.0 L329.2,211.0 L330.9,211.0 L332.6,211.0 L334.3,211.0 L336.0,211.0 L337.6,211.0" fill="none" stroke="#a7f3ee" stroke-width="5" stroke-linecap="round" stroke-linejoin="round" opacity="1.0"/></g><g class="f8"><path d="M306.0,230.0 L311.3,224.7 L316.7,219.3 L322.0,214.0 L327.3,208.7 L332.7,203.3 L338.0,198.0 L344.3,194.1 L351.3,191.1 L358.2,188.0 L365.1,185.0 L372.0,182.0" fill="none" stroke="#2dd4bf" stroke-width="21" stroke-linecap="round" stroke-linejoin="round" opacity="0.95"/><path d="M306.0,230.0 L311.3,224.7 L316.7,219.3 L322.0,214.0 L327.3,208.7 L332.7,203.3 L338.0,198.0 L344.3,194.1 L351.3,191.1 L358.2,188.0 L365.1,185.0 L372.0,182.0" fill="none" stroke="#0c2020" stroke-width="13" stroke-linecap="round" stroke-linejoin="round" opacity="1.0"/><path d="M232.0,258.0 L219.5,253.8 L207.0,249.7 L194.5,245.5 L182.0,241.3 L169.5,237.2 L157.0,233.0 L144.5,229.1 L131.8,225.4 L119.2,221.6 L106.6,217.8 L94.0,214.0" fill="none" stroke="#2dd4bf" stroke-width="21" stroke-linecap="round" stroke-linejoin="round" opacity="0.95"/><path d="M232.0,258.0 L219.5,253.8 L207.0,249.7 L194.5,245.5 L182.0,241.3 L169.5,237.2 L157.0,233.0 L144.5,229.1 L131.8,225.4 L119.2,221.6 L106.6,217.8 L94.0,214.0" fill="none" stroke="#0c2020" stroke-width="13" stroke-linecap="round" stroke-linejoin="round" opacity="1.0"/><path d="M306.0,230.0 L299.3,232.5 L292.5,235.1 L285.8,237.6 L279.1,240.2 L272.4,242.7 L265.6,245.3 L258.9,247.8 L252.2,250.4 L245.5,252.9 L238.7,255.5 L232.0,258.0" fill="none" stroke="#f43f5e" stroke-width="25" stroke-linecap="round" stroke-linejoin="round" opacity="0.95"/><path d="M306.0,230.0 L299.3,232.5 L292.5,235.1 L285.8,237.6 L279.1,240.2 L272.4,242.7 L265.6,245.3 L258.9,247.8 L252.2,250.4 L245.5,252.9 L238.7,255.5 L232.0,258.0" fill="none" stroke="#0c2020" stroke-width="17" stroke-linecap="round" stroke-linejoin="round" opacity="1.0"/><circle cx="328.0" cy="214.0" r="19.0" fill="#f43f5e" stroke="none" stroke-width="0" opacity="0.95"/><circle cx="328.0" cy="214.0" r="15.0" fill="#0c2020" stroke="none" stroke-width="6.3" opacity="1.0"/><path d="M318.7,211.0 L320.4,211.0 L322.1,211.0 L323.8,211.0 L325.5,211.0 L327.2,211.0 L328.8,211.0 L330.5,211.0 L332.2,211.0 L333.9,211.0 L335.6,211.0 L337.3,211.0" fill="none" stroke="#a7f3ee" stroke-width="5" stroke-linecap="round" stroke-linejoin="round" opacity="1.0"/></g><g class="f9"><path d="M306.3,230.0 L311.7,224.7 L317.0,219.3 L322.4,214.0 L327.7,208.7 L333.0,203.3 L338.4,198.0 L344.7,194.1 L351.6,191.1 L358.5,188.0 L365.4,185.0 L372.3,182.0" fill="none" stroke="#2dd4bf" stroke-width="21" stroke-linecap="round" stroke-linejoin="round" opacity="0.95"/><path d="M306.3,230.0 L311.7,224.7 L317.0,219.3 L322.4,214.0 L327.7,208.7 L333.0,203.3 L338.4,198.0 L344.7,194.1 L351.6,191.1 L358.5,188.0 L365.4,185.0 L372.3,182.0" fill="none" stroke="#0c2020" stroke-width="13" stroke-linecap="round" stroke-linejoin="round" opacity="1.0"/><path d="M232.3,258.0 L219.9,253.8 L207.4,249.7 L194.9,245.5 L182.4,241.3 L169.9,237.2 L157.4,233.0 L144.8,229.1 L132.2,225.4 L119.6,221.6 L107.0,217.8 L94.3,214.0" fill="none" stroke="#2dd4bf" stroke-width="21" stroke-linecap="round" stroke-linejoin="round" opacity="0.95"/><path d="M232.3,258.0 L219.9,253.8 L207.4,249.7 L194.9,245.5 L182.4,241.3 L169.9,237.2 L157.4,233.0 L144.8,229.1 L132.2,225.4 L119.6,221.6 L107.0,217.8 L94.3,214.0" fill="none" stroke="#0c2020" stroke-width="13" stroke-linecap="round" stroke-linejoin="round" opacity="1.0"/><path d="M306.3,230.0 L299.6,232.5 L292.9,235.1 L286.2,237.6 L279.4,240.2 L272.7,242.7 L266.0,245.3 L259.3,247.8 L252.5,250.4 L245.8,252.9 L239.1,255.5 L232.3,258.0" fill="none" stroke="#f43f5e" stroke-width="25" stroke-linecap="round" stroke-linejoin="round" opacity="0.95"/><path d="M306.3,230.0 L299.6,232.5 L292.9,235.1 L286.2,237.6 L279.4,240.2 L272.7,242.7 L266.0,245.3 L259.3,247.8 L252.5,250.4 L245.8,252.9 L239.1,255.5 L232.3,258.0" fill="none" stroke="#0c2020" stroke-width="17" stroke-linecap="round" stroke-linejoin="round" opacity="1.0"/><circle cx="328.3" cy="214.0" r="19.0" fill="#f43f5e" stroke="none" stroke-width="0" opacity="0.95"/><circle cx="328.3" cy="214.0" r="15.0" fill="#0c2020" stroke="none" stroke-width="6.3" opacity="1.0"/><path d="M319.0,211.0 L320.7,211.0 L322.4,211.0 L324.1,211.0 L325.8,211.0 L327.5,211.0 L329.2,211.0 L330.9,211.0 L332.6,211.0 L334.3,211.0 L336.0,211.0 L337.6,211.0" fill="none" stroke="#a7f3ee" stroke-width="5" stroke-linecap="round" stroke-linejoin="round" opacity="1.0"/></g><g class="f10"><path d="M307.2,230.0 L312.6,224.7 L317.9,219.3 L323.3,214.0 L328.6,208.7 L333.9,203.3 L339.3,198.0 L345.6,194.1 L352.5,191.1 L359.4,188.0 L366.3,185.0 L373.2,182.0" fill="none" stroke="#2dd4bf" stroke-width="21" stroke-linecap="round" stroke-linejoin="round" opacity="0.95"/><path d="M307.2,230.0 L312.6,224.7 L317.9,219.3 L323.3,214.0 L328.6,208.7 L333.9,203.3 L339.3,198.0 L345.6,194.1 L352.5,191.1 L359.4,188.0 L366.3,185.0 L373.2,182.0" fill="none" stroke="#0c2020" stroke-width="13" stroke-linecap="round" stroke-linejoin="round" opacity="1.0"/><path d="M233.2,258.0 L220.8,253.8 L208.3,249.7 L195.8,245.5 L183.3,241.3 L170.8,237.2 L158.3,233.0 L145.7,229.1 L133.1,225.4 L120.5,221.6 L107.9,217.8 L95.2,214.0" fill="none" stroke="#2dd4bf" stroke-width="21" stroke-linecap="round" stroke-linejoin="round" opacity="0.95"/><path d="M233.2,258.0 L220.8,253.8 L208.3,249.7 L195.8,245.5 L183.3,241.3 L170.8,237.2 L158.3,233.0 L145.7,229.1 L133.1,225.4 L120.5,221.6 L107.9,217.8 L95.2,214.0" fill="none" stroke="#0c2020" stroke-width="13" stroke-linecap="round" stroke-linejoin="round" opacity="1.0"/><path d="M307.2,230.0 L300.5,232.5 L293.8,235.1 L287.1,237.6 L280.3,240.2 L273.6,242.7 L266.9,245.3 L260.2,247.8 L253.4,250.4 L246.7,252.9 L240.0,255.5 L233.2,258.0" fill="none" stroke="#f43f5e" stroke-width="25" stroke-linecap="round" stroke-linejoin="round" opacity="0.95"/><path d="M307.2,230.0 L300.5,232.5 L293.8,235.1 L287.1,237.6 L280.3,240.2 L273.6,242.7 L266.9,245.3 L260.2,247.8 L253.4,250.4 L246.7,252.9 L240.0,255.5 L233.2,258.0" fill="none" stroke="#0c2020" stroke-width="17" stroke-linecap="round" stroke-linejoin="round" opacity="1.0"/><circle cx="329.2" cy="214.0" r="19.0" fill="#f43f5e" stroke="none" stroke-width="0" opacity="0.95"/><circle cx="329.2" cy="214.0" r="15.0" fill="#0c2020" stroke="none" stroke-width="6.3" opacity="1.0"/><path d="M319.9,211.0 L321.6,211.0 L323.3,211.0 L325.0,211.0 L326.7,211.0 L328.4,211.0 L330.1,211.0 L331.8,211.0 L333.5,211.0 L335.2,211.0 L336.9,211.0 L338.6,211.0" fill="none" stroke="#a7f3ee" stroke-width="5" stroke-linecap="round" stroke-linejoin="round" opacity="1.0"/></g><g class="f11"><path d="M308.5,230.0 L313.9,224.7 L319.2,219.3 L324.5,214.0 L329.9,208.7 L335.2,203.3 L340.5,198.0 L346.9,194.1 L353.8,191.1 L360.7,188.0 L367.6,185.0 L374.5,182.0" fill="none" stroke="#2dd4bf" stroke-width="21" stroke-linecap="round" stroke-linejoin="round" opacity="0.95"/><path d="M308.5,230.0 L313.9,224.7 L319.2,219.3 L324.5,214.0 L329.9,208.7 L335.2,203.3 L340.5,198.0 L346.9,194.1 L353.8,191.1 L360.7,188.0 L367.6,185.0 L374.5,182.0" fill="none" stroke="#0c2020" stroke-width="13" stroke-linecap="round" stroke-linejoin="round" opacity="1.0"/><path d="M234.5,258.0 L222.0,253.8 L209.5,249.7 L197.1,245.5 L184.6,241.3 L172.1,237.2 L159.6,233.0 L147.0,229.1 L134.4,225.4 L121.8,221.6 L109.1,217.8 L96.5,214.0" fill="none" stroke="#2dd4bf" stroke-width="21" stroke-linecap="round" stroke-linejoin="round" opacity="0.95"/><path d="M234.5,258.0 L222.0,253.8 L209.5,249.7 L197.1,245.5 L184.6,241.3 L172.1,237.2 L159.6,233.0 L147.0,229.1 L134.4,225.4 L121.8,221.6 L109.1,217.8 L96.5,214.0" fill="none" stroke="#0c2020" stroke-width="13" stroke-linecap="round" stroke-linejoin="round" opacity="1.0"/><path d="M308.5,230.0 L301.8,232.5 L295.1,235.1 L288.3,237.6 L281.6,240.2 L274.9,242.7 L268.2,245.3 L261.4,247.8 L254.7,250.4 L248.0,252.9 L241.3,255.5 L234.5,258.0" fill="none" stroke="#f43f5e" stroke-width="25" stroke-linecap="round" stroke-linejoin="round" opacity="0.95"/><path d="M308.5,230.0 L301.8,232.5 L295.1,235.1 L288.3,237.6 L281.6,240.2 L274.9,242.7 L268.2,245.3 L261.4,247.8 L254.7,250.4 L248.0,252.9 L241.3,255.5 L234.5,258.0" fill="none" stroke="#0c2020" stroke-width="17" stroke-linecap="round" stroke-linejoin="round" opacity="1.0"/><circle cx="330.5" cy="214.0" r="19.0" fill="#f43f5e" stroke="none" stroke-width="0" opacity="0.95"/><circle cx="330.5" cy="214.0" r="15.0" fill="#0c2020" stroke="none" stroke-width="6.3" opacity="1.0"/><path d="M321.2,211.0 L322.9,211.0 L324.6,211.0 L326.3,211.0 L328.0,211.0 L329.7,211.0 L331.4,211.0 L333.1,211.0 L334.8,211.0 L336.4,211.0 L338.1,211.0 L339.8,211.0" fill="none" stroke="#a7f3ee" stroke-width="5" stroke-linecap="round" stroke-linejoin="round" opacity="1.0"/></g><g class="f12"><path d="M310.0,230.0 L315.3,224.7 L320.7,219.3 L326.0,214.0 L331.3,208.7 L336.7,203.3 L342.0,198.0 L348.3,194.1 L355.3,191.1 L362.2,188.0 L369.1,185.0 L376.0,182.0" fill="none" stroke="#2dd4bf" stroke-width="21" stroke-linecap="round" stroke-linejoin="round" opacity="0.95"/><path d="M310.0,230.0 L315.3,224.7 L320.7,219.3 L326.0,214.0 L331.3,208.7 L336.7,203.3 L342.0,198.0 L348.3,194.1 L355.3,191.1 L362.2,188.0 L369.1,185.0 L376.0,182.0" fill="none" stroke="#0c2020" stroke-width="13" stroke-linecap="round" stroke-linejoin="round" opacity="1.0"/><path d="M236.0,258.0 L223.5,253.8 L211.0,249.7 L198.5,245.5 L186.0,241.3 L173.5,237.2 L161.0,233.0 L148.5,229.1 L135.8,225.4 L123.2,221.6 L110.6,217.8 L98.0,214.0" fill="none" stroke="#2dd4bf" stroke-width="21" stroke-linecap="round" stroke-linejoin="round" opacity="0.95"/><path d="M236.0,258.0 L223.5,253.8 L211.0,249.7 L198.5,245.5 L186.0,241.3 L173.5,237.2 L161.0,233.0 L148.5,229.1 L135.8,225.4 L123.2,221.6 L110.6,217.8 L98.0,214.0" fill="none" stroke="#0c2020" stroke-width="13" stroke-linecap="round" stroke-linejoin="round" opacity="1.0"/><path d="M310.0,230.0 L303.3,232.5 L296.5,235.1 L289.8,237.6 L283.1,240.2 L276.4,242.7 L269.6,245.3 L262.9,247.8 L256.2,250.4 L249.5,252.9 L242.7,255.5 L236.0,258.0" fill="none" stroke="#f43f5e" stroke-width="25" stroke-linecap="round" stroke-linejoin="round" opacity="0.95"/><path d="M310.0,230.0 L303.3,232.5 L296.5,235.1 L289.8,237.6 L283.1,240.2 L276.4,242.7 L269.6,245.3 L262.9,247.8 L256.2,250.4 L249.5,252.9 L242.7,255.5 L236.0,258.0" fill="none" stroke="#0c2020" stroke-width="17" stroke-linecap="round" stroke-linejoin="round" opacity="1.0"/><circle cx="332.0" cy="214.0" r="19.0" fill="#f43f5e" stroke="none" stroke-width="0" opacity="0.95"/><circle cx="332.0" cy="214.0" r="15.0" fill="#0c2020" stroke="none" stroke-width="6.3" opacity="1.0"/><path d="M322.7,211.0 L324.4,211.0 L326.1,211.0 L327.8,211.0 L329.5,211.0 L331.2,211.0 L332.8,211.0 L334.5,211.0 L336.2,211.0 L337.9,211.0 L339.6,211.0 L341.3,211.0" fill="none" stroke="#a7f3ee" stroke-width="5" stroke-linecap="round" stroke-linejoin="round" opacity="1.0"/></g><g class="f13"><path d="M311.5,230.0 L316.8,224.7 L322.1,219.3 L327.5,214.0 L332.8,208.7 L338.1,203.3 L343.5,198.0 L349.8,194.1 L356.7,191.1 L363.6,188.0 L370.6,185.0 L377.5,182.0" fill="none" stroke="#2dd4bf" stroke-width="21" stroke-linecap="round" stroke-linejoin="round" opacity="0.95"/><path d="M311.5,230.0 L316.8,224.7 L322.1,219.3 L327.5,214.0 L332.8,208.7 L338.1,203.3 L343.5,198.0 L349.8,194.1 L356.7,191.1 L363.6,188.0 L370.6,185.0 L377.5,182.0" fill="none" stroke="#0c2020" stroke-width="13" stroke-linecap="round" stroke-linejoin="round" opacity="1.0"/><path d="M237.5,258.0 L225.0,253.8 L212.5,249.7 L200.0,245.5 L187.5,241.3 L175.0,237.2 L162.5,233.0 L149.9,229.1 L137.3,225.4 L124.7,221.6 L112.1,217.8 L99.5,214.0" fill="none" stroke="#2dd4bf" stroke-width="21" stroke-linecap="round" stroke-linejoin="round" opacity="0.95"/><path d="M237.5,258.0 L225.0,253.8 L212.5,249.7 L200.0,245.5 L187.5,241.3 L175.0,237.2 L162.5,233.0 L149.9,229.1 L137.3,225.4 L124.7,221.6 L112.1,217.8 L99.5,214.0" fill="none" stroke="#0c2020" stroke-width="13" stroke-linecap="round" stroke-linejoin="round" opacity="1.0"/><path d="M311.5,230.0 L304.7,232.5 L298.0,235.1 L291.3,237.6 L284.6,240.2 L277.8,242.7 L271.1,245.3 L264.4,247.8 L257.7,250.4 L250.9,252.9 L244.2,255.5 L237.5,258.0" fill="none" stroke="#f43f5e" stroke-width="25" stroke-linecap="round" stroke-linejoin="round" opacity="0.95"/><path d="M311.5,230.0 L304.7,232.5 L298.0,235.1 L291.3,237.6 L284.6,240.2 L277.8,242.7 L271.1,245.3 L264.4,247.8 L257.7,250.4 L250.9,252.9 L244.2,255.5 L237.5,258.0" fill="none" stroke="#0c2020" stroke-width="17" stroke-linecap="round" stroke-linejoin="round" opacity="1.0"/><circle cx="333.5" cy="214.0" r="19.0" fill="#f43f5e" stroke="none" stroke-width="0" opacity="0.95"/><circle cx="333.5" cy="214.0" r="15.0" fill="#0c2020" stroke="none" stroke-width="6.3" opacity="1.0"/><path d="M324.2,211.0 L325.9,211.0 L327.6,211.0 L329.2,211.0 L330.9,211.0 L332.6,211.0 L334.3,211.0 L336.0,211.0 L337.7,211.0 L339.4,211.0 L341.1,211.0 L342.8,211.0" fill="none" stroke="#a7f3ee" stroke-width="5" stroke-linecap="round" stroke-linejoin="round" opacity="1.0"/></g><g class="f14"><path d="M312.8,230.0 L318.1,224.7 L323.4,219.3 L328.8,214.0 L334.1,208.7 L339.4,203.3 L344.8,198.0 L351.1,194.1 L358.0,191.1 L364.9,188.0 L371.8,185.0 L378.8,182.0" fill="none" stroke="#2dd4bf" stroke-width="21" stroke-linecap="round" stroke-linejoin="round" opacity="0.95"/><path d="M312.8,230.0 L318.1,224.7 L323.4,219.3 L328.8,214.0 L334.1,208.7 L339.4,203.3 L344.8,198.0 L351.1,194.1 L358.0,191.1 L364.9,188.0 L371.8,185.0 L378.8,182.0" fill="none" stroke="#0c2020" stroke-width="13" stroke-linecap="round" stroke-linejoin="round" opacity="1.0"/><path d="M238.8,258.0 L226.3,253.8 L213.8,249.7 L201.3,245.5 L188.8,241.3 L176.3,237.2 L163.8,233.0 L151.2,229.1 L138.6,225.4 L126.0,221.6 L113.4,217.8 L100.8,214.0" fill="none" stroke="#2dd4bf" stroke-width="21" stroke-linecap="round" stroke-linejoin="round" opacity="0.95"/><path d="M238.8,258.0 L226.3,253.8 L213.8,249.7 L201.3,245.5 L188.8,241.3 L176.3,237.2 L163.8,233.0 L151.2,229.1 L138.6,225.4 L126.0,221.6 L113.4,217.8 L100.8,214.0" fill="none" stroke="#0c2020" stroke-width="13" stroke-linecap="round" stroke-linejoin="round" opacity="1.0"/><path d="M312.8,230.0 L306.0,232.5 L299.3,235.1 L292.6,237.6 L285.8,240.2 L279.1,242.7 L272.4,245.3 L265.7,247.8 L258.9,250.4 L252.2,252.9 L245.5,255.5 L238.8,258.0" fill="none" stroke="#f43f5e" stroke-width="25" stroke-linecap="round" stroke-linejoin="round" opacity="0.95"/><path d="M312.8,230.0 L306.0,232.5 L299.3,235.1 L292.6,237.6 L285.8,240.2 L279.1,242.7 L272.4,245.3 L265.7,247.8 L258.9,250.4 L252.2,252.9 L245.5,255.5 L238.8,258.0" fill="none" stroke="#0c2020" stroke-width="17" stroke-linecap="round" stroke-linejoin="round" opacity="1.0"/><circle cx="334.8" cy="214.0" r="19.0" fill="#f43f5e" stroke="none" stroke-width="0" opacity="0.95"/><circle cx="334.8" cy="214.0" r="15.0" fill="#0c2020" stroke="none" stroke-width="6.3" opacity="1.0"/><path d="M325.4,211.0 L327.1,211.0 L328.8,211.0 L330.5,211.0 L332.2,211.0 L333.9,211.0 L335.6,211.0 L337.3,211.0 L339.0,211.0 L340.7,211.0 L342.4,211.0 L344.1,211.0" fill="none" stroke="#a7f3ee" stroke-width="5" stroke-linecap="round" stroke-linejoin="round" opacity="1.0"/></g><g class="f15"><path d="M313.7,230.0 L319.0,224.7 L324.3,219.3 L329.7,214.0 L335.0,208.7 L340.3,203.3 L345.7,198.0 L352.0,194.1 L358.9,191.1 L365.8,188.0 L372.7,185.0 L379.7,182.0" fill="none" stroke="#2dd4bf" stroke-width="21" stroke-linecap="round" stroke-linejoin="round" opacity="0.95"/><path d="M313.7,230.0 L319.0,224.7 L324.3,219.3 L329.7,214.0 L335.0,208.7 L340.3,203.3 L345.7,198.0 L352.0,194.1 L358.9,191.1 L365.8,188.0 L372.7,185.0 L379.7,182.0" fill="none" stroke="#0c2020" stroke-width="13" stroke-linecap="round" stroke-linejoin="round" opacity="1.0"/><path d="M239.7,258.0 L227.2,253.8 L214.7,249.7 L202.2,245.5 L189.7,241.3 L177.2,237.2 L164.7,233.0 L152.1,229.1 L139.5,225.4 L126.9,221.6 L114.3,217.8 L101.7,214.0" fill="none" stroke="#2dd4bf" stroke-width="21" stroke-linecap="round" stroke-linejoin="round" opacity="0.95"/><path d="M239.7,258.0 L227.2,253.8 L214.7,249.7 L202.2,245.5 L189.7,241.3 L177.2,237.2 L164.7,233.0 L152.1,229.1 L139.5,225.4 L126.9,221.6 L114.3,217.8 L101.7,214.0" fill="none" stroke="#0c2020" stroke-width="13" stroke-linecap="round" stroke-linejoin="round" opacity="1.0"/><path d="M313.7,230.0 L306.9,232.5 L300.2,235.1 L293.5,237.6 L286.7,240.2 L280.0,242.7 L273.3,245.3 L266.6,247.8 L259.8,250.4 L253.1,252.9 L246.4,255.5 L239.7,258.0" fill="none" stroke="#f43f5e" stroke-width="25" stroke-linecap="round" stroke-linejoin="round" opacity="0.95"/><path d="M313.7,230.0 L306.9,232.5 L300.2,235.1 L293.5,237.6 L286.7,240.2 L280.0,242.7 L273.3,245.3 L266.6,247.8 L259.8,250.4 L253.1,252.9 L246.4,255.5 L239.7,258.0" fill="none" stroke="#0c2020" stroke-width="17" stroke-linecap="round" stroke-linejoin="round" opacity="1.0"/><circle cx="335.7" cy="214.0" r="19.0" fill="#f43f5e" stroke="none" stroke-width="0" opacity="0.95"/><circle cx="335.7" cy="214.0" r="15.0" fill="#0c2020" stroke="none" stroke-width="6.3" opacity="1.0"/><path d="M326.4,211.0 L328.0,211.0 L329.7,211.0 L331.4,211.0 L333.1,211.0 L334.8,211.0 L336.5,211.0 L338.2,211.0 L339.9,211.0 L341.6,211.0 L343.3,211.0 L345.0,211.0" fill="none" stroke="#a7f3ee" stroke-width="5" stroke-linecap="round" stroke-linejoin="round" opacity="1.0"/></g></svg>
