<svg xmlns="http://www.w3.org/2000/svg" viewBox="0 0 480 320"><style>@keyframes k0{0%{opacity:1}11.111%{opacity:0}100%{opacity:0}}.f0{opacity:0;animation:k0 2.4s steps(1,end) infinite}@keyframes k1{0%{opacity:0}11.111%{opacity:1}16.667%{opacity:0}100%{opacity:0}}.f1{opacity:0;animation:k1 2.4s steps(1,end) infinite}@keyframes k2{0%{opacity:0}16.667%{opacity:1}22.222%{opacity:0}100%{opacity:0}}.f2{opacity:0;animation:k2 2.4s steps(1,end) infinite}@keyframes k3{0%{opacity:0}22.222%{opacity:1}27.778%{opacity:0}100%{opacity:0}}.f3{opacity:0;animation:k3 2.4s steps(1,end) infinite}@keyframes k4{0%{opacity:0}27.778%{opacity:1}33.333%{opacity:0}100%{opacity:0}}.f4{opacity:0;animation:k4 2.4s steps(1,end) infinite}@keyframes k5{0%{opacity:0}33.333%{opacity:1}38.889%{opacity:0}100%{opacity:0}}.f5{opacity:0;animation:k5 2.4s steps(1,end) infinite}@keyframes k6{0%{opacity:0}38.889%{opacity:1}44.444%{opacity:0}100%{opacity:0}}.f6{opacity:0;animation:k6 2.4s steps(1,end) infinite}@keyframes k7{0%{opacity:0}44.444%{opacity:1}50.000%{opacity:0}100%{opacity:0}}.f7{opacity:0;animation:k7 2.4s steps(1,end) infinite}@keyframes k8{0%{opacity:0}50.000%{opacity:1}61.111%{opacity:0}100%{opacity:0}}.f8{opacity:0;animation:k8 2.4s steps(1,end) infinite}@keyframes k9{0%{opacity:0}61.111%{opacity:1}66.667%{opacity:0}100%{opacity:0}}.f9{opacity:0;animation:k9 2.4s steps(1,end) infinite}@keyframes k10{0%{opacity:0}66.667%{opacity:1}72.222%{opacity:0}100%{opacity:0}}.f10{opacity:0;animation:k10 2.4s steps(1,end) infinite}@keyframes k11{0%{opacity:0}72.222%{opacity:1}77.778%{opacity:0}100%{opacity:0}}.f11{opacity:0;animation:k11 2.4s steps(1,end) infinite}@keyframes k12{0%{opacity:0}77.778%{opacity:1}83.333%{opacity:0}100%{opacity:0}}.f12{opacity:0;animation:k12 2.4s steps(1,end) infinite}@keyframes k13{0%{opacity:0}83.333%{opacity:1}88.889%{opacity:0}100%{opacity:0}}.f13{opacity:0;animation:k13 2.4s steps(1,end) infinite}@keyframes k14{0%{opacity:0}88.889%{opacity:1}94.444%{opacity:0}100%{opacity:0}}.f14{opacity:0;animation:k14 2.4s steps(1,end) infinite}@keyframes k15{0%{opacity:0}94.444%{opacity:1}100%{opacity:1}}.f15{opacity:0;animation:k15 2.4s steps(1,end) infinite}</style><path d="M40.0,292.0 L440.0,292.0" fill="none" stroke="#1f3333" stroke-width="6" stroke-linecap="round" stroke-linejoin="round" opacity="1.0"/><g class="f0"><path d="M220.0,210.0 L217.1,217.5 L214.2,224.9 L211.3,232.4 L208.4,239.8 L205.5,247.3 L202.5,254.7 L199.6,262.2 L196.7,269.6 L193.8,277.1 L190.9,284.5 L188.0,292.0" fill="none" stroke="#2dd4bf" stroke-width="19" stroke-linecap="round" stroke-linejoin="round" opacity="0.95"/><path d="M220.0,210.0 L217.1,217.5 L214.2,224.9 L211.3,232.4 L208.4,239.8 L205.5,247.3 L202.5,254.7 L199.6,262.2 L196.7,269.6 L193.8,277.1 L190.9,284.5 L188.0,292.0" fill="none" stroke="#0c2020" stroke-width="11" stroke-linecap="round" stroke-linejoin="round" opacity="1.0"/><path d="M266.0,168.0 L266.4,179.3 L266.7,190.5 L267.1,201.8 L267.4,213.1 L267.8,224.4 L268.1,235.6 L268.5,246.9 L268.9,258.2 L269.2,269.5 L269.6,280.7 L270.0,292.0" fill="none" stroke="#2dd4bf" stroke-width="19" stroke-linecap="round" stroke-linejoin="round" opacity="0.95"/><path d="M266.0,168.0 L266.4,179.3 L266.7,190.5 L267.1,201.8 L267.4,213.1 L267.8,224.4 L268.1,235.6 L268.5,246.9 L268.9,258.2 L269.2,269.5 L269.6,280.7 L270.0,292.0" fill="none" stroke="#0c2020" stroke-width="11" stroke-linecap="round" stroke-linejoin="round" opacity="1.0"/><path d="M220.0,210.0 L224.2,206.2 L228.4,202.4 L232.5,198.5 L236.7,194.7 L240.9,190.9 L245.1,187.1 L249.3,183.3 L253.5,179.5 L257.6,175.6 L261.8,171.8 L266.0,168.0" fill="none" stroke="#f43f5e" stroke-width="23" stroke-linecap="round" stroke-linejoin="round" opacity="0.95"/><path d="M220.0,210.0 L224.2,206.2 L228.4,202.4 L232.5,198.5 L236.7,194.7 L240.9,190.9 L245.1,187.1 L249.3,183.3 L253.5,179.5 L257.6,175.6 L261.8,171.8 L266.0,168.0" fill="none" stroke="#0c2020" stroke-width="15" stroke-linecap="round" stroke-linejoin="round" opacity="1.0"/><circle cx="214.0" cy="236.0" r="19.0" fill="#f43f5e" stroke="none" stroke-width="0" opacity="0.95"/><circle cx="214.0" cy="236.0" r="15.0" fill="#0c2020" stroke="none" stroke-width="6.3" opacity="1.0"/><path d="M212.0,219.0 L209.0,222.0 L206.0,225.0 L203.1,227.9 L200.1,230.9 L197.1,233.9 L194.1,236.9 L193.5,240.5 L194.4,244.6 L195.3,248.8 L196.1,252.9 L197.0,257.0" fill="none" stroke="#2dd4bf" stroke-width="5" stroke-linecap="round" stroke-linejoin="round" opacity="1.0"/><path d="M204.7,233.0 L206.4,233.0 L208.1,233.0 L209.8,233.0 L211.5,233.0 L213.2,233.0 L214.8,233.0 L216.5,233.0 L218.2,233.0 L219.9,233.0 L221.6,233.0 L223.3,233.0" fill="none" stroke="#a7f3ee" stroke-width="5" stroke-linecap="round" stroke-linejoin="round" opacity="1.0"/></g><g class="f1"><path d="M224.0,209.4 L221.2,216.9 L218.3,224.4 L215.5,231.9 L212.7,239.4 L209.9,246.9 L207.1,254.5 L204.2,262.0 L201.4,269.5 L198.6,277.0 L195.8,284.5 L192.9,292.0" fill="none" stroke="#2dd4bf" stroke-width="19" stroke-linecap="round" stroke-linejoin="round" opacity="0.95"/><path d="M224.0,209.4 L221.2,216.9 L218.3,224.4 L215.5,231.9 L212.7,239.4 L209.9,246.9 L207.1,254.5 L204.2,262.0 L201.4,269.5 L198.6,277.0 L195.8,284.5 L192.9,292.0" fill="none" stroke="#0c2020" stroke-width="11" stroke-linecap="round" stroke-linejoin="round" opacity="1.0"/><path d="M263.8,170.0 L263.7,181.0 L263.6,192.0 L263.4,203.1 L263.3,214.1 L263.2,225.2 L263.1,236.2 L263.1,247.3 L263.0,258.4 L262.9,269.5 L262.9,280.6 L262.8,291.7" fill="none" stroke="#2dd4bf" stroke-width="19" stroke-linecap="round" stroke-linejoin="round" opacity="0.95"/><path d="M263.8,170.0 L263.7,181.0 L263.6,192.0 L263.4,203.1 L263.3,214.1 L263.2,225.2 L263.1,236.2 L263.1,247.3 L263.0,258.4 L262.9,269.5 L262.9,280.6 L262.8,291.7" fill="none" stroke="#0c2020" stroke-width="11" stroke-linecap="round" stroke-linejoin="round" opacity="1.0"/><path d="M224.0,209.4 L227.6,205.8 L231.2,202.2 L234.9,198.6 L238.5,195.1 L242.1,191.5 L245.7,187.9 L249.3,184.3 L253.0,180.7 L256.6,177.1 L260.2,173.6 L263.8,170.0" fill="none" stroke="#f43f5e" stroke-width="23" stroke-linecap="round" stroke-linejoin="round" opacity="0.95"/><path d="M224.0,209.4 L227.6,205.8 L231.2,202.2 L234.9,198.6 L238.5,195.1 L242.1,191.5 L245.7,187.9 L249.3,184.3 L253.0,180.7 L256.6,177.1 L260.2,173.6 L263.8,170.0" fill="none" stroke="#0c2020" stroke-width="15" stroke-linecap="round" stroke-linejoin="round" opacity="1.0"/><circle cx="219.5" cy="233.9" r="19.0" fill="#f43f5e" stroke="none" stroke-width="0" opacity="0.95"/><circle cx="219.5" cy="233.9" r="15.0" fill="#0c2020" stroke="none" stroke-width="6.3" opacity="1.0"/><path d="M217.5,216.9 L214.5,219.9 L211.5,222.9 L208.5,225.9 L205.6,228.8 L202.6,231.8 L199.6,234.8 L199.0,238.5 L199.9,242.6 L200.7,246.7 L201.6,250.8 L202.5,254.9" fill="none" stroke="#2dd4bf" stroke-width="5" stroke-linecap="round" stroke-linejoin="round" opacity="1.0"/><path d="M210.2,230.9 L211.8,230.9 L213.5,230.9 L215.2,230.9 L216.9,230.9 L218.6,230.9 L220.3,230.9 L222.0,230.9 L223.7,230.9 L225.4,230.9 L227.1,230.9 L228.8,230.9" fill="none" stroke="#a7f3ee" stroke-width="5" stroke-linecap="round" stroke-linejoin="round" opacity="1.0"/></g><g class="f2"><path d="M234.5,207.8 L231.9,215.5 L229.3,223.1 L226.7,230.8 L224.1,238.4 L221.5,246.1 L219.0,253.7 L216.4,261.4 L213.8,269.0 L211.2,276.7 L208.6,284.3 L206.0,292.0" fill="none" stroke="#2dd4bf" stroke-width="19" stroke-linecap="round" stroke-linejoin="round" opacity="0.95"/><path d="M234.5,207.8 L231.9,215.5 L229.3,223.1 L226.7,230.8 L224.1,238.4 L221.5,246.1 L219.0,253.7 L216.4,261.4 L213.8,269.0 L211.2,276.7 L208.6,284.3 L206.0,292.0" fill="none" stroke="#0c2020" stroke-width="11" stroke-linecap="round" stroke-linejoin="round" opacity="1.0"/><path d="M258.0,175.2 L256.7,185.6 L255.3,196.0 L253.9,206.4 L252.5,216.8 L251.2,227.2 L249.9,237.8 L248.7,248.5 L247.5,259.1 L246.3,269.8 L245.1,280.4 L243.9,291.1" fill="none" stroke="#2dd4bf" stroke-width="19" stroke-linecap="round" stroke-linejoin="round" opacity="0.95"/><path d="M258.0,175.2 L256.7,185.6 L255.3,196.0 L253.9,206.4 L252.5,216.8 L251.2,227.2 L249.9,237.8 L248.7,248.5 L247.5,259.1 L246.3,269.8 L245.1,280.4 L243.9,291.1" fill="none" stroke="#0c2020" stroke-width="11" stroke-linecap="round" stroke-linejoin="round" opacity="1.0"/><path d="M234.5,207.8 L236.7,204.8 L238.8,201.9 L240.9,198.9 L243.1,195.9 L245.2,193.0 L247.3,190.0 L249.5,187.1 L251.6,184.1 L253.8,181.1 L255.9,178.2 L258.0,175.2" fill="none" stroke="#f43f5e" stroke-width="23" stroke-linecap="round" stroke-linejoin="round" opacity="0.95"/><path d="M234.5,207.8 L236.7,204.8 L238.8,201.9 L240.9,198.9 L243.1,195.9 L245.2,193.0 L247.3,190.0 L249.5,187.1 L251.6,184.1 L253.8,181.1 L255.9,178.2 L258.0,175.2" fill="none" stroke="#0c2020" stroke-width="15" stroke-linecap="round" stroke-linejoin="round" opacity="1.0"/><circle cx="233.8" cy="228.5" r="19.0" fill="#f43f5e" stroke="none" stroke-width="0" opacity="0.95"/><circle cx="233.8" cy="228.5" r="15.0" fill="#0c2020" stroke="none" stroke-width="6.3" opacity="1.0"/><path d="M231.8,211.5 L228.9,214.5 L225.9,217.5 L222.9,220.4 L219.9,223.4 L217.0,226.4 L214.0,229.4 L213.4,233.0 L214.2,237.1 L215.1,241.3 L216.0,245.4 L216.8,249.5" fill="none" stroke="#2dd4bf" stroke-width="5" stroke-linecap="round" stroke-linejoin="round" opacity="1.0"/><path d="M224.5,225.5 L226.2,225.5 L227.9,225.5 L229.6,225.5 L231.3,225.5 L233.0,225.5 L234.7,225.5 L236.4,225.5 L238.1,225.5 L239.8,225.5 L241.5,225.5 L243.1,225.5" fill="none" stroke="#a7f3ee" stroke-width="5" stroke-linecap="round" stroke-linejoin="round" opacity="1.0"/></g><g class="f3"><path d="M249.4,205.6 L247.1,213.4 L244.9,221.3 L242.6,229.1 L240.3,237.0 L238.0,244.9 L235.8,252.7 L233.5,260.6 L231.2,268.4 L228.9,276.3 L226.7,284.1 L224.4,292.0" fill="none" stroke="#2dd4bf" stroke-width="19" stroke-linecap="round" stroke-linejoin="round" opacity="0.95"/><path d="M249.4,205.6 L247.1,213.4 L244.9,221.3 L242.6,229.1 L240.3,237.0 L238.0,244.9 L235.8,252.7 L233.5,260.6 L231.2,268.4 L228.9,276.3 L226.7,284.1 L224.4,292.0" fill="none" stroke="#0c2020" stroke-width="11" stroke-linecap="round" stroke-linejoin="round" opacity="1.0"/><path d="M249.9,182.6 L246.7,192.1 L243.6,201.6 L240.4,211.1 L237.3,220.6 L234.1,230.2 L231.2,240.1 L228.4,250.1 L225.6,260.1 L222.8,270.1 L220.0,280.1 L217.2,290.1" fill="none" stroke="#2dd4bf" stroke-width="19" stroke-linecap="round" stroke-linejoin="round" opacity="0.95"/><path d="M249.9,182.6 L246.7,192.1 L243.6,201.6 L240.4,211.1 L237.3,220.6 L234.1,230.2 L231.2,240.1 L228.4,250.1 L225.6,260.1 L222.8,270.1 L220.0,280.1 L217.2,290.1" fill="none" stroke="#0c2020" stroke-width="11" stroke-linecap="round" stroke-linejoin="round" opacity="1.0"/><path d="M249.4,205.6 L249.5,203.5 L249.5,201.4 L249.5,199.3 L249.6,197.2 L249.6,195.1 L249.7,193.0 L249.7,190.9 L249.7,188.8 L249.8,186.7 L249.8,184.6 L249.9,182.6" fill="none" stroke="#f43f5e" stroke-width="23" stroke-linecap="round" stroke-linejoin="round" opacity="0.95"/><path d="M249.4,205.6 L249.5,203.5 L249.5,201.4 L249.5,199.3 L249.6,197.2 L249.6,195.1 L249.7,193.0 L249.7,190.9 L249.7,188.8 L249.8,186.7 L249.8,184.6 L249.9,182.6" fill="none" stroke="#0c2020" stroke-width="15" stroke-linecap="round" stroke-linejoin="round" opacity="1.0"/><circle cx="254.2" cy="220.8" r="19.0" fill="#f43f5e" stroke="none" stroke-width="0" opacity="0.95"/><circle cx="254.2" cy="220.8" r="15.0" fill="#0c2020" stroke="none" stroke-width="6.3" opacity="1.0"/><path d="M252.2,203.8 L249.2,206.8 L246.2,209.8 L243.3,212.7 L240.3,215.7 L237.3,218.7 L234.3,221.7 L233.7,225.3 L234.6,229.5 L235.4,233.6 L236.3,237.7 L237.2,241.8" fill="none" stroke="#2dd4bf" stroke-width="5" stroke-linecap="round" stroke-linejoin="round" opacity="1.0"/><path d="M244.9,217.8 L246.6,217.8 L248.3,217.8 L250.0,217.8 L251.6,217.8 L253.3,217.8 L255.0,217.8 L256.7,217.8 L258.4,217.8 L260.1,217.8 L261.8,217.8 L263.5,217.8" fill="none" stroke="#a7f3ee" stroke-width="5" stroke-linecap="round" stroke-linejoin="round" opacity="1.0"/></g><g class="f4"><path d="M266.5,203.0 L264.6,211.1 L262.7,219.2 L260.8,227.3 L258.9,235.4 L257.0,243.5 L255.0,251.5 L253.1,259.6 L251.2,267.7 L249.3,275.8 L247.4,283.9 L245.5,292.0" fill="none" stroke="#2dd4bf" stroke-width="19" stroke-linecap="round" stroke-linejoin="round" opacity="0.95"/><path d="M266.5,203.0 L264.6,211.1 L262.7,219.2 L260.8,227.3 L258.9,235.4 L257.0,243.5 L255.0,251.5 L253.1,259.6 L251.2,267.7 L249.3,275.8 L247.4,283.9 L245.5,292.0" fill="none" stroke="#0c2020" stroke-width="11" stroke-linecap="round" stroke-linejoin="round" opacity="1.0"/><path d="M240.5,191.0 L235.3,199.5 L230.2,208.0 L225.0,216.5 L219.8,225.0 L214.6,233.5 L209.8,242.6 L205.2,251.9 L200.5,261.2 L195.8,270.4 L191.2,279.7 L186.5,289.0" fill="none" stroke="#2dd4bf" stroke-width="19" stroke-linecap="round" stroke-linejoin="round" opacity="0.95"/><path d="M240.5,191.0 L235.3,199.5 L230.2,208.0 L225.0,216.5 L219.8,225.0 L214.6,233.5 L209.8,242.6 L205.2,251.9 L200.5,261.2 L195.8,270.4 L191.2,279.7 L186.5,289.0" fill="none" stroke="#0c2020" stroke-width="11" stroke-linecap="round" stroke-linejoin="round" opacity="1.0"/><path d="M266.5,203.0 L264.1,201.9 L261.8,200.8 L259.4,199.7 L257.0,198.6 L254.7,197.5 L252.3,196.5 L250.0,195.4 L247.6,194.3 L245.2,193.2 L242.9,192.1 L240.5,191.0" fill="none" stroke="#f43f5e" stroke-width="23" stroke-linecap="round" stroke-linejoin="round" opacity="0.95"/><path d="M266.5,203.0 L264.1,201.9 L261.8,200.8 L259.4,199.7 L257.0,198.6 L254.7,197.5 L252.3,196.5 L250.0,195.4 L247.6,194.3 L245.2,193.2 L242.9,192.1 L240.5,191.0" fill="none" stroke="#0c2020" stroke-width="15" stroke-linecap="round" stroke-linejoin="round" opacity="1.0"/><circle cx="277.5" cy="212.0" r="19.0" fill="#f43f5e" stroke="none" stroke-width="0" opacity="0.95"/><circle cx="277.5" cy="212.0" r="15.0" fill="#0c2020" stroke="none" stroke-width="6.3" opacity="1.0"/><path d="M275.5,195.0 L272.5,198.0 L269.5,201.0 L266.6,203.9 L263.6,206.9 L260.6,209.9 L257.6,212.9 L257.0,216.5 L257.9,220.6 L258.8,224.8 L259.6,228.9 L260.5,233.0" fill="none" stroke="#2dd4bf" stroke-width="5" stroke-linecap="round" stroke-linejoin="round" opacity="1.0"/><path d="M268.2,209.0 L269.9,209.0 L271.6,209.0 L273.3,209.0 L275.0,209.0 L276.7,209.0 L278.3,209.0 L280.0,209.0 L281.7,209.0 L283.4,209.0 L285.1,209.0 L286.8,209.0" fill="none" stroke="#a7f3ee" stroke-width="5" stroke-linecap="round" stroke-linejoin="round" opacity="1.0"/></g><g class="f5"><path d="M283.6,200.4 L282.0,208.8 L280.5,217.1 L278.9,225.4 L277.4,233.7 L275.9,242.1 L274.3,250.4 L272.8,258.7 L271.2,267.0 L269.7,275.4 L268.2,283.7 L266.6,292.0" fill="none" stroke="#2dd4bf" stroke-width="19" stroke-linecap="round" stroke-linejoin="round" opacity="0.95"/><path d="M283.6,200.4 L282.0,208.8 L280.5,217.1 L278.9,225.4 L277.4,233.7 L275.9,242.1 L274.3,250.4 L272.8,258.7 L271.2,267.0 L269.7,275.4 L268.2,283.7 L266.6,292.0" fill="none" stroke="#0c2020" stroke-width="11" stroke-linecap="round" stroke-linejoin="round" opacity="1.0"/><path d="M231.1,199.4 L223.9,206.9 L216.7,214.4 L209.5,221.9 L202.3,229.4 L195.1,236.9 L188.4,245.2 L181.9,253.7 L175.4,262.3 L168.9,270.8 L162.4,279.4 L155.8,287.9" fill="none" stroke="#2dd4bf" stroke-width="19" stroke-linecap="round" stroke-linejoin="round" opacity="0.95"/><path d="M231.1,199.4 L223.9,206.9 L216.7,214.4 L209.5,221.9 L202.3,229.4 L195.1,236.9 L188.4,245.2 L181.9,253.7 L175.4,262.3 L168.9,270.8 L162.4,279.4 L155.8,287.9" fill="none" stroke="#0c2020" stroke-width="11" stroke-linecap="round" stroke-linejoin="round" opacity="1.0"/><path d="M283.6,200.4 L278.8,200.3 L274.0,200.3 L269.3,200.2 L264.5,200.1 L259.7,200.0 L255.0,199.9 L250.2,199.8 L245.4,199.7 L240.7,199.6 L235.9,199.5 L231.1,199.4" fill="none" stroke="#f43f5e" stroke-width="23" stroke-linecap="round" stroke-linejoin="round" opacity="0.95"/><path d="M283.6,200.4 L278.8,200.3 L274.0,200.3 L269.3,200.2 L264.5,200.1 L259.7,200.0 L255.0,199.9 L250.2,199.8 L245.4,199.7 L240.7,199.6 L235.9,199.5 L231.1,199.4" fill="none" stroke="#0c2020" stroke-width="15" stroke-linecap="round" stroke-linejoin="round" opacity="1.0"/><circle cx="300.8" cy="203.2" r="19.0" fill="#f43f5e" stroke="none" stroke-width="0" opacity="0.95"/><circle cx="300.8" cy="203.2" r="15.0" fill="#0c2020" stroke="none" stroke-width="6.3" opacity="1.0"/><path d="M298.8,186.2 L295.8,189.2 L292.9,192.1 L289.9,195.1 L286.9,198.1 L283.9,201.1 L281.0,204.0 L280.3,207.7 L281.2,211.8 L282.1,216.0 L282.9,220.1 L283.8,224.2" fill="none" stroke="#2dd4bf" stroke-width="5" stroke-linecap="round" stroke-linejoin="round" opacity="1.0"/><path d="M291.5,200.2 L293.2,200.2 L294.9,200.2 L296.6,200.2 L298.3,200.2 L300.0,200.2 L301.7,200.2 L303.4,200.2 L305.0,200.2 L306.7,200.2 L308.4,200.2 L310.1,200.2" fill="none" stroke="#a7f3ee" stroke-width="5" stroke-linecap="round" stroke-linejoin="round" opacity="1.0"/></g><g class="f6"><path d="M298.5,198.2 L297.2,206.7 L296.0,215.2 L294.8,223.8 L293.6,232.3 L292.4,240.8 L291.1,249.4 L289.9,257.9 L288.7,266.4 L287.5,274.9 L286.3,283.5 L285.0,292.0" fill="none" stroke="#2dd4bf" stroke-width="19" stroke-linecap="round" stroke-linejoin="round" opacity="0.95"/><path d="M298.5,198.2 L297.2,206.7 L296.0,215.2 L294.8,223.8 L293.6,232.3 L292.4,240.8 L291.1,249.4 L289.9,257.9 L288.7,266.4 L287.5,274.9 L286.3,283.5 L285.0,292.0" fill="none" stroke="#0c2020" stroke-width="11" stroke-linecap="round" stroke-linejoin="round" opacity="1.0"/><path d="M223.0,206.8 L214.0,213.4 L205.0,220.0 L196.0,226.6 L187.1,233.2 L178.1,239.8 L169.8,247.4 L161.6,255.3 L153.5,263.2 L145.4,271.1 L137.2,279.0 L129.1,286.9" fill="none" stroke="#2dd4bf" stroke-width="19" stroke-linecap="round" stroke-linejoin="round" opacity="0.95"/><path d="M223.0,206.8 L214.0,213.4 L205.0,220.0 L196.0,226.6 L187.1,233.2 L178.1,239.8 L169.8,247.4 L161.6,255.3 L153.5,263.2 L145.4,271.1 L137.2,279.0 L129.1,286.9" fill="none" stroke="#0c2020" stroke-width="11" stroke-linecap="round" stroke-linejoin="round" opacity="1.0"/><path d="M298.5,198.2 L291.6,199.0 L284.7,199.8 L277.9,200.5 L271.0,201.3 L264.2,202.1 L257.3,202.9 L250.4,203.7 L243.6,204.5 L236.7,205.2 L229.8,206.0 L223.0,206.8" fill="none" stroke="#f43f5e" stroke-width="23" stroke-linecap="round" stroke-linejoin="round" opacity="0.95"/><path d="M298.5,198.2 L291.6,199.0 L284.7,199.8 L277.9,200.5 L271.0,201.3 L264.2,202.1 L257.3,202.9 L250.4,203.7 L243.6,204.5 L236.7,205.2 L229.8,206.0 L223.0,206.8" fill="none" stroke="#0c2020" stroke-width="15" stroke-linecap="round" stroke-linejoin="round" opacity="1.0"/><circle cx="321.2" cy="195.5" r="19.0" fill="#f43f5e" stroke="none" stroke-width="0" opacity="0.95"/><circle cx="321.2" cy="195.5" r="15.0" fill="#0c2020" stroke="none" stroke-width="6.3" opacity="1.0"/><path d="M319.2,178.5 L316.2,181.5 L313.2,184.5 L310.2,187.4 L307.3,190.4 L304.3,193.4 L301.3,196.4 L300.7,200.0 L301.6,204.1 L302.4,208.3 L303.3,212.4 L304.2,216.5" fill="none" stroke="#2dd4bf" stroke-width="5" stroke-linecap="round" stroke-linejoin="round" opacity="1.0"/><path d="M311.9,192.5 L313.5,192.5 L315.2,192.5 L316.9,192.5 L318.6,192.5 L320.3,192.5 L322.0,192.5 L323.7,192.5 L325.4,192.5 L327.1,192.5 L328.8,192.5 L330.5,192.5" fill="none" stroke="#a7f3ee" stroke-width="5" stroke-linecap="round" stroke-linejoin="round" opacity="1.0"/></g><g class="f7"><path d="M309.0,196.6 L308.0,205.3 L307.0,213.9 L306.0,222.6 L305.0,231.3 L304.0,240.0 L303.0,248.6 L302.0,257.3 L301.0,266.0 L300.0,274.7 L299.1,283.3 L298.1,292.0" fill="none" stroke="#2dd4bf" stroke-width="19" stroke-linecap="round" stroke-linejoin="round" opacity="0.95"/><path d="M309.0,196.6 L308.0,205.3 L307.0,213.9 L306.0,222.6 L305.0,231.3 L304.0,240.0 L303.0,248.6 L302.0,257.3 L301.0,266.0 L300.0,274.7 L299.1,283.3 L298.1,292.0" fill="none" stroke="#0c2020" stroke-width="11" stroke-linecap="round" stroke-linejoin="round" opacity="1.0"/><path d="M217.2,212.0 L207.0,218.0 L196.7,224.0 L186.5,229.9 L176.3,235.9 L166.1,241.9 L156.6,249.0 L147.3,256.4 L138.0,263.9 L128.7,271.3 L119.5,278.8 L110.2,286.3" fill="none" stroke="#2dd4bf" stroke-width="19" stroke-linecap="round" stroke-linejoin="round" opacity="0.95"/><path d="M217.2,212.0 L207.0,218.0 L196.7,224.0 L186.5,229.9 L176.3,235.9 L166.1,241.9 L156.6,249.0 L147.3,256.4 L138.0,263.9 L128.7,271.3 L119.5,278.8 L110.2,286.3" fill="none" stroke="#0c2020" stroke-width="11" stroke-linecap="round" stroke-linejoin="round" opacity="1.0"/><path d="M309.0,196.6 L300.7,198.0 L292.3,199.4 L284.0,200.8 L275.6,202.2 L267.3,203.6 L258.9,205.0 L250.6,206.4 L242.2,207.8 L233.9,209.2 L225.5,210.6 L217.2,212.0" fill="none" stroke="#f43f5e" stroke-width="23" stroke-linecap="round" stroke-linejoin="round" opacity="0.95"/><path d="M309.0,196.6 L300.7,198.0 L292.3,199.4 L284.0,200.8 L275.6,202.2 L267.3,203.6 L258.9,205.0 L250.6,206.4 L242.2,207.8 L233.9,209.2 L225.5,210.6 L217.2,212.0" fill="none" stroke="#0c2020" stroke-width="15" stroke-linecap="round" stroke-linejoin="round" opacity="1.0"/><circle cx="335.5" cy="190.1" r="19.0" fill="#f43f5e" stroke="none" stroke-width="0" opacity="0.95"/><circle cx="335.5" cy="190.1" r="15.0" fill="#0c2020" stroke="none" stroke-width="6.3" opacity="1.0"/><path d="M333.5,173.1 L330.6,176.0 L327.6,179.0 L324.6,182.0 L321.6,185.0 L318.7,187.9 L315.7,190.9 L315.1,194.6 L315.9,198.7 L316.8,202.8 L317.7,206.9 L318.5,211.1" fill="none" stroke="#2dd4bf" stroke-width="5" stroke-linecap="round" stroke-linejoin="round" opacity="1.0"/><path d="M326.2,187.1 L327.9,187.1 L329.6,187.1 L331.3,187.1 L333.0,187.1 L334.7,187.1 L336.4,187.1 L338.1,187.1 L339.8,187.1 L341.5,187.1 L343.2,187.1 L344.8,187.1" fill="none" stroke="#a7f3ee" stroke-width="5" stroke-linecap="round" stroke-linejoin="round" opacity="1.0"/></g><g class="f8"><path d="M313.0,196.0 L312.1,204.7 L311.2,213.5 L310.3,222.2 L309.4,230.9 L308.5,239.6 L307.5,248.4 L306.6,257.1 L305.7,265.8 L304.8,274.5 L303.9,283.3 L303.0,292.0" fill="none" stroke="#2dd4bf" stroke-width="19" stroke-linecap="round" stroke-linejoin="round" opacity="0.95"/><path d="M313.0,196.0 L312.1,204.7 L311.2,213.5 L310.3,222.2 L309.4,230.9 L308.5,239.6 L307.5,248.4 L306.6,257.1 L305.7,265.8 L304.8,274.5 L303.9,283.3 L303.0,292.0" fill="none" stroke="#0c2020" stroke-width="11" stroke-linecap="round" stroke-linejoin="round" opacity="1.0"/><path d="M215.0,214.0 L204.3,219.7 L193.6,225.5 L182.9,231.2 L172.2,236.9 L161.5,242.7 L151.6,249.6 L141.8,256.9 L132.1,264.1 L122.4,271.4 L112.7,278.7 L103.0,286.0" fill="none" stroke="#2dd4bf" stroke-width="19" stroke-linecap="round" stroke-linejoin="round" opacity="0.95"/><path d="M215.0,214.0 L204.3,219.7 L193.6,225.5 L182.9,231.2 L172.2,236.9 L161.5,242.7 L151.6,249.6 L141.8,256.9 L132.1,264.1 L122.4,271.4 L112.7,278.7 L103.0,286.0" fill="none" stroke="#0c2020" stroke-width="11" stroke-linecap="round" stroke-linejoin="round" opacity="1.0"/><path d="M313.0,196.0 L304.1,197.6 L295.2,199.3 L286.3,200.9 L277.4,202.5 L268.5,204.2 L259.5,205.8 L250.6,207.5 L241.7,209.1 L232.8,210.7 L223.9,212.4 L215.0,214.0" fill="none" stroke="#f43f5e" stroke-width="23" stroke-linecap="round" stroke-linejoin="round" opacity="0.95"/><path d="M313.0,196.0 L304.1,197.6 L295.2,199.3 L286.3,200.9 L277.4,202.5 L268.5,204.2 L259.5,205.8 L250.6,207.5 L241.7,209.1 L232.8,210.7 L223.9,212.4 L215.0,214.0" fill="none" stroke="#0c2020" stroke-width="15" stroke-linecap="round" stroke-linejoin="round" opacity="1.0"/><circle cx="341.0" cy="188.0" r="19.0" fill="#f43f5e" stroke="none" stroke-width="0" opacity="0.95"/><circle cx="341.0" cy="188.0" r="15.0" fill="#0c2020" stroke="none" stroke-width="6.3" opacity="1.0"/><path d="M339.0,171.0 L336.0,174.0 L333.0,177.0 L330.1,179.9 L327.1,182.9 L324.1,185.9 L321.1,188.9 L320.5,192.5 L321.4,196.6 L322.3,200.8 L323.1,204.9 L324.0,209.0" fill="none" stroke="#2dd4bf" stroke-width="5" stroke-linecap="round" stroke-linejoin="round" opacity="1.0"/><path d="M331.7,185.0 L333.4,185.0 L335.1,185.0 L336.8,185.0 L338.5,185.0 L340.2,185.0 L341.8,185.0 L343.5,185.0 L345.2,185.0 L346.9,185.0 L348.6,185.0 L350.3,185.0" fill="none" stroke="#a7f3ee" stroke-width="5" stroke-linecap="round" stroke-linejoin="round" opacity="1.0"/></g><g class="f9"><path d="M309.0,196.6 L308.0,205.3 L307.0,213.9 L306.0,222.6 L305.0,231.3 L304.0,240.0 L303.0,248.6 L302.0,257.3 L301.0,266.0 L300.0,274.7 L299.1,283.3 L298.1,292.0" fill="none" stroke="#2dd4bf" stroke-width="19" stroke-linecap="round" stroke-linejoin="round" opacity="0.95"/><path d="M309.0,196.6 L308.0,205.3 L307.0,213.9 L306.0,222.6 L305.0,231.3 L304.0,240.0 L303.0,248.6 L302.0,257.3 L301.0,266.0 L300.0,274.7 L299.1,283.3 L298.1,292.0" fill="none" stroke="#0c2020" stroke-width="11" stroke-linecap="round" stroke-linejoin="round" opacity="1.0"/><path d="M217.2,212.0 L207.0,218.0 L196.7,224.0 L186.5,229.9 L176.3,235.9 L166.1,241.9 L156.6,249.0 L147.3,256.4 L138.0,263.9 L128.7,271.3 L119.5,278.8 L110.2,286.3" fill="none" stroke="#2dd4bf" stroke-width="19" stroke-linecap="round" stroke-linejoin="round" opacity="0.95"/><path d="M217.2,212.0 L207.0,218.0 L196.7,224.0 L186.5,229.9 L176.3,235.9 L166.1,241.9 L156.6,249.0 L147.3,256.4 L138.0,263.9 L128.7,271.3 L119.5,278.8 L110.2,286.3" fill="none" stroke="#0c2020" stroke-width="11" stroke-linecap="round" stroke-linejoin="round" opacity="1.0"/><path d="M309.0,196.6 L300.7,198.0 L292.3,199.4 L284.0,200.8 L275.6,202.2 L267.3,203.6 L258.9,205.0 L250.6,206.4 L242.2,207.8 L233.9,209.2 L225.5,210.6 L217.2,212.0" fill="none" stroke="#f43f5e" stroke-width="23" stroke-linecap="round" stroke-linejoin="round" opacity="0.95"/><path d="M309.0,196.6 L300.7,198.0 L292.3,199.4 L284.0,200.8 L275.6,202.2 L267.3,203.6 L258.9,205.0 L250.6,206.4 L242.2,207.8 L233.9,209.2 L225.5,210.6 L217.2,212.0" fill="none" stroke="#0c2020" stroke-width="15" stroke-linecap="round" stroke-linejoin="round" opacity="1.0"/><circle cx="335.5" cy="190.1" r="19.0" fill="#f43f5e" stroke="none" stroke-width="0" opacity="0.95"/><circle cx="335.5" cy="190.1" r="15.0" fill="#0c2020" stroke="none" stroke-width="6.3" opacity="1.0"/><path d="M333.5,173.1 L330.6,176.0 L327.6,179.0 L324.6,182.0 L321.6,185.0 L318.7,187.9 L315.7,190.9 L315.1,194.6 L315.9,198.7 L316.8,202.8 L317.7,206.9 L318.5,211.1" fill="none" stroke="#2dd4bf" stroke-width="5" stroke-linecap="round" stroke-linejoin="round" opacity="1.0"/><path d="M326.2,187.1 L327.9,187.1 L329.6,187.1 L331.3,187.1 L333.0,187.1 L334.7,187.1 L336.4,187.1 L338.1,187.1 L339.8,187.1 L341.5,187.1 L343.2,187.1 L344.8,187.1" fill="none" stroke="#a7f3ee" stroke-width="5" stroke-linecap="round" stroke-linejoin="round" opacity="1.0"/></g><g class="f10"><path d="M298.5,198.2 L297.2,206.7 L296.0,215.2 L294.8,223.8 L293.6,232.3 L292.4,240.8 L291.1,249.4 L289.9,257.9 L288.7,266.4 L287.5,274.9 L286.3,283.5 L285.0,292.0" fill="none" stroke="#2dd4bf" stroke-width="19" stroke-linecap="round" stroke-linejoin="round" opacity="0.95"/><path d="M298.5,198.2 L297.2,206.7 L296.0,215.2 L294.8,223.8 L293.6,232.3 L292.4,240.8 L291.1,249.4 L289.9,257.9 L288.7,266.4 L287.5,274.9 L286.3,283.5 L285.0,292.0" fill="none" stroke="#0c2020" stroke-width="11" stroke-linecap="round" stroke-linejoin="round" opacity="1.0"/><path d="M223.0,206.8 L214.0,213.4 L205.0,220.0 L196.0,226.6 L187.1,233.2 L178.1,239.8 L169.8,247.4 L161.6,255.3 L153.5,263.2 L145.4,271.1 L137.2,279.0 L129.1,286.9" fill="none" stroke="#2dd4bf" stroke-width="19" stroke-linecap="round" stroke-linejoin="round" opacity="0.95"/><path d="M223.0,206.8 L214.0,213.4 L205.0,220.0 L196.0,226.6 L187.1,233.2 L178.1,239.8 L169.8,247.4 L161.6,255.3 L153.5,263.2 L145.4,271.1 L137.2,279.0 L129.1,286.9" fill="none" stroke="#0c2020" stroke-width="11" stroke-linecap="round" stroke-linejoin="round" opacity="1.0"/><path d="M298.5,198.2 L291.6,199.0 L284.7,199.8 L277.9,200.5 L271.0,201.3 L264.2,202.1 L257.3,202.9 L250.4,203.7 L243.6,204.5 L236.7,205.2 L229.8,206.0 L223.0,206.8" fill="none" stroke="#f43f5e" stroke-width="23" stroke-linecap="round" stroke-linejoin="round" opacity="0.95"/><path d="M298.5,198.2 L291.6,199.0 L284.7,199.8 L277.9,200.5 L271.0,201.3 L264.2,202.1 L257.3,202.9 L250.4,203.7 L243.6,204.5 L236.7,205.2 L229.8,206.0 L223.0,206.8" fill="none" stroke="#0c2020" stroke-width="15" stroke-linecap="round" stroke-linejoin="round" opacity="1.0"/><circle cx="321.2" cy="195.5" r="19.0" fill="#f43f5e" stroke="none" stroke-width="0" opacity="0.95"/><circle cx="321.2" cy="195.5" r="15.0" fill="#0c2020" stroke="none" stroke-width="6.3" opacity="1.0"/><path d="M319.2,178.5 L316.2,181.5 L313.2,184.5 L310.2,187.4 L307.3,190.4 L304.3,193.4 L301.3,196.4 L300.7,200.0 L301.6,204.1 L302.4,208.3 L303.3,212.4 L304.2,216.5" fill="none" stroke="#2dd4bf" stroke-width="5" stroke-linecap="round" stroke-linejoin="round" opacity="1.0"/><path d="M311.9,192.5 L313.5,192.5 L315.2,192.5 L316.9,192.5 L318.6,192.5 L320.3,192.5 L322.0,192.5 L323.7,192.5 L325.4,192.5 L327.1,192.5 L328.8,192.5 L330.5,192.5" fill="none" stroke="#a7f3ee" stroke-width="5" stroke-linecap="round" stroke-linejoin="round" opacity="1.0"/></g><g class="f11"><path d="M283.6,200.4 L282.0,208.8 L280.5,217.1 L278.9,225.4 L277.4,233.7 L275.9,242.1 L274.3,250.4 L272.8,258.7 L271.2,267.0 L269.7,275.4 L268.2,283.7 L266.6,292.0" fill="none" stroke="#2dd4bf" stroke-width="19" stroke-linecap="round" stroke-linejoin="round" opacity="0.95"/><path d="M283.6,200.4 L282.0,208.8 L280.5,217.1 L278.9,225.4 L277.4,233.7 L275.9,242.1 L274.3,250.4 L272.8,258.7 L271.2,267.0 L269.7,275.4 L268.2,283.7 L266.6,292.0" fill="none" stroke="#0c2020" stroke-width="11" stroke-linecap="round" stroke-linejoin="round" opacity="1.0"/><path d="M231.1,199.4 L223.9,206.9 L216.7,214.4 L209.5,221.9 L202.3,229.4 L195.1,236.9 L188.4,245.2 L181.9,253.7 L175.4,262.3 L168.9,270.8 L162.4,279.4 L155.8,287.9" fill="none" stroke="#2dd4bf" stroke-width="19" stroke-linecap="round" stroke-linejoin="round" opacity="0.95"/><path d="M231.1,199.4 L223.9,206.9 L216.7,214.4 L209.5,221.9 L202.3,229.4 L195.1,236.9 L188.4,245.2 L181.9,253.7 L175.4,262.3 L168.9,270.8 L162.4,279.4 L155.8,287.9" fill="none" stroke="#0c2020" stroke-width="11" stroke-linecap="round" stroke-linejoin="round" opacity="1.0"/><path d="M283.6,200.4 L278.8,200.3 L274.0,200.3 L269.3,200.2 L264.5,200.1 L259.7,200.0 L255.0,199.9 L250.2,199.8 L245.4,199.7 L240.7,199.6 L235.9,199.5 L231.1,199.4" fill="none" stroke="#f43f5e" stroke-width="23" stroke-linecap="round" stroke-linejoin="round" opacity="0.95"/><path d="M283.6,200.4 L278.8,200.3 L274.0,200.3 L269.3,200.2 L264.5,200.1 L259.7,200.0 L255.0,199.9 L250.2,199.8 L245.4,199.7 L240.7,199.6 L235.9,199.5 L231.1,199.4" fill="none" stroke="#0c2020" stroke-width="15" stroke-linecap="round" stroke-linejoin="round" opacity="1.0"/><circle cx="300.8" cy="203.2" r="19.0" fill="#f43f5e" stroke="none" stroke-width="0" opacity="0.95"/><circle cx="300.8" cy="203.2" r="15.0" fill="#0c2020" stroke="none" stroke-width="6.3" opacity="1.0"/><path d="M298.8,186.2 L295.8,189.2 L292.9,192.1 L289.9,195.1 L286.9,198.1 L283.9,201.1 L281.0,204.0 L280.3,207.7 L281.2,211.8 L282.1,216.0 L282.9,220.1 L283.8,224.2" fill="none" stroke="#2dd4bf" stroke-width="5" stroke-linecap="round" stroke-linejoin="round" opacity="1.0"/><path d="M291.5,200.2 L293.2,200.2 L294.9,200.2 L296.6,200.2 L298.3,200.2 L300.0,200.2 L301.7,200.2 L303.4,200.2 L305.0,200.2 L306.7,200.2 L308.4,200.2 L310.1,200.2" fill="none" stroke="#a7f3ee" stroke-width="5" stroke-linecap="round" stroke-linejoin="round" opacity="1.0"/></g><g class="f12"><path d="M266.5,203.0 L264.6,211.1 L262.7,219.2 L260.8,227.3 L258.9,235.4 L257.0,243.5 L255.0,251.5 L253.1,259.6 L251.2,267.7 L249.3,275.8 L247.4,283.9 L245.5,292.0" fill="none" stroke="#2dd4bf" stroke-width="19" stroke-linecap="round" stroke-linejoin="round" opacity="0.95"/><path d="M266.5,203.0 L264.6,211.1 L262.7,219.2 L260.8,227.3 L258.9,235.4 L257.0,243.5 L255.0,251.5 L253.1,259.6 L251.2,267.7 L249.3,275.8 L247.4,283.9 L245.5,292.0" fill="none" stroke="#0c2020" stroke-width="11" stroke-linecap="round" stroke-linejoin="round" opacity="1.0"/><path d="M240.5,191.0 L235.3,199.5 L230.2,208.0 L225.0,216.5 L219.8,225.0 L214.6,233.5 L209.8,242.6 L205.2,251.9 L200.5,261.2 L195.8,270.4 L191.2,279.7 L186.5,289.0" fill="none" stroke="#2dd4bf" stroke-width="19" stroke-linecap="round" stroke-linejoin="round" opacity="0.95"/><path d="M240.5,191.0 L235.3,199.5 L230.2,208.0 L225.0,216.5 L219.8,225.0 L214.6,233.5 L209.8,242.6 L205.2,251.9 L200.5,261.2 L195.8,270.4 L191.2,279.7 L186.5,289.0" fill="none" stroke="#0c2020" stroke-width="11" stroke-linecap="round" stroke-linejoin="round" opacity="1.0"/><path d="M266.5,203.0 L264.1,201.9 L261.8,200.8 L259.4,199.7 L257.0,198.6 L254.7,197.5 L252.3,196.5 L250.0,195.4 L247.6,194.3 L245.2,193.2 L242.9,192.1 L240.5,191.0" fill="none" stroke="#f43f5e" stroke-width="23" stroke-linecap="round" stroke-linejoin="round" opacity="0.95"/><path d="M266.5,203.0 L264.1,201.9 L261.8,200.8 L259.4,199.7 L257.0,198.6 L254.7,197.5 L252.3,196.5 L250.0,195.4 L247.6,194.3 L245.2,193.2 L242.9,192.1 L240.5,191.0" fill="none" stroke="#0c2020" stroke-width="15" stroke-linecap="round" stroke-linejoin="round" opacity="1.0"/><circle cx="277.5" cy="212.0" r="19.0" fill="#f43f5e" stroke="none" stroke-width="0" opacity="0.95"/><circle cx="277.5" cy="212.0" r="15.0" fill="#0c2020" stroke="none" stroke-width="6.3" opacity="1.0"/><path d="M275.5,195.0 L272.5,198.0 L269.5,201.0 L266.6,203.9 L263.6,206.9 L260.6,209.9 L257.6,212.9 L257.0,216.5 L257.9,220.6 L258.8,224.8 L259.6,228.9 L260.5,233.0" fill="none" stroke="#2dd4bf" stroke-width="5" stroke-linecap="round" stroke-linejoin="round" opacity="1.0"/><path d="M268.2,209.0 L269.9,209.0 L271.6,209.0 L273.3,209.0 L275.0,209.0 L276.7,209.0 L278.3,209.0 L280.0,209.0 L281.7,209.0 L283.4,209.0 L285.1,209.0 L286.8,209.0" fill="none" stroke="#a7f3ee" stroke-width="5" stroke-linecap="round" stroke-linejoin="round" opacity="1.0"/></g><g class="f13"><path d="M249.4,205.6 L247.1,213.4 L244.9,221.3 L242.6,229.1 L240.3,237.0 L238.0,244.9 L235.8,252.7 L233.5,260.6 L231.2,268.4 L228.9,276.3 L226.7,284.1 L224.4,292.0" fill="none" stroke="#2dd4bf" stroke-width="19" stroke-linecap="round" stroke-linejoin="round" opacity="0.95"/><path d="M249.4,205.6 L247.1,213.4 L244.9,221.3 L242.6,229.1 L240.3,237.0 L238.0,244.9 L235.8,252.7 L233.5,260.6 L231.2,268.4 L228.9,276.3 L226.7,284.1 L224.4,292.0" fill="none" stroke="#0c2020" stroke-width="11" stroke-linecap="round" stroke-linejoin="round" opacity="1.0"/><path d="M249.9,182.6 L246.7,192.1 L243.6,201.6 L240.4,211.1 L237.3,220.6 L234.1,230.2 L231.2,240.1 L228.4,250.1 L225.6,260.1 L222.8,270.1 L220.0,280.1 L217.2,290.1" fill="none" stroke="#2dd4bf" stroke-width="19" stroke-linecap="round" stroke-linejoin="round" opacity="0.95"/><path d="M249.9,182.6 L246.7,192.1 L243.6,201.6 L240.4,211.1 L237.3,220.6 L234.1,230.2 L231.2,240.1 L228.4,250.1 L225.6,260.1 L222.8,270.1 L220.0,280.1 L217.2,290.1" fill="none" stroke="#0c2020" stroke-width="11" stroke-linecap="round" stroke-linejoin="round" opacity="1.0"/><path d="M249.4,205.6 L249.5,203.5 L249.5,201.4 L249.5,199.3 L249.6,197.2 L249.6,195.1 L249.7,193.0 L249.7,190.9 L249.7,188.8 L249.8,186.7 L249.8,184.6 L249.9,182.6" fill="none" stroke="#f43f5e" stroke-width="23" stroke-linecap="round" stroke-linejoin="round" opacity="0.95"/><path d="M249.4,205.6 L249.5,203.5 L249.5,201.4 L249.5,199.3 L249.6,197.2 L249.6,195.1 L249.7,193.0 L249.7,190.9 L249.7,188.8 L249.8,186.7 L249.8,184.6 L249.9,182.6" fill="none" stroke="#0c2020" stroke-width="15" stroke-linecap="round" stroke-linejoin="round" opacity="1.0"/><circle cx="254.2" cy="220.8" r="19.0" fill="#f43f5e" stroke="none" stroke-width="0" opacity="0.95"/><circle cx="254.2" cy="220.8" r="15.0" fill="#0c2020" stroke="none" stroke-width="6.3" opacity="1.0"/><path d="M252.2,203.8 L249.2,206.8 L246.2,209.8 L243.3,212.7 L240.3,215.7 L237.3,218.7 L234.3,221.7 L233.7,225.3 L234.6,229.5 L235.4,233.6 L236.3,237.7 L237.2,241.8" fill="none" stroke="#2dd4bf" stroke-width="5" stroke-linecap="round" stroke-linejoin="round" opacity="1.0"/><path d="M244.9,217.8 L246.6,217.8 L248.3,217.8 L250.0,217.8 L251.6,217.8 L253.3,217.8 L255.0,217.8 L256.7,217.8 L258.4,217.8 L260.1,217.8 L261.8,217.8 L263.5,217.8" fill="none" stroke="#a7f3ee" stroke-width="5" stroke-linecap="round" stroke-linejoin="round" opacity="1.0"/></g><g class="f14"><path d="M234.5,207.8 L231.9,215.5 L229.3,223.1 L226.7,230.8 L224.1,238.4 L221.5,246.1 L219.0,253.7 L216.4,261.4 L213.8,269.0 L211.2,276.7 L208.6,284.3 L206.0,292.0" fill="none" stroke="#2dd4bf" stroke-width="19" stroke-linecap="round" stroke-linejoin="round" opacity="0.95"/><path d="M234.5,207.8 L231.9,215.5 L229.3,223.1 L226.7,230.8 L224.1,238.4 L221.5,246.1 L219.0,253.7 L216.4,261.4 L213.8,269.0 L211.2,276.7 L208.6,284.3 L206.0,292.0" fill="none" stroke="#0c2020" stroke-width="11" stroke-linecap="round" stroke-linejoin="round" opacity="1.0"/><path d="M258.0,175.2 L256.7,185.6 L255.3,196.0 L253.9,206.4 L252.5,216.8 L251.2,227.2 L249.9,237.8 L248.7,248.5 L247.5,259.1 L246.3,269.8 L245.1,280.4 L243.9,291.1" fill="none" stroke="#2dd4bf" stroke-width="19" stroke-linecap="round" stroke-linejoin="round" opacity="0.95"/><path d="M258.0,175.2 L256.7,185.6 L255.3,196.0 L253.9,206.4 L252.5,216.8 L251.2,227.2 L249.9,237.8 L248.7,248.5 L247.5,259.1 L246.3,269.8 L245.1,280.4 L243.9,291.1" fill="none" stroke="#0c2020" stroke-width="11" stroke-linecap="round" stroke-linejoin="round" opacity="1.0"/><path d="M234.5,207.8 L236.7,204.8 L238.8,201.9 L240.9,198.9 L243.1,195.9 L245.2,193.0 L247.3,190.0 L249.5,187.1 L251.6,184.1 L253.8,181.1 L255.9,178.2 L258.0,175.2" fill="none" stroke="#f43f5e" stroke-width="23" stroke-linecap="round" stroke-linejoin="round" opacity="0.95"/><path d="M234.5,207.8 L236.7,204.8 L238.8,201.9 L240.9,198.9 L243.1,195.9 L245.2,193.0 L247.3,190.0 L249.5,187.1 L251.6,184.1 L253.8,181.1 L255.9,178.2 L258.0,175.2" fill="none" stroke="#0c2020" stroke-width="15" stroke-linecap="round" stroke-linejoin="round" opacity="1.0"/><circle cx="233.8" cy="228.5" r="19.0" fill="#f43f5e" stroke="none" stroke-width="0" opacity="0.95"/><circle cx="233.8" cy="228.5" r="15.0" fill="#0c2020" stroke="none" stroke-width="6.3" opacity="1.0"/><path d="M231.8,211.5 L228.9,214.5 L225.9,217.5 L222.9,220.4 L219.9,223.4 L217.0,226.4 L214.0,229.4 L213.4,233.0 L214.2,237.1 L215.1,241.3 L216.0,245.4 L216.8,249.5" fill="none" stroke="#2dd4bf" stroke-width="5" stroke-linecap="round" stroke-linejoin="round" opacity="1.0"/><path d="M224.5,225.5 L226.2,225.5 L227.9,225.5 L229.6,225.5 L231.3,225.5 L233.0,225.5 L234.7,225.5 L236.4,225.5 L238.1,225.5 L239.8,225.5 L241.5,225.5 L243.1,225.5" fill="none" stroke="#a7f3ee" stroke-width="5" stroke-linecap="round" stroke-linejoin="round" opacity="1.0"/></g><g class="f15"><path d="M224.0,209.4 L221.2,216.9 L218.3,224.4 L215.5,231.9 L212.7,239.4 L209.9,246.9 L207.1,254.5 L204.2,262.0 L201.4,269.5 L198.6,277.0 L195.8,284.5 L192.9,292.0" fill="none" stroke="#2dd4bf" stroke-width="19" stroke-linecap="round" stroke-linejoin="round" opacity="0.95"/><path d="M224.0,209.4 L221.2,216.9 L218.3,224.4 L215.5,231.9 L212.7,239.4 L209.9,246.9 L207.1,254.5 L204.2,262.0 L201.4,269.5 L198.6,277.0 L195.8,284.5 L192.9,292.0" fill="none" stroke="#0c2020" stroke-width="11" stroke-linecap="round" stroke-linejoin="round" opacity="1.0"/><path d="M263.8,170.0 L263.7,181.0 L263.6,192.0 L263.4,203.1 L263.3,214.1 L263.2,225.2 L263.1,236.2 L263.1,247.3 L263.0,258.4 L262.9,269.5 L262.9,280.6 L262.8,291.7" fill="none" stroke="#2dd4bf" stroke-width="19" stroke-linecap="round" stroke-linejoin="round" opacity="0.95"/><path d="M263.8,170.0 L263.7,181.0 L263.6,192.0 L263.4,203.1 L263.3,214.1 L263.2,225.2 L263.1,236.2 L263.1,247.3 L263.0,258.4 L262.9,269.5 L262.9,280.6 L262.8,291.7" fill="none" stroke="#0c2020" stroke-width="11" stroke-linecap="round" stroke-linejoin="round" opacity="1.0"/><path d="M224.0,209.4 L227.6,205.8 L231.2,202.2 L234.9,198.6 L238.5,195.1 L242.1,191.5 L245.7,187.9 L249.3,184.3 L253.0,180.7 L256.6,177.1 L260.2,173.6 L263.8,170.0" fill="none" stroke="#f43f5e" stroke-width="23" stroke-linecap="round" stroke-linejoin="round" opacity="0.95"/><path d="M224.0,209.4 L227.6,205.8 L231.2,202.2 L234.9,198.6 L238.5,195.1 L242.1,191.5 L245.7,187.9 L249.3,184.3 L253.0,180.7 L256.6,177.1 L260.2,173.6 L263.8,170.0" fill="none" stroke="#0c2020" stroke-width="15" stroke-linecap="round" stroke-linejoin="round" opacity="1.0"/><circle cx="219.5" cy="233.9" r="19.0" fill="#f43f5e" stroke="none" stroke-width="0" opacity="0.95"/><circle cx="219.5" cy="233.9" r="15.0" fill="#0c2020" stroke="none" stroke-width="6.3" opacity="1.0"/><path d="M217.5,216.9 L214.5,219.9 L211.5,222.9 L208.5,225.9 L205.6,228.8 L202.6,231.8 L199.6,234.8 L199.0,238.5 L199.9,242.6 L200.7,246.7 L201.6,250.8 L202.5,254.9" fill="none" stroke="#2dd4bf" stroke-width="5" stroke-linecap="round" stroke-linejoin="round" opacity="1.0"/><path d="M210.2,230.9 L211.8,230.9 L213.5,230.9 L215.2,230.9 L216.9,230.9 L218.6,230.9 L220.3,230.9 L222.0,230.9 L223.7,230.9 L225.4,230.9 L227.1,230.9 L228.8,230.9" fill="none" stroke="#a7f3ee" stroke-width="5" stroke-linecap="round" stroke-linejoin="round" opacity="1.0"/></g></svg>
