<svg xmlns="http://www.w3.org/2000/svg" viewBox="0 0 480 320"><style>@keyframes k0{0%{opacity:1}11.111%{opacity:0}100%{opacity:0}}.f0{opacity:0;animation:k0 2.4s steps(1,end) infinite}@keyframes k1{0%{opacity:0}11.111%{opacity:1}16.667%{opacity:0}100%{opacity:0}}.f1{opacity:0;animation:k1 2.4s steps(1,end) infinite}@keyframes k2{0%{opacity:0}16.667%{opacity:1}22.222%{opacity:0}100%{opacity:0}}.f2{opacity:0;animation:k2 2.4s steps(1,end) infinite}@keyframes k3{0%{opacity:0}22.222%{opacity:1}27.778%{opacity:0}100%{opacity:0}}.f3{opacity:0;animation:k3 2.4s steps(1,end) infinite}@keyframes k4{0%{opacity:0}27.778%{opacity:1}33.333%{opacity:0}100%{opacity:0}}.f4{opacity:0;animation:k4 2.4s steps(1,end) infinite}@keyframes k5{0%{opacity:0}33.333%{opacity:1}38.889%{opacity:0}100%{opacity:0}}.f5{opacity:0;animation:k5 2.4s steps(1,end) infinite}@keyframes k6{0%{opacity:0}38.889%{opacity:1}44.444%{opacity:0}100%{opacity:0}}.f6{opacity:0;animation:k6 2.4s steps(1,end) infinite}@keyframes k7{0%{opacity:0}44.444%{opacity:1}50.000%{opacity:0}100%{opacity:0}}.f7{opacity:0;animation:k7 2.4s steps(1,end) infinite}@keyframes k8{0%{opacity:0}50.000%{opacity:1}61.111%{opacity:0}100%{opacity:0}}.f8{opacity:0;animation:k8 2.4s steps(1,end) infinite}@keyframes k9{0%{opacity:0}61.111%{opacity:1}66.667%{opacity:0}100%{opacity:0}}.f9{opacity:0;animation:k9 2.4s steps(1,end) infinite}@keyframes k10{0%{opacity:0}66.667%{opacity:1}72.222%{opacity:0}100%{opacity:0}}.f10{opacity:0;animation:k10 2.4s steps(1,end) infinite}@keyframes k11{0%{opacity:0}72.222%{opacity:1}77.778%{opacity:0}100%{opacity:0}}.f11{opacity:0;animation:k11 2.4s steps(1,end) infinite}@keyframes k12{0%{opacity:0}77.778%{opacity:1}83.333%{opacity:0}100%{opacity:0}}.f12{opacity:0;animation:k12 2.4s steps(1,end) infinite}@keyframes k13{0%{opacity:0}83.333%{opacity:1}88.889%{opacity:0}100%{opacity:0}}.f13{opacity:0;animation:k13 2.4s steps(1,end) infinite}@keyframes k14{0%{opacity:0}88.889%{opacity:1}94.444%{opacity:0}100%{opacity:0}}.f14{opacity:0;animation:k14 2.4s steps(1,end) infinite}@keyframes k15{0%{opacity:0}94.444%{opacity:1}100%{opacity:1}}.f15{opacity:0;animation:k15 2.4s steps(1,end) infinite}</style><path d="M40.0,292.0 L440.0,292.0" fill="none" stroke="#1f3333" stroke-width="6" stroke-linecap="round" stroke-linejoin="round" opacity="1.0"/><path d="M240.0,112.0 L240.0,190.0" fill="none" stroke="#2dd4bf" stroke-width="23" stroke-linecap="round" stroke-linejoin="round" opacity="0.95"/><path d="M240.0,112.0 L240.0,190.0" fill="none" stroke="#0c2020" stroke-width="15" stroke-linecap="round" stroke-linejoin="round" opacity="1.0"/><circle cx="240.0" cy="84.0" r="19.0" fill="#2dd4bf" stroke="none" stroke-width="0" opacity="0.95"/><circle cx="240.0" cy="84.0" r="15.0" fill="#0c2020" stroke="none" stroke-width="6.3" opacity="1.0"/><path d="M238.0,67.0 L219.0,86.0 L223.0,105.0" fill="none" stroke="#2dd4bf" stroke-width="5" stroke-linecap="round" stroke-linejoin="round" opacity="1.0"/><path d="M230.7,81.0 L249.3,81.0" fill="none" stroke="#a7f3ee" stroke-width="5" stroke-linecap="round" stroke-linejoin="round" opacity="1.0"/><g class="f0"><path d="M240.0,112.0 L234.9,118.0 L229.8,124.1 L224.6,130.1 L219.5,136.1 L214.4,142.1 L209.3,148.2 L205.5,154.8 L204.1,162.6 L202.7,170.4 L201.4,178.2 L200.0,186.0" fill="none" stroke="#0d9488" stroke-width="19" stroke-linecap="round" stroke-linejoin="round" opacity="0.95"/><path d="M240.0,112.0 L234.9,118.0 L229.8,124.1 L224.6,130.1 L219.5,136.1 L214.4,142.1 L209.3,148.2 L205.5,154.8 L204.1,162.6 L202.7,170.4 L201.4,178.2 L200.0,186.0" fill="none" stroke="#0c2020" stroke-width="11" stroke-linecap="round" stroke-linejoin="round" opacity="1.0"/><path d="M240.0,112.0 L245.1,118.0 L250.2,124.1 L255.4,130.1 L260.5,136.1 L265.6,142.1 L270.7,148.2 L274.5,154.8 L275.9,162.6 L277.3,170.4 L278.6,178.2 L280.0,186.0" fill="none" stroke="#2dd4bf" stroke-width="19" stroke-linecap="round" stroke-linejoin="round" opacity="0.95"/><path d="M240.0,112.0 L245.1,118.0 L250.2,124.1 L255.4,130.1 L260.5,136.1 L265.6,142.1 L270.7,148.2 L274.5,154.8 L275.9,162.6 L277.3,170.4 L278.6,178.2 L280.0,186.0" fill="none" stroke="#0c2020" stroke-width="11" stroke-linecap="round" stroke-linejoin="round" opacity="1.0"/><path d="M240.0,190.0 L238.2,199.2 L236.3,208.4 L234.5,217.6 L232.7,226.7 L230.8,235.9 L229.8,245.2 L229.4,254.6 L229.1,263.9 L228.7,273.3 L228.4,282.6 L228.0,292.0" fill="none" stroke="#8f2a3e" stroke-width="19" stroke-linecap="round" stroke-linejoin="round" opacity="0.95"/><path d="M240.0,190.0 L238.2,199.2 L236.3,208.4 L234.5,217.6 L232.7,226.7 L230.8,235.9 L229.8,245.2 L229.4,254.6 L229.1,263.9 L228.7,273.3 L228.4,282.6 L228.0,292.0" fill="none" stroke="#0c2020" stroke-width="11" stroke-linecap="round" stroke-linejoin="round" opacity="1.0"/><path d="M240.0,190.0 L241.8,199.2 L243.7,208.4 L245.5,217.6 L247.3,226.7 L249.2,235.9 L250.2,245.2 L250.6,254.6 L250.9,263.9 L251.3,273.3 L251.6,282.6 L252.0,292.0" fill="none" stroke="#f43f5e" stroke-width="19" stroke-linecap="round" stroke-linejoin="round" opacity="0.95"/><path d="M240.0,190.0 L241.8,199.2 L243.7,208.4 L245.5,217.6 L247.3,226.7 L249.2,235.9 L250.2,245.2 L250.6,254.6 L250.9,263.9 L251.3,273.3 L251.6,282.6 L252.0,292.0" fill="none" stroke="#0c2020" stroke-width="11" stroke-linecap="round" stroke-linejoin="round" opacity="1.0"/></g><g class="f1"><path d="M240.0,112.0 L234.8,117.6 L229.6,123.1 L224.4,128.7 L219.2,134.3 L214.0,139.8 L208.8,145.4 L205.0,151.5 L203.6,158.6 L202.1,165.7 L200.7,172.9 L199.2,180.0" fill="none" stroke="#0d9488" stroke-width="19" stroke-linecap="round" stroke-linejoin="round" opacity="0.95"/><path d="M240.0,112.0 L234.8,117.6 L229.6,123.1 L224.4,128.7 L219.2,134.3 L214.0,139.8 L208.8,145.4 L205.0,151.5 L203.6,158.6 L202.1,165.7 L200.7,172.9 L199.2,180.0" fill="none" stroke="#0c2020" stroke-width="11" stroke-linecap="round" stroke-linejoin="round" opacity="1.0"/><path d="M240.0,112.0 L245.2,117.6 L250.4,123.1 L255.6,128.7 L260.8,134.3 L266.0,139.8 L271.2,145.4 L275.0,151.5 L276.4,158.6 L277.9,165.7 L279.3,172.9 L280.8,180.0" fill="none" stroke="#2dd4bf" stroke-width="19" stroke-linecap="round" stroke-linejoin="round" opacity="0.95"/><path d="M240.0,112.0 L245.2,117.6 L250.4,123.1 L255.6,128.7 L260.8,134.3 L266.0,139.8 L271.2,145.4 L275.0,151.5 L276.4,158.6 L277.9,165.7 L279.3,172.9 L280.8,180.0" fill="none" stroke="#0c2020" stroke-width="11" stroke-linecap="round" stroke-linejoin="round" opacity="1.0"/><path d="M240.0,190.0 L238.0,199.2 L235.9,208.3 L233.9,217.5 L231.8,226.6 L229.8,235.8 L228.6,245.0 L228.0,254.4 L227.5,263.8 L227.0,273.2 L226.5,282.6 L226.0,292.0" fill="none" stroke="#8f2a3e" stroke-width="19" stroke-linecap="round" stroke-linejoin="round" opacity="0.95"/><path d="M240.0,190.0 L238.0,199.2 L235.9,208.3 L233.9,217.5 L231.8,226.6 L229.8,235.8 L228.6,245.0 L228.0,254.4 L227.5,263.8 L227.0,273.2 L226.5,282.6 L226.0,292.0" fill="none" stroke="#0c2020" stroke-width="11" stroke-linecap="round" stroke-linejoin="round" opacity="1.0"/><path d="M240.0,190.0 L242.0,199.2 L244.1,208.3 L246.1,217.5 L248.2,226.6 L250.2,235.8 L251.4,245.0 L252.0,254.4 L252.5,263.8 L253.0,273.2 L253.5,282.6 L254.0,292.0" fill="none" stroke="#f43f5e" stroke-width="19" stroke-linecap="round" stroke-linejoin="round" opacity="0.95"/><path d="M240.0,190.0 L242.0,199.2 L244.1,208.3 L246.1,217.5 L248.2,226.6 L250.2,235.8 L251.4,245.0 L252.0,254.4 L252.5,263.8 L253.0,273.2 L253.5,282.6 L254.0,292.0" fill="none" stroke="#0c2020" stroke-width="11" stroke-linecap="round" stroke-linejoin="round" opacity="1.0"/></g><g class="f2"><path d="M240.0,112.0 L234.6,116.4 L229.2,120.7 L223.8,125.1 L218.4,129.4 L213.0,133.8 L207.6,138.1 L203.7,142.7 L202.1,148.1 L200.5,153.4 L198.8,158.8 L197.2,164.1" fill="none" stroke="#0d9488" stroke-width="19" stroke-linecap="round" stroke-linejoin="round" opacity="0.95"/><path d="M240.0,112.0 L234.6,116.4 L229.2,120.7 L223.8,125.1 L218.4,129.4 L213.0,133.8 L207.6,138.1 L203.7,142.7 L202.1,148.1 L200.5,153.4 L198.8,158.8 L197.2,164.1" fill="none" stroke="#0c2020" stroke-width="11" stroke-linecap="round" stroke-linejoin="round" opacity="1.0"/><path d="M240.0,112.0 L245.4,116.4 L250.8,120.7 L256.2,125.1 L261.6,129.4 L267.0,133.8 L272.4,138.1 L276.3,142.7 L277.9,148.1 L279.5,153.4 L281.2,158.8 L282.8,164.1" fill="none" stroke="#2dd4bf" stroke-width="19" stroke-linecap="round" stroke-linejoin="round" opacity="0.95"/><path d="M240.0,112.0 L245.4,116.4 L250.8,120.7 L256.2,125.1 L261.6,129.4 L267.0,133.8 L272.4,138.1 L276.3,142.7 L277.9,148.1 L279.5,153.4 L281.2,158.8 L282.8,164.1" fill="none" stroke="#0c2020" stroke-width="11" stroke-linecap="round" stroke-linejoin="round" opacity="1.0"/><path d="M240.0,190.0 L237.4,199.1 L234.8,208.1 L232.2,217.2 L229.6,226.3 L227.0,235.4 L225.3,244.6 L224.4,254.1 L223.5,263.6 L222.6,273.0 L221.7,282.5 L220.8,292.0" fill="none" stroke="#8f2a3e" stroke-width="19" stroke-linecap="round" stroke-linejoin="round" opacity="0.95"/><path d="M240.0,190.0 L237.4,199.1 L234.8,208.1 L232.2,217.2 L229.6,226.3 L227.0,235.4 L225.3,244.6 L224.4,254.1 L223.5,263.6 L222.6,273.0 L221.7,282.5 L220.8,292.0" fill="none" stroke="#0c2020" stroke-width="11" stroke-linecap="round" stroke-linejoin="round" opacity="1.0"/><path d="M240.0,190.0 L242.6,199.1 L245.2,208.1 L247.8,217.2 L250.4,226.3 L253.0,235.4 L254.7,244.6 L255.6,254.1 L256.5,263.6 L257.4,273.0 L258.3,282.5 L259.2,292.0" fill="none" stroke="#f43f5e" stroke-width="19" stroke-linecap="round" stroke-linejoin="round" opacity="0.95"/><path d="M240.0,190.0 L242.6,199.1 L245.2,208.1 L247.8,217.2 L250.4,226.3 L253.0,235.4 L254.7,244.6 L255.6,254.1 L256.5,263.6 L257.4,273.0 L258.3,282.5 L259.2,292.0" fill="none" stroke="#0c2020" stroke-width="11" stroke-linecap="round" stroke-linejoin="round" opacity="1.0"/></g><g class="f3"><path d="M240.0,112.0 L234.3,114.6 L228.6,117.3 L222.9,119.9 L217.3,122.5 L211.6,125.2 L205.9,127.8 L201.9,130.3 L200.0,133.1 L198.1,136.0 L196.2,138.8 L194.3,141.7" fill="none" stroke="#0d9488" stroke-width="19" stroke-linecap="round" stroke-linejoin="round" opacity="0.95"/><path d="M240.0,112.0 L234.3,114.6 L228.6,117.3 L222.9,119.9 L217.3,122.5 L211.6,125.2 L205.9,127.8 L201.9,130.3 L200.0,133.1 L198.1,136.0 L196.2,138.8 L194.3,141.7" fill="none" stroke="#0c2020" stroke-width="11" stroke-linecap="round" stroke-linejoin="round" opacity="1.0"/><path d="M240.0,112.0 L245.7,114.6 L251.4,117.3 L257.1,119.9 L262.7,122.5 L268.4,125.2 L274.1,127.8 L278.1,130.3 L280.0,133.1 L281.9,136.0 L283.8,138.8 L285.7,141.7" fill="none" stroke="#2dd4bf" stroke-width="19" stroke-linecap="round" stroke-linejoin="round" opacity="0.95"/><path d="M240.0,112.0 L245.7,114.6 L251.4,117.3 L257.1,119.9 L262.7,122.5 L268.4,125.2 L274.1,127.8 L278.1,130.3 L280.0,133.1 L281.9,136.0 L283.8,138.8 L285.7,141.7" fill="none" stroke="#0c2020" stroke-width="11" stroke-linecap="round" stroke-linejoin="round" opacity="1.0"/><path d="M240.0,190.0 L236.6,199.0 L233.2,207.9 L229.9,216.9 L226.5,225.8 L223.1,234.8 L220.6,244.0 L219.2,253.6 L217.7,263.2 L216.3,272.8 L214.9,282.4 L213.4,292.0" fill="none" stroke="#8f2a3e" stroke-width="19" stroke-linecap="round" stroke-linejoin="round" opacity="0.95"/><path d="M240.0,190.0 L236.6,199.0 L233.2,207.9 L229.9,216.9 L226.5,225.8 L223.1,234.8 L220.6,244.0 L219.2,253.6 L217.7,263.2 L216.3,272.8 L214.9,282.4 L213.4,292.0" fill="none" stroke="#0c2020" stroke-width="11" stroke-linecap="round" stroke-linejoin="round" opacity="1.0"/><path d="M240.0,190.0 L243.4,199.0 L246.8,207.9 L250.1,216.9 L253.5,225.8 L256.9,234.8 L259.4,244.0 L260.8,253.6 L262.3,263.2 L263.7,272.8 L265.1,282.4 L266.6,292.0" fill="none" stroke="#f43f5e" stroke-width="19" stroke-linecap="round" stroke-linejoin="round" opacity="0.95"/><path d="M240.0,190.0 L243.4,199.0 L246.8,207.9 L250.1,216.9 L253.5,225.8 L256.9,234.8 L259.4,244.0 L260.8,253.6 L262.3,263.2 L263.7,272.8 L265.1,282.4 L266.6,292.0" fill="none" stroke="#0c2020" stroke-width="11" stroke-linecap="round" stroke-linejoin="round" opacity="1.0"/></g><g class="f4"><path d="M240.0,112.0 L234.0,112.7 L228.0,113.3 L222.0,114.0 L216.0,114.6 L209.9,115.3 L203.9,116.0 L199.8,116.0 L197.6,116.0 L195.4,116.0 L193.2,116.0 L191.0,116.0" fill="none" stroke="#0d9488" stroke-width="19" stroke-linecap="round" stroke-linejoin="round" opacity="0.95"/><path d="M240.0,112.0 L234.0,112.7 L228.0,113.3 L222.0,114.0 L216.0,114.6 L209.9,115.3 L203.9,116.0 L199.8,116.0 L197.6,116.0 L195.4,116.0 L193.2,116.0 L191.0,116.0" fill="none" stroke="#0c2020" stroke-width="11" stroke-linecap="round" stroke-linejoin="round" opacity="1.0"/><path d="M240.0,112.0 L246.0,112.7 L252.0,113.3 L258.0,114.0 L264.0,114.6 L270.1,115.3 L276.1,116.0 L280.2,116.0 L282.4,116.0 L284.6,116.0 L286.8,116.0 L289.0,116.0" fill="none" stroke="#2dd4bf" stroke-width="19" stroke-linecap="round" stroke-linejoin="round" opacity="0.95"/><path d="M240.0,112.0 L246.0,112.7 L252.0,113.3 L258.0,114.0 L264.0,114.6 L270.1,115.3 L276.1,116.0 L280.2,116.0 L282.4,116.0 L284.6,116.0 L286.8,116.0 L289.0,116.0" fill="none" stroke="#0c2020" stroke-width="11" stroke-linecap="round" stroke-linejoin="round" opacity="1.0"/><path d="M240.0,190.0 L235.7,198.8 L231.5,207.7 L227.2,216.5 L222.9,225.3 L218.6,234.1 L215.3,243.3 L213.2,253.0 L211.2,262.8 L209.1,272.5 L207.1,282.3 L205.0,292.0" fill="none" stroke="#8f2a3e" stroke-width="19" stroke-linecap="round" stroke-linejoin="round" opacity="0.95"/><path d="M240.0,190.0 L235.7,198.8 L231.5,207.7 L227.2,216.5 L222.9,225.3 L218.6,234.1 L215.3,243.3 L213.2,253.0 L211.2,262.8 L209.1,272.5 L207.1,282.3 L205.0,292.0" fill="none" stroke="#0c2020" stroke-width="11" stroke-linecap="round" stroke-linejoin="round" opacity="1.0"/><path d="M240.0,190.0 L244.3,198.8 L248.5,207.7 L252.8,216.5 L257.1,225.3 L261.4,234.1 L264.7,243.3 L266.8,253.0 L268.8,262.8 L270.9,272.5 L272.9,282.3 L275.0,292.0" fill="none" stroke="#f43f5e" stroke-width="19" stroke-linecap="round" stroke-linejoin="round" opacity="0.95"/><path d="M240.0,190.0 L244.3,198.8 L248.5,207.7 L252.8,216.5 L257.1,225.3 L261.4,234.1 L264.7,243.3 L266.8,253.0 L268.8,262.8 L270.9,272.5 L272.9,282.3 L275.0,292.0" fill="none" stroke="#0c2020" stroke-width="11" stroke-linecap="round" stroke-linejoin="round" opacity="1.0"/></g><g class="f5"><path d="M240.0,112.0 L233.7,110.7 L227.3,109.4 L221.0,108.1 L214.6,106.8 L208.3,105.5 L202.0,104.1 L197.7,101.7 L195.2,98.9 L192.7,96.0 L190.2,93.2 L187.7,90.3" fill="none" stroke="#0d9488" stroke-width="19" stroke-linecap="round" stroke-linejoin="round" opacity="0.95"/><path d="M240.0,112.0 L233.7,110.7 L227.3,109.4 L221.0,108.1 L214.6,106.8 L208.3,105.5 L202.0,104.1 L197.7,101.7 L195.2,98.9 L192.7,96.0 L190.2,93.2 L187.7,90.3" fill="none" stroke="#0c2020" stroke-width="11" stroke-linecap="round" stroke-linejoin="round" opacity="1.0"/><path d="M240.0,112.0 L246.3,110.7 L252.7,109.4 L259.0,108.1 L265.4,106.8 L271.7,105.5 L278.0,104.1 L282.3,101.7 L284.8,98.9 L287.3,96.0 L289.8,93.2 L292.3,90.3" fill="none" stroke="#2dd4bf" stroke-width="19" stroke-linecap="round" stroke-linejoin="round" opacity="0.95"/><path d="M240.0,112.0 L246.3,110.7 L252.7,109.4 L259.0,108.1 L265.4,106.8 L271.7,105.5 L278.0,104.1 L282.3,101.7 L284.8,98.9 L287.3,96.0 L289.8,93.2 L292.3,90.3" fill="none" stroke="#0c2020" stroke-width="11" stroke-linecap="round" stroke-linejoin="round" opacity="1.0"/><path d="M240.0,190.0 L234.8,198.7 L229.7,207.4 L224.5,216.1 L219.3,224.8 L214.2,233.5 L209.9,242.6 L207.3,252.5 L204.6,262.3 L201.9,272.2 L199.2,282.1 L196.6,292.0" fill="none" stroke="#8f2a3e" stroke-width="19" stroke-linecap="round" stroke-linejoin="round" opacity="0.95"/><path d="M240.0,190.0 L234.8,198.7 L229.7,207.4 L224.5,216.1 L219.3,224.8 L214.2,233.5 L209.9,242.6 L207.3,252.5 L204.6,262.3 L201.9,272.2 L199.2,282.1 L196.6,292.0" fill="none" stroke="#0c2020" stroke-width="11" stroke-linecap="round" stroke-linejoin="round" opacity="1.0"/><path d="M240.0,190.0 L245.2,198.7 L250.3,207.4 L255.5,216.1 L260.7,224.8 L265.8,233.5 L270.1,242.6 L272.7,252.5 L275.4,262.3 L278.1,272.2 L280.8,282.1 L283.4,292.0" fill="none" stroke="#f43f5e" stroke-width="19" stroke-linecap="round" stroke-linejoin="round" opacity="0.95"/><path d="M240.0,190.0 L245.2,198.7 L250.3,207.4 L255.5,216.1 L260.7,224.8 L265.8,233.5 L270.1,242.6 L272.7,252.5 L275.4,262.3 L278.1,272.2 L280.8,282.1 L283.4,292.0" fill="none" stroke="#0c2020" stroke-width="11" stroke-linecap="round" stroke-linejoin="round" opacity="1.0"/></g><g class="f6"><path d="M240.0,112.0 L233.4,109.0 L226.8,105.9 L220.1,102.9 L213.5,99.9 L206.9,96.9 L200.3,93.8 L195.9,89.3 L193.1,83.9 L190.4,78.6 L187.6,73.2 L184.8,67.9" fill="none" stroke="#0d9488" stroke-width="19" stroke-linecap="round" stroke-linejoin="round" opacity="0.95"/><path d="M240.0,112.0 L233.4,109.0 L226.8,105.9 L220.1,102.9 L213.5,99.9 L206.9,96.9 L200.3,93.8 L195.9,89.3 L193.1,83.9 L190.4,78.6 L187.6,73.2 L184.8,67.9" fill="none" stroke="#0c2020" stroke-width="11" stroke-linecap="round" stroke-linejoin="round" opacity="1.0"/><path d="M240.0,112.0 L246.6,109.0 L253.2,105.9 L259.9,102.9 L266.5,99.9 L273.1,96.9 L279.7,93.8 L284.1,89.3 L286.9,83.9 L289.6,78.6 L292.4,73.2 L295.2,67.9" fill="none" stroke="#2dd4bf" stroke-width="19" stroke-linecap="round" stroke-linejoin="round" opacity="0.95"/><path d="M240.0,112.0 L246.6,109.0 L253.2,105.9 L259.9,102.9 L266.5,99.9 L273.1,96.9 L279.7,93.8 L284.1,89.3 L286.9,83.9 L289.6,78.6 L292.4,73.2 L295.2,67.9" fill="none" stroke="#0c2020" stroke-width="11" stroke-linecap="round" stroke-linejoin="round" opacity="1.0"/><path d="M240.0,190.0 L234.1,198.6 L228.1,207.2 L222.2,215.7 L216.2,224.3 L210.3,232.9 L205.3,242.0 L202.1,252.0 L198.9,262.0 L195.6,272.0 L192.4,282.0 L189.2,292.0" fill="none" stroke="#8f2a3e" stroke-width="19" stroke-linecap="round" stroke-linejoin="round" opacity="0.95"/><path d="M240.0,190.0 L234.1,198.6 L228.1,207.2 L222.2,215.7 L216.2,224.3 L210.3,232.9 L205.3,242.0 L202.1,252.0 L198.9,262.0 L195.6,272.0 L192.4,282.0 L189.2,292.0" fill="none" stroke="#0c2020" stroke-width="11" stroke-linecap="round" stroke-linejoin="round" opacity="1.0"/><path d="M240.0,190.0 L245.9,198.6 L251.9,207.2 L257.8,215.7 L263.8,224.3 L269.7,232.9 L274.7,242.0 L277.9,252.0 L281.1,262.0 L284.4,272.0 L287.6,282.0 L290.8,292.0" fill="none" stroke="#f43f5e" stroke-width="19" stroke-linecap="round" stroke-linejoin="round" opacity="0.95"/><path d="M240.0,190.0 L245.9,198.6 L251.9,207.2 L257.8,215.7 L263.8,224.3 L269.7,232.9 L274.7,242.0 L277.9,252.0 L281.1,262.0 L284.4,272.0 L287.6,282.0 L290.8,292.0" fill="none" stroke="#0c2020" stroke-width="11" stroke-linecap="round" stroke-linejoin="round" opacity="1.0"/></g><g class="f7"><path d="M240.0,112.0 L233.2,107.8 L226.4,103.5 L219.5,99.3 L212.7,95.0 L205.9,90.8 L199.1,86.5 L194.6,80.5 L191.6,73.4 L188.7,66.2 L185.7,59.1 L182.8,52.0" fill="none" stroke="#0d9488" stroke-width="19" stroke-linecap="round" stroke-linejoin="round" opacity="0.95"/><path d="M240.0,112.0 L233.2,107.8 L226.4,103.5 L219.5,99.3 L212.7,95.0 L205.9,90.8 L199.1,86.5 L194.6,80.5 L191.6,73.4 L188.7,66.2 L185.7,59.1 L182.8,52.0" fill="none" stroke="#0c2020" stroke-width="11" stroke-linecap="round" stroke-linejoin="round" opacity="1.0"/><path d="M240.0,112.0 L246.8,107.8 L253.6,103.5 L260.5,99.3 L267.3,95.0 L274.1,90.8 L280.9,86.5 L285.4,80.5 L288.4,73.4 L291.3,66.2 L294.3,59.1 L297.2,52.0" fill="none" stroke="#2dd4bf" stroke-width="19" stroke-linecap="round" stroke-linejoin="round" opacity="0.95"/><path d="M240.0,112.0 L246.8,107.8 L253.6,103.5 L260.5,99.3 L267.3,95.0 L274.1,90.8 L280.9,86.5 L285.4,80.5 L288.4,73.4 L291.3,66.2 L294.3,59.1 L297.2,52.0" fill="none" stroke="#0c2020" stroke-width="11" stroke-linecap="round" stroke-linejoin="round" opacity="1.0"/><path d="M240.0,190.0 L233.5,198.5 L227.0,207.0 L220.5,215.5 L214.0,224.0 L207.5,232.5 L202.0,241.5 L198.4,251.6 L194.8,261.7 L191.2,271.8 L187.6,281.9 L184.0,292.0" fill="none" stroke="#8f2a3e" stroke-width="19" stroke-linecap="round" stroke-linejoin="round" opacity="0.95"/><path d="M240.0,190.0 L233.5,198.5 L227.0,207.0 L220.5,215.5 L214.0,224.0 L207.5,232.5 L202.0,241.5 L198.4,251.6 L194.8,261.7 L191.2,271.8 L187.6,281.9 L184.0,292.0" fill="none" stroke="#0c2020" stroke-width="11" stroke-linecap="round" stroke-linejoin="round" opacity="1.0"/><path d="M240.0,190.0 L246.5,198.5 L253.0,207.0 L259.5,215.5 L266.0,224.0 L272.5,232.5 L278.0,241.5 L281.6,251.6 L285.2,261.7 L288.8,271.8 L292.4,281.9 L296.0,292.0" fill="none" stroke="#f43f5e" stroke-width="19" stroke-linecap="round" stroke-linejoin="round" opacity="0.95"/><path d="M240.0,190.0 L246.5,198.5 L253.0,207.0 L259.5,215.5 L266.0,224.0 L272.5,232.5 L278.0,241.5 L281.6,251.6 L285.2,261.7 L288.8,271.8 L292.4,281.9 L296.0,292.0" fill="none" stroke="#0c2020" stroke-width="11" stroke-linecap="round" stroke-linejoin="round" opacity="1.0"/></g><g class="f8"><path d="M240.0,112.0 L233.1,107.3 L226.2,102.6 L219.3,97.9 L212.4,93.2 L205.5,88.5 L198.6,83.8 L194.1,77.1 L191.1,69.4 L188.1,61.6 L185.0,53.8 L182.0,46.0" fill="none" stroke="#0d9488" stroke-width="19" stroke-linecap="round" stroke-linejoin="round" opacity="0.95"/><path d="M240.0,112.0 L233.1,107.3 L226.2,102.6 L219.3,97.9 L212.4,93.2 L205.5,88.5 L198.6,83.8 L194.1,77.1 L191.1,69.4 L188.1,61.6 L185.0,53.8 L182.0,46.0" fill="none" stroke="#0c2020" stroke-width="11" stroke-linecap="round" stroke-linejoin="round" opacity="1.0"/><path d="M240.0,112.0 L246.9,107.3 L253.8,102.6 L260.7,97.9 L267.6,93.2 L274.5,88.5 L281.4,83.8 L285.9,77.1 L288.9,69.4 L291.9,61.6 L295.0,53.8 L298.0,46.0" fill="none" stroke="#2dd4bf" stroke-width="19" stroke-linecap="round" stroke-linejoin="round" opacity="0.95"/><path d="M240.0,112.0 L246.9,107.3 L253.8,102.6 L260.7,97.9 L267.6,93.2 L274.5,88.5 L281.4,83.8 L285.9,77.1 L288.9,69.4 L291.9,61.6 L295.0,53.8 L298.0,46.0" fill="none" stroke="#0c2020" stroke-width="11" stroke-linecap="round" stroke-linejoin="round" opacity="1.0"/><path d="M240.0,190.0 L233.3,198.5 L226.6,206.9 L219.9,215.4 L213.2,223.9 L206.5,232.3 L200.8,241.4 L197.0,251.5 L193.3,261.6 L189.5,271.7 L185.8,281.9 L182.0,292.0" fill="none" stroke="#8f2a3e" stroke-width="19" stroke-linecap="round" stroke-linejoin="round" opacity="0.95"/><path d="M240.0,190.0 L233.3,198.5 L226.6,206.9 L219.9,215.4 L213.2,223.9 L206.5,232.3 L200.8,241.4 L197.0,251.5 L193.3,261.6 L189.5,271.7 L185.8,281.9 L182.0,292.0" fill="none" stroke="#0c2020" stroke-width="11" stroke-linecap="round" stroke-linejoin="round" opacity="1.0"/><path d="M240.0,190.0 L246.7,198.5 L253.4,206.9 L260.1,215.4 L266.8,223.9 L273.5,232.3 L279.2,241.4 L283.0,251.5 L286.7,261.6 L290.5,271.7 L294.2,281.9 L298.0,292.0" fill="none" stroke="#f43f5e" stroke-width="19" stroke-linecap="round" stroke-linejoin="round" opacity="0.95"/><path d="M240.0,190.0 L246.7,198.5 L253.4,206.9 L260.1,215.4 L266.8,223.9 L273.5,232.3 L279.2,241.4 L283.0,251.5 L286.7,261.6 L290.5,271.7 L294.2,281.9 L298.0,292.0" fill="none" stroke="#0c2020" stroke-width="11" stroke-linecap="round" stroke-linejoin="round" opacity="1.0"/></g><g class="f9"><path d="M240.0,112.0 L233.2,107.8 L226.4,103.5 L219.5,99.3 L212.7,95.0 L205.9,90.8 L199.1,86.5 L194.6,80.5 L191.6,73.4 L188.7,66.2 L185.7,59.1 L182.8,52.0" fill="none" stroke="#0d9488" stroke-width="19" stroke-linecap="round" stroke-linejoin="round" opacity="0.95"/><path d="M240.0,112.0 L233.2,107.8 L226.4,103.5 L219.5,99.3 L212.7,95.0 L205.9,90.8 L199.1,86.5 L194.6,80.5 L191.6,73.4 L188.7,66.2 L185.7,59.1 L182.8,52.0" fill="none" stroke="#0c2020" stroke-width="11" stroke-linecap="round" stroke-linejoin="round" opacity="1.0"/><path d="M240.0,112.0 L246.8,107.8 L253.6,103.5 L260.5,99.3 L267.3,95.0 L274.1,90.8 L280.9,86.5 L285.4,80.5 L288.4,73.4 L291.3,66.2 L294.3,59.1 L297.2,52.0" fill="none" stroke="#2dd4bf" stroke-width="19" stroke-linecap="round" stroke-linejoin="round" opacity="0.95"/><path d="M240.0,112.0 L246.8,107.8 L253.6,103.5 L260.5,99.3 L267.3,95.0 L274.1,90.8 L280.9,86.5 L285.4,80.5 L288.4,73.4 L291.3,66.2 L294.3,59.1 L297.2,52.0" fill="none" stroke="#0c2020" stroke-width="11" stroke-linecap="round" stroke-linejoin="round" opacity="1.0"/><path d="M240.0,190.0 L233.5,198.5 L227.0,207.0 L220.5,215.5 L214.0,224.0 L207.5,232.5 L202.0,241.5 L198.4,251.6 L194.8,261.7 L191.2,271.8 L187.6,281.9 L184.0,292.0" fill="none" stroke="#8f2a3e" stroke-width="19" stroke-linecap="round" stroke-linejoin="round" opacity="0.95"/><path d="M240.0,190.0 L233.5,198.5 L227.0,207.0 L220.5,215.5 L214.0,224.0 L207.5,232.5 L202.0,241.5 L198.4,251.6 L194.8,261.7 L191.2,271.8 L187.6,281.9 L184.0,292.0" fill="none" stroke="#0c2020" stroke-width="11" stroke-linecap="round" stroke-linejoin="round" opacity="1.0"/><path d="M240.0,190.0 L246.5,198.5 L253.0,207.0 L259.5,215.5 L266.0,224.0 L272.5,232.5 L278.0,241.5 L281.6,251.6 L285.2,261.7 L288.8,271.8 L292.4,281.9 L296.0,292.0" fill="none" stroke="#f43f5e" stroke-width="19" stroke-linecap="round" stroke-linejoin="round" opacity="0.95"/><path d="M240.0,190.0 L246.5,198.5 L253.0,207.0 L259.5,215.5 L266.0,224.0 L272.5,232.5 L278.0,241.5 L281.6,251.6 L285.2,261.7 L288.8,271.8 L292.4,281.9 L296.0,292.0" fill="none" stroke="#0c2020" stroke-width="11" stroke-linecap="round" stroke-linejoin="round" opacity="1.0"/></g><g class="f10"><path d="M240.0,112.0 L233.4,109.0 L226.8,105.9 L220.1,102.9 L213.5,99.9 L206.9,96.9 L200.3,93.8 L195.9,89.3 L193.1,83.9 L190.4,78.6 L187.6,73.2 L184.8,67.9" fill="none" stroke="#0d9488" stroke-width="19" stroke-linecap="round" stroke-linejoin="round" opacity="0.95"/><path d="M240.0,112.0 L233.4,109.0 L226.8,105.9 L220.1,102.9 L213.5,99.9 L206.9,96.9 L200.3,93.8 L195.9,89.3 L193.1,83.9 L190.4,78.6 L187.6,73.2 L184.8,67.9" fill="none" stroke="#0c2020" stroke-width="11" stroke-linecap="round" stroke-linejoin="round" opacity="1.0"/><path d="M240.0,112.0 L246.6,109.0 L253.2,105.9 L259.9,102.9 L266.5,99.9 L273.1,96.9 L279.7,93.8 L284.1,89.3 L286.9,83.9 L289.6,78.6 L292.4,73.2 L295.2,67.9" fill="none" stroke="#2dd4bf" stroke-width="19" stroke-linecap="round" stroke-linejoin="round" opacity="0.95"/><path d="M240.0,112.0 L246.6,109.0 L253.2,105.9 L259.9,102.9 L266.5,99.9 L273.1,96.9 L279.7,93.8 L284.1,89.3 L286.9,83.9 L289.6,78.6 L292.4,73.2 L295.2,67.9" fill="none" stroke="#0c2020" stroke-width="11" stroke-linecap="round" stroke-linejoin="round" opacity="1.0"/><path d="M240.0,190.0 L234.1,198.6 L228.1,207.2 L222.2,215.7 L216.2,224.3 L210.3,232.9 L205.3,242.0 L202.1,252.0 L198.9,262.0 L195.6,272.0 L192.4,282.0 L189.2,292.0" fill="none" stroke="#8f2a3e" stroke-width="19" stroke-linecap="round" stroke-linejoin="round" opacity="0.95"/><path d="M240.0,190.0 L234.1,198.6 L228.1,207.2 L222.2,215.7 L216.2,224.3 L210.3,232.9 L205.3,242.0 L202.1,252.0 L198.9,262.0 L195.6,272.0 L192.4,282.0 L189.2,292.0" fill="none" stroke="#0c2020" stroke-width="11" stroke-linecap="round" stroke-linejoin="round" opacity="1.0"/><path d="M240.0,190.0 L245.9,198.6 L251.9,207.2 L257.8,215.7 L263.8,224.3 L269.7,232.9 L274.7,242.0 L277.9,252.0 L281.1,262.0 L284.4,272.0 L287.6,282.0 L290.8,292.0" fill="none" stroke="#f43f5e" stroke-width="19" stroke-linecap="round" stroke-linejoin="round" opacity="0.95"/><path d="M240.0,190.0 L245.9,198.6 L251.9,207.2 L257.8,215.7 L263.8,224.3 L269.7,232.9 L274.7,242.0 L277.9,252.0 L281.1,262.0 L284.4,272.0 L287.6,282.0 L290.8,292.0" fill="none" stroke="#0c2020" stroke-width="11" stroke-linecap="round" stroke-linejoin="round" opacity="1.0"/></g><g class="f11"><path d="M240.0,112.0 L233.7,110.7 L227.3,109.4 L221.0,108.1 L214.6,106.8 L208.3,105.5 L202.0,104.1 L197.7,101.7 L195.2,98.9 L192.7,96.0 L190.2,93.2 L187.7,90.3" fill="none" stroke="#0d9488" stroke-width="19" stroke-linecap="round" stroke-linejoin="round" opacity="0.95"/><path d="M240.0,112.0 L233.7,110.7 L227.3,109.4 L221.0,108.1 L214.6,106.8 L208.3,105.5 L202.0,104.1 L197.7,101.7 L195.2,98.9 L192.7,96.0 L190.2,93.2 L187.7,90.3" fill="none" stroke="#0c2020" stroke-width="11" stroke-linecap="round" stroke-linejoin="round" opacity="1.0"/><path d="M240.0,112.0 L246.3,110.7 L252.7,109.4 L259.0,108.1 L265.4,106.8 L271.7,105.5 L278.0,104.1 L282.3,101.7 L284.8,98.9 L287.3,96.0 L289.8,93.2 L292.3,90.3" fill="none" stroke="#2dd4bf" stroke-width="19" stroke-linecap="round" stroke-linejoin="round" opacity="0.95"/><path d="M240.0,112.0 L246.3,110.7 L252.7,109.4 L259.0,108.1 L265.4,106.8 L271.7,105.5 L278.0,104.1 L282.3,101.7 L284.8,98.9 L287.3,96.0 L289.8,93.2 L292.3,90.3" fill="none" stroke="#0c2020" stroke-width="11" stroke-linecap="round" stroke-linejoin="round" opacity="1.0"/><path d="M240.0,190.0 L234.8,198.7 L229.7,207.4 L224.5,216.1 L219.3,224.8 L214.2,233.5 L209.9,242.6 L207.3,252.5 L204.6,262.3 L201.9,272.2 L199.2,282.1 L196.6,292.0" fill="none" stroke="#8f2a3e" stroke-width="19" stroke-linecap="round" stroke-linejoin="round" opacity="0.95"/><path d="M240.0,190.0 L234.8,198.7 L229.7,207.4 L224.5,216.1 L219.3,224.8 L214.2,233.5 L209.9,242.6 L207.3,252.5 L204.6,262.3 L201.9,272.2 L199.2,282.1 L196.6,292.0" fill="none" stroke="#0c2020" stroke-width="11" stroke-linecap="round" stroke-linejoin="round" opacity="1.0"/><path d="M240.0,190.0 L245.2,198.7 L250.3,207.4 L255.5,216.1 L260.7,224.8 L265.8,233.5 L270.1,242.6 L272.7,252.5 L275.4,262.3 L278.1,272.2 L280.8,282.1 L283.4,292.0" fill="none" stroke="#f43f5e" stroke-width="19" stroke-linecap="round" stroke-linejoin="round" opacity="0.95"/><path d="M240.0,190.0 L245.2,198.7 L250.3,207.4 L255.5,216.1 L260.7,224.8 L265.8,233.5 L270.1,242.6 L272.7,252.5 L275.4,262.3 L278.1,272.2 L280.8,282.1 L283.4,292.0" fill="none" stroke="#0c2020" stroke-width="11" stroke-linecap="round" stroke-linejoin="round" opacity="1.0"/></g><g class="f12"><path d="M240.0,112.0 L234.0,112.7 L228.0,113.3 L222.0,114.0 L216.0,114.6 L209.9,115.3 L203.9,116.0 L199.8,116.0 L197.6,116.0 L195.4,116.0 L193.2,116.0 L191.0,116.0" fill="none" stroke="#0d9488" stroke-width="19" stroke-linecap="round" stroke-linejoin="round" opacity="0.95"/><path d="M240.0,112.0 L234.0,112.7 L228.0,113.3 L222.0,114.0 L216.0,114.6 L209.9,115.3 L203.9,116.0 L199.8,116.0 L197.6,116.0 L195.4,116.0 L193.2,116.0 L191.0,116.0" fill="none" stroke="#0c2020" stroke-width="11" stroke-linecap="round" stroke-linejoin="round" opacity="1.0"/><path d="M240.0,112.0 L246.0,112.7 L252.0,113.3 L258.0,114.0 L264.0,114.6 L270.1,115.3 L276.1,116.0 L280.2,116.0 L282.4,116.0 L284.6,116.0 L286.8,116.0 L289.0,116.0" fill="none" stroke="#2dd4bf" stroke-width="19" stroke-linecap="round" stroke-linejoin="round" opacity="0.95"/><path d="M240.0,112.0 L246.0,112.7 L252.0,113.3 L258.0,114.0 L264.0,114.6 L270.1,115.3 L276.1,116.0 L280.2,116.0 L282.4,116.0 L284.6,116.0 L286.8,116.0 L289.0,116.0" fill="none" stroke="#0c2020" stroke-width="11" stroke-linecap="round" stroke-linejoin="round" opacity="1.0"/><path d="M240.0,190.0 L235.7,198.8 L231.5,207.7 L227.2,216.5 L222.9,225.3 L218.6,234.1 L215.3,243.3 L213.2,253.0 L211.2,262.8 L209.1,272.5 L207.1,282.3 L205.0,292.0" fill="none" stroke="#8f2a3e" stroke-width="19" stroke-linecap="round" stroke-linejoin="round" opacity="0.95"/><path d="M240.0,190.0 L235.7,198.8 L231.5,207.7 L227.2,216.5 L222.9,225.3 L218.6,234.1 L215.3,243.3 L213.2,253.0 L211.2,262.8 L209.1,272.5 L207.1,282.3 L205.0,292.0" fill="none" stroke="#0c2020" stroke-width="11" stroke-linecap="round" stroke-linejoin="round" opacity="1.0"/><path d="M240.0,190.0 L244.3,198.8 L248.5,207.7 L252.8,216.5 L257.1,225.3 L261.4,234.1 L264.7,243.3 L266.8,253.0 L268.8,262.8 L270.9,272.5 L272.9,282.3 L275.0,292.0" fill="none" stroke="#f43f5e" stroke-width="19" stroke-linecap="round" stroke-linejoin="round" opacity="0.95"/><path d="M240.0,190.0 L244.3,198.8 L248.5,207.7 L252.8,216.5 L257.1,225.3 L261.4,234.1 L264.7,243.3 L266.8,253.0 L268.8,262.8 L270.9,272.5 L272.9,282.3 L275.0,292.0" fill="none" stroke="#0c2020" stroke-width="11" stroke-linecap="round" stroke-linejoin="round" opacity="1.0"/></g><g class="f13"><path d="M240.0,112.0 L234.3,114.6 L228.6,117.3 L222.9,119.9 L217.3,122.5 L211.6,125.2 L205.9,127.8 L201.9,130.3 L200.0,133.1 L198.1,136.0 L196.2,138.8 L194.3,141.7" fill="none" stroke="#0d9488" stroke-width="19" stroke-linecap="round" stroke-linejoin="round" opacity="0.95"/><path d="M240.0,112.0 L234.3,114.6 L228.6,117.3 L222.9,119.9 L217.3,122.5 L211.6,125.2 L205.9,127.8 L201.9,130.3 L200.0,133.1 L198.1,136.0 L196.2,138.8 L194.3,141.7" fill="none" stroke="#0c2020" stroke-width="11" stroke-linecap="round" stroke-linejoin="round" opacity="1.0"/><path d="M240.0,112.0 L245.7,114.6 L251.4,117.3 L257.1,119.9 L262.7,122.5 L268.4,125.2 L274.1,127.8 L278.1,130.3 L280.0,133.1 L281.9,136.0 L283.8,138.8 L285.7,141.7" fill="none" stroke="#2dd4bf" stroke-width="19" stroke-linecap="round" stroke-linejoin="round" opacity="0.95"/><path d="M240.0,112.0 L245.7,114.6 L251.4,117.3 L257.1,119.9 L262.7,122.5 L268.4,125.2 L274.1,127.8 L278.1,130.3 L280.0,133.1 L281.9,136.0 L283.8,138.8 L285.7,141.7" fill="none" stroke="#0c2020" stroke-width="11" stroke-linecap="round" stroke-linejoin="round" opacity="1.0"/><path d="M240.0,190.0 L236.6,199.0 L233.2,207.9 L229.9,216.9 L226.5,225.8 L223.1,234.8 L220.6,244.0 L219.2,253.6 L217.7,263.2 L216.3,272.8 L214.9,282.4 L213.4,292.0" fill="none" stroke="#8f2a3e" stroke-width="19" stroke-linecap="round" stroke-linejoin="round" opacity="0.95"/><path d="M240.0,190.0 L236.6,199.0 L233.2,207.9 L229.9,216.9 L226.5,225.8 L223.1,234.8 L220.6,244.0 L219.2,253.6 L217.7,263.2 L216.3,272.8 L214.9,282.4 L213.4,292.0" fill="none" stroke="#0c2020" stroke-width="11" stroke-linecap="round" stroke-linejoin="round" opacity="1.0"/><path d="M240.0,190.0 L243.4,199.0 L246.8,207.9 L250.1,216.9 L253.5,225.8 L256.9,234.8 L259.4,244.0 L260.8,253.6 L262.3,263.2 L263.7,272.8 L265.1,282.4 L266.6,292.0" fill="none" stroke="#f43f5e" stroke-width="19" stroke-linecap="round" stroke-linejoin="round" opacity="0.95"/><path d="M240.0,190.0 L243.4,199.0 L246.8,207.9 L250.1,216.9 L253.5,225.8 L256.9,234.8 L259.4,244.0 L260.8,253.6 L262.3,263.2 L263.7,272.8 L265.1,282.4 L266.6,292.0" fill="none" stroke="#0c2020" stroke-width="11" stroke-linecap="round" stroke-linejoin="round" opacity="1.0"/></g><g class="f14"><path d="M240.0,112.0 L234.6,116.4 L229.2,120.7 L223.8,125.1 L218.4,129.4 L213.0,133.8 L207.6,138.1 L203.7,142.7 L202.1,148.1 L200.5,153.4 L198.8,158.8 L197.2,164.1" fill="none" stroke="#0d9488" stroke-width="19" stroke-linecap="round" stroke-linejoin="round" opacity="0.95"/><path d="M240.0,112.0 L234.6,116.4 L229.2,120.7 L223.8,125.1 L218.4,129.4 L213.0,133.8 L207.6,138.1 L203.7,142.7 L202.1,148.1 L200.5,153.4 L198.8,158.8 L197.2,164.1" fill="none" stroke="#0c2020" stroke-width="11" stroke-linecap="round" stroke-linejoin="round" opacity="1.0"/><path d="M240.0,112.0 L245.4,116.4 L250.8,120.7 L256.2,125.1 L261.6,129.4 L267.0,133.8 L272.4,138.1 L276.3,142.7 L277.9,148.1 L279.5,153.4 L281.2,158.8 L282.8,164.1" fill="none" stroke="#2dd4bf" stroke-width="19" stroke-linecap="round" stroke-linejoin="round" opacity="0.95"/><path d="M240.0,112.0 L245.4,116.4 L250.8,120.7 L256.2,125.1 L261.6,129.4 L267.0,133.8 L272.4,138.1 L276.3,142.7 L277.9,148.1 L279.5,153.4 L281.2,158.8 L282.8,164.1" fill="none" stroke="#0c2020" stroke-width="11" stroke-linecap="round" stroke-linejoin="round" opacity="1.0"/><path d="M240.0,190.0 L237.4,199.1 L234.8,208.1 L232.2,217.2 L229.6,226.3 L227.0,235.4 L225.3,244.6 L224.4,254.1 L223.5,263.6 L222.6,273.0 L221.7,282.5 L220.8,292.0" fill="none" stroke="#8f2a3e" stroke-width="19" stroke-linecap="round" stroke-linejoin="round" opacity="0.95"/><path d="M240.0,190.0 L237.4,199.1 L234.8,208.1 L232.2,217.2 L229.6,226.3 L227.0,235.4 L225.3,244.6 L224.4,254.1 L223.5,263.6 L222.6,273.0 L221.7,282.5 L220.8,292.0" fill="none" stroke="#0c2020" stroke-width="11" stroke-linecap="round" stroke-linejoin="round" opacity="1.0"/><path d="M240.0,190.0 L242.6,199.1 L245.2,208.1 L247.8,217.2 L250.4,226.3 L253.0,235.4 L254.7,244.6 L255.6,254.1 L256.5,263.6 L257.4,273.0 L258.3,282.5 L259.2,292.0" fill="none" stroke="#f43f5e" stroke-width="19" stroke-linecap="round" stroke-linejoin="round" opacity="0.95"/><path d="M240.0,190.0 L242.6,199.1 L245.2,208.1 L247.8,217.2 L250.4,226.3 L253.0,235.4 L254.7,244.6 L255.6,254.1 L256.5,263.6 L257.4,273.0 L258.3,282.5 L259.2,292.0" fill="none" stroke="#0c2020" stroke-width="11" stroke-linecap="round" stroke-linejoin="round" opacity="1.0"/></g><g class="f15"><path d="M240.0,112.0 L234.8,117.6 L229.6,123.1 L224.4,128.7 L219.2,134.3 L214.0,139.8 L208.8,145.4 L205.0,151.5 L203.6,158.6 L202.1,165.7 L200.7,172.9 L199.2,180.0" fill="none" stroke="#0d9488" stroke-width="19" stroke-linecap="round" stroke-linejoin="round" opacity="0.95"/><path d="M240.0,112.0 L234.8,117.6 L229.6,123.1 L224.4,128.7 L219.2,134.3 L214.0,139.8 L208.8,145.4 L205.0,151.5 L203.6,158.6 L202.1,165.7 L200.7,172.9 L199.2,180.0" fill="none" stroke="#0c2020" stroke-width="11" stroke-linecap="round" stroke-linejoin="round" opacity="1.0"/><path d="M240.0,112.0 L245.2,117.6 L250.4,123.1 L255.6,128.7 L260.8,134.3 L266.0,139.8 L271.2,145.4 L275.0,151.5 L276.4,158.6 L277.9,165.7 L279.3,172.9 L280.8,180.0" fill="none" stroke="#2dd4bf" stroke-width="19" stroke-linecap="round" stroke-linejoin="round" opacity="0.95"/><path d="M240.0,112.0 L245.2,117.6 L250.4,123.1 L255.6,128.7 L260.8,134.3 L266.0,139.8 L271.2,145.4 L275.0,151.5 L276.4,158.6 L277.9,165.7 L279.3,172.9 L280.8,180.0" fill="none" stroke="#0c2020" stroke-width="11" stroke-linecap="round" stroke-linejoin="round" opacity="1.0"/><path d="M240.0,190.0 L238.0,199.2 L235.9,208.3 L233.9,217.5 L231.8,226.6 L229.8,235.8 L228.6,245.0 L228.0,254.4 L227.5,263.8 L227.0,273.2 L226.5,282.6 L226.0,292.0" fill="none" stroke="#8f2a3e" stroke-width="19" stroke-linecap="round" stroke-linejoin="round" opacity="0.95"/><path d="M240.0,190.0 L238.0,199.2 L235.9,208.3 L233.9,217.5 L231.8,226.6 L229.8,235.8 L228.6,245.0 L228.0,254.4 L227.5,263.8 L227.0,273.2 L226.5,282.6 L226.0,292.0" fill="none" stroke="#0c2020" stroke-width="11" stroke-linecap="round" stroke-linejoin="round" opacity="1.0"/><path d="M240.0,190.0 L242.0,199.2 L244.1,208.3 L246.1,217.5 L248.2,226.6 L250.2,235.8 L251.4,245.0 L252.0,254.4 L252.5,263.8 L253.0,273.2 L253.5,282.6 L254.0,292.0" fill="none" stroke="#f43f5e" stroke-width="19" stroke-linecap="round" stroke-linejoin="round" opacity="0.95"/><path d="M240.0,190.0 L242.0,199.2 L244.1,208.3 L246.1,217.5 L248.2,226.6 L250.2,235.8 L251.4,245.0 L252.0,254.4 L252.5,263.8 L253.0,273.2 L253.5,282.6 L254.0,292.0" fill="none" stroke="#0c2020" stroke-width="11" stroke-linecap="round" stroke-linejoin="round" opacity="1.0"/></g></svg>
