<svg xmlns="http://www.w3.org/2000/svg" viewBox="0 0 480 320"><style>@keyframes k0{0%{opacity:1}11.111%{opacity:0}100%{opacity:0}}.f0{opacity:0;animation:k0 2.4s steps(1,end) infinite}@keyframes k1{0%{opacity:0}11.111%{opacity:1}16.667%{opacity:0}100%{opacity:0}}.f1{opacity:0;animation:k1 2.4s steps(1,end) infinite}@keyframes k2{0%{opacity:0}16.667%{opacity:1}22.222%{opacity:0}100%{opacity:0}}.f2{opacity:0;animation:k2 2.4s steps(1,end) infinite}@keyframes k3{0%{opacity:0}22.222%{opacity:1}27.778%{opacity:0}100%{opacity:0}}.f3{opacity:0;animation:k3 2.4s steps(1,end) infinite}@keyframes k4{0%{opacity:0}27.778%{opacity:1}33.333%{opacity:0}100%{opacity:0}}.f4{opacity:0;animation:k4 2.4s steps(1,end) infinite}@keyframes k5{0%{opacity:0}33.333%{opacity:1}38.889%{opacity:0}100%{opacity:0}}.f5{opacity:0;animation:k5 2.4s steps(1,end) infinite}@keyframes k6{0%{opacity:0}38.889%{opacity:1}44.444%{opacity:0}100%{opacity:0}}.f6{opacity:0;animation:k6 2.4s steps(1,end) infinite}@keyframes k7{0%{opacity:0}44.444%{opacity:1}50.000%{opacity:0}100%{opacity:0}}.f7{opacity:0;animation:k7 2.4s steps(1,end) infinite}@keyframes k8{0%{opacity:0}50.000%{opacity:1}61.111%{opacity:0}100%{opacity:0}}.f8{opacity:0;animation:k8 2.4s steps(1,end) infinite}@keyframes k9{0%{opacity:0}61.111%{opacity:1}66.667%{opacity:0}100%{opacity:0}}.f9{opacity:0;animation:k9 2.4s steps(1,end) infinite}@keyframes k10{0%{opacity:0}66.667%{opacity:1}72.222%{opacity:0}100%{opacity:0}}.f10{opacity:0;animation:k10 2.4s steps(1,end) infinite}@keyframes k11{0%{opacity:0}72.222%{opacity:1}77.778%{opacity:0}100%{opacity:0}}.f11{opacity:0;animation:k11 2.4s steps(1,end) infinite}@keyframes k12{0%{opacity:0}77.778%{opacity:1}83.333%{opacity:0}100%{opacity:0}}.f12{opacity:0;animation:k12 2.4s steps(1,end) infinite}@keyframes k13{0%{opacity:0}83.333%{opacity:1}88.889%{opacity:0}100%{opacity:0}}.f13{opacity:0;animation:k13 2.4s steps(1,end) infinite}@keyframes k14{0%{opacity:0}88.889%{opacity:1}94.444%{opacity:0}100%{opacity:0}}.f14{opacity:0;animation:k14 2.4s steps(1,end) infinite}@keyframes k15{0%{opacity:0}94.444%{opacity:1}100%{opacity:1}}.f15{opacity:0;animation:k15 2.4s steps(1,end) infinite}</style><path d="M40.0,292.0 L440.0,292.0" fill="none" stroke="#1f3333" stroke-width="6" stroke-linecap="round" stroke-linejoin="round" opacity="1.0"/><g class="f0"><path d="M230.0,158.0 L233.4,163.7 L236.8,169.4 L240.2,175.1 L243.6,180.9 L247.0,186.6 L250.4,192.3 L251.8,198.5 L251.3,205.1 L250.9,211.7 L250.4,218.4 L250.0,225.0" fill="none" stroke="#2dd4bf" stroke-width="21" stroke-linecap="round" stroke-linejoin="round" opacity="0.95"/><path d="M230.0,158.0 L233.4,163.7 L236.8,169.4 L240.2,175.1 L243.6,180.9 L247.0,186.6 L250.4,192.3 L251.8,198.5 L251.3,205.1 L250.9,211.7 L250.4,218.4 L250.0,225.0" fill="none" stroke="#0c2020" stroke-width="13" stroke-linecap="round" stroke-linejoin="round" opacity="1.0"/><path d="M208.0,238.0 L217.7,239.0 L227.5,240.0 L237.2,241.0 L247.0,242.0 L256.7,243.0 L265.9,244.5 L263.5,254.0 L261.1,263.5 L258.8,273.0 L256.4,282.5 L254.0,292.0" fill="none" stroke="#8f2a3e" stroke-width="21" stroke-linecap="round" stroke-linejoin="round" opacity="0.95"/><path d="M208.0,238.0 L217.7,239.0 L227.5,240.0 L237.2,241.0 L247.0,242.0 L256.7,243.0 L265.9,244.5 L263.5,254.0 L261.1,263.5 L258.8,273.0 L256.4,282.5 L254.0,292.0" fill="none" stroke="#0c2020" stroke-width="13" stroke-linecap="round" stroke-linejoin="round" opacity="1.0"/><path d="M208.0,238.0 L217.9,239.3 L227.8,240.5 L237.6,241.8 L247.5,243.1 L257.4,244.4 L267.3,245.6 L268.5,253.1 L266.3,262.8 L264.2,272.5 L262.1,282.3 L260.0,292.0" fill="none" stroke="#f43f5e" stroke-width="21" stroke-linecap="round" stroke-linejoin="round" opacity="0.95"/><path d="M208.0,238.0 L217.9,239.3 L227.8,240.5 L237.6,241.8 L247.5,243.1 L257.4,244.4 L267.3,245.6 L268.5,253.1 L266.3,262.8 L264.2,272.5 L262.1,282.3 L260.0,292.0" fill="none" stroke="#0c2020" stroke-width="13" stroke-linecap="round" stroke-linejoin="round" opacity="1.0"/><path d="M230.0,158.0 L228.0,165.3 L226.0,172.5 L224.0,179.8 L222.0,187.1 L220.0,194.4 L218.0,201.6 L216.0,208.9 L214.0,216.2 L212.0,223.5 L210.0,230.7 L208.0,238.0" fill="none" stroke="#2dd4bf" stroke-width="25" stroke-linecap="round" stroke-linejoin="round" opacity="0.95"/><path d="M230.0,158.0 L228.0,165.3 L226.0,172.5 L224.0,179.8 L222.0,187.1 L220.0,194.4 L218.0,201.6 L216.0,208.9 L214.0,216.2 L212.0,223.5 L210.0,230.7 L208.0,238.0" fill="none" stroke="#0c2020" stroke-width="17" stroke-linecap="round" stroke-linejoin="round" opacity="1.0"/><circle cx="236.0" cy="130.0" r="19.0" fill="#2dd4bf" stroke="none" stroke-width="0" opacity="0.95"/><circle cx="236.0" cy="130.0" r="15.0" fill="#0c2020" stroke="none" stroke-width="6.3" opacity="1.0"/><path d="M226.7,127.0 L228.4,127.0 L230.1,127.0 L231.8,127.0 L233.5,127.0 L235.2,127.0 L236.8,127.0 L238.5,127.0 L240.2,127.0 L241.9,127.0 L243.6,127.0 L245.3,127.0" fill="none" stroke="#a7f3ee" stroke-width="5" stroke-linecap="round" stroke-linejoin="round" opacity="1.0"/></g><g class="f1"><path d="M230.4,154.1 L233.8,159.4 L237.1,164.6 L240.5,169.8 L243.9,175.0 L247.2,180.3 L250.6,185.5 L252.0,191.2 L251.6,197.2 L251.2,203.3 L250.8,209.4 L250.4,215.5" fill="none" stroke="#2dd4bf" stroke-width="21" stroke-linecap="round" stroke-linejoin="round" opacity="0.95"/><path d="M230.4,154.1 L233.8,159.4 L237.1,164.6 L240.5,169.8 L243.9,175.0 L247.2,180.3 L250.6,185.5 L252.0,191.2 L251.6,197.2 L251.2,203.3 L250.8,209.4 L250.4,215.5" fill="none" stroke="#0c2020" stroke-width="13" stroke-linecap="round" stroke-linejoin="round" opacity="1.0"/><path d="M209.4,233.9 L218.7,235.2 L228.0,236.6 L237.3,238.0 L246.6,239.3 L255.9,240.7 L264.6,242.5 L262.3,252.0 L260.0,261.5 L257.7,271.0 L255.4,280.5 L253.1,290.0" fill="none" stroke="#8f2a3e" stroke-width="21" stroke-linecap="round" stroke-linejoin="round" opacity="0.95"/><path d="M209.4,233.9 L218.7,235.2 L228.0,236.6 L237.3,238.0 L246.6,239.3 L255.9,240.7 L264.6,242.5 L262.3,252.0 L260.0,261.5 L257.7,271.0 L255.4,280.5 L253.1,290.0" fill="none" stroke="#0c2020" stroke-width="13" stroke-linecap="round" stroke-linejoin="round" opacity="1.0"/><path d="M209.4,233.9 L218.9,235.5 L228.4,237.1 L237.9,238.7 L247.4,240.4 L257.0,242.0 L266.5,243.6 L267.6,251.1 L265.5,260.8 L263.5,270.5 L261.4,280.3 L259.4,290.0" fill="none" stroke="#f43f5e" stroke-width="21" stroke-linecap="round" stroke-linejoin="round" opacity="0.95"/><path d="M209.4,233.9 L218.9,235.5 L228.4,237.1 L237.9,238.7 L247.4,240.4 L257.0,242.0 L266.5,243.6 L267.6,251.1 L265.5,260.8 L263.5,270.5 L261.4,280.3 L259.4,290.0" fill="none" stroke="#0c2020" stroke-width="13" stroke-linecap="round" stroke-linejoin="round" opacity="1.0"/><path d="M230.4,154.1 L228.5,161.4 L226.6,168.6 L224.7,175.9 L222.8,183.1 L220.9,190.4 L218.9,197.6 L217.0,204.9 L215.1,212.1 L213.2,219.4 L211.3,226.6 L209.4,233.9" fill="none" stroke="#2dd4bf" stroke-width="25" stroke-linecap="round" stroke-linejoin="round" opacity="0.95"/><path d="M230.4,154.1 L228.5,161.4 L226.6,168.6 L224.7,175.9 L222.8,183.1 L220.9,190.4 L218.9,197.6 L217.0,204.9 L215.1,212.1 L213.2,219.4 L211.3,226.6 L209.4,233.9" fill="none" stroke="#0c2020" stroke-width="17" stroke-linecap="round" stroke-linejoin="round" opacity="1.0"/><circle cx="236.3" cy="126.1" r="19.0" fill="#2dd4bf" stroke="none" stroke-width="0" opacity="0.95"/><circle cx="236.3" cy="126.1" r="15.0" fill="#0c2020" stroke="none" stroke-width="6.3" opacity="1.0"/><path d="M227.0,123.1 L228.6,123.1 L230.3,123.1 L232.0,123.1 L233.7,123.1 L235.4,123.1 L237.1,123.1 L238.8,123.1 L240.5,123.1 L242.2,123.1 L243.9,123.1 L245.6,123.1" fill="none" stroke="#a7f3ee" stroke-width="5" stroke-linecap="round" stroke-linejoin="round" opacity="1.0"/></g><g class="f2"><path d="M231.6,143.9 L234.8,147.9 L238.1,151.8 L241.3,155.8 L244.6,159.7 L247.8,163.6 L251.1,167.6 L252.5,171.9 L252.3,176.5 L252.0,181.2 L251.8,185.8 L251.6,190.5" fill="none" stroke="#2dd4bf" stroke-width="21" stroke-linecap="round" stroke-linejoin="round" opacity="0.95"/><path d="M231.6,143.9 L234.8,147.9 L238.1,151.8 L241.3,155.8 L244.6,159.7 L247.8,163.6 L251.1,167.6 L252.5,171.9 L252.3,176.5 L252.0,181.2 L251.8,185.8 L251.6,190.5" fill="none" stroke="#0c2020" stroke-width="13" stroke-linecap="round" stroke-linejoin="round" opacity="1.0"/><path d="M213.0,223.0 L221.1,225.3 L229.2,227.6 L237.3,229.9 L245.5,232.3 L253.6,234.6 L261.2,237.2 L259.1,246.7 L256.9,256.2 L254.8,265.7 L252.7,275.2 L250.6,284.7" fill="none" stroke="#8f2a3e" stroke-width="21" stroke-linecap="round" stroke-linejoin="round" opacity="0.95"/><path d="M213.0,223.0 L221.1,225.3 L229.2,227.6 L237.3,229.9 L245.5,232.3 L253.6,234.6 L261.2,237.2 L259.1,246.7 L256.9,256.2 L254.8,265.7 L252.7,275.2 L250.6,284.7" fill="none" stroke="#0c2020" stroke-width="13" stroke-linecap="round" stroke-linejoin="round" opacity="1.0"/><path d="M213.0,223.0 L221.6,225.5 L230.1,228.1 L238.7,230.6 L247.2,233.1 L255.8,235.7 L264.3,238.2 L265.2,245.9 L263.3,255.6 L261.5,265.3 L259.7,275.0 L257.8,284.7" fill="none" stroke="#f43f5e" stroke-width="21" stroke-linecap="round" stroke-linejoin="round" opacity="0.95"/><path d="M213.0,223.0 L221.6,225.5 L230.1,228.1 L238.7,230.6 L247.2,233.1 L255.8,235.7 L264.3,238.2 L265.2,245.9 L263.3,255.6 L261.5,265.3 L259.7,275.0 L257.8,284.7" fill="none" stroke="#0c2020" stroke-width="13" stroke-linecap="round" stroke-linejoin="round" opacity="1.0"/><path d="M231.6,143.9 L229.9,151.1 L228.2,158.3 L226.5,165.5 L224.8,172.7 L223.1,179.9 L221.4,187.1 L219.8,194.2 L218.1,201.4 L216.4,208.6 L214.7,215.8 L213.0,223.0" fill="none" stroke="#2dd4bf" stroke-width="25" stroke-linecap="round" stroke-linejoin="round" opacity="0.95"/><path d="M231.6,143.9 L229.9,151.1 L228.2,158.3 L226.5,165.5 L224.8,172.7 L223.1,179.9 L221.4,187.1 L219.8,194.2 L218.1,201.4 L216.4,208.6 L214.7,215.8 L213.0,223.0" fill="none" stroke="#0c2020" stroke-width="17" stroke-linecap="round" stroke-linejoin="round" opacity="1.0"/><circle cx="236.9" cy="115.9" r="19.0" fill="#2dd4bf" stroke="none" stroke-width="0" opacity="0.95"/><circle cx="236.9" cy="115.9" r="15.0" fill="#0c2020" stroke="none" stroke-width="6.3" opacity="1.0"/><path d="M227.6,112.9 L229.3,112.9 L231.0,112.9 L232.7,112.9 L234.4,112.9 L236.1,112.9 L237.8,112.9 L239.5,112.9 L241.2,112.9 L242.9,112.9 L244.5,112.9 L246.2,112.9" fill="none" stroke="#a7f3ee" stroke-width="5" stroke-linecap="round" stroke-linejoin="round" opacity="1.0"/></g><g class="f3"><path d="M233.2,129.5 L236.3,131.6 L239.4,133.8 L242.5,135.9 L245.6,138.0 L248.7,140.2 L251.8,142.3 L253.3,144.6 L253.2,147.3 L253.2,149.9 L253.2,152.5 L253.2,155.1" fill="none" stroke="#2dd4bf" stroke-width="21" stroke-linecap="round" stroke-linejoin="round" opacity="0.95"/><path d="M233.2,129.5 L236.3,131.6 L239.4,133.8 L242.5,135.9 L245.6,138.0 L248.7,140.2 L251.8,142.3 L253.3,144.6 L253.2,147.3 L253.2,149.9 L253.2,152.5 L253.2,155.1" fill="none" stroke="#0c2020" stroke-width="13" stroke-linecap="round" stroke-linejoin="round" opacity="1.0"/><path d="M218.1,207.6 L224.6,211.3 L231.0,214.9 L237.4,218.6 L243.9,222.2 L250.3,225.9 L256.3,229.8 L254.5,239.3 L252.6,248.7 L250.8,258.2 L248.9,267.7 L247.0,277.1" fill="none" stroke="#8f2a3e" stroke-width="21" stroke-linecap="round" stroke-linejoin="round" opacity="0.95"/><path d="M218.1,207.6 L224.6,211.3 L231.0,214.9 L237.4,218.6 L243.9,222.2 L250.3,225.9 L256.3,229.8 L254.5,239.3 L252.6,248.7 L250.8,258.2 L248.9,267.7 L247.0,277.1" fill="none" stroke="#0c2020" stroke-width="13" stroke-linecap="round" stroke-linejoin="round" opacity="1.0"/><path d="M218.1,207.6 L225.3,211.4 L232.5,215.3 L239.7,219.1 L246.9,222.9 L254.1,226.7 L261.1,230.6 L261.8,238.6 L260.3,248.2 L258.7,257.9 L257.1,267.5 L255.6,277.1" fill="none" stroke="#f43f5e" stroke-width="21" stroke-linecap="round" stroke-linejoin="round" opacity="0.95"/><path d="M218.1,207.6 L225.3,211.4 L232.5,215.3 L239.7,219.1 L246.9,222.9 L254.1,226.7 L261.1,230.6 L261.8,238.6 L260.3,248.2 L258.7,257.9 L257.1,267.5 L255.6,277.1" fill="none" stroke="#0c2020" stroke-width="13" stroke-linecap="round" stroke-linejoin="round" opacity="1.0"/><path d="M233.2,129.5 L231.8,136.6 L230.4,143.7 L229.1,150.8 L227.7,157.9 L226.3,165.0 L225.0,172.1 L223.6,179.2 L222.2,186.3 L220.9,193.4 L219.5,200.5 L218.1,207.6" fill="none" stroke="#2dd4bf" stroke-width="25" stroke-linecap="round" stroke-linejoin="round" opacity="0.95"/><path d="M233.2,129.5 L231.8,136.6 L230.4,143.7 L229.1,150.8 L227.7,157.9 L226.3,165.0 L225.0,172.1 L223.6,179.2 L222.2,186.3 L220.9,193.4 L219.5,200.5 L218.1,207.6" fill="none" stroke="#0c2020" stroke-width="17" stroke-linecap="round" stroke-linejoin="round" opacity="1.0"/><circle cx="237.9" cy="101.5" r="19.0" fill="#2dd4bf" stroke="none" stroke-width="0" opacity="0.95"/><circle cx="237.9" cy="101.5" r="15.0" fill="#0c2020" stroke="none" stroke-width="6.3" opacity="1.0"/><path d="M228.6,98.5 L230.3,98.5 L232.0,98.5 L233.7,98.5 L235.4,98.5 L237.1,98.5 L238.7,98.5 L240.4,98.5 L242.1,98.5 L243.8,98.5 L245.5,98.5 L247.2,98.5" fill="none" stroke="#a7f3ee" stroke-width="5" stroke-linecap="round" stroke-linejoin="round" opacity="1.0"/></g><g class="f4"><path d="M235.0,113.0 L237.9,113.0 L240.9,113.1 L243.8,113.1 L246.8,113.2 L249.7,113.2 L252.7,113.3 L254.1,113.4 L254.4,113.7 L254.6,114.0 L254.8,114.2 L255.0,114.5" fill="none" stroke="#2dd4bf" stroke-width="21" stroke-linecap="round" stroke-linejoin="round" opacity="0.95"/><path d="M235.0,113.0 L237.9,113.0 L240.9,113.1 L243.8,113.1 L246.8,113.2 L249.7,113.2 L252.7,113.3 L254.1,113.4 L254.4,113.7 L254.6,114.0 L254.8,114.2 L255.0,114.5" fill="none" stroke="#0c2020" stroke-width="13" stroke-linecap="round" stroke-linejoin="round" opacity="1.0"/><path d="M224.0,190.0 L228.5,195.2 L233.0,200.4 L237.6,205.6 L242.1,210.7 L246.6,215.9 L250.8,221.3 L249.3,230.8 L247.7,240.2 L246.1,249.6 L244.6,259.1 L243.0,268.5" fill="none" stroke="#8f2a3e" stroke-width="21" stroke-linecap="round" stroke-linejoin="round" opacity="0.95"/><path d="M224.0,190.0 L228.5,195.2 L233.0,200.4 L237.6,205.6 L242.1,210.7 L246.6,215.9 L250.8,221.3 L249.3,230.8 L247.7,240.2 L246.1,249.6 L244.6,259.1 L243.0,268.5" fill="none" stroke="#0c2020" stroke-width="13" stroke-linecap="round" stroke-linejoin="round" opacity="1.0"/><path d="M224.0,190.0 L229.6,195.3 L235.3,200.6 L240.9,205.9 L246.6,211.2 L252.2,216.5 L257.6,221.8 L258.0,230.2 L256.7,239.8 L255.5,249.4 L254.2,258.9 L253.0,268.5" fill="none" stroke="#f43f5e" stroke-width="21" stroke-linecap="round" stroke-linejoin="round" opacity="0.95"/><path d="M224.0,190.0 L229.6,195.3 L235.3,200.6 L240.9,205.9 L246.6,211.2 L252.2,216.5 L257.6,221.8 L258.0,230.2 L256.7,239.8 L255.5,249.4 L254.2,258.9 L253.0,268.5" fill="none" stroke="#0c2020" stroke-width="13" stroke-linecap="round" stroke-linejoin="round" opacity="1.0"/><path d="M235.0,113.0 L234.0,120.0 L233.0,127.0 L232.0,134.0 L231.0,141.0 L230.0,148.0 L229.0,155.0 L228.0,162.0 L227.0,169.0 L226.0,176.0 L225.0,183.0 L224.0,190.0" fill="none" stroke="#2dd4bf" stroke-width="25" stroke-linecap="round" stroke-linejoin="round" opacity="0.95"/><path d="M235.0,113.0 L234.0,120.0 L233.0,127.0 L232.0,134.0 L231.0,141.0 L230.0,148.0 L229.0,155.0 L228.0,162.0 L227.0,169.0 L226.0,176.0 L225.0,183.0 L224.0,190.0" fill="none" stroke="#0c2020" stroke-width="17" stroke-linecap="round" stroke-linejoin="round" opacity="1.0"/><circle cx="239.0" cy="85.0" r="19.0" fill="#2dd4bf" stroke="none" stroke-width="0" opacity="0.95"/><circle cx="239.0" cy="85.0" r="15.0" fill="#0c2020" stroke="none" stroke-width="6.3" opacity="1.0"/><path d="M229.7,82.0 L231.4,82.0 L233.1,82.0 L234.8,82.0 L236.5,82.0 L238.2,82.0 L239.8,82.0 L241.5,82.0 L243.2,82.0 L244.9,82.0 L246.6,82.0 L248.3,82.0" fill="none" stroke="#a7f3ee" stroke-width="5" stroke-linecap="round" stroke-linejoin="round" opacity="1.0"/></g><g class="f5"><path d="M236.8,96.5 L239.6,94.4 L242.4,92.4 L245.2,90.4 L248.0,88.3 L250.8,86.3 L253.5,84.3 L255.0,82.2 L255.5,80.1 L255.9,78.1 L256.4,76.0 L256.8,73.9" fill="none" stroke="#2dd4bf" stroke-width="21" stroke-linecap="round" stroke-linejoin="round" opacity="0.95"/><path d="M236.8,96.5 L239.6,94.4 L242.4,92.4 L245.2,90.4 L248.0,88.3 L250.8,86.3 L253.5,84.3 L255.0,82.2 L255.5,80.1 L255.9,78.1 L256.4,76.0 L256.8,73.9" fill="none" stroke="#0c2020" stroke-width="13" stroke-linecap="round" stroke-linejoin="round" opacity="1.0"/><path d="M229.9,172.4 L232.5,179.1 L235.1,185.8 L237.7,192.5 L240.3,199.3 L242.9,206.0 L245.3,212.8 L244.0,222.2 L242.8,231.6 L241.5,241.1 L240.2,250.5 L239.0,259.9" fill="none" stroke="#8f2a3e" stroke-width="21" stroke-linecap="round" stroke-linejoin="round" opacity="0.95"/><path d="M229.9,172.4 L232.5,179.1 L235.1,185.8 L237.7,192.5 L240.3,199.3 L242.9,206.0 L245.3,212.8 L244.0,222.2 L242.8,231.6 L241.5,241.1 L240.2,250.5 L239.0,259.9" fill="none" stroke="#0c2020" stroke-width="13" stroke-linecap="round" stroke-linejoin="round" opacity="1.0"/><path d="M229.9,172.4 L234.0,179.1 L238.1,185.9 L242.1,192.7 L246.2,199.5 L250.3,206.2 L254.0,213.0 L254.1,221.8 L253.2,231.3 L252.3,240.8 L251.4,250.4 L250.4,259.9" fill="none" stroke="#f43f5e" stroke-width="21" stroke-linecap="round" stroke-linejoin="round" opacity="0.95"/><path d="M229.9,172.4 L234.0,179.1 L238.1,185.9 L242.1,192.7 L246.2,199.5 L250.3,206.2 L254.0,213.0 L254.1,221.8 L253.2,231.3 L252.3,240.8 L251.4,250.4 L250.4,259.9" fill="none" stroke="#0c2020" stroke-width="13" stroke-linecap="round" stroke-linejoin="round" opacity="1.0"/><path d="M236.8,96.5 L236.2,103.4 L235.6,110.3 L234.9,117.2 L234.3,124.1 L233.7,131.0 L233.0,137.9 L232.4,144.8 L231.8,151.7 L231.1,158.6 L230.5,165.5 L229.9,172.4" fill="none" stroke="#2dd4bf" stroke-width="25" stroke-linecap="round" stroke-linejoin="round" opacity="0.95"/><path d="M236.8,96.5 L236.2,103.4 L235.6,110.3 L234.9,117.2 L234.3,124.1 L233.7,131.0 L233.0,137.9 L232.4,144.8 L231.8,151.7 L231.1,158.6 L230.5,165.5 L229.9,172.4" fill="none" stroke="#0c2020" stroke-width="17" stroke-linecap="round" stroke-linejoin="round" opacity="1.0"/><circle cx="240.1" cy="68.5" r="19.0" fill="#2dd4bf" stroke="none" stroke-width="0" opacity="0.95"/><circle cx="240.1" cy="68.5" r="15.0" fill="#0c2020" stroke="none" stroke-width="6.3" opacity="1.0"/><path d="M230.8,65.5 L232.5,65.5 L234.2,65.5 L235.9,65.5 L237.6,65.5 L239.3,65.5 L240.9,65.5 L242.6,65.5 L244.3,65.5 L246.0,65.5 L247.7,65.5 L249.4,65.5" fill="none" stroke="#a7f3ee" stroke-width="5" stroke-linecap="round" stroke-linejoin="round" opacity="1.0"/></g><g class="f6"><path d="M238.4,82.1 L241.1,78.2 L243.7,74.4 L246.4,70.5 L249.0,66.7 L251.6,62.8 L254.3,59.0 L255.8,54.9 L256.4,50.8 L257.1,46.7 L257.8,42.6 L258.4,38.5" fill="none" stroke="#2dd4bf" stroke-width="21" stroke-linecap="round" stroke-linejoin="round" opacity="0.95"/><path d="M238.4,82.1 L241.1,78.2 L243.7,74.4 L246.4,70.5 L249.0,66.7 L251.6,62.8 L254.3,59.0 L255.8,54.9 L256.4,50.8 L257.1,46.7 L257.8,42.6 L258.4,38.5" fill="none" stroke="#0c2020" stroke-width="13" stroke-linecap="round" stroke-linejoin="round" opacity="1.0"/><path d="M235.0,157.0 L235.9,165.1 L236.9,173.1 L237.8,181.2 L238.7,189.2 L239.6,197.3 L240.5,205.4 L239.5,214.8 L238.4,224.2 L237.4,233.6 L236.4,243.0 L235.4,252.3" fill="none" stroke="#8f2a3e" stroke-width="21" stroke-linecap="round" stroke-linejoin="round" opacity="0.95"/><path d="M235.0,157.0 L235.9,165.1 L236.9,173.1 L237.8,181.2 L238.7,189.2 L239.6,197.3 L240.5,205.4 L239.5,214.8 L238.4,224.2 L237.4,233.6 L236.4,243.0 L235.4,252.3" fill="none" stroke="#0c2020" stroke-width="13" stroke-linecap="round" stroke-linejoin="round" opacity="1.0"/><path d="M235.0,157.0 L237.7,165.1 L240.5,173.1 L243.2,181.2 L245.9,189.2 L248.7,197.3 L250.9,205.4 L250.8,214.5 L250.1,224.0 L249.5,233.4 L248.8,242.9 L248.2,252.3" fill="none" stroke="#f43f5e" stroke-width="21" stroke-linecap="round" stroke-linejoin="round" opacity="0.95"/><path d="M235.0,157.0 L237.7,165.1 L240.5,173.1 L243.2,181.2 L245.9,189.2 L248.7,197.3 L250.9,205.4 L250.8,214.5 L250.1,224.0 L249.5,233.4 L248.8,242.9 L248.2,252.3" fill="none" stroke="#0c2020" stroke-width="13" stroke-linecap="round" stroke-linejoin="round" opacity="1.0"/><path d="M238.4,82.1 L238.1,88.9 L237.8,95.7 L237.5,102.5 L237.2,109.3 L236.9,116.1 L236.6,122.9 L236.2,129.8 L235.9,136.6 L235.6,143.4 L235.3,150.2 L235.0,157.0" fill="none" stroke="#2dd4bf" stroke-width="25" stroke-linecap="round" stroke-linejoin="round" opacity="0.95"/><path d="M238.4,82.1 L238.1,88.9 L237.8,95.7 L237.5,102.5 L237.2,109.3 L236.9,116.1 L236.6,122.9 L236.2,129.8 L235.9,136.6 L235.6,143.4 L235.3,150.2 L235.0,157.0" fill="none" stroke="#0c2020" stroke-width="17" stroke-linecap="round" stroke-linejoin="round" opacity="1.0"/><circle cx="241.1" cy="54.1" r="19.0" fill="#2dd4bf" stroke="none" stroke-width="0" opacity="0.95"/><circle cx="241.1" cy="54.1" r="15.0" fill="#0c2020" stroke="none" stroke-width="6.3" opacity="1.0"/><path d="M231.8,51.1 L233.5,51.1 L235.1,51.1 L236.8,51.1 L238.5,51.1 L240.2,51.1 L241.9,51.1 L243.6,51.1 L245.3,51.1 L247.0,51.1 L248.7,51.1 L250.4,51.1" fill="none" stroke="#a7f3ee" stroke-width="5" stroke-linecap="round" stroke-linejoin="round" opacity="1.0"/></g><g class="f7"><path d="M239.6,71.9 L242.1,66.7 L244.6,61.6 L247.2,56.5 L249.7,51.3 L252.3,46.2 L254.8,41.1 L256.3,35.7 L257.1,30.1 L257.9,24.6 L258.8,19.0 L259.6,13.5" fill="none" stroke="#2dd4bf" stroke-width="21" stroke-linecap="round" stroke-linejoin="round" opacity="0.95"/><path d="M239.6,71.9 L242.1,66.7 L244.6,61.6 L247.2,56.5 L249.7,51.3 L252.3,46.2 L254.8,41.1 L256.3,35.7 L257.1,30.1 L257.9,24.6 L258.8,19.0 L259.6,13.5" fill="none" stroke="#0c2020" stroke-width="13" stroke-linecap="round" stroke-linejoin="round" opacity="1.0"/><path d="M238.6,146.1 L238.4,155.1 L238.1,164.1 L237.9,173.1 L237.6,182.1 L237.3,191.2 L237.0,200.2 L236.2,209.5 L235.4,218.9 L234.6,228.3 L233.8,237.7 L232.9,247.0" fill="none" stroke="#8f2a3e" stroke-width="21" stroke-linecap="round" stroke-linejoin="round" opacity="0.95"/><path d="M238.6,146.1 L238.4,155.1 L238.1,164.1 L237.9,173.1 L237.6,182.1 L237.3,191.2 L237.0,200.2 L236.2,209.5 L235.4,218.9 L234.6,228.3 L233.8,237.7 L232.9,247.0" fill="none" stroke="#0c2020" stroke-width="13" stroke-linecap="round" stroke-linejoin="round" opacity="1.0"/><path d="M238.6,146.1 L240.4,155.1 L242.2,164.1 L243.9,173.0 L245.7,182.0 L247.5,191.0 L248.7,200.0 L248.4,209.3 L248.0,218.7 L247.5,228.2 L247.1,237.6 L246.6,247.0" fill="none" stroke="#f43f5e" stroke-width="21" stroke-linecap="round" stroke-linejoin="round" opacity="0.95"/><path d="M238.6,146.1 L240.4,155.1 L242.2,164.1 L243.9,173.0 L245.7,182.0 L247.5,191.0 L248.7,200.0 L248.4,209.3 L248.0,218.7 L247.5,228.2 L247.1,237.6 L246.6,247.0" fill="none" stroke="#0c2020" stroke-width="13" stroke-linecap="round" stroke-linejoin="round" opacity="1.0"/><path d="M239.6,71.9 L239.5,78.6 L239.4,85.4 L239.3,92.1 L239.2,98.9 L239.1,105.6 L239.1,112.4 L239.0,119.1 L238.9,125.9 L238.8,132.6 L238.7,139.4 L238.6,146.1" fill="none" stroke="#2dd4bf" stroke-width="25" stroke-linecap="round" stroke-linejoin="round" opacity="0.95"/><path d="M239.6,71.9 L239.5,78.6 L239.4,85.4 L239.3,92.1 L239.2,98.9 L239.1,105.6 L239.1,112.4 L239.0,119.1 L238.9,125.9 L238.8,132.6 L238.7,139.4 L238.6,146.1" fill="none" stroke="#0c2020" stroke-width="17" stroke-linecap="round" stroke-linejoin="round" opacity="1.0"/><circle cx="241.7" cy="43.9" r="19.0" fill="#2dd4bf" stroke="none" stroke-width="0" opacity="0.95"/><circle cx="241.7" cy="43.9" r="15.0" fill="#0c2020" stroke="none" stroke-width="6.3" opacity="1.0"/><path d="M232.4,40.9 L234.1,40.9 L235.8,40.9 L237.5,40.9 L239.2,40.9 L240.9,40.9 L242.6,40.9 L244.3,40.9 L246.0,40.9 L247.7,40.9 L249.4,40.9 L251.0,40.9" fill="none" stroke="#a7f3ee" stroke-width="5" stroke-linecap="round" stroke-linejoin="round" opacity="1.0"/></g><g class="f8"><path d="M240.0,68.0 L242.5,62.4 L245.0,56.8 L247.5,51.1 L250.0,45.5 L252.5,39.9 L255.0,34.3 L256.5,28.4 L257.4,22.3 L258.3,16.2 L259.1,10.1 L260.0,4.0" fill="none" stroke="#2dd4bf" stroke-width="21" stroke-linecap="round" stroke-linejoin="round" opacity="0.95"/><path d="M240.0,68.0 L242.5,62.4 L245.0,56.8 L247.5,51.1 L250.0,45.5 L252.5,39.9 L255.0,34.3 L256.5,28.4 L257.4,22.3 L258.3,16.2 L259.1,10.1 L260.0,4.0" fill="none" stroke="#0c2020" stroke-width="13" stroke-linecap="round" stroke-linejoin="round" opacity="1.0"/><path d="M240.0,142.0 L239.3,151.4 L238.6,160.7 L237.9,170.1 L237.2,179.5 L236.5,188.8 L235.7,198.2 L235.0,207.6 L234.2,216.9 L233.5,226.3 L232.7,235.6 L232.0,245.0" fill="none" stroke="#8f2a3e" stroke-width="21" stroke-linecap="round" stroke-linejoin="round" opacity="0.95"/><path d="M240.0,142.0 L239.3,151.4 L238.6,160.7 L237.9,170.1 L237.2,179.5 L236.5,188.8 L235.7,198.2 L235.0,207.6 L234.2,216.9 L233.5,226.3 L232.7,235.6 L232.0,245.0" fill="none" stroke="#0c2020" stroke-width="13" stroke-linecap="round" stroke-linejoin="round" opacity="1.0"/><path d="M240.0,142.0 L241.4,151.3 L242.8,160.6 L244.2,169.9 L245.6,179.3 L247.0,188.6 L247.9,197.9 L247.5,207.3 L247.1,216.8 L246.8,226.2 L246.4,235.6 L246.0,245.0" fill="none" stroke="#f43f5e" stroke-width="21" stroke-linecap="round" stroke-linejoin="round" opacity="0.95"/><path d="M240.0,142.0 L241.4,151.3 L242.8,160.6 L244.2,169.9 L245.6,179.3 L247.0,188.6 L247.9,197.9 L247.5,207.3 L247.1,216.8 L246.8,226.2 L246.4,235.6 L246.0,245.0" fill="none" stroke="#0c2020" stroke-width="13" stroke-linecap="round" stroke-linejoin="round" opacity="1.0"/><path d="M240.0,68.0 L240.0,74.7 L240.0,81.5 L240.0,88.2 L240.0,94.9 L240.0,101.6 L240.0,108.4 L240.0,115.1 L240.0,121.8 L240.0,128.5 L240.0,135.3 L240.0,142.0" fill="none" stroke="#2dd4bf" stroke-width="25" stroke-linecap="round" stroke-linejoin="round" opacity="0.95"/><path d="M240.0,68.0 L240.0,74.7 L240.0,81.5 L240.0,88.2 L240.0,94.9 L240.0,101.6 L240.0,108.4 L240.0,115.1 L240.0,121.8 L240.0,128.5 L240.0,135.3 L240.0,142.0" fill="none" stroke="#0c2020" stroke-width="17" stroke-linecap="round" stroke-linejoin="round" opacity="1.0"/><circle cx="242.0" cy="40.0" r="19.0" fill="#2dd4bf" stroke="none" stroke-width="0" opacity="0.95"/><circle cx="242.0" cy="40.0" r="15.0" fill="#0c2020" stroke="none" stroke-width="6.3" opacity="1.0"/><path d="M232.7,37.0 L234.4,37.0 L236.1,37.0 L237.8,37.0 L239.5,37.0 L241.2,37.0 L242.8,37.0 L244.5,37.0 L246.2,37.0 L247.9,37.0 L249.6,37.0 L251.3,37.0" fill="none" stroke="#a7f3ee" stroke-width="5" stroke-linecap="round" stroke-linejoin="round" opacity="1.0"/></g><g class="f9"><path d="M239.6,71.9 L242.1,66.7 L244.6,61.6 L247.2,56.5 L249.7,51.3 L252.3,46.2 L254.8,41.1 L256.3,35.7 L257.1,30.1 L257.9,24.6 L258.8,19.0 L259.6,13.5" fill="none" stroke="#2dd4bf" stroke-width="21" stroke-linecap="round" stroke-linejoin="round" opacity="0.95"/><path d="M239.6,71.9 L242.1,66.7 L244.6,61.6 L247.2,56.5 L249.7,51.3 L252.3,46.2 L254.8,41.1 L256.3,35.7 L257.1,30.1 L257.9,24.6 L258.8,19.0 L259.6,13.5" fill="none" stroke="#0c2020" stroke-width="13" stroke-linecap="round" stroke-linejoin="round" opacity="1.0"/><path d="M238.6,146.1 L238.4,155.1 L238.1,164.1 L237.9,173.1 L237.6,182.1 L237.3,191.2 L237.0,200.2 L236.2,209.5 L235.4,218.9 L234.6,228.3 L233.8,237.7 L232.9,247.0" fill="none" stroke="#8f2a3e" stroke-width="21" stroke-linecap="round" stroke-linejoin="round" opacity="0.95"/><path d="M238.6,146.1 L238.4,155.1 L238.1,164.1 L237.9,173.1 L237.6,182.1 L237.3,191.2 L237.0,200.2 L236.2,209.5 L235.4,218.9 L234.6,228.3 L233.8,237.7 L232.9,247.0" fill="none" stroke="#0c2020" stroke-width="13" stroke-linecap="round" stroke-linejoin="round" opacity="1.0"/><path d="M238.6,146.1 L240.4,155.1 L242.2,164.1 L243.9,173.0 L245.7,182.0 L247.5,191.0 L248.7,200.0 L248.4,209.3 L248.0,218.7 L247.5,228.2 L247.1,237.6 L246.6,247.0" fill="none" stroke="#f43f5e" stroke-width="21" stroke-linecap="round" stroke-linejoin="round" opacity="0.95"/><path d="M238.6,146.1 L240.4,155.1 L242.2,164.1 L243.9,173.0 L245.7,182.0 L247.5,191.0 L248.7,200.0 L248.4,209.3 L248.0,218.7 L247.5,228.2 L247.1,237.6 L246.6,247.0" fill="none" stroke="#0c2020" stroke-width="13" stroke-linecap="round" stroke-linejoin="round" opacity="1.0"/><path d="M239.6,71.9 L239.5,78.6 L239.4,85.4 L239.3,92.1 L239.2,98.9 L239.1,105.6 L239.1,112.4 L239.0,119.1 L238.9,125.9 L238.8,132.6 L238.7,139.4 L238.6,146.1" fill="none" stroke="#2dd4bf" stroke-width="25" stroke-linecap="round" stroke-linejoin="round" opacity="0.95"/><path d="M239.6,71.9 L239.5,78.6 L239.4,85.4 L239.3,92.1 L239.2,98.9 L239.1,105.6 L239.1,112.4 L239.0,119.1 L238.9,125.9 L238.8,132.6 L238.7,139.4 L238.6,146.1" fill="none" stroke="#0c2020" stroke-width="17" stroke-linecap="round" stroke-linejoin="round" opacity="1.0"/><circle cx="241.7" cy="43.9" r="19.0" fill="#2dd4bf" stroke="none" stroke-width="0" opacity="0.95"/><circle cx="241.7" cy="43.9" r="15.0" fill="#0c2020" stroke="none" stroke-width="6.3" opacity="1.0"/><path d="M232.4,40.9 L234.1,40.9 L235.8,40.9 L237.5,40.9 L239.2,40.9 L240.9,40.9 L242.6,40.9 L244.3,40.9 L246.0,40.9 L247.7,40.9 L249.4,40.9 L251.0,40.9" fill="none" stroke="#a7f3ee" stroke-width="5" stroke-linecap="round" stroke-linejoin="round" opacity="1.0"/></g><g class="f10"><path d="M238.4,82.1 L241.1,78.2 L243.7,74.4 L246.4,70.5 L249.0,66.7 L251.6,62.8 L254.3,59.0 L255.8,54.9 L256.4,50.8 L257.1,46.7 L257.8,42.6 L258.4,38.5" fill="none" stroke="#2dd4bf" stroke-width="21" stroke-linecap="round" stroke-linejoin="round" opacity="0.95"/><path d="M238.4,82.1 L241.1,78.2 L243.7,74.4 L246.4,70.5 L249.0,66.7 L251.6,62.8 L254.3,59.0 L255.8,54.9 L256.4,50.8 L257.1,46.7 L257.8,42.6 L258.4,38.5" fill="none" stroke="#0c2020" stroke-width="13" stroke-linecap="round" stroke-linejoin="round" opacity="1.0"/><path d="M235.0,157.0 L235.9,165.1 L236.9,173.1 L237.8,181.2 L238.7,189.2 L239.6,197.3 L240.5,205.4 L239.5,214.8 L238.4,224.2 L237.4,233.6 L236.4,243.0 L235.4,252.3" fill="none" stroke="#8f2a3e" stroke-width="21" stroke-linecap="round" stroke-linejoin="round" opacity="0.95"/><path d="M235.0,157.0 L235.9,165.1 L236.9,173.1 L237.8,181.2 L238.7,189.2 L239.6,197.3 L240.5,205.4 L239.5,214.8 L238.4,224.2 L237.4,233.6 L236.4,243.0 L235.4,252.3" fill="none" stroke="#0c2020" stroke-width="13" stroke-linecap="round" stroke-linejoin="round" opacity="1.0"/><path d="M235.0,157.0 L237.7,165.1 L240.5,173.1 L243.2,181.2 L245.9,189.2 L248.7,197.3 L250.9,205.4 L250.8,214.5 L250.1,224.0 L249.5,233.4 L248.8,242.9 L248.2,252.3" fill="none" stroke="#f43f5e" stroke-width="21" stroke-linecap="round" stroke-linejoin="round" opacity="0.95"/><path d="M235.0,157.0 L237.7,165.1 L240.5,173.1 L243.2,181.2 L245.9,189.2 L248.7,197.3 L250.9,205.4 L250.8,214.5 L250.1,224.0 L249.5,233.4 L248.8,242.9 L248.2,252.3" fill="none" stroke="#0c2020" stroke-width="13" stroke-linecap="round" stroke-linejoin="round" opacity="1.0"/><path d="M238.4,82.1 L238.1,88.9 L237.8,95.7 L237.5,102.5 L237.2,109.3 L236.9,116.1 L236.6,122.9 L236.2,129.8 L235.9,136.6 L235.6,143.4 L235.3,150.2 L235.0,157.0" fill="none" stroke="#2dd4bf" stroke-width="25" stroke-linecap="round" stroke-linejoin="round" opacity="0.95"/><path d="M238.4,82.1 L238.1,88.9 L237.8,95.7 L237.5,102.5 L237.2,109.3 L236.9,116.1 L236.6,122.9 L236.2,129.8 L235.9,136.6 L235.6,143.4 L235.3,150.2 L235.0,157.0" fill="none" stroke="#0c2020" stroke-width="17" stroke-linecap="round" stroke-linejoin="round" opacity="1.0"/><circle cx="241.1" cy="54.1" r="19.0" fill="#2dd4bf" stroke="none" stroke-width="0" opacity="0.95"/><circle cx="241.1" cy="54.1" r="15.0" fill="#0c2020" stroke="none" stroke-width="6.3" opacity="1.0"/><path d="M231.8,51.1 L233.5,51.1 L235.1,51.1 L236.8,51.1 L238.5,51.1 L240.2,51.1 L241.9,51.1 L243.6,51.1 L245.3,51.1 L247.0,51.1 L248.7,51.1 L250.4,51.1" fill="none" stroke="#a7f3ee" stroke-width="5" stroke-linecap="round" stroke-linejoin="round" opacity="1.0"/></g><g class="f11"><path d="M236.8,96.5 L239.6,94.4 L242.4,92.4 L245.2,90.4 L248.0,88.3 L250.8,86.3 L253.5,84.3 L255.0,82.2 L255.5,80.1 L255.9,78.1 L256.4,76.0 L256.8,73.9" fill="none" stroke="#2dd4bf" stroke-width="21" stroke-linecap="round" stroke-linejoin="round" opacity="0.95"/><path d="M236.8,96.5 L239.6,94.4 L242.4,92.4 L245.2,90.4 L248.0,88.3 L250.8,86.3 L253.5,84.3 L255.0,82.2 L255.5,80.1 L255.9,78.1 L256.4,76.0 L256.8,73.9" fill="none" stroke="#0c2020" stroke-width="13" stroke-linecap="round" stroke-linejoin="round" opacity="1.0"/><path d="M229.9,172.4 L232.5,179.1 L235.1,185.8 L237.7,192.5 L240.3,199.3 L242.9,206.0 L245.3,212.8 L244.0,222.2 L242.8,231.6 L241.5,241.1 L240.2,250.5 L239.0,259.9" fill="none" stroke="#8f2a3e" stroke-width="21" stroke-linecap="round" stroke-linejoin="round" opacity="0.95"/><path d="M229.9,172.4 L232.5,179.1 L235.1,185.8 L237.7,192.5 L240.3,199.3 L242.9,206.0 L245.3,212.8 L244.0,222.2 L242.8,231.6 L241.5,241.1 L240.2,250.5 L239.0,259.9" fill="none" stroke="#0c2020" stroke-width="13" stroke-linecap="round" stroke-linejoin="round" opacity="1.0"/><path d="M229.9,172.4 L234.0,179.1 L238.1,185.9 L242.1,192.7 L246.2,199.5 L250.3,206.2 L254.0,213.0 L254.1,221.8 L253.2,231.3 L252.3,240.8 L251.4,250.4 L250.4,259.9" fill="none" stroke="#f43f5e" stroke-width="21" stroke-linecap="round" stroke-linejoin="round" opacity="0.95"/><path d="M229.9,172.4 L234.0,179.1 L238.1,185.9 L242.1,192.7 L246.2,199.5 L250.3,206.2 L254.0,213.0 L254.1,221.8 L253.2,231.3 L252.3,240.8 L251.4,250.4 L250.4,259.9" fill="none" stroke="#0c2020" stroke-width="13" stroke-linecap="round" stroke-linejoin="round" opacity="1.0"/><path d="M236.8,96.5 L236.2,103.4 L235.6,110.3 L234.9,117.2 L234.3,124.1 L233.7,131.0 L233.0,137.9 L232.4,144.8 L231.8,151.7 L231.1,158.6 L230.5,165.5 L229.9,172.4" fill="none" stroke="#2dd4bf" stroke-width="25" stroke-linecap="round" stroke-linejoin="round" opacity="0.95"/><path d="M236.8,96.5 L236.2,103.4 L235.6,110.3 L234.9,117.2 L234.3,124.1 L233.7,131.0 L233.0,137.9 L232.4,144.8 L231.8,151.7 L231.1,158.6 L230.5,165.5 L229.9,172.4" fill="none" stroke="#0c2020" stroke-width="17" stroke-linecap="round" stroke-linejoin="round" opacity="1.0"/><circle cx="240.1" cy="68.5" r="19.0" fill="#2dd4bf" stroke="none" stroke-width="0" opacity="0.95"/><circle cx="240.1" cy="68.5" r="15.0" fill="#0c2020" stroke="none" stroke-width="6.3" opacity="1.0"/><path d="M230.8,65.5 L232.5,65.5 L234.2,65.5 L235.9,65.5 L237.6,65.5 L239.3,65.5 L240.9,65.5 L242.6,65.5 L244.3,65.5 L246.0,65.5 L247.7,65.5 L249.4,65.5" fill="none" stroke="#a7f3ee" stroke-width="5" stroke-linecap="round" stroke-linejoin="round" opacity="1.0"/></g><g class="f12"><path d="M235.0,113.0 L237.9,113.0 L240.9,113.1 L243.8,113.1 L246.8,113.2 L249.7,113.2 L252.7,113.3 L254.1,113.4 L254.4,113.7 L254.6,114.0 L254.8,114.2 L255.0,114.5" fill="none" stroke="#2dd4bf" stroke-width="21" stroke-linecap="round" stroke-linejoin="round" opacity="0.95"/><path d="M235.0,113.0 L237.9,113.0 L240.9,113.1 L243.8,113.1 L246.8,113.2 L249.7,113.2 L252.7,113.3 L254.1,113.4 L254.4,113.7 L254.6,114.0 L254.8,114.2 L255.0,114.5" fill="none" stroke="#0c2020" stroke-width="13" stroke-linecap="round" stroke-linejoin="round" opacity="1.0"/><path d="M224.0,190.0 L228.5,195.2 L233.0,200.4 L237.6,205.6 L242.1,210.7 L246.6,215.9 L250.8,221.3 L249.3,230.8 L247.7,240.2 L246.1,249.6 L244.6,259.1 L243.0,268.5" fill="none" stroke="#8f2a3e" stroke-width="21" stroke-linecap="round" stroke-linejoin="round" opacity="0.95"/><path d="M224.0,190.0 L228.5,195.2 L233.0,200.4 L237.6,205.6 L242.1,210.7 L246.6,215.9 L250.8,221.3 L249.3,230.8 L247.7,240.2 L246.1,249.6 L244.6,259.1 L243.0,268.5" fill="none" stroke="#0c2020" stroke-width="13" stroke-linecap="round" stroke-linejoin="round" opacity="1.0"/><path d="M224.0,190.0 L229.6,195.3 L235.3,200.6 L240.9,205.9 L246.6,211.2 L252.2,216.5 L257.6,221.8 L258.0,230.2 L256.7,239.8 L255.5,249.4 L254.2,258.9 L253.0,268.5" fill="none" stroke="#f43f5e" stroke-width="21" stroke-linecap="round" stroke-linejoin="round" opacity="0.95"/><path d="M224.0,190.0 L229.6,195.3 L235.3,200.6 L240.9,205.9 L246.6,211.2 L252.2,216.5 L257.6,221.8 L258.0,230.2 L256.7,239.8 L255.5,249.4 L254.2,258.9 L253.0,268.5" fill="none" stroke="#0c2020" stroke-width="13" stroke-linecap="round" stroke-linejoin="round" opacity="1.0"/><path d="M235.0,113.0 L234.0,120.0 L233.0,127.0 L232.0,134.0 L231.0,141.0 L230.0,148.0 L229.0,155.0 L228.0,162.0 L227.0,169.0 L226.0,176.0 L225.0,183.0 L224.0,190.0" fill="none" stroke="#2dd4bf" stroke-width="25" stroke-linecap="round" stroke-linejoin="round" opacity="0.95"/><path d="M235.0,113.0 L234.0,120.0 L233.0,127.0 L232.0,134.0 L231.0,141.0 L230.0,148.0 L229.0,155.0 L228.0,162.0 L227.0,169.0 L226.0,176.0 L225.0,183.0 L224.0,190.0" fill="none" stroke="#0c2020" stroke-width="17" stroke-linecap="round" stroke-linejoin="round" opacity="1.0"/><circle cx="239.0" cy="85.0" r="19.0" fill="#2dd4bf" stroke="none" stroke-width="0" opacity="0.95"/><circle cx="239.0" cy="85.0" r="15.0" fill="#0c2020" stroke="none" stroke-width="6.3" opacity="1.0"/><path d="M229.7,82.0 L231.4,82.0 L233.1,82.0 L234.8,82.0 L236.5,82.0 L238.2,82.0 L239.8,82.0 L241.5,82.0 L243.2,82.0 L244.9,82.0 L246.6,82.0 L248.3,82.0" fill="none" stroke="#a7f3ee" stroke-width="5" stroke-linecap="round" stroke-linejoin="round" opacity="1.0"/></g><g class="f13"><path d="M233.2,129.5 L236.3,131.6 L239.4,133.8 L242.5,135.9 L245.6,138.0 L248.7,140.2 L251.8,142.3 L253.3,144.6 L253.2,147.3 L253.2,149.9 L253.2,152.5 L253.2,155.1" fill="none" stroke="#2dd4bf" stroke-width="21" stroke-linecap="round" stroke-linejoin="round" opacity="0.95"/><path d="M233.2,129.5 L236.3,131.6 L239.4,133.8 L242.5,135.9 L245.6,138.0 L248.7,140.2 L251.8,142.3 L253.3,144.6 L253.2,147.3 L253.2,149.9 L253.2,152.5 L253.2,155.1" fill="none" stroke="#0c2020" stroke-width="13" stroke-linecap="round" stroke-linejoin="round" opacity="1.0"/><path d="M218.1,207.6 L224.6,211.3 L231.0,214.9 L237.4,218.6 L243.9,222.2 L250.3,225.9 L256.3,229.8 L254.5,239.3 L252.6,248.7 L250.8,258.2 L248.9,267.7 L247.0,277.1" fill="none" stroke="#8f2a3e" stroke-width="21" stroke-linecap="round" stroke-linejoin="round" opacity="0.95"/><path d="M218.1,207.6 L224.6,211.3 L231.0,214.9 L237.4,218.6 L243.9,222.2 L250.3,225.9 L256.3,229.8 L254.5,239.3 L252.6,248.7 L250.8,258.2 L248.9,267.7 L247.0,277.1" fill="none" stroke="#0c2020" stroke-width="13" stroke-linecap="round" stroke-linejoin="round" opacity="1.0"/><path d="M218.1,207.6 L225.3,211.4 L232.5,215.3 L239.7,219.1 L246.9,222.9 L254.1,226.7 L261.1,230.6 L261.8,238.6 L260.3,248.2 L258.7,257.9 L257.1,267.5 L255.6,277.1" fill="none" stroke="#f43f5e" stroke-width="21" stroke-linecap="round" stroke-linejoin="round" opacity="0.95"/><path d="M218.1,207.6 L225.3,211.4 L232.5,215.3 L239.7,219.1 L246.9,222.9 L254.1,226.7 L261.1,230.6 L261.8,238.6 L260.3,248.2 L258.7,257.9 L257.1,267.5 L255.6,277.1" fill="none" stroke="#0c2020" stroke-width="13" stroke-linecap="round" stroke-linejoin="round" opacity="1.0"/><path d="M233.2,129.5 L231.8,136.6 L230.4,143.7 L229.1,150.8 L227.7,157.9 L226.3,165.0 L225.0,172.1 L223.6,179.2 L222.2,186.3 L220.9,193.4 L219.5,200.5 L218.1,207.6" fill="none" stroke="#2dd4bf" stroke-width="25" stroke-linecap="round" stroke-linejoin="round" opacity="0.95"/><path d="M233.2,129.5 L231.8,136.6 L230.4,143.7 L229.1,150.8 L227.7,157.9 L226.3,165.0 L225.0,172.1 L223.6,179.2 L222.2,186.3 L220.9,193.4 L219.5,200.5 L218.1,207.6" fill="none" stroke="#0c2020" stroke-width="17" stroke-linecap="round" stroke-linejoin="round" opacity="1.0"/><circle cx="237.9" cy="101.5" r="19.0" fill="#2dd4bf" stroke="none" stroke-width="0" opacity="0.95"/><circle cx="237.9" cy="101.5" r="15.0" fill="#0c2020" stroke="none" stroke-width="6.3" opacity="1.0"/><path d="M228.6,98.5 L230.3,98.5 L232.0,98.5 L233.7,98.5 L235.4,98.5 L237.1,98.5 L238.7,98.5 L240.4,98.5 L242.1,98.5 L243.8,98.5 L245.5,98.5 L247.2,98.5" fill="none" stroke="#a7f3ee" stroke-width="5" stroke-linecap="round" stroke-linejoin="round" opacity="1.0"/></g><g class="f14"><path d="M231.6,143.9 L234.8,147.9 L238.1,151.8 L241.3,155.8 L244.6,159.7 L247.8,163.6 L251.1,167.6 L252.5,171.9 L252.3,176.5 L252.0,181.2 L251.8,185.8 L251.6,190.5" fill="none" stroke="#2dd4bf" stroke-width="21" stroke-linecap="round" stroke-linejoin="round" opacity="0.95"/><path d="M231.6,143.9 L234.8,147.9 L238.1,151.8 L241.3,155.8 L244.6,159.7 L247.8,163.6 L251.1,167.6 L252.5,171.9 L252.3,176.5 L252.0,181.2 L251.8,185.8 L251.6,190.5" fill="none" stroke="#0c2020" stroke-width="13" stroke-linecap="round" stroke-linejoin="round" opacity="1.0"/><path d="M213.0,223.0 L221.1,225.3 L229.2,227.6 L237.3,229.9 L245.5,232.3 L253.6,234.6 L261.2,237.2 L259.1,246.7 L256.9,256.2 L254.8,265.7 L252.7,275.2 L250.6,284.7" fill="none" stroke="#8f2a3e" stroke-width="21" stroke-linecap="round" stroke-linejoin="round" opacity="0.95"/><path d="M213.0,223.0 L221.1,225.3 L229.2,227.6 L237.3,229.9 L245.5,232.3 L253.6,234.6 L261.2,237.2 L259.1,246.7 L256.9,256.2 L254.8,265.7 L252.7,275.2 L250.6,284.7" fill="none" stroke="#0c2020" stroke-width="13" stroke-linecap="round" stroke-linejoin="round" opacity="1.0"/><path d="M213.0,223.0 L221.6,225.5 L230.1,228.1 L238.7,230.6 L247.2,233.1 L255.8,235.7 L264.3,238.2 L265.2,245.9 L263.3,255.6 L261.5,265.3 L259.7,275.0 L257.8,284.7" fill="none" stroke="#f43f5e" stroke-width="21" stroke-linecap="round" stroke-linejoin="round" opacity="0.95"/><path d="M213.0,223.0 L221.6,225.5 L230.1,228.1 L238.7,230.6 L247.2,233.1 L255.8,235.7 L264.3,238.2 L265.2,245.9 L263.3,255.6 L261.5,265.3 L259.7,275.0 L257.8,284.7" fill="none" stroke="#0c2020" stroke-width="13" stroke-linecap="round" stroke-linejoin="round" opacity="1.0"/><path d="M231.6,143.9 L229.9,151.1 L228.2,158.3 L226.5,165.5 L224.8,172.7 L223.1,179.9 L221.4,187.1 L219.8,194.2 L218.1,201.4 L216.4,208.6 L214.7,215.8 L213.0,223.0" fill="none" stroke="#2dd4bf" stroke-width="25" stroke-linecap="round" stroke-linejoin="round" opacity="0.95"/><path d="M231.6,143.9 L229.9,151.1 L228.2,158.3 L226.5,165.5 L224.8,172.7 L223.1,179.9 L221.4,187.1 L219.8,194.2 L218.1,201.4 L216.4,208.6 L214.7,215.8 L213.0,223.0" fill="none" stroke="#0c2020" stroke-width="17" stroke-linecap="round" stroke-linejoin="round" opacity="1.0"/><circle cx="236.9" cy="115.9" r="19.0" fill="#2dd4bf" stroke="none" stroke-width="0" opacity="0.95"/><circle cx="236.9" cy="115.9" r="15.0" fill="#0c2020" stroke="none" stroke-width="6.3" opacity="1.0"/><path d="M227.6,112.9 L229.3,112.9 L231.0,112.9 L232.7,112.9 L234.4,112.9 L236.1,112.9 L237.8,112.9 L239.5,112.9 L241.2,112.9 L242.9,112.9 L244.5,112.9 L246.2,112.9" fill="none" stroke="#a7f3ee" stroke-width="5" stroke-linecap="round" stroke-linejoin="round" opacity="1.0"/></g><g class="f15"><path d="M230.4,154.1 L233.8,159.4 L237.1,164.6 L240.5,169.8 L243.9,175.0 L247.2,180.3 L250.6,185.5 L252.0,191.2 L251.6,197.2 L251.2,203.3 L250.8,209.4 L250.4,215.5" fill="none" stroke="#2dd4bf" stroke-width="21" stroke-linecap="round" stroke-linejoin="round" opacity="0.95"/><path d="M230.4,154.1 L233.8,159.4 L237.1,164.6 L240.5,169.8 L243.9,175.0 L247.2,180.3 L250.6,185.5 L252.0,191.2 L251.6,197.2 L251.2,203.3 L250.8,209.4 L250.4,215.5" fill="none" stroke="#0c2020" stroke-width="13" stroke-linecap="round" stroke-linejoin="round" opacity="1.0"/><path d="M209.4,233.9 L218.7,235.2 L228.0,236.6 L237.3,238.0 L246.6,239.3 L255.9,240.7 L264.6,242.5 L262.3,252.0 L260.0,261.5 L257.7,271.0 L255.4,280.5 L253.1,290.0" fill="none" stroke="#8f2a3e" stroke-width="21" stroke-linecap="round" stroke-linejoin="round" opacity="0.95"/><path d="M209.4,233.9 L218.7,235.2 L228.0,236.6 L237.3,238.0 L246.6,239.3 L255.9,240.7 L264.6,242.5 L262.3,252.0 L260.0,261.5 L257.7,271.0 L255.4,280.5 L253.1,290.0" fill="none" stroke="#0c2020" stroke-width="13" stroke-linecap="round" stroke-linejoin="round" opacity="1.0"/><path d="M209.4,233.9 L218.9,235.5 L228.4,237.1 L237.9,238.7 L247.4,240.4 L257.0,242.0 L266.5,243.6 L267.6,251.1 L265.5,260.8 L263.5,270.5 L261.4,280.3 L259.4,290.0" fill="none" stroke="#f43f5e" stroke-width="21" stroke-linecap="round" stroke-linejoin="round" opacity="0.95"/><path d="M209.4,233.9 L218.9,235.5 L228.4,237.1 L237.9,238.7 L247.4,240.4 L257.0,242.0 L266.5,243.6 L267.6,251.1 L265.5,260.8 L263.5,270.5 L261.4,280.3 L259.4,290.0" fill="none" stroke="#0c2020" stroke-width="13" stroke-linecap="round" stroke-linejoin="round" opacity="1.0"/><path d="M230.4,154.1 L228.5,161.4 L226.6,168.6 L224.7,175.9 L222.8,183.1 L220.9,190.4 L218.9,197.6 L217.0,204.9 L215.1,212.1 L213.2,219.4 L211.3,226.6 L209.4,233.9" fill="none" stroke="#2dd4bf" stroke-width="25" stroke-linecap="round" stroke-linejoin="round" opacity="0.95"/><path d="M230.4,154.1 L228.5,161.4 L226.6,168.6 L224.7,175.9 L222.8,183.1 L220.9,190.4 L218.9,197.6 L217.0,204.9 L215.1,212.1 L213.2,219.4 L211.3,226.6 L209.4,233.9" fill="none" stroke="#0c2020" stroke-width="17" stroke-linecap="round" stroke-linejoin="round" opacity="1.0"/><circle cx="236.3" cy="126.1" r="19.0" fill="#2dd4bf" stroke="none" stroke-width="0" opacity="0.95"/><circle cx="236.3" cy="126.1" r="15.0" fill="#0c2020" stroke="none" stroke-width="6.3" opacity="1.0"/><path d="M227.0,123.1 L228.6,123.1 L230.3,123.1 L232.0,123.1 L233.7,123.1 L235.4,123.1 L237.1,123.1 L238.8,123.1 L240.5,123.1 L242.2,123.1 L243.9,123.1 L245.6,123.1" fill="none" stroke="#a7f3ee" stroke-width="5" stroke-linecap="round" stroke-linejoin="round" opacity="1.0"/></g></svg>
