<svg xmlns="http://www.w3.org/2000/svg" viewBox="0 0 480 320"><style>@keyframes k0{0%{opacity:1}11.111%{opacity:0}100%{opacity:0}}.f0{opacity:0;animation:k0 2.4s steps(1,end) infinite}@keyframes k1{0%{opacity:0}11.111%{opacity:1}16.667%{opacity:0}100%{opacity:0}}.f1{opacity:0;animation:k1 2.4s steps(1,end) infinite}@keyframes k2{0%{opacity:0}16.667%{opacity:1}22.222%{opacity:0}100%{opacity:0}}.f2{opacity:0;animation:k2 2.4s steps(1,end) infinite}@keyframes k3{0%{opacity:0}22.222%{opacity:1}27.778%{opacity:0}100%{opacity:0}}.f3{opacity:0;animation:k3 2.4s steps(1,end) infinite}@keyframes k4{0%{opacity:0}27.778%{opacity:1}33.333%{opacity:0}100%{opacity:0}}.f4{opacity:0;animation:k4 2.4s steps(1,end) infinite}@keyframes k5{0%{opacity:0}33.333%{opacity:1}38.889%{opacity:0}100%{opacity:0}}.f5{opacity:0;animation:k5 2.4s steps(1,end) infinite}@keyframes k6{0%{opacity:0}38.889%{opacity:1}44.444%{opacity:0}100%{opacity:0}}.f6{opacity:0;animation:k6 2.4s steps(1,end) infinite}@keyframes k7{0%{opacity:0}44.444%{opacity:1}50.000%{opacity:0}100%{opacity:0}}.f7{opacity:0;animation:k7 2.4s steps(1,end) infinite}@keyframes k8{0%{opacity:0}50.000%{opacity:1}61.111%{opacity:0}100%{opacity:0}}.f8{opacity:0;animation:k8 2.4s steps(1,end) infinite}@keyframes k9{0%{opacity:0}61.111%{opacity:1}66.667%{opacity:0}100%{opacity:0}}.f9{opacity:0;animation:k9 2.4s steps(1,end) infinite}@keyframes k10{0%{opacity:0}66.667%{opacity:1}72.222%{opacity:0}100%{opacity:0}}.f10{opacity:0;animation:k10 2.4s steps(1,end) infinite}@keyframes k11{0%{opacity:0}72.222%{opacity:1}77.778%{opacity:0}100%{opacity:0}}.f11{opacity:0;animation:k11 2.4s steps(1,end) infinite}@keyframes k12{0%{opacity:0}77.778%{opacity:1}83.333%{opacity:0}100%{opacity:0}}.f12{opacity:0;animation:k12 2.4s steps(1,end) infinite}@keyframes k13{0%{opacity:0}83.333%{opacity:1}88.889%{opacity:0}100%{opacity:0}}.f13{opacity:0;animation:k13 2.4s steps(1,end) infinite}@keyframes k14{0%{opacity:0}88.889%{opacity:1}94.444%{opacity:0}100%{opacity:0}}.f14{opacity:0;animation:k14 2.4s steps(1,end) infinite}@keyframes k15{0%{opacity:0}94.444%{opacity:1}100%{opacity:1}}.f15{opacity:0;animation:k15 2.4s steps(1,end) infinite}</style><path d="M40.0,292.0 L440.0,292.0" fill="none" stroke="#1f3333" stroke-width="6" stroke-linecap="round" stroke-linejoin="round" opacity="1.0"/><path d="M240.0,192.0 L234.0,240.0 L232.0,292.0" fill="none" stroke="#0d9488" stroke-width="21" stroke-linecap="round" stroke-linejoin="round" opacity="0.95"/><path d="M240.0,192.0 L234.0,240.0 L232.0,292.0" fill="none" stroke="#0c2020" stroke-width="13" stroke-linecap="round" stroke-linejoin="round" opacity="1.0"/><path d="M240.0,192.0 L248.0,240.0 L246.0,292.0" fill="none" stroke="#2dd4bf" stroke-width="21" stroke-linecap="round" stroke-linejoin="round" opacity="0.95"/><path d="M240.0,192.0 L248.0,240.0 L246.0,292.0" fill="none" stroke="#0c2020" stroke-width="13" stroke-linecap="round" stroke-linejoin="round" opacity="1.0"/><path d="M240.0,118.0 L240.0,192.0" fill="none" stroke="#2dd4bf" stroke-width="25" stroke-linecap="round" stroke-linejoin="round" opacity="0.95"/><path d="M240.0,118.0 L240.0,192.0" fill="none" stroke="#0c2020" stroke-width="17" stroke-linecap="round" stroke-linejoin="round" opacity="1.0"/><circle cx="242.0" cy="90.0" r="19.0" fill="#2dd4bf" stroke="none" stroke-width="0" opacity="0.95"/><circle cx="242.0" cy="90.0" r="15.0" fill="#0c2020" stroke="none" stroke-width="6.3" opacity="1.0"/><path d="M232.7,87.0 L251.3,87.0" fill="none" stroke="#a7f3ee" stroke-width="5" stroke-linecap="round" stroke-linejoin="round" opacity="1.0"/><g class="f0"><path d="M240.0,118.0 L243.3,122.1 L246.6,126.3 L249.9,130.4 L253.2,134.5 L256.5,138.6 L259.8,142.8 L263.1,146.9 L262.4,144.5 L260.3,139.7 L258.1,134.8 L256.0,130.0" fill="none" stroke="#f43f5e" stroke-width="21" stroke-linecap="round" stroke-linejoin="round" opacity="0.95"/><path d="M240.0,118.0 L243.3,122.1 L246.6,126.3 L249.9,130.4 L253.2,134.5 L256.5,138.6 L259.8,142.8 L263.1,146.9 L262.4,144.5 L260.3,139.7 L258.1,134.8 L256.0,130.0" fill="none" stroke="#0c2020" stroke-width="13" stroke-linecap="round" stroke-linejoin="round" opacity="1.0"/><path d="M250.0,132.0 L251.1,132.0 L252.2,132.0 L253.3,132.0 L254.4,132.0 L255.5,132.0 L256.5,132.0 L257.6,132.0 L258.7,132.0 L259.8,132.0 L260.9,132.0 L262.0,132.0" fill="none" stroke="#fbbf24" stroke-width="5" stroke-linecap="round" stroke-linejoin="round" opacity="1.0"/><circle cx="256.0" cy="143.0" r="9.0" fill="#fbbf24" stroke="none" stroke-width="6.3" opacity="1.0"/></g><g class="f1"><path d="M240.0,118.0 L243.3,121.7 L246.6,125.3 L249.9,129.0 L253.2,132.7 L256.4,136.4 L259.7,140.0 L262.9,143.7 L262.3,141.1 L260.2,136.2 L258.2,131.2 L256.2,126.3" fill="none" stroke="#f43f5e" stroke-width="21" stroke-linecap="round" stroke-linejoin="round" opacity="0.95"/><path d="M240.0,118.0 L243.3,121.7 L246.6,125.3 L249.9,129.0 L253.2,132.7 L256.4,136.4 L259.7,140.0 L262.9,143.7 L262.3,141.1 L260.2,136.2 L258.2,131.2 L256.2,126.3" fill="none" stroke="#0c2020" stroke-width="13" stroke-linecap="round" stroke-linejoin="round" opacity="1.0"/><path d="M250.2,128.3 L251.3,128.3 L252.4,128.3 L253.4,128.3 L254.5,128.3 L255.6,128.3 L256.7,128.3 L257.8,128.3 L258.9,128.3 L260.0,128.3 L261.1,128.3 L262.2,128.3" fill="none" stroke="#fbbf24" stroke-width="5" stroke-linecap="round" stroke-linejoin="round" opacity="1.0"/><circle cx="256.2" cy="139.3" r="9.0" fill="#fbbf24" stroke="none" stroke-width="6.3" opacity="1.0"/></g><g class="f2"><path d="M240.0,118.0 L243.3,120.5 L246.5,123.0 L249.8,125.4 L253.0,127.9 L256.3,130.4 L259.5,132.9 L262.4,135.2 L261.9,132.1 L260.1,126.9 L258.4,121.7 L256.6,116.6" fill="none" stroke="#f43f5e" stroke-width="21" stroke-linecap="round" stroke-linejoin="round" opacity="0.95"/><path d="M240.0,118.0 L243.3,120.5 L246.5,123.0 L249.8,125.4 L253.0,127.9 L256.3,130.4 L259.5,132.9 L262.4,135.2 L261.9,132.1 L260.1,126.9 L258.4,121.7 L256.6,116.6" fill="none" stroke="#0c2020" stroke-width="13" stroke-linecap="round" stroke-linejoin="round" opacity="1.0"/><path d="M250.6,118.6 L251.7,118.6 L252.8,118.6 L253.9,118.6 L255.0,118.6 L256.1,118.6 L257.2,118.6 L258.3,118.6 L259.4,118.6 L260.4,118.6 L261.5,118.6 L262.6,118.6" fill="none" stroke="#fbbf24" stroke-width="5" stroke-linecap="round" stroke-linejoin="round" opacity="1.0"/><circle cx="256.6" cy="129.6" r="9.0" fill="#fbbf24" stroke="none" stroke-width="6.3" opacity="1.0"/></g><g class="f3"><path d="M240.0,118.0 L243.2,118.8 L246.4,119.6 L249.7,120.4 L252.9,121.2 L256.1,121.9 L259.2,122.7 L261.6,123.3 L261.3,119.4 L260.0,113.9 L258.6,108.3 L257.3,102.8" fill="none" stroke="#f43f5e" stroke-width="21" stroke-linecap="round" stroke-linejoin="round" opacity="0.95"/><path d="M240.0,118.0 L243.2,118.8 L246.4,119.6 L249.7,120.4 L252.9,121.2 L256.1,121.9 L259.2,122.7 L261.6,123.3 L261.3,119.4 L260.0,113.9 L258.6,108.3 L257.3,102.8" fill="none" stroke="#0c2020" stroke-width="13" stroke-linecap="round" stroke-linejoin="round" opacity="1.0"/><path d="M251.3,104.8 L252.4,104.8 L253.4,104.8 L254.5,104.8 L255.6,104.8 L256.7,104.8 L257.8,104.8 L258.9,104.8 L260.0,104.8 L261.1,104.8 L262.2,104.8 L263.3,104.8" fill="none" stroke="#fbbf24" stroke-width="5" stroke-linecap="round" stroke-linejoin="round" opacity="1.0"/><circle cx="257.3" cy="115.8" r="9.0" fill="#fbbf24" stroke="none" stroke-width="6.3" opacity="1.0"/></g><g class="f4"><path d="M240.0,118.0 L243.2,116.9 L246.3,115.7 L249.5,114.6 L252.7,113.4 L255.8,112.3 L258.9,111.1 L260.8,109.6 L260.6,104.9 L259.8,98.9 L258.9,93.0 L258.0,87.0" fill="none" stroke="#f43f5e" stroke-width="21" stroke-linecap="round" stroke-linejoin="round" opacity="0.95"/><path d="M240.0,118.0 L243.2,116.9 L246.3,115.7 L249.5,114.6 L252.7,113.4 L255.8,112.3 L258.9,111.1 L260.8,109.6 L260.6,104.9 L259.8,98.9 L258.9,93.0 L258.0,87.0" fill="none" stroke="#0c2020" stroke-width="13" stroke-linecap="round" stroke-linejoin="round" opacity="1.0"/><path d="M252.0,89.0 L253.1,89.0 L254.2,89.0 L255.3,89.0 L256.4,89.0 L257.5,89.0 L258.5,89.0 L259.6,89.0 L260.7,89.0 L261.8,89.0 L262.9,89.0 L264.0,89.0" fill="none" stroke="#fbbf24" stroke-width="5" stroke-linecap="round" stroke-linejoin="round" opacity="1.0"/><circle cx="258.0" cy="100.0" r="9.0" fill="#fbbf24" stroke="none" stroke-width="6.3" opacity="1.0"/></g><g class="f5"><path d="M240.0,118.0 L243.1,114.9 L246.2,111.8 L249.4,108.8 L252.5,105.7 L255.6,102.6 L258.6,99.5 L259.9,95.9 L260.0,90.3 L259.6,84.0 L259.1,77.6 L258.7,71.2" fill="none" stroke="#f43f5e" stroke-width="21" stroke-linecap="round" stroke-linejoin="round" opacity="0.95"/><path d="M240.0,118.0 L243.1,114.9 L246.2,111.8 L249.4,108.8 L252.5,105.7 L255.6,102.6 L258.6,99.5 L259.9,95.9 L260.0,90.3 L259.6,84.0 L259.1,77.6 L258.7,71.2" fill="none" stroke="#0c2020" stroke-width="13" stroke-linecap="round" stroke-linejoin="round" opacity="1.0"/><path d="M252.7,73.2 L253.8,73.2 L254.9,73.2 L256.0,73.2 L257.1,73.2 L258.2,73.2 L259.3,73.2 L260.4,73.2 L261.5,73.2 L262.6,73.2 L263.6,73.2 L264.7,73.2" fill="none" stroke="#fbbf24" stroke-width="5" stroke-linecap="round" stroke-linejoin="round" opacity="1.0"/><circle cx="258.7" cy="84.2" r="9.0" fill="#fbbf24" stroke="none" stroke-width="6.3" opacity="1.0"/></g><g class="f6"><path d="M240.0,118.0 L243.1,113.2 L246.2,108.5 L249.2,103.7 L252.3,98.9 L255.4,94.2 L258.3,89.3 L259.2,84.0 L259.4,77.6 L259.4,70.9 L259.4,64.2 L259.4,57.4" fill="none" stroke="#f43f5e" stroke-width="21" stroke-linecap="round" stroke-linejoin="round" opacity="0.95"/><path d="M240.0,118.0 L243.1,113.2 L246.2,108.5 L249.2,103.7 L252.3,98.9 L255.4,94.2 L258.3,89.3 L259.2,84.0 L259.4,77.6 L259.4,70.9 L259.4,64.2 L259.4,57.4" fill="none" stroke="#0c2020" stroke-width="13" stroke-linecap="round" stroke-linejoin="round" opacity="1.0"/><path d="M253.4,59.4 L254.5,59.4 L255.6,59.4 L256.6,59.4 L257.7,59.4 L258.8,59.4 L259.9,59.4 L261.0,59.4 L262.1,59.4 L263.2,59.4 L264.3,59.4 L265.4,59.4" fill="none" stroke="#fbbf24" stroke-width="5" stroke-linecap="round" stroke-linejoin="round" opacity="1.0"/><circle cx="259.4" cy="70.4" r="9.0" fill="#fbbf24" stroke="none" stroke-width="6.3" opacity="1.0"/></g><g class="f7"><path d="M240.0,118.0 L243.1,112.0 L246.1,106.1 L249.2,100.1 L252.2,94.1 L255.3,88.2 L258.1,82.2 L258.6,75.6 L259.0,68.7 L259.3,61.7 L259.5,54.7 L259.8,47.7" fill="none" stroke="#f43f5e" stroke-width="21" stroke-linecap="round" stroke-linejoin="round" opacity="0.95"/><path d="M240.0,118.0 L243.1,112.0 L246.1,106.1 L249.2,100.1 L252.2,94.1 L255.3,88.2 L258.1,82.2 L258.6,75.6 L259.0,68.7 L259.3,61.7 L259.5,54.7 L259.8,47.7" fill="none" stroke="#0c2020" stroke-width="13" stroke-linecap="round" stroke-linejoin="round" opacity="1.0"/><path d="M253.8,49.7 L254.9,49.7 L256.0,49.7 L257.1,49.7 L258.2,49.7 L259.3,49.7 L260.4,49.7 L261.5,49.7 L262.6,49.7 L263.6,49.7 L264.7,49.7 L265.8,49.7" fill="none" stroke="#fbbf24" stroke-width="5" stroke-linecap="round" stroke-linejoin="round" opacity="1.0"/><circle cx="259.8" cy="60.7" r="9.0" fill="#fbbf24" stroke="none" stroke-width="6.3" opacity="1.0"/></g><g class="f8"><path d="M240.0,118.0 L243.0,111.6 L246.1,105.2 L249.1,98.7 L252.2,92.3 L255.2,85.9 L258.0,79.4 L258.4,72.4 L258.8,65.3 L259.2,58.2 L259.6,51.1 L260.0,44.0" fill="none" stroke="#f43f5e" stroke-width="21" stroke-linecap="round" stroke-linejoin="round" opacity="0.95"/><path d="M240.0,118.0 L243.0,111.6 L246.1,105.2 L249.1,98.7 L252.2,92.3 L255.2,85.9 L258.0,79.4 L258.4,72.4 L258.8,65.3 L259.2,58.2 L259.6,51.1 L260.0,44.0" fill="none" stroke="#0c2020" stroke-width="13" stroke-linecap="round" stroke-linejoin="round" opacity="1.0"/><path d="M254.0,46.0 L255.1,46.0 L256.2,46.0 L257.3,46.0 L258.4,46.0 L259.5,46.0 L260.5,46.0 L261.6,46.0 L262.7,46.0 L263.8,46.0 L264.9,46.0 L266.0,46.0" fill="none" stroke="#fbbf24" stroke-width="5" stroke-linecap="round" stroke-linejoin="round" opacity="1.0"/><circle cx="260.0" cy="57.0" r="9.0" fill="#fbbf24" stroke="none" stroke-width="6.3" opacity="1.0"/></g><g class="f9"><path d="M240.0,118.0 L243.1,112.0 L246.1,106.1 L249.2,100.1 L252.2,94.1 L255.3,88.2 L258.1,82.2 L258.6,75.6 L259.0,68.7 L259.3,61.7 L259.5,54.7 L259.8,47.7" fill="none" stroke="#f43f5e" stroke-width="21" stroke-linecap="round" stroke-linejoin="round" opacity="0.95"/><path d="M240.0,118.0 L243.1,112.0 L246.1,106.1 L249.2,100.1 L252.2,94.1 L255.3,88.2 L258.1,82.2 L258.6,75.6 L259.0,68.7 L259.3,61.7 L259.5,54.7 L259.8,47.7" fill="none" stroke="#0c2020" stroke-width="13" stroke-linecap="round" stroke-linejoin="round" opacity="1.0"/><path d="M253.8,49.7 L254.9,49.7 L256.0,49.7 L257.1,49.7 L258.2,49.7 L259.3,49.7 L260.4,49.7 L261.5,49.7 L262.6,49.7 L263.6,49.7 L264.7,49.7 L265.8,49.7" fill="none" stroke="#fbbf24" stroke-width="5" stroke-linecap="round" stroke-linejoin="round" opacity="1.0"/><circle cx="259.8" cy="60.7" r="9.0" fill="#fbbf24" stroke="none" stroke-width="6.3" opacity="1.0"/></g><g class="f10"><path d="M240.0,118.0 L243.1,113.2 L246.2,108.5 L249.2,103.7 L252.3,98.9 L255.4,94.2 L258.3,89.3 L259.2,84.0 L259.4,77.6 L259.4,70.9 L259.4,64.2 L259.4,57.4" fill="none" stroke="#f43f5e" stroke-width="21" stroke-linecap="round" stroke-linejoin="round" opacity="0.95"/><path d="M240.0,118.0 L243.1,113.2 L246.2,108.5 L249.2,103.7 L252.3,98.9 L255.4,94.2 L258.3,89.3 L259.2,84.0 L259.4,77.6 L259.4,70.9 L259.4,64.2 L259.4,57.4" fill="none" stroke="#0c2020" stroke-width="13" stroke-linecap="round" stroke-linejoin="round" opacity="1.0"/><path d="M253.4,59.4 L254.5,59.4 L255.6,59.4 L256.6,59.4 L257.7,59.4 L258.8,59.4 L259.9,59.4 L261.0,59.4 L262.1,59.4 L263.2,59.4 L264.3,59.4 L265.4,59.4" fill="none" stroke="#fbbf24" stroke-width="5" stroke-linecap="round" stroke-linejoin="round" opacity="1.0"/><circle cx="259.4" cy="70.4" r="9.0" fill="#fbbf24" stroke="none" stroke-width="6.3" opacity="1.0"/></g><g class="f11"><path d="M240.0,118.0 L243.1,114.9 L246.2,111.8 L249.4,108.8 L252.5,105.7 L255.6,102.6 L258.6,99.5 L259.9,95.9 L260.0,90.3 L259.6,84.0 L259.1,77.6 L258.7,71.2" fill="none" stroke="#f43f5e" stroke-width="21" stroke-linecap="round" stroke-linejoin="round" opacity="0.95"/><path d="M240.0,118.0 L243.1,114.9 L246.2,111.8 L249.4,108.8 L252.5,105.7 L255.6,102.6 L258.6,99.5 L259.9,95.9 L260.0,90.3 L259.6,84.0 L259.1,77.6 L258.7,71.2" fill="none" stroke="#0c2020" stroke-width="13" stroke-linecap="round" stroke-linejoin="round" opacity="1.0"/><path d="M252.7,73.2 L253.8,73.2 L254.9,73.2 L256.0,73.2 L257.1,73.2 L258.2,73.2 L259.3,73.2 L260.4,73.2 L261.5,73.2 L262.6,73.2 L263.6,73.2 L264.7,73.2" fill="none" stroke="#fbbf24" stroke-width="5" stroke-linecap="round" stroke-linejoin="round" opacity="1.0"/><circle cx="258.7" cy="84.2" r="9.0" fill="#fbbf24" stroke="none" stroke-width="6.3" opacity="1.0"/></g><g class="f12"><path d="M240.0,118.0 L243.2,116.9 L246.3,115.7 L249.5,114.6 L252.7,113.4 L255.8,112.3 L258.9,111.1 L260.8,109.6 L260.6,104.9 L259.8,98.9 L258.9,93.0 L258.0,87.0" fill="none" stroke="#f43f5e" stroke-width="21" stroke-linecap="round" stroke-linejoin="round" opacity="0.95"/><path d="M240.0,118.0 L243.2,116.9 L246.3,115.7 L249.5,114.6 L252.7,113.4 L255.8,112.3 L258.9,111.1 L260.8,109.6 L260.6,104.9 L259.8,98.9 L258.9,93.0 L258.0,87.0" fill="none" stroke="#0c2020" stroke-width="13" stroke-linecap="round" stroke-linejoin="round" opacity="1.0"/><path d="M252.0,89.0 L253.1,89.0 L254.2,89.0 L255.3,89.0 L256.4,89.0 L257.5,89.0 L258.5,89.0 L259.6,89.0 L260.7,89.0 L261.8,89.0 L262.9,89.0 L264.0,89.0" fill="none" stroke="#fbbf24" stroke-width="5" stroke-linecap="round" stroke-linejoin="round" opacity="1.0"/><circle cx="258.0" cy="100.0" r="9.0" fill="#fbbf24" stroke="none" stroke-width="6.3" opacity="1.0"/></g><g class="f13"><path d="M240.0,118.0 L243.2,118.8 L246.4,119.6 L249.7,120.4 L252.9,121.2 L256.1,121.9 L259.2,122.7 L261.6,123.3 L261.3,119.4 L260.0,113.9 L258.6,108.3 L257.3,102.8" fill="none" stroke="#f43f5e" stroke-width="21" stroke-linecap="round" stroke-linejoin="round" opacity="0.95"/><path d="M240.0,118.0 L243.2,118.8 L246.4,119.6 L249.7,120.4 L252.9,121.2 L256.1,121.9 L259.2,122.7 L261.6,123.3 L261.3,119.4 L260.0,113.9 L258.6,108.3 L257.3,102.8" fill="none" stroke="#0c2020" stroke-width="13" stroke-linecap="round" stroke-linejoin="round" opacity="1.0"/><path d="M251.3,104.8 L252.4,104.8 L253.4,104.8 L254.5,104.8 L255.6,104.8 L256.7,104.8 L257.8,104.8 L258.9,104.8 L260.0,104.8 L261.1,104.8 L262.2,104.8 L263.3,104.8" fill="none" stroke="#fbbf24" stroke-width="5" stroke-linecap="round" stroke-linejoin="round" opacity="1.0"/><circle cx="257.3" cy="115.8" r="9.0" fill="#fbbf24" stroke="none" stroke-width="6.3" opacity="1.0"/></g><g class="f14"><path d="M240.0,118.0 L243.3,120.5 L246.5,123.0 L249.8,125.4 L253.0,127.9 L256.3,130.4 L259.5,132.9 L262.4,135.2 L261.9,132.1 L260.1,126.9 L258.4,121.7 L256.6,116.6" fill="none" stroke="#f43f5e" stroke-width="21" stroke-linecap="round" stroke-linejoin="round" opacity="0.95"/><path d="M240.0,118.0 L243.3,120.5 L246.5,123.0 L249.8,125.4 L253.0,127.9 L256.3,130.4 L259.5,132.9 L262.4,135.2 L261.9,132.1 L260.1,126.9 L258.4,121.7 L256.6,116.6" fill="none" stroke="#0c2020" stroke-width="13" stroke-linecap="round" stroke-linejoin="round" opacity="1.0"/><path d="M250.6,118.6 L251.7,118.6 L252.8,118.6 L253.9,118.6 L255.0,118.6 L256.1,118.6 L257.2,118.6 L258.3,118.6 L259.4,118.6 L260.4,118.6 L261.5,118.6 L262.6,118.6" fill="none" stroke="#fbbf24" stroke-width="5" stroke-linecap="round" stroke-linejoin="round" opacity="1.0"/><circle cx="256.6" cy="129.6" r="9.0" fill="#fbbf24" stroke="none" stroke-width="6.3" opacity="1.0"/></g><g class="f15"><path d="M240.0,118.0 L243.3,121.7 L246.6,125.3 L249.9,129.0 L253.2,132.7 L256.4,136.4 L259.7,140.0 L262.9,143.7 L262.3,141.1 L260.2,136.2 L258.2,131.2 L256.2,126.3" fill="none" stroke="#f43f5e" stroke-width="21" stroke-linecap="round" stroke-linejoin="round" opacity="0.95"/><path d="M240.0,118.0 L243.3,121.7 L246.6,125.3 L249.9,129.0 L253.2,132.7 L256.4,136.4 L259.7,140.0 L262.9,143.7 L262.3,141.1 L260.2,136.2 L258.2,131.2 L256.2,126.3" fill="none" stroke="#0c2020" stroke-width="13" stroke-linecap="round" stroke-linejoin="round" opacity="1.0"/><path d="M250.2,128.3 L251.3,128.3 L252.4,128.3 L253.4,128.3 L254.5,128.3 L255.6,128.3 L256.7,128.3 L257.8,128.3 L258.9,128.3 L260.0,128.3 L261.1,128.3 L262.2,128.3" fill="none" stroke="#fbbf24" stroke-width="5" stroke-linecap="round" stroke-linejoin="round" opacity="1.0"/><circle cx="256.2" cy="139.3" r="9.0" fill="#fbbf24" stroke="none" stroke-width="6.3" opacity="1.0"/></g></svg>
