<svg xmlns="http://www.w3.org/2000/svg" viewBox="0 0 480 320"><style>@keyframes k0{0%{opacity:1}11.111%{opacity:0}100%{opacity:0}}.f0{opacity:0;animation:k0 2.4s steps(1,end) infinite}@keyframes k1{0%{opacity:0}11.111%{opacity:1}16.667%{opacity:0}100%{opacity:0}}.f1{opacity:0;animation:k1 2.4s steps(1,end) infinite}@keyframes k2{0%{opacity:0}16.667%{opacity:1}22.222%{opacity:0}100%{opacity:0}}.f2{opacity:0;animation:k2 2.4s steps(1,end) infinite}@keyframes k3{0%{opacity:0}22.222%{opacity:1}27.778%{opacity:0}100%{opacity:0}}.f3{opacity:0;animation:k3 2.4s steps(1,end) infinite}@keyframes k4{0%{opacity:0}27.778%{opacity:1}33.333%{opacity:0}100%{opacity:0}}.f4{opacity:0;animation:k4 2.4s steps(1,end) infinite}@keyframes k5{0%{opacity:0}33.333%{opacity:1}38.889%{opacity:0}100%{opacity:0}}.f5{opacity:0;animation:k5 2.4s steps(1,end) infinite}@keyframes k6{0%{opacity:0}38.889%{opacity:1}44.444%{opacity:0}100%{opacity:0}}.f6{opacity:0;animation:k6 2.4s steps(1,end) infinite}@keyframes k7{0%{opacity:0}44.444%{opacity:1}50.000%{opacity:0}100%{opacity:0}}.f7{opacity:0;animation:k7 2.4s steps(1,end) infinite}@keyframes k8{0%{opacity:0}50.000%{opacity:1}61.111%{opacity:0}100%{opacity:0}}.f8{opacity:0;animation:k8 2.4s steps(1,end) infinite}@keyframes k9{0%{opacity:0}61.111%{opacity:1}66.667%{opacity:0}100%{opacity:0}}.f9{opacity:0;animation:k9 2.4s steps(1,end) infinite}@keyframes k10{0%{opacity:0}66.667%{opacity:1}72.222%{opacity:0}100%{opacity:0}}.f10{opacity:0;animation:k10 2.4s steps(1,end) infinite}@keyframes k11{0%{opacity:0}72.222%{opacity:1}77.778%{opacity:0}100%{opacity:0}}.f11{opacity:0;animation:k11 2.4s steps(1,end) infinite}@keyframes k12{0%{opacity:0}77.778%{opacity:1}83.333%{opacity:0}100%{opacity:0}}.f12{opacity:0;animation:k12 2.4s steps(1,end) infinite}@keyframes k13{0%{opacity:0}83.333%{opacity:1}88.889%{opacity:0}100%{opacity:0}}.f13{opacity:0;animation:k13 2.4s steps(1,end) infinite}@keyframes k14{0%{opacity:0}88.889%{opacity:1}94.444%{opacity:0}100%{opacity:0}}.f14{opacity:0;animation:k14 2.4s steps(1,end) infinite}@keyframes k15{0%{opacity:0}94.444%{opacity:1}100%{opacity:1}}.f15{opacity:0;animation:k15 2.4s steps(1,end) infinite}</style><path d="M40.0,292.0 L440.0,292.0" fill="none" stroke="#1f3333" stroke-width="6" stroke-linecap="round" stroke-linejoin="round" opacity="1.0"/><g class="f0"><path d="M162.0,158.0 L167.3,167.5 L172.5,176.9 L177.8,186.4 L183.1,195.8 L188.4,205.3 L193.6,214.7 L198.9,224.2 L204.2,233.6 L209.5,243.1 L214.7,252.5 L220.0,262.0" fill="none" stroke="#2dd4bf" stroke-width="19" stroke-linecap="round" stroke-linejoin="round" opacity="0.95"/><path d="M162.0,158.0 L167.3,167.5 L172.5,176.9 L177.8,186.4 L183.1,195.8 L188.4,205.3 L193.6,214.7 L198.9,224.2 L204.2,233.6 L209.5,243.1 L214.7,252.5 L220.0,262.0" fill="none" stroke="#0c2020" stroke-width="11" stroke-linecap="round" stroke-linejoin="round" opacity="1.0"/><path d="M240.0,205.0 L240.7,212.9 L241.5,220.9 L242.2,228.8 L243.0,236.7 L243.7,244.6 L243.4,252.6 L242.3,260.4 L241.2,268.3 L240.2,276.2 L239.1,284.1 L238.0,292.0" fill="none" stroke="#8f2a3e" stroke-width="19" stroke-linecap="round" stroke-linejoin="round" opacity="0.95"/><path d="M240.0,205.0 L240.7,212.9 L241.5,220.9 L242.2,228.8 L243.0,236.7 L243.7,244.6 L243.4,252.6 L242.3,260.4 L241.2,268.3 L240.2,276.2 L239.1,284.1 L238.0,292.0" fill="none" stroke="#0c2020" stroke-width="11" stroke-linecap="round" stroke-linejoin="round" opacity="1.0"/><path d="M240.0,205.0 L242.5,212.7 L245.0,220.5 L247.5,228.2 L250.1,235.9 L252.6,243.6 L253.7,251.5 L252.9,259.6 L252.2,267.7 L251.5,275.8 L250.7,283.9 L250.0,292.0" fill="none" stroke="#f43f5e" stroke-width="19" stroke-linecap="round" stroke-linejoin="round" opacity="0.95"/><path d="M240.0,205.0 L242.5,212.7 L245.0,220.5 L247.5,228.2 L250.1,235.9 L252.6,243.6 L253.7,251.5 L252.9,259.6 L252.2,267.7 L251.5,275.8 L250.7,283.9 L250.0,292.0" fill="none" stroke="#0c2020" stroke-width="11" stroke-linecap="round" stroke-linejoin="round" opacity="1.0"/><path d="M162.0,158.0 L169.1,162.3 L176.2,166.5 L183.3,170.8 L190.4,175.1 L197.5,179.4 L204.5,183.6 L211.6,187.9 L218.7,192.2 L225.8,196.5 L232.9,200.7 L240.0,205.0" fill="none" stroke="#2dd4bf" stroke-width="23" stroke-linecap="round" stroke-linejoin="round" opacity="0.95"/><path d="M162.0,158.0 L169.1,162.3 L176.2,166.5 L183.3,170.8 L190.4,175.1 L197.5,179.4 L204.5,183.6 L211.6,187.9 L218.7,192.2 L225.8,196.5 L232.9,200.7 L240.0,205.0" fill="none" stroke="#0c2020" stroke-width="15" stroke-linecap="round" stroke-linejoin="round" opacity="1.0"/><circle cx="140.0" cy="150.0" r="19.0" fill="#2dd4bf" stroke="none" stroke-width="0" opacity="0.95"/><circle cx="140.0" cy="150.0" r="15.0" fill="#0c2020" stroke="none" stroke-width="6.3" opacity="1.0"/><path d="M138.0,133.0 L135.0,136.0 L132.0,139.0 L129.1,141.9 L126.1,144.9 L123.1,147.9 L120.1,150.9 L119.5,154.5 L120.4,158.6 L121.3,162.8 L122.1,166.9 L123.0,171.0" fill="none" stroke="#2dd4bf" stroke-width="5" stroke-linecap="round" stroke-linejoin="round" opacity="1.0"/><path d="M130.7,147.0 L132.4,147.0 L134.1,147.0 L135.8,147.0 L137.5,147.0 L139.2,147.0 L140.8,147.0 L142.5,147.0 L144.2,147.0 L145.9,147.0 L147.6,147.0 L149.3,147.0" fill="none" stroke="#a7f3ee" stroke-width="5" stroke-linecap="round" stroke-linejoin="round" opacity="1.0"/><path d="M214.0,264.0 L215.1,264.0 L216.2,264.0 L217.3,264.0 L218.4,264.0 L219.5,264.0 L220.5,264.0 L221.6,264.0 L222.7,264.0 L223.8,264.0 L224.9,264.0 L226.0,264.0" fill="none" stroke="#fbbf24" stroke-width="5" stroke-linecap="round" stroke-linejoin="round" opacity="1.0"/><circle cx="220.0" cy="277.0" r="11.0" fill="#fbbf24" stroke="none" stroke-width="6.3" opacity="1.0"/></g><g class="f1"><path d="M165.4,156.3 L170.4,165.6 L175.4,175.0 L180.4,184.3 L185.4,193.7 L190.4,203.0 L195.4,212.4 L200.4,221.7 L205.4,231.1 L210.5,240.5 L215.5,249.8 L220.5,259.2" fill="none" stroke="#2dd4bf" stroke-width="19" stroke-linecap="round" stroke-linejoin="round" opacity="0.95"/><path d="M165.4,156.3 L170.4,165.6 L175.4,175.0 L180.4,184.3 L185.4,193.7 L190.4,203.0 L195.4,212.4 L200.4,221.7 L205.4,231.1 L210.5,240.5 L215.5,249.8 L220.5,259.2" fill="none" stroke="#0c2020" stroke-width="11" stroke-linecap="round" stroke-linejoin="round" opacity="1.0"/><path d="M240.0,204.4 L240.7,212.4 L241.3,220.4 L242.0,228.4 L242.6,236.4 L243.3,244.3 L243.0,252.3 L241.9,260.2 L240.9,268.2 L239.8,276.1 L238.8,284.1 L237.7,292.0" fill="none" stroke="#8f2a3e" stroke-width="19" stroke-linecap="round" stroke-linejoin="round" opacity="0.95"/><path d="M240.0,204.4 L240.7,212.4 L241.3,220.4 L242.0,228.4 L242.6,236.4 L243.3,244.3 L243.0,252.3 L241.9,260.2 L240.9,268.2 L239.8,276.1 L238.8,284.1 L237.7,292.0" fill="none" stroke="#0c2020" stroke-width="11" stroke-linecap="round" stroke-linejoin="round" opacity="1.0"/><path d="M240.0,204.4 L242.5,212.2 L244.9,220.0 L247.4,227.8 L249.9,235.6 L252.4,243.4 L253.4,251.3 L252.7,259.4 L252.0,267.6 L251.3,275.7 L250.5,283.9 L249.8,292.0" fill="none" stroke="#f43f5e" stroke-width="19" stroke-linecap="round" stroke-linejoin="round" opacity="0.95"/><path d="M240.0,204.4 L242.5,212.2 L244.9,220.0 L247.4,227.8 L249.9,235.6 L252.4,243.4 L253.4,251.3 L252.7,259.4 L252.0,267.6 L251.3,275.7 L250.5,283.9 L249.8,292.0" fill="none" stroke="#0c2020" stroke-width="11" stroke-linecap="round" stroke-linejoin="round" opacity="1.0"/><path d="M165.4,156.3 L172.1,160.7 L178.9,165.0 L185.7,169.4 L192.5,173.8 L199.3,178.2 L206.1,182.6 L212.9,186.9 L219.6,191.3 L226.4,195.7 L233.2,200.1 L240.0,204.4" fill="none" stroke="#2dd4bf" stroke-width="23" stroke-linecap="round" stroke-linejoin="round" opacity="0.95"/><path d="M165.4,156.3 L172.1,160.7 L178.9,165.0 L185.7,169.4 L192.5,173.8 L199.3,178.2 L206.1,182.6 L212.9,186.9 L219.6,191.3 L226.4,195.7 L233.2,200.1 L240.0,204.4" fill="none" stroke="#0c2020" stroke-width="15" stroke-linecap="round" stroke-linejoin="round" opacity="1.0"/><circle cx="144.4" cy="147.4" r="19.0" fill="#2dd4bf" stroke="none" stroke-width="0" opacity="0.95"/><circle cx="144.4" cy="147.4" r="15.0" fill="#0c2020" stroke="none" stroke-width="6.3" opacity="1.0"/><path d="M142.4,130.4 L139.4,133.4 L136.4,136.4 L133.5,139.3 L130.5,142.3 L127.5,145.3 L124.5,148.3 L123.9,152.0 L124.8,156.1 L125.6,160.2 L126.5,164.3 L127.4,168.4" fill="none" stroke="#2dd4bf" stroke-width="5" stroke-linecap="round" stroke-linejoin="round" opacity="1.0"/><path d="M135.1,144.4 L136.8,144.4 L138.5,144.4 L140.2,144.4 L141.8,144.4 L143.5,144.4 L145.2,144.4 L146.9,144.4 L148.6,144.4 L150.3,144.4 L152.0,144.4 L153.7,144.4" fill="none" stroke="#a7f3ee" stroke-width="5" stroke-linecap="round" stroke-linejoin="round" opacity="1.0"/><path d="M214.5,261.2 L215.6,261.2 L216.7,261.2 L217.8,261.2 L218.9,261.2 L220.0,261.2 L221.1,261.2 L222.2,261.2 L223.2,261.2 L224.3,261.2 L225.4,261.2 L226.5,261.2" fill="none" stroke="#fbbf24" stroke-width="5" stroke-linecap="round" stroke-linejoin="round" opacity="1.0"/><circle cx="220.5" cy="274.2" r="11.0" fill="#fbbf24" stroke="none" stroke-width="6.3" opacity="1.0"/></g><g class="f2"><path d="M174.2,151.8 L178.5,160.8 L182.8,169.9 L187.1,179.0 L191.4,188.1 L195.6,197.2 L199.9,206.2 L204.3,215.3 L208.7,224.4 L213.1,233.5 L217.5,242.6 L221.9,251.7" fill="none" stroke="#2dd4bf" stroke-width="19" stroke-linecap="round" stroke-linejoin="round" opacity="0.95"/><path d="M174.2,151.8 L178.5,160.8 L182.8,169.9 L187.1,179.0 L191.4,188.1 L195.6,197.2 L199.9,206.2 L204.3,215.3 L208.7,224.4 L213.1,233.5 L217.5,242.6 L221.9,251.7" fill="none" stroke="#0c2020" stroke-width="11" stroke-linecap="round" stroke-linejoin="round" opacity="1.0"/><path d="M240.0,203.0 L240.4,211.1 L240.9,219.2 L241.3,227.3 L241.8,235.4 L242.2,243.5 L241.9,251.6 L240.9,259.7 L240.0,267.8 L239.0,275.8 L238.0,283.9 L237.1,292.0" fill="none" stroke="#8f2a3e" stroke-width="19" stroke-linecap="round" stroke-linejoin="round" opacity="0.95"/><path d="M240.0,203.0 L240.4,211.1 L240.9,219.2 L241.3,227.3 L241.8,235.4 L242.2,243.5 L241.9,251.6 L240.9,259.7 L240.0,267.8 L239.0,275.8 L238.0,283.9 L237.1,292.0" fill="none" stroke="#0c2020" stroke-width="11" stroke-linecap="round" stroke-linejoin="round" opacity="1.0"/><path d="M240.0,203.0 L242.4,210.9 L244.7,218.8 L247.1,226.8 L249.4,234.7 L251.8,242.6 L252.8,250.7 L252.1,259.0 L251.4,267.2 L250.7,275.5 L250.1,283.7 L249.4,292.0" fill="none" stroke="#f43f5e" stroke-width="19" stroke-linecap="round" stroke-linejoin="round" opacity="0.95"/><path d="M240.0,203.0 L242.4,210.9 L244.7,218.8 L247.1,226.8 L249.4,234.7 L251.8,242.6 L252.8,250.7 L252.1,259.0 L251.4,267.2 L250.7,275.5 L250.1,283.7 L249.4,292.0" fill="none" stroke="#0c2020" stroke-width="11" stroke-linecap="round" stroke-linejoin="round" opacity="1.0"/><path d="M174.2,151.8 L180.2,156.4 L186.2,161.1 L192.1,165.7 L198.1,170.4 L204.1,175.0 L210.1,179.7 L216.1,184.3 L222.1,189.0 L228.0,193.7 L234.0,198.3 L240.0,203.0" fill="none" stroke="#2dd4bf" stroke-width="23" stroke-linecap="round" stroke-linejoin="round" opacity="0.95"/><path d="M174.2,151.8 L180.2,156.4 L186.2,161.1 L192.1,165.7 L198.1,170.4 L204.1,175.0 L210.1,179.7 L216.1,184.3 L222.1,189.0 L228.0,193.7 L234.0,198.3 L240.0,203.0" fill="none" stroke="#0c2020" stroke-width="15" stroke-linecap="round" stroke-linejoin="round" opacity="1.0"/><circle cx="155.9" cy="140.6" r="19.0" fill="#2dd4bf" stroke="none" stroke-width="0" opacity="0.95"/><circle cx="155.9" cy="140.6" r="15.0" fill="#0c2020" stroke="none" stroke-width="6.3" opacity="1.0"/><path d="M153.9,123.6 L151.0,126.6 L148.0,129.6 L145.0,132.6 L142.0,135.5 L139.1,138.5 L136.1,141.5 L135.5,145.2 L136.3,149.3 L137.2,153.4 L138.1,157.5 L138.9,161.6" fill="none" stroke="#2dd4bf" stroke-width="5" stroke-linecap="round" stroke-linejoin="round" opacity="1.0"/><path d="M146.6,137.6 L148.3,137.6 L150.0,137.6 L151.7,137.6 L153.4,137.6 L155.1,137.6 L156.8,137.6 L158.5,137.6 L160.2,137.6 L161.9,137.6 L163.5,137.6 L165.2,137.6" fill="none" stroke="#a7f3ee" stroke-width="5" stroke-linecap="round" stroke-linejoin="round" opacity="1.0"/><path d="M215.9,253.7 L217.0,253.7 L218.1,253.7 L219.1,253.7 L220.2,253.7 L221.3,253.7 L222.4,253.7 L223.5,253.7 L224.6,253.7 L225.7,253.7 L226.8,253.7 L227.9,253.7" fill="none" stroke="#fbbf24" stroke-width="5" stroke-linecap="round" stroke-linejoin="round" opacity="1.0"/><circle cx="221.9" cy="266.7" r="11.0" fill="#fbbf24" stroke="none" stroke-width="6.3" opacity="1.0"/></g><g class="f3"><path d="M186.7,145.3 L190.0,154.0 L193.2,162.7 L196.5,171.4 L199.8,180.1 L203.1,188.8 L206.4,197.5 L209.9,206.2 L213.4,215.0 L216.8,223.7 L220.3,232.4 L223.8,241.1" fill="none" stroke="#2dd4bf" stroke-width="19" stroke-linecap="round" stroke-linejoin="round" opacity="0.95"/><path d="M186.7,145.3 L190.0,154.0 L193.2,162.7 L196.5,171.4 L199.8,180.1 L203.1,188.8 L206.4,197.5 L209.9,206.2 L213.4,215.0 L216.8,223.7 L220.3,232.4 L223.8,241.1" fill="none" stroke="#0c2020" stroke-width="11" stroke-linecap="round" stroke-linejoin="round" opacity="1.0"/><path d="M240.0,200.9 L240.1,209.2 L240.3,217.5 L240.4,225.7 L240.6,234.0 L240.7,242.3 L240.3,250.6 L239.5,258.9 L238.6,267.2 L237.8,275.4 L236.9,283.7 L236.1,292.0" fill="none" stroke="#8f2a3e" stroke-width="19" stroke-linecap="round" stroke-linejoin="round" opacity="0.95"/><path d="M240.0,200.9 L240.1,209.2 L240.3,217.5 L240.4,225.7 L240.6,234.0 L240.7,242.3 L240.3,250.6 L239.5,258.9 L238.6,267.2 L237.8,275.4 L236.9,283.7 L236.1,292.0" fill="none" stroke="#0c2020" stroke-width="11" stroke-linecap="round" stroke-linejoin="round" opacity="1.0"/><path d="M240.0,200.9 L242.2,209.0 L244.4,217.2 L246.6,225.3 L248.8,233.4 L251.0,241.6 L251.8,249.9 L251.2,258.3 L250.6,266.7 L250.0,275.1 L249.3,283.6 L248.7,292.0" fill="none" stroke="#f43f5e" stroke-width="19" stroke-linecap="round" stroke-linejoin="round" opacity="0.95"/><path d="M240.0,200.9 L242.2,209.0 L244.4,217.2 L246.6,225.3 L248.8,233.4 L251.0,241.6 L251.8,249.9 L251.2,258.3 L250.6,266.7 L250.0,275.1 L249.3,283.6 L248.7,292.0" fill="none" stroke="#0c2020" stroke-width="11" stroke-linecap="round" stroke-linejoin="round" opacity="1.0"/><path d="M186.7,145.3 L191.5,150.4 L196.4,155.4 L201.2,160.5 L206.1,165.5 L210.9,170.6 L215.8,175.6 L220.6,180.7 L225.5,185.7 L230.3,190.8 L235.2,195.8 L240.0,200.9" fill="none" stroke="#2dd4bf" stroke-width="23" stroke-linecap="round" stroke-linejoin="round" opacity="0.95"/><path d="M186.7,145.3 L191.5,150.4 L196.4,155.4 L201.2,160.5 L206.1,165.5 L210.9,170.6 L215.8,175.6 L220.6,180.7 L225.5,185.7 L230.3,190.8 L235.2,195.8 L240.0,200.9" fill="none" stroke="#0c2020" stroke-width="15" stroke-linecap="round" stroke-linejoin="round" opacity="1.0"/><circle cx="172.3" cy="131.0" r="19.0" fill="#2dd4bf" stroke="none" stroke-width="0" opacity="0.95"/><circle cx="172.3" cy="131.0" r="15.0" fill="#0c2020" stroke="none" stroke-width="6.3" opacity="1.0"/><path d="M170.3,114.0 L167.3,117.0 L164.3,120.0 L161.3,122.9 L158.4,125.9 L155.4,128.9 L152.4,131.9 L151.8,135.5 L152.7,139.7 L153.5,143.8 L154.4,147.9 L155.3,152.0" fill="none" stroke="#2dd4bf" stroke-width="5" stroke-linecap="round" stroke-linejoin="round" opacity="1.0"/><path d="M163.0,128.0 L164.7,128.0 L166.4,128.0 L168.0,128.0 L169.7,128.0 L171.4,128.0 L173.1,128.0 L174.8,128.0 L176.5,128.0 L178.2,128.0 L179.9,128.0 L181.6,128.0" fill="none" stroke="#a7f3ee" stroke-width="5" stroke-linecap="round" stroke-linejoin="round" opacity="1.0"/><path d="M217.8,243.1 L218.9,243.1 L220.0,243.1 L221.1,243.1 L222.2,243.1 L223.3,243.1 L224.3,243.1 L225.4,243.1 L226.5,243.1 L227.6,243.1 L228.7,243.1 L229.8,243.1" fill="none" stroke="#fbbf24" stroke-width="5" stroke-linecap="round" stroke-linejoin="round" opacity="1.0"/><circle cx="223.8" cy="256.1" r="11.0" fill="#fbbf24" stroke="none" stroke-width="6.3" opacity="1.0"/></g><g class="f4"><path d="M201.0,138.0 L203.1,146.3 L205.3,154.5 L207.4,162.8 L209.5,171.0 L211.7,179.3 L213.8,187.6 L216.2,195.8 L218.7,204.1 L221.1,212.4 L223.6,220.7 L226.0,229.0" fill="none" stroke="#2dd4bf" stroke-width="19" stroke-linecap="round" stroke-linejoin="round" opacity="0.95"/><path d="M201.0,138.0 L203.1,146.3 L205.3,154.5 L207.4,162.8 L209.5,171.0 L211.7,179.3 L213.8,187.6 L216.2,195.8 L218.7,204.1 L221.1,212.4 L223.6,220.7 L226.0,229.0" fill="none" stroke="#0c2020" stroke-width="11" stroke-linecap="round" stroke-linejoin="round" opacity="1.0"/><path d="M240.0,198.5 L239.8,207.0 L239.6,215.5 L239.4,224.0 L239.2,232.5 L239.0,241.0 L238.6,249.5 L237.9,258.0 L237.1,266.5 L236.4,275.0 L235.7,283.5 L235.0,292.0" fill="none" stroke="#8f2a3e" stroke-width="19" stroke-linecap="round" stroke-linejoin="round" opacity="0.95"/><path d="M240.0,198.5 L239.8,207.0 L239.6,215.5 L239.4,224.0 L239.2,232.5 L239.0,241.0 L238.6,249.5 L237.9,258.0 L237.1,266.5 L236.4,275.0 L235.7,283.5 L235.0,292.0" fill="none" stroke="#0c2020" stroke-width="11" stroke-linecap="round" stroke-linejoin="round" opacity="1.0"/><path d="M240.0,198.5 L242.0,206.9 L244.0,215.3 L246.0,223.6 L248.0,232.0 L250.1,240.4 L250.7,248.9 L250.2,257.5 L249.6,266.1 L249.1,274.8 L248.5,283.4 L248.0,292.0" fill="none" stroke="#f43f5e" stroke-width="19" stroke-linecap="round" stroke-linejoin="round" opacity="0.95"/><path d="M240.0,198.5 L242.0,206.9 L244.0,215.3 L246.0,223.6 L248.0,232.0 L250.1,240.4 L250.7,248.9 L250.2,257.5 L249.6,266.1 L249.1,274.8 L248.5,283.4 L248.0,292.0" fill="none" stroke="#0c2020" stroke-width="11" stroke-linecap="round" stroke-linejoin="round" opacity="1.0"/><path d="M201.0,138.0 L204.5,143.5 L208.1,149.0 L211.6,154.5 L215.2,160.0 L218.7,165.5 L222.3,171.0 L225.8,176.5 L229.4,182.0 L232.9,187.5 L236.5,193.0 L240.0,198.5" fill="none" stroke="#2dd4bf" stroke-width="23" stroke-linecap="round" stroke-linejoin="round" opacity="0.95"/><path d="M201.0,138.0 L204.5,143.5 L208.1,149.0 L211.6,154.5 L215.2,160.0 L218.7,165.5 L222.3,171.0 L225.8,176.5 L229.4,182.0 L232.9,187.5 L236.5,193.0 L240.0,198.5" fill="none" stroke="#0c2020" stroke-width="15" stroke-linecap="round" stroke-linejoin="round" opacity="1.0"/><circle cx="191.0" cy="120.0" r="19.0" fill="#2dd4bf" stroke="none" stroke-width="0" opacity="0.95"/><circle cx="191.0" cy="120.0" r="15.0" fill="#0c2020" stroke="none" stroke-width="6.3" opacity="1.0"/><path d="M189.0,103.0 L186.0,106.0 L183.0,109.0 L180.1,111.9 L177.1,114.9 L174.1,117.9 L171.1,120.9 L170.5,124.5 L171.4,128.6 L172.3,132.8 L173.1,136.9 L174.0,141.0" fill="none" stroke="#2dd4bf" stroke-width="5" stroke-linecap="round" stroke-linejoin="round" opacity="1.0"/><path d="M181.7,117.0 L183.4,117.0 L185.1,117.0 L186.8,117.0 L188.5,117.0 L190.2,117.0 L191.8,117.0 L193.5,117.0 L195.2,117.0 L196.9,117.0 L198.6,117.0 L200.3,117.0" fill="none" stroke="#a7f3ee" stroke-width="5" stroke-linecap="round" stroke-linejoin="round" opacity="1.0"/><path d="M220.0,231.0 L221.1,231.0 L222.2,231.0 L223.3,231.0 L224.4,231.0 L225.5,231.0 L226.5,231.0 L227.6,231.0 L228.7,231.0 L229.8,231.0 L230.9,231.0 L232.0,231.0" fill="none" stroke="#fbbf24" stroke-width="5" stroke-linecap="round" stroke-linejoin="round" opacity="1.0"/><circle cx="226.0" cy="244.0" r="11.0" fill="#fbbf24" stroke="none" stroke-width="6.3" opacity="1.0"/></g><g class="f5"><path d="M215.3,130.7 L216.3,138.5 L217.3,146.3 L218.3,154.1 L219.2,161.9 L220.2,169.8 L221.2,177.6 L222.6,185.4 L224.0,193.3 L225.4,201.2 L226.8,209.0 L228.2,216.9" fill="none" stroke="#2dd4bf" stroke-width="19" stroke-linecap="round" stroke-linejoin="round" opacity="0.95"/><path d="M215.3,130.7 L216.3,138.5 L217.3,146.3 L218.3,154.1 L219.2,161.9 L220.2,169.8 L221.2,177.6 L222.6,185.4 L224.0,193.3 L225.4,201.2 L226.8,209.0 L228.2,216.9" fill="none" stroke="#0c2020" stroke-width="11" stroke-linecap="round" stroke-linejoin="round" opacity="1.0"/><path d="M240.0,196.1 L239.5,204.8 L238.9,213.5 L238.4,222.2 L237.8,230.9 L237.3,239.6 L236.8,248.3 L236.2,257.1 L235.6,265.8 L235.1,274.5 L234.5,283.3 L233.9,292.0" fill="none" stroke="#8f2a3e" stroke-width="19" stroke-linecap="round" stroke-linejoin="round" opacity="0.95"/><path d="M240.0,196.1 L239.5,204.8 L238.9,213.5 L238.4,222.2 L237.8,230.9 L237.3,239.6 L236.8,248.3 L236.2,257.1 L235.6,265.8 L235.1,274.5 L234.5,283.3 L233.9,292.0" fill="none" stroke="#0c2020" stroke-width="11" stroke-linecap="round" stroke-linejoin="round" opacity="1.0"/><path d="M240.0,196.1 L241.8,204.7 L243.6,213.3 L245.5,222.0 L247.3,230.6 L249.1,239.2 L249.6,247.9 L249.2,256.7 L248.7,265.6 L248.2,274.4 L247.7,283.2 L247.3,292.0" fill="none" stroke="#f43f5e" stroke-width="19" stroke-linecap="round" stroke-linejoin="round" opacity="0.95"/><path d="M240.0,196.1 L241.8,204.7 L243.6,213.3 L245.5,222.0 L247.3,230.6 L249.1,239.2 L249.6,247.9 L249.2,256.7 L248.7,265.6 L248.2,274.4 L247.7,283.2 L247.3,292.0" fill="none" stroke="#0c2020" stroke-width="11" stroke-linecap="round" stroke-linejoin="round" opacity="1.0"/><path d="M215.3,130.7 L217.6,136.6 L219.8,142.6 L222.1,148.5 L224.3,154.5 L226.5,160.4 L228.8,166.4 L231.0,172.3 L233.3,178.3 L235.5,184.2 L237.8,190.2 L240.0,196.1" fill="none" stroke="#2dd4bf" stroke-width="23" stroke-linecap="round" stroke-linejoin="round" opacity="0.95"/><path d="M215.3,130.7 L217.6,136.6 L219.8,142.6 L222.1,148.5 L224.3,154.5 L226.5,160.4 L228.8,166.4 L231.0,172.3 L233.3,178.3 L235.5,184.2 L237.8,190.2 L240.0,196.1" fill="none" stroke="#0c2020" stroke-width="15" stroke-linecap="round" stroke-linejoin="round" opacity="1.0"/><circle cx="209.7" cy="109.0" r="19.0" fill="#2dd4bf" stroke="none" stroke-width="0" opacity="0.95"/><circle cx="209.7" cy="109.0" r="15.0" fill="#0c2020" stroke="none" stroke-width="6.3" opacity="1.0"/><path d="M207.7,92.0 L204.8,95.0 L201.8,97.9 L198.8,100.9 L195.8,103.9 L192.8,106.9 L189.9,109.8 L189.3,113.5 L190.1,117.6 L191.0,121.7 L191.9,125.9 L192.7,130.0" fill="none" stroke="#2dd4bf" stroke-width="5" stroke-linecap="round" stroke-linejoin="round" opacity="1.0"/><path d="M200.4,106.0 L202.1,106.0 L203.8,106.0 L205.5,106.0 L207.2,106.0 L208.9,106.0 L210.6,106.0 L212.3,106.0 L214.0,106.0 L215.6,106.0 L217.3,106.0 L219.0,106.0" fill="none" stroke="#a7f3ee" stroke-width="5" stroke-linecap="round" stroke-linejoin="round" opacity="1.0"/><path d="M222.2,218.9 L223.3,218.9 L224.4,218.9 L225.5,218.9 L226.6,218.9 L227.7,218.9 L228.7,218.9 L229.8,218.9 L230.9,218.9 L232.0,218.9 L233.1,218.9 L234.2,218.9" fill="none" stroke="#fbbf24" stroke-width="5" stroke-linecap="round" stroke-linejoin="round" opacity="1.0"/><circle cx="228.2" cy="231.9" r="11.0" fill="#fbbf24" stroke="none" stroke-width="6.3" opacity="1.0"/></g><g class="f6"><path d="M227.8,124.2 L227.8,131.7 L227.8,139.1 L227.7,146.6 L227.7,154.0 L227.7,161.4 L227.7,168.9 L228.2,176.4 L228.7,183.8 L229.1,191.3 L229.6,198.8 L230.1,206.3" fill="none" stroke="#2dd4bf" stroke-width="19" stroke-linecap="round" stroke-linejoin="round" opacity="0.95"/><path d="M227.8,124.2 L227.8,131.7 L227.8,139.1 L227.7,146.6 L227.7,154.0 L227.7,161.4 L227.7,168.9 L228.2,176.4 L228.7,183.8 L229.1,191.3 L229.6,198.8 L230.1,206.3" fill="none" stroke="#0c2020" stroke-width="11" stroke-linecap="round" stroke-linejoin="round" opacity="1.0"/><path d="M240.0,194.0 L239.2,202.9 L238.3,211.8 L237.5,220.7 L236.6,229.6 L235.8,238.4 L235.3,247.4 L234.8,256.3 L234.3,265.2 L233.9,274.1 L233.4,283.1 L232.9,292.0" fill="none" stroke="#8f2a3e" stroke-width="19" stroke-linecap="round" stroke-linejoin="round" opacity="0.95"/><path d="M240.0,194.0 L239.2,202.9 L238.3,211.8 L237.5,220.7 L236.6,229.6 L235.8,238.4 L235.3,247.4 L234.8,256.3 L234.3,265.2 L233.9,274.1 L233.4,283.1 L232.9,292.0" fill="none" stroke="#0c2020" stroke-width="11" stroke-linecap="round" stroke-linejoin="round" opacity="1.0"/><path d="M240.0,194.0 L241.7,202.9 L243.3,211.7 L245.0,220.5 L246.7,229.3 L248.3,238.2 L248.7,247.1 L248.3,256.1 L247.9,265.1 L247.4,274.0 L247.0,283.0 L246.6,292.0" fill="none" stroke="#f43f5e" stroke-width="19" stroke-linecap="round" stroke-linejoin="round" opacity="0.95"/><path d="M240.0,194.0 L241.7,202.9 L243.3,211.7 L245.0,220.5 L246.7,229.3 L248.3,238.2 L248.7,247.1 L248.3,256.1 L247.9,265.1 L247.4,274.0 L247.0,283.0 L246.6,292.0" fill="none" stroke="#0c2020" stroke-width="11" stroke-linecap="round" stroke-linejoin="round" opacity="1.0"/><path d="M227.8,124.2 L228.9,130.6 L230.0,136.9 L231.1,143.3 L232.2,149.6 L233.4,156.0 L234.5,162.3 L235.6,168.7 L236.7,175.0 L237.8,181.3 L238.9,187.7 L240.0,194.0" fill="none" stroke="#2dd4bf" stroke-width="23" stroke-linecap="round" stroke-linejoin="round" opacity="0.95"/><path d="M227.8,124.2 L228.9,130.6 L230.0,136.9 L231.1,143.3 L232.2,149.6 L233.4,156.0 L234.5,162.3 L235.6,168.7 L236.7,175.0 L237.8,181.3 L238.9,187.7 L240.0,194.0" fill="none" stroke="#0c2020" stroke-width="15" stroke-linecap="round" stroke-linejoin="round" opacity="1.0"/><circle cx="226.1" cy="99.4" r="19.0" fill="#2dd4bf" stroke="none" stroke-width="0" opacity="0.95"/><circle cx="226.1" cy="99.4" r="15.0" fill="#0c2020" stroke="none" stroke-width="6.3" opacity="1.0"/><path d="M224.1,82.4 L221.1,85.4 L218.1,88.3 L215.1,91.3 L212.2,94.3 L209.2,97.3 L206.2,100.2 L205.6,103.9 L206.5,108.0 L207.3,112.1 L208.2,116.3 L209.1,120.4" fill="none" stroke="#2dd4bf" stroke-width="5" stroke-linecap="round" stroke-linejoin="round" opacity="1.0"/><path d="M216.8,96.4 L218.5,96.4 L220.1,96.4 L221.8,96.4 L223.5,96.4 L225.2,96.4 L226.9,96.4 L228.6,96.4 L230.3,96.4 L232.0,96.4 L233.7,96.4 L235.4,96.4" fill="none" stroke="#a7f3ee" stroke-width="5" stroke-linecap="round" stroke-linejoin="round" opacity="1.0"/><path d="M224.1,208.3 L225.2,208.3 L226.3,208.3 L227.4,208.3 L228.5,208.3 L229.6,208.3 L230.7,208.3 L231.8,208.3 L232.9,208.3 L233.9,208.3 L235.0,208.3 L236.1,208.3" fill="none" stroke="#fbbf24" stroke-width="5" stroke-linecap="round" stroke-linejoin="round" opacity="1.0"/><circle cx="230.1" cy="221.3" r="11.0" fill="#fbbf24" stroke="none" stroke-width="6.3" opacity="1.0"/></g><g class="f7"><path d="M236.6,119.7 L235.9,126.9 L235.2,134.1 L234.4,141.2 L233.7,148.4 L233.0,155.5 L232.2,162.7 L232.1,169.9 L231.9,177.2 L231.8,184.4 L231.6,191.6 L231.5,198.8" fill="none" stroke="#2dd4bf" stroke-width="19" stroke-linecap="round" stroke-linejoin="round" opacity="0.95"/><path d="M236.6,119.7 L235.9,126.9 L235.2,134.1 L234.4,141.2 L233.7,148.4 L233.0,155.5 L232.2,162.7 L232.1,169.9 L231.9,177.2 L231.8,184.4 L231.6,191.6 L231.5,198.8" fill="none" stroke="#0c2020" stroke-width="11" stroke-linecap="round" stroke-linejoin="round" opacity="1.0"/><path d="M240.0,192.6 L238.9,201.6 L237.9,210.6 L236.8,219.6 L235.8,228.6 L234.7,237.6 L234.2,246.7 L233.8,255.7 L233.4,264.8 L233.0,273.9 L232.6,282.9 L232.3,292.0" fill="none" stroke="#8f2a3e" stroke-width="19" stroke-linecap="round" stroke-linejoin="round" opacity="0.95"/><path d="M240.0,192.6 L238.9,201.6 L237.9,210.6 L236.8,219.6 L235.8,228.6 L234.7,237.6 L234.2,246.7 L233.8,255.7 L233.4,264.8 L233.0,273.9 L232.6,282.9 L232.3,292.0" fill="none" stroke="#0c2020" stroke-width="11" stroke-linecap="round" stroke-linejoin="round" opacity="1.0"/><path d="M240.0,192.6 L241.5,201.5 L243.1,210.5 L244.6,219.5 L246.2,228.5 L247.7,237.4 L248.0,246.5 L247.6,255.6 L247.3,264.7 L246.9,273.8 L246.5,282.9 L246.2,292.0" fill="none" stroke="#f43f5e" stroke-width="19" stroke-linecap="round" stroke-linejoin="round" opacity="0.95"/><path d="M240.0,192.6 L241.5,201.5 L243.1,210.5 L244.6,219.5 L246.2,228.5 L247.7,237.4 L248.0,246.5 L247.6,255.6 L247.3,264.7 L246.9,273.8 L246.5,282.9 L246.2,292.0" fill="none" stroke="#0c2020" stroke-width="11" stroke-linecap="round" stroke-linejoin="round" opacity="1.0"/><path d="M236.6,119.7 L237.0,126.3 L237.3,133.0 L237.6,139.6 L237.9,146.2 L238.2,152.8 L238.5,159.4 L238.8,166.1 L239.1,172.7 L239.4,179.3 L239.7,185.9 L240.0,192.6" fill="none" stroke="#2dd4bf" stroke-width="23" stroke-linecap="round" stroke-linejoin="round" opacity="0.95"/><path d="M236.6,119.7 L237.0,126.3 L237.3,133.0 L237.6,139.6 L237.9,146.2 L238.2,152.8 L238.5,159.4 L238.8,166.1 L239.1,172.7 L239.4,179.3 L239.7,185.9 L240.0,192.6" fill="none" stroke="#0c2020" stroke-width="15" stroke-linecap="round" stroke-linejoin="round" opacity="1.0"/><circle cx="237.6" cy="92.6" r="19.0" fill="#2dd4bf" stroke="none" stroke-width="0" opacity="0.95"/><circle cx="237.6" cy="92.6" r="15.0" fill="#0c2020" stroke="none" stroke-width="6.3" opacity="1.0"/><path d="M235.6,75.6 L232.6,78.6 L229.7,81.5 L226.7,84.5 L223.7,87.5 L220.7,90.5 L217.8,93.4 L217.1,97.1 L218.0,101.2 L218.9,105.3 L219.8,109.5 L220.6,113.6" fill="none" stroke="#2dd4bf" stroke-width="5" stroke-linecap="round" stroke-linejoin="round" opacity="1.0"/><path d="M228.3,89.6 L230.0,89.6 L231.7,89.6 L233.4,89.6 L235.1,89.6 L236.8,89.6 L238.5,89.6 L240.2,89.6 L241.8,89.6 L243.5,89.6 L245.2,89.6 L246.9,89.6" fill="none" stroke="#a7f3ee" stroke-width="5" stroke-linecap="round" stroke-linejoin="round" opacity="1.0"/><path d="M225.5,200.8 L226.6,200.8 L227.7,200.8 L228.8,200.8 L229.8,200.8 L230.9,200.8 L232.0,200.8 L233.1,200.8 L234.2,200.8 L235.3,200.8 L236.4,200.8 L237.5,200.8" fill="none" stroke="#fbbf24" stroke-width="5" stroke-linecap="round" stroke-linejoin="round" opacity="1.0"/><circle cx="231.5" cy="213.8" r="11.0" fill="#fbbf24" stroke="none" stroke-width="6.3" opacity="1.0"/></g><g class="f8"><path d="M240.0,118.0 L239.0,125.1 L238.0,132.1 L237.0,139.2 L236.0,146.3 L235.0,153.3 L234.0,160.4 L233.6,167.5 L233.2,174.6 L232.8,181.8 L232.4,188.9 L232.0,196.0" fill="none" stroke="#2dd4bf" stroke-width="19" stroke-linecap="round" stroke-linejoin="round" opacity="0.95"/><path d="M240.0,118.0 L239.0,125.1 L238.0,132.1 L237.0,139.2 L236.0,146.3 L235.0,153.3 L234.0,160.4 L233.6,167.5 L233.2,174.6 L232.8,181.8 L232.4,188.9 L232.0,196.0" fill="none" stroke="#0c2020" stroke-width="11" stroke-linecap="round" stroke-linejoin="round" opacity="1.0"/><path d="M240.0,192.0 L238.9,201.1 L237.7,210.1 L236.6,219.2 L235.5,228.2 L234.3,237.3 L233.8,246.4 L233.4,255.5 L233.1,264.6 L232.7,273.8 L232.4,282.9 L232.0,292.0" fill="none" stroke="#8f2a3e" stroke-width="19" stroke-linecap="round" stroke-linejoin="round" opacity="0.95"/><path d="M240.0,192.0 L238.9,201.1 L237.7,210.1 L236.6,219.2 L235.5,228.2 L234.3,237.3 L233.8,246.4 L233.4,255.5 L233.1,264.6 L232.7,273.8 L232.4,282.9 L232.0,292.0" fill="none" stroke="#0c2020" stroke-width="11" stroke-linecap="round" stroke-linejoin="round" opacity="1.0"/><path d="M240.0,192.0 L241.5,201.0 L243.0,210.1 L244.5,219.1 L246.0,228.1 L247.5,237.2 L247.8,246.3 L247.4,255.4 L247.1,264.6 L246.7,273.7 L246.4,282.9 L246.0,292.0" fill="none" stroke="#f43f5e" stroke-width="19" stroke-linecap="round" stroke-linejoin="round" opacity="0.95"/><path d="M240.0,192.0 L241.5,201.0 L243.0,210.1 L244.5,219.1 L246.0,228.1 L247.5,237.2 L247.8,246.3 L247.4,255.4 L247.1,264.6 L246.7,273.7 L246.4,282.9 L246.0,292.0" fill="none" stroke="#0c2020" stroke-width="11" stroke-linecap="round" stroke-linejoin="round" opacity="1.0"/><path d="M240.0,118.0 L240.0,124.7 L240.0,131.5 L240.0,138.2 L240.0,144.9 L240.0,151.6 L240.0,158.4 L240.0,165.1 L240.0,171.8 L240.0,178.5 L240.0,185.3 L240.0,192.0" fill="none" stroke="#2dd4bf" stroke-width="23" stroke-linecap="round" stroke-linejoin="round" opacity="0.95"/><path d="M240.0,118.0 L240.0,124.7 L240.0,131.5 L240.0,138.2 L240.0,144.9 L240.0,151.6 L240.0,158.4 L240.0,165.1 L240.0,171.8 L240.0,178.5 L240.0,185.3 L240.0,192.0" fill="none" stroke="#0c2020" stroke-width="15" stroke-linecap="round" stroke-linejoin="round" opacity="1.0"/><circle cx="242.0" cy="90.0" r="19.0" fill="#2dd4bf" stroke="none" stroke-width="0" opacity="0.95"/><circle cx="242.0" cy="90.0" r="15.0" fill="#0c2020" stroke="none" stroke-width="6.3" opacity="1.0"/><path d="M240.0,73.0 L237.0,76.0 L234.0,79.0 L231.1,81.9 L228.1,84.9 L225.1,87.9 L222.1,90.9 L221.5,94.5 L222.4,98.6 L223.3,102.8 L224.1,106.9 L225.0,111.0" fill="none" stroke="#2dd4bf" stroke-width="5" stroke-linecap="round" stroke-linejoin="round" opacity="1.0"/><path d="M232.7,87.0 L234.4,87.0 L236.1,87.0 L237.8,87.0 L239.5,87.0 L241.2,87.0 L242.8,87.0 L244.5,87.0 L246.2,87.0 L247.9,87.0 L249.6,87.0 L251.3,87.0" fill="none" stroke="#a7f3ee" stroke-width="5" stroke-linecap="round" stroke-linejoin="round" opacity="1.0"/><path d="M226.0,198.0 L227.1,198.0 L228.2,198.0 L229.3,198.0 L230.4,198.0 L231.5,198.0 L232.5,198.0 L233.6,198.0 L234.7,198.0 L235.8,198.0 L236.9,198.0 L238.0,198.0" fill="none" stroke="#fbbf24" stroke-width="5" stroke-linecap="round" stroke-linejoin="round" opacity="1.0"/><circle cx="232.0" cy="211.0" r="11.0" fill="#fbbf24" stroke="none" stroke-width="6.3" opacity="1.0"/></g><g class="f9"><path d="M236.6,119.7 L235.9,126.9 L235.2,134.1 L234.4,141.2 L233.7,148.4 L233.0,155.5 L232.2,162.7 L232.1,169.9 L231.9,177.2 L231.8,184.4 L231.6,191.6 L231.5,198.8" fill="none" stroke="#2dd4bf" stroke-width="19" stroke-linecap="round" stroke-linejoin="round" opacity="0.95"/><path d="M236.6,119.7 L235.9,126.9 L235.2,134.1 L234.4,141.2 L233.7,148.4 L233.0,155.5 L232.2,162.7 L232.1,169.9 L231.9,177.2 L231.8,184.4 L231.6,191.6 L231.5,198.8" fill="none" stroke="#0c2020" stroke-width="11" stroke-linecap="round" stroke-linejoin="round" opacity="1.0"/><path d="M240.0,192.6 L238.9,201.6 L237.9,210.6 L236.8,219.6 L235.8,228.6 L234.7,237.6 L234.2,246.7 L233.8,255.7 L233.4,264.8 L233.0,273.9 L232.6,282.9 L232.3,292.0" fill="none" stroke="#8f2a3e" stroke-width="19" stroke-linecap="round" stroke-linejoin="round" opacity="0.95"/><path d="M240.0,192.6 L238.9,201.6 L237.9,210.6 L236.8,219.6 L235.8,228.6 L234.7,237.6 L234.2,246.7 L233.8,255.7 L233.4,264.8 L233.0,273.9 L232.6,282.9 L232.3,292.0" fill="none" stroke="#0c2020" stroke-width="11" stroke-linecap="round" stroke-linejoin="round" opacity="1.0"/><path d="M240.0,192.6 L241.5,201.5 L243.1,210.5 L244.6,219.5 L246.2,228.5 L247.7,237.4 L248.0,246.5 L247.6,255.6 L247.3,264.7 L246.9,273.8 L246.5,282.9 L246.2,292.0" fill="none" stroke="#f43f5e" stroke-width="19" stroke-linecap="round" stroke-linejoin="round" opacity="0.95"/><path d="M240.0,192.6 L241.5,201.5 L243.1,210.5 L244.6,219.5 L246.2,228.5 L247.7,237.4 L248.0,246.5 L247.6,255.6 L247.3,264.7 L246.9,273.8 L246.5,282.9 L246.2,292.0" fill="none" stroke="#0c2020" stroke-width="11" stroke-linecap="round" stroke-linejoin="round" opacity="1.0"/><path d="M236.6,119.7 L237.0,126.3 L237.3,133.0 L237.6,139.6 L237.9,146.2 L238.2,152.8 L238.5,159.4 L238.8,166.1 L239.1,172.7 L239.4,179.3 L239.7,185.9 L240.0,192.6" fill="none" stroke="#2dd4bf" stroke-width="23" stroke-linecap="round" stroke-linejoin="round" opacity="0.95"/><path d="M236.6,119.7 L237.0,126.3 L237.3,133.0 L237.6,139.6 L237.9,146.2 L238.2,152.8 L238.5,159.4 L238.8,166.1 L239.1,172.7 L239.4,179.3 L239.7,185.9 L240.0,192.6" fill="none" stroke="#0c2020" stroke-width="15" stroke-linecap="round" stroke-linejoin="round" opacity="1.0"/><circle cx="237.6" cy="92.6" r="19.0" fill="#2dd4bf" stroke="none" stroke-width="0" opacity="0.95"/><circle cx="237.6" cy="92.6" r="15.0" fill="#0c2020" stroke="none" stroke-width="6.3" opacity="1.0"/><path d="M235.6,75.6 L232.6,78.6 L229.7,81.5 L226.7,84.5 L223.7,87.5 L220.7,90.5 L217.8,93.4 L217.1,97.1 L218.0,101.2 L218.9,105.3 L219.8,109.5 L220.6,113.6" fill="none" stroke="#2dd4bf" stroke-width="5" stroke-linecap="round" stroke-linejoin="round" opacity="1.0"/><path d="M228.3,89.6 L230.0,89.6 L231.7,89.6 L233.4,89.6 L235.1,89.6 L236.8,89.6 L238.5,89.6 L240.2,89.6 L241.8,89.6 L243.5,89.6 L245.2,89.6 L246.9,89.6" fill="none" stroke="#a7f3ee" stroke-width="5" stroke-linecap="round" stroke-linejoin="round" opacity="1.0"/><path d="M225.5,200.8 L226.6,200.8 L227.7,200.8 L228.8,200.8 L229.8,200.8 L230.9,200.8 L232.0,200.8 L233.1,200.8 L234.2,200.8 L235.3,200.8 L236.4,200.8 L237.5,200.8" fill="none" stroke="#fbbf24" stroke-width="5" stroke-linecap="round" stroke-linejoin="round" opacity="1.0"/><circle cx="231.5" cy="213.8" r="11.0" fill="#fbbf24" stroke="none" stroke-width="6.3" opacity="1.0"/></g><g class="f10"><path d="M227.8,124.2 L227.8,131.7 L227.8,139.1 L227.7,146.6 L227.7,154.0 L227.7,161.4 L227.7,168.9 L228.2,176.4 L228.7,183.8 L229.1,191.3 L229.6,198.8 L230.1,206.3" fill="none" stroke="#2dd4bf" stroke-width="19" stroke-linecap="round" stroke-linejoin="round" opacity="0.95"/><path d="M227.8,124.2 L227.8,131.7 L227.8,139.1 L227.7,146.6 L227.7,154.0 L227.7,161.4 L227.7,168.9 L228.2,176.4 L228.7,183.8 L229.1,191.3 L229.6,198.8 L230.1,206.3" fill="none" stroke="#0c2020" stroke-width="11" stroke-linecap="round" stroke-linejoin="round" opacity="1.0"/><path d="M240.0,194.0 L239.2,202.9 L238.3,211.8 L237.5,220.7 L236.6,229.6 L235.8,238.4 L235.3,247.4 L234.8,256.3 L234.3,265.2 L233.9,274.1 L233.4,283.1 L232.9,292.0" fill="none" stroke="#8f2a3e" stroke-width="19" stroke-linecap="round" stroke-linejoin="round" opacity="0.95"/><path d="M240.0,194.0 L239.2,202.9 L238.3,211.8 L237.5,220.7 L236.6,229.6 L235.8,238.4 L235.3,247.4 L234.8,256.3 L234.3,265.2 L233.9,274.1 L233.4,283.1 L232.9,292.0" fill="none" stroke="#0c2020" stroke-width="11" stroke-linecap="round" stroke-linejoin="round" opacity="1.0"/><path d="M240.0,194.0 L241.7,202.9 L243.3,211.7 L245.0,220.5 L246.7,229.3 L248.3,238.2 L248.7,247.1 L248.3,256.1 L247.9,265.1 L247.4,274.0 L247.0,283.0 L246.6,292.0" fill="none" stroke="#f43f5e" stroke-width="19" stroke-linecap="round" stroke-linejoin="round" opacity="0.95"/><path d="M240.0,194.0 L241.7,202.9 L243.3,211.7 L245.0,220.5 L246.7,229.3 L248.3,238.2 L248.7,247.1 L248.3,256.1 L247.9,265.1 L247.4,274.0 L247.0,283.0 L246.6,292.0" fill="none" stroke="#0c2020" stroke-width="11" stroke-linecap="round" stroke-linejoin="round" opacity="1.0"/><path d="M227.8,124.2 L228.9,130.6 L230.0,136.9 L231.1,143.3 L232.2,149.6 L233.4,156.0 L234.5,162.3 L235.6,168.7 L236.7,175.0 L237.8,181.3 L238.9,187.7 L240.0,194.0" fill="none" stroke="#2dd4bf" stroke-width="23" stroke-linecap="round" stroke-linejoin="round" opacity="0.95"/><path d="M227.8,124.2 L228.9,130.6 L230.0,136.9 L231.1,143.3 L232.2,149.6 L233.4,156.0 L234.5,162.3 L235.6,168.7 L236.7,175.0 L237.8,181.3 L238.9,187.7 L240.0,194.0" fill="none" stroke="#0c2020" stroke-width="15" stroke-linecap="round" stroke-linejoin="round" opacity="1.0"/><circle cx="226.1" cy="99.4" r="19.0" fill="#2dd4bf" stroke="none" stroke-width="0" opacity="0.95"/><circle cx="226.1" cy="99.4" r="15.0" fill="#0c2020" stroke="none" stroke-width="6.3" opacity="1.0"/><path d="M224.1,82.4 L221.1,85.4 L218.1,88.3 L215.1,91.3 L212.2,94.3 L209.2,97.3 L206.2,100.2 L205.6,103.9 L206.5,108.0 L207.3,112.1 L208.2,116.3 L209.1,120.4" fill="none" stroke="#2dd4bf" stroke-width="5" stroke-linecap="round" stroke-linejoin="round" opacity="1.0"/><path d="M216.8,96.4 L218.5,96.4 L220.1,96.4 L221.8,96.4 L223.5,96.4 L225.2,96.4 L226.9,96.4 L228.6,96.4 L230.3,96.4 L232.0,96.4 L233.7,96.4 L235.4,96.4" fill="none" stroke="#a7f3ee" stroke-width="5" stroke-linecap="round" stroke-linejoin="round" opacity="1.0"/><path d="M224.1,208.3 L225.2,208.3 L226.3,208.3 L227.4,208.3 L228.5,208.3 L229.6,208.3 L230.7,208.3 L231.8,208.3 L232.9,208.3 L233.9,208.3 L235.0,208.3 L236.1,208.3" fill="none" stroke="#fbbf24" stroke-width="5" stroke-linecap="round" stroke-linejoin="round" opacity="1.0"/><circle cx="230.1" cy="221.3" r="11.0" fill="#fbbf24" stroke="none" stroke-width="6.3" opacity="1.0"/></g><g class="f11"><path d="M215.3,130.7 L216.3,138.5 L217.3,146.3 L218.3,154.1 L219.2,161.9 L220.2,169.8 L221.2,177.6 L222.6,185.4 L224.0,193.3 L225.4,201.2 L226.8,209.0 L228.2,216.9" fill="none" stroke="#2dd4bf" stroke-width="19" stroke-linecap="round" stroke-linejoin="round" opacity="0.95"/><path d="M215.3,130.7 L216.3,138.5 L217.3,146.3 L218.3,154.1 L219.2,161.9 L220.2,169.8 L221.2,177.6 L222.6,185.4 L224.0,193.3 L225.4,201.2 L226.8,209.0 L228.2,216.9" fill="none" stroke="#0c2020" stroke-width="11" stroke-linecap="round" stroke-linejoin="round" opacity="1.0"/><path d="M240.0,196.1 L239.5,204.8 L238.9,213.5 L238.4,222.2 L237.8,230.9 L237.3,239.6 L236.8,248.3 L236.2,257.1 L235.6,265.8 L235.1,274.5 L234.5,283.3 L233.9,292.0" fill="none" stroke="#8f2a3e" stroke-width="19" stroke-linecap="round" stroke-linejoin="round" opacity="0.95"/><path d="M240.0,196.1 L239.5,204.8 L238.9,213.5 L238.4,222.2 L237.8,230.9 L237.3,239.6 L236.8,248.3 L236.2,257.1 L235.6,265.8 L235.1,274.5 L234.5,283.3 L233.9,292.0" fill="none" stroke="#0c2020" stroke-width="11" stroke-linecap="round" stroke-linejoin="round" opacity="1.0"/><path d="M240.0,196.1 L241.8,204.7 L243.6,213.3 L245.5,222.0 L247.3,230.6 L249.1,239.2 L249.6,247.9 L249.2,256.7 L248.7,265.6 L248.2,274.4 L247.7,283.2 L247.3,292.0" fill="none" stroke="#f43f5e" stroke-width="19" stroke-linecap="round" stroke-linejoin="round" opacity="0.95"/><path d="M240.0,196.1 L241.8,204.7 L243.6,213.3 L245.5,222.0 L247.3,230.6 L249.1,239.2 L249.6,247.9 L249.2,256.7 L248.7,265.6 L248.2,274.4 L247.7,283.2 L247.3,292.0" fill="none" stroke="#0c2020" stroke-width="11" stroke-linecap="round" stroke-linejoin="round" opacity="1.0"/><path d="M215.3,130.7 L217.6,136.6 L219.8,142.6 L222.1,148.5 L224.3,154.5 L226.5,160.4 L228.8,166.4 L231.0,172.3 L233.3,178.3 L235.5,184.2 L237.8,190.2 L240.0,196.1" fill="none" stroke="#2dd4bf" stroke-width="23" stroke-linecap="round" stroke-linejoin="round" opacity="0.95"/><path d="M215.3,130.7 L217.6,136.6 L219.8,142.6 L222.1,148.5 L224.3,154.5 L226.5,160.4 L228.8,166.4 L231.0,172.3 L233.3,178.3 L235.5,184.2 L237.8,190.2 L240.0,196.1" fill="none" stroke="#0c2020" stroke-width="15" stroke-linecap="round" stroke-linejoin="round" opacity="1.0"/><circle cx="209.7" cy="109.0" r="19.0" fill="#2dd4bf" stroke="none" stroke-width="0" opacity="0.95"/><circle cx="209.7" cy="109.0" r="15.0" fill="#0c2020" stroke="none" stroke-width="6.3" opacity="1.0"/><path d="M207.7,92.0 L204.8,95.0 L201.8,97.9 L198.8,100.9 L195.8,103.9 L192.8,106.9 L189.9,109.8 L189.3,113.5 L190.1,117.6 L191.0,121.7 L191.9,125.9 L192.7,130.0" fill="none" stroke="#2dd4bf" stroke-width="5" stroke-linecap="round" stroke-linejoin="round" opacity="1.0"/><path d="M200.4,106.0 L202.1,106.0 L203.8,106.0 L205.5,106.0 L207.2,106.0 L208.9,106.0 L210.6,106.0 L212.3,106.0 L214.0,106.0 L215.6,106.0 L217.3,106.0 L219.0,106.0" fill="none" stroke="#a7f3ee" stroke-width="5" stroke-linecap="round" stroke-linejoin="round" opacity="1.0"/><path d="M222.2,218.9 L223.3,218.9 L224.4,218.9 L225.5,218.9 L226.6,218.9 L227.7,218.9 L228.7,218.9 L229.8,218.9 L230.9,218.9 L232.0,218.9 L233.1,218.9 L234.2,218.9" fill="none" stroke="#fbbf24" stroke-width="5" stroke-linecap="round" stroke-linejoin="round" opacity="1.0"/><circle cx="228.2" cy="231.9" r="11.0" fill="#fbbf24" stroke="none" stroke-width="6.3" opacity="1.0"/></g><g class="f12"><path d="M201.0,138.0 L203.1,146.3 L205.3,154.5 L207.4,162.8 L209.5,171.0 L211.7,179.3 L213.8,187.6 L216.2,195.8 L218.7,204.1 L221.1,212.4 L223.6,220.7 L226.0,229.0" fill="none" stroke="#2dd4bf" stroke-width="19" stroke-linecap="round" stroke-linejoin="round" opacity="0.95"/><path d="M201.0,138.0 L203.1,146.3 L205.3,154.5 L207.4,162.8 L209.5,171.0 L211.7,179.3 L213.8,187.6 L216.2,195.8 L218.7,204.1 L221.1,212.4 L223.6,220.7 L226.0,229.0" fill="none" stroke="#0c2020" stroke-width="11" stroke-linecap="round" stroke-linejoin="round" opacity="1.0"/><path d="M240.0,198.5 L239.8,207.0 L239.6,215.5 L239.4,224.0 L239.2,232.5 L239.0,241.0 L238.6,249.5 L237.9,258.0 L237.1,266.5 L236.4,275.0 L235.7,283.5 L235.0,292.0" fill="none" stroke="#8f2a3e" stroke-width="19" stroke-linecap="round" stroke-linejoin="round" opacity="0.95"/><path d="M240.0,198.5 L239.8,207.0 L239.6,215.5 L239.4,224.0 L239.2,232.5 L239.0,241.0 L238.6,249.5 L237.9,258.0 L237.1,266.5 L236.4,275.0 L235.7,283.5 L235.0,292.0" fill="none" stroke="#0c2020" stroke-width="11" stroke-linecap="round" stroke-linejoin="round" opacity="1.0"/><path d="M240.0,198.5 L242.0,206.9 L244.0,215.3 L246.0,223.6 L248.0,232.0 L250.1,240.4 L250.7,248.9 L250.2,257.5 L249.6,266.1 L249.1,274.8 L248.5,283.4 L248.0,292.0" fill="none" stroke="#f43f5e" stroke-width="19" stroke-linecap="round" stroke-linejoin="round" opacity="0.95"/><path d="M240.0,198.5 L242.0,206.9 L244.0,215.3 L246.0,223.6 L248.0,232.0 L250.1,240.4 L250.7,248.9 L250.2,257.5 L249.6,266.1 L249.1,274.8 L248.5,283.4 L248.0,292.0" fill="none" stroke="#0c2020" stroke-width="11" stroke-linecap="round" stroke-linejoin="round" opacity="1.0"/><path d="M201.0,138.0 L204.5,143.5 L208.1,149.0 L211.6,154.5 L215.2,160.0 L218.7,165.5 L222.3,171.0 L225.8,176.5 L229.4,182.0 L232.9,187.5 L236.5,193.0 L240.0,198.5" fill="none" stroke="#2dd4bf" stroke-width="23" stroke-linecap="round" stroke-linejoin="round" opacity="0.95"/><path d="M201.0,138.0 L204.5,143.5 L208.1,149.0 L211.6,154.5 L215.2,160.0 L218.7,165.5 L222.3,171.0 L225.8,176.5 L229.4,182.0 L232.9,187.5 L236.5,193.0 L240.0,198.5" fill="none" stroke="#0c2020" stroke-width="15" stroke-linecap="round" stroke-linejoin="round" opacity="1.0"/><circle cx="191.0" cy="120.0" r="19.0" fill="#2dd4bf" stroke="none" stroke-width="0" opacity="0.95"/><circle cx="191.0" cy="120.0" r="15.0" fill="#0c2020" stroke="none" stroke-width="6.3" opacity="1.0"/><path d="M189.0,103.0 L186.0,106.0 L183.0,109.0 L180.1,111.9 L177.1,114.9 L174.1,117.9 L171.1,120.9 L170.5,124.5 L171.4,128.6 L172.3,132.8 L173.1,136.9 L174.0,141.0" fill="none" stroke="#2dd4bf" stroke-width="5" stroke-linecap="round" stroke-linejoin="round" opacity="1.0"/><path d="M181.7,117.0 L183.4,117.0 L185.1,117.0 L186.8,117.0 L188.5,117.0 L190.2,117.0 L191.8,117.0 L193.5,117.0 L195.2,117.0 L196.9,117.0 L198.6,117.0 L200.3,117.0" fill="none" stroke="#a7f3ee" stroke-width="5" stroke-linecap="round" stroke-linejoin="round" opacity="1.0"/><path d="M220.0,231.0 L221.1,231.0 L222.2,231.0 L223.3,231.0 L224.4,231.0 L225.5,231.0 L226.5,231.0 L227.6,231.0 L228.7,231.0 L229.8,231.0 L230.9,231.0 L232.0,231.0" fill="none" stroke="#fbbf24" stroke-width="5" stroke-linecap="round" stroke-linejoin="round" opacity="1.0"/><circle cx="226.0" cy="244.0" r="11.0" fill="#fbbf24" stroke="none" stroke-width="6.3" opacity="1.0"/></g><g class="f13"><path d="M186.7,145.3 L190.0,154.0 L193.2,162.7 L196.5,171.4 L199.8,180.1 L203.1,188.8 L206.4,197.5 L209.9,206.2 L213.4,215.0 L216.8,223.7 L220.3,232.4 L223.8,241.1" fill="none" stroke="#2dd4bf" stroke-width="19" stroke-linecap="round" stroke-linejoin="round" opacity="0.95"/><path d="M186.7,145.3 L190.0,154.0 L193.2,162.7 L196.5,171.4 L199.8,180.1 L203.1,188.8 L206.4,197.5 L209.9,206.2 L213.4,215.0 L216.8,223.7 L220.3,232.4 L223.8,241.1" fill="none" stroke="#0c2020" stroke-width="11" stroke-linecap="round" stroke-linejoin="round" opacity="1.0"/><path d="M240.0,200.9 L240.1,209.2 L240.3,217.5 L240.4,225.7 L240.6,234.0 L240.7,242.3 L240.3,250.6 L239.5,258.9 L238.6,267.2 L237.8,275.4 L236.9,283.7 L236.1,292.0" fill="none" stroke="#8f2a3e" stroke-width="19" stroke-linecap="round" stroke-linejoin="round" opacity="0.95"/><path d="M240.0,200.9 L240.1,209.2 L240.3,217.5 L240.4,225.7 L240.6,234.0 L240.7,242.3 L240.3,250.6 L239.5,258.9 L238.6,267.2 L237.8,275.4 L236.9,283.7 L236.1,292.0" fill="none" stroke="#0c2020" stroke-width="11" stroke-linecap="round" stroke-linejoin="round" opacity="1.0"/><path d="M240.0,200.9 L242.2,209.0 L244.4,217.2 L246.6,225.3 L248.8,233.4 L251.0,241.6 L251.8,249.9 L251.2,258.3 L250.6,266.7 L250.0,275.1 L249.3,283.6 L248.7,292.0" fill="none" stroke="#f43f5e" stroke-width="19" stroke-linecap="round" stroke-linejoin="round" opacity="0.95"/><path d="M240.0,200.9 L242.2,209.0 L244.4,217.2 L246.6,225.3 L248.8,233.4 L251.0,241.6 L251.8,249.9 L251.2,258.3 L250.6,266.7 L250.0,275.1 L249.3,283.6 L248.7,292.0" fill="none" stroke="#0c2020" stroke-width="11" stroke-linecap="round" stroke-linejoin="round" opacity="1.0"/><path d="M186.7,145.3 L191.5,150.4 L196.4,155.4 L201.2,160.5 L206.1,165.5 L210.9,170.6 L215.8,175.6 L220.6,180.7 L225.5,185.7 L230.3,190.8 L235.2,195.8 L240.0,200.9" fill="none" stroke="#2dd4bf" stroke-width="23" stroke-linecap="round" stroke-linejoin="round" opacity="0.95"/><path d="M186.7,145.3 L191.5,150.4 L196.4,155.4 L201.2,160.5 L206.1,165.5 L210.9,170.6 L215.8,175.6 L220.6,180.7 L225.5,185.7 L230.3,190.8 L235.2,195.8 L240.0,200.9" fill="none" stroke="#0c2020" stroke-width="15" stroke-linecap="round" stroke-linejoin="round" opacity="1.0"/><circle cx="172.3" cy="131.0" r="19.0" fill="#2dd4bf" stroke="none" stroke-width="0" opacity="0.95"/><circle cx="172.3" cy="131.0" r="15.0" fill="#0c2020" stroke="none" stroke-width="6.3" opacity="1.0"/><path d="M170.3,114.0 L167.3,117.0 L164.3,120.0 L161.3,122.9 L158.4,125.9 L155.4,128.9 L152.4,131.9 L151.8,135.5 L152.7,139.7 L153.5,143.8 L154.4,147.9 L155.3,152.0" fill="none" stroke="#2dd4bf" stroke-width="5" stroke-linecap="round" stroke-linejoin="round" opacity="1.0"/><path d="M163.0,128.0 L164.7,128.0 L166.4,128.0 L168.0,128.0 L169.7,128.0 L171.4,128.0 L173.1,128.0 L174.8,128.0 L176.5,128.0 L178.2,128.0 L179.9,128.0 L181.6,128.0" fill="none" stroke="#a7f3ee" stroke-width="5" stroke-linecap="round" stroke-linejoin="round" opacity="1.0"/><path d="M217.8,243.1 L218.9,243.1 L220.0,243.1 L221.1,243.1 L222.2,243.1 L223.3,243.1 L224.3,243.1 L225.4,243.1 L226.5,243.1 L227.6,243.1 L228.7,243.1 L229.8,243.1" fill="none" stroke="#fbbf24" stroke-width="5" stroke-linecap="round" stroke-linejoin="round" opacity="1.0"/><circle cx="223.8" cy="256.1" r="11.0" fill="#fbbf24" stroke="none" stroke-width="6.3" opacity="1.0"/></g><g class="f14"><path d="M174.2,151.8 L178.5,160.8 L182.8,169.9 L187.1,179.0 L191.4,188.1 L195.6,197.2 L199.9,206.2 L204.3,215.3 L208.7,224.4 L213.1,233.5 L217.5,242.6 L221.9,251.7" fill="none" stroke="#2dd4bf" stroke-width="19" stroke-linecap="round" stroke-linejoin="round" opacity="0.95"/><path d="M174.2,151.8 L178.5,160.8 L182.8,169.9 L187.1,179.0 L191.4,188.1 L195.6,197.2 L199.9,206.2 L204.3,215.3 L208.7,224.4 L213.1,233.5 L217.5,242.6 L221.9,251.7" fill="none" stroke="#0c2020" stroke-width="11" stroke-linecap="round" stroke-linejoin="round" opacity="1.0"/><path d="M240.0,203.0 L240.4,211.1 L240.9,219.2 L241.3,227.3 L241.8,235.4 L242.2,243.5 L241.9,251.6 L240.9,259.7 L240.0,267.8 L239.0,275.8 L238.0,283.9 L237.1,292.0" fill="none" stroke="#8f2a3e" stroke-width="19" stroke-linecap="round" stroke-linejoin="round" opacity="0.95"/><path d="M240.0,203.0 L240.4,211.1 L240.9,219.2 L241.3,227.3 L241.8,235.4 L242.2,243.5 L241.9,251.6 L240.9,259.7 L240.0,267.8 L239.0,275.8 L238.0,283.9 L237.1,292.0" fill="none" stroke="#0c2020" stroke-width="11" stroke-linecap="round" stroke-linejoin="round" opacity="1.0"/><path d="M240.0,203.0 L242.4,210.9 L244.7,218.8 L247.1,226.8 L249.4,234.7 L251.8,242.6 L252.8,250.7 L252.1,259.0 L251.4,267.2 L250.7,275.5 L250.1,283.7 L249.4,292.0" fill="none" stroke="#f43f5e" stroke-width="19" stroke-linecap="round" stroke-linejoin="round" opacity="0.95"/><path d="M240.0,203.0 L242.4,210.9 L244.7,218.8 L247.1,226.8 L249.4,234.7 L251.8,242.6 L252.8,250.7 L252.1,259.0 L251.4,267.2 L250.7,275.5 L250.1,283.7 L249.4,292.0" fill="none" stroke="#0c2020" stroke-width="11" stroke-linecap="round" stroke-linejoin="round" opacity="1.0"/><path d="M174.2,151.8 L180.2,156.4 L186.2,161.1 L192.1,165.7 L198.1,170.4 L204.1,175.0 L210.1,179.7 L216.1,184.3 L222.1,189.0 L228.0,193.7 L234.0,198.3 L240.0,203.0" fill="none" stroke="#2dd4bf" stroke-width="23" stroke-linecap="round" stroke-linejoin="round" opacity="0.95"/><path d="M174.2,151.8 L180.2,156.4 L186.2,161.1 L192.1,165.7 L198.1,170.4 L204.1,175.0 L210.1,179.7 L216.1,184.3 L222.1,189.0 L228.0,193.7 L234.0,198.3 L240.0,203.0" fill="none" stroke="#0c2020" stroke-width="15" stroke-linecap="round" stroke-linejoin="round" opacity="1.0"/><circle cx="155.9" cy="140.6" r="19.0" fill="#2dd4bf" stroke="none" stroke-width="0" opacity="0.95"/><circle cx="155.9" cy="140.6" r="15.0" fill="#0c2020" stroke="none" stroke-width="6.3" opacity="1.0"/><path d="M153.9,123.6 L151.0,126.6 L148.0,129.6 L145.0,132.6 L142.0,135.5 L139.1,138.5 L136.1,141.5 L135.5,145.2 L136.3,149.3 L137.2,153.4 L138.1,157.5 L138.9,161.6" fill="none" stroke="#2dd4bf" stroke-width="5" stroke-linecap="round" stroke-linejoin="round" opacity="1.0"/><path d="M146.6,137.6 L148.3,137.6 L150.0,137.6 L151.7,137.6 L153.4,137.6 L155.1,137.6 L156.8,137.6 L158.5,137.6 L160.2,137.6 L161.9,137.6 L163.5,137.6 L165.2,137.6" fill="none" stroke="#a7f3ee" stroke-width="5" stroke-linecap="round" stroke-linejoin="round" opacity="1.0"/><path d="M215.9,253.7 L217.0,253.7 L218.1,253.7 L219.1,253.7 L220.2,253.7 L221.3,253.7 L222.4,253.7 L223.5,253.7 L224.6,253.7 L225.7,253.7 L226.8,253.7 L227.9,253.7" fill="none" stroke="#fbbf24" stroke-width="5" stroke-linecap="round" stroke-linejoin="round" opacity="1.0"/><circle cx="221.9" cy="266.7" r="11.0" fill="#fbbf24" stroke="none" stroke-width="6.3" opacity="1.0"/></g><g class="f15"><path d="M165.4,156.3 L170.4,165.6 L175.4,175.0 L180.4,184.3 L185.4,193.7 L190.4,203.0 L195.4,212.4 L200.4,221.7 L205.4,231.1 L210.5,240.5 L215.5,249.8 L220.5,259.2" fill="none" stroke="#2dd4bf" stroke-width="19" stroke-linecap="round" stroke-linejoin="round" opacity="0.95"/><path d="M165.4,156.3 L170.4,165.6 L175.4,175.0 L180.4,184.3 L185.4,193.7 L190.4,203.0 L195.4,212.4 L200.4,221.7 L205.4,231.1 L210.5,240.5 L215.5,249.8 L220.5,259.2" fill="none" stroke="#0c2020" stroke-width="11" stroke-linecap="round" stroke-linejoin="round" opacity="1.0"/><path d="M240.0,204.4 L240.7,212.4 L241.3,220.4 L242.0,228.4 L242.6,236.4 L243.3,244.3 L243.0,252.3 L241.9,260.2 L240.9,268.2 L239.8,276.1 L238.8,284.1 L237.7,292.0" fill="none" stroke="#8f2a3e" stroke-width="19" stroke-linecap="round" stroke-linejoin="round" opacity="0.95"/><path d="M240.0,204.4 L240.7,212.4 L241.3,220.4 L242.0,228.4 L242.6,236.4 L243.3,244.3 L243.0,252.3 L241.9,260.2 L240.9,268.2 L239.8,276.1 L238.8,284.1 L237.7,292.0" fill="none" stroke="#0c2020" stroke-width="11" stroke-linecap="round" stroke-linejoin="round" opacity="1.0"/><path d="M240.0,204.4 L242.5,212.2 L244.9,220.0 L247.4,227.8 L249.9,235.6 L252.4,243.4 L253.4,251.3 L252.7,259.4 L252.0,267.6 L251.3,275.7 L250.5,283.9 L249.8,292.0" fill="none" stroke="#f43f5e" stroke-width="19" stroke-linecap="round" stroke-linejoin="round" opacity="0.95"/><path d="M240.0,204.4 L242.5,212.2 L244.9,220.0 L247.4,227.8 L249.9,235.6 L252.4,243.4 L253.4,251.3 L252.7,259.4 L252.0,267.6 L251.3,275.7 L250.5,283.9 L249.8,292.0" fill="none" stroke="#0c2020" stroke-width="11" stroke-linecap="round" stroke-linejoin="round" opacity="1.0"/><path d="M165.4,156.3 L172.1,160.7 L178.9,165.0 L185.7,169.4 L192.5,173.8 L199.3,178.2 L206.1,182.6 L212.9,186.9 L219.6,191.3 L226.4,195.7 L233.2,200.1 L240.0,204.4" fill="none" stroke="#2dd4bf" stroke-width="23" stroke-linecap="round" stroke-linejoin="round" opacity="0.95"/><path d="M165.4,156.3 L172.1,160.7 L178.9,165.0 L185.7,169.4 L192.5,173.8 L199.3,178.2 L206.1,182.6 L212.9,186.9 L219.6,191.3 L226.4,195.7 L233.2,200.1 L240.0,204.4" fill="none" stroke="#0c2020" stroke-width="15" stroke-linecap="round" stroke-linejoin="round" opacity="1.0"/><circle cx="144.4" cy="147.4" r="19.0" fill="#2dd4bf" stroke="none" stroke-width="0" opacity="0.95"/><circle cx="144.4" cy="147.4" r="15.0" fill="#0c2020" stroke="none" stroke-width="6.3" opacity="1.0"/><path d="M142.4,130.4 L139.4,133.4 L136.4,136.4 L133.5,139.3 L130.5,142.3 L127.5,145.3 L124.5,148.3 L123.9,152.0 L124.8,156.1 L125.6,160.2 L126.5,164.3 L127.4,168.4" fill="none" stroke="#2dd4bf" stroke-width="5" stroke-linecap="round" stroke-linejoin="round" opacity="1.0"/><path d="M135.1,144.4 L136.8,144.4 L138.5,144.4 L140.2,144.4 L141.8,144.4 L143.5,144.4 L145.2,144.4 L146.9,144.4 L148.6,144.4 L150.3,144.4 L152.0,144.4 L153.7,144.4" fill="none" stroke="#a7f3ee" stroke-width="5" stroke-linecap="round" stroke-linejoin="round" opacity="1.0"/><path d="M214.5,261.2 L215.6,261.2 L216.7,261.2 L217.8,261.2 L218.9,261.2 L220.0,261.2 L221.1,261.2 L222.2,261.2 L223.2,261.2 L224.3,261.2 L225.4,261.2 L226.5,261.2" fill="none" stroke="#fbbf24" stroke-width="5" stroke-linecap="round" stroke-linejoin="round" opacity="1.0"/><circle cx="220.5" cy="274.2" r="11.0" fill="#fbbf24" stroke="none" stroke-width="6.3" opacity="1.0"/></g></svg>
