<svg xmlns="http://www.w3.org/2000/svg" viewBox="0 0 448.5 299"><style>g{transform-box:view-box;transform-origin:0 0}@keyframes m0{0%,90%,100%{transform:translate(240px,292px) scale(1,1);opacity:0.9}40%,50%{transform:translate(240px,292px) scale(0.95,1);opacity:0.9}}.m0{animation:m0 2.4s cubic-bezier(.45,0,.55,1) infinite}@keyframes m1{0%,90%,100%{transform:translate(0px,0px) rotate(53.13deg);}40%,50%{transform:translate(0px,0px) rotate(-47.12deg);}}.m1{animation:m1 2.4s cubic-bezier(.45,0,.55,1) infinite}@keyframes m2{0%,90%,100%{transform:scale(1.13,1);}40%,50%{transform:scale(0.87,1);}}.m2{animation:m2 2.4s cubic-bezier(.45,0,.55,1) infinite}@keyframes m3{0%,90%,100%{transform:translate(50px,0px) rotate(-161.57deg);}40%,50%{transform:translate(38.21px,0px) rotate(-56.92deg);}}.m3{animation:m3 2.4s cubic-bezier(.45,0,.55,1) infinite}@keyframes m4{0%,90%,100%{transform:scale(0.76,1);}40%,50%{transform:scale(1.24,1);}}.m4{animation:m4 2.4s cubic-bezier(.45,0,.55,1) infinite}@keyframes m5{0%,90%,100%{transform:translate(25.3px,0px) rotate(108.43deg);}40%,50%{transform:translate(41.23px,0px) rotate(104.04deg);}}.m5{animation:m5 2.4s cubic-bezier(.45,0,.55,1) infinite}@media (prefers-reduced-motion:reduce){*{animation-play-state:paused!important}}</style><defs><linearGradient id="tn" x1="0" y1="0" x2="0" y2="1"><stop offset="0" stop-color="#061414"/><stop offset=".45" stop-color="#1f4a47"/><stop offset="1" stop-color="#061414"/></linearGradient><linearGradient id="tf" x1="0" y1="0" x2="0" y2="1"><stop offset="0" stop-color="#040c0c"/><stop offset=".45" stop-color="#102828"/><stop offset="1" stop-color="#040c0c"/></linearGradient><radialGradient id="hd" cx=".35" cy=".3" r=".75"><stop offset="0" stop-color="#2a5a57"/><stop offset=".55" stop-color="#0c2020"/><stop offset="1" stop-color="#050e0e"/></radialGradient><radialGradient id="sh"><stop offset="0" stop-color="#000" stop-opacity=".9"/><stop offset="1" stop-color="#000" stop-opacity="0"/></radialGradient><linearGradient id="fl" x1="0" y1="0" x2="0" y2="1"><stop offset="0" stop-color="#16302f"/><stop offset="1" stop-color="#16302f" stop-opacity="0"/></linearGradient></defs><g transform="translate(-28.27,-18.5)"><rect x="28.27" y="292" width="448.5" height="25.5" fill="url(#fl)"/><path d="M28.27,292 H476.77" fill="none" stroke="#26403f" stroke-width="3" stroke-linecap="round" stroke-linejoin="round"/><g class="m0"><ellipse rx="43" ry="8" fill="url(#sh)"/></g><g transform="translate(240,190)"><g transform="translate(0,0) rotate(102.8)"><circle r="8.5" fill="#0b6f66"/><path d="M0,0 H45.12" fill="none" stroke="#0b6f66" stroke-width="17" stroke-linecap="butt" stroke-linejoin="round"/><g transform="translate(45.12,0) rotate(-10.83)"><circle r="8.5" fill="#0b6f66"/><path d="M0,0 H58.03" fill="none" stroke="#0b6f66" stroke-width="17" stroke-linecap="butt" stroke-linejoin="round"/><g transform="translate(58.03,0) rotate(-91.97)"><circle r="8.5" fill="#0b6f66"/></g></g></g></g><g transform="translate(240,190)"><g transform="translate(0,0) rotate(102.8)"><circle r="4.5" fill="#071313"/><rect y="-4.5" width="45.12" height="9" fill="url(#tf)"/><g transform="translate(45.12,0) rotate(-10.83)"><circle r="4.5" fill="#071313"/><rect y="-4.5" width="58.03" height="9" fill="url(#tf)"/><g transform="translate(58.03,0) rotate(-91.97)"><circle r="4.5" fill="#071313"/></g></g></g></g><g transform="translate(240,190) rotate(-90)"><g transform="translate(78,0) rotate(90)"><g transform="translate(0,0) rotate(116.57)"><circle r="8.5" fill="#7a2436"/><path d="M0,0 H44.72" fill="none" stroke="#7a2436" stroke-width="17" stroke-linecap="butt" stroke-linejoin="round"/><g transform="translate(44.72,0) rotate(-33.27)"><circle r="8.5" fill="#7a2436"/><path d="M0,0 H34.23" fill="none" stroke="#7a2436" stroke-width="17" stroke-linecap="butt" stroke-linejoin="round"/><g transform="translate(34.23,0) rotate(-83.29)"><circle r="8.5" fill="#7a2436"/></g></g></g></g></g><g transform="translate(240,190) rotate(-90)"><g transform="translate(78,0) rotate(90)"><g transform="translate(0,0) rotate(116.57)"><circle r="4.5" fill="#071313"/><rect y="-4.5" width="44.72" height="9" fill="url(#tf)"/><g transform="translate(44.72,0) rotate(-33.27)"><circle r="4.5" fill="#071313"/><rect y="-4.5" width="34.23" height="9" fill="url(#tf)"/><g transform="translate(34.23,0) rotate(-83.29)"><circle r="4.5" fill="#071313"/></g></g></g></g></g><g transform="translate(240,190) rotate(-90)"><circle r="11.5" fill="#2dd4bf"/><path d="M0,0 H78" fill="none" stroke="#2dd4bf" stroke-width="23" stroke-linecap="butt" stroke-linejoin="round"/><g transform="translate(78,0) rotate(90)"><circle r="11.5" fill="#2dd4bf"/></g></g><g transform="translate(240,190) rotate(-90)"><circle r="7.5" fill="#0b1f1f"/><rect y="-7.5" width="78" height="15" fill="url(#tn)"/><g transform="translate(78,0) rotate(90)"><circle r="7.5" fill="#0b1f1f"/></g></g><g transform="translate(240,190) rotate(-90)"><g transform="translate(78,0) rotate(90)"><g transform="translate(0,0) rotate(-90)"><g transform="translate(28,0) rotate(90)"><path d="M-2,-17 L-21,2 L-17,21" fill="none" stroke="#2dd4bf" stroke-width="5" stroke-linecap="round" stroke-linejoin="round"/><circle r="19" fill="#2dd4bf" opacity="0.95"/><circle r="15" fill="url(#hd)"/><path d="M-9.3,-3 H9.3" fill="none" stroke="#a7f3ee" stroke-width="5" stroke-linecap="round" stroke-linejoin="round"/></g></g></g></g><g transform="translate(240,190)"><g transform="translate(0,0) rotate(77.2)"><circle r="9.5" fill="#2dd4bf"/><path d="M0,0 H45.12" fill="none" stroke="#2dd4bf" stroke-width="19" stroke-linecap="butt" stroke-linejoin="round"/><g transform="translate(45.12,0) rotate(10.83)"><circle r="9.5" fill="#2dd4bf"/><path d="M0,0 H58.03" fill="none" stroke="#2dd4bf" stroke-width="19" stroke-linecap="butt" stroke-linejoin="round"/><g transform="translate(58.03,0) rotate(-88.03)"><circle r="9.5" fill="#2dd4bf"/></g></g></g></g><g transform="translate(240,190)"><g transform="translate(0,0) rotate(77.2)"><circle r="5.5" fill="#0b1f1f"/><rect y="-5.5" width="45.12" height="11" fill="url(#tn)"/><g transform="translate(45.12,0) rotate(10.83)"><circle r="5.5" fill="#0b1f1f"/><rect y="-5.5" width="58.03" height="11" fill="url(#tn)"/><g transform="translate(58.03,0) rotate(-88.03)"><circle r="5.5" fill="#0b1f1f"/></g></g></g></g><g transform="translate(240,190) rotate(-90)"><g transform="translate(78,0) rotate(90)"><g class="m1"><circle r="9.5" fill="#f43f5e"/><g class="m2"><path d="M0,0 H44.1" fill="none" stroke="#f43f5e" stroke-width="19" stroke-linecap="butt" stroke-linejoin="round"/></g><g class="m3"><circle r="9.5" fill="#f43f5e"/><g class="m4"><path d="M0,0 H33.26" fill="none" stroke="#f43f5e" stroke-width="19" stroke-linecap="butt" stroke-linejoin="round"/></g><g class="m5"><circle r="9.5" fill="#f43f5e"/></g></g></g></g></g><g transform="translate(240,190) rotate(-90)"><g transform="translate(78,0) rotate(90)"><g class="m1"><circle r="5.5" fill="#0b1f1f"/><g class="m2"><rect y="-5.5" width="44.1" height="11" fill="url(#tn)"/></g><g class="m3"><circle r="5.5" fill="#0b1f1f"/><g class="m4"><rect y="-5.5" width="33.26" height="11" fill="url(#tn)"/></g><g class="m5"><circle r="5.5" fill="#0b1f1f"/><g transform="translate(0,2) rotate(0) scale(1,1)"><path d="M-6,0 L6,0" fill="none" stroke="#fbbf24" stroke-width="5" stroke-linecap="round" stroke-linejoin="round"/></g><g transform="translate(0,14) rotate(0) scale(1,1)"><circle cx="0" cy="0" r="10" fill="#fbbf24" stroke="none" stroke-width="6.3"/></g></g></g></g></g></g></g></svg>
