<svg xmlns="http://www.w3.org/2000/svg" viewBox="0 0 480 320"><style>@keyframes k0{0%{opacity:1}11.111%{opacity:0}100%{opacity:0}}.f0{opacity:0;animation:k0 2.4s steps(1,end) infinite}@keyframes k1{0%{opacity:0}11.111%{opacity:1}16.667%{opacity:0}100%{opacity:0}}.f1{opacity:0;animation:k1 2.4s steps(1,end) infinite}@keyframes k2{0%{opacity:0}16.667%{opacity:1}22.222%{opacity:0}100%{opacity:0}}.f2{opacity:0;animation:k2 2.4s steps(1,end) infinite}@keyframes k3{0%{opacity:0}22.222%{opacity:1}27.778%{opacity:0}100%{opacity:0}}.f3{opacity:0;animation:k3 2.4s steps(1,end) infinite}@keyframes k4{0%{opacity:0}27.778%{opacity:1}33.333%{opacity:0}100%{opacity:0}}.f4{opacity:0;animation:k4 2.4s steps(1,end) infinite}@keyframes k5{0%{opacity:0}33.333%{opacity:1}38.889%{opacity:0}100%{opacity:0}}.f5{opacity:0;animation:k5 2.4s steps(1,end) infinite}@keyframes k6{0%{opacity:0}38.889%{opacity:1}44.444%{opacity:0}100%{opacity:0}}.f6{opacity:0;animation:k6 2.4s steps(1,end) infinite}@keyframes k7{0%{opacity:0}44.444%{opacity:1}50.000%{opacity:0}100%{opacity:0}}.f7{opacity:0;animation:k7 2.4s steps(1,end) infinite}@keyframes k8{0%{opacity:0}50.000%{opacity:1}61.111%{opacity:0}100%{opacity:0}}.f8{opacity:0;animation:k8 2.4s steps(1,end) infinite}@keyframes k9{0%{opacity:0}61.111%{opacity:1}66.667%{opacity:0}100%{opacity:0}}.f9{opacity:0;animation:k9 2.4s steps(1,end) infinite}@keyframes k10{0%{opacity:0}66.667%{opacity:1}72.222%{opacity:0}100%{opacity:0}}.f10{opacity:0;animation:k10 2.4s steps(1,end) infinite}@keyframes k11{0%{opacity:0}72.222%{opacity:1}77.778%{opacity:0}100%{opacity:0}}.f11{opacity:0;animation:k11 2.4s steps(1,end) infinite}@keyframes k12{0%{opacity:0}77.778%{opacity:1}83.333%{opacity:0}100%{opacity:0}}.f12{opacity:0;animation:k12 2.4s steps(1,end) infinite}@keyframes k13{0%{opacity:0}83.333%{opacity:1}88.889%{opacity:0}100%{opacity:0}}.f13{opacity:0;animation:k13 2.4s steps(1,end) infinite}@keyframes k14{0%{opacity:0}88.889%{opacity:1}94.444%{opacity:0}100%{opacity:0}}.f14{opacity:0;animation:k14 2.4s steps(1,end) infinite}@keyframes k15{0%{opacity:0}94.444%{opacity:1}100%{opacity:1}}.f15{opacity:0;animation:k15 2.4s steps(1,end) infinite}</style><path d="M40.0,292.0 L440.0,292.0" fill="none" stroke="#1f3333" stroke-width="6" stroke-linecap="round" stroke-linejoin="round" opacity="1.0"/><path d="M240.0,118.0 L264.0,148.0 L254.0,128.0" fill="none" stroke="#f43f5e" stroke-width="21" stroke-linecap="round" stroke-linejoin="round" opacity="0.95"/><path d="M240.0,118.0 L264.0,148.0 L254.0,128.0" fill="none" stroke="#0c2020" stroke-width="13" stroke-linecap="round" stroke-linejoin="round" opacity="1.0"/><path d="M240.0,192.0 L234.0,240.0 L232.0,292.0" fill="none" stroke="#0d9488" stroke-width="21" stroke-linecap="round" stroke-linejoin="round" opacity="0.95"/><path d="M240.0,192.0 L234.0,240.0 L232.0,292.0" fill="none" stroke="#0c2020" stroke-width="13" stroke-linecap="round" stroke-linejoin="round" opacity="1.0"/><path d="M240.0,192.0 L248.0,240.0 L246.0,292.0" fill="none" stroke="#2dd4bf" stroke-width="21" stroke-linecap="round" stroke-linejoin="round" opacity="0.95"/><path d="M240.0,192.0 L248.0,240.0 L246.0,292.0" fill="none" stroke="#0c2020" stroke-width="13" stroke-linecap="round" stroke-linejoin="round" opacity="1.0"/><path d="M240.0,118.0 L240.0,192.0" fill="none" stroke="#2dd4bf" stroke-width="25" stroke-linecap="round" stroke-linejoin="round" opacity="0.95"/><path d="M240.0,118.0 L240.0,192.0" fill="none" stroke="#0c2020" stroke-width="17" stroke-linecap="round" stroke-linejoin="round" opacity="1.0"/><path d="M248.0,130.0 L260.0,130.0" fill="none" stroke="#fbbf24" stroke-width="5" stroke-linecap="round" stroke-linejoin="round" opacity="1.0"/><circle cx="254.0" cy="141.0" r="9.0" fill="#fbbf24" stroke="none" stroke-width="6.3" opacity="1.0"/><g class="f0"><circle cx="242.0" cy="90.0" r="19.0" fill="#2dd4bf" stroke="none" stroke-width="0" opacity="0.95"/><circle cx="242.0" cy="90.0" r="15.0" fill="#0c2020" stroke="none" stroke-width="6.3" opacity="1.0"/><path d="M232.7,87.0 L234.4,87.0 L236.1,87.0 L237.8,87.0 L239.5,87.0 L241.2,87.0 L242.8,87.0 L244.5,87.0 L246.2,87.0 L247.9,87.0 L249.6,87.0 L251.3,87.0" fill="none" stroke="#a7f3ee" stroke-width="5" stroke-linecap="round" stroke-linejoin="round" opacity="1.0"/></g><g class="f1"><circle cx="242.1" cy="90.0" r="19.0" fill="#2dd4bf" stroke="none" stroke-width="0" opacity="0.95"/><circle cx="242.1" cy="90.0" r="15.0" fill="#0c2020" stroke="none" stroke-width="6.3" opacity="1.0"/><path d="M232.8,87.0 L234.5,87.0 L236.2,87.0 L237.9,87.0 L239.5,87.0 L241.2,87.0 L242.9,87.0 L244.6,87.0 L246.3,87.0 L248.0,87.0 L249.7,87.0 L251.4,87.0" fill="none" stroke="#a7f3ee" stroke-width="5" stroke-linecap="round" stroke-linejoin="round" opacity="1.0"/></g><g class="f2"><circle cx="242.3" cy="90.0" r="19.0" fill="#2dd4bf" stroke="none" stroke-width="0" opacity="0.95"/><circle cx="242.3" cy="90.0" r="15.0" fill="#0c2020" stroke="none" stroke-width="6.3" opacity="1.0"/><path d="M233.0,87.0 L234.7,87.0 L236.4,87.0 L238.1,87.0 L239.8,87.0 L241.5,87.0 L243.2,87.0 L244.8,87.0 L246.5,87.0 L248.2,87.0 L249.9,87.0 L251.6,87.0" fill="none" stroke="#a7f3ee" stroke-width="5" stroke-linecap="round" stroke-linejoin="round" opacity="1.0"/></g><g class="f3"><circle cx="242.6" cy="90.0" r="19.0" fill="#2dd4bf" stroke="none" stroke-width="0" opacity="0.95"/><circle cx="242.6" cy="90.0" r="15.0" fill="#0c2020" stroke="none" stroke-width="6.3" opacity="1.0"/><path d="M233.3,87.0 L235.0,87.0 L236.7,87.0 L238.4,87.0 L240.1,87.0 L241.8,87.0 L243.5,87.0 L245.2,87.0 L246.9,87.0 L248.6,87.0 L250.2,87.0 L251.9,87.0" fill="none" stroke="#a7f3ee" stroke-width="5" stroke-linecap="round" stroke-linejoin="round" opacity="1.0"/></g><g class="f4"><circle cx="243.0" cy="90.0" r="19.0" fill="#2dd4bf" stroke="none" stroke-width="0" opacity="0.95"/><circle cx="243.0" cy="90.0" r="15.0" fill="#0c2020" stroke="none" stroke-width="6.3" opacity="1.0"/><path d="M233.7,87.0 L235.4,87.0 L237.1,87.0 L238.8,87.0 L240.5,87.0 L242.2,87.0 L243.8,87.0 L245.5,87.0 L247.2,87.0 L248.9,87.0 L250.6,87.0 L252.3,87.0" fill="none" stroke="#a7f3ee" stroke-width="5" stroke-linecap="round" stroke-linejoin="round" opacity="1.0"/></g><g class="f5"><circle cx="243.4" cy="90.0" r="19.0" fill="#2dd4bf" stroke="none" stroke-width="0" opacity="0.95"/><circle cx="243.4" cy="90.0" r="15.0" fill="#0c2020" stroke="none" stroke-width="6.3" opacity="1.0"/><path d="M234.1,87.0 L235.8,87.0 L237.4,87.0 L239.1,87.0 L240.8,87.0 L242.5,87.0 L244.2,87.0 L245.9,87.0 L247.6,87.0 L249.3,87.0 L251.0,87.0 L252.7,87.0" fill="none" stroke="#a7f3ee" stroke-width="5" stroke-linecap="round" stroke-linejoin="round" opacity="1.0"/></g><g class="f6"><circle cx="243.7" cy="90.0" r="19.0" fill="#2dd4bf" stroke="none" stroke-width="0" opacity="0.95"/><circle cx="243.7" cy="90.0" r="15.0" fill="#0c2020" stroke="none" stroke-width="6.3" opacity="1.0"/><path d="M234.4,87.0 L236.1,87.0 L237.8,87.0 L239.5,87.0 L241.2,87.0 L242.8,87.0 L244.5,87.0 L246.2,87.0 L247.9,87.0 L249.6,87.0 L251.3,87.0 L253.0,87.0" fill="none" stroke="#a7f3ee" stroke-width="5" stroke-linecap="round" stroke-linejoin="round" opacity="1.0"/></g><g class="f7"><circle cx="243.9" cy="90.0" r="19.0" fill="#2dd4bf" stroke="none" stroke-width="0" opacity="0.95"/><circle cx="243.9" cy="90.0" r="15.0" fill="#0c2020" stroke="none" stroke-width="6.3" opacity="1.0"/><path d="M234.6,87.0 L236.3,87.0 L238.0,87.0 L239.7,87.0 L241.4,87.0 L243.1,87.0 L244.8,87.0 L246.5,87.0 L248.1,87.0 L249.8,87.0 L251.5,87.0 L253.2,87.0" fill="none" stroke="#a7f3ee" stroke-width="5" stroke-linecap="round" stroke-linejoin="round" opacity="1.0"/></g><g class="f8"><circle cx="244.0" cy="90.0" r="19.0" fill="#2dd4bf" stroke="none" stroke-width="0" opacity="0.95"/><circle cx="244.0" cy="90.0" r="15.0" fill="#0c2020" stroke="none" stroke-width="6.3" opacity="1.0"/><path d="M234.7,87.0 L236.4,87.0 L238.1,87.0 L239.8,87.0 L241.5,87.0 L243.2,87.0 L244.8,87.0 L246.5,87.0 L248.2,87.0 L249.9,87.0 L251.6,87.0 L253.3,87.0" fill="none" stroke="#a7f3ee" stroke-width="5" stroke-linecap="round" stroke-linejoin="round" opacity="1.0"/></g><g class="f9"><circle cx="243.9" cy="90.0" r="19.0" fill="#2dd4bf" stroke="none" stroke-width="0" opacity="0.95"/><circle cx="243.9" cy="90.0" r="15.0" fill="#0c2020" stroke="none" stroke-width="6.3" opacity="1.0"/><path d="M234.6,87.0 L236.3,87.0 L238.0,87.0 L239.7,87.0 L241.4,87.0 L243.1,87.0 L244.8,87.0 L246.5,87.0 L248.1,87.0 L249.8,87.0 L251.5,87.0 L253.2,87.0" fill="none" stroke="#a7f3ee" stroke-width="5" stroke-linecap="round" stroke-linejoin="round" opacity="1.0"/></g><g class="f10"><circle cx="243.7" cy="90.0" r="19.0" fill="#2dd4bf" stroke="none" stroke-width="0" opacity="0.95"/><circle cx="243.7" cy="90.0" r="15.0" fill="#0c2020" stroke="none" stroke-width="6.3" opacity="1.0"/><path d="M234.4,87.0 L236.1,87.0 L237.8,87.0 L239.5,87.0 L241.2,87.0 L242.8,87.0 L244.5,87.0 L246.2,87.0 L247.9,87.0 L249.6,87.0 L251.3,87.0 L253.0,87.0" fill="none" stroke="#a7f3ee" stroke-width="5" stroke-linecap="round" stroke-linejoin="round" opacity="1.0"/></g><g class="f11"><circle cx="243.4" cy="90.0" r="19.0" fill="#2dd4bf" stroke="none" stroke-width="0" opacity="0.95"/><circle cx="243.4" cy="90.0" r="15.0" fill="#0c2020" stroke="none" stroke-width="6.3" opacity="1.0"/><path d="M234.1,87.0 L235.8,87.0 L237.4,87.0 L239.1,87.0 L240.8,87.0 L242.5,87.0 L244.2,87.0 L245.9,87.0 L247.6,87.0 L249.3,87.0 L251.0,87.0 L252.7,87.0" fill="none" stroke="#a7f3ee" stroke-width="5" stroke-linecap="round" stroke-linejoin="round" opacity="1.0"/></g><g class="f12"><circle cx="243.0" cy="90.0" r="19.0" fill="#2dd4bf" stroke="none" stroke-width="0" opacity="0.95"/><circle cx="243.0" cy="90.0" r="15.0" fill="#0c2020" stroke="none" stroke-width="6.3" opacity="1.0"/><path d="M233.7,87.0 L235.4,87.0 L237.1,87.0 L238.8,87.0 L240.5,87.0 L242.2,87.0 L243.8,87.0 L245.5,87.0 L247.2,87.0 L248.9,87.0 L250.6,87.0 L252.3,87.0" fill="none" stroke="#a7f3ee" stroke-width="5" stroke-linecap="round" stroke-linejoin="round" opacity="1.0"/></g><g class="f13"><circle cx="242.6" cy="90.0" r="19.0" fill="#2dd4bf" stroke="none" stroke-width="0" opacity="0.95"/><circle cx="242.6" cy="90.0" r="15.0" fill="#0c2020" stroke="none" stroke-width="6.3" opacity="1.0"/><path d="M233.3,87.0 L235.0,87.0 L236.7,87.0 L238.4,87.0 L240.1,87.0 L241.8,87.0 L243.5,87.0 L245.2,87.0 L246.9,87.0 L248.6,87.0 L250.2,87.0 L251.9,87.0" fill="none" stroke="#a7f3ee" stroke-width="5" stroke-linecap="round" stroke-linejoin="round" opacity="1.0"/></g><g class="f14"><circle cx="242.3" cy="90.0" r="19.0" fill="#2dd4bf" stroke="none" stroke-width="0" opacity="0.95"/><circle cx="242.3" cy="90.0" r="15.0" fill="#0c2020" stroke="none" stroke-width="6.3" opacity="1.0"/><path d="M233.0,87.0 L234.7,87.0 L236.4,87.0 L238.1,87.0 L239.8,87.0 L241.5,87.0 L243.2,87.0 L244.8,87.0 L246.5,87.0 L248.2,87.0 L249.9,87.0 L251.6,87.0" fill="none" stroke="#a7f3ee" stroke-width="5" stroke-linecap="round" stroke-linejoin="round" opacity="1.0"/></g><g class="f15"><circle cx="242.1" cy="90.0" r="19.0" fill="#2dd4bf" stroke="none" stroke-width="0" opacity="0.95"/><circle cx="242.1" cy="90.0" r="15.0" fill="#0c2020" stroke="none" stroke-width="6.3" opacity="1.0"/><path d="M232.8,87.0 L234.5,87.0 L236.2,87.0 L237.9,87.0 L239.5,87.0 L241.2,87.0 L242.9,87.0 L244.6,87.0 L246.3,87.0 L248.0,87.0 L249.7,87.0 L251.4,87.0" fill="none" stroke="#a7f3ee" stroke-width="5" stroke-linecap="round" stroke-linejoin="round" opacity="1.0"/></g></svg>
