<svg xmlns="http://www.w3.org/2000/svg" viewBox="0 0 480 320"><style>@keyframes k0{0%{opacity:1}11.111%{opacity:0}100%{opacity:0}}.f0{opacity:0;animation:k0 2.4s steps(1,end) infinite}@keyframes k1{0%{opacity:0}11.111%{opacity:1}16.667%{opacity:0}100%{opacity:0}}.f1{opacity:0;animation:k1 2.4s steps(1,end) infinite}@keyframes k2{0%{opacity:0}16.667%{opacity:1}22.222%{opacity:0}100%{opacity:0}}.f2{opacity:0;animation:k2 2.4s steps(1,end) infinite}@keyframes k3{0%{opacity:0}22.222%{opacity:1}27.778%{opacity:0}100%{opacity:0}}.f3{opacity:0;animation:k3 2.4s steps(1,end) infinite}@keyframes k4{0%{opacity:0}27.778%{opacity:1}33.333%{opacity:0}100%{opacity:0}}.f4{opacity:0;animation:k4 2.4s steps(1,end) infinite}@keyframes k5{0%{opacity:0}33.333%{opacity:1}38.889%{opacity:0}100%{opacity:0}}.f5{opacity:0;animation:k5 2.4s steps(1,end) infinite}@keyframes k6{0%{opacity:0}38.889%{opacity:1}44.444%{opacity:0}100%{opacity:0}}.f6{opacity:0;animation:k6 2.4s steps(1,end) infinite}@keyframes k7{0%{opacity:0}44.444%{opacity:1}50.000%{opacity:0}100%{opacity:0}}.f7{opacity:0;animation:k7 2.4s steps(1,end) infinite}@keyframes k8{0%{opacity:0}50.000%{opacity:1}61.111%{opacity:0}100%{opacity:0}}.f8{opacity:0;animation:k8 2.4s steps(1,end) infinite}@keyframes k9{0%{opacity:0}61.111%{opacity:1}66.667%{opacity:0}100%{opacity:0}}.f9{opacity:0;animation:k9 2.4s steps(1,end) infinite}@keyframes k10{0%{opacity:0}66.667%{opacity:1}72.222%{opacity:0}100%{opacity:0}}.f10{opacity:0;animation:k10 2.4s steps(1,end) infinite}@keyframes k11{0%{opacity:0}72.222%{opacity:1}77.778%{opacity:0}100%{opacity:0}}.f11{opacity:0;animation:k11 2.4s steps(1,end) infinite}@keyframes k12{0%{opacity:0}77.778%{opacity:1}83.333%{opacity:0}100%{opacity:0}}.f12{opacity:0;animation:k12 2.4s steps(1,end) infinite}@keyframes k13{0%{opacity:0}83.333%{opacity:1}88.889%{opacity:0}100%{opacity:0}}.f13{opacity:0;animation:k13 2.4s steps(1,end) infinite}@keyframes k14{0%{opacity:0}88.889%{opacity:1}94.444%{opacity:0}100%{opacity:0}}.f14{opacity:0;animation:k14 2.4s steps(1,end) infinite}@keyframes k15{0%{opacity:0}94.444%{opacity:1}100%{opacity:1}}.f15{opacity:0;animation:k15 2.4s steps(1,end) infinite}</style><path d="M40.0,292.0 L440.0,292.0" fill="none" stroke="#1f3333" stroke-width="6" stroke-linecap="round" stroke-linejoin="round" opacity="1.0"/><path d="M240.0,196.0 L228.0,242.0 L226.0,292.0" fill="none" stroke="#0d9488" stroke-width="21" stroke-linecap="round" stroke-linejoin="round" opacity="0.95"/><path d="M240.0,196.0 L228.0,242.0 L226.0,292.0" fill="none" stroke="#0c2020" stroke-width="13" stroke-linecap="round" stroke-linejoin="round" opacity="1.0"/><path d="M240.0,196.0 L252.0,242.0 L254.0,292.0" fill="none" stroke="#2dd4bf" stroke-width="21" stroke-linecap="round" stroke-linejoin="round" opacity="0.95"/><path d="M240.0,196.0 L252.0,242.0 L254.0,292.0" fill="none" stroke="#0c2020" stroke-width="13" stroke-linecap="round" stroke-linejoin="round" opacity="1.0"/><path d="M240.0,122.0 L240.0,196.0" fill="none" stroke="#2dd4bf" stroke-width="25" stroke-linecap="round" stroke-linejoin="round" opacity="0.95"/><path d="M240.0,122.0 L240.0,196.0" fill="none" stroke="#0c2020" stroke-width="17" stroke-linecap="round" stroke-linejoin="round" opacity="1.0"/><circle cx="240.0" cy="92.0" r="19.0" fill="#2dd4bf" stroke="none" stroke-width="0" opacity="0.95"/><circle cx="240.0" cy="92.0" r="15.0" fill="#0c2020" stroke="none" stroke-width="6.3" opacity="1.0"/><path d="M230.7,89.0 L249.3,89.0" fill="none" stroke="#a7f3ee" stroke-width="5" stroke-linecap="round" stroke-linejoin="round" opacity="1.0"/><g class="f0"><path d="M240.0,122.0 L236.6,127.6 L233.1,133.2 L229.7,138.9 L226.3,144.5 L222.8,150.1 L219.4,155.7 L217.5,161.9 L216.6,168.4 L215.7,174.9 L214.9,181.5 L214.0,188.0" fill="none" stroke="#8f2a3e" stroke-width="21" stroke-linecap="round" stroke-linejoin="round" opacity="0.95"/><path d="M240.0,122.0 L236.6,127.6 L233.1,133.2 L229.7,138.9 L226.3,144.5 L222.8,150.1 L219.4,155.7 L217.5,161.9 L216.6,168.4 L215.7,174.9 L214.9,181.5 L214.0,188.0" fill="none" stroke="#0c2020" stroke-width="13" stroke-linecap="round" stroke-linejoin="round" opacity="1.0"/><path d="M240.0,122.0 L243.4,127.6 L246.9,133.2 L250.3,138.9 L253.7,144.5 L257.2,150.1 L260.6,155.7 L262.5,161.9 L263.4,168.4 L264.3,174.9 L265.1,181.5 L266.0,188.0" fill="none" stroke="#f43f5e" stroke-width="21" stroke-linecap="round" stroke-linejoin="round" opacity="0.95"/><path d="M240.0,122.0 L243.4,127.6 L246.9,133.2 L250.3,138.9 L253.7,144.5 L257.2,150.1 L260.6,155.7 L262.5,161.9 L263.4,168.4 L264.3,174.9 L265.1,181.5 L266.0,188.0" fill="none" stroke="#0c2020" stroke-width="13" stroke-linecap="round" stroke-linejoin="round" opacity="1.0"/><path d="M203.0,188.0 L205.0,188.0 L207.0,188.0 L209.0,188.0 L211.0,188.0 L213.0,188.0 L215.0,188.0 L217.0,188.0 L219.0,188.0 L221.0,188.0 L223.0,188.0 L225.0,188.0" fill="none" stroke="#fbbf24" stroke-width="6" stroke-linecap="round" stroke-linejoin="round" opacity="1.0"/><circle cx="203.0" cy="188.0" r="6.0" fill="#fbbf24" stroke="none" stroke-width="6.3" opacity="1.0"/><circle cx="225.0" cy="188.0" r="6.0" fill="#fbbf24" stroke="none" stroke-width="6.3" opacity="1.0"/><path d="M255.0,188.0 L257.0,188.0 L259.0,188.0 L261.0,188.0 L263.0,188.0 L265.0,188.0 L267.0,188.0 L269.0,188.0 L271.0,188.0 L273.0,188.0 L275.0,188.0 L277.0,188.0" fill="none" stroke="#fbbf24" stroke-width="6" stroke-linecap="round" stroke-linejoin="round" opacity="1.0"/><circle cx="255.0" cy="188.0" r="6.0" fill="#fbbf24" stroke="none" stroke-width="6.3" opacity="1.0"/><circle cx="277.0" cy="188.0" r="6.0" fill="#fbbf24" stroke="none" stroke-width="6.3" opacity="1.0"/></g><g class="f1"><path d="M240.0,122.0 L236.4,127.5 L232.7,133.0 L229.1,138.5 L225.5,143.9 L221.9,149.4 L218.2,154.9 L216.1,160.8 L214.9,167.0 L213.7,173.2 L212.5,179.3 L211.3,185.5" fill="none" stroke="#8f2a3e" stroke-width="21" stroke-linecap="round" stroke-linejoin="round" opacity="0.95"/><path d="M240.0,122.0 L236.4,127.5 L232.7,133.0 L229.1,138.5 L225.5,143.9 L221.9,149.4 L218.2,154.9 L216.1,160.8 L214.9,167.0 L213.7,173.2 L212.5,179.3 L211.3,185.5" fill="none" stroke="#0c2020" stroke-width="13" stroke-linecap="round" stroke-linejoin="round" opacity="1.0"/><path d="M240.0,122.0 L243.6,127.5 L247.3,133.0 L250.9,138.5 L254.5,143.9 L258.1,149.4 L261.8,154.9 L263.9,160.8 L265.1,167.0 L266.3,173.2 L267.5,179.3 L268.7,185.5" fill="none" stroke="#f43f5e" stroke-width="21" stroke-linecap="round" stroke-linejoin="round" opacity="0.95"/><path d="M240.0,122.0 L243.6,127.5 L247.3,133.0 L250.9,138.5 L254.5,143.9 L258.1,149.4 L261.8,154.9 L263.9,160.8 L265.1,167.0 L266.3,173.2 L267.5,179.3 L268.7,185.5" fill="none" stroke="#0c2020" stroke-width="13" stroke-linecap="round" stroke-linejoin="round" opacity="1.0"/><path d="M200.3,185.5 L202.3,185.5 L204.3,185.5 L206.3,185.5 L208.3,185.5 L210.3,185.5 L212.3,185.5 L214.3,185.5 L216.3,185.5 L218.3,185.5 L220.3,185.5 L222.3,185.5" fill="none" stroke="#fbbf24" stroke-width="6" stroke-linecap="round" stroke-linejoin="round" opacity="1.0"/><circle cx="200.3" cy="185.5" r="6.0" fill="#fbbf24" stroke="none" stroke-width="6.3" opacity="1.0"/><circle cx="222.3" cy="185.5" r="6.0" fill="#fbbf24" stroke="none" stroke-width="6.3" opacity="1.0"/><path d="M257.7,185.5 L259.7,185.5 L261.7,185.5 L263.7,185.5 L265.7,185.5 L267.7,185.5 L269.7,185.5 L271.7,185.5 L273.7,185.5 L275.7,185.5 L277.7,185.5 L279.7,185.5" fill="none" stroke="#fbbf24" stroke-width="6" stroke-linecap="round" stroke-linejoin="round" opacity="1.0"/><circle cx="257.7" cy="185.5" r="6.0" fill="#fbbf24" stroke="none" stroke-width="6.3" opacity="1.0"/><circle cx="279.7" cy="185.5" r="6.0" fill="#fbbf24" stroke="none" stroke-width="6.3" opacity="1.0"/></g><g class="f2"><path d="M240.0,122.0 L235.9,127.1 L231.7,132.2 L227.6,137.4 L223.5,142.5 L219.3,147.6 L215.2,152.7 L212.3,158.0 L210.3,163.3 L208.3,168.5 L206.3,173.7 L204.3,178.9" fill="none" stroke="#8f2a3e" stroke-width="21" stroke-linecap="round" stroke-linejoin="round" opacity="0.95"/><path d="M240.0,122.0 L235.9,127.1 L231.7,132.2 L227.6,137.4 L223.5,142.5 L219.3,147.6 L215.2,152.7 L212.3,158.0 L210.3,163.3 L208.3,168.5 L206.3,173.7 L204.3,178.9" fill="none" stroke="#0c2020" stroke-width="13" stroke-linecap="round" stroke-linejoin="round" opacity="1.0"/><path d="M240.0,122.0 L244.1,127.1 L248.3,132.2 L252.4,137.4 L256.5,142.5 L260.7,147.6 L264.8,152.7 L267.7,158.0 L269.7,163.3 L271.7,168.5 L273.7,173.7 L275.7,178.9" fill="none" stroke="#f43f5e" stroke-width="21" stroke-linecap="round" stroke-linejoin="round" opacity="0.95"/><path d="M240.0,122.0 L244.1,127.1 L248.3,132.2 L252.4,137.4 L256.5,142.5 L260.7,147.6 L264.8,152.7 L267.7,158.0 L269.7,163.3 L271.7,168.5 L273.7,173.7 L275.7,178.9" fill="none" stroke="#0c2020" stroke-width="13" stroke-linecap="round" stroke-linejoin="round" opacity="1.0"/><path d="M193.3,178.9 L195.3,178.9 L197.3,178.9 L199.3,178.9 L201.3,178.9 L203.3,178.9 L205.3,178.9 L207.3,178.9 L209.3,178.9 L211.3,178.9 L213.3,178.9 L215.3,178.9" fill="none" stroke="#fbbf24" stroke-width="6" stroke-linecap="round" stroke-linejoin="round" opacity="1.0"/><circle cx="193.3" cy="178.9" r="6.0" fill="#fbbf24" stroke="none" stroke-width="6.3" opacity="1.0"/><circle cx="215.3" cy="178.9" r="6.0" fill="#fbbf24" stroke="none" stroke-width="6.3" opacity="1.0"/><path d="M264.7,178.9 L266.7,178.9 L268.7,178.9 L270.7,178.9 L272.7,178.9 L274.7,178.9 L276.7,178.9 L278.7,178.9 L280.7,178.9 L282.7,178.9 L284.7,178.9 L286.7,178.9" fill="none" stroke="#fbbf24" stroke-width="6" stroke-linecap="round" stroke-linejoin="round" opacity="1.0"/><circle cx="264.7" cy="178.9" r="6.0" fill="#fbbf24" stroke="none" stroke-width="6.3" opacity="1.0"/><circle cx="286.7" cy="178.9" r="6.0" fill="#fbbf24" stroke="none" stroke-width="6.3" opacity="1.0"/></g><g class="f3"><path d="M240.0,122.0 L235.1,126.6 L230.3,131.2 L225.4,135.8 L220.6,140.5 L215.7,145.1 L210.9,149.7 L207.0,154.1 L203.9,158.0 L200.7,161.9 L197.5,165.8 L194.4,169.6" fill="none" stroke="#8f2a3e" stroke-width="21" stroke-linecap="round" stroke-linejoin="round" opacity="0.95"/><path d="M240.0,122.0 L235.1,126.6 L230.3,131.2 L225.4,135.8 L220.6,140.5 L215.7,145.1 L210.9,149.7 L207.0,154.1 L203.9,158.0 L200.7,161.9 L197.5,165.8 L194.4,169.6" fill="none" stroke="#0c2020" stroke-width="13" stroke-linecap="round" stroke-linejoin="round" opacity="1.0"/><path d="M240.0,122.0 L244.9,126.6 L249.7,131.2 L254.6,135.8 L259.4,140.5 L264.3,145.1 L269.1,149.7 L273.0,154.1 L276.1,158.0 L279.3,161.9 L282.5,165.8 L285.6,169.6" fill="none" stroke="#f43f5e" stroke-width="21" stroke-linecap="round" stroke-linejoin="round" opacity="0.95"/><path d="M240.0,122.0 L244.9,126.6 L249.7,131.2 L254.6,135.8 L259.4,140.5 L264.3,145.1 L269.1,149.7 L273.0,154.1 L276.1,158.0 L279.3,161.9 L282.5,165.8 L285.6,169.6" fill="none" stroke="#0c2020" stroke-width="13" stroke-linecap="round" stroke-linejoin="round" opacity="1.0"/><path d="M183.4,169.6 L185.4,169.6 L187.4,169.6 L189.4,169.6 L191.4,169.6 L193.4,169.6 L195.4,169.6 L197.4,169.6 L199.4,169.6 L201.4,169.6 L203.4,169.6 L205.4,169.6" fill="none" stroke="#fbbf24" stroke-width="6" stroke-linecap="round" stroke-linejoin="round" opacity="1.0"/><circle cx="183.4" cy="169.6" r="6.0" fill="#fbbf24" stroke="none" stroke-width="6.3" opacity="1.0"/><circle cx="205.4" cy="169.6" r="6.0" fill="#fbbf24" stroke="none" stroke-width="6.3" opacity="1.0"/><path d="M274.6,169.6 L276.6,169.6 L278.6,169.6 L280.6,169.6 L282.6,169.6 L284.6,169.6 L286.6,169.6 L288.6,169.6 L290.6,169.6 L292.6,169.6 L294.6,169.6 L296.6,169.6" fill="none" stroke="#fbbf24" stroke-width="6" stroke-linecap="round" stroke-linejoin="round" opacity="1.0"/><circle cx="274.6" cy="169.6" r="6.0" fill="#fbbf24" stroke="none" stroke-width="6.3" opacity="1.0"/><circle cx="296.6" cy="169.6" r="6.0" fill="#fbbf24" stroke="none" stroke-width="6.3" opacity="1.0"/></g><g class="f4"><path d="M240.0,122.0 L234.3,126.0 L228.6,130.1 L223.0,134.1 L217.3,138.1 L211.6,142.2 L205.9,146.2 L200.9,149.5 L196.5,151.9 L192.0,154.3 L187.5,156.6 L183.0,159.0" fill="none" stroke="#8f2a3e" stroke-width="21" stroke-linecap="round" stroke-linejoin="round" opacity="0.95"/><path d="M240.0,122.0 L234.3,126.0 L228.6,130.1 L223.0,134.1 L217.3,138.1 L211.6,142.2 L205.9,146.2 L200.9,149.5 L196.5,151.9 L192.0,154.3 L187.5,156.6 L183.0,159.0" fill="none" stroke="#0c2020" stroke-width="13" stroke-linecap="round" stroke-linejoin="round" opacity="1.0"/><path d="M240.0,122.0 L245.7,126.0 L251.4,130.1 L257.0,134.1 L262.7,138.1 L268.4,142.2 L274.1,146.2 L279.1,149.5 L283.5,151.9 L288.0,154.3 L292.5,156.6 L297.0,159.0" fill="none" stroke="#f43f5e" stroke-width="21" stroke-linecap="round" stroke-linejoin="round" opacity="0.95"/><path d="M240.0,122.0 L245.7,126.0 L251.4,130.1 L257.0,134.1 L262.7,138.1 L268.4,142.2 L274.1,146.2 L279.1,149.5 L283.5,151.9 L288.0,154.3 L292.5,156.6 L297.0,159.0" fill="none" stroke="#0c2020" stroke-width="13" stroke-linecap="round" stroke-linejoin="round" opacity="1.0"/><path d="M172.0,159.0 L174.0,159.0 L176.0,159.0 L178.0,159.0 L180.0,159.0 L182.0,159.0 L184.0,159.0 L186.0,159.0 L188.0,159.0 L190.0,159.0 L192.0,159.0 L194.0,159.0" fill="none" stroke="#fbbf24" stroke-width="6" stroke-linecap="round" stroke-linejoin="round" opacity="1.0"/><circle cx="172.0" cy="159.0" r="6.0" fill="#fbbf24" stroke="none" stroke-width="6.3" opacity="1.0"/><circle cx="194.0" cy="159.0" r="6.0" fill="#fbbf24" stroke="none" stroke-width="6.3" opacity="1.0"/><path d="M286.0,159.0 L288.0,159.0 L290.0,159.0 L292.0,159.0 L294.0,159.0 L296.0,159.0 L298.0,159.0 L300.0,159.0 L302.0,159.0 L304.0,159.0 L306.0,159.0 L308.0,159.0" fill="none" stroke="#fbbf24" stroke-width="6" stroke-linecap="round" stroke-linejoin="round" opacity="1.0"/><circle cx="286.0" cy="159.0" r="6.0" fill="#fbbf24" stroke="none" stroke-width="6.3" opacity="1.0"/><circle cx="308.0" cy="159.0" r="6.0" fill="#fbbf24" stroke="none" stroke-width="6.3" opacity="1.0"/></g><g class="f5"><path d="M240.0,122.0 L233.5,125.4 L227.0,128.9 L220.5,132.3 L214.0,135.8 L207.5,139.2 L200.9,142.7 L194.9,145.0 L189.1,145.8 L183.2,146.7 L177.4,147.5 L171.6,148.4" fill="none" stroke="#8f2a3e" stroke-width="21" stroke-linecap="round" stroke-linejoin="round" opacity="0.95"/><path d="M240.0,122.0 L233.5,125.4 L227.0,128.9 L220.5,132.3 L214.0,135.8 L207.5,139.2 L200.9,142.7 L194.9,145.0 L189.1,145.8 L183.2,146.7 L177.4,147.5 L171.6,148.4" fill="none" stroke="#0c2020" stroke-width="13" stroke-linecap="round" stroke-linejoin="round" opacity="1.0"/><path d="M240.0,122.0 L246.5,125.4 L253.0,128.9 L259.5,132.3 L266.0,135.8 L272.5,139.2 L279.1,142.7 L285.1,145.0 L290.9,145.8 L296.8,146.7 L302.6,147.5 L308.4,148.4" fill="none" stroke="#f43f5e" stroke-width="21" stroke-linecap="round" stroke-linejoin="round" opacity="0.95"/><path d="M240.0,122.0 L246.5,125.4 L253.0,128.9 L259.5,132.3 L266.0,135.8 L272.5,139.2 L279.1,142.7 L285.1,145.0 L290.9,145.8 L296.8,146.7 L302.6,147.5 L308.4,148.4" fill="none" stroke="#0c2020" stroke-width="13" stroke-linecap="round" stroke-linejoin="round" opacity="1.0"/><path d="M160.6,148.4 L162.6,148.4 L164.6,148.4 L166.6,148.4 L168.6,148.4 L170.6,148.4 L172.6,148.4 L174.6,148.4 L176.6,148.4 L178.6,148.4 L180.6,148.4 L182.6,148.4" fill="none" stroke="#fbbf24" stroke-width="6" stroke-linecap="round" stroke-linejoin="round" opacity="1.0"/><circle cx="160.6" cy="148.4" r="6.0" fill="#fbbf24" stroke="none" stroke-width="6.3" opacity="1.0"/><circle cx="182.6" cy="148.4" r="6.0" fill="#fbbf24" stroke="none" stroke-width="6.3" opacity="1.0"/><path d="M297.4,148.4 L299.4,148.4 L301.4,148.4 L303.4,148.4 L305.4,148.4 L307.4,148.4 L309.4,148.4 L311.4,148.4 L313.4,148.4 L315.4,148.4 L317.4,148.4 L319.4,148.4" fill="none" stroke="#fbbf24" stroke-width="6" stroke-linecap="round" stroke-linejoin="round" opacity="1.0"/><circle cx="297.4" cy="148.4" r="6.0" fill="#fbbf24" stroke="none" stroke-width="6.3" opacity="1.0"/><circle cx="319.4" cy="148.4" r="6.0" fill="#fbbf24" stroke="none" stroke-width="6.3" opacity="1.0"/></g><g class="f6"><path d="M240.0,122.0 L232.8,124.9 L225.5,127.9 L218.3,130.8 L211.1,133.7 L203.9,136.7 L196.6,139.6 L189.6,141.1 L182.6,140.6 L175.6,140.1 L168.7,139.6 L161.7,139.1" fill="none" stroke="#8f2a3e" stroke-width="21" stroke-linecap="round" stroke-linejoin="round" opacity="0.95"/><path d="M240.0,122.0 L232.8,124.9 L225.5,127.9 L218.3,130.8 L211.1,133.7 L203.9,136.7 L196.6,139.6 L189.6,141.1 L182.6,140.6 L175.6,140.1 L168.7,139.6 L161.7,139.1" fill="none" stroke="#0c2020" stroke-width="13" stroke-linecap="round" stroke-linejoin="round" opacity="1.0"/><path d="M240.0,122.0 L247.2,124.9 L254.5,127.9 L261.7,130.8 L268.9,133.7 L276.1,136.7 L283.4,139.6 L290.4,141.1 L297.4,140.6 L304.4,140.1 L311.3,139.6 L318.3,139.1" fill="none" stroke="#f43f5e" stroke-width="21" stroke-linecap="round" stroke-linejoin="round" opacity="0.95"/><path d="M240.0,122.0 L247.2,124.9 L254.5,127.9 L261.7,130.8 L268.9,133.7 L276.1,136.7 L283.4,139.6 L290.4,141.1 L297.4,140.6 L304.4,140.1 L311.3,139.6 L318.3,139.1" fill="none" stroke="#0c2020" stroke-width="13" stroke-linecap="round" stroke-linejoin="round" opacity="1.0"/><path d="M150.7,139.1 L152.7,139.1 L154.7,139.1 L156.7,139.1 L158.7,139.1 L160.7,139.1 L162.7,139.1 L164.7,139.1 L166.7,139.1 L168.7,139.1 L170.7,139.1 L172.7,139.1" fill="none" stroke="#fbbf24" stroke-width="6" stroke-linecap="round" stroke-linejoin="round" opacity="1.0"/><circle cx="150.7" cy="139.1" r="6.0" fill="#fbbf24" stroke="none" stroke-width="6.3" opacity="1.0"/><circle cx="172.7" cy="139.1" r="6.0" fill="#fbbf24" stroke="none" stroke-width="6.3" opacity="1.0"/><path d="M307.3,139.1 L309.3,139.1 L311.3,139.1 L313.3,139.1 L315.3,139.1 L317.3,139.1 L319.3,139.1 L321.3,139.1 L323.3,139.1 L325.3,139.1 L327.3,139.1 L329.3,139.1" fill="none" stroke="#fbbf24" stroke-width="6" stroke-linecap="round" stroke-linejoin="round" opacity="1.0"/><circle cx="307.3" cy="139.1" r="6.0" fill="#fbbf24" stroke="none" stroke-width="6.3" opacity="1.0"/><circle cx="329.3" cy="139.1" r="6.0" fill="#fbbf24" stroke="none" stroke-width="6.3" opacity="1.0"/></g><g class="f7"><path d="M240.0,122.0 L232.3,124.6 L224.5,127.2 L216.8,129.7 L209.0,132.3 L201.3,134.9 L193.6,137.5 L185.8,138.3 L178.0,136.8 L170.2,135.4 L162.5,133.9 L154.7,132.5" fill="none" stroke="#8f2a3e" stroke-width="21" stroke-linecap="round" stroke-linejoin="round" opacity="0.95"/><path d="M240.0,122.0 L232.3,124.6 L224.5,127.2 L216.8,129.7 L209.0,132.3 L201.3,134.9 L193.6,137.5 L185.8,138.3 L178.0,136.8 L170.2,135.4 L162.5,133.9 L154.7,132.5" fill="none" stroke="#0c2020" stroke-width="13" stroke-linecap="round" stroke-linejoin="round" opacity="1.0"/><path d="M240.0,122.0 L247.7,124.6 L255.5,127.2 L263.2,129.7 L271.0,132.3 L278.7,134.9 L286.4,137.5 L294.2,138.3 L302.0,136.8 L309.8,135.4 L317.5,133.9 L325.3,132.5" fill="none" stroke="#f43f5e" stroke-width="21" stroke-linecap="round" stroke-linejoin="round" opacity="0.95"/><path d="M240.0,122.0 L247.7,124.6 L255.5,127.2 L263.2,129.7 L271.0,132.3 L278.7,134.9 L286.4,137.5 L294.2,138.3 L302.0,136.8 L309.8,135.4 L317.5,133.9 L325.3,132.5" fill="none" stroke="#0c2020" stroke-width="13" stroke-linecap="round" stroke-linejoin="round" opacity="1.0"/><path d="M143.7,132.5 L145.7,132.5 L147.7,132.5 L149.7,132.5 L151.7,132.5 L153.7,132.5 L155.7,132.5 L157.7,132.5 L159.7,132.5 L161.7,132.5 L163.7,132.5 L165.7,132.5" fill="none" stroke="#fbbf24" stroke-width="6" stroke-linecap="round" stroke-linejoin="round" opacity="1.0"/><circle cx="143.7" cy="132.5" r="6.0" fill="#fbbf24" stroke="none" stroke-width="6.3" opacity="1.0"/><circle cx="165.7" cy="132.5" r="6.0" fill="#fbbf24" stroke="none" stroke-width="6.3" opacity="1.0"/><path d="M314.3,132.5 L316.3,132.5 L318.3,132.5 L320.3,132.5 L322.3,132.5 L324.3,132.5 L326.3,132.5 L328.3,132.5 L330.3,132.5 L332.3,132.5 L334.3,132.5 L336.3,132.5" fill="none" stroke="#fbbf24" stroke-width="6" stroke-linecap="round" stroke-linejoin="round" opacity="1.0"/><circle cx="314.3" cy="132.5" r="6.0" fill="#fbbf24" stroke="none" stroke-width="6.3" opacity="1.0"/><circle cx="336.3" cy="132.5" r="6.0" fill="#fbbf24" stroke="none" stroke-width="6.3" opacity="1.0"/></g><g class="f8"><path d="M240.0,122.0 L232.1,124.4 L224.1,126.9 L216.2,129.3 L208.3,131.8 L200.3,134.2 L192.4,136.6 L184.4,137.2 L176.3,135.4 L168.2,133.6 L160.1,131.8 L152.0,130.0" fill="none" stroke="#8f2a3e" stroke-width="21" stroke-linecap="round" stroke-linejoin="round" opacity="0.95"/><path d="M240.0,122.0 L232.1,124.4 L224.1,126.9 L216.2,129.3 L208.3,131.8 L200.3,134.2 L192.4,136.6 L184.4,137.2 L176.3,135.4 L168.2,133.6 L160.1,131.8 L152.0,130.0" fill="none" stroke="#0c2020" stroke-width="13" stroke-linecap="round" stroke-linejoin="round" opacity="1.0"/><path d="M240.0,122.0 L247.9,124.4 L255.9,126.9 L263.8,129.3 L271.7,131.8 L279.7,134.2 L287.6,136.6 L295.6,137.2 L303.7,135.4 L311.8,133.6 L319.9,131.8 L328.0,130.0" fill="none" stroke="#f43f5e" stroke-width="21" stroke-linecap="round" stroke-linejoin="round" opacity="0.95"/><path d="M240.0,122.0 L247.9,124.4 L255.9,126.9 L263.8,129.3 L271.7,131.8 L279.7,134.2 L287.6,136.6 L295.6,137.2 L303.7,135.4 L311.8,133.6 L319.9,131.8 L328.0,130.0" fill="none" stroke="#0c2020" stroke-width="13" stroke-linecap="round" stroke-linejoin="round" opacity="1.0"/><path d="M141.0,130.0 L143.0,130.0 L145.0,130.0 L147.0,130.0 L149.0,130.0 L151.0,130.0 L153.0,130.0 L155.0,130.0 L157.0,130.0 L159.0,130.0 L161.0,130.0 L163.0,130.0" fill="none" stroke="#fbbf24" stroke-width="6" stroke-linecap="round" stroke-linejoin="round" opacity="1.0"/><circle cx="141.0" cy="130.0" r="6.0" fill="#fbbf24" stroke="none" stroke-width="6.3" opacity="1.0"/><circle cx="163.0" cy="130.0" r="6.0" fill="#fbbf24" stroke="none" stroke-width="6.3" opacity="1.0"/><path d="M317.0,130.0 L319.0,130.0 L321.0,130.0 L323.0,130.0 L325.0,130.0 L327.0,130.0 L329.0,130.0 L331.0,130.0 L333.0,130.0 L335.0,130.0 L337.0,130.0 L339.0,130.0" fill="none" stroke="#fbbf24" stroke-width="6" stroke-linecap="round" stroke-linejoin="round" opacity="1.0"/><circle cx="317.0" cy="130.0" r="6.0" fill="#fbbf24" stroke="none" stroke-width="6.3" opacity="1.0"/><circle cx="339.0" cy="130.0" r="6.0" fill="#fbbf24" stroke="none" stroke-width="6.3" opacity="1.0"/></g><g class="f9"><path d="M240.0,122.0 L232.3,124.6 L224.5,127.2 L216.8,129.7 L209.0,132.3 L201.3,134.9 L193.6,137.5 L185.8,138.3 L178.0,136.8 L170.2,135.4 L162.5,133.9 L154.7,132.5" fill="none" stroke="#8f2a3e" stroke-width="21" stroke-linecap="round" stroke-linejoin="round" opacity="0.95"/><path d="M240.0,122.0 L232.3,124.6 L224.5,127.2 L216.8,129.7 L209.0,132.3 L201.3,134.9 L193.6,137.5 L185.8,138.3 L178.0,136.8 L170.2,135.4 L162.5,133.9 L154.7,132.5" fill="none" stroke="#0c2020" stroke-width="13" stroke-linecap="round" stroke-linejoin="round" opacity="1.0"/><path d="M240.0,122.0 L247.7,124.6 L255.5,127.2 L263.2,129.7 L271.0,132.3 L278.7,134.9 L286.4,137.5 L294.2,138.3 L302.0,136.8 L309.8,135.4 L317.5,133.9 L325.3,132.5" fill="none" stroke="#f43f5e" stroke-width="21" stroke-linecap="round" stroke-linejoin="round" opacity="0.95"/><path d="M240.0,122.0 L247.7,124.6 L255.5,127.2 L263.2,129.7 L271.0,132.3 L278.7,134.9 L286.4,137.5 L294.2,138.3 L302.0,136.8 L309.8,135.4 L317.5,133.9 L325.3,132.5" fill="none" stroke="#0c2020" stroke-width="13" stroke-linecap="round" stroke-linejoin="round" opacity="1.0"/><path d="M143.7,132.5 L145.7,132.5 L147.7,132.5 L149.7,132.5 L151.7,132.5 L153.7,132.5 L155.7,132.5 L157.7,132.5 L159.7,132.5 L161.7,132.5 L163.7,132.5 L165.7,132.5" fill="none" stroke="#fbbf24" stroke-width="6" stroke-linecap="round" stroke-linejoin="round" opacity="1.0"/><circle cx="143.7" cy="132.5" r="6.0" fill="#fbbf24" stroke="none" stroke-width="6.3" opacity="1.0"/><circle cx="165.7" cy="132.5" r="6.0" fill="#fbbf24" stroke="none" stroke-width="6.3" opacity="1.0"/><path d="M314.3,132.5 L316.3,132.5 L318.3,132.5 L320.3,132.5 L322.3,132.5 L324.3,132.5 L326.3,132.5 L328.3,132.5 L330.3,132.5 L332.3,132.5 L334.3,132.5 L336.3,132.5" fill="none" stroke="#fbbf24" stroke-width="6" stroke-linecap="round" stroke-linejoin="round" opacity="1.0"/><circle cx="314.3" cy="132.5" r="6.0" fill="#fbbf24" stroke="none" stroke-width="6.3" opacity="1.0"/><circle cx="336.3" cy="132.5" r="6.0" fill="#fbbf24" stroke="none" stroke-width="6.3" opacity="1.0"/></g><g class="f10"><path d="M240.0,122.0 L232.8,124.9 L225.5,127.9 L218.3,130.8 L211.1,133.7 L203.9,136.7 L196.6,139.6 L189.6,141.1 L182.6,140.6 L175.6,140.1 L168.7,139.6 L161.7,139.1" fill="none" stroke="#8f2a3e" stroke-width="21" stroke-linecap="round" stroke-linejoin="round" opacity="0.95"/><path d="M240.0,122.0 L232.8,124.9 L225.5,127.9 L218.3,130.8 L211.1,133.7 L203.9,136.7 L196.6,139.6 L189.6,141.1 L182.6,140.6 L175.6,140.1 L168.7,139.6 L161.7,139.1" fill="none" stroke="#0c2020" stroke-width="13" stroke-linecap="round" stroke-linejoin="round" opacity="1.0"/><path d="M240.0,122.0 L247.2,124.9 L254.5,127.9 L261.7,130.8 L268.9,133.7 L276.1,136.7 L283.4,139.6 L290.4,141.1 L297.4,140.6 L304.4,140.1 L311.3,139.6 L318.3,139.1" fill="none" stroke="#f43f5e" stroke-width="21" stroke-linecap="round" stroke-linejoin="round" opacity="0.95"/><path d="M240.0,122.0 L247.2,124.9 L254.5,127.9 L261.7,130.8 L268.9,133.7 L276.1,136.7 L283.4,139.6 L290.4,141.1 L297.4,140.6 L304.4,140.1 L311.3,139.6 L318.3,139.1" fill="none" stroke="#0c2020" stroke-width="13" stroke-linecap="round" stroke-linejoin="round" opacity="1.0"/><path d="M150.7,139.1 L152.7,139.1 L154.7,139.1 L156.7,139.1 L158.7,139.1 L160.7,139.1 L162.7,139.1 L164.7,139.1 L166.7,139.1 L168.7,139.1 L170.7,139.1 L172.7,139.1" fill="none" stroke="#fbbf24" stroke-width="6" stroke-linecap="round" stroke-linejoin="round" opacity="1.0"/><circle cx="150.7" cy="139.1" r="6.0" fill="#fbbf24" stroke="none" stroke-width="6.3" opacity="1.0"/><circle cx="172.7" cy="139.1" r="6.0" fill="#fbbf24" stroke="none" stroke-width="6.3" opacity="1.0"/><path d="M307.3,139.1 L309.3,139.1 L311.3,139.1 L313.3,139.1 L315.3,139.1 L317.3,139.1 L319.3,139.1 L321.3,139.1 L323.3,139.1 L325.3,139.1 L327.3,139.1 L329.3,139.1" fill="none" stroke="#fbbf24" stroke-width="6" stroke-linecap="round" stroke-linejoin="round" opacity="1.0"/><circle cx="307.3" cy="139.1" r="6.0" fill="#fbbf24" stroke="none" stroke-width="6.3" opacity="1.0"/><circle cx="329.3" cy="139.1" r="6.0" fill="#fbbf24" stroke="none" stroke-width="6.3" opacity="1.0"/></g><g class="f11"><path d="M240.0,122.0 L233.5,125.4 L227.0,128.9 L220.5,132.3 L214.0,135.8 L207.5,139.2 L200.9,142.7 L194.9,145.0 L189.1,145.8 L183.2,146.7 L177.4,147.5 L171.6,148.4" fill="none" stroke="#8f2a3e" stroke-width="21" stroke-linecap="round" stroke-linejoin="round" opacity="0.95"/><path d="M240.0,122.0 L233.5,125.4 L227.0,128.9 L220.5,132.3 L214.0,135.8 L207.5,139.2 L200.9,142.7 L194.9,145.0 L189.1,145.8 L183.2,146.7 L177.4,147.5 L171.6,148.4" fill="none" stroke="#0c2020" stroke-width="13" stroke-linecap="round" stroke-linejoin="round" opacity="1.0"/><path d="M240.0,122.0 L246.5,125.4 L253.0,128.9 L259.5,132.3 L266.0,135.8 L272.5,139.2 L279.1,142.7 L285.1,145.0 L290.9,145.8 L296.8,146.7 L302.6,147.5 L308.4,148.4" fill="none" stroke="#f43f5e" stroke-width="21" stroke-linecap="round" stroke-linejoin="round" opacity="0.95"/><path d="M240.0,122.0 L246.5,125.4 L253.0,128.9 L259.5,132.3 L266.0,135.8 L272.5,139.2 L279.1,142.7 L285.1,145.0 L290.9,145.8 L296.8,146.7 L302.6,147.5 L308.4,148.4" fill="none" stroke="#0c2020" stroke-width="13" stroke-linecap="round" stroke-linejoin="round" opacity="1.0"/><path d="M160.6,148.4 L162.6,148.4 L164.6,148.4 L166.6,148.4 L168.6,148.4 L170.6,148.4 L172.6,148.4 L174.6,148.4 L176.6,148.4 L178.6,148.4 L180.6,148.4 L182.6,148.4" fill="none" stroke="#fbbf24" stroke-width="6" stroke-linecap="round" stroke-linejoin="round" opacity="1.0"/><circle cx="160.6" cy="148.4" r="6.0" fill="#fbbf24" stroke="none" stroke-width="6.3" opacity="1.0"/><circle cx="182.6" cy="148.4" r="6.0" fill="#fbbf24" stroke="none" stroke-width="6.3" opacity="1.0"/><path d="M297.4,148.4 L299.4,148.4 L301.4,148.4 L303.4,148.4 L305.4,148.4 L307.4,148.4 L309.4,148.4 L311.4,148.4 L313.4,148.4 L315.4,148.4 L317.4,148.4 L319.4,148.4" fill="none" stroke="#fbbf24" stroke-width="6" stroke-linecap="round" stroke-linejoin="round" opacity="1.0"/><circle cx="297.4" cy="148.4" r="6.0" fill="#fbbf24" stroke="none" stroke-width="6.3" opacity="1.0"/><circle cx="319.4" cy="148.4" r="6.0" fill="#fbbf24" stroke="none" stroke-width="6.3" opacity="1.0"/></g><g class="f12"><path d="M240.0,122.0 L234.3,126.0 L228.6,130.1 L223.0,134.1 L217.3,138.1 L211.6,142.2 L205.9,146.2 L200.9,149.5 L196.5,151.9 L192.0,154.3 L187.5,156.6 L183.0,159.0" fill="none" stroke="#8f2a3e" stroke-width="21" stroke-linecap="round" stroke-linejoin="round" opacity="0.95"/><path d="M240.0,122.0 L234.3,126.0 L228.6,130.1 L223.0,134.1 L217.3,138.1 L211.6,142.2 L205.9,146.2 L200.9,149.5 L196.5,151.9 L192.0,154.3 L187.5,156.6 L183.0,159.0" fill="none" stroke="#0c2020" stroke-width="13" stroke-linecap="round" stroke-linejoin="round" opacity="1.0"/><path d="M240.0,122.0 L245.7,126.0 L251.4,130.1 L257.0,134.1 L262.7,138.1 L268.4,142.2 L274.1,146.2 L279.1,149.5 L283.5,151.9 L288.0,154.3 L292.5,156.6 L297.0,159.0" fill="none" stroke="#f43f5e" stroke-width="21" stroke-linecap="round" stroke-linejoin="round" opacity="0.95"/><path d="M240.0,122.0 L245.7,126.0 L251.4,130.1 L257.0,134.1 L262.7,138.1 L268.4,142.2 L274.1,146.2 L279.1,149.5 L283.5,151.9 L288.0,154.3 L292.5,156.6 L297.0,159.0" fill="none" stroke="#0c2020" stroke-width="13" stroke-linecap="round" stroke-linejoin="round" opacity="1.0"/><path d="M172.0,159.0 L174.0,159.0 L176.0,159.0 L178.0,159.0 L180.0,159.0 L182.0,159.0 L184.0,159.0 L186.0,159.0 L188.0,159.0 L190.0,159.0 L192.0,159.0 L194.0,159.0" fill="none" stroke="#fbbf24" stroke-width="6" stroke-linecap="round" stroke-linejoin="round" opacity="1.0"/><circle cx="172.0" cy="159.0" r="6.0" fill="#fbbf24" stroke="none" stroke-width="6.3" opacity="1.0"/><circle cx="194.0" cy="159.0" r="6.0" fill="#fbbf24" stroke="none" stroke-width="6.3" opacity="1.0"/><path d="M286.0,159.0 L288.0,159.0 L290.0,159.0 L292.0,159.0 L294.0,159.0 L296.0,159.0 L298.0,159.0 L300.0,159.0 L302.0,159.0 L304.0,159.0 L306.0,159.0 L308.0,159.0" fill="none" stroke="#fbbf24" stroke-width="6" stroke-linecap="round" stroke-linejoin="round" opacity="1.0"/><circle cx="286.0" cy="159.0" r="6.0" fill="#fbbf24" stroke="none" stroke-width="6.3" opacity="1.0"/><circle cx="308.0" cy="159.0" r="6.0" fill="#fbbf24" stroke="none" stroke-width="6.3" opacity="1.0"/></g><g class="f13"><path d="M240.0,122.0 L235.1,126.6 L230.3,131.2 L225.4,135.8 L220.6,140.5 L215.7,145.1 L210.9,149.7 L207.0,154.1 L203.9,158.0 L200.7,161.9 L197.5,165.8 L194.4,169.6" fill="none" stroke="#8f2a3e" stroke-width="21" stroke-linecap="round" stroke-linejoin="round" opacity="0.95"/><path d="M240.0,122.0 L235.1,126.6 L230.3,131.2 L225.4,135.8 L220.6,140.5 L215.7,145.1 L210.9,149.7 L207.0,154.1 L203.9,158.0 L200.7,161.9 L197.5,165.8 L194.4,169.6" fill="none" stroke="#0c2020" stroke-width="13" stroke-linecap="round" stroke-linejoin="round" opacity="1.0"/><path d="M240.0,122.0 L244.9,126.6 L249.7,131.2 L254.6,135.8 L259.4,140.5 L264.3,145.1 L269.1,149.7 L273.0,154.1 L276.1,158.0 L279.3,161.9 L282.5,165.8 L285.6,169.6" fill="none" stroke="#f43f5e" stroke-width="21" stroke-linecap="round" stroke-linejoin="round" opacity="0.95"/><path d="M240.0,122.0 L244.9,126.6 L249.7,131.2 L254.6,135.8 L259.4,140.5 L264.3,145.1 L269.1,149.7 L273.0,154.1 L276.1,158.0 L279.3,161.9 L282.5,165.8 L285.6,169.6" fill="none" stroke="#0c2020" stroke-width="13" stroke-linecap="round" stroke-linejoin="round" opacity="1.0"/><path d="M183.4,169.6 L185.4,169.6 L187.4,169.6 L189.4,169.6 L191.4,169.6 L193.4,169.6 L195.4,169.6 L197.4,169.6 L199.4,169.6 L201.4,169.6 L203.4,169.6 L205.4,169.6" fill="none" stroke="#fbbf24" stroke-width="6" stroke-linecap="round" stroke-linejoin="round" opacity="1.0"/><circle cx="183.4" cy="169.6" r="6.0" fill="#fbbf24" stroke="none" stroke-width="6.3" opacity="1.0"/><circle cx="205.4" cy="169.6" r="6.0" fill="#fbbf24" stroke="none" stroke-width="6.3" opacity="1.0"/><path d="M274.6,169.6 L276.6,169.6 L278.6,169.6 L280.6,169.6 L282.6,169.6 L284.6,169.6 L286.6,169.6 L288.6,169.6 L290.6,169.6 L292.6,169.6 L294.6,169.6 L296.6,169.6" fill="none" stroke="#fbbf24" stroke-width="6" stroke-linecap="round" stroke-linejoin="round" opacity="1.0"/><circle cx="274.6" cy="169.6" r="6.0" fill="#fbbf24" stroke="none" stroke-width="6.3" opacity="1.0"/><circle cx="296.6" cy="169.6" r="6.0" fill="#fbbf24" stroke="none" stroke-width="6.3" opacity="1.0"/></g><g class="f14"><path d="M240.0,122.0 L235.9,127.1 L231.7,132.2 L227.6,137.4 L223.5,142.5 L219.3,147.6 L215.2,152.7 L212.3,158.0 L210.3,163.3 L208.3,168.5 L206.3,173.7 L204.3,178.9" fill="none" stroke="#8f2a3e" stroke-width="21" stroke-linecap="round" stroke-linejoin="round" opacity="0.95"/><path d="M240.0,122.0 L235.9,127.1 L231.7,132.2 L227.6,137.4 L223.5,142.5 L219.3,147.6 L215.2,152.7 L212.3,158.0 L210.3,163.3 L208.3,168.5 L206.3,173.7 L204.3,178.9" fill="none" stroke="#0c2020" stroke-width="13" stroke-linecap="round" stroke-linejoin="round" opacity="1.0"/><path d="M240.0,122.0 L244.1,127.1 L248.3,132.2 L252.4,137.4 L256.5,142.5 L260.7,147.6 L264.8,152.7 L267.7,158.0 L269.7,163.3 L271.7,168.5 L273.7,173.7 L275.7,178.9" fill="none" stroke="#f43f5e" stroke-width="21" stroke-linecap="round" stroke-linejoin="round" opacity="0.95"/><path d="M240.0,122.0 L244.1,127.1 L248.3,132.2 L252.4,137.4 L256.5,142.5 L260.7,147.6 L264.8,152.7 L267.7,158.0 L269.7,163.3 L271.7,168.5 L273.7,173.7 L275.7,178.9" fill="none" stroke="#0c2020" stroke-width="13" stroke-linecap="round" stroke-linejoin="round" opacity="1.0"/><path d="M193.3,178.9 L195.3,178.9 L197.3,178.9 L199.3,178.9 L201.3,178.9 L203.3,178.9 L205.3,178.9 L207.3,178.9 L209.3,178.9 L211.3,178.9 L213.3,178.9 L215.3,178.9" fill="none" stroke="#fbbf24" stroke-width="6" stroke-linecap="round" stroke-linejoin="round" opacity="1.0"/><circle cx="193.3" cy="178.9" r="6.0" fill="#fbbf24" stroke="none" stroke-width="6.3" opacity="1.0"/><circle cx="215.3" cy="178.9" r="6.0" fill="#fbbf24" stroke="none" stroke-width="6.3" opacity="1.0"/><path d="M264.7,178.9 L266.7,178.9 L268.7,178.9 L270.7,178.9 L272.7,178.9 L274.7,178.9 L276.7,178.9 L278.7,178.9 L280.7,178.9 L282.7,178.9 L284.7,178.9 L286.7,178.9" fill="none" stroke="#fbbf24" stroke-width="6" stroke-linecap="round" stroke-linejoin="round" opacity="1.0"/><circle cx="264.7" cy="178.9" r="6.0" fill="#fbbf24" stroke="none" stroke-width="6.3" opacity="1.0"/><circle cx="286.7" cy="178.9" r="6.0" fill="#fbbf24" stroke="none" stroke-width="6.3" opacity="1.0"/></g><g class="f15"><path d="M240.0,122.0 L236.4,127.5 L232.7,133.0 L229.1,138.5 L225.5,143.9 L221.9,149.4 L218.2,154.9 L216.1,160.8 L214.9,167.0 L213.7,173.2 L212.5,179.3 L211.3,185.5" fill="none" stroke="#8f2a3e" stroke-width="21" stroke-linecap="round" stroke-linejoin="round" opacity="0.95"/><path d="M240.0,122.0 L236.4,127.5 L232.7,133.0 L229.1,138.5 L225.5,143.9 L221.9,149.4 L218.2,154.9 L216.1,160.8 L214.9,167.0 L213.7,173.2 L212.5,179.3 L211.3,185.5" fill="none" stroke="#0c2020" stroke-width="13" stroke-linecap="round" stroke-linejoin="round" opacity="1.0"/><path d="M240.0,122.0 L243.6,127.5 L247.3,133.0 L250.9,138.5 L254.5,143.9 L258.1,149.4 L261.8,154.9 L263.9,160.8 L265.1,167.0 L266.3,173.2 L267.5,179.3 L268.7,185.5" fill="none" stroke="#f43f5e" stroke-width="21" stroke-linecap="round" stroke-linejoin="round" opacity="0.95"/><path d="M240.0,122.0 L243.6,127.5 L247.3,133.0 L250.9,138.5 L254.5,143.9 L258.1,149.4 L261.8,154.9 L263.9,160.8 L265.1,167.0 L266.3,173.2 L267.5,179.3 L268.7,185.5" fill="none" stroke="#0c2020" stroke-width="13" stroke-linecap="round" stroke-linejoin="round" opacity="1.0"/><path d="M200.3,185.5 L202.3,185.5 L204.3,185.5 L206.3,185.5 L208.3,185.5 L210.3,185.5 L212.3,185.5 L214.3,185.5 L216.3,185.5 L218.3,185.5 L220.3,185.5 L222.3,185.5" fill="none" stroke="#fbbf24" stroke-width="6" stroke-linecap="round" stroke-linejoin="round" opacity="1.0"/><circle cx="200.3" cy="185.5" r="6.0" fill="#fbbf24" stroke="none" stroke-width="6.3" opacity="1.0"/><circle cx="222.3" cy="185.5" r="6.0" fill="#fbbf24" stroke="none" stroke-width="6.3" opacity="1.0"/><path d="M257.7,185.5 L259.7,185.5 L261.7,185.5 L263.7,185.5 L265.7,185.5 L267.7,185.5 L269.7,185.5 L271.7,185.5 L273.7,185.5 L275.7,185.5 L277.7,185.5 L279.7,185.5" fill="none" stroke="#fbbf24" stroke-width="6" stroke-linecap="round" stroke-linejoin="round" opacity="1.0"/><circle cx="257.7" cy="185.5" r="6.0" fill="#fbbf24" stroke="none" stroke-width="6.3" opacity="1.0"/><circle cx="279.7" cy="185.5" r="6.0" fill="#fbbf24" stroke="none" stroke-width="6.3" opacity="1.0"/></g></svg>
