<svg xmlns="http://www.w3.org/2000/svg" viewBox="0 0 480 320"><style>@keyframes k0{0%{opacity:1}11.111%{opacity:0}100%{opacity:0}}.f0{opacity:0;animation:k0 2.4s steps(1,end) infinite}@keyframes k1{0%{opacity:0}11.111%{opacity:1}16.667%{opacity:0}100%{opacity:0}}.f1{opacity:0;animation:k1 2.4s steps(1,end) infinite}@keyframes k2{0%{opacity:0}16.667%{opacity:1}22.222%{opacity:0}100%{opacity:0}}.f2{opacity:0;animation:k2 2.4s steps(1,end) infinite}@keyframes k3{0%{opacity:0}22.222%{opacity:1}27.778%{opacity:0}100%{opacity:0}}.f3{opacity:0;animation:k3 2.4s steps(1,end) infinite}@keyframes k4{0%{opacity:0}27.778%{opacity:1}33.333%{opacity:0}100%{opacity:0}}.f4{opacity:0;animation:k4 2.4s steps(1,end) infinite}@keyframes k5{0%{opacity:0}33.333%{opacity:1}38.889%{opacity:0}100%{opacity:0}}.f5{opacity:0;animation:k5 2.4s steps(1,end) infinite}@keyframes k6{0%{opacity:0}38.889%{opacity:1}44.444%{opacity:0}100%{opacity:0}}.f6{opacity:0;animation:k6 2.4s steps(1,end) infinite}@keyframes k7{0%{opacity:0}44.444%{opacity:1}50.000%{opacity:0}100%{opacity:0}}.f7{opacity:0;animation:k7 2.4s steps(1,end) infinite}@keyframes k8{0%{opacity:0}50.000%{opacity:1}61.111%{opacity:0}100%{opacity:0}}.f8{opacity:0;animation:k8 2.4s steps(1,end) infinite}@keyframes k9{0%{opacity:0}61.111%{opacity:1}66.667%{opacity:0}100%{opacity:0}}.f9{opacity:0;animation:k9 2.4s steps(1,end) infinite}@keyframes k10{0%{opacity:0}66.667%{opacity:1}72.222%{opacity:0}100%{opacity:0}}.f10{opacity:0;animation:k10 2.4s steps(1,end) infinite}@keyframes k11{0%{opacity:0}72.222%{opacity:1}77.778%{opacity:0}100%{opacity:0}}.f11{opacity:0;animation:k11 2.4s steps(1,end) infinite}@keyframes k12{0%{opacity:0}77.778%{opacity:1}83.333%{opacity:0}100%{opacity:0}}.f12{opacity:0;animation:k12 2.4s steps(1,end) infinite}@keyframes k13{0%{opacity:0}83.333%{opacity:1}88.889%{opacity:0}100%{opacity:0}}.f13{opacity:0;animation:k13 2.4s steps(1,end) infinite}@keyframes k14{0%{opacity:0}88.889%{opacity:1}94.444%{opacity:0}100%{opacity:0}}.f14{opacity:0;animation:k14 2.4s steps(1,end) infinite}@keyframes k15{0%{opacity:0}94.444%{opacity:1}100%{opacity:1}}.f15{opacity:0;animation:k15 2.4s steps(1,end) infinite}</style><path d="M40.0,292.0 L440.0,292.0" fill="none" stroke="#1f3333" stroke-width="6" stroke-linecap="round" stroke-linejoin="round" opacity="1.0"/><path d="M310.0,262.0 L280.0,288.0" fill="none" stroke="#2dd4bf" stroke-width="19" stroke-linecap="round" stroke-linejoin="round" opacity="0.95"/><path d="M310.0,262.0 L280.0,288.0" fill="none" stroke="#0c2020" stroke-width="11" stroke-linecap="round" stroke-linejoin="round" opacity="1.0"/><path d="M310.0,262.0 L220.0,268.0" fill="none" stroke="#f43f5e" stroke-width="23" stroke-linecap="round" stroke-linejoin="round" opacity="0.95"/><path d="M310.0,262.0 L220.0,268.0" fill="none" stroke="#0c2020" stroke-width="15" stroke-linecap="round" stroke-linejoin="round" opacity="1.0"/><circle cx="336.0" cy="256.0" r="19.0" fill="#f43f5e" stroke="none" stroke-width="0" opacity="0.95"/><circle cx="336.0" cy="256.0" r="15.0" fill="#0c2020" stroke="none" stroke-width="6.3" opacity="1.0"/><path d="M334.0,239.0 L315.0,258.0 L319.0,277.0" fill="none" stroke="#2dd4bf" stroke-width="5" stroke-linecap="round" stroke-linejoin="round" opacity="1.0"/><path d="M326.7,253.0 L345.3,253.0" fill="none" stroke="#a7f3ee" stroke-width="5" stroke-linecap="round" stroke-linejoin="round" opacity="1.0"/><g class="f0"><path d="M220.0,268.0 L208.2,266.3 L196.4,264.6 L184.6,262.9 L172.8,261.3 L161.0,259.6 L149.3,257.9 L137.4,256.7 L125.6,255.6 L113.7,254.4 L101.9,253.2 L90.0,252.0" fill="none" stroke="#2dd4bf" stroke-width="19" stroke-linecap="round" stroke-linejoin="round" opacity="0.95"/><path d="M220.0,268.0 L208.2,266.3 L196.4,264.6 L184.6,262.9 L172.8,261.3 L161.0,259.6 L149.3,257.9 L137.4,256.7 L125.6,255.6 L113.7,254.4 L101.9,253.2 L90.0,252.0" fill="none" stroke="#0c2020" stroke-width="11" stroke-linecap="round" stroke-linejoin="round" opacity="1.0"/></g><g class="f1"><path d="M220.0,268.0 L208.6,265.9 L197.3,263.8 L185.9,261.6 L174.6,259.5 L163.2,257.4 L151.9,255.3 L140.5,253.7 L129.1,252.0 L117.7,250.4 L106.4,248.7 L95.0,247.1" fill="none" stroke="#2dd4bf" stroke-width="19" stroke-linecap="round" stroke-linejoin="round" opacity="0.95"/><path d="M220.0,268.0 L208.6,265.9 L197.3,263.8 L185.9,261.6 L174.6,259.5 L163.2,257.4 L151.9,255.3 L140.5,253.7 L129.1,252.0 L117.7,250.4 L106.4,248.7 L95.0,247.1" fill="none" stroke="#0c2020" stroke-width="11" stroke-linecap="round" stroke-linejoin="round" opacity="1.0"/></g><g class="f2"><path d="M220.0,268.0 L209.8,264.7 L199.6,261.5 L189.4,258.2 L179.2,255.0 L169.0,251.7 L158.8,248.5 L148.6,245.6 L138.5,242.7 L128.4,239.9 L118.3,237.0 L108.1,234.2" fill="none" stroke="#2dd4bf" stroke-width="19" stroke-linecap="round" stroke-linejoin="round" opacity="0.95"/><path d="M220.0,268.0 L209.8,264.7 L199.6,261.5 L189.4,258.2 L179.2,255.0 L169.0,251.7 L158.8,248.5 L148.6,245.6 L138.5,242.7 L128.4,239.9 L118.3,237.0 L108.1,234.2" fill="none" stroke="#0c2020" stroke-width="11" stroke-linecap="round" stroke-linejoin="round" opacity="1.0"/></g><g class="f3"><path d="M220.0,268.0 L211.4,263.1 L202.8,258.2 L194.3,253.4 L185.7,248.5 L177.1,243.6 L168.5,238.7 L160.1,234.2 L151.8,229.6 L143.4,225.1 L135.1,220.5 L126.7,215.9" fill="none" stroke="#2dd4bf" stroke-width="19" stroke-linecap="round" stroke-linejoin="round" opacity="0.95"/><path d="M220.0,268.0 L211.4,263.1 L202.8,258.2 L194.3,253.4 L185.7,248.5 L177.1,243.6 L168.5,238.7 L160.1,234.2 L151.8,229.6 L143.4,225.1 L135.1,220.5 L126.7,215.9" fill="none" stroke="#0c2020" stroke-width="11" stroke-linecap="round" stroke-linejoin="round" opacity="1.0"/></g><g class="f4"><path d="M220.0,268.0 L213.3,261.3 L206.6,254.5 L199.9,247.8 L193.1,241.1 L186.4,234.3 L179.7,227.6 L173.3,221.1 L167.0,214.6 L160.7,208.1 L154.3,201.5 L148.0,195.0" fill="none" stroke="#2dd4bf" stroke-width="19" stroke-linecap="round" stroke-linejoin="round" opacity="0.95"/><path d="M220.0,268.0 L213.3,261.3 L206.6,254.5 L199.9,247.8 L193.1,241.1 L186.4,234.3 L179.7,227.6 L173.3,221.1 L167.0,214.6 L160.7,208.1 L154.3,201.5 L148.0,195.0" fill="none" stroke="#0c2020" stroke-width="11" stroke-linecap="round" stroke-linejoin="round" opacity="1.0"/></g><g class="f5"><path d="M220.0,268.0 L215.2,259.4 L210.3,250.8 L205.5,242.2 L200.6,233.7 L195.8,225.1 L190.9,216.5 L186.5,208.0 L182.2,199.5 L177.9,191.0 L173.6,182.6 L169.3,174.1" fill="none" stroke="#2dd4bf" stroke-width="19" stroke-linecap="round" stroke-linejoin="round" opacity="0.95"/><path d="M220.0,268.0 L215.2,259.4 L210.3,250.8 L205.5,242.2 L200.6,233.7 L195.8,225.1 L190.9,216.5 L186.5,208.0 L182.2,199.5 L177.9,191.0 L173.6,182.6 L169.3,174.1" fill="none" stroke="#0c2020" stroke-width="11" stroke-linecap="round" stroke-linejoin="round" opacity="1.0"/></g><g class="f6"><path d="M220.0,268.0 L216.8,257.8 L213.6,247.6 L210.3,237.4 L207.1,227.2 L203.9,217.0 L200.7,206.8 L198.0,196.6 L195.5,186.4 L193.0,176.2 L190.4,166.0 L187.9,155.8" fill="none" stroke="#2dd4bf" stroke-width="19" stroke-linecap="round" stroke-linejoin="round" opacity="0.95"/><path d="M220.0,268.0 L216.8,257.8 L213.6,247.6 L210.3,237.4 L207.1,227.2 L203.9,217.0 L200.7,206.8 L198.0,196.6 L195.5,186.4 L193.0,176.2 L190.4,166.0 L187.9,155.8" fill="none" stroke="#0c2020" stroke-width="11" stroke-linecap="round" stroke-linejoin="round" opacity="1.0"/></g><g class="f7"><path d="M220.0,268.0 L217.9,256.7 L215.9,245.3 L213.8,234.0 L211.7,222.6 L209.6,211.3 L207.6,199.9 L206.2,188.5 L204.9,177.1 L203.6,165.7 L202.3,154.3 L201.0,142.9" fill="none" stroke="#2dd4bf" stroke-width="19" stroke-linecap="round" stroke-linejoin="round" opacity="0.95"/><path d="M220.0,268.0 L217.9,256.7 L215.9,245.3 L213.8,234.0 L211.7,222.6 L209.6,211.3 L207.6,199.9 L206.2,188.5 L204.9,177.1 L203.6,165.7 L202.3,154.3 L201.0,142.9" fill="none" stroke="#0c2020" stroke-width="11" stroke-linecap="round" stroke-linejoin="round" opacity="1.0"/></g><g class="f8"><path d="M220.0,268.0 L218.4,256.2 L216.7,244.4 L215.1,232.7 L213.5,220.9 L211.8,209.1 L210.2,197.3 L209.3,185.5 L208.5,173.6 L207.6,161.7 L206.8,149.9 L206.0,138.0" fill="none" stroke="#2dd4bf" stroke-width="19" stroke-linecap="round" stroke-linejoin="round" opacity="0.95"/><path d="M220.0,268.0 L218.4,256.2 L216.7,244.4 L215.1,232.7 L213.5,220.9 L211.8,209.1 L210.2,197.3 L209.3,185.5 L208.5,173.6 L207.6,161.7 L206.8,149.9 L206.0,138.0" fill="none" stroke="#0c2020" stroke-width="11" stroke-linecap="round" stroke-linejoin="round" opacity="1.0"/></g><g class="f9"><path d="M220.0,268.0 L217.9,256.7 L215.9,245.3 L213.8,234.0 L211.7,222.6 L209.6,211.3 L207.6,199.9 L206.2,188.5 L204.9,177.1 L203.6,165.7 L202.3,154.3 L201.0,142.9" fill="none" stroke="#2dd4bf" stroke-width="19" stroke-linecap="round" stroke-linejoin="round" opacity="0.95"/><path d="M220.0,268.0 L217.9,256.7 L215.9,245.3 L213.8,234.0 L211.7,222.6 L209.6,211.3 L207.6,199.9 L206.2,188.5 L204.9,177.1 L203.6,165.7 L202.3,154.3 L201.0,142.9" fill="none" stroke="#0c2020" stroke-width="11" stroke-linecap="round" stroke-linejoin="round" opacity="1.0"/></g><g class="f10"><path d="M220.0,268.0 L216.8,257.8 L213.6,247.6 L210.3,237.4 L207.1,227.2 L203.9,217.0 L200.7,206.8 L198.0,196.6 L195.5,186.4 L193.0,176.2 L190.4,166.0 L187.9,155.8" fill="none" stroke="#2dd4bf" stroke-width="19" stroke-linecap="round" stroke-linejoin="round" opacity="0.95"/><path d="M220.0,268.0 L216.8,257.8 L213.6,247.6 L210.3,237.4 L207.1,227.2 L203.9,217.0 L200.7,206.8 L198.0,196.6 L195.5,186.4 L193.0,176.2 L190.4,166.0 L187.9,155.8" fill="none" stroke="#0c2020" stroke-width="11" stroke-linecap="round" stroke-linejoin="round" opacity="1.0"/></g><g class="f11"><path d="M220.0,268.0 L215.2,259.4 L210.3,250.8 L205.5,242.2 L200.6,233.7 L195.8,225.1 L190.9,216.5 L186.5,208.0 L182.2,199.5 L177.9,191.0 L173.6,182.6 L169.3,174.1" fill="none" stroke="#2dd4bf" stroke-width="19" stroke-linecap="round" stroke-linejoin="round" opacity="0.95"/><path d="M220.0,268.0 L215.2,259.4 L210.3,250.8 L205.5,242.2 L200.6,233.7 L195.8,225.1 L190.9,216.5 L186.5,208.0 L182.2,199.5 L177.9,191.0 L173.6,182.6 L169.3,174.1" fill="none" stroke="#0c2020" stroke-width="11" stroke-linecap="round" stroke-linejoin="round" opacity="1.0"/></g><g class="f12"><path d="M220.0,268.0 L213.3,261.3 L206.6,254.5 L199.9,247.8 L193.1,241.1 L186.4,234.3 L179.7,227.6 L173.3,221.1 L167.0,214.6 L160.7,208.1 L154.3,201.5 L148.0,195.0" fill="none" stroke="#2dd4bf" stroke-width="19" stroke-linecap="round" stroke-linejoin="round" opacity="0.95"/><path d="M220.0,268.0 L213.3,261.3 L206.6,254.5 L199.9,247.8 L193.1,241.1 L186.4,234.3 L179.7,227.6 L173.3,221.1 L167.0,214.6 L160.7,208.1 L154.3,201.5 L148.0,195.0" fill="none" stroke="#0c2020" stroke-width="11" stroke-linecap="round" stroke-linejoin="round" opacity="1.0"/></g><g class="f13"><path d="M220.0,268.0 L211.4,263.1 L202.8,258.2 L194.3,253.4 L185.7,248.5 L177.1,243.6 L168.5,238.7 L160.1,234.2 L151.8,229.6 L143.4,225.1 L135.1,220.5 L126.7,215.9" fill="none" stroke="#2dd4bf" stroke-width="19" stroke-linecap="round" stroke-linejoin="round" opacity="0.95"/><path d="M220.0,268.0 L211.4,263.1 L202.8,258.2 L194.3,253.4 L185.7,248.5 L177.1,243.6 L168.5,238.7 L160.1,234.2 L151.8,229.6 L143.4,225.1 L135.1,220.5 L126.7,215.9" fill="none" stroke="#0c2020" stroke-width="11" stroke-linecap="round" stroke-linejoin="round" opacity="1.0"/></g><g class="f14"><path d="M220.0,268.0 L209.8,264.7 L199.6,261.5 L189.4,258.2 L179.2,255.0 L169.0,251.7 L158.8,248.5 L148.6,245.6 L138.5,242.7 L128.4,239.9 L118.3,237.0 L108.1,234.2" fill="none" stroke="#2dd4bf" stroke-width="19" stroke-linecap="round" stroke-linejoin="round" opacity="0.95"/><path d="M220.0,268.0 L209.8,264.7 L199.6,261.5 L189.4,258.2 L179.2,255.0 L169.0,251.7 L158.8,248.5 L148.6,245.6 L138.5,242.7 L128.4,239.9 L118.3,237.0 L108.1,234.2" fill="none" stroke="#0c2020" stroke-width="11" stroke-linecap="round" stroke-linejoin="round" opacity="1.0"/></g><g class="f15"><path d="M220.0,268.0 L208.6,265.9 L197.3,263.8 L185.9,261.6 L174.6,259.5 L163.2,257.4 L151.9,255.3 L140.5,253.7 L129.1,252.0 L117.7,250.4 L106.4,248.7 L95.0,247.1" fill="none" stroke="#2dd4bf" stroke-width="19" stroke-linecap="round" stroke-linejoin="round" opacity="0.95"/><path d="M220.0,268.0 L208.6,265.9 L197.3,263.8 L185.9,261.6 L174.6,259.5 L163.2,257.4 L151.9,255.3 L140.5,253.7 L129.1,252.0 L117.7,250.4 L106.4,248.7 L95.0,247.1" fill="none" stroke="#0c2020" stroke-width="11" stroke-linecap="round" stroke-linejoin="round" opacity="1.0"/></g></svg>
