<svg xmlns="http://www.w3.org/2000/svg" viewBox="0 0 480 320"><style>@keyframes k0{0%{opacity:1}11.111%{opacity:0}100%{opacity:0}}.f0{opacity:0;animation:k0 2.4s steps(1,end) infinite}@keyframes k1{0%{opacity:0}11.111%{opacity:1}16.667%{opacity:0}100%{opacity:0}}.f1{opacity:0;animation:k1 2.4s steps(1,end) infinite}@keyframes k2{0%{opacity:0}16.667%{opacity:1}22.222%{opacity:0}100%{opacity:0}}.f2{opacity:0;animation:k2 2.4s steps(1,end) infinite}@keyframes k3{0%{opacity:0}22.222%{opacity:1}27.778%{opacity:0}100%{opacity:0}}.f3{opacity:0;animation:k3 2.4s steps(1,end) infinite}@keyframes k4{0%{opacity:0}27.778%{opacity:1}33.333%{opacity:0}100%{opacity:0}}.f4{opacity:0;animation:k4 2.4s steps(1,end) infinite}@keyframes k5{0%{opacity:0}33.333%{opacity:1}38.889%{opacity:0}100%{opacity:0}}.f5{opacity:0;animation:k5 2.4s steps(1,end) infinite}@keyframes k6{0%{opacity:0}38.889%{opacity:1}44.444%{opacity:0}100%{opacity:0}}.f6{opacity:0;animation:k6 2.4s steps(1,end) infinite}@keyframes k7{0%{opacity:0}44.444%{opacity:1}50.000%{opacity:0}100%{opacity:0}}.f7{opacity:0;animation:k7 2.4s steps(1,end) infinite}@keyframes k8{0%{opacity:0}50.000%{opacity:1}61.111%{opacity:0}100%{opacity:0}}.f8{opacity:0;animation:k8 2.4s steps(1,end) infinite}@keyframes k9{0%{opacity:0}61.111%{opacity:1}66.667%{opacity:0}100%{opacity:0}}.f9{opacity:0;animation:k9 2.4s steps(1,end) infinite}@keyframes k10{0%{opacity:0}66.667%{opacity:1}72.222%{opacity:0}100%{opacity:0}}.f10{opacity:0;animation:k10 2.4s steps(1,end) infinite}@keyframes k11{0%{opacity:0}72.222%{opacity:1}77.778%{opacity:0}100%{opacity:0}}.f11{opacity:0;animation:k11 2.4s steps(1,end) infinite}@keyframes k12{0%{opacity:0}77.778%{opacity:1}83.333%{opacity:0}100%{opacity:0}}.f12{opacity:0;animation:k12 2.4s steps(1,end) infinite}@keyframes k13{0%{opacity:0}83.333%{opacity:1}88.889%{opacity:0}100%{opacity:0}}.f13{opacity:0;animation:k13 2.4s steps(1,end) infinite}@keyframes k14{0%{opacity:0}88.889%{opacity:1}94.444%{opacity:0}100%{opacity:0}}.f14{opacity:0;animation:k14 2.4s steps(1,end) infinite}@keyframes k15{0%{opacity:0}94.444%{opacity:1}100%{opacity:1}}.f15{opacity:0;animation:k15 2.4s steps(1,end) infinite}</style><path d="M40.0,292.0 L440.0,292.0" fill="none" stroke="#1f3333" stroke-width="6" stroke-linecap="round" stroke-linejoin="round" opacity="1.0"/><path d="M313.0,196.0 L303.0,292.0" fill="none" stroke="#2dd4bf" stroke-width="21" stroke-linecap="round" stroke-linejoin="round" opacity="0.95"/><path d="M313.0,196.0 L303.0,292.0" fill="none" stroke="#0c2020" stroke-width="13" stroke-linecap="round" stroke-linejoin="round" opacity="1.0"/><path d="M313.0,196.0 L215.0,214.0" fill="none" stroke="#f43f5e" stroke-width="25" stroke-linecap="round" stroke-linejoin="round" opacity="0.95"/><path d="M313.0,196.0 L215.0,214.0" fill="none" stroke="#0c2020" stroke-width="17" stroke-linecap="round" stroke-linejoin="round" opacity="1.0"/><circle cx="341.0" cy="188.0" r="19.0" fill="#f43f5e" stroke="none" stroke-width="0" opacity="0.95"/><circle cx="341.0" cy="188.0" r="15.0" fill="#0c2020" stroke="none" stroke-width="6.3" opacity="1.0"/><path d="M331.7,185.0 L350.3,185.0" fill="none" stroke="#a7f3ee" stroke-width="5" stroke-linecap="round" stroke-linejoin="round" opacity="1.0"/><g class="f0"><path d="M215.0,214.0 L204.3,219.7 L193.6,225.5 L182.9,231.2 L172.2,236.9 L161.5,242.7 L151.6,249.6 L141.8,256.9 L132.1,264.1 L122.4,271.4 L112.7,278.7 L103.0,286.0" fill="none" stroke="#0d9488" stroke-width="21" stroke-linecap="round" stroke-linejoin="round" opacity="0.95"/><path d="M215.0,214.0 L204.3,219.7 L193.6,225.5 L182.9,231.2 L172.2,236.9 L161.5,242.7 L151.6,249.6 L141.8,256.9 L132.1,264.1 L122.4,271.4 L112.7,278.7 L103.0,286.0" fill="none" stroke="#0c2020" stroke-width="13" stroke-linecap="round" stroke-linejoin="round" opacity="1.0"/><path d="M215.0,214.0 L213.1,221.0 L211.1,228.0 L209.2,235.0 L207.2,241.9 L205.3,248.9 L210.8,248.0 L217.6,245.6 L224.5,243.2 L231.3,240.8 L238.2,238.4 L245.0,236.0" fill="none" stroke="#2dd4bf" stroke-width="21" stroke-linecap="round" stroke-linejoin="round" opacity="0.95"/><path d="M215.0,214.0 L213.1,221.0 L211.1,228.0 L209.2,235.0 L207.2,241.9 L205.3,248.9 L210.8,248.0 L217.6,245.6 L224.5,243.2 L231.3,240.8 L238.2,238.4 L245.0,236.0" fill="none" stroke="#0c2020" stroke-width="13" stroke-linecap="round" stroke-linejoin="round" opacity="1.0"/></g><g class="f1"><path d="M215.0,214.0 L204.7,219.8 L194.4,225.6 L184.0,231.4 L173.7,237.1 L163.4,242.9 L154.1,249.5 L145.1,256.4 L136.1,263.2 L127.1,270.1 L118.1,277.0 L109.1,283.9" fill="none" stroke="#0d9488" stroke-width="21" stroke-linecap="round" stroke-linejoin="round" opacity="0.95"/><path d="M215.0,214.0 L204.7,219.8 L194.4,225.6 L184.0,231.4 L173.7,237.1 L163.4,242.9 L154.1,249.5 L145.1,256.4 L136.1,263.2 L127.1,270.1 L118.1,277.0 L109.1,283.9" fill="none" stroke="#0c2020" stroke-width="13" stroke-linecap="round" stroke-linejoin="round" opacity="1.0"/><path d="M215.0,214.0 L212.7,220.9 L210.4,227.9 L208.1,234.8 L205.7,241.7 L203.4,248.7 L208.2,248.0 L214.4,246.1 L220.5,244.1 L226.6,242.1 L232.8,240.1 L238.9,238.1" fill="none" stroke="#2dd4bf" stroke-width="21" stroke-linecap="round" stroke-linejoin="round" opacity="0.95"/><path d="M215.0,214.0 L212.7,220.9 L210.4,227.9 L208.1,234.8 L205.7,241.7 L203.4,248.7 L208.2,248.0 L214.4,246.1 L220.5,244.1 L226.6,242.1 L232.8,240.1 L238.9,238.1" fill="none" stroke="#0c2020" stroke-width="13" stroke-linecap="round" stroke-linejoin="round" opacity="1.0"/></g><g class="f2"><path d="M215.0,214.0 L205.7,219.9 L196.3,225.9 L187.0,231.8 L177.7,237.7 L168.3,243.6 L160.8,249.3 L153.7,255.1 L146.6,260.9 L139.4,266.6 L132.3,272.4 L125.2,278.2" fill="none" stroke="#0d9488" stroke-width="21" stroke-linecap="round" stroke-linejoin="round" opacity="0.95"/><path d="M215.0,214.0 L205.7,219.9 L196.3,225.9 L187.0,231.8 L177.7,237.7 L168.3,243.6 L160.8,249.3 L153.7,255.1 L146.6,260.9 L139.4,266.6 L132.3,272.4 L125.2,278.2" fill="none" stroke="#0c2020" stroke-width="13" stroke-linecap="round" stroke-linejoin="round" opacity="1.0"/><path d="M215.0,214.0 L211.7,220.8 L208.4,227.6 L205.1,234.4 L201.8,241.2 L198.5,247.9 L201.5,248.2 L205.8,247.3 L210.0,246.5 L214.3,245.6 L218.6,244.7 L222.8,243.8" fill="none" stroke="#2dd4bf" stroke-width="21" stroke-linecap="round" stroke-linejoin="round" opacity="0.95"/><path d="M215.0,214.0 L211.7,220.8 L208.4,227.6 L205.1,234.4 L201.8,241.2 L198.5,247.9 L201.5,248.2 L205.8,247.3 L210.0,246.5 L214.3,245.6 L218.6,244.7 L222.8,243.8" fill="none" stroke="#0c2020" stroke-width="13" stroke-linecap="round" stroke-linejoin="round" opacity="1.0"/></g><g class="f3"><path d="M215.0,214.0 L207.1,220.1 L199.1,226.3 L191.2,232.4 L183.3,238.5 L175.4,244.6 L170.3,249.1 L165.8,253.3 L161.4,257.5 L156.9,261.7 L152.4,266.0 L147.9,270.2" fill="none" stroke="#0d9488" stroke-width="21" stroke-linecap="round" stroke-linejoin="round" opacity="0.95"/><path d="M215.0,214.0 L207.1,220.1 L199.1,226.3 L191.2,232.4 L183.3,238.5 L175.4,244.6 L170.3,249.1 L165.8,253.3 L161.4,257.5 L156.9,261.7 L152.4,266.0 L147.9,270.2" fill="none" stroke="#0c2020" stroke-width="13" stroke-linecap="round" stroke-linejoin="round" opacity="1.0"/><path d="M215.0,214.0 L210.3,220.6 L205.6,227.2 L200.9,233.8 L196.2,240.4 L191.4,246.9 L192.0,248.5 L193.7,249.2 L195.3,249.8 L196.9,250.5 L198.5,251.2 L200.1,251.8" fill="none" stroke="#2dd4bf" stroke-width="21" stroke-linecap="round" stroke-linejoin="round" opacity="0.95"/><path d="M215.0,214.0 L210.3,220.6 L205.6,227.2 L200.9,233.8 L196.2,240.4 L191.4,246.9 L192.0,248.5 L193.7,249.2 L195.3,249.8 L196.9,250.5 L198.5,251.2 L200.1,251.8" fill="none" stroke="#0c2020" stroke-width="13" stroke-linecap="round" stroke-linejoin="round" opacity="1.0"/></g><g class="f4"><path d="M215.0,214.0 L208.7,220.4 L202.4,226.7 L196.0,233.1 L189.7,239.4 L183.4,245.8 L181.2,248.8 L179.7,251.2 L178.3,253.7 L176.9,256.1 L175.4,258.6 L174.0,261.0" fill="none" stroke="#0d9488" stroke-width="21" stroke-linecap="round" stroke-linejoin="round" opacity="0.95"/><path d="M215.0,214.0 L208.7,220.4 L202.4,226.7 L196.0,233.1 L189.7,239.4 L183.4,245.8 L181.2,248.8 L179.7,251.2 L178.3,253.7 L176.9,256.1 L175.4,258.6 L174.0,261.0" fill="none" stroke="#0c2020" stroke-width="13" stroke-linecap="round" stroke-linejoin="round" opacity="1.0"/><path d="M215.0,214.0 L208.7,220.4 L202.4,226.7 L196.0,233.1 L189.7,239.4 L183.4,245.8 L181.2,248.8 L179.7,251.2 L178.3,253.7 L176.9,256.1 L175.4,258.6 L174.0,261.0" fill="none" stroke="#2dd4bf" stroke-width="21" stroke-linecap="round" stroke-linejoin="round" opacity="0.95"/><path d="M215.0,214.0 L208.7,220.4 L202.4,226.7 L196.0,233.1 L189.7,239.4 L183.4,245.8 L181.2,248.8 L179.7,251.2 L178.3,253.7 L176.9,256.1 L175.4,258.6 L174.0,261.0" fill="none" stroke="#0c2020" stroke-width="13" stroke-linecap="round" stroke-linejoin="round" opacity="1.0"/></g><g class="f5"><path d="M215.0,214.0 L210.3,220.6 L205.6,227.2 L200.9,233.8 L196.2,240.4 L191.4,246.9 L192.0,248.5 L193.7,249.2 L195.3,249.8 L196.9,250.5 L198.5,251.2 L200.1,251.8" fill="none" stroke="#0d9488" stroke-width="21" stroke-linecap="round" stroke-linejoin="round" opacity="0.95"/><path d="M215.0,214.0 L210.3,220.6 L205.6,227.2 L200.9,233.8 L196.2,240.4 L191.4,246.9 L192.0,248.5 L193.7,249.2 L195.3,249.8 L196.9,250.5 L198.5,251.2 L200.1,251.8" fill="none" stroke="#0c2020" stroke-width="13" stroke-linecap="round" stroke-linejoin="round" opacity="1.0"/><path d="M215.0,214.0 L207.1,220.1 L199.1,226.3 L191.2,232.4 L183.3,238.5 L175.4,244.6 L170.3,249.1 L165.8,253.3 L161.4,257.5 L156.9,261.7 L152.4,266.0 L147.9,270.2" fill="none" stroke="#2dd4bf" stroke-width="21" stroke-linecap="round" stroke-linejoin="round" opacity="0.95"/><path d="M215.0,214.0 L207.1,220.1 L199.1,226.3 L191.2,232.4 L183.3,238.5 L175.4,244.6 L170.3,249.1 L165.8,253.3 L161.4,257.5 L156.9,261.7 L152.4,266.0 L147.9,270.2" fill="none" stroke="#0c2020" stroke-width="13" stroke-linecap="round" stroke-linejoin="round" opacity="1.0"/></g><g class="f6"><path d="M215.0,214.0 L211.7,220.8 L208.4,227.6 L205.1,234.4 L201.8,241.2 L198.5,247.9 L201.5,248.2 L205.8,247.3 L210.0,246.5 L214.3,245.6 L218.6,244.7 L222.8,243.8" fill="none" stroke="#0d9488" stroke-width="21" stroke-linecap="round" stroke-linejoin="round" opacity="0.95"/><path d="M215.0,214.0 L211.7,220.8 L208.4,227.6 L205.1,234.4 L201.8,241.2 L198.5,247.9 L201.5,248.2 L205.8,247.3 L210.0,246.5 L214.3,245.6 L218.6,244.7 L222.8,243.8" fill="none" stroke="#0c2020" stroke-width="13" stroke-linecap="round" stroke-linejoin="round" opacity="1.0"/><path d="M215.0,214.0 L205.7,219.9 L196.3,225.9 L187.0,231.8 L177.7,237.7 L168.3,243.6 L160.8,249.3 L153.7,255.1 L146.6,260.9 L139.4,266.6 L132.3,272.4 L125.2,278.2" fill="none" stroke="#2dd4bf" stroke-width="21" stroke-linecap="round" stroke-linejoin="round" opacity="0.95"/><path d="M215.0,214.0 L205.7,219.9 L196.3,225.9 L187.0,231.8 L177.7,237.7 L168.3,243.6 L160.8,249.3 L153.7,255.1 L146.6,260.9 L139.4,266.6 L132.3,272.4 L125.2,278.2" fill="none" stroke="#0c2020" stroke-width="13" stroke-linecap="round" stroke-linejoin="round" opacity="1.0"/></g><g class="f7"><path d="M215.0,214.0 L212.7,220.9 L210.4,227.9 L208.1,234.8 L205.7,241.7 L203.4,248.7 L208.2,248.0 L214.4,246.1 L220.5,244.1 L226.6,242.1 L232.8,240.1 L238.9,238.1" fill="none" stroke="#0d9488" stroke-width="21" stroke-linecap="round" stroke-linejoin="round" opacity="0.95"/><path d="M215.0,214.0 L212.7,220.9 L210.4,227.9 L208.1,234.8 L205.7,241.7 L203.4,248.7 L208.2,248.0 L214.4,246.1 L220.5,244.1 L226.6,242.1 L232.8,240.1 L238.9,238.1" fill="none" stroke="#0c2020" stroke-width="13" stroke-linecap="round" stroke-linejoin="round" opacity="1.0"/><path d="M215.0,214.0 L204.7,219.8 L194.4,225.6 L184.0,231.4 L173.7,237.1 L163.4,242.9 L154.1,249.5 L145.1,256.4 L136.1,263.2 L127.1,270.1 L118.1,277.0 L109.1,283.9" fill="none" stroke="#2dd4bf" stroke-width="21" stroke-linecap="round" stroke-linejoin="round" opacity="0.95"/><path d="M215.0,214.0 L204.7,219.8 L194.4,225.6 L184.0,231.4 L173.7,237.1 L163.4,242.9 L154.1,249.5 L145.1,256.4 L136.1,263.2 L127.1,270.1 L118.1,277.0 L109.1,283.9" fill="none" stroke="#0c2020" stroke-width="13" stroke-linecap="round" stroke-linejoin="round" opacity="1.0"/></g><g class="f8"><path d="M215.0,214.0 L213.1,221.0 L211.1,228.0 L209.2,235.0 L207.2,241.9 L205.3,248.9 L210.8,248.0 L217.6,245.6 L224.5,243.2 L231.3,240.8 L238.2,238.4 L245.0,236.0" fill="none" stroke="#0d9488" stroke-width="21" stroke-linecap="round" stroke-linejoin="round" opacity="0.95"/><path d="M215.0,214.0 L213.1,221.0 L211.1,228.0 L209.2,235.0 L207.2,241.9 L205.3,248.9 L210.8,248.0 L217.6,245.6 L224.5,243.2 L231.3,240.8 L238.2,238.4 L245.0,236.0" fill="none" stroke="#0c2020" stroke-width="13" stroke-linecap="round" stroke-linejoin="round" opacity="1.0"/><path d="M215.0,214.0 L204.3,219.7 L193.6,225.5 L182.9,231.2 L172.2,236.9 L161.5,242.7 L151.6,249.6 L141.8,256.9 L132.1,264.1 L122.4,271.4 L112.7,278.7 L103.0,286.0" fill="none" stroke="#2dd4bf" stroke-width="21" stroke-linecap="round" stroke-linejoin="round" opacity="0.95"/><path d="M215.0,214.0 L204.3,219.7 L193.6,225.5 L182.9,231.2 L172.2,236.9 L161.5,242.7 L151.6,249.6 L141.8,256.9 L132.1,264.1 L122.4,271.4 L112.7,278.7 L103.0,286.0" fill="none" stroke="#0c2020" stroke-width="13" stroke-linecap="round" stroke-linejoin="round" opacity="1.0"/></g><g class="f9"><path d="M215.0,214.0 L212.7,220.9 L210.4,227.9 L208.1,234.8 L205.7,241.7 L203.4,248.7 L208.2,248.0 L214.4,246.1 L220.5,244.1 L226.6,242.1 L232.8,240.1 L238.9,238.1" fill="none" stroke="#0d9488" stroke-width="21" stroke-linecap="round" stroke-linejoin="round" opacity="0.95"/><path d="M215.0,214.0 L212.7,220.9 L210.4,227.9 L208.1,234.8 L205.7,241.7 L203.4,248.7 L208.2,248.0 L214.4,246.1 L220.5,244.1 L226.6,242.1 L232.8,240.1 L238.9,238.1" fill="none" stroke="#0c2020" stroke-width="13" stroke-linecap="round" stroke-linejoin="round" opacity="1.0"/><path d="M215.0,214.0 L204.7,219.8 L194.4,225.6 L184.0,231.4 L173.7,237.1 L163.4,242.9 L154.1,249.5 L145.1,256.4 L136.1,263.2 L127.1,270.1 L118.1,277.0 L109.1,283.9" fill="none" stroke="#2dd4bf" stroke-width="21" stroke-linecap="round" stroke-linejoin="round" opacity="0.95"/><path d="M215.0,214.0 L204.7,219.8 L194.4,225.6 L184.0,231.4 L173.7,237.1 L163.4,242.9 L154.1,249.5 L145.1,256.4 L136.1,263.2 L127.1,270.1 L118.1,277.0 L109.1,283.9" fill="none" stroke="#0c2020" stroke-width="13" stroke-linecap="round" stroke-linejoin="round" opacity="1.0"/></g><g class="f10"><path d="M215.0,214.0 L211.7,220.8 L208.4,227.6 L205.1,234.4 L201.8,241.2 L198.5,247.9 L201.5,248.2 L205.8,247.3 L210.0,246.5 L214.3,245.6 L218.6,244.7 L222.8,243.8" fill="none" stroke="#0d9488" stroke-width="21" stroke-linecap="round" stroke-linejoin="round" opacity="0.95"/><path d="M215.0,214.0 L211.7,220.8 L208.4,227.6 L205.1,234.4 L201.8,241.2 L198.5,247.9 L201.5,248.2 L205.8,247.3 L210.0,246.5 L214.3,245.6 L218.6,244.7 L222.8,243.8" fill="none" stroke="#0c2020" stroke-width="13" stroke-linecap="round" stroke-linejoin="round" opacity="1.0"/><path d="M215.0,214.0 L205.7,219.9 L196.3,225.9 L187.0,231.8 L177.7,237.7 L168.3,243.6 L160.8,249.3 L153.7,255.1 L146.6,260.9 L139.4,266.6 L132.3,272.4 L125.2,278.2" fill="none" stroke="#2dd4bf" stroke-width="21" stroke-linecap="round" stroke-linejoin="round" opacity="0.95"/><path d="M215.0,214.0 L205.7,219.9 L196.3,225.9 L187.0,231.8 L177.7,237.7 L168.3,243.6 L160.8,249.3 L153.7,255.1 L146.6,260.9 L139.4,266.6 L132.3,272.4 L125.2,278.2" fill="none" stroke="#0c2020" stroke-width="13" stroke-linecap="round" stroke-linejoin="round" opacity="1.0"/></g><g class="f11"><path d="M215.0,214.0 L210.3,220.6 L205.6,227.2 L200.9,233.8 L196.2,240.4 L191.4,246.9 L192.0,248.5 L193.7,249.2 L195.3,249.8 L196.9,250.5 L198.5,251.2 L200.1,251.8" fill="none" stroke="#0d9488" stroke-width="21" stroke-linecap="round" stroke-linejoin="round" opacity="0.95"/><path d="M215.0,214.0 L210.3,220.6 L205.6,227.2 L200.9,233.8 L196.2,240.4 L191.4,246.9 L192.0,248.5 L193.7,249.2 L195.3,249.8 L196.9,250.5 L198.5,251.2 L200.1,251.8" fill="none" stroke="#0c2020" stroke-width="13" stroke-linecap="round" stroke-linejoin="round" opacity="1.0"/><path d="M215.0,214.0 L207.1,220.1 L199.1,226.3 L191.2,232.4 L183.3,238.5 L175.4,244.6 L170.3,249.1 L165.8,253.3 L161.4,257.5 L156.9,261.7 L152.4,266.0 L147.9,270.2" fill="none" stroke="#2dd4bf" stroke-width="21" stroke-linecap="round" stroke-linejoin="round" opacity="0.95"/><path d="M215.0,214.0 L207.1,220.1 L199.1,226.3 L191.2,232.4 L183.3,238.5 L175.4,244.6 L170.3,249.1 L165.8,253.3 L161.4,257.5 L156.9,261.7 L152.4,266.0 L147.9,270.2" fill="none" stroke="#0c2020" stroke-width="13" stroke-linecap="round" stroke-linejoin="round" opacity="1.0"/></g><g class="f12"><path d="M215.0,214.0 L208.7,220.4 L202.4,226.7 L196.0,233.1 L189.7,239.4 L183.4,245.8 L181.2,248.8 L179.7,251.2 L178.3,253.7 L176.9,256.1 L175.4,258.6 L174.0,261.0" fill="none" stroke="#0d9488" stroke-width="21" stroke-linecap="round" stroke-linejoin="round" opacity="0.95"/><path d="M215.0,214.0 L208.7,220.4 L202.4,226.7 L196.0,233.1 L189.7,239.4 L183.4,245.8 L181.2,248.8 L179.7,251.2 L178.3,253.7 L176.9,256.1 L175.4,258.6 L174.0,261.0" fill="none" stroke="#0c2020" stroke-width="13" stroke-linecap="round" stroke-linejoin="round" opacity="1.0"/><path d="M215.0,214.0 L208.7,220.4 L202.4,226.7 L196.0,233.1 L189.7,239.4 L183.4,245.8 L181.2,248.8 L179.7,251.2 L178.3,253.7 L176.9,256.1 L175.4,258.6 L174.0,261.0" fill="none" stroke="#2dd4bf" stroke-width="21" stroke-linecap="round" stroke-linejoin="round" opacity="0.95"/><path d="M215.0,214.0 L208.7,220.4 L202.4,226.7 L196.0,233.1 L189.7,239.4 L183.4,245.8 L181.2,248.8 L179.7,251.2 L178.3,253.7 L176.9,256.1 L175.4,258.6 L174.0,261.0" fill="none" stroke="#0c2020" stroke-width="13" stroke-linecap="round" stroke-linejoin="round" opacity="1.0"/></g><g class="f13"><path d="M215.0,214.0 L207.1,220.1 L199.1,226.3 L191.2,232.4 L183.3,238.5 L175.4,244.6 L170.3,249.1 L165.8,253.3 L161.4,257.5 L156.9,261.7 L152.4,266.0 L147.9,270.2" fill="none" stroke="#0d9488" stroke-width="21" stroke-linecap="round" stroke-linejoin="round" opacity="0.95"/><path d="M215.0,214.0 L207.1,220.1 L199.1,226.3 L191.2,232.4 L183.3,238.5 L175.4,244.6 L170.3,249.1 L165.8,253.3 L161.4,257.5 L156.9,261.7 L152.4,266.0 L147.9,270.2" fill="none" stroke="#0c2020" stroke-width="13" stroke-linecap="round" stroke-linejoin="round" opacity="1.0"/><path d="M215.0,214.0 L210.3,220.6 L205.6,227.2 L200.9,233.8 L196.2,240.4 L191.4,246.9 L192.0,248.5 L193.7,249.2 L195.3,249.8 L196.9,250.5 L198.5,251.2 L200.1,251.8" fill="none" stroke="#2dd4bf" stroke-width="21" stroke-linecap="round" stroke-linejoin="round" opacity="0.95"/><path d="M215.0,214.0 L210.3,220.6 L205.6,227.2 L200.9,233.8 L196.2,240.4 L191.4,246.9 L192.0,248.5 L193.7,249.2 L195.3,249.8 L196.9,250.5 L198.5,251.2 L200.1,251.8" fill="none" stroke="#0c2020" stroke-width="13" stroke-linecap="round" stroke-linejoin="round" opacity="1.0"/></g><g class="f14"><path d="M215.0,214.0 L205.7,219.9 L196.3,225.9 L187.0,231.8 L177.7,237.7 L168.3,243.6 L160.8,249.3 L153.7,255.1 L146.6,260.9 L139.4,266.6 L132.3,272.4 L125.2,278.2" fill="none" stroke="#0d9488" stroke-width="21" stroke-linecap="round" stroke-linejoin="round" opacity="0.95"/><path d="M215.0,214.0 L205.7,219.9 L196.3,225.9 L187.0,231.8 L177.7,237.7 L168.3,243.6 L160.8,249.3 L153.7,255.1 L146.6,260.9 L139.4,266.6 L132.3,272.4 L125.2,278.2" fill="none" stroke="#0c2020" stroke-width="13" stroke-linecap="round" stroke-linejoin="round" opacity="1.0"/><path d="M215.0,214.0 L211.7,220.8 L208.4,227.6 L205.1,234.4 L201.8,241.2 L198.5,247.9 L201.5,248.2 L205.8,247.3 L210.0,246.5 L214.3,245.6 L218.6,244.7 L222.8,243.8" fill="none" stroke="#2dd4bf" stroke-width="21" stroke-linecap="round" stroke-linejoin="round" opacity="0.95"/><path d="M215.0,214.0 L211.7,220.8 L208.4,227.6 L205.1,234.4 L201.8,241.2 L198.5,247.9 L201.5,248.2 L205.8,247.3 L210.0,246.5 L214.3,245.6 L218.6,244.7 L222.8,243.8" fill="none" stroke="#0c2020" stroke-width="13" stroke-linecap="round" stroke-linejoin="round" opacity="1.0"/></g><g class="f15"><path d="M215.0,214.0 L204.7,219.8 L194.4,225.6 L184.0,231.4 L173.7,237.1 L163.4,242.9 L154.1,249.5 L145.1,256.4 L136.1,263.2 L127.1,270.1 L118.1,277.0 L109.1,283.9" fill="none" stroke="#0d9488" stroke-width="21" stroke-linecap="round" stroke-linejoin="round" opacity="0.95"/><path d="M215.0,214.0 L204.7,219.8 L194.4,225.6 L184.0,231.4 L173.7,237.1 L163.4,242.9 L154.1,249.5 L145.1,256.4 L136.1,263.2 L127.1,270.1 L118.1,277.0 L109.1,283.9" fill="none" stroke="#0c2020" stroke-width="13" stroke-linecap="round" stroke-linejoin="round" opacity="1.0"/><path d="M215.0,214.0 L212.7,220.9 L210.4,227.9 L208.1,234.8 L205.7,241.7 L203.4,248.7 L208.2,248.0 L214.4,246.1 L220.5,244.1 L226.6,242.1 L232.8,240.1 L238.9,238.1" fill="none" stroke="#2dd4bf" stroke-width="21" stroke-linecap="round" stroke-linejoin="round" opacity="0.95"/><path d="M215.0,214.0 L212.7,220.9 L210.4,227.9 L208.1,234.8 L205.7,241.7 L203.4,248.7 L208.2,248.0 L214.4,246.1 L220.5,244.1 L226.6,242.1 L232.8,240.1 L238.9,238.1" fill="none" stroke="#0c2020" stroke-width="13" stroke-linecap="round" stroke-linejoin="round" opacity="1.0"/></g></svg>
