<svg xmlns="http://www.w3.org/2000/svg" viewBox="0 0 480 320"><style>@keyframes k0{0%{opacity:1}11.111%{opacity:0}100%{opacity:0}}.f0{opacity:0;animation:k0 2.4s steps(1,end) infinite}@keyframes k1{0%{opacity:0}11.111%{opacity:1}16.667%{opacity:0}100%{opacity:0}}.f1{opacity:0;animation:k1 2.4s steps(1,end) infinite}@keyframes k2{0%{opacity:0}16.667%{opacity:1}22.222%{opacity:0}100%{opacity:0}}.f2{opacity:0;animation:k2 2.4s steps(1,end) infinite}@keyframes k3{0%{opacity:0}22.222%{opacity:1}27.778%{opacity:0}100%{opacity:0}}.f3{opacity:0;animation:k3 2.4s steps(1,end) infinite}@keyframes k4{0%{opacity:0}27.778%{opacity:1}33.333%{opacity:0}100%{opacity:0}}.f4{opacity:0;animation:k4 2.4s steps(1,end) infinite}@keyframes k5{0%{opacity:0}33.333%{opacity:1}38.889%{opacity:0}100%{opacity:0}}.f5{opacity:0;animation:k5 2.4s steps(1,end) infinite}@keyframes k6{0%{opacity:0}38.889%{opacity:1}44.444%{opacity:0}100%{opacity:0}}.f6{opacity:0;animation:k6 2.4s steps(1,end) infinite}@keyframes k7{0%{opacity:0}44.444%{opacity:1}50.000%{opacity:0}100%{opacity:0}}.f7{opacity:0;animation:k7 2.4s steps(1,end) infinite}@keyframes k8{0%{opacity:0}50.000%{opacity:1}61.111%{opacity:0}100%{opacity:0}}.f8{opacity:0;animation:k8 2.4s steps(1,end) infinite}@keyframes k9{0%{opacity:0}61.111%{opacity:1}66.667%{opacity:0}100%{opacity:0}}.f9{opacity:0;animation:k9 2.4s steps(1,end) infinite}@keyframes k10{0%{opacity:0}66.667%{opacity:1}72.222%{opacity:0}100%{opacity:0}}.f10{opacity:0;animation:k10 2.4s steps(1,end) infinite}@keyframes k11{0%{opacity:0}72.222%{opacity:1}77.778%{opacity:0}100%{opacity:0}}.f11{opacity:0;animation:k11 2.4s steps(1,end) infinite}@keyframes k12{0%{opacity:0}77.778%{opacity:1}83.333%{opacity:0}100%{opacity:0}}.f12{opacity:0;animation:k12 2.4s steps(1,end) infinite}@keyframes k13{0%{opacity:0}83.333%{opacity:1}88.889%{opacity:0}100%{opacity:0}}.f13{opacity:0;animation:k13 2.4s steps(1,end) infinite}@keyframes k14{0%{opacity:0}88.889%{opacity:1}94.444%{opacity:0}100%{opacity:0}}.f14{opacity:0;animation:k14 2.4s steps(1,end) infinite}@keyframes k15{0%{opacity:0}94.444%{opacity:1}100%{opacity:1}}.f15{opacity:0;animation:k15 2.4s steps(1,end) infinite}</style><path d="M40.0,292.0 L440.0,292.0" fill="none" stroke="#1f3333" stroke-width="6" stroke-linecap="round" stroke-linejoin="round" opacity="1.0"/><path d="M270.0,150.0 L272.0,220.0 L276.0,292.0" fill="none" stroke="#2dd4bf" stroke-width="19" stroke-linecap="round" stroke-linejoin="round" opacity="0.95"/><path d="M270.0,150.0 L272.0,220.0 L276.0,292.0" fill="none" stroke="#0c2020" stroke-width="11" stroke-linecap="round" stroke-linejoin="round" opacity="1.0"/><g class="f0"><path d="M188.0,216.0 L185.6,222.9 L183.3,229.8 L180.9,236.7 L178.5,243.6 L176.2,250.5 L173.8,257.5 L171.5,264.4 L169.1,271.3 L166.7,278.2 L164.4,285.1 L162.0,292.0" fill="none" stroke="#f43f5e" stroke-width="19" stroke-linecap="round" stroke-linejoin="round" opacity="0.95"/><path d="M188.0,216.0 L185.6,222.9 L183.3,229.8 L180.9,236.7 L178.5,243.6 L176.2,250.5 L173.8,257.5 L171.5,264.4 L169.1,271.3 L166.7,278.2 L164.4,285.1 L162.0,292.0" fill="none" stroke="#0c2020" stroke-width="11" stroke-linecap="round" stroke-linejoin="round" opacity="1.0"/><path d="M188.0,216.0 L195.5,210.0 L202.9,204.0 L210.4,198.0 L217.8,192.0 L225.3,186.0 L232.7,180.0 L240.2,174.0 L247.6,168.0 L255.1,162.0 L262.5,156.0 L270.0,150.0" fill="none" stroke="#2dd4bf" stroke-width="23" stroke-linecap="round" stroke-linejoin="round" opacity="0.95"/><path d="M188.0,216.0 L195.5,210.0 L202.9,204.0 L210.4,198.0 L217.8,192.0 L225.3,186.0 L232.7,180.0 L240.2,174.0 L247.6,168.0 L255.1,162.0 L262.5,156.0 L270.0,150.0" fill="none" stroke="#0c2020" stroke-width="15" stroke-linecap="round" stroke-linejoin="round" opacity="1.0"/><circle cx="178.0" cy="242.0" r="19.0" fill="#2dd4bf" stroke="none" stroke-width="0" opacity="0.95"/><circle cx="178.0" cy="242.0" r="15.0" fill="#0c2020" stroke="none" stroke-width="6.3" opacity="1.0"/><path d="M176.0,225.0 L173.0,228.0 L170.0,231.0 L167.1,233.9 L164.1,236.9 L161.1,239.9 L158.1,242.9 L157.5,246.5 L158.4,250.6 L159.3,254.8 L160.1,258.9 L161.0,263.0" fill="none" stroke="#2dd4bf" stroke-width="5" stroke-linecap="round" stroke-linejoin="round" opacity="1.0"/><path d="M168.7,239.0 L170.4,239.0 L172.1,239.0 L173.8,239.0 L175.5,239.0 L177.2,239.0 L178.8,239.0 L180.5,239.0 L182.2,239.0 L183.9,239.0 L185.6,239.0 L187.3,239.0" fill="none" stroke="#a7f3ee" stroke-width="5" stroke-linecap="round" stroke-linejoin="round" opacity="1.0"/></g><g class="f1"><path d="M187.6,217.5 L185.1,224.2 L182.6,230.9 L180.1,237.6 L177.6,244.3 L175.1,251.0 L172.9,257.8 L170.7,264.7 L168.5,271.5 L166.3,278.3 L164.2,285.2 L162.0,292.0" fill="none" stroke="#f43f5e" stroke-width="19" stroke-linecap="round" stroke-linejoin="round" opacity="0.95"/><path d="M187.6,217.5 L185.1,224.2 L182.6,230.9 L180.1,237.6 L177.6,244.3 L175.1,251.0 L172.9,257.8 L170.7,264.7 L168.5,271.5 L166.3,278.3 L164.2,285.2 L162.0,292.0" fill="none" stroke="#0c2020" stroke-width="11" stroke-linecap="round" stroke-linejoin="round" opacity="1.0"/><path d="M187.6,217.5 L195.1,211.4 L202.6,205.3 L210.1,199.1 L217.5,193.0 L225.0,186.8 L232.5,180.7 L240.0,174.6 L247.5,168.4 L255.0,162.3 L262.5,156.1 L270.0,150.0" fill="none" stroke="#2dd4bf" stroke-width="23" stroke-linecap="round" stroke-linejoin="round" opacity="0.95"/><path d="M187.6,217.5 L195.1,211.4 L202.6,205.3 L210.1,199.1 L217.5,193.0 L225.0,186.8 L232.5,180.7 L240.0,174.6 L247.5,168.4 L255.0,162.3 L262.5,156.1 L270.0,150.0" fill="none" stroke="#0c2020" stroke-width="15" stroke-linecap="round" stroke-linejoin="round" opacity="1.0"/><circle cx="177.7" cy="243.5" r="19.0" fill="#2dd4bf" stroke="none" stroke-width="0" opacity="0.95"/><circle cx="177.7" cy="243.5" r="15.0" fill="#0c2020" stroke="none" stroke-width="6.3" opacity="1.0"/><path d="M175.7,226.5 L172.7,229.4 L169.7,232.4 L166.7,235.4 L163.8,238.4 L160.8,241.3 L157.8,244.3 L157.2,248.0 L158.1,252.1 L158.9,256.2 L159.8,260.3 L160.7,264.5" fill="none" stroke="#2dd4bf" stroke-width="5" stroke-linecap="round" stroke-linejoin="round" opacity="1.0"/><path d="M168.4,240.5 L170.0,240.5 L171.7,240.5 L173.4,240.5 L175.1,240.5 L176.8,240.5 L178.5,240.5 L180.2,240.5 L181.9,240.5 L183.6,240.5 L185.3,240.5 L187.0,240.5" fill="none" stroke="#a7f3ee" stroke-width="5" stroke-linecap="round" stroke-linejoin="round" opacity="1.0"/></g><g class="f2"><path d="M186.4,221.6 L183.6,227.8 L180.8,233.9 L178.0,240.0 L175.1,246.1 L172.3,252.3 L170.3,258.8 L168.7,265.4 L167.0,272.1 L165.3,278.7 L163.7,285.4 L162.0,292.0" fill="none" stroke="#f43f5e" stroke-width="19" stroke-linecap="round" stroke-linejoin="round" opacity="0.95"/><path d="M186.4,221.6 L183.6,227.8 L180.8,233.9 L178.0,240.0 L175.1,246.1 L172.3,252.3 L170.3,258.8 L168.7,265.4 L167.0,272.1 L165.3,278.7 L163.7,285.4 L162.0,292.0" fill="none" stroke="#0c2020" stroke-width="11" stroke-linecap="round" stroke-linejoin="round" opacity="1.0"/><path d="M186.4,221.6 L194.0,215.1 L201.6,208.6 L209.2,202.1 L216.8,195.6 L224.4,189.1 L232.0,182.6 L239.6,176.0 L247.2,169.5 L254.8,163.0 L262.4,156.5 L270.0,150.0" fill="none" stroke="#2dd4bf" stroke-width="23" stroke-linecap="round" stroke-linejoin="round" opacity="0.95"/><path d="M186.4,221.6 L194.0,215.1 L201.6,208.6 L209.2,202.1 L216.8,195.6 L224.4,189.1 L232.0,182.6 L239.6,176.0 L247.2,169.5 L254.8,163.0 L262.4,156.5 L270.0,150.0" fill="none" stroke="#0c2020" stroke-width="15" stroke-linecap="round" stroke-linejoin="round" opacity="1.0"/><circle cx="176.8" cy="247.3" r="19.0" fill="#2dd4bf" stroke="none" stroke-width="0" opacity="0.95"/><circle cx="176.8" cy="247.3" r="15.0" fill="#0c2020" stroke="none" stroke-width="6.3" opacity="1.0"/><path d="M174.8,230.3 L171.8,233.3 L168.8,236.3 L165.8,239.2 L162.8,242.2 L159.9,245.2 L156.9,248.2 L156.3,251.8 L157.1,256.0 L158.0,260.1 L158.9,264.2 L159.8,268.3" fill="none" stroke="#2dd4bf" stroke-width="5" stroke-linecap="round" stroke-linejoin="round" opacity="1.0"/><path d="M167.4,244.3 L169.1,244.3 L170.8,244.3 L172.5,244.3 L174.2,244.3 L175.9,244.3 L177.6,244.3 L179.3,244.3 L181.0,244.3 L182.7,244.3 L184.4,244.3 L186.1,244.3" fill="none" stroke="#a7f3ee" stroke-width="5" stroke-linecap="round" stroke-linejoin="round" opacity="1.0"/></g><g class="f3"><path d="M184.8,227.4 L181.5,232.7 L178.2,238.0 L174.9,243.4 L171.7,248.7 L168.4,254.0 L166.8,260.1 L165.8,266.5 L164.9,272.9 L163.9,279.2 L163.0,285.6 L162.0,292.0" fill="none" stroke="#f43f5e" stroke-width="19" stroke-linecap="round" stroke-linejoin="round" opacity="0.95"/><path d="M184.8,227.4 L181.5,232.7 L178.2,238.0 L174.9,243.4 L171.7,248.7 L168.4,254.0 L166.8,260.1 L165.8,266.5 L164.9,272.9 L163.9,279.2 L163.0,285.6 L162.0,292.0" fill="none" stroke="#0c2020" stroke-width="11" stroke-linecap="round" stroke-linejoin="round" opacity="1.0"/><path d="M184.8,227.4 L192.6,220.4 L200.3,213.3 L208.1,206.3 L215.8,199.2 L223.5,192.2 L231.3,185.2 L239.0,178.1 L246.8,171.1 L254.5,164.1 L262.3,157.0 L270.0,150.0" fill="none" stroke="#2dd4bf" stroke-width="23" stroke-linecap="round" stroke-linejoin="round" opacity="0.95"/><path d="M184.8,227.4 L192.6,220.4 L200.3,213.3 L208.1,206.3 L215.8,199.2 L223.5,192.2 L231.3,185.2 L239.0,178.1 L246.8,171.1 L254.5,164.1 L262.3,157.0 L270.0,150.0" fill="none" stroke="#0c2020" stroke-width="15" stroke-linecap="round" stroke-linejoin="round" opacity="1.0"/><circle cx="175.5" cy="252.8" r="19.0" fill="#2dd4bf" stroke="none" stroke-width="0" opacity="0.95"/><circle cx="175.5" cy="252.8" r="15.0" fill="#0c2020" stroke="none" stroke-width="6.3" opacity="1.0"/><path d="M173.5,235.8 L170.5,238.7 L167.5,241.7 L164.5,244.7 L161.6,247.7 L158.6,250.6 L155.6,253.6 L155.0,257.3 L155.9,261.4 L156.7,265.5 L157.6,269.6 L158.5,273.8" fill="none" stroke="#2dd4bf" stroke-width="5" stroke-linecap="round" stroke-linejoin="round" opacity="1.0"/><path d="M166.2,249.8 L167.9,249.8 L169.6,249.8 L171.2,249.8 L172.9,249.8 L174.6,249.8 L176.3,249.8 L178.0,249.8 L179.7,249.8 L181.4,249.8 L183.1,249.8 L184.8,249.8" fill="none" stroke="#a7f3ee" stroke-width="5" stroke-linecap="round" stroke-linejoin="round" opacity="1.0"/></g><g class="f4"><path d="M183.0,234.0 L179.2,238.4 L175.3,242.8 L171.5,247.2 L167.6,251.6 L163.8,256.0 L162.7,261.6 L162.5,267.7 L162.4,273.8 L162.3,279.9 L162.1,285.9 L162.0,292.0" fill="none" stroke="#f43f5e" stroke-width="19" stroke-linecap="round" stroke-linejoin="round" opacity="0.95"/><path d="M183.0,234.0 L179.2,238.4 L175.3,242.8 L171.5,247.2 L167.6,251.6 L163.8,256.0 L162.7,261.6 L162.5,267.7 L162.4,273.8 L162.3,279.9 L162.1,285.9 L162.0,292.0" fill="none" stroke="#0c2020" stroke-width="11" stroke-linecap="round" stroke-linejoin="round" opacity="1.0"/><path d="M183.0,234.0 L190.9,226.4 L198.8,218.7 L206.7,211.1 L214.6,203.5 L222.5,195.8 L230.5,188.2 L238.4,180.5 L246.3,172.9 L254.2,165.3 L262.1,157.6 L270.0,150.0" fill="none" stroke="#2dd4bf" stroke-width="23" stroke-linecap="round" stroke-linejoin="round" opacity="0.95"/><path d="M183.0,234.0 L190.9,226.4 L198.8,218.7 L206.7,211.1 L214.6,203.5 L222.5,195.8 L230.5,188.2 L238.4,180.5 L246.3,172.9 L254.2,165.3 L262.1,157.6 L270.0,150.0" fill="none" stroke="#0c2020" stroke-width="15" stroke-linecap="round" stroke-linejoin="round" opacity="1.0"/><circle cx="174.0" cy="259.0" r="19.0" fill="#2dd4bf" stroke="none" stroke-width="0" opacity="0.95"/><circle cx="174.0" cy="259.0" r="15.0" fill="#0c2020" stroke="none" stroke-width="6.3" opacity="1.0"/><path d="M172.0,242.0 L169.0,245.0 L166.0,248.0 L163.1,250.9 L160.1,253.9 L157.1,256.9 L154.1,259.9 L153.5,263.5 L154.4,267.6 L155.3,271.8 L156.1,275.9 L157.0,280.0" fill="none" stroke="#2dd4bf" stroke-width="5" stroke-linecap="round" stroke-linejoin="round" opacity="1.0"/><path d="M164.7,256.0 L166.4,256.0 L168.1,256.0 L169.8,256.0 L171.5,256.0 L173.2,256.0 L174.8,256.0 L176.5,256.0 L178.2,256.0 L179.9,256.0 L181.6,256.0 L183.3,256.0" fill="none" stroke="#a7f3ee" stroke-width="5" stroke-linecap="round" stroke-linejoin="round" opacity="1.0"/></g><g class="f5"><path d="M181.2,240.6 L176.8,244.1 L172.4,247.6 L168.0,251.1 L163.6,254.5 L159.3,258.0 L158.6,263.2 L159.3,268.9 L159.9,274.7 L160.6,280.5 L161.3,286.2 L162.0,292.0" fill="none" stroke="#f43f5e" stroke-width="19" stroke-linecap="round" stroke-linejoin="round" opacity="0.95"/><path d="M181.2,240.6 L176.8,244.1 L172.4,247.6 L168.0,251.1 L163.6,254.5 L159.3,258.0 L158.6,263.2 L159.3,268.9 L159.9,274.7 L160.6,280.5 L161.3,286.2 L162.0,292.0" fill="none" stroke="#0c2020" stroke-width="11" stroke-linecap="round" stroke-linejoin="round" opacity="1.0"/><path d="M181.2,240.6 L189.2,232.4 L197.3,224.1 L205.4,215.9 L213.5,207.7 L221.5,199.4 L229.6,191.2 L237.7,182.9 L245.8,174.7 L253.8,166.5 L261.9,158.2 L270.0,150.0" fill="none" stroke="#2dd4bf" stroke-width="23" stroke-linecap="round" stroke-linejoin="round" opacity="0.95"/><path d="M181.2,240.6 L189.2,232.4 L197.3,224.1 L205.4,215.9 L213.5,207.7 L221.5,199.4 L229.6,191.2 L237.7,182.9 L245.8,174.7 L253.8,166.5 L261.9,158.2 L270.0,150.0" fill="none" stroke="#0c2020" stroke-width="15" stroke-linecap="round" stroke-linejoin="round" opacity="1.0"/><circle cx="172.5" cy="265.2" r="19.0" fill="#2dd4bf" stroke="none" stroke-width="0" opacity="0.95"/><circle cx="172.5" cy="265.2" r="15.0" fill="#0c2020" stroke="none" stroke-width="6.3" opacity="1.0"/><path d="M170.5,248.2 L167.6,251.2 L164.6,254.2 L161.6,257.2 L158.6,260.1 L155.7,263.1 L152.7,266.1 L152.1,269.8 L152.9,273.9 L153.8,278.0 L154.7,282.1 L155.5,286.2" fill="none" stroke="#2dd4bf" stroke-width="5" stroke-linecap="round" stroke-linejoin="round" opacity="1.0"/><path d="M163.2,262.2 L164.9,262.2 L166.6,262.2 L168.3,262.2 L170.0,262.2 L171.7,262.2 L173.4,262.2 L175.1,262.2 L176.8,262.2 L178.4,262.2 L180.1,262.2 L181.8,262.2" fill="none" stroke="#a7f3ee" stroke-width="5" stroke-linecap="round" stroke-linejoin="round" opacity="1.0"/></g><g class="f6"><path d="M179.6,246.4 L174.7,249.1 L169.9,251.7 L165.0,254.4 L160.2,257.1 L155.3,259.8 L155.0,264.5 L156.4,270.0 L157.8,275.5 L159.2,281.0 L160.6,286.5 L162.0,292.0" fill="none" stroke="#f43f5e" stroke-width="19" stroke-linecap="round" stroke-linejoin="round" opacity="0.95"/><path d="M179.6,246.4 L174.7,249.1 L169.9,251.7 L165.0,254.4 L160.2,257.1 L155.3,259.8 L155.0,264.5 L156.4,270.0 L157.8,275.5 L159.2,281.0 L160.6,286.5 L162.0,292.0" fill="none" stroke="#0c2020" stroke-width="11" stroke-linecap="round" stroke-linejoin="round" opacity="1.0"/><path d="M179.6,246.4 L187.8,237.6 L196.0,228.9 L204.2,220.1 L212.4,211.3 L220.7,202.6 L228.9,193.8 L237.1,185.0 L245.3,176.3 L253.6,167.5 L261.8,158.8 L270.0,150.0" fill="none" stroke="#2dd4bf" stroke-width="23" stroke-linecap="round" stroke-linejoin="round" opacity="0.95"/><path d="M179.6,246.4 L187.8,237.6 L196.0,228.9 L204.2,220.1 L212.4,211.3 L220.7,202.6 L228.9,193.8 L237.1,185.0 L245.3,176.3 L253.6,167.5 L261.8,158.8 L270.0,150.0" fill="none" stroke="#0c2020" stroke-width="15" stroke-linecap="round" stroke-linejoin="round" opacity="1.0"/><circle cx="171.2" cy="270.7" r="19.0" fill="#2dd4bf" stroke="none" stroke-width="0" opacity="0.95"/><circle cx="171.2" cy="270.7" r="15.0" fill="#0c2020" stroke="none" stroke-width="6.3" opacity="1.0"/><path d="M169.2,253.7 L166.3,256.7 L163.3,259.6 L160.3,262.6 L157.3,265.6 L154.4,268.6 L151.4,271.5 L150.8,275.2 L151.6,279.3 L152.5,283.5 L153.4,287.6 L154.2,291.7" fill="none" stroke="#2dd4bf" stroke-width="5" stroke-linecap="round" stroke-linejoin="round" opacity="1.0"/><path d="M161.9,267.7 L163.6,267.7 L165.3,267.7 L167.0,267.7 L168.7,267.7 L170.4,267.7 L172.1,267.7 L173.8,267.7 L175.5,267.7 L177.2,267.7 L178.9,267.7 L180.6,267.7" fill="none" stroke="#a7f3ee" stroke-width="5" stroke-linecap="round" stroke-linejoin="round" opacity="1.0"/></g><g class="f7"><path d="M178.4,250.5 L173.2,252.6 L168.1,254.7 L162.9,256.8 L157.7,258.9 L152.5,261.0 L152.5,265.5 L154.4,270.8 L156.3,276.1 L158.2,281.4 L160.1,286.7 L162.0,292.0" fill="none" stroke="#f43f5e" stroke-width="19" stroke-linecap="round" stroke-linejoin="round" opacity="0.95"/><path d="M178.4,250.5 L173.2,252.6 L168.1,254.7 L162.9,256.8 L157.7,258.9 L152.5,261.0 L152.5,265.5 L154.4,270.8 L156.3,276.1 L158.2,281.4 L160.1,286.7 L162.0,292.0" fill="none" stroke="#0c2020" stroke-width="11" stroke-linecap="round" stroke-linejoin="round" opacity="1.0"/><path d="M178.4,250.5 L186.8,241.3 L195.1,232.2 L203.4,223.1 L211.7,213.9 L220.1,204.8 L228.4,195.7 L236.7,186.5 L245.0,177.4 L253.4,168.3 L261.7,159.1 L270.0,150.0" fill="none" stroke="#2dd4bf" stroke-width="23" stroke-linecap="round" stroke-linejoin="round" opacity="0.95"/><path d="M178.4,250.5 L186.8,241.3 L195.1,232.2 L203.4,223.1 L211.7,213.9 L220.1,204.8 L228.4,195.7 L236.7,186.5 L245.0,177.4 L253.4,168.3 L261.7,159.1 L270.0,150.0" fill="none" stroke="#0c2020" stroke-width="15" stroke-linecap="round" stroke-linejoin="round" opacity="1.0"/><circle cx="170.3" cy="274.5" r="19.0" fill="#2dd4bf" stroke="none" stroke-width="0" opacity="0.95"/><circle cx="170.3" cy="274.5" r="15.0" fill="#0c2020" stroke="none" stroke-width="6.3" opacity="1.0"/><path d="M168.3,257.5 L165.4,260.5 L162.4,263.5 L159.4,266.5 L156.4,269.4 L153.5,272.4 L150.5,275.4 L149.9,279.1 L150.7,283.2 L151.6,287.3 L152.5,291.4 L153.3,295.5" fill="none" stroke="#2dd4bf" stroke-width="5" stroke-linecap="round" stroke-linejoin="round" opacity="1.0"/><path d="M161.0,271.5 L162.7,271.5 L164.4,271.5 L166.1,271.5 L167.8,271.5 L169.5,271.5 L171.2,271.5 L172.9,271.5 L174.6,271.5 L176.3,271.5 L178.0,271.5 L179.6,271.5" fill="none" stroke="#a7f3ee" stroke-width="5" stroke-linecap="round" stroke-linejoin="round" opacity="1.0"/></g><g class="f8"><path d="M178.0,252.0 L172.7,253.9 L167.4,255.8 L162.1,257.7 L156.8,259.6 L151.4,261.5 L151.5,265.8 L153.6,271.1 L155.7,276.3 L157.8,281.5 L159.9,286.8 L162.0,292.0" fill="none" stroke="#f43f5e" stroke-width="19" stroke-linecap="round" stroke-linejoin="round" opacity="0.95"/><path d="M178.0,252.0 L172.7,253.9 L167.4,255.8 L162.1,257.7 L156.8,259.6 L151.4,261.5 L151.5,265.8 L153.6,271.1 L155.7,276.3 L157.8,281.5 L159.9,286.8 L162.0,292.0" fill="none" stroke="#0c2020" stroke-width="11" stroke-linecap="round" stroke-linejoin="round" opacity="1.0"/><path d="M178.0,252.0 L186.4,242.7 L194.7,233.5 L203.1,224.2 L211.5,214.9 L219.8,205.6 L228.2,196.4 L236.5,187.1 L244.9,177.8 L253.3,168.5 L261.6,159.3 L270.0,150.0" fill="none" stroke="#2dd4bf" stroke-width="23" stroke-linecap="round" stroke-linejoin="round" opacity="0.95"/><path d="M178.0,252.0 L186.4,242.7 L194.7,233.5 L203.1,224.2 L211.5,214.9 L219.8,205.6 L228.2,196.4 L236.5,187.1 L244.9,177.8 L253.3,168.5 L261.6,159.3 L270.0,150.0" fill="none" stroke="#0c2020" stroke-width="15" stroke-linecap="round" stroke-linejoin="round" opacity="1.0"/><circle cx="170.0" cy="276.0" r="19.0" fill="#2dd4bf" stroke="none" stroke-width="0" opacity="0.95"/><circle cx="170.0" cy="276.0" r="15.0" fill="#0c2020" stroke="none" stroke-width="6.3" opacity="1.0"/><path d="M168.0,259.0 L165.0,262.0 L162.0,265.0 L159.1,267.9 L156.1,270.9 L153.1,273.9 L150.1,276.9 L149.5,280.5 L150.4,284.6 L151.3,288.8 L152.1,292.9 L153.0,297.0" fill="none" stroke="#2dd4bf" stroke-width="5" stroke-linecap="round" stroke-linejoin="round" opacity="1.0"/><path d="M160.7,273.0 L162.4,273.0 L164.1,273.0 L165.8,273.0 L167.5,273.0 L169.2,273.0 L170.8,273.0 L172.5,273.0 L174.2,273.0 L175.9,273.0 L177.6,273.0 L179.3,273.0" fill="none" stroke="#a7f3ee" stroke-width="5" stroke-linecap="round" stroke-linejoin="round" opacity="1.0"/></g><g class="f9"><path d="M178.4,250.5 L173.2,252.6 L168.1,254.7 L162.9,256.8 L157.7,258.9 L152.5,261.0 L152.5,265.5 L154.4,270.8 L156.3,276.1 L158.2,281.4 L160.1,286.7 L162.0,292.0" fill="none" stroke="#f43f5e" stroke-width="19" stroke-linecap="round" stroke-linejoin="round" opacity="0.95"/><path d="M178.4,250.5 L173.2,252.6 L168.1,254.7 L162.9,256.8 L157.7,258.9 L152.5,261.0 L152.5,265.5 L154.4,270.8 L156.3,276.1 L158.2,281.4 L160.1,286.7 L162.0,292.0" fill="none" stroke="#0c2020" stroke-width="11" stroke-linecap="round" stroke-linejoin="round" opacity="1.0"/><path d="M178.4,250.5 L186.8,241.3 L195.1,232.2 L203.4,223.1 L211.7,213.9 L220.1,204.8 L228.4,195.7 L236.7,186.5 L245.0,177.4 L253.4,168.3 L261.7,159.1 L270.0,150.0" fill="none" stroke="#2dd4bf" stroke-width="23" stroke-linecap="round" stroke-linejoin="round" opacity="0.95"/><path d="M178.4,250.5 L186.8,241.3 L195.1,232.2 L203.4,223.1 L211.7,213.9 L220.1,204.8 L228.4,195.7 L236.7,186.5 L245.0,177.4 L253.4,168.3 L261.7,159.1 L270.0,150.0" fill="none" stroke="#0c2020" stroke-width="15" stroke-linecap="round" stroke-linejoin="round" opacity="1.0"/><circle cx="170.3" cy="274.5" r="19.0" fill="#2dd4bf" stroke="none" stroke-width="0" opacity="0.95"/><circle cx="170.3" cy="274.5" r="15.0" fill="#0c2020" stroke="none" stroke-width="6.3" opacity="1.0"/><path d="M168.3,257.5 L165.4,260.5 L162.4,263.5 L159.4,266.5 L156.4,269.4 L153.5,272.4 L150.5,275.4 L149.9,279.1 L150.7,283.2 L151.6,287.3 L152.5,291.4 L153.3,295.5" fill="none" stroke="#2dd4bf" stroke-width="5" stroke-linecap="round" stroke-linejoin="round" opacity="1.0"/><path d="M161.0,271.5 L162.7,271.5 L164.4,271.5 L166.1,271.5 L167.8,271.5 L169.5,271.5 L171.2,271.5 L172.9,271.5 L174.6,271.5 L176.3,271.5 L178.0,271.5 L179.6,271.5" fill="none" stroke="#a7f3ee" stroke-width="5" stroke-linecap="round" stroke-linejoin="round" opacity="1.0"/></g><g class="f10"><path d="M179.6,246.4 L174.7,249.1 L169.9,251.7 L165.0,254.4 L160.2,257.1 L155.3,259.8 L155.0,264.5 L156.4,270.0 L157.8,275.5 L159.2,281.0 L160.6,286.5 L162.0,292.0" fill="none" stroke="#f43f5e" stroke-width="19" stroke-linecap="round" stroke-linejoin="round" opacity="0.95"/><path d="M179.6,246.4 L174.7,249.1 L169.9,251.7 L165.0,254.4 L160.2,257.1 L155.3,259.8 L155.0,264.5 L156.4,270.0 L157.8,275.5 L159.2,281.0 L160.6,286.5 L162.0,292.0" fill="none" stroke="#0c2020" stroke-width="11" stroke-linecap="round" stroke-linejoin="round" opacity="1.0"/><path d="M179.6,246.4 L187.8,237.6 L196.0,228.9 L204.2,220.1 L212.4,211.3 L220.7,202.6 L228.9,193.8 L237.1,185.0 L245.3,176.3 L253.6,167.5 L261.8,158.8 L270.0,150.0" fill="none" stroke="#2dd4bf" stroke-width="23" stroke-linecap="round" stroke-linejoin="round" opacity="0.95"/><path d="M179.6,246.4 L187.8,237.6 L196.0,228.9 L204.2,220.1 L212.4,211.3 L220.7,202.6 L228.9,193.8 L237.1,185.0 L245.3,176.3 L253.6,167.5 L261.8,158.8 L270.0,150.0" fill="none" stroke="#0c2020" stroke-width="15" stroke-linecap="round" stroke-linejoin="round" opacity="1.0"/><circle cx="171.2" cy="270.7" r="19.0" fill="#2dd4bf" stroke="none" stroke-width="0" opacity="0.95"/><circle cx="171.2" cy="270.7" r="15.0" fill="#0c2020" stroke="none" stroke-width="6.3" opacity="1.0"/><path d="M169.2,253.7 L166.3,256.7 L163.3,259.6 L160.3,262.6 L157.3,265.6 L154.4,268.6 L151.4,271.5 L150.8,275.2 L151.6,279.3 L152.5,283.5 L153.4,287.6 L154.2,291.7" fill="none" stroke="#2dd4bf" stroke-width="5" stroke-linecap="round" stroke-linejoin="round" opacity="1.0"/><path d="M161.9,267.7 L163.6,267.7 L165.3,267.7 L167.0,267.7 L168.7,267.7 L170.4,267.7 L172.1,267.7 L173.8,267.7 L175.5,267.7 L177.2,267.7 L178.9,267.7 L180.6,267.7" fill="none" stroke="#a7f3ee" stroke-width="5" stroke-linecap="round" stroke-linejoin="round" opacity="1.0"/></g><g class="f11"><path d="M181.2,240.6 L176.8,244.1 L172.4,247.6 L168.0,251.1 L163.6,254.5 L159.3,258.0 L158.6,263.2 L159.3,268.9 L159.9,274.7 L160.6,280.5 L161.3,286.2 L162.0,292.0" fill="none" stroke="#f43f5e" stroke-width="19" stroke-linecap="round" stroke-linejoin="round" opacity="0.95"/><path d="M181.2,240.6 L176.8,244.1 L172.4,247.6 L168.0,251.1 L163.6,254.5 L159.3,258.0 L158.6,263.2 L159.3,268.9 L159.9,274.7 L160.6,280.5 L161.3,286.2 L162.0,292.0" fill="none" stroke="#0c2020" stroke-width="11" stroke-linecap="round" stroke-linejoin="round" opacity="1.0"/><path d="M181.2,240.6 L189.2,232.4 L197.3,224.1 L205.4,215.9 L213.5,207.7 L221.5,199.4 L229.6,191.2 L237.7,182.9 L245.8,174.7 L253.8,166.5 L261.9,158.2 L270.0,150.0" fill="none" stroke="#2dd4bf" stroke-width="23" stroke-linecap="round" stroke-linejoin="round" opacity="0.95"/><path d="M181.2,240.6 L189.2,232.4 L197.3,224.1 L205.4,215.9 L213.5,207.7 L221.5,199.4 L229.6,191.2 L237.7,182.9 L245.8,174.7 L253.8,166.5 L261.9,158.2 L270.0,150.0" fill="none" stroke="#0c2020" stroke-width="15" stroke-linecap="round" stroke-linejoin="round" opacity="1.0"/><circle cx="172.5" cy="265.2" r="19.0" fill="#2dd4bf" stroke="none" stroke-width="0" opacity="0.95"/><circle cx="172.5" cy="265.2" r="15.0" fill="#0c2020" stroke="none" stroke-width="6.3" opacity="1.0"/><path d="M170.5,248.2 L167.6,251.2 L164.6,254.2 L161.6,257.2 L158.6,260.1 L155.7,263.1 L152.7,266.1 L152.1,269.8 L152.9,273.9 L153.8,278.0 L154.7,282.1 L155.5,286.2" fill="none" stroke="#2dd4bf" stroke-width="5" stroke-linecap="round" stroke-linejoin="round" opacity="1.0"/><path d="M163.2,262.2 L164.9,262.2 L166.6,262.2 L168.3,262.2 L170.0,262.2 L171.7,262.2 L173.4,262.2 L175.1,262.2 L176.8,262.2 L178.4,262.2 L180.1,262.2 L181.8,262.2" fill="none" stroke="#a7f3ee" stroke-width="5" stroke-linecap="round" stroke-linejoin="round" opacity="1.0"/></g><g class="f12"><path d="M183.0,234.0 L179.2,238.4 L175.3,242.8 L171.5,247.2 L167.6,251.6 L163.8,256.0 L162.7,261.6 L162.5,267.7 L162.4,273.8 L162.3,279.9 L162.1,285.9 L162.0,292.0" fill="none" stroke="#f43f5e" stroke-width="19" stroke-linecap="round" stroke-linejoin="round" opacity="0.95"/><path d="M183.0,234.0 L179.2,238.4 L175.3,242.8 L171.5,247.2 L167.6,251.6 L163.8,256.0 L162.7,261.6 L162.5,267.7 L162.4,273.8 L162.3,279.9 L162.1,285.9 L162.0,292.0" fill="none" stroke="#0c2020" stroke-width="11" stroke-linecap="round" stroke-linejoin="round" opacity="1.0"/><path d="M183.0,234.0 L190.9,226.4 L198.8,218.7 L206.7,211.1 L214.6,203.5 L222.5,195.8 L230.5,188.2 L238.4,180.5 L246.3,172.9 L254.2,165.3 L262.1,157.6 L270.0,150.0" fill="none" stroke="#2dd4bf" stroke-width="23" stroke-linecap="round" stroke-linejoin="round" opacity="0.95"/><path d="M183.0,234.0 L190.9,226.4 L198.8,218.7 L206.7,211.1 L214.6,203.5 L222.5,195.8 L230.5,188.2 L238.4,180.5 L246.3,172.9 L254.2,165.3 L262.1,157.6 L270.0,150.0" fill="none" stroke="#0c2020" stroke-width="15" stroke-linecap="round" stroke-linejoin="round" opacity="1.0"/><circle cx="174.0" cy="259.0" r="19.0" fill="#2dd4bf" stroke="none" stroke-width="0" opacity="0.95"/><circle cx="174.0" cy="259.0" r="15.0" fill="#0c2020" stroke="none" stroke-width="6.3" opacity="1.0"/><path d="M172.0,242.0 L169.0,245.0 L166.0,248.0 L163.1,250.9 L160.1,253.9 L157.1,256.9 L154.1,259.9 L153.5,263.5 L154.4,267.6 L155.3,271.8 L156.1,275.9 L157.0,280.0" fill="none" stroke="#2dd4bf" stroke-width="5" stroke-linecap="round" stroke-linejoin="round" opacity="1.0"/><path d="M164.7,256.0 L166.4,256.0 L168.1,256.0 L169.8,256.0 L171.5,256.0 L173.2,256.0 L174.8,256.0 L176.5,256.0 L178.2,256.0 L179.9,256.0 L181.6,256.0 L183.3,256.0" fill="none" stroke="#a7f3ee" stroke-width="5" stroke-linecap="round" stroke-linejoin="round" opacity="1.0"/></g><g class="f13"><path d="M184.8,227.4 L181.5,232.7 L178.2,238.0 L174.9,243.4 L171.7,248.7 L168.4,254.0 L166.8,260.1 L165.8,266.5 L164.9,272.9 L163.9,279.2 L163.0,285.6 L162.0,292.0" fill="none" stroke="#f43f5e" stroke-width="19" stroke-linecap="round" stroke-linejoin="round" opacity="0.95"/><path d="M184.8,227.4 L181.5,232.7 L178.2,238.0 L174.9,243.4 L171.7,248.7 L168.4,254.0 L166.8,260.1 L165.8,266.5 L164.9,272.9 L163.9,279.2 L163.0,285.6 L162.0,292.0" fill="none" stroke="#0c2020" stroke-width="11" stroke-linecap="round" stroke-linejoin="round" opacity="1.0"/><path d="M184.8,227.4 L192.6,220.4 L200.3,213.3 L208.1,206.3 L215.8,199.2 L223.5,192.2 L231.3,185.2 L239.0,178.1 L246.8,171.1 L254.5,164.1 L262.3,157.0 L270.0,150.0" fill="none" stroke="#2dd4bf" stroke-width="23" stroke-linecap="round" stroke-linejoin="round" opacity="0.95"/><path d="M184.8,227.4 L192.6,220.4 L200.3,213.3 L208.1,206.3 L215.8,199.2 L223.5,192.2 L231.3,185.2 L239.0,178.1 L246.8,171.1 L254.5,164.1 L262.3,157.0 L270.0,150.0" fill="none" stroke="#0c2020" stroke-width="15" stroke-linecap="round" stroke-linejoin="round" opacity="1.0"/><circle cx="175.5" cy="252.8" r="19.0" fill="#2dd4bf" stroke="none" stroke-width="0" opacity="0.95"/><circle cx="175.5" cy="252.8" r="15.0" fill="#0c2020" stroke="none" stroke-width="6.3" opacity="1.0"/><path d="M173.5,235.8 L170.5,238.7 L167.5,241.7 L164.5,244.7 L161.6,247.7 L158.6,250.6 L155.6,253.6 L155.0,257.3 L155.9,261.4 L156.7,265.5 L157.6,269.6 L158.5,273.8" fill="none" stroke="#2dd4bf" stroke-width="5" stroke-linecap="round" stroke-linejoin="round" opacity="1.0"/><path d="M166.2,249.8 L167.9,249.8 L169.6,249.8 L171.2,249.8 L172.9,249.8 L174.6,249.8 L176.3,249.8 L178.0,249.8 L179.7,249.8 L181.4,249.8 L183.1,249.8 L184.8,249.8" fill="none" stroke="#a7f3ee" stroke-width="5" stroke-linecap="round" stroke-linejoin="round" opacity="1.0"/></g><g class="f14"><path d="M186.4,221.6 L183.6,227.8 L180.8,233.9 L178.0,240.0 L175.1,246.1 L172.3,252.3 L170.3,258.8 L168.7,265.4 L167.0,272.1 L165.3,278.7 L163.7,285.4 L162.0,292.0" fill="none" stroke="#f43f5e" stroke-width="19" stroke-linecap="round" stroke-linejoin="round" opacity="0.95"/><path d="M186.4,221.6 L183.6,227.8 L180.8,233.9 L178.0,240.0 L175.1,246.1 L172.3,252.3 L170.3,258.8 L168.7,265.4 L167.0,272.1 L165.3,278.7 L163.7,285.4 L162.0,292.0" fill="none" stroke="#0c2020" stroke-width="11" stroke-linecap="round" stroke-linejoin="round" opacity="1.0"/><path d="M186.4,221.6 L194.0,215.1 L201.6,208.6 L209.2,202.1 L216.8,195.6 L224.4,189.1 L232.0,182.6 L239.6,176.0 L247.2,169.5 L254.8,163.0 L262.4,156.5 L270.0,150.0" fill="none" stroke="#2dd4bf" stroke-width="23" stroke-linecap="round" stroke-linejoin="round" opacity="0.95"/><path d="M186.4,221.6 L194.0,215.1 L201.6,208.6 L209.2,202.1 L216.8,195.6 L224.4,189.1 L232.0,182.6 L239.6,176.0 L247.2,169.5 L254.8,163.0 L262.4,156.5 L270.0,150.0" fill="none" stroke="#0c2020" stroke-width="15" stroke-linecap="round" stroke-linejoin="round" opacity="1.0"/><circle cx="176.8" cy="247.3" r="19.0" fill="#2dd4bf" stroke="none" stroke-width="0" opacity="0.95"/><circle cx="176.8" cy="247.3" r="15.0" fill="#0c2020" stroke="none" stroke-width="6.3" opacity="1.0"/><path d="M174.8,230.3 L171.8,233.3 L168.8,236.3 L165.8,239.2 L162.8,242.2 L159.9,245.2 L156.9,248.2 L156.3,251.8 L157.1,256.0 L158.0,260.1 L158.9,264.2 L159.8,268.3" fill="none" stroke="#2dd4bf" stroke-width="5" stroke-linecap="round" stroke-linejoin="round" opacity="1.0"/><path d="M167.4,244.3 L169.1,244.3 L170.8,244.3 L172.5,244.3 L174.2,244.3 L175.9,244.3 L177.6,244.3 L179.3,244.3 L181.0,244.3 L182.7,244.3 L184.4,244.3 L186.1,244.3" fill="none" stroke="#a7f3ee" stroke-width="5" stroke-linecap="round" stroke-linejoin="round" opacity="1.0"/></g><g class="f15"><path d="M187.6,217.5 L185.1,224.2 L182.6,230.9 L180.1,237.6 L177.6,244.3 L175.1,251.0 L172.9,257.8 L170.7,264.7 L168.5,271.5 L166.3,278.3 L164.2,285.2 L162.0,292.0" fill="none" stroke="#f43f5e" stroke-width="19" stroke-linecap="round" stroke-linejoin="round" opacity="0.95"/><path d="M187.6,217.5 L185.1,224.2 L182.6,230.9 L180.1,237.6 L177.6,244.3 L175.1,251.0 L172.9,257.8 L170.7,264.7 L168.5,271.5 L166.3,278.3 L164.2,285.2 L162.0,292.0" fill="none" stroke="#0c2020" stroke-width="11" stroke-linecap="round" stroke-linejoin="round" opacity="1.0"/><path d="M187.6,217.5 L195.1,211.4 L202.6,205.3 L210.1,199.1 L217.5,193.0 L225.0,186.8 L232.5,180.7 L240.0,174.6 L247.5,168.4 L255.0,162.3 L262.5,156.1 L270.0,150.0" fill="none" stroke="#2dd4bf" stroke-width="23" stroke-linecap="round" stroke-linejoin="round" opacity="0.95"/><path d="M187.6,217.5 L195.1,211.4 L202.6,205.3 L210.1,199.1 L217.5,193.0 L225.0,186.8 L232.5,180.7 L240.0,174.6 L247.5,168.4 L255.0,162.3 L262.5,156.1 L270.0,150.0" fill="none" stroke="#0c2020" stroke-width="15" stroke-linecap="round" stroke-linejoin="round" opacity="1.0"/><circle cx="177.7" cy="243.5" r="19.0" fill="#2dd4bf" stroke="none" stroke-width="0" opacity="0.95"/><circle cx="177.7" cy="243.5" r="15.0" fill="#0c2020" stroke="none" stroke-width="6.3" opacity="1.0"/><path d="M175.7,226.5 L172.7,229.4 L169.7,232.4 L166.7,235.4 L163.8,238.4 L160.8,241.3 L157.8,244.3 L157.2,248.0 L158.1,252.1 L158.9,256.2 L159.8,260.3 L160.7,264.5" fill="none" stroke="#2dd4bf" stroke-width="5" stroke-linecap="round" stroke-linejoin="round" opacity="1.0"/><path d="M168.4,240.5 L170.0,240.5 L171.7,240.5 L173.4,240.5 L175.1,240.5 L176.8,240.5 L178.5,240.5 L180.2,240.5 L181.9,240.5 L183.6,240.5 L185.3,240.5 L187.0,240.5" fill="none" stroke="#a7f3ee" stroke-width="5" stroke-linecap="round" stroke-linejoin="round" opacity="1.0"/></g></svg>
