<svg xmlns="http://www.w3.org/2000/svg" viewBox="0 0 480 320"><style>@keyframes k0{0%{opacity:1}11.111%{opacity:0}100%{opacity:0}}.f0{opacity:0;animation:k0 2.4s steps(1,end) infinite}@keyframes k1{0%{opacity:0}11.111%{opacity:1}16.667%{opacity:0}100%{opacity:0}}.f1{opacity:0;animation:k1 2.4s steps(1,end) infinite}@keyframes k2{0%{opacity:0}16.667%{opacity:1}22.222%{opacity:0}100%{opacity:0}}.f2{opacity:0;animation:k2 2.4s steps(1,end) infinite}@keyframes k3{0%{opacity:0}22.222%{opacity:1}27.778%{opacity:0}100%{opacity:0}}.f3{opacity:0;animation:k3 2.4s steps(1,end) infinite}@keyframes k4{0%{opacity:0}27.778%{opacity:1}33.333%{opacity:0}100%{opacity:0}}.f4{opacity:0;animation:k4 2.4s steps(1,end) infinite}@keyframes k5{0%{opacity:0}33.333%{opacity:1}38.889%{opacity:0}100%{opacity:0}}.f5{opacity:0;animation:k5 2.4s steps(1,end) infinite}@keyframes k6{0%{opacity:0}38.889%{opacity:1}44.444%{opacity:0}100%{opacity:0}}.f6{opacity:0;animation:k6 2.4s steps(1,end) infinite}@keyframes k7{0%{opacity:0}44.444%{opacity:1}50.000%{opacity:0}100%{opacity:0}}.f7{opacity:0;animation:k7 2.4s steps(1,end) infinite}@keyframes k8{0%{opacity:0}50.000%{opacity:1}61.111%{opacity:0}100%{opacity:0}}.f8{opacity:0;animation:k8 2.4s steps(1,end) infinite}@keyframes k9{0%{opacity:0}61.111%{opacity:1}66.667%{opacity:0}100%{opacity:0}}.f9{opacity:0;animation:k9 2.4s steps(1,end) infinite}@keyframes k10{0%{opacity:0}66.667%{opacity:1}72.222%{opacity:0}100%{opacity:0}}.f10{opacity:0;animation:k10 2.4s steps(1,end) infinite}@keyframes k11{0%{opacity:0}72.222%{opacity:1}77.778%{opacity:0}100%{opacity:0}}.f11{opacity:0;animation:k11 2.4s steps(1,end) infinite}@keyframes k12{0%{opacity:0}77.778%{opacity:1}83.333%{opacity:0}100%{opacity:0}}.f12{opacity:0;animation:k12 2.4s steps(1,end) infinite}@keyframes k13{0%{opacity:0}83.333%{opacity:1}88.889%{opacity:0}100%{opacity:0}}.f13{opacity:0;animation:k13 2.4s steps(1,end) infinite}@keyframes k14{0%{opacity:0}88.889%{opacity:1}94.444%{opacity:0}100%{opacity:0}}.f14{opacity:0;animation:k14 2.4s steps(1,end) infinite}@keyframes k15{0%{opacity:0}94.444%{opacity:1}100%{opacity:1}}.f15{opacity:0;animation:k15 2.4s steps(1,end) infinite}</style><path d="M40.0,292.0 L440.0,292.0" fill="none" stroke="#1f3333" stroke-width="6" stroke-linecap="round" stroke-linejoin="round" opacity="1.0"/><path d="M313.0,196.0 L295.0,292.0" fill="none" stroke="#0d9488" stroke-width="19" stroke-linecap="round" stroke-linejoin="round" opacity="0.95"/><path d="M313.0,196.0 L295.0,292.0" fill="none" stroke="#0c2020" stroke-width="11" stroke-linecap="round" stroke-linejoin="round" opacity="1.0"/><path d="M215.0,214.0 L159.0,244.0 L103.0,286.0" fill="none" stroke="#2dd4bf" stroke-width="19" stroke-linecap="round" stroke-linejoin="round" opacity="0.95"/><path d="M215.0,214.0 L159.0,244.0 L103.0,286.0" fill="none" stroke="#0c2020" stroke-width="11" stroke-linecap="round" stroke-linejoin="round" opacity="1.0"/><path d="M313.0,196.0 L215.0,214.0" fill="none" stroke="#f43f5e" stroke-width="23" stroke-linecap="round" stroke-linejoin="round" opacity="0.95"/><path d="M313.0,196.0 L215.0,214.0" fill="none" stroke="#0c2020" stroke-width="15" stroke-linecap="round" stroke-linejoin="round" opacity="1.0"/><circle cx="341.0" cy="188.0" r="19.0" fill="#f43f5e" stroke="none" stroke-width="0" opacity="0.95"/><circle cx="341.0" cy="188.0" r="15.0" fill="#0c2020" stroke="none" stroke-width="6.3" opacity="1.0"/><path d="M339.0,171.0 L320.0,190.0 L324.0,209.0" fill="none" stroke="#2dd4bf" stroke-width="5" stroke-linecap="round" stroke-linejoin="round" opacity="1.0"/><path d="M331.7,185.0 L350.3,185.0" fill="none" stroke="#a7f3ee" stroke-width="5" stroke-linecap="round" stroke-linejoin="round" opacity="1.0"/><g class="f0"><path d="M313.0,196.0 L312.6,204.7 L312.3,213.5 L311.9,222.2 L311.5,230.9 L311.2,239.6 L310.8,248.4 L310.5,257.1 L310.1,265.8 L309.7,274.5 L309.4,283.3 L309.0,292.0" fill="none" stroke="#2dd4bf" stroke-width="19" stroke-linecap="round" stroke-linejoin="round" opacity="0.95"/><path d="M313.0,196.0 L312.6,204.7 L312.3,213.5 L311.9,222.2 L311.5,230.9 L311.2,239.6 L310.8,248.4 L310.5,257.1 L310.1,265.8 L309.7,274.5 L309.4,283.3 L309.0,292.0" fill="none" stroke="#0c2020" stroke-width="11" stroke-linecap="round" stroke-linejoin="round" opacity="1.0"/></g><g class="f1"><path d="M313.0,196.0 L312.7,204.4 L312.4,212.8 L312.0,221.2 L311.7,229.6 L311.4,238.0 L311.1,246.4 L310.8,254.8 L310.5,263.3 L310.1,271.7 L309.8,280.1 L309.5,288.5" fill="none" stroke="#2dd4bf" stroke-width="19" stroke-linecap="round" stroke-linejoin="round" opacity="0.95"/><path d="M313.0,196.0 L312.7,204.4 L312.4,212.8 L312.0,221.2 L311.7,229.6 L311.4,238.0 L311.1,246.4 L310.8,254.8 L310.5,263.3 L310.1,271.7 L309.8,280.1 L309.5,288.5" fill="none" stroke="#0c2020" stroke-width="11" stroke-linecap="round" stroke-linejoin="round" opacity="1.0"/></g><g class="f2"><path d="M313.0,196.0 L312.8,203.6 L312.6,211.1 L312.4,218.7 L312.2,226.2 L312.0,233.8 L311.8,241.4 L311.6,248.9 L311.5,256.5 L311.3,264.1 L311.1,271.6 L310.9,279.2" fill="none" stroke="#2dd4bf" stroke-width="19" stroke-linecap="round" stroke-linejoin="round" opacity="0.95"/><path d="M313.0,196.0 L312.8,203.6 L312.6,211.1 L312.4,218.7 L312.2,226.2 L312.0,233.8 L311.8,241.4 L311.6,248.9 L311.5,256.5 L311.3,264.1 L311.1,271.6 L310.9,279.2" fill="none" stroke="#0c2020" stroke-width="11" stroke-linecap="round" stroke-linejoin="round" opacity="1.0"/></g><g class="f3"><path d="M313.0,196.0 L313.0,202.4 L313.0,208.7 L312.9,215.1 L312.9,221.5 L312.9,227.8 L312.9,234.2 L312.9,240.6 L312.9,246.9 L312.8,253.3 L312.8,259.7 L312.8,266.1" fill="none" stroke="#2dd4bf" stroke-width="19" stroke-linecap="round" stroke-linejoin="round" opacity="0.95"/><path d="M313.0,196.0 L313.0,202.4 L313.0,208.7 L312.9,215.1 L312.9,221.5 L312.9,227.8 L312.9,234.2 L312.9,240.6 L312.9,246.9 L312.8,253.3 L312.8,259.7 L312.8,266.1" fill="none" stroke="#0c2020" stroke-width="11" stroke-linecap="round" stroke-linejoin="round" opacity="1.0"/></g><g class="f4"><path d="M313.0,196.0 L313.2,201.0 L313.4,206.0 L313.5,211.0 L313.7,216.0 L313.9,221.0 L314.1,226.0 L314.3,231.0 L314.5,236.0 L314.6,241.0 L314.8,246.0 L315.0,251.0" fill="none" stroke="#2dd4bf" stroke-width="19" stroke-linecap="round" stroke-linejoin="round" opacity="0.95"/><path d="M313.0,196.0 L313.2,201.0 L313.4,206.0 L313.5,211.0 L313.7,216.0 L313.9,221.0 L314.1,226.0 L314.3,231.0 L314.5,236.0 L314.6,241.0 L314.8,246.0 L315.0,251.0" fill="none" stroke="#0c2020" stroke-width="11" stroke-linecap="round" stroke-linejoin="round" opacity="1.0"/></g><g class="f5"><path d="M313.0,196.0 L313.4,199.6 L313.8,203.3 L314.1,206.9 L314.5,210.5 L314.9,214.2 L315.3,217.8 L315.7,221.4 L316.1,225.1 L316.4,228.7 L316.8,232.3 L317.2,235.9" fill="none" stroke="#2dd4bf" stroke-width="19" stroke-linecap="round" stroke-linejoin="round" opacity="0.95"/><path d="M313.0,196.0 L313.4,199.6 L313.8,203.3 L314.1,206.9 L314.5,210.5 L314.9,214.2 L315.3,217.8 L315.7,221.4 L316.1,225.1 L316.4,228.7 L316.8,232.3 L317.2,235.9" fill="none" stroke="#0c2020" stroke-width="11" stroke-linecap="round" stroke-linejoin="round" opacity="1.0"/></g><g class="f6"><path d="M313.0,196.0 L313.6,198.4 L314.1,200.9 L314.7,203.3 L315.2,205.8 L315.8,208.2 L316.3,210.6 L316.9,213.1 L317.5,215.5 L318.0,217.9 L318.6,220.4 L319.1,222.8" fill="none" stroke="#2dd4bf" stroke-width="19" stroke-linecap="round" stroke-linejoin="round" opacity="0.95"/><path d="M313.0,196.0 L313.6,198.4 L314.1,200.9 L314.7,203.3 L315.2,205.8 L315.8,208.2 L316.3,210.6 L316.9,213.1 L317.5,215.5 L318.0,217.9 L318.6,220.4 L319.1,222.8" fill="none" stroke="#0c2020" stroke-width="11" stroke-linecap="round" stroke-linejoin="round" opacity="1.0"/></g><g class="f7"><path d="M313.0,196.0 L313.7,197.6 L314.4,199.2 L315.0,200.8 L315.7,202.4 L316.4,204.0 L317.1,205.6 L317.8,207.2 L318.4,208.7 L319.1,210.3 L319.8,211.9 L320.5,213.5" fill="none" stroke="#2dd4bf" stroke-width="19" stroke-linecap="round" stroke-linejoin="round" opacity="0.95"/><path d="M313.0,196.0 L313.7,197.6 L314.4,199.2 L315.0,200.8 L315.7,202.4 L316.4,204.0 L317.1,205.6 L317.8,207.2 L318.4,208.7 L319.1,210.3 L319.8,211.9 L320.5,213.5" fill="none" stroke="#0c2020" stroke-width="11" stroke-linecap="round" stroke-linejoin="round" opacity="1.0"/></g><g class="f8"><path d="M313.0,196.0 L313.7,197.3 L314.5,198.5 L315.2,199.8 L315.9,201.1 L316.6,202.4 L317.4,203.6 L318.1,204.9 L318.8,206.2 L319.5,207.5 L320.3,208.7 L321.0,210.0" fill="none" stroke="#2dd4bf" stroke-width="19" stroke-linecap="round" stroke-linejoin="round" opacity="0.95"/><path d="M313.0,196.0 L313.7,197.3 L314.5,198.5 L315.2,199.8 L315.9,201.1 L316.6,202.4 L317.4,203.6 L318.1,204.9 L318.8,206.2 L319.5,207.5 L320.3,208.7 L321.0,210.0" fill="none" stroke="#0c2020" stroke-width="11" stroke-linecap="round" stroke-linejoin="round" opacity="1.0"/></g><g class="f9"><path d="M313.0,196.0 L313.7,197.6 L314.4,199.2 L315.0,200.8 L315.7,202.4 L316.4,204.0 L317.1,205.6 L317.8,207.2 L318.4,208.7 L319.1,210.3 L319.8,211.9 L320.5,213.5" fill="none" stroke="#2dd4bf" stroke-width="19" stroke-linecap="round" stroke-linejoin="round" opacity="0.95"/><path d="M313.0,196.0 L313.7,197.6 L314.4,199.2 L315.0,200.8 L315.7,202.4 L316.4,204.0 L317.1,205.6 L317.8,207.2 L318.4,208.7 L319.1,210.3 L319.8,211.9 L320.5,213.5" fill="none" stroke="#0c2020" stroke-width="11" stroke-linecap="round" stroke-linejoin="round" opacity="1.0"/></g><g class="f10"><path d="M313.0,196.0 L313.6,198.4 L314.1,200.9 L314.7,203.3 L315.2,205.8 L315.8,208.2 L316.3,210.6 L316.9,213.1 L317.5,215.5 L318.0,217.9 L318.6,220.4 L319.1,222.8" fill="none" stroke="#2dd4bf" stroke-width="19" stroke-linecap="round" stroke-linejoin="round" opacity="0.95"/><path d="M313.0,196.0 L313.6,198.4 L314.1,200.9 L314.7,203.3 L315.2,205.8 L315.8,208.2 L316.3,210.6 L316.9,213.1 L317.5,215.5 L318.0,217.9 L318.6,220.4 L319.1,222.8" fill="none" stroke="#0c2020" stroke-width="11" stroke-linecap="round" stroke-linejoin="round" opacity="1.0"/></g><g class="f11"><path d="M313.0,196.0 L313.4,199.6 L313.8,203.3 L314.1,206.9 L314.5,210.5 L314.9,214.2 L315.3,217.8 L315.7,221.4 L316.1,225.1 L316.4,228.7 L316.8,232.3 L317.2,235.9" fill="none" stroke="#2dd4bf" stroke-width="19" stroke-linecap="round" stroke-linejoin="round" opacity="0.95"/><path d="M313.0,196.0 L313.4,199.6 L313.8,203.3 L314.1,206.9 L314.5,210.5 L314.9,214.2 L315.3,217.8 L315.7,221.4 L316.1,225.1 L316.4,228.7 L316.8,232.3 L317.2,235.9" fill="none" stroke="#0c2020" stroke-width="11" stroke-linecap="round" stroke-linejoin="round" opacity="1.0"/></g><g class="f12"><path d="M313.0,196.0 L313.2,201.0 L313.4,206.0 L313.5,211.0 L313.7,216.0 L313.9,221.0 L314.1,226.0 L314.3,231.0 L314.5,236.0 L314.6,241.0 L314.8,246.0 L315.0,251.0" fill="none" stroke="#2dd4bf" stroke-width="19" stroke-linecap="round" stroke-linejoin="round" opacity="0.95"/><path d="M313.0,196.0 L313.2,201.0 L313.4,206.0 L313.5,211.0 L313.7,216.0 L313.9,221.0 L314.1,226.0 L314.3,231.0 L314.5,236.0 L314.6,241.0 L314.8,246.0 L315.0,251.0" fill="none" stroke="#0c2020" stroke-width="11" stroke-linecap="round" stroke-linejoin="round" opacity="1.0"/></g><g class="f13"><path d="M313.0,196.0 L313.0,202.4 L313.0,208.7 L312.9,215.1 L312.9,221.5 L312.9,227.8 L312.9,234.2 L312.9,240.6 L312.9,246.9 L312.8,253.3 L312.8,259.7 L312.8,266.1" fill="none" stroke="#2dd4bf" stroke-width="19" stroke-linecap="round" stroke-linejoin="round" opacity="0.95"/><path d="M313.0,196.0 L313.0,202.4 L313.0,208.7 L312.9,215.1 L312.9,221.5 L312.9,227.8 L312.9,234.2 L312.9,240.6 L312.9,246.9 L312.8,253.3 L312.8,259.7 L312.8,266.1" fill="none" stroke="#0c2020" stroke-width="11" stroke-linecap="round" stroke-linejoin="round" opacity="1.0"/></g><g class="f14"><path d="M313.0,196.0 L312.8,203.6 L312.6,211.1 L312.4,218.7 L312.2,226.2 L312.0,233.8 L311.8,241.4 L311.6,248.9 L311.5,256.5 L311.3,264.1 L311.1,271.6 L310.9,279.2" fill="none" stroke="#2dd4bf" stroke-width="19" stroke-linecap="round" stroke-linejoin="round" opacity="0.95"/><path d="M313.0,196.0 L312.8,203.6 L312.6,211.1 L312.4,218.7 L312.2,226.2 L312.0,233.8 L311.8,241.4 L311.6,248.9 L311.5,256.5 L311.3,264.1 L311.1,271.6 L310.9,279.2" fill="none" stroke="#0c2020" stroke-width="11" stroke-linecap="round" stroke-linejoin="round" opacity="1.0"/></g><g class="f15"><path d="M313.0,196.0 L312.7,204.4 L312.4,212.8 L312.0,221.2 L311.7,229.6 L311.4,238.0 L311.1,246.4 L310.8,254.8 L310.5,263.3 L310.1,271.7 L309.8,280.1 L309.5,288.5" fill="none" stroke="#2dd4bf" stroke-width="19" stroke-linecap="round" stroke-linejoin="round" opacity="0.95"/><path d="M313.0,196.0 L312.7,204.4 L312.4,212.8 L312.0,221.2 L311.7,229.6 L311.4,238.0 L311.1,246.4 L310.8,254.8 L310.5,263.3 L310.1,271.7 L309.8,280.1 L309.5,288.5" fill="none" stroke="#0c2020" stroke-width="11" stroke-linecap="round" stroke-linejoin="round" opacity="1.0"/></g></svg>
