<svg xmlns="http://www.w3.org/2000/svg" viewBox="0 0 351.19 234.13"><style>g{transform-box:view-box;transform-origin:0 0}@keyframes m0{0%,90%,100%{transform:translate(215px,292px) scale(1,1);opacity:0.9}40%,50%{transform:translate(215px,292px) scale(1.36,1);opacity:0.9}}.m0{animation:m0 2.4s cubic-bezier(.45,0,.55,1) infinite}@keyframes m1{0%,90%,100%{transform:translate(0px,0px) rotate(91.19deg);}40%,50%{transform:translate(0px,0px) rotate(-12.26deg);}}.m1{animation:m1 2.4s cubic-bezier(.45,0,.55,1) infinite}@keyframes m2{0%,90%,100%{transform:scale(1.01,1);}40%,50%{transform:scale(0.99,1);}}.m2{animation:m2 2.4s cubic-bezier(.45,0,.55,1) infinite}@keyframes m3{0%,90%,100%{transform:translate(48.01px,0px) rotate(0deg);}40%,50%{transform:translate(47.07px,0px) rotate(4.13deg);}}.m3{animation:m3 2.4s cubic-bezier(.45,0,.55,1) infinite}@keyframes m4{0%,90%,100%{transform:scale(1.06,1);}40%,50%{transform:scale(0.94,1);}}.m4{animation:m4 2.4s cubic-bezier(.45,0,.55,1) infinite}@keyframes m5{0%,90%,100%{transform:translate(48.01px,0px) rotate(-91.19deg);}40%,50%{transform:translate(42.43px,0px) rotate(8.13deg);}}.m5{animation:m5 2.4s cubic-bezier(.45,0,.55,1) infinite}@media (prefers-reduced-motion:reduce){*{animation-play-state:paused!important}}</style><defs><linearGradient id="tn" x1="0" y1="0" x2="0" y2="1"><stop offset="0" stop-color="#061414"/><stop offset=".45" stop-color="#1f4a47"/><stop offset="1" stop-color="#061414"/></linearGradient><linearGradient id="tf" x1="0" y1="0" x2="0" y2="1"><stop offset="0" stop-color="#040c0c"/><stop offset=".45" stop-color="#102828"/><stop offset="1" stop-color="#040c0c"/></linearGradient><radialGradient id="hd" cx=".35" cy=".3" r=".75"><stop offset="0" stop-color="#2a5a57"/><stop offset=".55" stop-color="#0c2020"/><stop offset="1" stop-color="#050e0e"/></radialGradient><radialGradient id="sh"><stop offset="0" stop-color="#000" stop-opacity=".9"/><stop offset="1" stop-color="#000" stop-opacity="0"/></radialGradient><linearGradient id="fl" x1="0" y1="0" x2="0" y2="1"><stop offset="0" stop-color="#16302f"/><stop offset="1" stop-color="#16302f" stop-opacity="0"/></linearGradient></defs><g transform="translate(-77.5,-83.37)"><rect x="77.5" y="292" width="351.19" height="25.5" fill="url(#fl)"/><path d="M77.5,292 H428.69" fill="none" stroke="#26403f" stroke-width="3" stroke-linecap="round" stroke-linejoin="round"/><g class="m0"><ellipse rx="123" ry="8" fill="url(#sh)"/></g><g transform="translate(215,214) rotate(-10.41)"><g transform="translate(99.64,0) rotate(10.41)"><g transform="translate(0,0) rotate(100.62)"><circle r="8.5" fill="#0b6f66"/><path d="M0,0 H97.67" fill="none" stroke="#0b6f66" stroke-width="17" stroke-linecap="butt" stroke-linejoin="round"/><g transform="translate(97.67,0) rotate(-100.62)"><circle r="8.5" fill="#0b6f66"/></g></g></g></g><g transform="translate(215,214) rotate(-10.41)"><g transform="translate(99.64,0) rotate(10.41)"><g transform="translate(0,0) rotate(100.62)"><circle r="4.5" fill="#071313"/><rect y="-4.5" width="97.67" height="9" fill="url(#tf)"/><g transform="translate(97.67,0) rotate(-100.62)"><circle r="4.5" fill="#071313"/></g></g></g></g><g transform="translate(215,214) rotate(-10.41)"><circle r="11.5" fill="#f43f5e"/><path d="M0,0 H99.64" fill="none" stroke="#f43f5e" stroke-width="23" stroke-linecap="butt" stroke-linejoin="round"/><g transform="translate(99.64,0) rotate(10.41)"><circle r="11.5" fill="#f43f5e"/></g></g><g transform="translate(215,214) rotate(-10.41)"><circle r="7.5" fill="#0b1f1f"/><rect y="-7.5" width="99.64" height="15" fill="url(#tn)"/><g transform="translate(99.64,0) rotate(10.41)"><circle r="7.5" fill="#0b1f1f"/></g></g><g transform="translate(215,214) rotate(-10.41)"><g transform="translate(99.64,0) rotate(10.41)"><g transform="translate(0,0) rotate(-15.95)"><g transform="translate(29.12,0) rotate(15.95)"><path d="M-2,-17 L-21,2 L-17,21" fill="none" stroke="#2dd4bf" stroke-width="5" stroke-linecap="round" stroke-linejoin="round"/><circle r="19" fill="#f43f5e" opacity="0.95"/><circle r="15" fill="url(#hd)"/><path d="M-9.3,-3 H9.3" fill="none" stroke="#a7f3ee" stroke-width="5" stroke-linecap="round" stroke-linejoin="round"/></g></g></g></g><g transform="translate(215,214)"><g transform="translate(0,0) rotate(151.82)"><circle r="9.5" fill="#2dd4bf"/><path d="M0,0 H63.53" fill="none" stroke="#2dd4bf" stroke-width="19" stroke-linecap="butt" stroke-linejoin="round"/><g transform="translate(63.53,0) rotate(-8.69)"><circle r="9.5" fill="#2dd4bf"/><path d="M0,0 H70" fill="none" stroke="#2dd4bf" stroke-width="19" stroke-linecap="butt" stroke-linejoin="round"/><g transform="translate(70,0) rotate(-143.13)"><circle r="9.5" fill="#2dd4bf"/></g></g></g></g><g transform="translate(215,214)"><g transform="translate(0,0) rotate(151.82)"><circle r="5.5" fill="#0b1f1f"/><rect y="-5.5" width="63.53" height="11" fill="url(#tn)"/><g transform="translate(63.53,0) rotate(-8.69)"><circle r="5.5" fill="#0b1f1f"/><rect y="-5.5" width="70" height="11" fill="url(#tn)"/><g transform="translate(70,0) rotate(-143.13)"><circle r="5.5" fill="#0b1f1f"/></g></g></g></g><g transform="translate(215,214) rotate(-10.41)"><g transform="translate(99.64,0) rotate(10.41)"><g class="m1"><circle r="9.5" fill="#2dd4bf"/><g class="m2"><path d="M0,0 H47.54" fill="none" stroke="#2dd4bf" stroke-width="19" stroke-linecap="butt" stroke-linejoin="round"/></g><g class="m3"><circle r="9.5" fill="#2dd4bf"/><g class="m4"><path d="M0,0 H45.22" fill="none" stroke="#2dd4bf" stroke-width="19" stroke-linecap="butt" stroke-linejoin="round"/></g><g class="m5"><circle r="9.5" fill="#2dd4bf"/></g></g></g></g></g><g transform="translate(215,214) rotate(-10.41)"><g transform="translate(99.64,0) rotate(10.41)"><g class="m1"><circle r="5.5" fill="#0b1f1f"/><g class="m2"><rect y="-5.5" width="47.54" height="11" fill="url(#tn)"/></g><g class="m3"><circle r="5.5" fill="#0b1f1f"/><g class="m4"><rect y="-5.5" width="45.22" height="11" fill="url(#tn)"/></g><g class="m5"><circle r="5.5" fill="#0b1f1f"/></g></g></g></g></g></g></svg>
