<svg xmlns="http://www.w3.org/2000/svg" viewBox="0 0 307.5 205"><style>g{transform-box:view-box;transform-origin:0 0}@keyframes m0{0%,90%,100%{transform:translate(215px,292px) scale(1,1);opacity:0.9}40%,50%{transform:translate(215px,292px) scale(1.02,1);opacity:0.9}}.m0{animation:m0 2.4s cubic-bezier(.45,0,.55,1) infinite}@keyframes m1{0%,90%,100%{transform:rotate(149.35deg)}40%,50%{transform:rotate(160.91deg)}}.m1{animation:m1 2.4s cubic-bezier(.45,0,.55,1) infinite}@keyframes m2{0%,90%,100%{transform:scale(1,1)}40%,50%{transform:scale(0.88,1)}}.m2{animation:m2 2.4s cubic-bezier(.45,0,.55,1) infinite}@keyframes m3{0%,90%,100%{transform:translate(62.77px,0px) rotate(-3.51deg)}40%,50%{transform:translate(55.03px,0px) rotate(-6.62deg)}}.m3{animation:m3 2.4s cubic-bezier(.45,0,.55,1) infinite}@keyframes m4{0%,90%,100%{transform:scale(1,1)}40%,50%{transform:scale(0.89,1)}}.m4{animation:m4 2.4s cubic-bezier(.45,0,.55,1) infinite}@keyframes m5{0%,90%,100%{transform:translate(67.68px,0px) rotate(-145.84deg)}40%,50%{transform:translate(59.93px,0px) rotate(-154.29deg)}}.m5{animation:m5 2.4s cubic-bezier(.45,0,.55,1) infinite}@keyframes m6{0%,90%,100%{transform:rotate(154.23deg)}40%,50%{transform:rotate(145.01deg)}}.m6{animation:m6 2.4s cubic-bezier(.45,0,.55,1) infinite}@keyframes m7{0%,90%,100%{transform:scale(0.88,1)}40%,50%{transform:scale(1,1)}}.m7{animation:m7 2.4s cubic-bezier(.45,0,.55,1) infinite}@keyframes m8{0%,90%,100%{transform:translate(64.4px,0px) rotate(-13.63deg)}40%,50%{transform:translate(73.24px,0px) rotate(-5.77deg)}}.m8{animation:m8 2.4s cubic-bezier(.45,0,.55,1) infinite}@keyframes m9{0%,90%,100%{transform:scale(0.95,1)}40%,50%{transform:scale(1,1)}}.m9{animation:m9 2.4s cubic-bezier(.45,0,.55,1) infinite}@keyframes m10{0%,90%,100%{transform:translate(72.47px,0px) rotate(-140.6deg)}40%,50%{transform:translate(76.58px,0px) rotate(-139.24deg)}}.m10{animation:m10 2.4s cubic-bezier(.45,0,.55,1) infinite}@media (prefers-reduced-motion:reduce){*{animation-play-state:paused!important}}</style><defs><linearGradient id="tn" x1="0" y1="0" x2="0" y2="1"><stop offset="0" stop-color="#061414"/><stop offset=".45" stop-color="#1f4a47"/><stop offset="1" stop-color="#061414"/></linearGradient><linearGradient id="tf" x1="0" y1="0" x2="0" y2="1"><stop offset="0" stop-color="#040c0c"/><stop offset=".45" stop-color="#102828"/><stop offset="1" stop-color="#040c0c"/></linearGradient><radialGradient id="hd" cx=".35" cy=".3" r=".75"><stop offset="0" stop-color="#2a5a57"/><stop offset=".55" stop-color="#0c2020"/><stop offset="1" stop-color="#050e0e"/></radialGradient><radialGradient id="sh"><stop offset="0" stop-color="#000" stop-opacity=".9"/><stop offset="1" stop-color="#000" stop-opacity="0"/></radialGradient><linearGradient id="fl" x1="0" y1="0" x2="0" y2="1"><stop offset="0" stop-color="#16302f"/><stop offset="1" stop-color="#16302f" stop-opacity="0"/></linearGradient></defs><g transform="translate(-68.5,-115)"><rect x="68.5" y="292" width="307.5" height="28" fill="url(#fl)"/><path d="M68.5,292 H376" fill="none" stroke="#26403f" stroke-width="3" stroke-linecap="round" stroke-linejoin="round"/><g class="m0"><ellipse rx="124" ry="8" fill="url(#sh)"/></g><g transform="translate(215,214)"><g class="m1"><circle r="9.5" fill="#0b6f66"/><g class="m2"><path d="M0,0 H62.77" fill="none" stroke="#0b6f66" stroke-width="19" stroke-linecap="butt" stroke-linejoin="round"/></g><g class="m3"><circle r="9.5" fill="#0b6f66"/><g class="m4"><path d="M0,0 H67.68" fill="none" stroke="#0b6f66" stroke-width="19" stroke-linecap="butt" stroke-linejoin="round"/></g><g class="m5"><circle r="9.5" fill="#0b6f66"/></g></g></g></g><g transform="translate(215,214)"><g class="m1"><circle r="5.5" fill="#071313"/><g class="m2"><rect y="-5.5" width="62.77" height="11" fill="url(#tf)"/></g><g class="m3"><circle r="5.5" fill="#071313"/><g class="m4"><rect y="-5.5" width="67.68" height="11" fill="url(#tf)"/></g><g class="m5"><circle r="5.5" fill="#071313"/></g></g></g></g><g transform="translate(215,214) rotate(-10.41)"><g transform="translate(99.64,0) rotate(10.41)"><g transform="rotate(100.62)"><circle r="9.5" fill="#0b6f66"/><g transform="scale(1,1)"><path d="M0,0 H48.84" fill="none" stroke="#0b6f66" stroke-width="19" stroke-linecap="butt" stroke-linejoin="round"/></g><g transform="translate(48.84,0) rotate(0)"><circle r="9.5" fill="#0b6f66"/><g transform="scale(1,1)"><path d="M0,0 H48.84" fill="none" stroke="#0b6f66" stroke-width="19" stroke-linecap="butt" stroke-linejoin="round"/></g><g transform="translate(48.84,0) rotate(-100.62)"><circle r="11.5" fill="#0b6f66"/></g></g></g></g></g><g transform="translate(215,214) rotate(-10.41)"><g transform="translate(99.64,0) rotate(10.41)"><g transform="rotate(100.62)"><circle r="5.5" fill="#071313"/><g transform="scale(1,1)"><rect y="-5.5" width="48.84" height="11" fill="url(#tf)"/></g><g transform="translate(48.84,0) rotate(0)"><circle r="5.5" fill="#071313"/><g transform="scale(1,1)"><rect y="-5.5" width="48.84" height="11" fill="url(#tf)"/></g><g transform="translate(48.84,0) rotate(-100.62)"><circle r="7.5" fill="#173a38"/></g></g></g></g></g><g transform="translate(215,214) rotate(-10.41)"><circle r="12.5" fill="#f43f5e"/><g transform="scale(1,1)"><path d="M0,0 H99.64" fill="none" stroke="#f43f5e" stroke-width="25" stroke-linecap="butt" stroke-linejoin="round"/></g><g transform="translate(99.64,0) rotate(10.41)"><circle r="12.5" fill="#f43f5e"/></g></g><g transform="translate(215,214) rotate(-10.41)"><circle r="8.5" fill="#0b1f1f"/><g transform="scale(1,1)"><rect y="-8.5" width="99.64" height="17" fill="url(#tn)"/></g><g transform="translate(99.64,0) rotate(10.41)"><circle r="8.5" fill="#0b1f1f"/></g></g><g transform="translate(215,214) rotate(-10.41)"><g transform="translate(99.64,0) rotate(10.41)"><g transform="rotate(-15.95)"><g transform="translate(29.12,0) rotate(15.95)"><circle r="19" fill="#f43f5e" opacity="0.95"/><circle r="15" fill="url(#hd)"/><path d="M-0.75,-3 H12" fill="none" stroke="#a7f3ee" stroke-width="5" stroke-linecap="round" stroke-linejoin="round"/></g></g></g></g><g transform="translate(215,214)"><g class="m6"><circle r="10.5" fill="#2dd4bf"/><g class="m7"><path d="M0,0 H73.24" fill="none" stroke="#2dd4bf" stroke-width="21" stroke-linecap="butt" stroke-linejoin="round"/></g><g class="m8"><circle r="10.5" fill="#2dd4bf"/><g class="m9"><path d="M0,0 H76.58" fill="none" stroke="#2dd4bf" stroke-width="21" stroke-linecap="butt" stroke-linejoin="round"/></g><g class="m10"><circle r="10.5" fill="#2dd4bf"/></g></g></g></g><g transform="translate(215,214)"><g class="m6"><circle r="6.5" fill="#0b1f1f"/><g class="m7"><rect y="-6.5" width="73.24" height="13" fill="url(#tn)"/></g><g class="m8"><circle r="6.5" fill="#0b1f1f"/><g class="m9"><rect y="-6.5" width="76.58" height="13" fill="url(#tn)"/></g><g class="m10"><circle r="6.5" fill="#0b1f1f"/></g></g></g></g><g transform="translate(215,214) rotate(-10.41)"><g transform="translate(99.64,0) rotate(10.41)"><g transform="rotate(91.19)"><circle r="10.5" fill="#2dd4bf"/><g transform="scale(1,1)"><path d="M0,0 H48.01" fill="none" stroke="#2dd4bf" stroke-width="21" stroke-linecap="butt" stroke-linejoin="round"/></g><g transform="translate(48.01,0) rotate(0)"><circle r="10.5" fill="#2dd4bf"/><g transform="scale(1,1)"><path d="M0,0 H48.01" fill="none" stroke="#2dd4bf" stroke-width="21" stroke-linecap="butt" stroke-linejoin="round"/></g><g transform="translate(48.01,0) rotate(-91.19)"><circle r="12.5" fill="#2dd4bf"/></g></g></g></g></g><g transform="translate(215,214) rotate(-10.41)"><g transform="translate(99.64,0) rotate(10.41)"><g transform="rotate(91.19)"><circle r="6.5" fill="#0b1f1f"/><g transform="scale(1,1)"><rect y="-6.5" width="48.01" height="13" fill="url(#tn)"/></g><g transform="translate(48.01,0) rotate(0)"><circle r="6.5" fill="#0b1f1f"/><g transform="scale(1,1)"><rect y="-6.5" width="48.01" height="13" fill="url(#tn)"/></g><g transform="translate(48.01,0) rotate(-91.19)"><circle r="8.5" fill="#2f6e6a"/></g></g></g></g></g></g></svg>
