<svg xmlns="http://www.w3.org/2000/svg" viewBox="0 0 480 320"><style>@keyframes k0{0%{opacity:1}11.111%{opacity:0}100%{opacity:0}}.f0{opacity:0;animation:k0 2.4s steps(1,end) infinite}@keyframes k1{0%{opacity:0}11.111%{opacity:1}16.667%{opacity:0}100%{opacity:0}}.f1{opacity:0;animation:k1 2.4s steps(1,end) infinite}@keyframes k2{0%{opacity:0}16.667%{opacity:1}22.222%{opacity:0}100%{opacity:0}}.f2{opacity:0;animation:k2 2.4s steps(1,end) infinite}@keyframes k3{0%{opacity:0}22.222%{opacity:1}27.778%{opacity:0}100%{opacity:0}}.f3{opacity:0;animation:k3 2.4s steps(1,end) infinite}@keyframes k4{0%{opacity:0}27.778%{opacity:1}33.333%{opacity:0}100%{opacity:0}}.f4{opacity:0;animation:k4 2.4s steps(1,end) infinite}@keyframes k5{0%{opacity:0}33.333%{opacity:1}38.889%{opacity:0}100%{opacity:0}}.f5{opacity:0;animation:k5 2.4s steps(1,end) infinite}@keyframes k6{0%{opacity:0}38.889%{opacity:1}44.444%{opacity:0}100%{opacity:0}}.f6{opacity:0;animation:k6 2.4s steps(1,end) infinite}@keyframes k7{0%{opacity:0}44.444%{opacity:1}50.000%{opacity:0}100%{opacity:0}}.f7{opacity:0;animation:k7 2.4s steps(1,end) infinite}@keyframes k8{0%{opacity:0}50.000%{opacity:1}61.111%{opacity:0}100%{opacity:0}}.f8{opacity:0;animation:k8 2.4s steps(1,end) infinite}@keyframes k9{0%{opacity:0}61.111%{opacity:1}66.667%{opacity:0}100%{opacity:0}}.f9{opacity:0;animation:k9 2.4s steps(1,end) infinite}@keyframes k10{0%{opacity:0}66.667%{opacity:1}72.222%{opacity:0}100%{opacity:0}}.f10{opacity:0;animation:k10 2.4s steps(1,end) infinite}@keyframes k11{0%{opacity:0}72.222%{opacity:1}77.778%{opacity:0}100%{opacity:0}}.f11{opacity:0;animation:k11 2.4s steps(1,end) infinite}@keyframes k12{0%{opacity:0}77.778%{opacity:1}83.333%{opacity:0}100%{opacity:0}}.f12{opacity:0;animation:k12 2.4s steps(1,end) infinite}@keyframes k13{0%{opacity:0}83.333%{opacity:1}88.889%{opacity:0}100%{opacity:0}}.f13{opacity:0;animation:k13 2.4s steps(1,end) infinite}@keyframes k14{0%{opacity:0}88.889%{opacity:1}94.444%{opacity:0}100%{opacity:0}}.f14{opacity:0;animation:k14 2.4s steps(1,end) infinite}@keyframes k15{0%{opacity:0}94.444%{opacity:1}100%{opacity:1}}.f15{opacity:0;animation:k15 2.4s steps(1,end) infinite}</style><path d="M40.0,292.0 L440.0,292.0" fill="none" stroke="#1f3333" stroke-width="6" stroke-linecap="round" stroke-linejoin="round" opacity="1.0"/><path d="M313.0,196.0 L291.0,292.0 L321.0,292.0" fill="none" stroke="#2dd4bf" stroke-width="21" stroke-linecap="round" stroke-linejoin="round" opacity="0.95"/><path d="M313.0,196.0 L291.0,292.0 L321.0,292.0" fill="none" stroke="#0c2020" stroke-width="13" stroke-linecap="round" stroke-linejoin="round" opacity="1.0"/><circle cx="341.0" cy="188.0" r="19.0" fill="#f43f5e" stroke="none" stroke-width="0" opacity="0.95"/><circle cx="341.0" cy="188.0" r="15.0" fill="#0c2020" stroke="none" stroke-width="6.3" opacity="1.0"/><path d="M331.7,185.0 L350.3,185.0" fill="none" stroke="#a7f3ee" stroke-width="5" stroke-linecap="round" stroke-linejoin="round" opacity="1.0"/><g class="f0"><path d="M215.0,214.0 L204.3,219.7 L193.6,225.5 L182.9,231.2 L172.2,236.9 L161.5,242.7 L151.6,249.6 L141.8,256.9 L132.1,264.1 L122.4,271.4 L112.7,278.7 L103.0,286.0" fill="none" stroke="#2dd4bf" stroke-width="21" stroke-linecap="round" stroke-linejoin="round" opacity="0.95"/><path d="M215.0,214.0 L204.3,219.7 L193.6,225.5 L182.9,231.2 L172.2,236.9 L161.5,242.7 L151.6,249.6 L141.8,256.9 L132.1,264.1 L122.4,271.4 L112.7,278.7 L103.0,286.0" fill="none" stroke="#0c2020" stroke-width="13" stroke-linecap="round" stroke-linejoin="round" opacity="1.0"/><path d="M313.0,196.0 L304.1,197.6 L295.2,199.3 L286.3,200.9 L277.4,202.5 L268.5,204.2 L259.5,205.8 L250.6,207.5 L241.7,209.1 L232.8,210.7 L223.9,212.4 L215.0,214.0" fill="none" stroke="#f43f5e" stroke-width="25" stroke-linecap="round" stroke-linejoin="round" opacity="0.95"/><path d="M313.0,196.0 L304.1,197.6 L295.2,199.3 L286.3,200.9 L277.4,202.5 L268.5,204.2 L259.5,205.8 L250.6,207.5 L241.7,209.1 L232.8,210.7 L223.9,212.4 L215.0,214.0" fill="none" stroke="#0c2020" stroke-width="17" stroke-linecap="round" stroke-linejoin="round" opacity="1.0"/></g><g class="f1"><path d="M215.0,214.1 L204.3,219.8 L193.6,225.5 L182.9,231.3 L172.2,237.0 L161.5,242.7 L151.5,249.6 L141.8,256.9 L132.1,264.2 L122.4,271.4 L112.7,278.7 L103.0,286.0" fill="none" stroke="#2dd4bf" stroke-width="21" stroke-linecap="round" stroke-linejoin="round" opacity="0.95"/><path d="M215.0,214.1 L204.3,219.8 L193.6,225.5 L182.9,231.3 L172.2,237.0 L161.5,242.7 L151.5,249.6 L141.8,256.9 L132.1,264.2 L122.4,271.4 L112.7,278.7 L103.0,286.0" fill="none" stroke="#0c2020" stroke-width="13" stroke-linecap="round" stroke-linejoin="round" opacity="1.0"/><path d="M313.0,196.0 L304.1,197.6 L295.2,199.3 L286.3,200.9 L277.4,202.6 L268.5,204.2 L259.5,205.9 L250.6,207.5 L241.7,209.2 L232.8,210.8 L223.9,212.5 L215.0,214.1" fill="none" stroke="#f43f5e" stroke-width="25" stroke-linecap="round" stroke-linejoin="round" opacity="0.95"/><path d="M313.0,196.0 L304.1,197.6 L295.2,199.3 L286.3,200.9 L277.4,202.6 L268.5,204.2 L259.5,205.9 L250.6,207.5 L241.7,209.2 L232.8,210.8 L223.9,212.5 L215.0,214.1" fill="none" stroke="#0c2020" stroke-width="17" stroke-linecap="round" stroke-linejoin="round" opacity="1.0"/></g><g class="f2"><path d="M215.0,214.5 L204.3,220.1 L193.6,225.8 L182.8,231.4 L172.1,237.1 L161.4,242.7 L151.5,249.6 L141.8,256.9 L132.1,264.2 L122.4,271.5 L112.7,278.7 L103.0,286.0" fill="none" stroke="#2dd4bf" stroke-width="21" stroke-linecap="round" stroke-linejoin="round" opacity="0.95"/><path d="M215.0,214.5 L204.3,220.1 L193.6,225.8 L182.8,231.4 L172.1,237.1 L161.4,242.7 L151.5,249.6 L141.8,256.9 L132.1,264.2 L122.4,271.5 L112.7,278.7 L103.0,286.0" fill="none" stroke="#0c2020" stroke-width="13" stroke-linecap="round" stroke-linejoin="round" opacity="1.0"/><path d="M313.0,196.0 L304.1,197.7 L295.2,199.4 L286.3,201.0 L277.4,202.7 L268.5,204.4 L259.5,206.1 L250.6,207.8 L241.7,209.4 L232.8,211.1 L223.9,212.8 L215.0,214.5" fill="none" stroke="#f43f5e" stroke-width="25" stroke-linecap="round" stroke-linejoin="round" opacity="0.95"/><path d="M313.0,196.0 L304.1,197.7 L295.2,199.4 L286.3,201.0 L277.4,202.7 L268.5,204.4 L259.5,206.1 L250.6,207.8 L241.7,209.4 L232.8,211.1 L223.9,212.8 L215.0,214.5" fill="none" stroke="#0c2020" stroke-width="17" stroke-linecap="round" stroke-linejoin="round" opacity="1.0"/></g><g class="f3"><path d="M215.0,214.9 L204.3,220.5 L193.5,226.1 L182.8,231.7 L172.0,237.2 L161.3,242.8 L151.4,249.7 L141.7,257.0 L132.0,264.2 L122.4,271.5 L112.7,278.7 L103.0,286.0" fill="none" stroke="#2dd4bf" stroke-width="21" stroke-linecap="round" stroke-linejoin="round" opacity="0.95"/><path d="M215.0,214.9 L204.3,220.5 L193.5,226.1 L182.8,231.7 L172.0,237.2 L161.3,242.8 L151.4,249.7 L141.7,257.0 L132.0,264.2 L122.4,271.5 L112.7,278.7 L103.0,286.0" fill="none" stroke="#0c2020" stroke-width="13" stroke-linecap="round" stroke-linejoin="round" opacity="1.0"/><path d="M313.0,196.0 L304.1,197.7 L295.2,199.4 L286.3,201.2 L277.4,202.9 L268.5,204.6 L259.5,206.3 L250.6,208.1 L241.7,209.8 L232.8,211.5 L223.9,213.2 L215.0,214.9" fill="none" stroke="#f43f5e" stroke-width="25" stroke-linecap="round" stroke-linejoin="round" opacity="0.95"/><path d="M313.0,196.0 L304.1,197.7 L295.2,199.4 L286.3,201.2 L277.4,202.9 L268.5,204.6 L259.5,206.3 L250.6,208.1 L241.7,209.8 L232.8,211.5 L223.9,213.2 L215.0,214.9" fill="none" stroke="#0c2020" stroke-width="17" stroke-linecap="round" stroke-linejoin="round" opacity="1.0"/></g><g class="f4"><path d="M215.0,215.5 L204.2,221.0 L193.5,226.5 L182.7,231.9 L172.0,237.4 L161.2,242.9 L151.3,249.8 L141.6,257.0 L132.0,264.3 L122.3,271.5 L112.7,278.8 L103.0,286.0" fill="none" stroke="#2dd4bf" stroke-width="21" stroke-linecap="round" stroke-linejoin="round" opacity="0.95"/><path d="M215.0,215.5 L204.2,221.0 L193.5,226.5 L182.7,231.9 L172.0,237.4 L161.2,242.9 L151.3,249.8 L141.6,257.0 L132.0,264.3 L122.3,271.5 L112.7,278.8 L103.0,286.0" fill="none" stroke="#0c2020" stroke-width="13" stroke-linecap="round" stroke-linejoin="round" opacity="1.0"/><path d="M313.0,196.0 L304.1,197.8 L295.2,199.5 L286.3,201.3 L277.4,203.1 L268.5,204.9 L259.5,206.6 L250.6,208.4 L241.7,210.2 L232.8,212.0 L223.9,213.7 L215.0,215.5" fill="none" stroke="#f43f5e" stroke-width="25" stroke-linecap="round" stroke-linejoin="round" opacity="0.95"/><path d="M313.0,196.0 L304.1,197.8 L295.2,199.5 L286.3,201.3 L277.4,203.1 L268.5,204.9 L259.5,206.6 L250.6,208.4 L241.7,210.2 L232.8,212.0 L223.9,213.7 L215.0,215.5" fill="none" stroke="#0c2020" stroke-width="17" stroke-linecap="round" stroke-linejoin="round" opacity="1.0"/></g><g class="f5"><path d="M215.0,216.1 L204.2,221.4 L193.4,226.8 L182.6,232.2 L171.9,237.6 L161.1,243.0 L151.2,249.8 L141.6,257.1 L131.9,264.3 L122.3,271.5 L112.6,278.8 L103.0,286.0" fill="none" stroke="#2dd4bf" stroke-width="21" stroke-linecap="round" stroke-linejoin="round" opacity="0.95"/><path d="M215.0,216.1 L204.2,221.4 L193.4,226.8 L182.6,232.2 L171.9,237.6 L161.1,243.0 L151.2,249.8 L141.6,257.1 L131.9,264.3 L122.3,271.5 L112.6,278.8 L103.0,286.0" fill="none" stroke="#0c2020" stroke-width="13" stroke-linecap="round" stroke-linejoin="round" opacity="1.0"/><path d="M313.0,196.0 L304.1,197.8 L295.2,199.6 L286.3,201.5 L277.4,203.3 L268.5,205.1 L259.5,206.9 L250.6,208.8 L241.7,210.6 L232.8,212.4 L223.9,214.2 L215.0,216.1" fill="none" stroke="#f43f5e" stroke-width="25" stroke-linecap="round" stroke-linejoin="round" opacity="0.95"/><path d="M313.0,196.0 L304.1,197.8 L295.2,199.6 L286.3,201.5 L277.4,203.3 L268.5,205.1 L259.5,206.9 L250.6,208.8 L241.7,210.6 L232.8,212.4 L223.9,214.2 L215.0,216.1" fill="none" stroke="#0c2020" stroke-width="17" stroke-linecap="round" stroke-linejoin="round" opacity="1.0"/></g><g class="f6"><path d="M215.0,216.5 L204.2,221.8 L193.4,227.1 L182.6,232.4 L171.8,237.7 L161.0,243.0 L151.1,249.9 L141.5,257.1 L131.9,264.3 L122.3,271.6 L112.6,278.8 L103.0,286.0" fill="none" stroke="#2dd4bf" stroke-width="21" stroke-linecap="round" stroke-linejoin="round" opacity="0.95"/><path d="M215.0,216.5 L204.2,221.8 L193.4,227.1 L182.6,232.4 L171.8,237.7 L161.0,243.0 L151.1,249.9 L141.5,257.1 L131.9,264.3 L122.3,271.6 L112.6,278.8 L103.0,286.0" fill="none" stroke="#0c2020" stroke-width="13" stroke-linecap="round" stroke-linejoin="round" opacity="1.0"/><path d="M313.0,196.0 L304.1,197.9 L295.2,199.7 L286.3,201.6 L277.4,203.5 L268.5,205.3 L259.5,207.2 L250.6,209.1 L241.7,210.9 L232.8,212.8 L223.9,214.7 L215.0,216.5" fill="none" stroke="#f43f5e" stroke-width="25" stroke-linecap="round" stroke-linejoin="round" opacity="0.95"/><path d="M313.0,196.0 L304.1,197.9 L295.2,199.7 L286.3,201.6 L277.4,203.5 L268.5,205.3 L259.5,207.2 L250.6,209.1 L241.7,210.9 L232.8,212.8 L223.9,214.7 L215.0,216.5" fill="none" stroke="#0c2020" stroke-width="17" stroke-linecap="round" stroke-linejoin="round" opacity="1.0"/></g><g class="f7"><path d="M215.0,216.9 L204.2,222.1 L193.4,227.4 L182.5,232.6 L171.7,237.8 L160.9,243.1 L151.1,249.9 L141.5,257.2 L131.8,264.4 L122.2,271.6 L112.6,278.8 L103.0,286.0" fill="none" stroke="#2dd4bf" stroke-width="21" stroke-linecap="round" stroke-linejoin="round" opacity="0.95"/><path d="M215.0,216.9 L204.2,222.1 L193.4,227.4 L182.5,232.6 L171.7,237.8 L160.9,243.1 L151.1,249.9 L141.5,257.2 L131.8,264.4 L122.2,271.6 L112.6,278.8 L103.0,286.0" fill="none" stroke="#0c2020" stroke-width="13" stroke-linecap="round" stroke-linejoin="round" opacity="1.0"/><path d="M313.0,196.0 L304.1,197.9 L295.2,199.8 L286.3,201.7 L277.4,203.6 L268.5,205.5 L259.5,207.4 L250.6,209.3 L241.7,211.2 L232.8,213.1 L223.9,215.0 L215.0,216.9" fill="none" stroke="#f43f5e" stroke-width="25" stroke-linecap="round" stroke-linejoin="round" opacity="0.95"/><path d="M313.0,196.0 L304.1,197.9 L295.2,199.8 L286.3,201.7 L277.4,203.6 L268.5,205.5 L259.5,207.4 L250.6,209.3 L241.7,211.2 L232.8,213.1 L223.9,215.0 L215.0,216.9" fill="none" stroke="#0c2020" stroke-width="17" stroke-linecap="round" stroke-linejoin="round" opacity="1.0"/></g><g class="f8"><path d="M215.0,217.0 L204.2,222.2 L193.4,227.4 L182.5,232.7 L171.7,237.9 L160.9,243.1 L151.1,250.0 L141.4,257.2 L131.8,264.4 L122.2,271.6 L112.6,278.8 L103.0,286.0" fill="none" stroke="#2dd4bf" stroke-width="21" stroke-linecap="round" stroke-linejoin="round" opacity="0.95"/><path d="M215.0,217.0 L204.2,222.2 L193.4,227.4 L182.5,232.7 L171.7,237.9 L160.9,243.1 L151.1,250.0 L141.4,257.2 L131.8,264.4 L122.2,271.6 L112.6,278.8 L103.0,286.0" fill="none" stroke="#0c2020" stroke-width="13" stroke-linecap="round" stroke-linejoin="round" opacity="1.0"/><path d="M313.0,196.0 L304.1,197.9 L295.2,199.8 L286.3,201.7 L277.4,203.6 L268.5,205.5 L259.5,207.5 L250.6,209.4 L241.7,211.3 L232.8,213.2 L223.9,215.1 L215.0,217.0" fill="none" stroke="#f43f5e" stroke-width="25" stroke-linecap="round" stroke-linejoin="round" opacity="0.95"/><path d="M313.0,196.0 L304.1,197.9 L295.2,199.8 L286.3,201.7 L277.4,203.6 L268.5,205.5 L259.5,207.5 L250.6,209.4 L241.7,211.3 L232.8,213.2 L223.9,215.1 L215.0,217.0" fill="none" stroke="#0c2020" stroke-width="17" stroke-linecap="round" stroke-linejoin="round" opacity="1.0"/></g><g class="f9"><path d="M215.0,216.9 L204.2,222.1 L193.4,227.4 L182.5,232.6 L171.7,237.8 L160.9,243.1 L151.1,249.9 L141.5,257.2 L131.8,264.4 L122.2,271.6 L112.6,278.8 L103.0,286.0" fill="none" stroke="#2dd4bf" stroke-width="21" stroke-linecap="round" stroke-linejoin="round" opacity="0.95"/><path d="M215.0,216.9 L204.2,222.1 L193.4,227.4 L182.5,232.6 L171.7,237.8 L160.9,243.1 L151.1,249.9 L141.5,257.2 L131.8,264.4 L122.2,271.6 L112.6,278.8 L103.0,286.0" fill="none" stroke="#0c2020" stroke-width="13" stroke-linecap="round" stroke-linejoin="round" opacity="1.0"/><path d="M313.0,196.0 L304.1,197.9 L295.2,199.8 L286.3,201.7 L277.4,203.6 L268.5,205.5 L259.5,207.4 L250.6,209.3 L241.7,211.2 L232.8,213.1 L223.9,215.0 L215.0,216.9" fill="none" stroke="#f43f5e" stroke-width="25" stroke-linecap="round" stroke-linejoin="round" opacity="0.95"/><path d="M313.0,196.0 L304.1,197.9 L295.2,199.8 L286.3,201.7 L277.4,203.6 L268.5,205.5 L259.5,207.4 L250.6,209.3 L241.7,211.2 L232.8,213.1 L223.9,215.0 L215.0,216.9" fill="none" stroke="#0c2020" stroke-width="17" stroke-linecap="round" stroke-linejoin="round" opacity="1.0"/></g><g class="f10"><path d="M215.0,216.5 L204.2,221.8 L193.4,227.1 L182.6,232.4 L171.8,237.7 L161.0,243.0 L151.1,249.9 L141.5,257.1 L131.9,264.3 L122.3,271.6 L112.6,278.8 L103.0,286.0" fill="none" stroke="#2dd4bf" stroke-width="21" stroke-linecap="round" stroke-linejoin="round" opacity="0.95"/><path d="M215.0,216.5 L204.2,221.8 L193.4,227.1 L182.6,232.4 L171.8,237.7 L161.0,243.0 L151.1,249.9 L141.5,257.1 L131.9,264.3 L122.3,271.6 L112.6,278.8 L103.0,286.0" fill="none" stroke="#0c2020" stroke-width="13" stroke-linecap="round" stroke-linejoin="round" opacity="1.0"/><path d="M313.0,196.0 L304.1,197.9 L295.2,199.7 L286.3,201.6 L277.4,203.5 L268.5,205.3 L259.5,207.2 L250.6,209.1 L241.7,210.9 L232.8,212.8 L223.9,214.7 L215.0,216.5" fill="none" stroke="#f43f5e" stroke-width="25" stroke-linecap="round" stroke-linejoin="round" opacity="0.95"/><path d="M313.0,196.0 L304.1,197.9 L295.2,199.7 L286.3,201.6 L277.4,203.5 L268.5,205.3 L259.5,207.2 L250.6,209.1 L241.7,210.9 L232.8,212.8 L223.9,214.7 L215.0,216.5" fill="none" stroke="#0c2020" stroke-width="17" stroke-linecap="round" stroke-linejoin="round" opacity="1.0"/></g><g class="f11"><path d="M215.0,216.1 L204.2,221.4 L193.4,226.8 L182.6,232.2 L171.9,237.6 L161.1,243.0 L151.2,249.8 L141.6,257.1 L131.9,264.3 L122.3,271.5 L112.6,278.8 L103.0,286.0" fill="none" stroke="#2dd4bf" stroke-width="21" stroke-linecap="round" stroke-linejoin="round" opacity="0.95"/><path d="M215.0,216.1 L204.2,221.4 L193.4,226.8 L182.6,232.2 L171.9,237.6 L161.1,243.0 L151.2,249.8 L141.6,257.1 L131.9,264.3 L122.3,271.5 L112.6,278.8 L103.0,286.0" fill="none" stroke="#0c2020" stroke-width="13" stroke-linecap="round" stroke-linejoin="round" opacity="1.0"/><path d="M313.0,196.0 L304.1,197.8 L295.2,199.6 L286.3,201.5 L277.4,203.3 L268.5,205.1 L259.5,206.9 L250.6,208.8 L241.7,210.6 L232.8,212.4 L223.9,214.2 L215.0,216.1" fill="none" stroke="#f43f5e" stroke-width="25" stroke-linecap="round" stroke-linejoin="round" opacity="0.95"/><path d="M313.0,196.0 L304.1,197.8 L295.2,199.6 L286.3,201.5 L277.4,203.3 L268.5,205.1 L259.5,206.9 L250.6,208.8 L241.7,210.6 L232.8,212.4 L223.9,214.2 L215.0,216.1" fill="none" stroke="#0c2020" stroke-width="17" stroke-linecap="round" stroke-linejoin="round" opacity="1.0"/></g><g class="f12"><path d="M215.0,215.5 L204.2,221.0 L193.5,226.5 L182.7,231.9 L172.0,237.4 L161.2,242.9 L151.3,249.8 L141.6,257.0 L132.0,264.3 L122.3,271.5 L112.7,278.8 L103.0,286.0" fill="none" stroke="#2dd4bf" stroke-width="21" stroke-linecap="round" stroke-linejoin="round" opacity="0.95"/><path d="M215.0,215.5 L204.2,221.0 L193.5,226.5 L182.7,231.9 L172.0,237.4 L161.2,242.9 L151.3,249.8 L141.6,257.0 L132.0,264.3 L122.3,271.5 L112.7,278.8 L103.0,286.0" fill="none" stroke="#0c2020" stroke-width="13" stroke-linecap="round" stroke-linejoin="round" opacity="1.0"/><path d="M313.0,196.0 L304.1,197.8 L295.2,199.5 L286.3,201.3 L277.4,203.1 L268.5,204.9 L259.5,206.6 L250.6,208.4 L241.7,210.2 L232.8,212.0 L223.9,213.7 L215.0,215.5" fill="none" stroke="#f43f5e" stroke-width="25" stroke-linecap="round" stroke-linejoin="round" opacity="0.95"/><path d="M313.0,196.0 L304.1,197.8 L295.2,199.5 L286.3,201.3 L277.4,203.1 L268.5,204.9 L259.5,206.6 L250.6,208.4 L241.7,210.2 L232.8,212.0 L223.9,213.7 L215.0,215.5" fill="none" stroke="#0c2020" stroke-width="17" stroke-linecap="round" stroke-linejoin="round" opacity="1.0"/></g><g class="f13"><path d="M215.0,214.9 L204.3,220.5 L193.5,226.1 L182.8,231.7 L172.0,237.2 L161.3,242.8 L151.4,249.7 L141.7,257.0 L132.0,264.2 L122.4,271.5 L112.7,278.7 L103.0,286.0" fill="none" stroke="#2dd4bf" stroke-width="21" stroke-linecap="round" stroke-linejoin="round" opacity="0.95"/><path d="M215.0,214.9 L204.3,220.5 L193.5,226.1 L182.8,231.7 L172.0,237.2 L161.3,242.8 L151.4,249.7 L141.7,257.0 L132.0,264.2 L122.4,271.5 L112.7,278.7 L103.0,286.0" fill="none" stroke="#0c2020" stroke-width="13" stroke-linecap="round" stroke-linejoin="round" opacity="1.0"/><path d="M313.0,196.0 L304.1,197.7 L295.2,199.4 L286.3,201.2 L277.4,202.9 L268.5,204.6 L259.5,206.3 L250.6,208.1 L241.7,209.8 L232.8,211.5 L223.9,213.2 L215.0,214.9" fill="none" stroke="#f43f5e" stroke-width="25" stroke-linecap="round" stroke-linejoin="round" opacity="0.95"/><path d="M313.0,196.0 L304.1,197.7 L295.2,199.4 L286.3,201.2 L277.4,202.9 L268.5,204.6 L259.5,206.3 L250.6,208.1 L241.7,209.8 L232.8,211.5 L223.9,213.2 L215.0,214.9" fill="none" stroke="#0c2020" stroke-width="17" stroke-linecap="round" stroke-linejoin="round" opacity="1.0"/></g><g class="f14"><path d="M215.0,214.5 L204.3,220.1 L193.6,225.8 L182.8,231.4 L172.1,237.1 L161.4,242.7 L151.5,249.6 L141.8,256.9 L132.1,264.2 L122.4,271.5 L112.7,278.7 L103.0,286.0" fill="none" stroke="#2dd4bf" stroke-width="21" stroke-linecap="round" stroke-linejoin="round" opacity="0.95"/><path d="M215.0,214.5 L204.3,220.1 L193.6,225.8 L182.8,231.4 L172.1,237.1 L161.4,242.7 L151.5,249.6 L141.8,256.9 L132.1,264.2 L122.4,271.5 L112.7,278.7 L103.0,286.0" fill="none" stroke="#0c2020" stroke-width="13" stroke-linecap="round" stroke-linejoin="round" opacity="1.0"/><path d="M313.0,196.0 L304.1,197.7 L295.2,199.4 L286.3,201.0 L277.4,202.7 L268.5,204.4 L259.5,206.1 L250.6,207.8 L241.7,209.4 L232.8,211.1 L223.9,212.8 L215.0,214.5" fill="none" stroke="#f43f5e" stroke-width="25" stroke-linecap="round" stroke-linejoin="round" opacity="0.95"/><path d="M313.0,196.0 L304.1,197.7 L295.2,199.4 L286.3,201.0 L277.4,202.7 L268.5,204.4 L259.5,206.1 L250.6,207.8 L241.7,209.4 L232.8,211.1 L223.9,212.8 L215.0,214.5" fill="none" stroke="#0c2020" stroke-width="17" stroke-linecap="round" stroke-linejoin="round" opacity="1.0"/></g><g class="f15"><path d="M215.0,214.1 L204.3,219.8 L193.6,225.5 L182.9,231.3 L172.2,237.0 L161.5,242.7 L151.5,249.6 L141.8,256.9 L132.1,264.2 L122.4,271.4 L112.7,278.7 L103.0,286.0" fill="none" stroke="#2dd4bf" stroke-width="21" stroke-linecap="round" stroke-linejoin="round" opacity="0.95"/><path d="M215.0,214.1 L204.3,219.8 L193.6,225.5 L182.9,231.3 L172.2,237.0 L161.5,242.7 L151.5,249.6 L141.8,256.9 L132.1,264.2 L122.4,271.4 L112.7,278.7 L103.0,286.0" fill="none" stroke="#0c2020" stroke-width="13" stroke-linecap="round" stroke-linejoin="round" opacity="1.0"/><path d="M313.0,196.0 L304.1,197.6 L295.2,199.3 L286.3,200.9 L277.4,202.6 L268.5,204.2 L259.5,205.9 L250.6,207.5 L241.7,209.2 L232.8,210.8 L223.9,212.5 L215.0,214.1" fill="none" stroke="#f43f5e" stroke-width="25" stroke-linecap="round" stroke-linejoin="round" opacity="0.95"/><path d="M313.0,196.0 L304.1,197.6 L295.2,199.3 L286.3,200.9 L277.4,202.6 L268.5,204.2 L259.5,205.9 L250.6,207.5 L241.7,209.2 L232.8,210.8 L223.9,212.5 L215.0,214.1" fill="none" stroke="#0c2020" stroke-width="17" stroke-linecap="round" stroke-linejoin="round" opacity="1.0"/></g></svg>
