<svg xmlns="http://www.w3.org/2000/svg" viewBox="0 0 480 320"><style>@keyframes k0{0%{opacity:1}11.111%{opacity:0}100%{opacity:0}}.f0{opacity:0;animation:k0 2.4s steps(1,end) infinite}@keyframes k1{0%{opacity:0}11.111%{opacity:1}16.667%{opacity:0}100%{opacity:0}}.f1{opacity:0;animation:k1 2.4s steps(1,end) infinite}@keyframes k2{0%{opacity:0}16.667%{opacity:1}22.222%{opacity:0}100%{opacity:0}}.f2{opacity:0;animation:k2 2.4s steps(1,end) infinite}@keyframes k3{0%{opacity:0}22.222%{opacity:1}27.778%{opacity:0}100%{opacity:0}}.f3{opacity:0;animation:k3 2.4s steps(1,end) infinite}@keyframes k4{0%{opacity:0}27.778%{opacity:1}33.333%{opacity:0}100%{opacity:0}}.f4{opacity:0;animation:k4 2.4s steps(1,end) infinite}@keyframes k5{0%{opacity:0}33.333%{opacity:1}38.889%{opacity:0}100%{opacity:0}}.f5{opacity:0;animation:k5 2.4s steps(1,end) infinite}@keyframes k6{0%{opacity:0}38.889%{opacity:1}44.444%{opacity:0}100%{opacity:0}}.f6{opacity:0;animation:k6 2.4s steps(1,end) infinite}@keyframes k7{0%{opacity:0}44.444%{opacity:1}50.000%{opacity:0}100%{opacity:0}}.f7{opacity:0;animation:k7 2.4s steps(1,end) infinite}@keyframes k8{0%{opacity:0}50.000%{opacity:1}61.111%{opacity:0}100%{opacity:0}}.f8{opacity:0;animation:k8 2.4s steps(1,end) infinite}@keyframes k9{0%{opacity:0}61.111%{opacity:1}66.667%{opacity:0}100%{opacity:0}}.f9{opacity:0;animation:k9 2.4s steps(1,end) infinite}@keyframes k10{0%{opacity:0}66.667%{opacity:1}72.222%{opacity:0}100%{opacity:0}}.f10{opacity:0;animation:k10 2.4s steps(1,end) infinite}@keyframes k11{0%{opacity:0}72.222%{opacity:1}77.778%{opacity:0}100%{opacity:0}}.f11{opacity:0;animation:k11 2.4s steps(1,end) infinite}@keyframes k12{0%{opacity:0}77.778%{opacity:1}83.333%{opacity:0}100%{opacity:0}}.f12{opacity:0;animation:k12 2.4s steps(1,end) infinite}@keyframes k13{0%{opacity:0}83.333%{opacity:1}88.889%{opacity:0}100%{opacity:0}}.f13{opacity:0;animation:k13 2.4s steps(1,end) infinite}@keyframes k14{0%{opacity:0}88.889%{opacity:1}94.444%{opacity:0}100%{opacity:0}}.f14{opacity:0;animation:k14 2.4s steps(1,end) infinite}@keyframes k15{0%{opacity:0}94.444%{opacity:1}100%{opacity:1}}.f15{opacity:0;animation:k15 2.4s steps(1,end) infinite}</style><path d="M40.0,292.0 L440.0,292.0" fill="none" stroke="#1f3333" stroke-width="6" stroke-linecap="round" stroke-linejoin="round" opacity="1.0"/><g class="f0"><path d="M313.0,196.0 L312.1,204.7 L311.2,213.5 L310.3,222.2 L309.4,230.9 L308.5,239.6 L307.5,248.4 L306.6,257.1 L305.7,265.8 L304.8,274.5 L303.9,283.3 L303.0,292.0" fill="none" stroke="#f43f5e" stroke-width="21" stroke-linecap="round" stroke-linejoin="round" opacity="0.95"/><path d="M313.0,196.0 L312.1,204.7 L311.2,213.5 L310.3,222.2 L309.4,230.9 L308.5,239.6 L307.5,248.4 L306.6,257.1 L305.7,265.8 L304.8,274.5 L303.9,283.3 L303.0,292.0" fill="none" stroke="#0c2020" stroke-width="13" stroke-linecap="round" stroke-linejoin="round" opacity="1.0"/><path d="M215.0,214.0 L204.3,219.7 L193.6,225.5 L182.9,231.2 L172.2,236.9 L161.5,242.7 L151.6,249.6 L141.8,256.9 L132.1,264.1 L122.4,271.4 L112.7,278.7 L103.0,286.0" fill="none" stroke="#2dd4bf" stroke-width="21" stroke-linecap="round" stroke-linejoin="round" opacity="0.95"/><path d="M215.0,214.0 L204.3,219.7 L193.6,225.5 L182.9,231.2 L172.2,236.9 L161.5,242.7 L151.6,249.6 L141.8,256.9 L132.1,264.1 L122.4,271.4 L112.7,278.7 L103.0,286.0" fill="none" stroke="#0c2020" stroke-width="13" stroke-linecap="round" stroke-linejoin="round" opacity="1.0"/><path d="M313.0,196.0 L304.1,197.6 L295.2,199.3 L286.3,200.9 L277.4,202.5 L268.5,204.2 L259.5,205.8 L250.6,207.5 L241.7,209.1 L232.8,210.7 L223.9,212.4 L215.0,214.0" fill="none" stroke="#2dd4bf" stroke-width="25" stroke-linecap="round" stroke-linejoin="round" opacity="0.95"/><path d="M313.0,196.0 L304.1,197.6 L295.2,199.3 L286.3,200.9 L277.4,202.5 L268.5,204.2 L259.5,205.8 L250.6,207.5 L241.7,209.1 L232.8,210.7 L223.9,212.4 L215.0,214.0" fill="none" stroke="#0c2020" stroke-width="17" stroke-linecap="round" stroke-linejoin="round" opacity="1.0"/><circle cx="341.0" cy="188.0" r="19.0" fill="#2dd4bf" stroke="none" stroke-width="0" opacity="0.95"/><circle cx="341.0" cy="188.0" r="15.0" fill="#0c2020" stroke="none" stroke-width="6.3" opacity="1.0"/><path d="M331.7,185.0 L333.4,185.0 L335.1,185.0 L336.8,185.0 L338.5,185.0 L340.2,185.0 L341.8,185.0 L343.5,185.0 L345.2,185.0 L346.9,185.0 L348.6,185.0 L350.3,185.0" fill="none" stroke="#a7f3ee" stroke-width="5" stroke-linecap="round" stroke-linejoin="round" opacity="1.0"/></g><g class="f1"><path d="M313.1,198.3 L312.4,206.8 L311.7,215.4 L311.0,223.9 L310.3,232.4 L309.5,240.9 L308.4,249.4 L307.4,257.9 L306.4,266.5 L305.3,275.0 L304.3,283.5 L303.3,292.0" fill="none" stroke="#f43f5e" stroke-width="21" stroke-linecap="round" stroke-linejoin="round" opacity="0.95"/><path d="M313.1,198.3 L312.4,206.8 L311.7,215.4 L311.0,223.9 L310.3,232.4 L309.5,240.9 L308.4,249.4 L307.4,257.9 L306.4,266.5 L305.3,275.0 L304.3,283.5 L303.3,292.0" fill="none" stroke="#0c2020" stroke-width="13" stroke-linecap="round" stroke-linejoin="round" opacity="1.0"/><path d="M215.0,215.6 L204.3,221.2 L193.6,226.9 L183.0,232.5 L172.3,238.1 L161.6,243.7 L151.6,250.4 L141.9,257.6 L132.2,264.7 L122.5,271.8 L112.7,278.9 L103.0,286.0" fill="none" stroke="#2dd4bf" stroke-width="21" stroke-linecap="round" stroke-linejoin="round" opacity="0.95"/><path d="M215.0,215.6 L204.3,221.2 L193.6,226.9 L183.0,232.5 L172.3,238.1 L161.6,243.7 L151.6,250.4 L141.9,257.6 L132.2,264.7 L122.5,271.8 L112.7,278.9 L103.0,286.0" fill="none" stroke="#0c2020" stroke-width="13" stroke-linecap="round" stroke-linejoin="round" opacity="1.0"/><path d="M313.1,198.3 L304.2,199.9 L295.3,201.5 L286.3,203.0 L277.4,204.6 L268.5,206.2 L259.6,207.8 L250.7,209.3 L241.8,210.9 L232.8,212.5 L223.9,214.1 L215.0,215.6" fill="none" stroke="#2dd4bf" stroke-width="25" stroke-linecap="round" stroke-linejoin="round" opacity="0.95"/><path d="M313.1,198.3 L304.2,199.9 L295.3,201.5 L286.3,203.0 L277.4,204.6 L268.5,206.2 L259.6,207.8 L250.7,209.3 L241.8,210.9 L232.8,212.5 L223.9,214.1 L215.0,215.6" fill="none" stroke="#0c2020" stroke-width="17" stroke-linecap="round" stroke-linejoin="round" opacity="1.0"/><circle cx="341.1" cy="190.5" r="19.0" fill="#2dd4bf" stroke="none" stroke-width="0" opacity="0.95"/><circle cx="341.1" cy="190.5" r="15.0" fill="#0c2020" stroke="none" stroke-width="6.3" opacity="1.0"/><path d="M331.8,187.5 L333.5,187.5 L335.2,187.5 L336.9,187.5 L338.5,187.5 L340.2,187.5 L341.9,187.5 L343.6,187.5 L345.3,187.5 L347.0,187.5 L348.7,187.5 L350.4,187.5" fill="none" stroke="#a7f3ee" stroke-width="5" stroke-linecap="round" stroke-linejoin="round" opacity="1.0"/></g><g class="f2"><path d="M313.3,204.4 L313.1,212.4 L313.0,220.4 L312.8,228.3 L312.6,236.3 L312.1,244.2 L310.8,252.2 L309.4,260.2 L308.0,268.1 L306.7,276.1 L305.3,284.0 L303.9,292.0" fill="none" stroke="#f43f5e" stroke-width="21" stroke-linecap="round" stroke-linejoin="round" opacity="0.95"/><path d="M313.3,204.4 L313.1,212.4 L313.0,220.4 L312.8,228.3 L312.6,236.3 L312.1,244.2 L310.8,252.2 L309.4,260.2 L308.0,268.1 L306.7,276.1 L305.3,284.0 L303.9,292.0" fill="none" stroke="#0c2020" stroke-width="13" stroke-linecap="round" stroke-linejoin="round" opacity="1.0"/><path d="M215.0,219.9 L204.4,225.2 L193.7,230.5 L183.1,235.8 L172.5,241.1 L161.9,246.4 L151.9,252.7 L142.1,259.4 L132.3,266.0 L122.6,272.7 L112.8,279.3 L103.0,286.0" fill="none" stroke="#2dd4bf" stroke-width="21" stroke-linecap="round" stroke-linejoin="round" opacity="0.95"/><path d="M215.0,219.9 L204.4,225.2 L193.7,230.5 L183.1,235.8 L172.5,241.1 L161.9,246.4 L151.9,252.7 L142.1,259.4 L132.3,266.0 L122.6,272.7 L112.8,279.3 L103.0,286.0" fill="none" stroke="#0c2020" stroke-width="13" stroke-linecap="round" stroke-linejoin="round" opacity="1.0"/><path d="M313.3,204.4 L304.4,205.8 L295.4,207.3 L286.5,208.7 L277.6,210.1 L268.6,211.5 L259.7,212.9 L250.8,214.3 L241.8,215.7 L232.9,217.1 L223.9,218.5 L215.0,219.9" fill="none" stroke="#2dd4bf" stroke-width="25" stroke-linecap="round" stroke-linejoin="round" opacity="0.95"/><path d="M313.3,204.4 L304.4,205.8 L295.4,207.3 L286.5,208.7 L277.6,210.1 L268.6,211.5 L259.7,212.9 L250.8,214.3 L241.8,215.7 L232.9,217.1 L223.9,218.5 L215.0,219.9" fill="none" stroke="#0c2020" stroke-width="17" stroke-linecap="round" stroke-linejoin="round" opacity="1.0"/><circle cx="341.3" cy="197.1" r="19.0" fill="#2dd4bf" stroke="none" stroke-width="0" opacity="0.95"/><circle cx="341.3" cy="197.1" r="15.0" fill="#0c2020" stroke="none" stroke-width="6.3" opacity="1.0"/><path d="M332.0,194.1 L333.7,194.1 L335.4,194.1 L337.1,194.1 L338.8,194.1 L340.5,194.1 L342.2,194.1 L343.8,194.1 L345.5,194.1 L347.2,194.1 L348.9,194.1 L350.6,194.1" fill="none" stroke="#a7f3ee" stroke-width="5" stroke-linecap="round" stroke-linejoin="round" opacity="1.0"/></g><g class="f3"><path d="M313.6,213.1 L314.2,220.3 L314.8,227.4 L315.4,234.6 L316.0,241.8 L315.9,249.0 L314.0,256.1 L312.2,263.3 L310.4,270.5 L308.6,277.7 L306.7,284.8 L304.9,292.0" fill="none" stroke="#f43f5e" stroke-width="21" stroke-linecap="round" stroke-linejoin="round" opacity="0.95"/><path d="M313.6,213.1 L314.2,220.3 L314.8,227.4 L315.4,234.6 L316.0,241.8 L315.9,249.0 L314.0,256.1 L312.2,263.3 L310.4,270.5 L308.6,277.7 L306.7,284.8 L304.9,292.0" fill="none" stroke="#0c2020" stroke-width="13" stroke-linecap="round" stroke-linejoin="round" opacity="1.0"/><path d="M215.0,226.0 L204.4,230.9 L193.9,235.7 L183.3,240.6 L172.8,245.4 L162.2,250.2 L152.2,256.0 L142.4,262.0 L132.5,268.0 L122.7,274.0 L112.8,280.0 L103.0,286.0" fill="none" stroke="#2dd4bf" stroke-width="21" stroke-linecap="round" stroke-linejoin="round" opacity="0.95"/><path d="M215.0,226.0 L204.4,230.9 L193.9,235.7 L183.3,240.6 L172.8,245.4 L162.2,250.2 L152.2,256.0 L142.4,262.0 L132.5,268.0 L122.7,274.0 L112.8,280.0 L103.0,286.0" fill="none" stroke="#0c2020" stroke-width="13" stroke-linecap="round" stroke-linejoin="round" opacity="1.0"/><path d="M313.6,213.1 L304.7,214.3 L295.7,215.4 L286.7,216.6 L277.8,217.8 L268.8,219.0 L259.8,220.1 L250.9,221.3 L241.9,222.5 L232.9,223.7 L224.0,224.8 L215.0,226.0" fill="none" stroke="#2dd4bf" stroke-width="25" stroke-linecap="round" stroke-linejoin="round" opacity="0.95"/><path d="M313.6,213.1 L304.7,214.3 L295.7,215.4 L286.7,216.6 L277.8,217.8 L268.8,219.0 L259.8,220.1 L250.9,221.3 L241.9,222.5 L232.9,223.7 L224.0,224.8 L215.0,226.0" fill="none" stroke="#0c2020" stroke-width="17" stroke-linecap="round" stroke-linejoin="round" opacity="1.0"/><circle cx="341.6" cy="206.4" r="19.0" fill="#2dd4bf" stroke="none" stroke-width="0" opacity="0.95"/><circle cx="341.6" cy="206.4" r="15.0" fill="#0c2020" stroke="none" stroke-width="6.3" opacity="1.0"/><path d="M332.3,203.4 L334.0,203.4 L335.7,203.4 L337.4,203.4 L339.1,203.4 L340.8,203.4 L342.5,203.4 L344.2,203.4 L345.9,203.4 L347.6,203.4 L349.2,203.4 L350.9,203.4" fill="none" stroke="#a7f3ee" stroke-width="5" stroke-linecap="round" stroke-linejoin="round" opacity="1.0"/></g><g class="f4"><path d="M314.0,223.0 L315.5,229.3 L316.9,235.5 L318.4,241.8 L319.8,248.1 L320.2,254.4 L317.8,260.6 L315.5,266.9 L313.1,273.2 L310.7,279.5 L308.4,285.7 L306.0,292.0" fill="none" stroke="#f43f5e" stroke-width="21" stroke-linecap="round" stroke-linejoin="round" opacity="0.95"/><path d="M314.0,223.0 L315.5,229.3 L316.9,235.5 L318.4,241.8 L319.8,248.1 L320.2,254.4 L317.8,260.6 L315.5,266.9 L313.1,273.2 L310.7,279.5 L308.4,285.7 L306.0,292.0" fill="none" stroke="#0c2020" stroke-width="13" stroke-linecap="round" stroke-linejoin="round" opacity="1.0"/><path d="M215.0,233.0 L204.5,237.3 L194.1,241.7 L183.6,246.0 L173.1,250.3 L162.7,254.6 L152.6,259.7 L142.7,264.9 L132.8,270.2 L122.8,275.5 L112.9,280.7 L103.0,286.0" fill="none" stroke="#2dd4bf" stroke-width="21" stroke-linecap="round" stroke-linejoin="round" opacity="0.95"/><path d="M215.0,233.0 L204.5,237.3 L194.1,241.7 L183.6,246.0 L173.1,250.3 L162.7,254.6 L152.6,259.7 L142.7,264.9 L132.8,270.2 L122.8,275.5 L112.9,280.7 L103.0,286.0" fill="none" stroke="#0c2020" stroke-width="13" stroke-linecap="round" stroke-linejoin="round" opacity="1.0"/><path d="M314.0,223.0 L305.0,223.9 L296.0,224.8 L287.0,225.7 L278.0,226.6 L269.0,227.5 L260.0,228.5 L251.0,229.4 L242.0,230.3 L233.0,231.2 L224.0,232.1 L215.0,233.0" fill="none" stroke="#2dd4bf" stroke-width="25" stroke-linecap="round" stroke-linejoin="round" opacity="0.95"/><path d="M314.0,223.0 L305.0,223.9 L296.0,224.8 L287.0,225.7 L278.0,226.6 L269.0,227.5 L260.0,228.5 L251.0,229.4 L242.0,230.3 L233.0,231.2 L224.0,232.1 L215.0,233.0" fill="none" stroke="#0c2020" stroke-width="17" stroke-linecap="round" stroke-linejoin="round" opacity="1.0"/><circle cx="342.0" cy="217.0" r="19.0" fill="#2dd4bf" stroke="none" stroke-width="0" opacity="0.95"/><circle cx="342.0" cy="217.0" r="15.0" fill="#0c2020" stroke="none" stroke-width="6.3" opacity="1.0"/><path d="M332.7,214.0 L334.4,214.0 L336.1,214.0 L337.8,214.0 L339.5,214.0 L341.2,214.0 L342.8,214.0 L344.5,214.0 L346.2,214.0 L347.9,214.0 L349.6,214.0 L351.3,214.0" fill="none" stroke="#a7f3ee" stroke-width="5" stroke-linecap="round" stroke-linejoin="round" opacity="1.0"/></g><g class="f5"><path d="M314.4,232.9 L316.7,238.3 L319.0,243.7 L321.3,249.0 L323.7,254.4 L324.5,259.8 L321.6,265.1 L318.7,270.5 L315.8,275.9 L312.9,281.3 L310.0,286.6 L307.1,292.0" fill="none" stroke="#f43f5e" stroke-width="21" stroke-linecap="round" stroke-linejoin="round" opacity="0.95"/><path d="M314.4,232.9 L316.7,238.3 L319.0,243.7 L321.3,249.0 L323.7,254.4 L324.5,259.8 L321.6,265.1 L318.7,270.5 L315.8,275.9 L312.9,281.3 L310.0,286.6 L307.1,292.0" fill="none" stroke="#0c2020" stroke-width="13" stroke-linecap="round" stroke-linejoin="round" opacity="1.0"/><path d="M215.0,240.0 L204.6,243.8 L194.2,247.6 L183.9,251.4 L173.5,255.2 L163.1,259.0 L153.0,263.3 L143.0,267.9 L133.0,272.4 L123.0,276.9 L113.0,281.5 L103.0,286.0" fill="none" stroke="#2dd4bf" stroke-width="21" stroke-linecap="round" stroke-linejoin="round" opacity="0.95"/><path d="M215.0,240.0 L204.6,243.8 L194.2,247.6 L183.9,251.4 L173.5,255.2 L163.1,259.0 L153.0,263.3 L143.0,267.9 L133.0,272.4 L123.0,276.9 L113.0,281.5 L103.0,286.0" fill="none" stroke="#0c2020" stroke-width="13" stroke-linecap="round" stroke-linejoin="round" opacity="1.0"/><path d="M314.4,232.9 L305.3,233.6 L296.3,234.2 L287.3,234.8 L278.2,235.5 L269.2,236.1 L260.2,236.8 L251.1,237.4 L242.1,238.1 L233.1,238.7 L224.0,239.3 L215.0,240.0" fill="none" stroke="#2dd4bf" stroke-width="25" stroke-linecap="round" stroke-linejoin="round" opacity="0.95"/><path d="M314.4,232.9 L305.3,233.6 L296.3,234.2 L287.3,234.8 L278.2,235.5 L269.2,236.1 L260.2,236.8 L251.1,237.4 L242.1,238.1 L233.1,238.7 L224.0,239.3 L215.0,240.0" fill="none" stroke="#0c2020" stroke-width="17" stroke-linecap="round" stroke-linejoin="round" opacity="1.0"/><circle cx="342.4" cy="227.6" r="19.0" fill="#2dd4bf" stroke="none" stroke-width="0" opacity="0.95"/><circle cx="342.4" cy="227.6" r="15.0" fill="#0c2020" stroke="none" stroke-width="6.3" opacity="1.0"/><path d="M333.1,224.6 L334.8,224.6 L336.4,224.6 L338.1,224.6 L339.8,224.6 L341.5,224.6 L343.2,224.6 L344.9,224.6 L346.6,224.6 L348.3,224.6 L350.0,224.6 L351.7,224.6" fill="none" stroke="#a7f3ee" stroke-width="5" stroke-linecap="round" stroke-linejoin="round" opacity="1.0"/></g><g class="f6"><path d="M314.7,241.6 L317.8,246.1 L320.8,250.7 L323.9,255.3 L327.0,259.9 L328.2,264.5 L324.9,269.1 L321.5,273.7 L318.2,278.2 L314.8,282.8 L311.4,287.4 L308.1,292.0" fill="none" stroke="#f43f5e" stroke-width="21" stroke-linecap="round" stroke-linejoin="round" opacity="0.95"/><path d="M314.7,241.6 L317.8,246.1 L320.8,250.7 L323.9,255.3 L327.0,259.9 L328.2,264.5 L324.9,269.1 L321.5,273.7 L318.2,278.2 L314.8,282.8 L311.4,287.4 L308.1,292.0" fill="none" stroke="#0c2020" stroke-width="13" stroke-linecap="round" stroke-linejoin="round" opacity="1.0"/><path d="M215.0,246.1 L204.7,249.4 L194.4,252.8 L184.1,256.1 L173.8,259.5 L163.5,262.9 L153.3,266.6 L143.3,270.5 L133.2,274.3 L123.1,278.2 L113.1,282.1 L103.0,286.0" fill="none" stroke="#2dd4bf" stroke-width="21" stroke-linecap="round" stroke-linejoin="round" opacity="0.95"/><path d="M215.0,246.1 L204.7,249.4 L194.4,252.8 L184.1,256.1 L173.8,259.5 L163.5,262.9 L153.3,266.6 L143.3,270.5 L133.2,274.3 L123.1,278.2 L113.1,282.1 L103.0,286.0" fill="none" stroke="#0c2020" stroke-width="13" stroke-linecap="round" stroke-linejoin="round" opacity="1.0"/><path d="M314.7,241.6 L305.6,242.0 L296.6,242.4 L287.5,242.8 L278.4,243.2 L269.4,243.6 L260.3,244.0 L251.2,244.4 L242.2,244.8 L233.1,245.2 L224.1,245.7 L215.0,246.1" fill="none" stroke="#2dd4bf" stroke-width="25" stroke-linecap="round" stroke-linejoin="round" opacity="0.95"/><path d="M314.7,241.6 L305.6,242.0 L296.6,242.4 L287.5,242.8 L278.4,243.2 L269.4,243.6 L260.3,244.0 L251.2,244.4 L242.2,244.8 L233.1,245.2 L224.1,245.7 L215.0,246.1" fill="none" stroke="#0c2020" stroke-width="17" stroke-linecap="round" stroke-linejoin="round" opacity="1.0"/><circle cx="342.7" cy="236.9" r="19.0" fill="#2dd4bf" stroke="none" stroke-width="0" opacity="0.95"/><circle cx="342.7" cy="236.9" r="15.0" fill="#0c2020" stroke="none" stroke-width="6.3" opacity="1.0"/><path d="M333.4,233.9 L335.1,233.9 L336.8,233.9 L338.5,233.9 L340.2,233.9 L341.8,233.9 L343.5,233.9 L345.2,233.9 L346.9,233.9 L348.6,233.9 L350.3,233.9 L352.0,233.9" fill="none" stroke="#a7f3ee" stroke-width="5" stroke-linecap="round" stroke-linejoin="round" opacity="1.0"/></g><g class="f7"><path d="M314.9,247.7 L318.5,251.7 L322.1,255.7 L325.8,259.8 L329.4,263.8 L330.9,267.8 L327.2,271.9 L323.5,275.9 L319.8,279.9 L316.1,283.9 L312.4,288.0 L308.7,292.0" fill="none" stroke="#f43f5e" stroke-width="21" stroke-linecap="round" stroke-linejoin="round" opacity="0.95"/><path d="M314.9,247.7 L318.5,251.7 L322.1,255.7 L325.8,259.8 L329.4,263.8 L330.9,267.8 L327.2,271.9 L323.5,275.9 L319.8,279.9 L316.1,283.9 L312.4,288.0 L308.7,292.0" fill="none" stroke="#0c2020" stroke-width="13" stroke-linecap="round" stroke-linejoin="round" opacity="1.0"/><path d="M215.0,250.4 L204.7,253.4 L194.5,256.5 L184.2,259.5 L174.0,262.5 L163.7,265.6 L153.6,268.9 L143.5,272.3 L133.3,275.7 L123.2,279.1 L113.1,282.6 L103.0,286.0" fill="none" stroke="#2dd4bf" stroke-width="21" stroke-linecap="round" stroke-linejoin="round" opacity="0.95"/><path d="M215.0,250.4 L204.7,253.4 L194.5,256.5 L184.2,259.5 L174.0,262.5 L163.7,265.6 L153.6,268.9 L143.5,272.3 L133.3,275.7 L123.2,279.1 L113.1,282.6 L103.0,286.0" fill="none" stroke="#0c2020" stroke-width="13" stroke-linecap="round" stroke-linejoin="round" opacity="1.0"/><path d="M314.9,247.7 L305.8,247.9 L296.7,248.2 L287.7,248.4 L278.6,248.7 L269.5,248.9 L260.4,249.1 L251.3,249.4 L242.2,249.6 L233.2,249.9 L224.1,250.1 L215.0,250.4" fill="none" stroke="#2dd4bf" stroke-width="25" stroke-linecap="round" stroke-linejoin="round" opacity="0.95"/><path d="M314.9,247.7 L305.8,247.9 L296.7,248.2 L287.7,248.4 L278.6,248.7 L269.5,248.9 L260.4,249.1 L251.3,249.4 L242.2,249.6 L233.2,249.9 L224.1,250.1 L215.0,250.4" fill="none" stroke="#0c2020" stroke-width="17" stroke-linecap="round" stroke-linejoin="round" opacity="1.0"/><circle cx="342.9" cy="243.5" r="19.0" fill="#2dd4bf" stroke="none" stroke-width="0" opacity="0.95"/><circle cx="342.9" cy="243.5" r="15.0" fill="#0c2020" stroke="none" stroke-width="6.3" opacity="1.0"/><path d="M333.6,240.5 L335.3,240.5 L337.0,240.5 L338.7,240.5 L340.4,240.5 L342.1,240.5 L343.8,240.5 L345.5,240.5 L347.1,240.5 L348.8,240.5 L350.5,240.5 L352.2,240.5" fill="none" stroke="#a7f3ee" stroke-width="5" stroke-linecap="round" stroke-linejoin="round" opacity="1.0"/></g><g class="f8"><path d="M315.0,250.0 L318.8,253.8 L322.6,257.6 L326.5,261.5 L330.3,265.3 L331.9,269.1 L328.1,272.9 L324.3,276.7 L320.5,280.5 L316.6,284.4 L312.8,288.2 L309.0,292.0" fill="none" stroke="#f43f5e" stroke-width="21" stroke-linecap="round" stroke-linejoin="round" opacity="0.95"/><path d="M315.0,250.0 L318.8,253.8 L322.6,257.6 L326.5,261.5 L330.3,265.3 L331.9,269.1 L328.1,272.9 L324.3,276.7 L320.5,280.5 L316.6,284.4 L312.8,288.2 L309.0,292.0" fill="none" stroke="#0c2020" stroke-width="13" stroke-linecap="round" stroke-linejoin="round" opacity="1.0"/><path d="M215.0,252.0 L204.8,254.9 L194.5,257.8 L184.3,260.8 L174.1,263.7 L163.8,266.6 L153.7,269.7 L143.5,273.0 L133.4,276.2 L123.3,279.5 L113.1,282.7 L103.0,286.0" fill="none" stroke="#2dd4bf" stroke-width="21" stroke-linecap="round" stroke-linejoin="round" opacity="0.95"/><path d="M215.0,252.0 L204.8,254.9 L194.5,257.8 L184.3,260.8 L174.1,263.7 L163.8,266.6 L153.7,269.7 L143.5,273.0 L133.4,276.2 L123.3,279.5 L113.1,282.7 L103.0,286.0" fill="none" stroke="#0c2020" stroke-width="13" stroke-linecap="round" stroke-linejoin="round" opacity="1.0"/><path d="M315.0,250.0 L305.9,250.2 L296.8,250.4 L287.7,250.5 L278.6,250.7 L269.5,250.9 L260.5,251.1 L251.4,251.3 L242.3,251.5 L233.2,251.6 L224.1,251.8 L215.0,252.0" fill="none" stroke="#2dd4bf" stroke-width="25" stroke-linecap="round" stroke-linejoin="round" opacity="0.95"/><path d="M315.0,250.0 L305.9,250.2 L296.8,250.4 L287.7,250.5 L278.6,250.7 L269.5,250.9 L260.5,251.1 L251.4,251.3 L242.3,251.5 L233.2,251.6 L224.1,251.8 L215.0,252.0" fill="none" stroke="#0c2020" stroke-width="17" stroke-linecap="round" stroke-linejoin="round" opacity="1.0"/><circle cx="343.0" cy="246.0" r="19.0" fill="#2dd4bf" stroke="none" stroke-width="0" opacity="0.95"/><circle cx="343.0" cy="246.0" r="15.0" fill="#0c2020" stroke="none" stroke-width="6.3" opacity="1.0"/><path d="M333.7,243.0 L335.4,243.0 L337.1,243.0 L338.8,243.0 L340.5,243.0 L342.2,243.0 L343.8,243.0 L345.5,243.0 L347.2,243.0 L348.9,243.0 L350.6,243.0 L352.3,243.0" fill="none" stroke="#a7f3ee" stroke-width="5" stroke-linecap="round" stroke-linejoin="round" opacity="1.0"/></g><g class="f9"><path d="M314.9,247.7 L318.5,251.7 L322.1,255.7 L325.8,259.8 L329.4,263.8 L330.9,267.8 L327.2,271.9 L323.5,275.9 L319.8,279.9 L316.1,283.9 L312.4,288.0 L308.7,292.0" fill="none" stroke="#f43f5e" stroke-width="21" stroke-linecap="round" stroke-linejoin="round" opacity="0.95"/><path d="M314.9,247.7 L318.5,251.7 L322.1,255.7 L325.8,259.8 L329.4,263.8 L330.9,267.8 L327.2,271.9 L323.5,275.9 L319.8,279.9 L316.1,283.9 L312.4,288.0 L308.7,292.0" fill="none" stroke="#0c2020" stroke-width="13" stroke-linecap="round" stroke-linejoin="round" opacity="1.0"/><path d="M215.0,250.4 L204.7,253.4 L194.5,256.5 L184.2,259.5 L174.0,262.5 L163.7,265.6 L153.6,268.9 L143.5,272.3 L133.3,275.7 L123.2,279.1 L113.1,282.6 L103.0,286.0" fill="none" stroke="#2dd4bf" stroke-width="21" stroke-linecap="round" stroke-linejoin="round" opacity="0.95"/><path d="M215.0,250.4 L204.7,253.4 L194.5,256.5 L184.2,259.5 L174.0,262.5 L163.7,265.6 L153.6,268.9 L143.5,272.3 L133.3,275.7 L123.2,279.1 L113.1,282.6 L103.0,286.0" fill="none" stroke="#0c2020" stroke-width="13" stroke-linecap="round" stroke-linejoin="round" opacity="1.0"/><path d="M314.9,247.7 L305.8,247.9 L296.7,248.2 L287.7,248.4 L278.6,248.7 L269.5,248.9 L260.4,249.1 L251.3,249.4 L242.2,249.6 L233.2,249.9 L224.1,250.1 L215.0,250.4" fill="none" stroke="#2dd4bf" stroke-width="25" stroke-linecap="round" stroke-linejoin="round" opacity="0.95"/><path d="M314.9,247.7 L305.8,247.9 L296.7,248.2 L287.7,248.4 L278.6,248.7 L269.5,248.9 L260.4,249.1 L251.3,249.4 L242.2,249.6 L233.2,249.9 L224.1,250.1 L215.0,250.4" fill="none" stroke="#0c2020" stroke-width="17" stroke-linecap="round" stroke-linejoin="round" opacity="1.0"/><circle cx="342.9" cy="243.5" r="19.0" fill="#2dd4bf" stroke="none" stroke-width="0" opacity="0.95"/><circle cx="342.9" cy="243.5" r="15.0" fill="#0c2020" stroke="none" stroke-width="6.3" opacity="1.0"/><path d="M333.6,240.5 L335.3,240.5 L337.0,240.5 L338.7,240.5 L340.4,240.5 L342.1,240.5 L343.8,240.5 L345.5,240.5 L347.1,240.5 L348.8,240.5 L350.5,240.5 L352.2,240.5" fill="none" stroke="#a7f3ee" stroke-width="5" stroke-linecap="round" stroke-linejoin="round" opacity="1.0"/></g><g class="f10"><path d="M314.7,241.6 L317.8,246.1 L320.8,250.7 L323.9,255.3 L327.0,259.9 L328.2,264.5 L324.9,269.1 L321.5,273.7 L318.2,278.2 L314.8,282.8 L311.4,287.4 L308.1,292.0" fill="none" stroke="#f43f5e" stroke-width="21" stroke-linecap="round" stroke-linejoin="round" opacity="0.95"/><path d="M314.7,241.6 L317.8,246.1 L320.8,250.7 L323.9,255.3 L327.0,259.9 L328.2,264.5 L324.9,269.1 L321.5,273.7 L318.2,278.2 L314.8,282.8 L311.4,287.4 L308.1,292.0" fill="none" stroke="#0c2020" stroke-width="13" stroke-linecap="round" stroke-linejoin="round" opacity="1.0"/><path d="M215.0,246.1 L204.7,249.4 L194.4,252.8 L184.1,256.1 L173.8,259.5 L163.5,262.9 L153.3,266.6 L143.3,270.5 L133.2,274.3 L123.1,278.2 L113.1,282.1 L103.0,286.0" fill="none" stroke="#2dd4bf" stroke-width="21" stroke-linecap="round" stroke-linejoin="round" opacity="0.95"/><path d="M215.0,246.1 L204.7,249.4 L194.4,252.8 L184.1,256.1 L173.8,259.5 L163.5,262.9 L153.3,266.6 L143.3,270.5 L133.2,274.3 L123.1,278.2 L113.1,282.1 L103.0,286.0" fill="none" stroke="#0c2020" stroke-width="13" stroke-linecap="round" stroke-linejoin="round" opacity="1.0"/><path d="M314.7,241.6 L305.6,242.0 L296.6,242.4 L287.5,242.8 L278.4,243.2 L269.4,243.6 L260.3,244.0 L251.2,244.4 L242.2,244.8 L233.1,245.2 L224.1,245.7 L215.0,246.1" fill="none" stroke="#2dd4bf" stroke-width="25" stroke-linecap="round" stroke-linejoin="round" opacity="0.95"/><path d="M314.7,241.6 L305.6,242.0 L296.6,242.4 L287.5,242.8 L278.4,243.2 L269.4,243.6 L260.3,244.0 L251.2,244.4 L242.2,244.8 L233.1,245.2 L224.1,245.7 L215.0,246.1" fill="none" stroke="#0c2020" stroke-width="17" stroke-linecap="round" stroke-linejoin="round" opacity="1.0"/><circle cx="342.7" cy="236.9" r="19.0" fill="#2dd4bf" stroke="none" stroke-width="0" opacity="0.95"/><circle cx="342.7" cy="236.9" r="15.0" fill="#0c2020" stroke="none" stroke-width="6.3" opacity="1.0"/><path d="M333.4,233.9 L335.1,233.9 L336.8,233.9 L338.5,233.9 L340.2,233.9 L341.8,233.9 L343.5,233.9 L345.2,233.9 L346.9,233.9 L348.6,233.9 L350.3,233.9 L352.0,233.9" fill="none" stroke="#a7f3ee" stroke-width="5" stroke-linecap="round" stroke-linejoin="round" opacity="1.0"/></g><g class="f11"><path d="M314.4,232.9 L316.7,238.3 L319.0,243.7 L321.3,249.0 L323.7,254.4 L324.5,259.8 L321.6,265.1 L318.7,270.5 L315.8,275.9 L312.9,281.3 L310.0,286.6 L307.1,292.0" fill="none" stroke="#f43f5e" stroke-width="21" stroke-linecap="round" stroke-linejoin="round" opacity="0.95"/><path d="M314.4,232.9 L316.7,238.3 L319.0,243.7 L321.3,249.0 L323.7,254.4 L324.5,259.8 L321.6,265.1 L318.7,270.5 L315.8,275.9 L312.9,281.3 L310.0,286.6 L307.1,292.0" fill="none" stroke="#0c2020" stroke-width="13" stroke-linecap="round" stroke-linejoin="round" opacity="1.0"/><path d="M215.0,240.0 L204.6,243.8 L194.2,247.6 L183.9,251.4 L173.5,255.2 L163.1,259.0 L153.0,263.3 L143.0,267.9 L133.0,272.4 L123.0,276.9 L113.0,281.5 L103.0,286.0" fill="none" stroke="#2dd4bf" stroke-width="21" stroke-linecap="round" stroke-linejoin="round" opacity="0.95"/><path d="M215.0,240.0 L204.6,243.8 L194.2,247.6 L183.9,251.4 L173.5,255.2 L163.1,259.0 L153.0,263.3 L143.0,267.9 L133.0,272.4 L123.0,276.9 L113.0,281.5 L103.0,286.0" fill="none" stroke="#0c2020" stroke-width="13" stroke-linecap="round" stroke-linejoin="round" opacity="1.0"/><path d="M314.4,232.9 L305.3,233.6 L296.3,234.2 L287.3,234.8 L278.2,235.5 L269.2,236.1 L260.2,236.8 L251.1,237.4 L242.1,238.1 L233.1,238.7 L224.0,239.3 L215.0,240.0" fill="none" stroke="#2dd4bf" stroke-width="25" stroke-linecap="round" stroke-linejoin="round" opacity="0.95"/><path d="M314.4,232.9 L305.3,233.6 L296.3,234.2 L287.3,234.8 L278.2,235.5 L269.2,236.1 L260.2,236.8 L251.1,237.4 L242.1,238.1 L233.1,238.7 L224.0,239.3 L215.0,240.0" fill="none" stroke="#0c2020" stroke-width="17" stroke-linecap="round" stroke-linejoin="round" opacity="1.0"/><circle cx="342.4" cy="227.6" r="19.0" fill="#2dd4bf" stroke="none" stroke-width="0" opacity="0.95"/><circle cx="342.4" cy="227.6" r="15.0" fill="#0c2020" stroke="none" stroke-width="6.3" opacity="1.0"/><path d="M333.1,224.6 L334.8,224.6 L336.4,224.6 L338.1,224.6 L339.8,224.6 L341.5,224.6 L343.2,224.6 L344.9,224.6 L346.6,224.6 L348.3,224.6 L350.0,224.6 L351.7,224.6" fill="none" stroke="#a7f3ee" stroke-width="5" stroke-linecap="round" stroke-linejoin="round" opacity="1.0"/></g><g class="f12"><path d="M314.0,223.0 L315.5,229.3 L316.9,235.5 L318.4,241.8 L319.8,248.1 L320.2,254.4 L317.8,260.6 L315.5,266.9 L313.1,273.2 L310.7,279.5 L308.4,285.7 L306.0,292.0" fill="none" stroke="#f43f5e" stroke-width="21" stroke-linecap="round" stroke-linejoin="round" opacity="0.95"/><path d="M314.0,223.0 L315.5,229.3 L316.9,235.5 L318.4,241.8 L319.8,248.1 L320.2,254.4 L317.8,260.6 L315.5,266.9 L313.1,273.2 L310.7,279.5 L308.4,285.7 L306.0,292.0" fill="none" stroke="#0c2020" stroke-width="13" stroke-linecap="round" stroke-linejoin="round" opacity="1.0"/><path d="M215.0,233.0 L204.5,237.3 L194.1,241.7 L183.6,246.0 L173.1,250.3 L162.7,254.6 L152.6,259.7 L142.7,264.9 L132.8,270.2 L122.8,275.5 L112.9,280.7 L103.0,286.0" fill="none" stroke="#2dd4bf" stroke-width="21" stroke-linecap="round" stroke-linejoin="round" opacity="0.95"/><path d="M215.0,233.0 L204.5,237.3 L194.1,241.7 L183.6,246.0 L173.1,250.3 L162.7,254.6 L152.6,259.7 L142.7,264.9 L132.8,270.2 L122.8,275.5 L112.9,280.7 L103.0,286.0" fill="none" stroke="#0c2020" stroke-width="13" stroke-linecap="round" stroke-linejoin="round" opacity="1.0"/><path d="M314.0,223.0 L305.0,223.9 L296.0,224.8 L287.0,225.7 L278.0,226.6 L269.0,227.5 L260.0,228.5 L251.0,229.4 L242.0,230.3 L233.0,231.2 L224.0,232.1 L215.0,233.0" fill="none" stroke="#2dd4bf" stroke-width="25" stroke-linecap="round" stroke-linejoin="round" opacity="0.95"/><path d="M314.0,223.0 L305.0,223.9 L296.0,224.8 L287.0,225.7 L278.0,226.6 L269.0,227.5 L260.0,228.5 L251.0,229.4 L242.0,230.3 L233.0,231.2 L224.0,232.1 L215.0,233.0" fill="none" stroke="#0c2020" stroke-width="17" stroke-linecap="round" stroke-linejoin="round" opacity="1.0"/><circle cx="342.0" cy="217.0" r="19.0" fill="#2dd4bf" stroke="none" stroke-width="0" opacity="0.95"/><circle cx="342.0" cy="217.0" r="15.0" fill="#0c2020" stroke="none" stroke-width="6.3" opacity="1.0"/><path d="M332.7,214.0 L334.4,214.0 L336.1,214.0 L337.8,214.0 L339.5,214.0 L341.2,214.0 L342.8,214.0 L344.5,214.0 L346.2,214.0 L347.9,214.0 L349.6,214.0 L351.3,214.0" fill="none" stroke="#a7f3ee" stroke-width="5" stroke-linecap="round" stroke-linejoin="round" opacity="1.0"/></g><g class="f13"><path d="M313.6,213.1 L314.2,220.3 L314.8,227.4 L315.4,234.6 L316.0,241.8 L315.9,249.0 L314.0,256.1 L312.2,263.3 L310.4,270.5 L308.6,277.7 L306.7,284.8 L304.9,292.0" fill="none" stroke="#f43f5e" stroke-width="21" stroke-linecap="round" stroke-linejoin="round" opacity="0.95"/><path d="M313.6,213.1 L314.2,220.3 L314.8,227.4 L315.4,234.6 L316.0,241.8 L315.9,249.0 L314.0,256.1 L312.2,263.3 L310.4,270.5 L308.6,277.7 L306.7,284.8 L304.9,292.0" fill="none" stroke="#0c2020" stroke-width="13" stroke-linecap="round" stroke-linejoin="round" opacity="1.0"/><path d="M215.0,226.0 L204.4,230.9 L193.9,235.7 L183.3,240.6 L172.8,245.4 L162.2,250.2 L152.2,256.0 L142.4,262.0 L132.5,268.0 L122.7,274.0 L112.8,280.0 L103.0,286.0" fill="none" stroke="#2dd4bf" stroke-width="21" stroke-linecap="round" stroke-linejoin="round" opacity="0.95"/><path d="M215.0,226.0 L204.4,230.9 L193.9,235.7 L183.3,240.6 L172.8,245.4 L162.2,250.2 L152.2,256.0 L142.4,262.0 L132.5,268.0 L122.7,274.0 L112.8,280.0 L103.0,286.0" fill="none" stroke="#0c2020" stroke-width="13" stroke-linecap="round" stroke-linejoin="round" opacity="1.0"/><path d="M313.6,213.1 L304.7,214.3 L295.7,215.4 L286.7,216.6 L277.8,217.8 L268.8,219.0 L259.8,220.1 L250.9,221.3 L241.9,222.5 L232.9,223.7 L224.0,224.8 L215.0,226.0" fill="none" stroke="#2dd4bf" stroke-width="25" stroke-linecap="round" stroke-linejoin="round" opacity="0.95"/><path d="M313.6,213.1 L304.7,214.3 L295.7,215.4 L286.7,216.6 L277.8,217.8 L268.8,219.0 L259.8,220.1 L250.9,221.3 L241.9,222.5 L232.9,223.7 L224.0,224.8 L215.0,226.0" fill="none" stroke="#0c2020" stroke-width="17" stroke-linecap="round" stroke-linejoin="round" opacity="1.0"/><circle cx="341.6" cy="206.4" r="19.0" fill="#2dd4bf" stroke="none" stroke-width="0" opacity="0.95"/><circle cx="341.6" cy="206.4" r="15.0" fill="#0c2020" stroke="none" stroke-width="6.3" opacity="1.0"/><path d="M332.3,203.4 L334.0,203.4 L335.7,203.4 L337.4,203.4 L339.1,203.4 L340.8,203.4 L342.5,203.4 L344.2,203.4 L345.9,203.4 L347.6,203.4 L349.2,203.4 L350.9,203.4" fill="none" stroke="#a7f3ee" stroke-width="5" stroke-linecap="round" stroke-linejoin="round" opacity="1.0"/></g><g class="f14"><path d="M313.3,204.4 L313.1,212.4 L313.0,220.4 L312.8,228.3 L312.6,236.3 L312.1,244.2 L310.8,252.2 L309.4,260.2 L308.0,268.1 L306.7,276.1 L305.3,284.0 L303.9,292.0" fill="none" stroke="#f43f5e" stroke-width="21" stroke-linecap="round" stroke-linejoin="round" opacity="0.95"/><path d="M313.3,204.4 L313.1,212.4 L313.0,220.4 L312.8,228.3 L312.6,236.3 L312.1,244.2 L310.8,252.2 L309.4,260.2 L308.0,268.1 L306.7,276.1 L305.3,284.0 L303.9,292.0" fill="none" stroke="#0c2020" stroke-width="13" stroke-linecap="round" stroke-linejoin="round" opacity="1.0"/><path d="M215.0,219.9 L204.4,225.2 L193.7,230.5 L183.1,235.8 L172.5,241.1 L161.9,246.4 L151.9,252.7 L142.1,259.4 L132.3,266.0 L122.6,272.7 L112.8,279.3 L103.0,286.0" fill="none" stroke="#2dd4bf" stroke-width="21" stroke-linecap="round" stroke-linejoin="round" opacity="0.95"/><path d="M215.0,219.9 L204.4,225.2 L193.7,230.5 L183.1,235.8 L172.5,241.1 L161.9,246.4 L151.9,252.7 L142.1,259.4 L132.3,266.0 L122.6,272.7 L112.8,279.3 L103.0,286.0" fill="none" stroke="#0c2020" stroke-width="13" stroke-linecap="round" stroke-linejoin="round" opacity="1.0"/><path d="M313.3,204.4 L304.4,205.8 L295.4,207.3 L286.5,208.7 L277.6,210.1 L268.6,211.5 L259.7,212.9 L250.8,214.3 L241.8,215.7 L232.9,217.1 L223.9,218.5 L215.0,219.9" fill="none" stroke="#2dd4bf" stroke-width="25" stroke-linecap="round" stroke-linejoin="round" opacity="0.95"/><path d="M313.3,204.4 L304.4,205.8 L295.4,207.3 L286.5,208.7 L277.6,210.1 L268.6,211.5 L259.7,212.9 L250.8,214.3 L241.8,215.7 L232.9,217.1 L223.9,218.5 L215.0,219.9" fill="none" stroke="#0c2020" stroke-width="17" stroke-linecap="round" stroke-linejoin="round" opacity="1.0"/><circle cx="341.3" cy="197.1" r="19.0" fill="#2dd4bf" stroke="none" stroke-width="0" opacity="0.95"/><circle cx="341.3" cy="197.1" r="15.0" fill="#0c2020" stroke="none" stroke-width="6.3" opacity="1.0"/><path d="M332.0,194.1 L333.7,194.1 L335.4,194.1 L337.1,194.1 L338.8,194.1 L340.5,194.1 L342.2,194.1 L343.8,194.1 L345.5,194.1 L347.2,194.1 L348.9,194.1 L350.6,194.1" fill="none" stroke="#a7f3ee" stroke-width="5" stroke-linecap="round" stroke-linejoin="round" opacity="1.0"/></g><g class="f15"><path d="M313.1,198.3 L312.4,206.8 L311.7,215.4 L311.0,223.9 L310.3,232.4 L309.5,240.9 L308.4,249.4 L307.4,257.9 L306.4,266.5 L305.3,275.0 L304.3,283.5 L303.3,292.0" fill="none" stroke="#f43f5e" stroke-width="21" stroke-linecap="round" stroke-linejoin="round" opacity="0.95"/><path d="M313.1,198.3 L312.4,206.8 L311.7,215.4 L311.0,223.9 L310.3,232.4 L309.5,240.9 L308.4,249.4 L307.4,257.9 L306.4,266.5 L305.3,275.0 L304.3,283.5 L303.3,292.0" fill="none" stroke="#0c2020" stroke-width="13" stroke-linecap="round" stroke-linejoin="round" opacity="1.0"/><path d="M215.0,215.6 L204.3,221.2 L193.6,226.9 L183.0,232.5 L172.3,238.1 L161.6,243.7 L151.6,250.4 L141.9,257.6 L132.2,264.7 L122.5,271.8 L112.7,278.9 L103.0,286.0" fill="none" stroke="#2dd4bf" stroke-width="21" stroke-linecap="round" stroke-linejoin="round" opacity="0.95"/><path d="M215.0,215.6 L204.3,221.2 L193.6,226.9 L183.0,232.5 L172.3,238.1 L161.6,243.7 L151.6,250.4 L141.9,257.6 L132.2,264.7 L122.5,271.8 L112.7,278.9 L103.0,286.0" fill="none" stroke="#0c2020" stroke-width="13" stroke-linecap="round" stroke-linejoin="round" opacity="1.0"/><path d="M313.1,198.3 L304.2,199.9 L295.3,201.5 L286.3,203.0 L277.4,204.6 L268.5,206.2 L259.6,207.8 L250.7,209.3 L241.8,210.9 L232.8,212.5 L223.9,214.1 L215.0,215.6" fill="none" stroke="#2dd4bf" stroke-width="25" stroke-linecap="round" stroke-linejoin="round" opacity="0.95"/><path d="M313.1,198.3 L304.2,199.9 L295.3,201.5 L286.3,203.0 L277.4,204.6 L268.5,206.2 L259.6,207.8 L250.7,209.3 L241.8,210.9 L232.8,212.5 L223.9,214.1 L215.0,215.6" fill="none" stroke="#0c2020" stroke-width="17" stroke-linecap="round" stroke-linejoin="round" opacity="1.0"/><circle cx="341.1" cy="190.5" r="19.0" fill="#2dd4bf" stroke="none" stroke-width="0" opacity="0.95"/><circle cx="341.1" cy="190.5" r="15.0" fill="#0c2020" stroke="none" stroke-width="6.3" opacity="1.0"/><path d="M331.8,187.5 L333.5,187.5 L335.2,187.5 L336.9,187.5 L338.5,187.5 L340.2,187.5 L341.9,187.5 L343.6,187.5 L345.3,187.5 L347.0,187.5 L348.7,187.5 L350.4,187.5" fill="none" stroke="#a7f3ee" stroke-width="5" stroke-linecap="round" stroke-linejoin="round" opacity="1.0"/></g></svg>
