<svg xmlns="http://www.w3.org/2000/svg" viewBox="0 0 480 320"><style>@keyframes k0{0%{opacity:1}11.111%{opacity:0}100%{opacity:0}}.f0{opacity:0;animation:k0 2.4s steps(1,end) infinite}@keyframes k1{0%{opacity:0}11.111%{opacity:1}16.667%{opacity:0}100%{opacity:0}}.f1{opacity:0;animation:k1 2.4s steps(1,end) infinite}@keyframes k2{0%{opacity:0}16.667%{opacity:1}22.222%{opacity:0}100%{opacity:0}}.f2{opacity:0;animation:k2 2.4s steps(1,end) infinite}@keyframes k3{0%{opacity:0}22.222%{opacity:1}27.778%{opacity:0}100%{opacity:0}}.f3{opacity:0;animation:k3 2.4s steps(1,end) infinite}@keyframes k4{0%{opacity:0}27.778%{opacity:1}33.333%{opacity:0}100%{opacity:0}}.f4{opacity:0;animation:k4 2.4s steps(1,end) infinite}@keyframes k5{0%{opacity:0}33.333%{opacity:1}38.889%{opacity:0}100%{opacity:0}}.f5{opacity:0;animation:k5 2.4s steps(1,end) infinite}@keyframes k6{0%{opacity:0}38.889%{opacity:1}44.444%{opacity:0}100%{opacity:0}}.f6{opacity:0;animation:k6 2.4s steps(1,end) infinite}@keyframes k7{0%{opacity:0}44.444%{opacity:1}50.000%{opacity:0}100%{opacity:0}}.f7{opacity:0;animation:k7 2.4s steps(1,end) infinite}@keyframes k8{0%{opacity:0}50.000%{opacity:1}61.111%{opacity:0}100%{opacity:0}}.f8{opacity:0;animation:k8 2.4s steps(1,end) infinite}@keyframes k9{0%{opacity:0}61.111%{opacity:1}66.667%{opacity:0}100%{opacity:0}}.f9{opacity:0;animation:k9 2.4s steps(1,end) infinite}@keyframes k10{0%{opacity:0}66.667%{opacity:1}72.222%{opacity:0}100%{opacity:0}}.f10{opacity:0;animation:k10 2.4s steps(1,end) infinite}@keyframes k11{0%{opacity:0}72.222%{opacity:1}77.778%{opacity:0}100%{opacity:0}}.f11{opacity:0;animation:k11 2.4s steps(1,end) infinite}@keyframes k12{0%{opacity:0}77.778%{opacity:1}83.333%{opacity:0}100%{opacity:0}}.f12{opacity:0;animation:k12 2.4s steps(1,end) infinite}@keyframes k13{0%{opacity:0}83.333%{opacity:1}88.889%{opacity:0}100%{opacity:0}}.f13{opacity:0;animation:k13 2.4s steps(1,end) infinite}@keyframes k14{0%{opacity:0}88.889%{opacity:1}94.444%{opacity:0}100%{opacity:0}}.f14{opacity:0;animation:k14 2.4s steps(1,end) infinite}@keyframes k15{0%{opacity:0}94.444%{opacity:1}100%{opacity:1}}.f15{opacity:0;animation:k15 2.4s steps(1,end) infinite}</style><path d="M40.0,292.0 L440.0,292.0" fill="none" stroke="#1f3333" stroke-width="6" stroke-linecap="round" stroke-linejoin="round" opacity="1.0"/><path d="M215.0,214.0 L159.0,244.0 L103.0,286.0" fill="none" stroke="#2dd4bf" stroke-width="19" stroke-linecap="round" stroke-linejoin="round" opacity="0.95"/><path d="M215.0,214.0 L159.0,244.0 L103.0,286.0" fill="none" stroke="#0c2020" stroke-width="11" stroke-linecap="round" stroke-linejoin="round" opacity="1.0"/><path d="M313.0,196.0 L215.0,214.0" fill="none" stroke="#2dd4bf" stroke-width="23" stroke-linecap="round" stroke-linejoin="round" opacity="0.95"/><path d="M313.0,196.0 L215.0,214.0" fill="none" stroke="#0c2020" stroke-width="15" stroke-linecap="round" stroke-linejoin="round" opacity="1.0"/><circle cx="341.0" cy="188.0" r="19.0" fill="#2dd4bf" stroke="none" stroke-width="0" opacity="0.95"/><circle cx="341.0" cy="188.0" r="15.0" fill="#0c2020" stroke="none" stroke-width="6.3" opacity="1.0"/><path d="M339.0,171.0 L320.0,190.0 L324.0,209.0" fill="none" stroke="#2dd4bf" stroke-width="5" stroke-linecap="round" stroke-linejoin="round" opacity="1.0"/><path d="M331.7,185.0 L350.3,185.0" fill="none" stroke="#a7f3ee" stroke-width="5" stroke-linecap="round" stroke-linejoin="round" opacity="1.0"/><g class="f0"><path d="M313.0,196.0 L311.0,203.5 L309.0,210.9 L307.0,218.4 L305.0,225.8 L303.0,233.3 L301.0,240.7 L299.0,248.2 L297.0,255.6 L295.0,263.1 L293.0,270.5 L291.0,278.0" fill="none" stroke="#8f2a3e" stroke-width="19" stroke-linecap="round" stroke-linejoin="round" opacity="0.95"/><path d="M313.0,196.0 L311.0,203.5 L309.0,210.9 L307.0,218.4 L305.0,225.8 L303.0,233.3 L301.0,240.7 L299.0,248.2 L297.0,255.6 L295.0,263.1 L293.0,270.5 L291.0,278.0" fill="none" stroke="#0c2020" stroke-width="11" stroke-linecap="round" stroke-linejoin="round" opacity="1.0"/><path d="M313.0,196.0 L312.1,203.5 L311.2,210.9 L310.3,218.4 L309.4,225.8 L308.5,233.3 L307.5,240.7 L306.6,248.2 L305.7,255.6 L304.8,263.1 L303.9,270.5 L303.0,278.0" fill="none" stroke="#f43f5e" stroke-width="19" stroke-linecap="round" stroke-linejoin="round" opacity="0.95"/><path d="M313.0,196.0 L312.1,203.5 L311.2,210.9 L310.3,218.4 L309.4,225.8 L308.5,233.3 L307.5,240.7 L306.6,248.2 L305.7,255.6 L304.8,263.1 L303.9,270.5 L303.0,278.0" fill="none" stroke="#0c2020" stroke-width="11" stroke-linecap="round" stroke-linejoin="round" opacity="1.0"/><path d="M279.0,278.0 L281.2,278.0 L283.4,278.0 L285.5,278.0 L287.7,278.0 L289.9,278.0 L292.1,278.0 L294.3,278.0 L296.5,278.0 L298.6,278.0 L300.8,278.0 L303.0,278.0" fill="none" stroke="#fbbf24" stroke-width="6" stroke-linecap="round" stroke-linejoin="round" opacity="1.0"/><circle cx="279.0" cy="278.0" r="6.0" fill="#fbbf24" stroke="none" stroke-width="6.3" opacity="1.0"/><circle cx="303.0" cy="278.0" r="6.0" fill="#fbbf24" stroke="none" stroke-width="6.3" opacity="1.0"/><path d="M291.0,278.0 L293.2,278.0 L295.4,278.0 L297.5,278.0 L299.7,278.0 L301.9,278.0 L304.1,278.0 L306.3,278.0 L308.5,278.0 L310.6,278.0 L312.8,278.0 L315.0,278.0" fill="none" stroke="#fbbf24" stroke-width="6" stroke-linecap="round" stroke-linejoin="round" opacity="1.0"/><circle cx="291.0" cy="278.0" r="6.0" fill="#fbbf24" stroke="none" stroke-width="6.3" opacity="1.0"/><circle cx="315.0" cy="278.0" r="6.0" fill="#fbbf24" stroke="none" stroke-width="6.3" opacity="1.0"/></g><g class="f1"><path d="M313.0,196.0 L311.0,203.5 L309.1,210.9 L307.1,218.4 L305.2,225.8 L303.2,233.3 L301.3,240.7 L299.3,248.2 L297.4,255.6 L295.4,263.1 L293.5,270.5 L291.5,278.0" fill="none" stroke="#8f2a3e" stroke-width="19" stroke-linecap="round" stroke-linejoin="round" opacity="0.95"/><path d="M313.0,196.0 L311.0,203.5 L309.1,210.9 L307.1,218.4 L305.2,225.8 L303.2,233.3 L301.3,240.7 L299.3,248.2 L297.4,255.6 L295.4,263.1 L293.5,270.5 L291.5,278.0" fill="none" stroke="#0c2020" stroke-width="11" stroke-linecap="round" stroke-linejoin="round" opacity="1.0"/><path d="M313.0,196.0 L312.1,203.2 L311.1,210.3 L310.2,217.5 L309.2,224.7 L308.3,231.9 L307.4,239.0 L306.4,246.2 L305.5,253.4 L304.5,260.6 L303.6,267.7 L302.7,274.9" fill="none" stroke="#f43f5e" stroke-width="19" stroke-linecap="round" stroke-linejoin="round" opacity="0.95"/><path d="M313.0,196.0 L312.1,203.2 L311.1,210.3 L310.2,217.5 L309.2,224.7 L308.3,231.9 L307.4,239.0 L306.4,246.2 L305.5,253.4 L304.5,260.6 L303.6,267.7 L302.7,274.9" fill="none" stroke="#0c2020" stroke-width="11" stroke-linecap="round" stroke-linejoin="round" opacity="1.0"/><path d="M279.5,278.0 L281.7,278.0 L283.9,278.0 L286.1,278.0 L288.2,278.0 L290.4,278.0 L292.6,278.0 L294.8,278.0 L297.0,278.0 L299.2,278.0 L301.3,278.0 L303.5,278.0" fill="none" stroke="#fbbf24" stroke-width="6" stroke-linecap="round" stroke-linejoin="round" opacity="1.0"/><circle cx="279.5" cy="278.0" r="6.0" fill="#fbbf24" stroke="none" stroke-width="6.3" opacity="1.0"/><circle cx="303.5" cy="278.0" r="6.0" fill="#fbbf24" stroke="none" stroke-width="6.3" opacity="1.0"/><path d="M290.7,274.9 L292.8,274.9 L295.0,274.9 L297.2,274.9 L299.4,274.9 L301.6,274.9 L303.7,274.9 L305.9,274.9 L308.1,274.9 L310.3,274.9 L312.5,274.9 L314.7,274.9" fill="none" stroke="#fbbf24" stroke-width="6" stroke-linecap="round" stroke-linejoin="round" opacity="1.0"/><circle cx="290.7" cy="274.9" r="6.0" fill="#fbbf24" stroke="none" stroke-width="6.3" opacity="1.0"/><circle cx="314.7" cy="274.9" r="6.0" fill="#fbbf24" stroke="none" stroke-width="6.3" opacity="1.0"/></g><g class="f2"><path d="M313.0,196.0 L311.2,203.5 L309.3,210.9 L307.5,218.4 L305.7,225.8 L303.9,233.3 L302.0,240.7 L300.2,248.2 L298.4,255.6 L296.5,263.1 L294.7,270.5 L292.9,278.0" fill="none" stroke="#8f2a3e" stroke-width="19" stroke-linecap="round" stroke-linejoin="round" opacity="0.95"/><path d="M313.0,196.0 L311.2,203.5 L309.3,210.9 L307.5,218.4 L305.7,225.8 L303.9,233.3 L302.0,240.7 L300.2,248.2 L298.4,255.6 L296.5,263.1 L294.7,270.5 L292.9,278.0" fill="none" stroke="#0c2020" stroke-width="11" stroke-linecap="round" stroke-linejoin="round" opacity="1.0"/><path d="M313.0,196.0 L312.0,202.4 L311.0,208.9 L309.9,215.3 L308.9,221.7 L307.9,228.2 L306.9,234.6 L305.8,241.0 L304.8,247.5 L303.8,253.9 L302.8,260.3 L301.8,266.8" fill="none" stroke="#f43f5e" stroke-width="19" stroke-linecap="round" stroke-linejoin="round" opacity="0.95"/><path d="M313.0,196.0 L312.0,202.4 L311.0,208.9 L309.9,215.3 L308.9,221.7 L307.9,228.2 L306.9,234.6 L305.8,241.0 L304.8,247.5 L303.8,253.9 L302.8,260.3 L301.8,266.8" fill="none" stroke="#0c2020" stroke-width="11" stroke-linecap="round" stroke-linejoin="round" opacity="1.0"/><path d="M280.9,278.0 L283.1,278.0 L285.2,278.0 L287.4,278.0 L289.6,278.0 L291.8,278.0 L294.0,278.0 L296.1,278.0 L298.3,278.0 L300.5,278.0 L302.7,278.0 L304.9,278.0" fill="none" stroke="#fbbf24" stroke-width="6" stroke-linecap="round" stroke-linejoin="round" opacity="1.0"/><circle cx="280.9" cy="278.0" r="6.0" fill="#fbbf24" stroke="none" stroke-width="6.3" opacity="1.0"/><circle cx="304.9" cy="278.0" r="6.0" fill="#fbbf24" stroke="none" stroke-width="6.3" opacity="1.0"/><path d="M289.8,266.8 L291.9,266.8 L294.1,266.8 L296.3,266.8 L298.5,266.8 L300.7,266.8 L302.8,266.8 L305.0,266.8 L307.2,266.8 L309.4,266.8 L311.6,266.8 L313.8,266.8" fill="none" stroke="#fbbf24" stroke-width="6" stroke-linecap="round" stroke-linejoin="round" opacity="1.0"/><circle cx="289.8" cy="266.8" r="6.0" fill="#fbbf24" stroke="none" stroke-width="6.3" opacity="1.0"/><circle cx="313.8" cy="266.8" r="6.0" fill="#fbbf24" stroke="none" stroke-width="6.3" opacity="1.0"/></g><g class="f3"><path d="M313.0,196.0 L311.3,203.5 L309.7,210.9 L308.0,218.4 L306.4,225.8 L304.7,233.3 L303.1,240.7 L301.4,248.2 L299.8,255.6 L298.1,263.1 L296.5,270.5 L294.8,278.0" fill="none" stroke="#8f2a3e" stroke-width="19" stroke-linecap="round" stroke-linejoin="round" opacity="0.95"/><path d="M313.0,196.0 L311.3,203.5 L309.7,210.9 L308.0,218.4 L306.4,225.8 L304.7,233.3 L303.1,240.7 L301.4,248.2 L299.8,255.6 L298.1,263.1 L296.5,270.5 L294.8,278.0" fill="none" stroke="#0c2020" stroke-width="11" stroke-linecap="round" stroke-linejoin="round" opacity="1.0"/><path d="M313.0,196.0 L311.9,201.4 L310.7,206.8 L309.6,212.2 L308.4,217.5 L307.3,222.9 L306.2,228.3 L305.0,233.7 L303.9,239.1 L302.7,244.5 L301.6,249.8 L300.5,255.2" fill="none" stroke="#f43f5e" stroke-width="19" stroke-linecap="round" stroke-linejoin="round" opacity="0.95"/><path d="M313.0,196.0 L311.9,201.4 L310.7,206.8 L309.6,212.2 L308.4,217.5 L307.3,222.9 L306.2,228.3 L305.0,233.7 L303.9,239.1 L302.7,244.5 L301.6,249.8 L300.5,255.2" fill="none" stroke="#0c2020" stroke-width="11" stroke-linecap="round" stroke-linejoin="round" opacity="1.0"/><path d="M282.8,278.0 L285.0,278.0 L287.2,278.0 L289.3,278.0 L291.5,278.0 L293.7,278.0 L295.9,278.0 L298.1,278.0 L300.3,278.0 L302.4,278.0 L304.6,278.0 L306.8,278.0" fill="none" stroke="#fbbf24" stroke-width="6" stroke-linecap="round" stroke-linejoin="round" opacity="1.0"/><circle cx="282.8" cy="278.0" r="6.0" fill="#fbbf24" stroke="none" stroke-width="6.3" opacity="1.0"/><circle cx="306.8" cy="278.0" r="6.0" fill="#fbbf24" stroke="none" stroke-width="6.3" opacity="1.0"/><path d="M288.5,255.2 L290.7,255.2 L292.8,255.2 L295.0,255.2 L297.2,255.2 L299.4,255.2 L301.6,255.2 L303.7,255.2 L305.9,255.2 L308.1,255.2 L310.3,255.2 L312.5,255.2" fill="none" stroke="#fbbf24" stroke-width="6" stroke-linecap="round" stroke-linejoin="round" opacity="1.0"/><circle cx="288.5" cy="255.2" r="6.0" fill="#fbbf24" stroke="none" stroke-width="6.3" opacity="1.0"/><circle cx="312.5" cy="255.2" r="6.0" fill="#fbbf24" stroke="none" stroke-width="6.3" opacity="1.0"/></g><g class="f4"><path d="M313.0,196.0 L311.5,203.5 L310.1,210.9 L308.6,218.4 L307.2,225.8 L305.7,233.3 L304.3,240.7 L302.8,248.2 L301.4,255.6 L299.9,263.1 L298.5,270.5 L297.0,278.0" fill="none" stroke="#8f2a3e" stroke-width="19" stroke-linecap="round" stroke-linejoin="round" opacity="0.95"/><path d="M313.0,196.0 L311.5,203.5 L310.1,210.9 L308.6,218.4 L307.2,225.8 L305.7,233.3 L304.3,240.7 L302.8,248.2 L301.4,255.6 L299.9,263.1 L298.5,270.5 L297.0,278.0" fill="none" stroke="#0c2020" stroke-width="11" stroke-linecap="round" stroke-linejoin="round" opacity="1.0"/><path d="M313.0,196.0 L311.7,200.2 L310.5,204.4 L309.2,208.5 L307.9,212.7 L306.6,216.9 L305.4,221.1 L304.1,225.3 L302.8,229.5 L301.5,233.6 L300.3,237.8 L299.0,242.0" fill="none" stroke="#f43f5e" stroke-width="19" stroke-linecap="round" stroke-linejoin="round" opacity="0.95"/><path d="M313.0,196.0 L311.7,200.2 L310.5,204.4 L309.2,208.5 L307.9,212.7 L306.6,216.9 L305.4,221.1 L304.1,225.3 L302.8,229.5 L301.5,233.6 L300.3,237.8 L299.0,242.0" fill="none" stroke="#0c2020" stroke-width="11" stroke-linecap="round" stroke-linejoin="round" opacity="1.0"/><path d="M285.0,278.0 L287.2,278.0 L289.4,278.0 L291.5,278.0 L293.7,278.0 L295.9,278.0 L298.1,278.0 L300.3,278.0 L302.5,278.0 L304.6,278.0 L306.8,278.0 L309.0,278.0" fill="none" stroke="#fbbf24" stroke-width="6" stroke-linecap="round" stroke-linejoin="round" opacity="1.0"/><circle cx="285.0" cy="278.0" r="6.0" fill="#fbbf24" stroke="none" stroke-width="6.3" opacity="1.0"/><circle cx="309.0" cy="278.0" r="6.0" fill="#fbbf24" stroke="none" stroke-width="6.3" opacity="1.0"/><path d="M287.0,242.0 L289.2,242.0 L291.4,242.0 L293.5,242.0 L295.7,242.0 L297.9,242.0 L300.1,242.0 L302.3,242.0 L304.5,242.0 L306.6,242.0 L308.8,242.0 L311.0,242.0" fill="none" stroke="#fbbf24" stroke-width="6" stroke-linecap="round" stroke-linejoin="round" opacity="1.0"/><circle cx="287.0" cy="242.0" r="6.0" fill="#fbbf24" stroke="none" stroke-width="6.3" opacity="1.0"/><circle cx="311.0" cy="242.0" r="6.0" fill="#fbbf24" stroke="none" stroke-width="6.3" opacity="1.0"/></g><g class="f5"><path d="M313.0,196.0 L311.7,203.5 L310.5,210.9 L309.2,218.4 L308.0,225.8 L306.7,233.3 L305.5,240.7 L304.2,248.2 L303.0,255.6 L301.7,263.1 L300.5,270.5 L299.2,278.0" fill="none" stroke="#8f2a3e" stroke-width="19" stroke-linecap="round" stroke-linejoin="round" opacity="0.95"/><path d="M313.0,196.0 L311.7,203.5 L310.5,210.9 L309.2,218.4 L308.0,225.8 L306.7,233.3 L305.5,240.7 L304.2,248.2 L303.0,255.6 L301.7,263.1 L300.5,270.5 L299.2,278.0" fill="none" stroke="#0c2020" stroke-width="11" stroke-linecap="round" stroke-linejoin="round" opacity="1.0"/><path d="M313.0,196.0 L311.6,199.0 L310.2,202.0 L308.8,204.9 L307.4,207.9 L306.0,210.9 L304.6,213.9 L303.2,216.9 L301.8,219.8 L300.3,222.8 L298.9,225.8 L297.5,228.8" fill="none" stroke="#f43f5e" stroke-width="19" stroke-linecap="round" stroke-linejoin="round" opacity="0.95"/><path d="M313.0,196.0 L311.6,199.0 L310.2,202.0 L308.8,204.9 L307.4,207.9 L306.0,210.9 L304.6,213.9 L303.2,216.9 L301.8,219.8 L300.3,222.8 L298.9,225.8 L297.5,228.8" fill="none" stroke="#0c2020" stroke-width="11" stroke-linecap="round" stroke-linejoin="round" opacity="1.0"/><path d="M287.2,278.0 L289.4,278.0 L291.6,278.0 L293.7,278.0 L295.9,278.0 L298.1,278.0 L300.3,278.0 L302.5,278.0 L304.7,278.0 L306.8,278.0 L309.0,278.0 L311.2,278.0" fill="none" stroke="#fbbf24" stroke-width="6" stroke-linecap="round" stroke-linejoin="round" opacity="1.0"/><circle cx="287.2" cy="278.0" r="6.0" fill="#fbbf24" stroke="none" stroke-width="6.3" opacity="1.0"/><circle cx="311.2" cy="278.0" r="6.0" fill="#fbbf24" stroke="none" stroke-width="6.3" opacity="1.0"/><path d="M285.5,228.8 L287.7,228.8 L289.9,228.8 L292.1,228.8 L294.3,228.8 L296.4,228.8 L298.6,228.8 L300.8,228.8 L303.0,228.8 L305.2,228.8 L307.3,228.8 L309.5,228.8" fill="none" stroke="#fbbf24" stroke-width="6" stroke-linecap="round" stroke-linejoin="round" opacity="1.0"/><circle cx="285.5" cy="228.8" r="6.0" fill="#fbbf24" stroke="none" stroke-width="6.3" opacity="1.0"/><circle cx="309.5" cy="228.8" r="6.0" fill="#fbbf24" stroke="none" stroke-width="6.3" opacity="1.0"/></g><g class="f6"><path d="M313.0,196.0 L311.9,203.5 L310.8,210.9 L309.8,218.4 L308.7,225.8 L307.6,233.3 L306.5,240.7 L305.4,248.2 L304.4,255.6 L303.3,263.1 L302.2,270.5 L301.1,278.0" fill="none" stroke="#8f2a3e" stroke-width="19" stroke-linecap="round" stroke-linejoin="round" opacity="0.95"/><path d="M313.0,196.0 L311.9,203.5 L310.8,210.9 L309.8,218.4 L308.7,225.8 L307.6,233.3 L306.5,240.7 L305.4,248.2 L304.4,255.6 L303.3,263.1 L302.2,270.5 L301.1,278.0" fill="none" stroke="#0c2020" stroke-width="11" stroke-linecap="round" stroke-linejoin="round" opacity="1.0"/><path d="M313.0,196.0 L311.5,197.9 L310.0,199.9 L308.4,201.8 L306.9,203.7 L305.4,205.7 L303.9,207.6 L302.3,209.5 L300.8,211.5 L299.3,213.4 L297.8,215.3 L296.2,217.2" fill="none" stroke="#f43f5e" stroke-width="19" stroke-linecap="round" stroke-linejoin="round" opacity="0.95"/><path d="M313.0,196.0 L311.5,197.9 L310.0,199.9 L308.4,201.8 L306.9,203.7 L305.4,205.7 L303.9,207.6 L302.3,209.5 L300.8,211.5 L299.3,213.4 L297.8,215.3 L296.2,217.2" fill="none" stroke="#0c2020" stroke-width="11" stroke-linecap="round" stroke-linejoin="round" opacity="1.0"/><path d="M289.1,278.0 L291.3,278.0 L293.5,278.0 L295.7,278.0 L297.9,278.0 L300.0,278.0 L302.2,278.0 L304.4,278.0 L306.6,278.0 L308.8,278.0 L310.9,278.0 L313.1,278.0" fill="none" stroke="#fbbf24" stroke-width="6" stroke-linecap="round" stroke-linejoin="round" opacity="1.0"/><circle cx="289.1" cy="278.0" r="6.0" fill="#fbbf24" stroke="none" stroke-width="6.3" opacity="1.0"/><circle cx="313.1" cy="278.0" r="6.0" fill="#fbbf24" stroke="none" stroke-width="6.3" opacity="1.0"/><path d="M284.2,217.2 L286.4,217.2 L288.6,217.2 L290.8,217.2 L293.0,217.2 L295.2,217.2 L297.3,217.2 L299.5,217.2 L301.7,217.2 L303.9,217.2 L306.1,217.2 L308.2,217.2" fill="none" stroke="#fbbf24" stroke-width="6" stroke-linecap="round" stroke-linejoin="round" opacity="1.0"/><circle cx="284.2" cy="217.2" r="6.0" fill="#fbbf24" stroke="none" stroke-width="6.3" opacity="1.0"/><circle cx="308.2" cy="217.2" r="6.0" fill="#fbbf24" stroke="none" stroke-width="6.3" opacity="1.0"/></g><g class="f7"><path d="M313.0,196.0 L312.0,203.5 L311.1,210.9 L310.1,218.4 L309.2,225.8 L308.2,233.3 L307.3,240.7 L306.3,248.2 L305.4,255.6 L304.4,263.1 L303.4,270.5 L302.5,278.0" fill="none" stroke="#8f2a3e" stroke-width="19" stroke-linecap="round" stroke-linejoin="round" opacity="0.95"/><path d="M313.0,196.0 L312.0,203.5 L311.1,210.9 L310.1,218.4 L309.2,225.8 L308.2,233.3 L307.3,240.7 L306.3,248.2 L305.4,255.6 L304.4,263.1 L303.4,270.5 L302.5,278.0" fill="none" stroke="#0c2020" stroke-width="11" stroke-linecap="round" stroke-linejoin="round" opacity="1.0"/><path d="M313.0,196.0 L311.4,197.2 L309.8,198.4 L308.2,199.6 L306.6,200.8 L305.0,202.0 L303.4,203.1 L301.8,204.3 L300.2,205.5 L298.6,206.7 L296.9,207.9 L295.3,209.1" fill="none" stroke="#f43f5e" stroke-width="19" stroke-linecap="round" stroke-linejoin="round" opacity="0.95"/><path d="M313.0,196.0 L311.4,197.2 L309.8,198.4 L308.2,199.6 L306.6,200.8 L305.0,202.0 L303.4,203.1 L301.8,204.3 L300.2,205.5 L298.6,206.7 L296.9,207.9 L295.3,209.1" fill="none" stroke="#0c2020" stroke-width="11" stroke-linecap="round" stroke-linejoin="round" opacity="1.0"/><path d="M290.5,278.0 L292.7,278.0 L294.8,278.0 L297.0,278.0 L299.2,278.0 L301.4,278.0 L303.6,278.0 L305.8,278.0 L307.9,278.0 L310.1,278.0 L312.3,278.0 L314.5,278.0" fill="none" stroke="#fbbf24" stroke-width="6" stroke-linecap="round" stroke-linejoin="round" opacity="1.0"/><circle cx="290.5" cy="278.0" r="6.0" fill="#fbbf24" stroke="none" stroke-width="6.3" opacity="1.0"/><circle cx="314.5" cy="278.0" r="6.0" fill="#fbbf24" stroke="none" stroke-width="6.3" opacity="1.0"/><path d="M283.3,209.1 L285.5,209.1 L287.7,209.1 L289.9,209.1 L292.1,209.1 L294.3,209.1 L296.4,209.1 L298.6,209.1 L300.8,209.1 L303.0,209.1 L305.2,209.1 L307.3,209.1" fill="none" stroke="#fbbf24" stroke-width="6" stroke-linecap="round" stroke-linejoin="round" opacity="1.0"/><circle cx="283.3" cy="209.1" r="6.0" fill="#fbbf24" stroke="none" stroke-width="6.3" opacity="1.0"/><circle cx="307.3" cy="209.1" r="6.0" fill="#fbbf24" stroke="none" stroke-width="6.3" opacity="1.0"/></g><g class="f8"><path d="M313.0,196.0 L312.1,203.5 L311.2,210.9 L310.3,218.4 L309.4,225.8 L308.5,233.3 L307.5,240.7 L306.6,248.2 L305.7,255.6 L304.8,263.1 L303.9,270.5 L303.0,278.0" fill="none" stroke="#8f2a3e" stroke-width="19" stroke-linecap="round" stroke-linejoin="round" opacity="0.95"/><path d="M313.0,196.0 L312.1,203.5 L311.2,210.9 L310.3,218.4 L309.4,225.8 L308.5,233.3 L307.5,240.7 L306.6,248.2 L305.7,255.6 L304.8,263.1 L303.9,270.5 L303.0,278.0" fill="none" stroke="#0c2020" stroke-width="11" stroke-linecap="round" stroke-linejoin="round" opacity="1.0"/><path d="M313.0,196.0 L311.4,196.9 L309.7,197.8 L308.1,198.7 L306.5,199.6 L304.8,200.5 L303.2,201.5 L301.5,202.4 L299.9,203.3 L298.3,204.2 L296.6,205.1 L295.0,206.0" fill="none" stroke="#f43f5e" stroke-width="19" stroke-linecap="round" stroke-linejoin="round" opacity="0.95"/><path d="M313.0,196.0 L311.4,196.9 L309.7,197.8 L308.1,198.7 L306.5,199.6 L304.8,200.5 L303.2,201.5 L301.5,202.4 L299.9,203.3 L298.3,204.2 L296.6,205.1 L295.0,206.0" fill="none" stroke="#0c2020" stroke-width="11" stroke-linecap="round" stroke-linejoin="round" opacity="1.0"/><path d="M291.0,278.0 L293.2,278.0 L295.4,278.0 L297.5,278.0 L299.7,278.0 L301.9,278.0 L304.1,278.0 L306.3,278.0 L308.5,278.0 L310.6,278.0 L312.8,278.0 L315.0,278.0" fill="none" stroke="#fbbf24" stroke-width="6" stroke-linecap="round" stroke-linejoin="round" opacity="1.0"/><circle cx="291.0" cy="278.0" r="6.0" fill="#fbbf24" stroke="none" stroke-width="6.3" opacity="1.0"/><circle cx="315.0" cy="278.0" r="6.0" fill="#fbbf24" stroke="none" stroke-width="6.3" opacity="1.0"/><path d="M283.0,206.0 L285.2,206.0 L287.4,206.0 L289.5,206.0 L291.7,206.0 L293.9,206.0 L296.1,206.0 L298.3,206.0 L300.5,206.0 L302.6,206.0 L304.8,206.0 L307.0,206.0" fill="none" stroke="#fbbf24" stroke-width="6" stroke-linecap="round" stroke-linejoin="round" opacity="1.0"/><circle cx="283.0" cy="206.0" r="6.0" fill="#fbbf24" stroke="none" stroke-width="6.3" opacity="1.0"/><circle cx="307.0" cy="206.0" r="6.0" fill="#fbbf24" stroke="none" stroke-width="6.3" opacity="1.0"/></g><g class="f9"><path d="M313.0,196.0 L312.0,203.5 L311.1,210.9 L310.1,218.4 L309.2,225.8 L308.2,233.3 L307.3,240.7 L306.3,248.2 L305.4,255.6 L304.4,263.1 L303.4,270.5 L302.5,278.0" fill="none" stroke="#8f2a3e" stroke-width="19" stroke-linecap="round" stroke-linejoin="round" opacity="0.95"/><path d="M313.0,196.0 L312.0,203.5 L311.1,210.9 L310.1,218.4 L309.2,225.8 L308.2,233.3 L307.3,240.7 L306.3,248.2 L305.4,255.6 L304.4,263.1 L303.4,270.5 L302.5,278.0" fill="none" stroke="#0c2020" stroke-width="11" stroke-linecap="round" stroke-linejoin="round" opacity="1.0"/><path d="M313.0,196.0 L311.4,197.2 L309.8,198.4 L308.2,199.6 L306.6,200.8 L305.0,202.0 L303.4,203.1 L301.8,204.3 L300.2,205.5 L298.6,206.7 L296.9,207.9 L295.3,209.1" fill="none" stroke="#f43f5e" stroke-width="19" stroke-linecap="round" stroke-linejoin="round" opacity="0.95"/><path d="M313.0,196.0 L311.4,197.2 L309.8,198.4 L308.2,199.6 L306.6,200.8 L305.0,202.0 L303.4,203.1 L301.8,204.3 L300.2,205.5 L298.6,206.7 L296.9,207.9 L295.3,209.1" fill="none" stroke="#0c2020" stroke-width="11" stroke-linecap="round" stroke-linejoin="round" opacity="1.0"/><path d="M290.5,278.0 L292.7,278.0 L294.8,278.0 L297.0,278.0 L299.2,278.0 L301.4,278.0 L303.6,278.0 L305.8,278.0 L307.9,278.0 L310.1,278.0 L312.3,278.0 L314.5,278.0" fill="none" stroke="#fbbf24" stroke-width="6" stroke-linecap="round" stroke-linejoin="round" opacity="1.0"/><circle cx="290.5" cy="278.0" r="6.0" fill="#fbbf24" stroke="none" stroke-width="6.3" opacity="1.0"/><circle cx="314.5" cy="278.0" r="6.0" fill="#fbbf24" stroke="none" stroke-width="6.3" opacity="1.0"/><path d="M283.3,209.1 L285.5,209.1 L287.7,209.1 L289.9,209.1 L292.1,209.1 L294.3,209.1 L296.4,209.1 L298.6,209.1 L300.8,209.1 L303.0,209.1 L305.2,209.1 L307.3,209.1" fill="none" stroke="#fbbf24" stroke-width="6" stroke-linecap="round" stroke-linejoin="round" opacity="1.0"/><circle cx="283.3" cy="209.1" r="6.0" fill="#fbbf24" stroke="none" stroke-width="6.3" opacity="1.0"/><circle cx="307.3" cy="209.1" r="6.0" fill="#fbbf24" stroke="none" stroke-width="6.3" opacity="1.0"/></g><g class="f10"><path d="M313.0,196.0 L311.9,203.5 L310.8,210.9 L309.8,218.4 L308.7,225.8 L307.6,233.3 L306.5,240.7 L305.4,248.2 L304.4,255.6 L303.3,263.1 L302.2,270.5 L301.1,278.0" fill="none" stroke="#8f2a3e" stroke-width="19" stroke-linecap="round" stroke-linejoin="round" opacity="0.95"/><path d="M313.0,196.0 L311.9,203.5 L310.8,210.9 L309.8,218.4 L308.7,225.8 L307.6,233.3 L306.5,240.7 L305.4,248.2 L304.4,255.6 L303.3,263.1 L302.2,270.5 L301.1,278.0" fill="none" stroke="#0c2020" stroke-width="11" stroke-linecap="round" stroke-linejoin="round" opacity="1.0"/><path d="M313.0,196.0 L311.5,197.9 L310.0,199.9 L308.4,201.8 L306.9,203.7 L305.4,205.7 L303.9,207.6 L302.3,209.5 L300.8,211.5 L299.3,213.4 L297.8,215.3 L296.2,217.2" fill="none" stroke="#f43f5e" stroke-width="19" stroke-linecap="round" stroke-linejoin="round" opacity="0.95"/><path d="M313.0,196.0 L311.5,197.9 L310.0,199.9 L308.4,201.8 L306.9,203.7 L305.4,205.7 L303.9,207.6 L302.3,209.5 L300.8,211.5 L299.3,213.4 L297.8,215.3 L296.2,217.2" fill="none" stroke="#0c2020" stroke-width="11" stroke-linecap="round" stroke-linejoin="round" opacity="1.0"/><path d="M289.1,278.0 L291.3,278.0 L293.5,278.0 L295.7,278.0 L297.9,278.0 L300.0,278.0 L302.2,278.0 L304.4,278.0 L306.6,278.0 L308.8,278.0 L310.9,278.0 L313.1,278.0" fill="none" stroke="#fbbf24" stroke-width="6" stroke-linecap="round" stroke-linejoin="round" opacity="1.0"/><circle cx="289.1" cy="278.0" r="6.0" fill="#fbbf24" stroke="none" stroke-width="6.3" opacity="1.0"/><circle cx="313.1" cy="278.0" r="6.0" fill="#fbbf24" stroke="none" stroke-width="6.3" opacity="1.0"/><path d="M284.2,217.2 L286.4,217.2 L288.6,217.2 L290.8,217.2 L293.0,217.2 L295.2,217.2 L297.3,217.2 L299.5,217.2 L301.7,217.2 L303.9,217.2 L306.1,217.2 L308.2,217.2" fill="none" stroke="#fbbf24" stroke-width="6" stroke-linecap="round" stroke-linejoin="round" opacity="1.0"/><circle cx="284.2" cy="217.2" r="6.0" fill="#fbbf24" stroke="none" stroke-width="6.3" opacity="1.0"/><circle cx="308.2" cy="217.2" r="6.0" fill="#fbbf24" stroke="none" stroke-width="6.3" opacity="1.0"/></g><g class="f11"><path d="M313.0,196.0 L311.7,203.5 L310.5,210.9 L309.2,218.4 L308.0,225.8 L306.7,233.3 L305.5,240.7 L304.2,248.2 L303.0,255.6 L301.7,263.1 L300.5,270.5 L299.2,278.0" fill="none" stroke="#8f2a3e" stroke-width="19" stroke-linecap="round" stroke-linejoin="round" opacity="0.95"/><path d="M313.0,196.0 L311.7,203.5 L310.5,210.9 L309.2,218.4 L308.0,225.8 L306.7,233.3 L305.5,240.7 L304.2,248.2 L303.0,255.6 L301.7,263.1 L300.5,270.5 L299.2,278.0" fill="none" stroke="#0c2020" stroke-width="11" stroke-linecap="round" stroke-linejoin="round" opacity="1.0"/><path d="M313.0,196.0 L311.6,199.0 L310.2,202.0 L308.8,204.9 L307.4,207.9 L306.0,210.9 L304.6,213.9 L303.2,216.9 L301.8,219.8 L300.3,222.8 L298.9,225.8 L297.5,228.8" fill="none" stroke="#f43f5e" stroke-width="19" stroke-linecap="round" stroke-linejoin="round" opacity="0.95"/><path d="M313.0,196.0 L311.6,199.0 L310.2,202.0 L308.8,204.9 L307.4,207.9 L306.0,210.9 L304.6,213.9 L303.2,216.9 L301.8,219.8 L300.3,222.8 L298.9,225.8 L297.5,228.8" fill="none" stroke="#0c2020" stroke-width="11" stroke-linecap="round" stroke-linejoin="round" opacity="1.0"/><path d="M287.2,278.0 L289.4,278.0 L291.6,278.0 L293.7,278.0 L295.9,278.0 L298.1,278.0 L300.3,278.0 L302.5,278.0 L304.7,278.0 L306.8,278.0 L309.0,278.0 L311.2,278.0" fill="none" stroke="#fbbf24" stroke-width="6" stroke-linecap="round" stroke-linejoin="round" opacity="1.0"/><circle cx="287.2" cy="278.0" r="6.0" fill="#fbbf24" stroke="none" stroke-width="6.3" opacity="1.0"/><circle cx="311.2" cy="278.0" r="6.0" fill="#fbbf24" stroke="none" stroke-width="6.3" opacity="1.0"/><path d="M285.5,228.8 L287.7,228.8 L289.9,228.8 L292.1,228.8 L294.3,228.8 L296.4,228.8 L298.6,228.8 L300.8,228.8 L303.0,228.8 L305.2,228.8 L307.3,228.8 L309.5,228.8" fill="none" stroke="#fbbf24" stroke-width="6" stroke-linecap="round" stroke-linejoin="round" opacity="1.0"/><circle cx="285.5" cy="228.8" r="6.0" fill="#fbbf24" stroke="none" stroke-width="6.3" opacity="1.0"/><circle cx="309.5" cy="228.8" r="6.0" fill="#fbbf24" stroke="none" stroke-width="6.3" opacity="1.0"/></g><g class="f12"><path d="M313.0,196.0 L311.5,203.5 L310.1,210.9 L308.6,218.4 L307.2,225.8 L305.7,233.3 L304.3,240.7 L302.8,248.2 L301.4,255.6 L299.9,263.1 L298.5,270.5 L297.0,278.0" fill="none" stroke="#8f2a3e" stroke-width="19" stroke-linecap="round" stroke-linejoin="round" opacity="0.95"/><path d="M313.0,196.0 L311.5,203.5 L310.1,210.9 L308.6,218.4 L307.2,225.8 L305.7,233.3 L304.3,240.7 L302.8,248.2 L301.4,255.6 L299.9,263.1 L298.5,270.5 L297.0,278.0" fill="none" stroke="#0c2020" stroke-width="11" stroke-linecap="round" stroke-linejoin="round" opacity="1.0"/><path d="M313.0,196.0 L311.7,200.2 L310.5,204.4 L309.2,208.5 L307.9,212.7 L306.6,216.9 L305.4,221.1 L304.1,225.3 L302.8,229.5 L301.5,233.6 L300.3,237.8 L299.0,242.0" fill="none" stroke="#f43f5e" stroke-width="19" stroke-linecap="round" stroke-linejoin="round" opacity="0.95"/><path d="M313.0,196.0 L311.7,200.2 L310.5,204.4 L309.2,208.5 L307.9,212.7 L306.6,216.9 L305.4,221.1 L304.1,225.3 L302.8,229.5 L301.5,233.6 L300.3,237.8 L299.0,242.0" fill="none" stroke="#0c2020" stroke-width="11" stroke-linecap="round" stroke-linejoin="round" opacity="1.0"/><path d="M285.0,278.0 L287.2,278.0 L289.4,278.0 L291.5,278.0 L293.7,278.0 L295.9,278.0 L298.1,278.0 L300.3,278.0 L302.5,278.0 L304.6,278.0 L306.8,278.0 L309.0,278.0" fill="none" stroke="#fbbf24" stroke-width="6" stroke-linecap="round" stroke-linejoin="round" opacity="1.0"/><circle cx="285.0" cy="278.0" r="6.0" fill="#fbbf24" stroke="none" stroke-width="6.3" opacity="1.0"/><circle cx="309.0" cy="278.0" r="6.0" fill="#fbbf24" stroke="none" stroke-width="6.3" opacity="1.0"/><path d="M287.0,242.0 L289.2,242.0 L291.4,242.0 L293.5,242.0 L295.7,242.0 L297.9,242.0 L300.1,242.0 L302.3,242.0 L304.5,242.0 L306.6,242.0 L308.8,242.0 L311.0,242.0" fill="none" stroke="#fbbf24" stroke-width="6" stroke-linecap="round" stroke-linejoin="round" opacity="1.0"/><circle cx="287.0" cy="242.0" r="6.0" fill="#fbbf24" stroke="none" stroke-width="6.3" opacity="1.0"/><circle cx="311.0" cy="242.0" r="6.0" fill="#fbbf24" stroke="none" stroke-width="6.3" opacity="1.0"/></g><g class="f13"><path d="M313.0,196.0 L311.3,203.5 L309.7,210.9 L308.0,218.4 L306.4,225.8 L304.7,233.3 L303.1,240.7 L301.4,248.2 L299.8,255.6 L298.1,263.1 L296.5,270.5 L294.8,278.0" fill="none" stroke="#8f2a3e" stroke-width="19" stroke-linecap="round" stroke-linejoin="round" opacity="0.95"/><path d="M313.0,196.0 L311.3,203.5 L309.7,210.9 L308.0,218.4 L306.4,225.8 L304.7,233.3 L303.1,240.7 L301.4,248.2 L299.8,255.6 L298.1,263.1 L296.5,270.5 L294.8,278.0" fill="none" stroke="#0c2020" stroke-width="11" stroke-linecap="round" stroke-linejoin="round" opacity="1.0"/><path d="M313.0,196.0 L311.9,201.4 L310.7,206.8 L309.6,212.2 L308.4,217.5 L307.3,222.9 L306.2,228.3 L305.0,233.7 L303.9,239.1 L302.7,244.5 L301.6,249.8 L300.5,255.2" fill="none" stroke="#f43f5e" stroke-width="19" stroke-linecap="round" stroke-linejoin="round" opacity="0.95"/><path d="M313.0,196.0 L311.9,201.4 L310.7,206.8 L309.6,212.2 L308.4,217.5 L307.3,222.9 L306.2,228.3 L305.0,233.7 L303.9,239.1 L302.7,244.5 L301.6,249.8 L300.5,255.2" fill="none" stroke="#0c2020" stroke-width="11" stroke-linecap="round" stroke-linejoin="round" opacity="1.0"/><path d="M282.8,278.0 L285.0,278.0 L287.2,278.0 L289.3,278.0 L291.5,278.0 L293.7,278.0 L295.9,278.0 L298.1,278.0 L300.3,278.0 L302.4,278.0 L304.6,278.0 L306.8,278.0" fill="none" stroke="#fbbf24" stroke-width="6" stroke-linecap="round" stroke-linejoin="round" opacity="1.0"/><circle cx="282.8" cy="278.0" r="6.0" fill="#fbbf24" stroke="none" stroke-width="6.3" opacity="1.0"/><circle cx="306.8" cy="278.0" r="6.0" fill="#fbbf24" stroke="none" stroke-width="6.3" opacity="1.0"/><path d="M288.5,255.2 L290.7,255.2 L292.8,255.2 L295.0,255.2 L297.2,255.2 L299.4,255.2 L301.6,255.2 L303.7,255.2 L305.9,255.2 L308.1,255.2 L310.3,255.2 L312.5,255.2" fill="none" stroke="#fbbf24" stroke-width="6" stroke-linecap="round" stroke-linejoin="round" opacity="1.0"/><circle cx="288.5" cy="255.2" r="6.0" fill="#fbbf24" stroke="none" stroke-width="6.3" opacity="1.0"/><circle cx="312.5" cy="255.2" r="6.0" fill="#fbbf24" stroke="none" stroke-width="6.3" opacity="1.0"/></g><g class="f14"><path d="M313.0,196.0 L311.2,203.5 L309.3,210.9 L307.5,218.4 L305.7,225.8 L303.9,233.3 L302.0,240.7 L300.2,248.2 L298.4,255.6 L296.5,263.1 L294.7,270.5 L292.9,278.0" fill="none" stroke="#8f2a3e" stroke-width="19" stroke-linecap="round" stroke-linejoin="round" opacity="0.95"/><path d="M313.0,196.0 L311.2,203.5 L309.3,210.9 L307.5,218.4 L305.7,225.8 L303.9,233.3 L302.0,240.7 L300.2,248.2 L298.4,255.6 L296.5,263.1 L294.7,270.5 L292.9,278.0" fill="none" stroke="#0c2020" stroke-width="11" stroke-linecap="round" stroke-linejoin="round" opacity="1.0"/><path d="M313.0,196.0 L312.0,202.4 L311.0,208.9 L309.9,215.3 L308.9,221.7 L307.9,228.2 L306.9,234.6 L305.8,241.0 L304.8,247.5 L303.8,253.9 L302.8,260.3 L301.8,266.8" fill="none" stroke="#f43f5e" stroke-width="19" stroke-linecap="round" stroke-linejoin="round" opacity="0.95"/><path d="M313.0,196.0 L312.0,202.4 L311.0,208.9 L309.9,215.3 L308.9,221.7 L307.9,228.2 L306.9,234.6 L305.8,241.0 L304.8,247.5 L303.8,253.9 L302.8,260.3 L301.8,266.8" fill="none" stroke="#0c2020" stroke-width="11" stroke-linecap="round" stroke-linejoin="round" opacity="1.0"/><path d="M280.9,278.0 L283.1,278.0 L285.2,278.0 L287.4,278.0 L289.6,278.0 L291.8,278.0 L294.0,278.0 L296.1,278.0 L298.3,278.0 L300.5,278.0 L302.7,278.0 L304.9,278.0" fill="none" stroke="#fbbf24" stroke-width="6" stroke-linecap="round" stroke-linejoin="round" opacity="1.0"/><circle cx="280.9" cy="278.0" r="6.0" fill="#fbbf24" stroke="none" stroke-width="6.3" opacity="1.0"/><circle cx="304.9" cy="278.0" r="6.0" fill="#fbbf24" stroke="none" stroke-width="6.3" opacity="1.0"/><path d="M289.8,266.8 L291.9,266.8 L294.1,266.8 L296.3,266.8 L298.5,266.8 L300.7,266.8 L302.8,266.8 L305.0,266.8 L307.2,266.8 L309.4,266.8 L311.6,266.8 L313.8,266.8" fill="none" stroke="#fbbf24" stroke-width="6" stroke-linecap="round" stroke-linejoin="round" opacity="1.0"/><circle cx="289.8" cy="266.8" r="6.0" fill="#fbbf24" stroke="none" stroke-width="6.3" opacity="1.0"/><circle cx="313.8" cy="266.8" r="6.0" fill="#fbbf24" stroke="none" stroke-width="6.3" opacity="1.0"/></g><g class="f15"><path d="M313.0,196.0 L311.0,203.5 L309.1,210.9 L307.1,218.4 L305.2,225.8 L303.2,233.3 L301.3,240.7 L299.3,248.2 L297.4,255.6 L295.4,263.1 L293.5,270.5 L291.5,278.0" fill="none" stroke="#8f2a3e" stroke-width="19" stroke-linecap="round" stroke-linejoin="round" opacity="0.95"/><path d="M313.0,196.0 L311.0,203.5 L309.1,210.9 L307.1,218.4 L305.2,225.8 L303.2,233.3 L301.3,240.7 L299.3,248.2 L297.4,255.6 L295.4,263.1 L293.5,270.5 L291.5,278.0" fill="none" stroke="#0c2020" stroke-width="11" stroke-linecap="round" stroke-linejoin="round" opacity="1.0"/><path d="M313.0,196.0 L312.1,203.2 L311.1,210.3 L310.2,217.5 L309.2,224.7 L308.3,231.9 L307.4,239.0 L306.4,246.2 L305.5,253.4 L304.5,260.6 L303.6,267.7 L302.7,274.9" fill="none" stroke="#f43f5e" stroke-width="19" stroke-linecap="round" stroke-linejoin="round" opacity="0.95"/><path d="M313.0,196.0 L312.1,203.2 L311.1,210.3 L310.2,217.5 L309.2,224.7 L308.3,231.9 L307.4,239.0 L306.4,246.2 L305.5,253.4 L304.5,260.6 L303.6,267.7 L302.7,274.9" fill="none" stroke="#0c2020" stroke-width="11" stroke-linecap="round" stroke-linejoin="round" opacity="1.0"/><path d="M279.5,278.0 L281.7,278.0 L283.9,278.0 L286.1,278.0 L288.2,278.0 L290.4,278.0 L292.6,278.0 L294.8,278.0 L297.0,278.0 L299.2,278.0 L301.3,278.0 L303.5,278.0" fill="none" stroke="#fbbf24" stroke-width="6" stroke-linecap="round" stroke-linejoin="round" opacity="1.0"/><circle cx="279.5" cy="278.0" r="6.0" fill="#fbbf24" stroke="none" stroke-width="6.3" opacity="1.0"/><circle cx="303.5" cy="278.0" r="6.0" fill="#fbbf24" stroke="none" stroke-width="6.3" opacity="1.0"/><path d="M290.7,274.9 L292.8,274.9 L295.0,274.9 L297.2,274.9 L299.4,274.9 L301.6,274.9 L303.7,274.9 L305.9,274.9 L308.1,274.9 L310.3,274.9 L312.5,274.9 L314.7,274.9" fill="none" stroke="#fbbf24" stroke-width="6" stroke-linecap="round" stroke-linejoin="round" opacity="1.0"/><circle cx="290.7" cy="274.9" r="6.0" fill="#fbbf24" stroke="none" stroke-width="6.3" opacity="1.0"/><circle cx="314.7" cy="274.9" r="6.0" fill="#fbbf24" stroke="none" stroke-width="6.3" opacity="1.0"/></g></svg>
