<svg xmlns="http://www.w3.org/2000/svg" viewBox="0 0 480 320"><style>@keyframes k0{0%{opacity:1}11.111%{opacity:0}100%{opacity:0}}.f0{opacity:0;animation:k0 2.4s steps(1,end) infinite}@keyframes k1{0%{opacity:0}11.111%{opacity:1}16.667%{opacity:0}100%{opacity:0}}.f1{opacity:0;animation:k1 2.4s steps(1,end) infinite}@keyframes k2{0%{opacity:0}16.667%{opacity:1}22.222%{opacity:0}100%{opacity:0}}.f2{opacity:0;animation:k2 2.4s steps(1,end) infinite}@keyframes k3{0%{opacity:0}22.222%{opacity:1}27.778%{opacity:0}100%{opacity:0}}.f3{opacity:0;animation:k3 2.4s steps(1,end) infinite}@keyframes k4{0%{opacity:0}27.778%{opacity:1}33.333%{opacity:0}100%{opacity:0}}.f4{opacity:0;animation:k4 2.4s steps(1,end) infinite}@keyframes k5{0%{opacity:0}33.333%{opacity:1}38.889%{opacity:0}100%{opacity:0}}.f5{opacity:0;animation:k5 2.4s steps(1,end) infinite}@keyframes k6{0%{opacity:0}38.889%{opacity:1}44.444%{opacity:0}100%{opacity:0}}.f6{opacity:0;animation:k6 2.4s steps(1,end) infinite}@keyframes k7{0%{opacity:0}44.444%{opacity:1}50.000%{opacity:0}100%{opacity:0}}.f7{opacity:0;animation:k7 2.4s steps(1,end) infinite}@keyframes k8{0%{opacity:0}50.000%{opacity:1}61.111%{opacity:0}100%{opacity:0}}.f8{opacity:0;animation:k8 2.4s steps(1,end) infinite}@keyframes k9{0%{opacity:0}61.111%{opacity:1}66.667%{opacity:0}100%{opacity:0}}.f9{opacity:0;animation:k9 2.4s steps(1,end) infinite}@keyframes k10{0%{opacity:0}66.667%{opacity:1}72.222%{opacity:0}100%{opacity:0}}.f10{opacity:0;animation:k10 2.4s steps(1,end) infinite}@keyframes k11{0%{opacity:0}72.222%{opacity:1}77.778%{opacity:0}100%{opacity:0}}.f11{opacity:0;animation:k11 2.4s steps(1,end) infinite}@keyframes k12{0%{opacity:0}77.778%{opacity:1}83.333%{opacity:0}100%{opacity:0}}.f12{opacity:0;animation:k12 2.4s steps(1,end) infinite}@keyframes k13{0%{opacity:0}83.333%{opacity:1}88.889%{opacity:0}100%{opacity:0}}.f13{opacity:0;animation:k13 2.4s steps(1,end) infinite}@keyframes k14{0%{opacity:0}88.889%{opacity:1}94.444%{opacity:0}100%{opacity:0}}.f14{opacity:0;animation:k14 2.4s steps(1,end) infinite}@keyframes k15{0%{opacity:0}94.444%{opacity:1}100%{opacity:1}}.f15{opacity:0;animation:k15 2.4s steps(1,end) infinite}</style><path d="M40.0,292.0 L440.0,292.0" fill="none" stroke="#1f3333" stroke-width="6" stroke-linecap="round" stroke-linejoin="round" opacity="1.0"/><g class="f0"><path d="M240.0,118.0 L240.7,124.1 L241.3,130.2 L242.0,136.2 L242.6,142.3 L243.3,148.4 L243.9,154.5 L243.6,160.6 L243.2,166.7 L242.8,172.8 L242.4,178.9 L242.0,185.0" fill="none" stroke="#2dd4bf" stroke-width="21" stroke-linecap="round" stroke-linejoin="round" opacity="0.95"/><path d="M240.0,118.0 L240.7,124.1 L241.3,130.2 L242.0,136.2 L242.6,142.3 L243.3,148.4 L243.9,154.5 L243.6,160.6 L243.2,166.7 L242.8,172.8 L242.4,178.9 L242.0,185.0" fill="none" stroke="#0c2020" stroke-width="13" stroke-linecap="round" stroke-linejoin="round" opacity="1.0"/><path d="M240.0,192.0 L238.9,201.1 L237.7,210.1 L236.6,219.2 L235.5,228.2 L234.3,237.3 L233.8,246.4 L233.4,255.5 L233.1,264.6 L232.7,273.8 L232.4,282.9 L232.0,292.0" fill="none" stroke="#8f2a3e" stroke-width="21" stroke-linecap="round" stroke-linejoin="round" opacity="0.95"/><path d="M240.0,192.0 L238.9,201.1 L237.7,210.1 L236.6,219.2 L235.5,228.2 L234.3,237.3 L233.8,246.4 L233.4,255.5 L233.1,264.6 L232.7,273.8 L232.4,282.9 L232.0,292.0" fill="none" stroke="#0c2020" stroke-width="13" stroke-linecap="round" stroke-linejoin="round" opacity="1.0"/><path d="M240.0,192.0 L241.5,201.0 L243.0,210.1 L244.5,219.1 L246.0,228.1 L247.5,237.2 L247.8,246.3 L247.4,255.4 L247.1,264.6 L246.7,273.7 L246.4,282.9 L246.0,292.0" fill="none" stroke="#f43f5e" stroke-width="21" stroke-linecap="round" stroke-linejoin="round" opacity="0.95"/><path d="M240.0,192.0 L241.5,201.0 L243.0,210.1 L244.5,219.1 L246.0,228.1 L247.5,237.2 L247.8,246.3 L247.4,255.4 L247.1,264.6 L246.7,273.7 L246.4,282.9 L246.0,292.0" fill="none" stroke="#0c2020" stroke-width="13" stroke-linecap="round" stroke-linejoin="round" opacity="1.0"/><path d="M240.0,118.0 L240.0,124.7 L240.0,131.5 L240.0,138.2 L240.0,144.9 L240.0,151.6 L240.0,158.4 L240.0,165.1 L240.0,171.8 L240.0,178.5 L240.0,185.3 L240.0,192.0" fill="none" stroke="#2dd4bf" stroke-width="25" stroke-linecap="round" stroke-linejoin="round" opacity="0.95"/><path d="M240.0,118.0 L240.0,124.7 L240.0,131.5 L240.0,138.2 L240.0,144.9 L240.0,151.6 L240.0,158.4 L240.0,165.1 L240.0,171.8 L240.0,178.5 L240.0,185.3 L240.0,192.0" fill="none" stroke="#0c2020" stroke-width="17" stroke-linecap="round" stroke-linejoin="round" opacity="1.0"/><circle cx="242.0" cy="90.0" r="19.0" fill="#2dd4bf" stroke="none" stroke-width="0" opacity="0.95"/><circle cx="242.0" cy="90.0" r="15.0" fill="#0c2020" stroke="none" stroke-width="6.3" opacity="1.0"/><path d="M232.7,87.0 L234.4,87.0 L236.1,87.0 L237.8,87.0 L239.5,87.0 L241.2,87.0 L242.8,87.0 L244.5,87.0 L246.2,87.0 L247.9,87.0 L249.6,87.0 L251.3,87.0" fill="none" stroke="#a7f3ee" stroke-width="5" stroke-linecap="round" stroke-linejoin="round" opacity="1.0"/></g><g class="f1"><path d="M239.8,119.3 L240.5,125.4 L241.1,131.4 L241.8,137.5 L242.5,143.6 L243.1,149.7 L243.8,155.8 L243.5,161.8 L243.0,167.9 L242.6,174.0 L242.2,180.1 L241.8,186.2" fill="none" stroke="#2dd4bf" stroke-width="21" stroke-linecap="round" stroke-linejoin="round" opacity="0.95"/><path d="M239.8,119.3 L240.5,125.4 L241.1,131.4 L241.8,137.5 L242.5,143.6 L243.1,149.7 L243.8,155.8 L243.5,161.8 L243.0,167.9 L242.6,174.0 L242.2,180.1 L241.8,186.2" fill="none" stroke="#0c2020" stroke-width="13" stroke-linecap="round" stroke-linejoin="round" opacity="1.0"/><path d="M239.7,193.3 L238.9,202.2 L238.1,211.0 L237.3,219.9 L236.5,228.8 L235.7,237.6 L235.5,246.5 L235.1,255.6 L234.7,264.7 L234.4,273.8 L234.0,282.9 L233.6,292.0" fill="none" stroke="#8f2a3e" stroke-width="21" stroke-linecap="round" stroke-linejoin="round" opacity="0.95"/><path d="M239.7,193.3 L238.9,202.2 L238.1,211.0 L237.3,219.9 L236.5,228.8 L235.7,237.6 L235.5,246.5 L235.1,255.6 L234.7,264.7 L234.4,273.8 L234.0,282.9 L233.6,292.0" fill="none" stroke="#0c2020" stroke-width="13" stroke-linecap="round" stroke-linejoin="round" opacity="1.0"/><path d="M239.7,193.3 L240.8,202.2 L241.9,211.1 L243.0,220.0 L244.0,228.9 L245.1,237.8 L245.0,246.8 L244.3,255.8 L243.7,264.9 L243.0,273.9 L242.3,282.9 L241.6,291.9" fill="none" stroke="#f43f5e" stroke-width="21" stroke-linecap="round" stroke-linejoin="round" opacity="0.95"/><path d="M239.7,193.3 L240.8,202.2 L241.9,211.1 L243.0,220.0 L244.0,228.9 L245.1,237.8 L245.0,246.8 L244.3,255.8 L243.7,264.9 L243.0,273.9 L242.3,282.9 L241.6,291.9" fill="none" stroke="#0c2020" stroke-width="13" stroke-linecap="round" stroke-linejoin="round" opacity="1.0"/><path d="M239.8,119.3 L239.8,126.0 L239.8,132.7 L239.8,139.5 L239.8,146.2 L239.8,152.9 L239.7,159.7 L239.7,166.4 L239.7,173.1 L239.7,179.8 L239.7,186.6 L239.7,193.3" fill="none" stroke="#2dd4bf" stroke-width="25" stroke-linecap="round" stroke-linejoin="round" opacity="0.95"/><path d="M239.8,119.3 L239.8,126.0 L239.8,132.7 L239.8,139.5 L239.8,146.2 L239.8,152.9 L239.7,159.7 L239.7,166.4 L239.7,173.1 L239.7,179.8 L239.7,186.6 L239.7,193.3" fill="none" stroke="#0c2020" stroke-width="17" stroke-linecap="round" stroke-linejoin="round" opacity="1.0"/><circle cx="241.8" cy="91.3" r="19.0" fill="#2dd4bf" stroke="none" stroke-width="0" opacity="0.95"/><circle cx="241.8" cy="91.3" r="15.0" fill="#0c2020" stroke="none" stroke-width="6.3" opacity="1.0"/><path d="M232.5,88.3 L234.2,88.3 L235.9,88.3 L237.6,88.3 L239.3,88.3 L241.0,88.3 L242.7,88.3 L244.4,88.3 L246.1,88.3 L247.7,88.3 L249.4,88.3 L251.1,88.3" fill="none" stroke="#a7f3ee" stroke-width="5" stroke-linecap="round" stroke-linejoin="round" opacity="1.0"/></g><g class="f2"><path d="M239.4,122.7 L240.0,128.8 L240.7,134.8 L241.3,140.9 L242.0,147.0 L242.7,153.0 L243.3,159.1 L243.0,165.2 L242.6,171.3 L242.2,177.4 L241.8,183.4 L241.4,189.5" fill="none" stroke="#2dd4bf" stroke-width="21" stroke-linecap="round" stroke-linejoin="round" opacity="0.95"/><path d="M239.4,122.7 L240.0,128.8 L240.7,134.8 L241.3,140.9 L242.0,147.0 L242.7,153.0 L243.3,159.1 L243.0,165.2 L242.6,171.3 L242.2,177.4 L241.8,183.4 L241.4,189.5" fill="none" stroke="#0c2020" stroke-width="13" stroke-linecap="round" stroke-linejoin="round" opacity="1.0"/><path d="M238.8,196.7 L238.9,205.1 L239.0,213.4 L239.2,221.8 L239.3,230.2 L239.4,238.6 L240.0,247.0 L239.6,256.0 L239.2,265.0 L238.8,274.0 L238.4,283.0 L237.9,292.0" fill="none" stroke="#8f2a3e" stroke-width="21" stroke-linecap="round" stroke-linejoin="round" opacity="0.95"/><path d="M238.8,196.7 L238.9,205.1 L239.0,213.4 L239.2,221.8 L239.3,230.2 L239.4,238.6 L240.0,247.0 L239.6,256.0 L239.2,265.0 L238.8,274.0 L238.4,283.0 L237.9,292.0" fill="none" stroke="#0c2020" stroke-width="13" stroke-linecap="round" stroke-linejoin="round" opacity="1.0"/><path d="M238.8,196.7 L238.8,205.3 L238.8,213.9 L238.8,222.5 L238.9,231.1 L238.9,239.7 L237.8,248.3 L236.3,257.0 L234.7,265.7 L233.2,274.3 L231.6,283.0 L230.1,291.7" fill="none" stroke="#f43f5e" stroke-width="21" stroke-linecap="round" stroke-linejoin="round" opacity="0.95"/><path d="M238.8,196.7 L238.8,205.3 L238.8,213.9 L238.8,222.5 L238.9,231.1 L238.9,239.7 L237.8,248.3 L236.3,257.0 L234.7,265.7 L233.2,274.3 L231.6,283.0 L230.1,291.7" fill="none" stroke="#0c2020" stroke-width="13" stroke-linecap="round" stroke-linejoin="round" opacity="1.0"/><path d="M239.4,122.7 L239.3,129.4 L239.3,136.1 L239.2,142.9 L239.1,149.6 L239.1,156.3 L239.0,163.1 L239.0,169.8 L238.9,176.5 L238.9,183.2 L238.8,190.0 L238.8,196.7" fill="none" stroke="#2dd4bf" stroke-width="25" stroke-linecap="round" stroke-linejoin="round" opacity="0.95"/><path d="M239.4,122.7 L239.3,129.4 L239.3,136.1 L239.2,142.9 L239.1,149.6 L239.1,156.3 L239.0,163.1 L239.0,169.8 L238.9,176.5 L238.9,183.2 L238.8,190.0 L238.8,196.7" fill="none" stroke="#0c2020" stroke-width="17" stroke-linecap="round" stroke-linejoin="round" opacity="1.0"/><circle cx="241.4" cy="94.7" r="19.0" fill="#2dd4bf" stroke="none" stroke-width="0" opacity="0.95"/><circle cx="241.4" cy="94.7" r="15.0" fill="#0c2020" stroke="none" stroke-width="6.3" opacity="1.0"/><path d="M232.1,91.7 L233.8,91.7 L235.5,91.7 L237.1,91.7 L238.8,91.7 L240.5,91.7 L242.2,91.7 L243.9,91.7 L245.6,91.7 L247.3,91.7 L249.0,91.7 L250.7,91.7" fill="none" stroke="#a7f3ee" stroke-width="5" stroke-linecap="round" stroke-linejoin="round" opacity="1.0"/></g><g class="f3"><path d="M238.7,127.5 L239.4,133.5 L240.0,139.6 L240.7,145.6 L241.4,151.7 L242.0,157.8 L242.7,163.8 L242.4,169.9 L242.0,176.0 L241.6,182.0 L241.1,188.1 L240.7,194.2" fill="none" stroke="#2dd4bf" stroke-width="21" stroke-linecap="round" stroke-linejoin="round" opacity="0.95"/><path d="M238.7,127.5 L239.4,133.5 L240.0,139.6 L240.7,145.6 L241.4,151.7 L242.0,157.8 L242.7,163.8 L242.4,169.9 L242.0,176.0 L241.6,182.0 L241.1,188.1 L240.7,194.2" fill="none" stroke="#0c2020" stroke-width="13" stroke-linecap="round" stroke-linejoin="round" opacity="1.0"/><path d="M237.5,201.5 L238.9,209.2 L240.4,216.8 L241.8,224.5 L243.2,232.2 L244.7,239.8 L246.5,247.6 L246.0,256.4 L245.5,265.3 L245.0,274.2 L244.5,283.1 L244.0,292.0" fill="none" stroke="#8f2a3e" stroke-width="21" stroke-linecap="round" stroke-linejoin="round" opacity="0.95"/><path d="M237.5,201.5 L238.9,209.2 L240.4,216.8 L241.8,224.5 L243.2,232.2 L244.7,239.8 L246.5,247.6 L246.0,256.4 L245.5,265.3 L245.0,274.2 L244.5,283.1 L244.0,292.0" fill="none" stroke="#0c2020" stroke-width="13" stroke-linecap="round" stroke-linejoin="round" opacity="1.0"/><path d="M237.5,201.5 L236.0,209.6 L234.5,217.8 L233.0,225.9 L231.5,234.1 L230.0,242.2 L227.7,250.4 L224.9,258.6 L222.1,266.8 L219.3,275.0 L216.5,283.2 L213.7,291.4" fill="none" stroke="#f43f5e" stroke-width="21" stroke-linecap="round" stroke-linejoin="round" opacity="0.95"/><path d="M237.5,201.5 L236.0,209.6 L234.5,217.8 L233.0,225.9 L231.5,234.1 L230.0,242.2 L227.7,250.4 L224.9,258.6 L222.1,266.8 L219.3,275.0 L216.5,283.2 L213.7,291.4" fill="none" stroke="#0c2020" stroke-width="13" stroke-linecap="round" stroke-linejoin="round" opacity="1.0"/><path d="M238.7,127.5 L238.6,134.2 L238.5,140.9 L238.4,147.7 L238.3,154.4 L238.2,161.1 L238.0,167.9 L237.9,174.6 L237.8,181.3 L237.7,188.0 L237.6,194.8 L237.5,201.5" fill="none" stroke="#2dd4bf" stroke-width="25" stroke-linecap="round" stroke-linejoin="round" opacity="0.95"/><path d="M238.7,127.5 L238.6,134.2 L238.5,140.9 L238.4,147.7 L238.3,154.4 L238.2,161.1 L238.0,167.9 L237.9,174.6 L237.8,181.3 L237.7,188.0 L237.6,194.8 L237.5,201.5" fill="none" stroke="#0c2020" stroke-width="17" stroke-linecap="round" stroke-linejoin="round" opacity="1.0"/><circle cx="240.7" cy="99.5" r="19.0" fill="#2dd4bf" stroke="none" stroke-width="0" opacity="0.95"/><circle cx="240.7" cy="99.5" r="15.0" fill="#0c2020" stroke="none" stroke-width="6.3" opacity="1.0"/><path d="M231.4,96.5 L233.1,96.5 L234.8,96.5 L236.5,96.5 L238.2,96.5 L239.9,96.5 L241.6,96.5 L243.3,96.5 L245.0,96.5 L246.7,96.5 L248.3,96.5 L250.0,96.5" fill="none" stroke="#a7f3ee" stroke-width="5" stroke-linecap="round" stroke-linejoin="round" opacity="1.0"/></g><g class="f4"><path d="M238.0,133.0 L238.7,139.0 L239.3,145.1 L240.0,151.1 L240.6,157.1 L241.3,163.2 L241.9,169.2 L241.6,175.3 L241.2,181.3 L240.8,187.4 L240.4,193.4 L240.0,199.5" fill="none" stroke="#2dd4bf" stroke-width="21" stroke-linecap="round" stroke-linejoin="round" opacity="0.95"/><path d="M238.0,133.0 L238.7,139.0 L239.3,145.1 L240.0,151.1 L240.6,157.1 L241.3,163.2 L241.9,169.2 L241.6,175.3 L241.2,181.3 L240.8,187.4 L240.4,193.4 L240.0,199.5" fill="none" stroke="#0c2020" stroke-width="13" stroke-linecap="round" stroke-linejoin="round" opacity="1.0"/><path d="M236.0,207.0 L238.9,213.9 L241.9,220.7 L244.8,227.6 L247.8,234.5 L250.7,241.3 L253.9,248.2 L253.3,257.0 L252.7,265.7 L252.1,274.5 L251.6,283.2 L251.0,292.0" fill="none" stroke="#8f2a3e" stroke-width="21" stroke-linecap="round" stroke-linejoin="round" opacity="0.95"/><path d="M236.0,207.0 L238.9,213.9 L241.9,220.7 L244.8,227.6 L247.8,234.5 L250.7,241.3 L253.9,248.2 L253.3,257.0 L252.7,265.7 L252.1,274.5 L251.6,283.2 L251.0,292.0" fill="none" stroke="#0c2020" stroke-width="13" stroke-linecap="round" stroke-linejoin="round" opacity="1.0"/><path d="M236.0,207.0 L232.8,214.6 L229.5,222.3 L226.3,229.9 L223.1,237.5 L219.9,245.2 L216.0,252.8 L211.8,260.4 L207.6,268.1 L203.4,275.7 L199.2,283.4 L195.0,291.0" fill="none" stroke="#f43f5e" stroke-width="21" stroke-linecap="round" stroke-linejoin="round" opacity="0.95"/><path d="M236.0,207.0 L232.8,214.6 L229.5,222.3 L226.3,229.9 L223.1,237.5 L219.9,245.2 L216.0,252.8 L211.8,260.4 L207.6,268.1 L203.4,275.7 L199.2,283.4 L195.0,291.0" fill="none" stroke="#0c2020" stroke-width="13" stroke-linecap="round" stroke-linejoin="round" opacity="1.0"/><path d="M238.0,133.0 L237.8,139.7 L237.6,146.5 L237.5,153.2 L237.3,159.9 L237.1,166.6 L236.9,173.4 L236.7,180.1 L236.5,186.8 L236.4,193.5 L236.2,200.3 L236.0,207.0" fill="none" stroke="#2dd4bf" stroke-width="25" stroke-linecap="round" stroke-linejoin="round" opacity="0.95"/><path d="M238.0,133.0 L237.8,139.7 L237.6,146.5 L237.5,153.2 L237.3,159.9 L237.1,166.6 L236.9,173.4 L236.7,180.1 L236.5,186.8 L236.4,193.5 L236.2,200.3 L236.0,207.0" fill="none" stroke="#0c2020" stroke-width="17" stroke-linecap="round" stroke-linejoin="round" opacity="1.0"/><circle cx="240.0" cy="105.0" r="19.0" fill="#2dd4bf" stroke="none" stroke-width="0" opacity="0.95"/><circle cx="240.0" cy="105.0" r="15.0" fill="#0c2020" stroke="none" stroke-width="6.3" opacity="1.0"/><path d="M230.7,102.0 L232.4,102.0 L234.1,102.0 L235.8,102.0 L237.5,102.0 L239.2,102.0 L240.8,102.0 L242.5,102.0 L244.2,102.0 L245.9,102.0 L247.6,102.0 L249.3,102.0" fill="none" stroke="#a7f3ee" stroke-width="5" stroke-linecap="round" stroke-linejoin="round" opacity="1.0"/></g><g class="f5"><path d="M237.3,138.5 L237.9,144.5 L238.6,150.5 L239.2,156.6 L239.9,162.6 L240.5,168.6 L241.2,174.6 L240.9,180.7 L240.5,186.7 L240.1,192.7 L239.7,198.8 L239.3,204.8" fill="none" stroke="#2dd4bf" stroke-width="21" stroke-linecap="round" stroke-linejoin="round" opacity="0.95"/><path d="M237.3,138.5 L237.9,144.5 L238.6,150.5 L239.2,156.6 L239.9,162.6 L240.5,168.6 L241.2,174.6 L240.9,180.7 L240.5,186.7 L240.1,192.7 L239.7,198.8 L239.3,204.8" fill="none" stroke="#0c2020" stroke-width="13" stroke-linecap="round" stroke-linejoin="round" opacity="1.0"/><path d="M234.5,212.5 L239.0,218.6 L243.4,224.6 L247.8,230.7 L252.3,236.7 L256.7,242.8 L261.3,248.9 L260.6,257.5 L259.9,266.1 L259.3,274.8 L258.6,283.4 L258.0,292.0" fill="none" stroke="#8f2a3e" stroke-width="21" stroke-linecap="round" stroke-linejoin="round" opacity="0.95"/><path d="M234.5,212.5 L239.0,218.6 L243.4,224.6 L247.8,230.7 L252.3,236.7 L256.7,242.8 L261.3,248.9 L260.6,257.5 L259.9,266.1 L259.3,274.8 L258.6,283.4 L258.0,292.0" fill="none" stroke="#0c2020" stroke-width="13" stroke-linecap="round" stroke-linejoin="round" opacity="1.0"/><path d="M234.5,212.5 L229.6,219.6 L224.6,226.7 L219.6,233.9 L214.7,241.0 L209.7,248.1 L204.3,255.2 L198.7,262.3 L193.1,269.4 L187.5,276.5 L181.9,283.5 L176.3,290.6" fill="none" stroke="#f43f5e" stroke-width="21" stroke-linecap="round" stroke-linejoin="round" opacity="0.95"/><path d="M234.5,212.5 L229.6,219.6 L224.6,226.7 L219.6,233.9 L214.7,241.0 L209.7,248.1 L204.3,255.2 L198.7,262.3 L193.1,269.4 L187.5,276.5 L181.9,283.5 L176.3,290.6" fill="none" stroke="#0c2020" stroke-width="13" stroke-linecap="round" stroke-linejoin="round" opacity="1.0"/><path d="M237.3,138.5 L237.0,145.2 L236.8,152.0 L236.5,158.7 L236.3,165.4 L236.0,172.1 L235.8,178.9 L235.5,185.6 L235.3,192.3 L235.0,199.1 L234.8,205.8 L234.5,212.5" fill="none" stroke="#2dd4bf" stroke-width="25" stroke-linecap="round" stroke-linejoin="round" opacity="0.95"/><path d="M237.3,138.5 L237.0,145.2 L236.8,152.0 L236.5,158.7 L236.3,165.4 L236.0,172.1 L235.8,178.9 L235.5,185.6 L235.3,192.3 L235.0,199.1 L234.8,205.8 L234.5,212.5" fill="none" stroke="#0c2020" stroke-width="17" stroke-linecap="round" stroke-linejoin="round" opacity="1.0"/><circle cx="239.3" cy="110.5" r="19.0" fill="#2dd4bf" stroke="none" stroke-width="0" opacity="0.95"/><circle cx="239.3" cy="110.5" r="15.0" fill="#0c2020" stroke="none" stroke-width="6.3" opacity="1.0"/><path d="M230.0,107.5 L231.7,107.5 L233.3,107.5 L235.0,107.5 L236.7,107.5 L238.4,107.5 L240.1,107.5 L241.8,107.5 L243.5,107.5 L245.2,107.5 L246.9,107.5 L248.6,107.5" fill="none" stroke="#a7f3ee" stroke-width="5" stroke-linecap="round" stroke-linejoin="round" opacity="1.0"/></g><g class="f6"><path d="M236.6,143.3 L237.3,149.3 L237.9,155.3 L238.6,161.3 L239.2,167.3 L239.9,173.3 L240.5,179.3 L240.3,185.4 L239.9,191.4 L239.5,197.4 L239.0,203.4 L238.6,209.5" fill="none" stroke="#2dd4bf" stroke-width="21" stroke-linecap="round" stroke-linejoin="round" opacity="0.95"/><path d="M236.6,143.3 L237.3,149.3 L237.9,155.3 L238.6,161.3 L239.2,167.3 L239.9,173.3 L240.5,179.3 L240.3,185.4 L239.9,191.4 L239.5,197.4 L239.0,203.4 L238.6,209.5" fill="none" stroke="#0c2020" stroke-width="13" stroke-linecap="round" stroke-linejoin="round" opacity="1.0"/><path d="M233.2,217.3 L239.0,222.7 L244.7,228.0 L250.5,233.4 L256.2,238.7 L261.9,244.1 L267.7,249.5 L267.0,258.0 L266.2,266.5 L265.5,275.0 L264.8,283.5 L264.1,292.0" fill="none" stroke="#8f2a3e" stroke-width="21" stroke-linecap="round" stroke-linejoin="round" opacity="0.95"/><path d="M233.2,217.3 L239.0,222.7 L244.7,228.0 L250.5,233.4 L256.2,238.7 L261.9,244.1 L267.7,249.5 L267.0,258.0 L266.2,266.5 L265.5,275.0 L264.8,283.5 L264.1,292.0" fill="none" stroke="#0c2020" stroke-width="13" stroke-linecap="round" stroke-linejoin="round" opacity="1.0"/><path d="M233.2,217.3 L226.8,224.0 L220.3,230.6 L213.8,237.3 L207.3,244.0 L200.8,250.7 L194.1,257.3 L187.3,263.9 L180.5,270.5 L173.6,277.1 L166.8,283.7 L159.9,290.3" fill="none" stroke="#f43f5e" stroke-width="21" stroke-linecap="round" stroke-linejoin="round" opacity="0.95"/><path d="M233.2,217.3 L226.8,224.0 L220.3,230.6 L213.8,237.3 L207.3,244.0 L200.8,250.7 L194.1,257.3 L187.3,263.9 L180.5,270.5 L173.6,277.1 L166.8,283.7 L159.9,290.3" fill="none" stroke="#0c2020" stroke-width="13" stroke-linecap="round" stroke-linejoin="round" opacity="1.0"/><path d="M236.6,143.3 L236.3,150.0 L236.0,156.8 L235.7,163.5 L235.4,170.2 L235.1,176.9 L234.8,183.7 L234.5,190.4 L234.2,197.1 L233.9,203.9 L233.6,210.6 L233.2,217.3" fill="none" stroke="#2dd4bf" stroke-width="25" stroke-linecap="round" stroke-linejoin="round" opacity="0.95"/><path d="M236.6,143.3 L236.3,150.0 L236.0,156.8 L235.7,163.5 L235.4,170.2 L235.1,176.9 L234.8,183.7 L234.5,190.4 L234.2,197.1 L233.9,203.9 L233.6,210.6 L233.2,217.3" fill="none" stroke="#0c2020" stroke-width="17" stroke-linecap="round" stroke-linejoin="round" opacity="1.0"/><circle cx="238.6" cy="115.3" r="19.0" fill="#2dd4bf" stroke="none" stroke-width="0" opacity="0.95"/><circle cx="238.6" cy="115.3" r="15.0" fill="#0c2020" stroke="none" stroke-width="6.3" opacity="1.0"/><path d="M229.3,112.3 L231.0,112.3 L232.7,112.3 L234.4,112.3 L236.1,112.3 L237.8,112.3 L239.5,112.3 L241.2,112.3 L242.9,112.3 L244.5,112.3 L246.2,112.3 L247.9,112.3" fill="none" stroke="#a7f3ee" stroke-width="5" stroke-linecap="round" stroke-linejoin="round" opacity="1.0"/></g><g class="f7"><path d="M236.2,146.7 L236.8,152.7 L237.5,158.7 L238.1,164.7 L238.8,170.7 L239.4,176.7 L240.1,182.7 L239.8,188.7 L239.4,194.7 L239.0,200.7 L238.6,206.7 L238.2,212.8" fill="none" stroke="#2dd4bf" stroke-width="21" stroke-linecap="round" stroke-linejoin="round" opacity="0.95"/><path d="M236.2,146.7 L236.8,152.7 L237.5,158.7 L238.1,164.7 L238.8,170.7 L239.4,176.7 L240.1,182.7 L239.8,188.7 L239.4,194.7 L239.0,200.7 L238.6,206.7 L238.2,212.8" fill="none" stroke="#0c2020" stroke-width="13" stroke-linecap="round" stroke-linejoin="round" opacity="1.0"/><path d="M232.3,220.7 L239.0,225.6 L245.7,230.4 L252.3,235.3 L259.0,240.2 L265.6,245.0 L272.3,249.9 L271.5,258.3 L270.7,266.7 L269.9,275.2 L269.1,283.6 L268.4,292.0" fill="none" stroke="#8f2a3e" stroke-width="21" stroke-linecap="round" stroke-linejoin="round" opacity="0.95"/><path d="M232.3,220.7 L239.0,225.6 L245.7,230.4 L252.3,235.3 L259.0,240.2 L265.6,245.0 L272.3,249.9 L271.5,258.3 L270.7,266.7 L269.9,275.2 L269.1,283.6 L268.4,292.0" fill="none" stroke="#0c2020" stroke-width="13" stroke-linecap="round" stroke-linejoin="round" opacity="1.0"/><path d="M232.3,220.7 L224.8,227.1 L217.2,233.4 L209.7,239.8 L202.1,246.1 L194.6,252.5 L186.9,258.8 L179.2,265.1 L171.5,271.3 L163.8,277.6 L156.1,283.8 L148.4,290.1" fill="none" stroke="#f43f5e" stroke-width="21" stroke-linecap="round" stroke-linejoin="round" opacity="0.95"/><path d="M232.3,220.7 L224.8,227.1 L217.2,233.4 L209.7,239.8 L202.1,246.1 L194.6,252.5 L186.9,258.8 L179.2,265.1 L171.5,271.3 L163.8,277.6 L156.1,283.8 L148.4,290.1" fill="none" stroke="#0c2020" stroke-width="13" stroke-linecap="round" stroke-linejoin="round" opacity="1.0"/><path d="M236.2,146.7 L235.8,153.4 L235.5,160.2 L235.1,166.9 L234.8,173.6 L234.4,180.3 L234.1,187.1 L233.7,193.8 L233.4,200.5 L233.0,207.3 L232.7,214.0 L232.3,220.7" fill="none" stroke="#2dd4bf" stroke-width="25" stroke-linecap="round" stroke-linejoin="round" opacity="0.95"/><path d="M236.2,146.7 L235.8,153.4 L235.5,160.2 L235.1,166.9 L234.8,173.6 L234.4,180.3 L234.1,187.1 L233.7,193.8 L233.4,200.5 L233.0,207.3 L232.7,214.0 L232.3,220.7" fill="none" stroke="#0c2020" stroke-width="17" stroke-linecap="round" stroke-linejoin="round" opacity="1.0"/><circle cx="238.2" cy="118.7" r="19.0" fill="#2dd4bf" stroke="none" stroke-width="0" opacity="0.95"/><circle cx="238.2" cy="118.7" r="15.0" fill="#0c2020" stroke="none" stroke-width="6.3" opacity="1.0"/><path d="M228.9,115.7 L230.6,115.7 L232.3,115.7 L233.9,115.7 L235.6,115.7 L237.3,115.7 L239.0,115.7 L240.7,115.7 L242.4,115.7 L244.1,115.7 L245.8,115.7 L247.5,115.7" fill="none" stroke="#a7f3ee" stroke-width="5" stroke-linecap="round" stroke-linejoin="round" opacity="1.0"/></g><g class="f8"><path d="M236.0,148.0 L236.6,154.0 L237.3,160.0 L237.9,166.0 L238.6,172.0 L239.2,178.0 L239.9,183.9 L239.7,190.0 L239.2,196.0 L238.8,202.0 L238.4,208.0 L238.0,214.0" fill="none" stroke="#2dd4bf" stroke-width="21" stroke-linecap="round" stroke-linejoin="round" opacity="0.95"/><path d="M236.0,148.0 L236.6,154.0 L237.3,160.0 L237.9,166.0 L238.6,172.0 L239.2,178.0 L239.9,183.9 L239.7,190.0 L239.2,196.0 L238.8,202.0 L238.4,208.0 L238.0,214.0" fill="none" stroke="#0c2020" stroke-width="13" stroke-linecap="round" stroke-linejoin="round" opacity="1.0"/><path d="M232.0,222.0 L239.0,226.7 L246.0,231.3 L253.0,236.0 L260.0,240.7 L267.0,245.4 L274.0,250.1 L273.2,258.5 L272.4,266.8 L271.6,275.2 L270.8,283.6 L270.0,292.0" fill="none" stroke="#8f2a3e" stroke-width="21" stroke-linecap="round" stroke-linejoin="round" opacity="0.95"/><path d="M232.0,222.0 L239.0,226.7 L246.0,231.3 L253.0,236.0 L260.0,240.7 L267.0,245.4 L274.0,250.1 L273.2,258.5 L272.4,266.8 L271.6,275.2 L270.8,283.6 L270.0,292.0" fill="none" stroke="#0c2020" stroke-width="13" stroke-linecap="round" stroke-linejoin="round" opacity="1.0"/><path d="M232.0,222.0 L224.0,228.2 L216.1,234.5 L208.1,240.7 L200.2,246.9 L192.2,253.2 L184.2,259.4 L176.2,265.5 L168.1,271.6 L160.1,277.7 L152.0,283.9 L144.0,290.0" fill="none" stroke="#f43f5e" stroke-width="21" stroke-linecap="round" stroke-linejoin="round" opacity="0.95"/><path d="M232.0,222.0 L224.0,228.2 L216.1,234.5 L208.1,240.7 L200.2,246.9 L192.2,253.2 L184.2,259.4 L176.2,265.5 L168.1,271.6 L160.1,277.7 L152.0,283.9 L144.0,290.0" fill="none" stroke="#0c2020" stroke-width="13" stroke-linecap="round" stroke-linejoin="round" opacity="1.0"/><path d="M236.0,148.0 L235.6,154.7 L235.3,161.5 L234.9,168.2 L234.5,174.9 L234.2,181.6 L233.8,188.4 L233.5,195.1 L233.1,201.8 L232.7,208.5 L232.4,215.3 L232.0,222.0" fill="none" stroke="#2dd4bf" stroke-width="25" stroke-linecap="round" stroke-linejoin="round" opacity="0.95"/><path d="M236.0,148.0 L235.6,154.7 L235.3,161.5 L234.9,168.2 L234.5,174.9 L234.2,181.6 L233.8,188.4 L233.5,195.1 L233.1,201.8 L232.7,208.5 L232.4,215.3 L232.0,222.0" fill="none" stroke="#0c2020" stroke-width="17" stroke-linecap="round" stroke-linejoin="round" opacity="1.0"/><circle cx="238.0" cy="120.0" r="19.0" fill="#2dd4bf" stroke="none" stroke-width="0" opacity="0.95"/><circle cx="238.0" cy="120.0" r="15.0" fill="#0c2020" stroke="none" stroke-width="6.3" opacity="1.0"/><path d="M228.7,117.0 L230.4,117.0 L232.1,117.0 L233.8,117.0 L235.5,117.0 L237.2,117.0 L238.8,117.0 L240.5,117.0 L242.2,117.0 L243.9,117.0 L245.6,117.0 L247.3,117.0" fill="none" stroke="#a7f3ee" stroke-width="5" stroke-linecap="round" stroke-linejoin="round" opacity="1.0"/></g><g class="f9"><path d="M236.2,146.7 L236.8,152.7 L237.5,158.7 L238.1,164.7 L238.8,170.7 L239.4,176.7 L240.1,182.7 L239.8,188.7 L239.4,194.7 L239.0,200.7 L238.6,206.7 L238.2,212.8" fill="none" stroke="#2dd4bf" stroke-width="21" stroke-linecap="round" stroke-linejoin="round" opacity="0.95"/><path d="M236.2,146.7 L236.8,152.7 L237.5,158.7 L238.1,164.7 L238.8,170.7 L239.4,176.7 L240.1,182.7 L239.8,188.7 L239.4,194.7 L239.0,200.7 L238.6,206.7 L238.2,212.8" fill="none" stroke="#0c2020" stroke-width="13" stroke-linecap="round" stroke-linejoin="round" opacity="1.0"/><path d="M232.3,220.7 L239.0,225.6 L245.7,230.4 L252.3,235.3 L259.0,240.2 L265.6,245.0 L272.3,249.9 L271.5,258.3 L270.7,266.7 L269.9,275.2 L269.1,283.6 L268.4,292.0" fill="none" stroke="#8f2a3e" stroke-width="21" stroke-linecap="round" stroke-linejoin="round" opacity="0.95"/><path d="M232.3,220.7 L239.0,225.6 L245.7,230.4 L252.3,235.3 L259.0,240.2 L265.6,245.0 L272.3,249.9 L271.5,258.3 L270.7,266.7 L269.9,275.2 L269.1,283.6 L268.4,292.0" fill="none" stroke="#0c2020" stroke-width="13" stroke-linecap="round" stroke-linejoin="round" opacity="1.0"/><path d="M232.3,220.7 L224.8,227.1 L217.2,233.4 L209.7,239.8 L202.1,246.1 L194.6,252.5 L186.9,258.8 L179.2,265.1 L171.5,271.3 L163.8,277.6 L156.1,283.8 L148.4,290.1" fill="none" stroke="#f43f5e" stroke-width="21" stroke-linecap="round" stroke-linejoin="round" opacity="0.95"/><path d="M232.3,220.7 L224.8,227.1 L217.2,233.4 L209.7,239.8 L202.1,246.1 L194.6,252.5 L186.9,258.8 L179.2,265.1 L171.5,271.3 L163.8,277.6 L156.1,283.8 L148.4,290.1" fill="none" stroke="#0c2020" stroke-width="13" stroke-linecap="round" stroke-linejoin="round" opacity="1.0"/><path d="M236.2,146.7 L235.8,153.4 L235.5,160.2 L235.1,166.9 L234.8,173.6 L234.4,180.3 L234.1,187.1 L233.7,193.8 L233.4,200.5 L233.0,207.3 L232.7,214.0 L232.3,220.7" fill="none" stroke="#2dd4bf" stroke-width="25" stroke-linecap="round" stroke-linejoin="round" opacity="0.95"/><path d="M236.2,146.7 L235.8,153.4 L235.5,160.2 L235.1,166.9 L234.8,173.6 L234.4,180.3 L234.1,187.1 L233.7,193.8 L233.4,200.5 L233.0,207.3 L232.7,214.0 L232.3,220.7" fill="none" stroke="#0c2020" stroke-width="17" stroke-linecap="round" stroke-linejoin="round" opacity="1.0"/><circle cx="238.2" cy="118.7" r="19.0" fill="#2dd4bf" stroke="none" stroke-width="0" opacity="0.95"/><circle cx="238.2" cy="118.7" r="15.0" fill="#0c2020" stroke="none" stroke-width="6.3" opacity="1.0"/><path d="M228.9,115.7 L230.6,115.7 L232.3,115.7 L233.9,115.7 L235.6,115.7 L237.3,115.7 L239.0,115.7 L240.7,115.7 L242.4,115.7 L244.1,115.7 L245.8,115.7 L247.5,115.7" fill="none" stroke="#a7f3ee" stroke-width="5" stroke-linecap="round" stroke-linejoin="round" opacity="1.0"/></g><g class="f10"><path d="M236.6,143.3 L237.3,149.3 L237.9,155.3 L238.6,161.3 L239.2,167.3 L239.9,173.3 L240.5,179.3 L240.3,185.4 L239.9,191.4 L239.5,197.4 L239.0,203.4 L238.6,209.5" fill="none" stroke="#2dd4bf" stroke-width="21" stroke-linecap="round" stroke-linejoin="round" opacity="0.95"/><path d="M236.6,143.3 L237.3,149.3 L237.9,155.3 L238.6,161.3 L239.2,167.3 L239.9,173.3 L240.5,179.3 L240.3,185.4 L239.9,191.4 L239.5,197.4 L239.0,203.4 L238.6,209.5" fill="none" stroke="#0c2020" stroke-width="13" stroke-linecap="round" stroke-linejoin="round" opacity="1.0"/><path d="M233.2,217.3 L239.0,222.7 L244.7,228.0 L250.5,233.4 L256.2,238.7 L261.9,244.1 L267.7,249.5 L267.0,258.0 L266.2,266.5 L265.5,275.0 L264.8,283.5 L264.1,292.0" fill="none" stroke="#8f2a3e" stroke-width="21" stroke-linecap="round" stroke-linejoin="round" opacity="0.95"/><path d="M233.2,217.3 L239.0,222.7 L244.7,228.0 L250.5,233.4 L256.2,238.7 L261.9,244.1 L267.7,249.5 L267.0,258.0 L266.2,266.5 L265.5,275.0 L264.8,283.5 L264.1,292.0" fill="none" stroke="#0c2020" stroke-width="13" stroke-linecap="round" stroke-linejoin="round" opacity="1.0"/><path d="M233.2,217.3 L226.8,224.0 L220.3,230.6 L213.8,237.3 L207.3,244.0 L200.8,250.7 L194.1,257.3 L187.3,263.9 L180.5,270.5 L173.6,277.1 L166.8,283.7 L159.9,290.3" fill="none" stroke="#f43f5e" stroke-width="21" stroke-linecap="round" stroke-linejoin="round" opacity="0.95"/><path d="M233.2,217.3 L226.8,224.0 L220.3,230.6 L213.8,237.3 L207.3,244.0 L200.8,250.7 L194.1,257.3 L187.3,263.9 L180.5,270.5 L173.6,277.1 L166.8,283.7 L159.9,290.3" fill="none" stroke="#0c2020" stroke-width="13" stroke-linecap="round" stroke-linejoin="round" opacity="1.0"/><path d="M236.6,143.3 L236.3,150.0 L236.0,156.8 L235.7,163.5 L235.4,170.2 L235.1,176.9 L234.8,183.7 L234.5,190.4 L234.2,197.1 L233.9,203.9 L233.6,210.6 L233.2,217.3" fill="none" stroke="#2dd4bf" stroke-width="25" stroke-linecap="round" stroke-linejoin="round" opacity="0.95"/><path d="M236.6,143.3 L236.3,150.0 L236.0,156.8 L235.7,163.5 L235.4,170.2 L235.1,176.9 L234.8,183.7 L234.5,190.4 L234.2,197.1 L233.9,203.9 L233.6,210.6 L233.2,217.3" fill="none" stroke="#0c2020" stroke-width="17" stroke-linecap="round" stroke-linejoin="round" opacity="1.0"/><circle cx="238.6" cy="115.3" r="19.0" fill="#2dd4bf" stroke="none" stroke-width="0" opacity="0.95"/><circle cx="238.6" cy="115.3" r="15.0" fill="#0c2020" stroke="none" stroke-width="6.3" opacity="1.0"/><path d="M229.3,112.3 L231.0,112.3 L232.7,112.3 L234.4,112.3 L236.1,112.3 L237.8,112.3 L239.5,112.3 L241.2,112.3 L242.9,112.3 L244.5,112.3 L246.2,112.3 L247.9,112.3" fill="none" stroke="#a7f3ee" stroke-width="5" stroke-linecap="round" stroke-linejoin="round" opacity="1.0"/></g><g class="f11"><path d="M237.3,138.5 L237.9,144.5 L238.6,150.5 L239.2,156.6 L239.9,162.6 L240.5,168.6 L241.2,174.6 L240.9,180.7 L240.5,186.7 L240.1,192.7 L239.7,198.8 L239.3,204.8" fill="none" stroke="#2dd4bf" stroke-width="21" stroke-linecap="round" stroke-linejoin="round" opacity="0.95"/><path d="M237.3,138.5 L237.9,144.5 L238.6,150.5 L239.2,156.6 L239.9,162.6 L240.5,168.6 L241.2,174.6 L240.9,180.7 L240.5,186.7 L240.1,192.7 L239.7,198.8 L239.3,204.8" fill="none" stroke="#0c2020" stroke-width="13" stroke-linecap="round" stroke-linejoin="round" opacity="1.0"/><path d="M234.5,212.5 L239.0,218.6 L243.4,224.6 L247.8,230.7 L252.3,236.7 L256.7,242.8 L261.3,248.9 L260.6,257.5 L259.9,266.1 L259.3,274.8 L258.6,283.4 L258.0,292.0" fill="none" stroke="#8f2a3e" stroke-width="21" stroke-linecap="round" stroke-linejoin="round" opacity="0.95"/><path d="M234.5,212.5 L239.0,218.6 L243.4,224.6 L247.8,230.7 L252.3,236.7 L256.7,242.8 L261.3,248.9 L260.6,257.5 L259.9,266.1 L259.3,274.8 L258.6,283.4 L258.0,292.0" fill="none" stroke="#0c2020" stroke-width="13" stroke-linecap="round" stroke-linejoin="round" opacity="1.0"/><path d="M234.5,212.5 L229.6,219.6 L224.6,226.7 L219.6,233.9 L214.7,241.0 L209.7,248.1 L204.3,255.2 L198.7,262.3 L193.1,269.4 L187.5,276.5 L181.9,283.5 L176.3,290.6" fill="none" stroke="#f43f5e" stroke-width="21" stroke-linecap="round" stroke-linejoin="round" opacity="0.95"/><path d="M234.5,212.5 L229.6,219.6 L224.6,226.7 L219.6,233.9 L214.7,241.0 L209.7,248.1 L204.3,255.2 L198.7,262.3 L193.1,269.4 L187.5,276.5 L181.9,283.5 L176.3,290.6" fill="none" stroke="#0c2020" stroke-width="13" stroke-linecap="round" stroke-linejoin="round" opacity="1.0"/><path d="M237.3,138.5 L237.0,145.2 L236.8,152.0 L236.5,158.7 L236.3,165.4 L236.0,172.1 L235.8,178.9 L235.5,185.6 L235.3,192.3 L235.0,199.1 L234.8,205.8 L234.5,212.5" fill="none" stroke="#2dd4bf" stroke-width="25" stroke-linecap="round" stroke-linejoin="round" opacity="0.95"/><path d="M237.3,138.5 L237.0,145.2 L236.8,152.0 L236.5,158.7 L236.3,165.4 L236.0,172.1 L235.8,178.9 L235.5,185.6 L235.3,192.3 L235.0,199.1 L234.8,205.8 L234.5,212.5" fill="none" stroke="#0c2020" stroke-width="17" stroke-linecap="round" stroke-linejoin="round" opacity="1.0"/><circle cx="239.3" cy="110.5" r="19.0" fill="#2dd4bf" stroke="none" stroke-width="0" opacity="0.95"/><circle cx="239.3" cy="110.5" r="15.0" fill="#0c2020" stroke="none" stroke-width="6.3" opacity="1.0"/><path d="M230.0,107.5 L231.7,107.5 L233.3,107.5 L235.0,107.5 L236.7,107.5 L238.4,107.5 L240.1,107.5 L241.8,107.5 L243.5,107.5 L245.2,107.5 L246.9,107.5 L248.6,107.5" fill="none" stroke="#a7f3ee" stroke-width="5" stroke-linecap="round" stroke-linejoin="round" opacity="1.0"/></g><g class="f12"><path d="M238.0,133.0 L238.7,139.0 L239.3,145.1 L240.0,151.1 L240.6,157.1 L241.3,163.2 L241.9,169.2 L241.6,175.3 L241.2,181.3 L240.8,187.4 L240.4,193.4 L240.0,199.5" fill="none" stroke="#2dd4bf" stroke-width="21" stroke-linecap="round" stroke-linejoin="round" opacity="0.95"/><path d="M238.0,133.0 L238.7,139.0 L239.3,145.1 L240.0,151.1 L240.6,157.1 L241.3,163.2 L241.9,169.2 L241.6,175.3 L241.2,181.3 L240.8,187.4 L240.4,193.4 L240.0,199.5" fill="none" stroke="#0c2020" stroke-width="13" stroke-linecap="round" stroke-linejoin="round" opacity="1.0"/><path d="M236.0,207.0 L238.9,213.9 L241.9,220.7 L244.8,227.6 L247.8,234.5 L250.7,241.3 L253.9,248.2 L253.3,257.0 L252.7,265.7 L252.1,274.5 L251.6,283.2 L251.0,292.0" fill="none" stroke="#8f2a3e" stroke-width="21" stroke-linecap="round" stroke-linejoin="round" opacity="0.95"/><path d="M236.0,207.0 L238.9,213.9 L241.9,220.7 L244.8,227.6 L247.8,234.5 L250.7,241.3 L253.9,248.2 L253.3,257.0 L252.7,265.7 L252.1,274.5 L251.6,283.2 L251.0,292.0" fill="none" stroke="#0c2020" stroke-width="13" stroke-linecap="round" stroke-linejoin="round" opacity="1.0"/><path d="M236.0,207.0 L232.8,214.6 L229.5,222.3 L226.3,229.9 L223.1,237.5 L219.9,245.2 L216.0,252.8 L211.8,260.4 L207.6,268.1 L203.4,275.7 L199.2,283.4 L195.0,291.0" fill="none" stroke="#f43f5e" stroke-width="21" stroke-linecap="round" stroke-linejoin="round" opacity="0.95"/><path d="M236.0,207.0 L232.8,214.6 L229.5,222.3 L226.3,229.9 L223.1,237.5 L219.9,245.2 L216.0,252.8 L211.8,260.4 L207.6,268.1 L203.4,275.7 L199.2,283.4 L195.0,291.0" fill="none" stroke="#0c2020" stroke-width="13" stroke-linecap="round" stroke-linejoin="round" opacity="1.0"/><path d="M238.0,133.0 L237.8,139.7 L237.6,146.5 L237.5,153.2 L237.3,159.9 L237.1,166.6 L236.9,173.4 L236.7,180.1 L236.5,186.8 L236.4,193.5 L236.2,200.3 L236.0,207.0" fill="none" stroke="#2dd4bf" stroke-width="25" stroke-linecap="round" stroke-linejoin="round" opacity="0.95"/><path d="M238.0,133.0 L237.8,139.7 L237.6,146.5 L237.5,153.2 L237.3,159.9 L237.1,166.6 L236.9,173.4 L236.7,180.1 L236.5,186.8 L236.4,193.5 L236.2,200.3 L236.0,207.0" fill="none" stroke="#0c2020" stroke-width="17" stroke-linecap="round" stroke-linejoin="round" opacity="1.0"/><circle cx="240.0" cy="105.0" r="19.0" fill="#2dd4bf" stroke="none" stroke-width="0" opacity="0.95"/><circle cx="240.0" cy="105.0" r="15.0" fill="#0c2020" stroke="none" stroke-width="6.3" opacity="1.0"/><path d="M230.7,102.0 L232.4,102.0 L234.1,102.0 L235.8,102.0 L237.5,102.0 L239.2,102.0 L240.8,102.0 L242.5,102.0 L244.2,102.0 L245.9,102.0 L247.6,102.0 L249.3,102.0" fill="none" stroke="#a7f3ee" stroke-width="5" stroke-linecap="round" stroke-linejoin="round" opacity="1.0"/></g><g class="f13"><path d="M238.7,127.5 L239.4,133.5 L240.0,139.6 L240.7,145.6 L241.4,151.7 L242.0,157.8 L242.7,163.8 L242.4,169.9 L242.0,176.0 L241.6,182.0 L241.1,188.1 L240.7,194.2" fill="none" stroke="#2dd4bf" stroke-width="21" stroke-linecap="round" stroke-linejoin="round" opacity="0.95"/><path d="M238.7,127.5 L239.4,133.5 L240.0,139.6 L240.7,145.6 L241.4,151.7 L242.0,157.8 L242.7,163.8 L242.4,169.9 L242.0,176.0 L241.6,182.0 L241.1,188.1 L240.7,194.2" fill="none" stroke="#0c2020" stroke-width="13" stroke-linecap="round" stroke-linejoin="round" opacity="1.0"/><path d="M237.5,201.5 L238.9,209.2 L240.4,216.8 L241.8,224.5 L243.2,232.2 L244.7,239.8 L246.5,247.6 L246.0,256.4 L245.5,265.3 L245.0,274.2 L244.5,283.1 L244.0,292.0" fill="none" stroke="#8f2a3e" stroke-width="21" stroke-linecap="round" stroke-linejoin="round" opacity="0.95"/><path d="M237.5,201.5 L238.9,209.2 L240.4,216.8 L241.8,224.5 L243.2,232.2 L244.7,239.8 L246.5,247.6 L246.0,256.4 L245.5,265.3 L245.0,274.2 L244.5,283.1 L244.0,292.0" fill="none" stroke="#0c2020" stroke-width="13" stroke-linecap="round" stroke-linejoin="round" opacity="1.0"/><path d="M237.5,201.5 L236.0,209.6 L234.5,217.8 L233.0,225.9 L231.5,234.1 L230.0,242.2 L227.7,250.4 L224.9,258.6 L222.1,266.8 L219.3,275.0 L216.5,283.2 L213.7,291.4" fill="none" stroke="#f43f5e" stroke-width="21" stroke-linecap="round" stroke-linejoin="round" opacity="0.95"/><path d="M237.5,201.5 L236.0,209.6 L234.5,217.8 L233.0,225.9 L231.5,234.1 L230.0,242.2 L227.7,250.4 L224.9,258.6 L222.1,266.8 L219.3,275.0 L216.5,283.2 L213.7,291.4" fill="none" stroke="#0c2020" stroke-width="13" stroke-linecap="round" stroke-linejoin="round" opacity="1.0"/><path d="M238.7,127.5 L238.6,134.2 L238.5,140.9 L238.4,147.7 L238.3,154.4 L238.2,161.1 L238.0,167.9 L237.9,174.6 L237.8,181.3 L237.7,188.0 L237.6,194.8 L237.5,201.5" fill="none" stroke="#2dd4bf" stroke-width="25" stroke-linecap="round" stroke-linejoin="round" opacity="0.95"/><path d="M238.7,127.5 L238.6,134.2 L238.5,140.9 L238.4,147.7 L238.3,154.4 L238.2,161.1 L238.0,167.9 L237.9,174.6 L237.8,181.3 L237.7,188.0 L237.6,194.8 L237.5,201.5" fill="none" stroke="#0c2020" stroke-width="17" stroke-linecap="round" stroke-linejoin="round" opacity="1.0"/><circle cx="240.7" cy="99.5" r="19.0" fill="#2dd4bf" stroke="none" stroke-width="0" opacity="0.95"/><circle cx="240.7" cy="99.5" r="15.0" fill="#0c2020" stroke="none" stroke-width="6.3" opacity="1.0"/><path d="M231.4,96.5 L233.1,96.5 L234.8,96.5 L236.5,96.5 L238.2,96.5 L239.9,96.5 L241.6,96.5 L243.3,96.5 L245.0,96.5 L246.7,96.5 L248.3,96.5 L250.0,96.5" fill="none" stroke="#a7f3ee" stroke-width="5" stroke-linecap="round" stroke-linejoin="round" opacity="1.0"/></g><g class="f14"><path d="M239.4,122.7 L240.0,128.8 L240.7,134.8 L241.3,140.9 L242.0,147.0 L242.7,153.0 L243.3,159.1 L243.0,165.2 L242.6,171.3 L242.2,177.4 L241.8,183.4 L241.4,189.5" fill="none" stroke="#2dd4bf" stroke-width="21" stroke-linecap="round" stroke-linejoin="round" opacity="0.95"/><path d="M239.4,122.7 L240.0,128.8 L240.7,134.8 L241.3,140.9 L242.0,147.0 L242.7,153.0 L243.3,159.1 L243.0,165.2 L242.6,171.3 L242.2,177.4 L241.8,183.4 L241.4,189.5" fill="none" stroke="#0c2020" stroke-width="13" stroke-linecap="round" stroke-linejoin="round" opacity="1.0"/><path d="M238.8,196.7 L238.9,205.1 L239.0,213.4 L239.2,221.8 L239.3,230.2 L239.4,238.6 L240.0,247.0 L239.6,256.0 L239.2,265.0 L238.8,274.0 L238.4,283.0 L237.9,292.0" fill="none" stroke="#8f2a3e" stroke-width="21" stroke-linecap="round" stroke-linejoin="round" opacity="0.95"/><path d="M238.8,196.7 L238.9,205.1 L239.0,213.4 L239.2,221.8 L239.3,230.2 L239.4,238.6 L240.0,247.0 L239.6,256.0 L239.2,265.0 L238.8,274.0 L238.4,283.0 L237.9,292.0" fill="none" stroke="#0c2020" stroke-width="13" stroke-linecap="round" stroke-linejoin="round" opacity="1.0"/><path d="M238.8,196.7 L238.8,205.3 L238.8,213.9 L238.8,222.5 L238.9,231.1 L238.9,239.7 L237.8,248.3 L236.3,257.0 L234.7,265.7 L233.2,274.3 L231.6,283.0 L230.1,291.7" fill="none" stroke="#f43f5e" stroke-width="21" stroke-linecap="round" stroke-linejoin="round" opacity="0.95"/><path d="M238.8,196.7 L238.8,205.3 L238.8,213.9 L238.8,222.5 L238.9,231.1 L238.9,239.7 L237.8,248.3 L236.3,257.0 L234.7,265.7 L233.2,274.3 L231.6,283.0 L230.1,291.7" fill="none" stroke="#0c2020" stroke-width="13" stroke-linecap="round" stroke-linejoin="round" opacity="1.0"/><path d="M239.4,122.7 L239.3,129.4 L239.3,136.1 L239.2,142.9 L239.1,149.6 L239.1,156.3 L239.0,163.1 L239.0,169.8 L238.9,176.5 L238.9,183.2 L238.8,190.0 L238.8,196.7" fill="none" stroke="#2dd4bf" stroke-width="25" stroke-linecap="round" stroke-linejoin="round" opacity="0.95"/><path d="M239.4,122.7 L239.3,129.4 L239.3,136.1 L239.2,142.9 L239.1,149.6 L239.1,156.3 L239.0,163.1 L239.0,169.8 L238.9,176.5 L238.9,183.2 L238.8,190.0 L238.8,196.7" fill="none" stroke="#0c2020" stroke-width="17" stroke-linecap="round" stroke-linejoin="round" opacity="1.0"/><circle cx="241.4" cy="94.7" r="19.0" fill="#2dd4bf" stroke="none" stroke-width="0" opacity="0.95"/><circle cx="241.4" cy="94.7" r="15.0" fill="#0c2020" stroke="none" stroke-width="6.3" opacity="1.0"/><path d="M232.1,91.7 L233.8,91.7 L235.5,91.7 L237.1,91.7 L238.8,91.7 L240.5,91.7 L242.2,91.7 L243.9,91.7 L245.6,91.7 L247.3,91.7 L249.0,91.7 L250.7,91.7" fill="none" stroke="#a7f3ee" stroke-width="5" stroke-linecap="round" stroke-linejoin="round" opacity="1.0"/></g><g class="f15"><path d="M239.8,119.3 L240.5,125.4 L241.1,131.4 L241.8,137.5 L242.5,143.6 L243.1,149.7 L243.8,155.8 L243.5,161.8 L243.0,167.9 L242.6,174.0 L242.2,180.1 L241.8,186.2" fill="none" stroke="#2dd4bf" stroke-width="21" stroke-linecap="round" stroke-linejoin="round" opacity="0.95"/><path d="M239.8,119.3 L240.5,125.4 L241.1,131.4 L241.8,137.5 L242.5,143.6 L243.1,149.7 L243.8,155.8 L243.5,161.8 L243.0,167.9 L242.6,174.0 L242.2,180.1 L241.8,186.2" fill="none" stroke="#0c2020" stroke-width="13" stroke-linecap="round" stroke-linejoin="round" opacity="1.0"/><path d="M239.7,193.3 L238.9,202.2 L238.1,211.0 L237.3,219.9 L236.5,228.8 L235.7,237.6 L235.5,246.5 L235.1,255.6 L234.7,264.7 L234.4,273.8 L234.0,282.9 L233.6,292.0" fill="none" stroke="#8f2a3e" stroke-width="21" stroke-linecap="round" stroke-linejoin="round" opacity="0.95"/><path d="M239.7,193.3 L238.9,202.2 L238.1,211.0 L237.3,219.9 L236.5,228.8 L235.7,237.6 L235.5,246.5 L235.1,255.6 L234.7,264.7 L234.4,273.8 L234.0,282.9 L233.6,292.0" fill="none" stroke="#0c2020" stroke-width="13" stroke-linecap="round" stroke-linejoin="round" opacity="1.0"/><path d="M239.7,193.3 L240.8,202.2 L241.9,211.1 L243.0,220.0 L244.0,228.9 L245.1,237.8 L245.0,246.8 L244.3,255.8 L243.7,264.9 L243.0,273.9 L242.3,282.9 L241.6,291.9" fill="none" stroke="#f43f5e" stroke-width="21" stroke-linecap="round" stroke-linejoin="round" opacity="0.95"/><path d="M239.7,193.3 L240.8,202.2 L241.9,211.1 L243.0,220.0 L244.0,228.9 L245.1,237.8 L245.0,246.8 L244.3,255.8 L243.7,264.9 L243.0,273.9 L242.3,282.9 L241.6,291.9" fill="none" stroke="#0c2020" stroke-width="13" stroke-linecap="round" stroke-linejoin="round" opacity="1.0"/><path d="M239.8,119.3 L239.8,126.0 L239.8,132.7 L239.8,139.5 L239.8,146.2 L239.8,152.9 L239.7,159.7 L239.7,166.4 L239.7,173.1 L239.7,179.8 L239.7,186.6 L239.7,193.3" fill="none" stroke="#2dd4bf" stroke-width="25" stroke-linecap="round" stroke-linejoin="round" opacity="0.95"/><path d="M239.8,119.3 L239.8,126.0 L239.8,132.7 L239.8,139.5 L239.8,146.2 L239.8,152.9 L239.7,159.7 L239.7,166.4 L239.7,173.1 L239.7,179.8 L239.7,186.6 L239.7,193.3" fill="none" stroke="#0c2020" stroke-width="17" stroke-linecap="round" stroke-linejoin="round" opacity="1.0"/><circle cx="241.8" cy="91.3" r="19.0" fill="#2dd4bf" stroke="none" stroke-width="0" opacity="0.95"/><circle cx="241.8" cy="91.3" r="15.0" fill="#0c2020" stroke="none" stroke-width="6.3" opacity="1.0"/><path d="M232.5,88.3 L234.2,88.3 L235.9,88.3 L237.6,88.3 L239.3,88.3 L241.0,88.3 L242.7,88.3 L244.4,88.3 L246.1,88.3 L247.7,88.3 L249.4,88.3 L251.1,88.3" fill="none" stroke="#a7f3ee" stroke-width="5" stroke-linecap="round" stroke-linejoin="round" opacity="1.0"/></g></svg>
