<svg xmlns="http://www.w3.org/2000/svg" viewBox="0 0 480 320"><style>@keyframes k0{0%{opacity:1}11.111%{opacity:0}100%{opacity:0}}.f0{opacity:0;animation:k0 2.4s steps(1,end) infinite}@keyframes k1{0%{opacity:0}11.111%{opacity:1}16.667%{opacity:0}100%{opacity:0}}.f1{opacity:0;animation:k1 2.4s steps(1,end) infinite}@keyframes k2{0%{opacity:0}16.667%{opacity:1}22.222%{opacity:0}100%{opacity:0}}.f2{opacity:0;animation:k2 2.4s steps(1,end) infinite}@keyframes k3{0%{opacity:0}22.222%{opacity:1}27.778%{opacity:0}100%{opacity:0}}.f3{opacity:0;animation:k3 2.4s steps(1,end) infinite}@keyframes k4{0%{opacity:0}27.778%{opacity:1}33.333%{opacity:0}100%{opacity:0}}.f4{opacity:0;animation:k4 2.4s steps(1,end) infinite}@keyframes k5{0%{opacity:0}33.333%{opacity:1}38.889%{opacity:0}100%{opacity:0}}.f5{opacity:0;animation:k5 2.4s steps(1,end) infinite}@keyframes k6{0%{opacity:0}38.889%{opacity:1}44.444%{opacity:0}100%{opacity:0}}.f6{opacity:0;animation:k6 2.4s steps(1,end) infinite}@keyframes k7{0%{opacity:0}44.444%{opacity:1}50.000%{opacity:0}100%{opacity:0}}.f7{opacity:0;animation:k7 2.4s steps(1,end) infinite}@keyframes k8{0%{opacity:0}50.000%{opacity:1}61.111%{opacity:0}100%{opacity:0}}.f8{opacity:0;animation:k8 2.4s steps(1,end) infinite}@keyframes k9{0%{opacity:0}61.111%{opacity:1}66.667%{opacity:0}100%{opacity:0}}.f9{opacity:0;animation:k9 2.4s steps(1,end) infinite}@keyframes k10{0%{opacity:0}66.667%{opacity:1}72.222%{opacity:0}100%{opacity:0}}.f10{opacity:0;animation:k10 2.4s steps(1,end) infinite}@keyframes k11{0%{opacity:0}72.222%{opacity:1}77.778%{opacity:0}100%{opacity:0}}.f11{opacity:0;animation:k11 2.4s steps(1,end) infinite}@keyframes k12{0%{opacity:0}77.778%{opacity:1}83.333%{opacity:0}100%{opacity:0}}.f12{opacity:0;animation:k12 2.4s steps(1,end) infinite}@keyframes k13{0%{opacity:0}83.333%{opacity:1}88.889%{opacity:0}100%{opacity:0}}.f13{opacity:0;animation:k13 2.4s steps(1,end) infinite}@keyframes k14{0%{opacity:0}88.889%{opacity:1}94.444%{opacity:0}100%{opacity:0}}.f14{opacity:0;animation:k14 2.4s steps(1,end) infinite}@keyframes k15{0%{opacity:0}94.444%{opacity:1}100%{opacity:1}}.f15{opacity:0;animation:k15 2.4s steps(1,end) infinite}</style><path d="M40.0,292.0 L440.0,292.0" fill="none" stroke="#1f3333" stroke-width="6" stroke-linecap="round" stroke-linejoin="round" opacity="1.0"/><path d="M280.0,0.0 L280.0,140.0" fill="none" stroke="#fbbf24" stroke-width="4" stroke-linecap="round" stroke-linejoin="round" opacity="1.0"/><circle cx="280.0" cy="150.0" r="10.0" fill="none" stroke="#fbbf24" stroke-width="5" opacity="1.0"/><g class="f0"><path d="M236.0,190.0 L240.2,186.5 L244.3,183.1 L248.5,179.6 L252.6,176.1 L256.8,172.7 L260.9,169.1 L264.7,165.3 L268.5,161.5 L272.3,157.7 L276.2,153.8 L280.0,150.0" fill="none" stroke="#f43f5e" stroke-width="19" stroke-linecap="round" stroke-linejoin="round" opacity="0.95"/><path d="M236.0,190.0 L240.2,186.5 L244.3,183.1 L248.5,179.6 L252.6,176.1 L256.8,172.7 L260.9,169.1 L264.7,165.3 L268.5,161.5 L272.3,157.7 L276.2,153.8 L280.0,150.0" fill="none" stroke="#0c2020" stroke-width="11" stroke-linecap="round" stroke-linejoin="round" opacity="1.0"/><path d="M188.0,236.0 L179.4,241.1 L170.9,246.1 L162.3,251.2 L153.8,256.2 L145.2,261.3 L136.4,265.8 L127.5,270.2 L118.6,274.7 L109.8,279.1 L100.9,283.6 L92.0,288.0" fill="none" stroke="#2dd4bf" stroke-width="19" stroke-linecap="round" stroke-linejoin="round" opacity="0.95"/><path d="M188.0,236.0 L179.4,241.1 L170.9,246.1 L162.3,251.2 L153.8,256.2 L145.2,261.3 L136.4,265.8 L127.5,270.2 L118.6,274.7 L109.8,279.1 L100.9,283.6 L92.0,288.0" fill="none" stroke="#0c2020" stroke-width="11" stroke-linecap="round" stroke-linejoin="round" opacity="1.0"/><path d="M236.0,190.0 L231.6,194.2 L227.3,198.4 L222.9,202.5 L218.5,206.7 L214.2,210.9 L209.8,215.1 L205.5,219.3 L201.1,223.5 L196.7,227.6 L192.4,231.8 L188.0,236.0" fill="none" stroke="#2dd4bf" stroke-width="23" stroke-linecap="round" stroke-linejoin="round" opacity="0.95"/><path d="M236.0,190.0 L231.6,194.2 L227.3,198.4 L222.9,202.5 L218.5,206.7 L214.2,210.9 L209.8,215.1 L205.5,219.3 L201.1,223.5 L196.7,227.6 L192.4,231.8 L188.0,236.0" fill="none" stroke="#0c2020" stroke-width="15" stroke-linecap="round" stroke-linejoin="round" opacity="1.0"/><circle cx="230.0" cy="164.0" r="19.0" fill="#2dd4bf" stroke="none" stroke-width="0" opacity="0.95"/><circle cx="230.0" cy="164.0" r="15.0" fill="#0c2020" stroke="none" stroke-width="6.3" opacity="1.0"/><path d="M228.0,147.0 L225.0,150.0 L222.0,153.0 L219.1,155.9 L216.1,158.9 L213.1,161.9 L210.1,164.9 L209.5,168.5 L210.4,172.6 L211.3,176.8 L212.1,180.9 L213.0,185.0" fill="none" stroke="#2dd4bf" stroke-width="5" stroke-linecap="round" stroke-linejoin="round" opacity="1.0"/><path d="M220.7,161.0 L222.4,161.0 L224.1,161.0 L225.8,161.0 L227.5,161.0 L229.2,161.0 L230.8,161.0 L232.5,161.0 L234.2,161.0 L235.9,161.0 L237.6,161.0 L239.3,161.0" fill="none" stroke="#a7f3ee" stroke-width="5" stroke-linecap="round" stroke-linejoin="round" opacity="1.0"/></g><g class="f1"><path d="M236.9,188.6 L241.0,185.3 L245.1,182.0 L249.2,178.8 L253.3,175.5 L257.4,172.2 L261.4,168.8 L265.1,165.1 L268.8,161.3 L272.6,157.5 L276.3,153.8 L280.0,150.0" fill="none" stroke="#f43f5e" stroke-width="19" stroke-linecap="round" stroke-linejoin="round" opacity="0.95"/><path d="M236.9,188.6 L241.0,185.3 L245.1,182.0 L249.2,178.8 L253.3,175.5 L257.4,172.2 L261.4,168.8 L265.1,165.1 L268.8,161.3 L272.6,157.5 L276.3,153.8 L280.0,150.0" fill="none" stroke="#0c2020" stroke-width="11" stroke-linecap="round" stroke-linejoin="round" opacity="1.0"/><path d="M188.5,235.1 L179.9,240.3 L171.3,245.4 L162.7,250.5 L154.1,255.7 L145.5,260.8 L136.7,265.4 L127.7,269.9 L118.8,274.4 L109.9,279.0 L100.9,283.5 L92.0,288.0" fill="none" stroke="#2dd4bf" stroke-width="19" stroke-linecap="round" stroke-linejoin="round" opacity="0.95"/><path d="M188.5,235.1 L179.9,240.3 L171.3,245.4 L162.7,250.5 L154.1,255.7 L145.5,260.8 L136.7,265.4 L127.7,269.9 L118.8,274.4 L109.9,279.0 L100.9,283.5 L92.0,288.0" fill="none" stroke="#0c2020" stroke-width="11" stroke-linecap="round" stroke-linejoin="round" opacity="1.0"/><path d="M236.9,188.6 L232.5,192.9 L228.1,197.1 L223.7,201.3 L219.3,205.5 L214.9,209.8 L210.5,214.0 L206.1,218.2 L201.7,222.5 L197.3,226.7 L192.9,230.9 L188.5,235.1" fill="none" stroke="#2dd4bf" stroke-width="23" stroke-linecap="round" stroke-linejoin="round" opacity="0.95"/><path d="M236.9,188.6 L232.5,192.9 L228.1,197.1 L223.7,201.3 L219.3,205.5 L214.9,209.8 L210.5,214.0 L206.1,218.2 L201.7,222.5 L197.3,226.7 L192.9,230.9 L188.5,235.1" fill="none" stroke="#0c2020" stroke-width="15" stroke-linecap="round" stroke-linejoin="round" opacity="1.0"/><circle cx="230.9" cy="162.6" r="19.0" fill="#2dd4bf" stroke="none" stroke-width="0" opacity="0.95"/><circle cx="230.9" cy="162.6" r="15.0" fill="#0c2020" stroke="none" stroke-width="6.3" opacity="1.0"/><path d="M228.9,145.6 L226.0,148.6 L223.0,151.6 L220.0,154.6 L217.0,157.5 L214.1,160.5 L211.1,163.5 L210.5,167.2 L211.3,171.3 L212.2,175.4 L213.1,179.5 L213.9,183.6" fill="none" stroke="#2dd4bf" stroke-width="5" stroke-linecap="round" stroke-linejoin="round" opacity="1.0"/><path d="M221.6,159.6 L223.3,159.6 L225.0,159.6 L226.7,159.6 L228.4,159.6 L230.1,159.6 L231.8,159.6 L233.5,159.6 L235.2,159.6 L236.9,159.6 L238.6,159.6 L240.2,159.6" fill="none" stroke="#a7f3ee" stroke-width="5" stroke-linecap="round" stroke-linejoin="round" opacity="1.0"/></g><g class="f2"><path d="M239.1,185.0 L243.1,182.2 L247.0,179.4 L251.0,176.5 L254.9,173.7 L258.9,170.9 L262.8,168.0 L266.3,164.5 L269.7,160.9 L273.1,157.3 L276.6,153.6 L280.0,150.0" fill="none" stroke="#f43f5e" stroke-width="19" stroke-linecap="round" stroke-linejoin="round" opacity="0.95"/><path d="M239.1,185.0 L243.1,182.2 L247.0,179.4 L251.0,176.5 L254.9,173.7 L258.9,170.9 L262.8,168.0 L266.3,164.5 L269.7,160.9 L273.1,157.3 L276.6,153.6 L280.0,150.0" fill="none" stroke="#0c2020" stroke-width="11" stroke-linecap="round" stroke-linejoin="round" opacity="1.0"/><path d="M189.9,232.9 L181.2,238.2 L172.5,243.6 L163.7,248.9 L155.0,254.2 L146.3,259.6 L137.3,264.4 L128.2,269.1 L119.2,273.8 L110.1,278.6 L101.1,283.3 L92.0,288.0" fill="none" stroke="#2dd4bf" stroke-width="19" stroke-linecap="round" stroke-linejoin="round" opacity="0.95"/><path d="M189.9,232.9 L181.2,238.2 L172.5,243.6 L163.7,248.9 L155.0,254.2 L146.3,259.6 L137.3,264.4 L128.2,269.1 L119.2,273.8 L110.1,278.6 L101.1,283.3 L92.0,288.0" fill="none" stroke="#0c2020" stroke-width="11" stroke-linecap="round" stroke-linejoin="round" opacity="1.0"/><path d="M239.1,185.0 L234.6,189.4 L230.2,193.7 L225.7,198.1 L221.2,202.4 L216.7,206.8 L212.3,211.1 L207.8,215.5 L203.3,219.8 L198.8,224.2 L194.4,228.5 L189.9,232.9" fill="none" stroke="#2dd4bf" stroke-width="23" stroke-linecap="round" stroke-linejoin="round" opacity="0.95"/><path d="M239.1,185.0 L234.6,189.4 L230.2,193.7 L225.7,198.1 L221.2,202.4 L216.7,206.8 L212.3,211.1 L207.8,215.5 L203.3,219.8 L198.8,224.2 L194.4,228.5 L189.9,232.9" fill="none" stroke="#0c2020" stroke-width="15" stroke-linecap="round" stroke-linejoin="round" opacity="1.0"/><circle cx="233.4" cy="159.0" r="19.0" fill="#2dd4bf" stroke="none" stroke-width="0" opacity="0.95"/><circle cx="233.4" cy="159.0" r="15.0" fill="#0c2020" stroke="none" stroke-width="6.3" opacity="1.0"/><path d="M231.4,142.0 L228.5,145.0 L225.5,148.0 L222.5,150.9 L219.5,153.9 L216.6,156.9 L213.6,159.9 L213.0,163.5 L213.8,167.6 L214.7,171.8 L215.6,175.9 L216.4,180.0" fill="none" stroke="#2dd4bf" stroke-width="5" stroke-linecap="round" stroke-linejoin="round" opacity="1.0"/><path d="M224.1,156.0 L225.8,156.0 L227.5,156.0 L229.2,156.0 L230.9,156.0 L232.6,156.0 L234.3,156.0 L236.0,156.0 L237.7,156.0 L239.4,156.0 L241.0,156.0 L242.7,156.0" fill="none" stroke="#a7f3ee" stroke-width="5" stroke-linecap="round" stroke-linejoin="round" opacity="1.0"/></g><g class="f3"><path d="M242.3,179.9 L246.1,177.7 L249.8,175.5 L253.5,173.4 L257.3,171.2 L261.0,169.0 L264.7,166.8 L267.9,163.7 L270.9,160.3 L273.9,156.9 L277.0,153.4 L280.0,150.0" fill="none" stroke="#f43f5e" stroke-width="19" stroke-linecap="round" stroke-linejoin="round" opacity="0.95"/><path d="M242.3,179.9 L246.1,177.7 L249.8,175.5 L253.5,173.4 L257.3,171.2 L261.0,169.0 L264.7,166.8 L267.9,163.7 L270.9,160.3 L273.9,156.9 L277.0,153.4 L280.0,150.0" fill="none" stroke="#0c2020" stroke-width="11" stroke-linecap="round" stroke-linejoin="round" opacity="1.0"/><path d="M191.8,229.7 L182.9,235.3 L174.0,240.9 L165.2,246.6 L156.3,252.2 L147.4,257.9 L138.2,263.0 L129.0,268.0 L119.7,273.0 L110.5,278.0 L101.2,283.0 L92.0,288.0" fill="none" stroke="#2dd4bf" stroke-width="19" stroke-linecap="round" stroke-linejoin="round" opacity="0.95"/><path d="M191.8,229.7 L182.9,235.3 L174.0,240.9 L165.2,246.6 L156.3,252.2 L147.4,257.9 L138.2,263.0 L129.0,268.0 L119.7,273.0 L110.5,278.0 L101.2,283.0 L92.0,288.0" fill="none" stroke="#0c2020" stroke-width="11" stroke-linecap="round" stroke-linejoin="round" opacity="1.0"/><path d="M242.3,179.9 L237.7,184.4 L233.1,188.9 L228.5,193.5 L224.0,198.0 L219.4,202.5 L214.8,207.0 L210.2,211.6 L205.6,216.1 L201.0,220.6 L196.4,225.1 L191.8,229.7" fill="none" stroke="#2dd4bf" stroke-width="23" stroke-linecap="round" stroke-linejoin="round" opacity="0.95"/><path d="M242.3,179.9 L237.7,184.4 L233.1,188.9 L228.5,193.5 L224.0,198.0 L219.4,202.5 L214.8,207.0 L210.2,211.6 L205.6,216.1 L201.0,220.6 L196.4,225.1 L191.8,229.7" fill="none" stroke="#0c2020" stroke-width="15" stroke-linecap="round" stroke-linejoin="round" opacity="1.0"/><circle cx="237.0" cy="153.9" r="19.0" fill="#2dd4bf" stroke="none" stroke-width="0" opacity="0.95"/><circle cx="237.0" cy="153.9" r="15.0" fill="#0c2020" stroke="none" stroke-width="6.3" opacity="1.0"/><path d="M235.0,136.9 L232.0,139.9 L229.0,142.8 L226.0,145.8 L223.1,148.8 L220.1,151.8 L217.1,154.7 L216.5,158.4 L217.4,162.5 L218.2,166.6 L219.1,170.8 L220.0,174.9" fill="none" stroke="#2dd4bf" stroke-width="5" stroke-linecap="round" stroke-linejoin="round" opacity="1.0"/><path d="M227.7,150.9 L229.4,150.9 L231.0,150.9 L232.7,150.9 L234.4,150.9 L236.1,150.9 L237.8,150.9 L239.5,150.9 L241.2,150.9 L242.9,150.9 L244.6,150.9 L246.3,150.9" fill="none" stroke="#a7f3ee" stroke-width="5" stroke-linecap="round" stroke-linejoin="round" opacity="1.0"/></g><g class="f4"><path d="M246.0,174.0 L249.5,172.6 L253.0,171.2 L256.5,169.7 L260.0,168.3 L263.5,166.9 L266.9,165.5 L269.8,162.8 L272.3,159.6 L274.9,156.4 L277.4,153.2 L280.0,150.0" fill="none" stroke="#f43f5e" stroke-width="19" stroke-linecap="round" stroke-linejoin="round" opacity="0.95"/><path d="M246.0,174.0 L249.5,172.6 L253.0,171.2 L256.5,169.7 L260.0,168.3 L263.5,166.9 L266.9,165.5 L269.8,162.8 L272.3,159.6 L274.9,156.4 L277.4,153.2 L280.0,150.0" fill="none" stroke="#0c2020" stroke-width="11" stroke-linecap="round" stroke-linejoin="round" opacity="1.0"/><path d="M194.0,226.0 L184.9,232.0 L175.9,238.0 L166.8,243.9 L157.7,249.9 L148.7,255.9 L139.3,261.3 L129.8,266.7 L120.4,272.0 L110.9,277.3 L101.5,282.7 L92.0,288.0" fill="none" stroke="#2dd4bf" stroke-width="19" stroke-linecap="round" stroke-linejoin="round" opacity="0.95"/><path d="M194.0,226.0 L184.9,232.0 L175.9,238.0 L166.8,243.9 L157.7,249.9 L148.7,255.9 L139.3,261.3 L129.8,266.7 L120.4,272.0 L110.9,277.3 L101.5,282.7 L92.0,288.0" fill="none" stroke="#0c2020" stroke-width="11" stroke-linecap="round" stroke-linejoin="round" opacity="1.0"/><path d="M246.0,174.0 L241.3,178.7 L236.5,183.5 L231.8,188.2 L227.1,192.9 L222.4,197.6 L217.6,202.4 L212.9,207.1 L208.2,211.8 L203.5,216.5 L198.7,221.3 L194.0,226.0" fill="none" stroke="#2dd4bf" stroke-width="23" stroke-linecap="round" stroke-linejoin="round" opacity="0.95"/><path d="M246.0,174.0 L241.3,178.7 L236.5,183.5 L231.8,188.2 L227.1,192.9 L222.4,197.6 L217.6,202.4 L212.9,207.1 L208.2,211.8 L203.5,216.5 L198.7,221.3 L194.0,226.0" fill="none" stroke="#0c2020" stroke-width="15" stroke-linecap="round" stroke-linejoin="round" opacity="1.0"/><circle cx="241.0" cy="148.0" r="19.0" fill="#2dd4bf" stroke="none" stroke-width="0" opacity="0.95"/><circle cx="241.0" cy="148.0" r="15.0" fill="#0c2020" stroke="none" stroke-width="6.3" opacity="1.0"/><path d="M239.0,131.0 L236.0,134.0 L233.0,137.0 L230.1,139.9 L227.1,142.9 L224.1,145.9 L221.1,148.9 L220.5,152.5 L221.4,156.6 L222.3,160.8 L223.1,164.9 L224.0,169.0" fill="none" stroke="#2dd4bf" stroke-width="5" stroke-linecap="round" stroke-linejoin="round" opacity="1.0"/><path d="M231.7,145.0 L233.4,145.0 L235.1,145.0 L236.8,145.0 L238.5,145.0 L240.2,145.0 L241.8,145.0 L243.5,145.0 L245.2,145.0 L246.9,145.0 L248.6,145.0 L250.3,145.0" fill="none" stroke="#a7f3ee" stroke-width="5" stroke-linecap="round" stroke-linejoin="round" opacity="1.0"/></g><g class="f5"><path d="M249.7,168.1 L252.9,167.5 L256.2,166.8 L259.4,166.1 L262.7,165.5 L265.9,164.8 L269.1,164.1 L271.6,161.9 L273.7,158.9 L275.8,156.0 L277.9,153.0 L280.0,150.0" fill="none" stroke="#f43f5e" stroke-width="19" stroke-linecap="round" stroke-linejoin="round" opacity="0.95"/><path d="M249.7,168.1 L252.9,167.5 L256.2,166.8 L259.4,166.1 L262.7,165.5 L265.9,164.8 L269.1,164.1 L271.6,161.9 L273.7,158.9 L275.8,156.0 L277.9,153.0 L280.0,150.0" fill="none" stroke="#0c2020" stroke-width="11" stroke-linecap="round" stroke-linejoin="round" opacity="1.0"/><path d="M196.2,222.3 L186.9,228.6 L177.7,235.0 L168.4,241.3 L159.2,247.6 L149.9,253.9 L140.3,259.7 L130.7,265.4 L121.0,271.0 L111.3,276.7 L101.7,282.3 L92.0,288.0" fill="none" stroke="#2dd4bf" stroke-width="19" stroke-linecap="round" stroke-linejoin="round" opacity="0.95"/><path d="M196.2,222.3 L186.9,228.6 L177.7,235.0 L168.4,241.3 L159.2,247.6 L149.9,253.9 L140.3,259.7 L130.7,265.4 L121.0,271.0 L111.3,276.7 L101.7,282.3 L92.0,288.0" fill="none" stroke="#0c2020" stroke-width="11" stroke-linecap="round" stroke-linejoin="round" opacity="1.0"/><path d="M249.7,168.1 L244.8,173.1 L240.0,178.0 L235.1,182.9 L230.2,187.8 L225.4,192.8 L220.5,197.7 L215.6,202.6 L210.8,207.5 L205.9,212.5 L201.1,217.4 L196.2,222.3" fill="none" stroke="#2dd4bf" stroke-width="23" stroke-linecap="round" stroke-linejoin="round" opacity="0.95"/><path d="M249.7,168.1 L244.8,173.1 L240.0,178.0 L235.1,182.9 L230.2,187.8 L225.4,192.8 L220.5,197.7 L215.6,202.6 L210.8,207.5 L205.9,212.5 L201.1,217.4 L196.2,222.3" fill="none" stroke="#0c2020" stroke-width="15" stroke-linecap="round" stroke-linejoin="round" opacity="1.0"/><circle cx="245.0" cy="142.1" r="19.0" fill="#2dd4bf" stroke="none" stroke-width="0" opacity="0.95"/><circle cx="245.0" cy="142.1" r="15.0" fill="#0c2020" stroke="none" stroke-width="6.3" opacity="1.0"/><path d="M243.0,125.1 L240.1,128.1 L237.1,131.1 L234.1,134.1 L231.1,137.0 L228.2,140.0 L225.2,143.0 L224.6,146.7 L225.4,150.8 L226.3,154.9 L227.2,159.0 L228.0,163.1" fill="none" stroke="#2dd4bf" stroke-width="5" stroke-linecap="round" stroke-linejoin="round" opacity="1.0"/><path d="M235.7,139.1 L237.4,139.1 L239.1,139.1 L240.8,139.1 L242.5,139.1 L244.2,139.1 L245.9,139.1 L247.6,139.1 L249.3,139.1 L251.0,139.1 L252.6,139.1 L254.3,139.1" fill="none" stroke="#a7f3ee" stroke-width="5" stroke-linecap="round" stroke-linejoin="round" opacity="1.0"/></g><g class="f6"><path d="M252.9,163.0 L255.9,163.0 L258.9,163.0 L262.0,163.0 L265.0,163.0 L268.0,162.9 L271.1,162.9 L273.2,161.1 L274.9,158.4 L276.6,155.6 L278.3,152.8 L280.0,150.0" fill="none" stroke="#f43f5e" stroke-width="19" stroke-linecap="round" stroke-linejoin="round" opacity="0.95"/><path d="M252.9,163.0 L255.9,163.0 L258.9,163.0 L262.0,163.0 L265.0,163.0 L268.0,162.9 L271.1,162.9 L273.2,161.1 L274.9,158.4 L276.6,155.6 L278.3,152.8 L280.0,150.0" fill="none" stroke="#0c2020" stroke-width="11" stroke-linecap="round" stroke-linejoin="round" opacity="1.0"/><path d="M198.1,219.1 L188.7,225.7 L179.3,232.3 L169.9,239.0 L160.4,245.6 L151.0,252.2 L141.3,258.3 L131.4,264.2 L121.6,270.2 L111.7,276.1 L101.9,282.1 L92.0,288.0" fill="none" stroke="#2dd4bf" stroke-width="19" stroke-linecap="round" stroke-linejoin="round" opacity="0.95"/><path d="M198.1,219.1 L188.7,225.7 L179.3,232.3 L169.9,239.0 L160.4,245.6 L151.0,252.2 L141.3,258.3 L131.4,264.2 L121.6,270.2 L111.7,276.1 L101.9,282.1 L92.0,288.0" fill="none" stroke="#0c2020" stroke-width="11" stroke-linecap="round" stroke-linejoin="round" opacity="1.0"/><path d="M252.9,163.0 L247.9,168.1 L242.9,173.2 L237.9,178.3 L233.0,183.4 L228.0,188.5 L223.0,193.6 L218.0,198.7 L213.1,203.8 L208.1,208.9 L203.1,214.0 L198.1,219.1" fill="none" stroke="#2dd4bf" stroke-width="23" stroke-linecap="round" stroke-linejoin="round" opacity="0.95"/><path d="M252.9,163.0 L247.9,168.1 L242.9,173.2 L237.9,178.3 L233.0,183.4 L228.0,188.5 L223.0,193.6 L218.0,198.7 L213.1,203.8 L208.1,208.9 L203.1,214.0 L198.1,219.1" fill="none" stroke="#0c2020" stroke-width="15" stroke-linecap="round" stroke-linejoin="round" opacity="1.0"/><circle cx="248.6" cy="137.0" r="19.0" fill="#2dd4bf" stroke="none" stroke-width="0" opacity="0.95"/><circle cx="248.6" cy="137.0" r="15.0" fill="#0c2020" stroke="none" stroke-width="6.3" opacity="1.0"/><path d="M246.6,120.0 L243.6,123.0 L240.6,126.0 L237.6,128.9 L234.7,131.9 L231.7,134.9 L228.7,137.9 L228.1,141.5 L229.0,145.6 L229.8,149.8 L230.7,153.9 L231.6,158.0" fill="none" stroke="#2dd4bf" stroke-width="5" stroke-linecap="round" stroke-linejoin="round" opacity="1.0"/><path d="M239.3,134.0 L241.0,134.0 L242.6,134.0 L244.3,134.0 L246.0,134.0 L247.7,134.0 L249.4,134.0 L251.1,134.0 L252.8,134.0 L254.5,134.0 L256.2,134.0 L257.9,134.0" fill="none" stroke="#a7f3ee" stroke-width="5" stroke-linecap="round" stroke-linejoin="round" opacity="1.0"/></g><g class="f7"><path d="M255.1,159.4 L258.0,159.8 L260.9,160.3 L263.8,160.7 L266.7,161.2 L269.6,161.6 L272.4,162.1 L274.4,160.6 L275.8,157.9 L277.2,155.3 L278.6,152.6 L280.0,150.0" fill="none" stroke="#f43f5e" stroke-width="19" stroke-linecap="round" stroke-linejoin="round" opacity="0.95"/><path d="M255.1,159.4 L258.0,159.8 L260.9,160.3 L263.8,160.7 L266.7,161.2 L269.6,161.6 L272.4,162.1 L274.4,160.6 L275.8,157.9 L277.2,155.3 L278.6,152.6 L280.0,150.0" fill="none" stroke="#0c2020" stroke-width="11" stroke-linecap="round" stroke-linejoin="round" opacity="1.0"/><path d="M199.5,216.9 L189.9,223.7 L180.4,230.5 L170.9,237.3 L161.3,244.1 L151.8,251.0 L141.9,257.3 L131.9,263.4 L121.9,269.6 L112.0,275.7 L102.0,281.9 L92.0,288.0" fill="none" stroke="#2dd4bf" stroke-width="19" stroke-linecap="round" stroke-linejoin="round" opacity="0.95"/><path d="M199.5,216.9 L189.9,223.7 L180.4,230.5 L170.9,237.3 L161.3,244.1 L151.8,251.0 L141.9,257.3 L131.9,263.4 L121.9,269.6 L112.0,275.7 L102.0,281.9 L92.0,288.0" fill="none" stroke="#0c2020" stroke-width="11" stroke-linecap="round" stroke-linejoin="round" opacity="1.0"/><path d="M255.1,159.4 L250.1,164.6 L245.0,169.8 L240.0,175.1 L234.9,180.3 L229.8,185.5 L224.8,190.7 L219.7,196.0 L214.7,201.2 L209.6,206.4 L204.5,211.6 L199.5,216.9" fill="none" stroke="#2dd4bf" stroke-width="23" stroke-linecap="round" stroke-linejoin="round" opacity="0.95"/><path d="M255.1,159.4 L250.1,164.6 L245.0,169.8 L240.0,175.1 L234.9,180.3 L229.8,185.5 L224.8,190.7 L219.7,196.0 L214.7,201.2 L209.6,206.4 L204.5,211.6 L199.5,216.9" fill="none" stroke="#0c2020" stroke-width="15" stroke-linecap="round" stroke-linejoin="round" opacity="1.0"/><circle cx="251.1" cy="133.4" r="19.0" fill="#2dd4bf" stroke="none" stroke-width="0" opacity="0.95"/><circle cx="251.1" cy="133.4" r="15.0" fill="#0c2020" stroke="none" stroke-width="6.3" opacity="1.0"/><path d="M249.1,116.4 L246.1,119.4 L243.1,122.3 L240.1,125.3 L237.2,128.3 L234.2,131.3 L231.2,134.2 L230.6,137.9 L231.5,142.0 L232.3,146.1 L233.2,150.3 L234.1,154.4" fill="none" stroke="#2dd4bf" stroke-width="5" stroke-linecap="round" stroke-linejoin="round" opacity="1.0"/><path d="M241.8,130.4 L243.4,130.4 L245.1,130.4 L246.8,130.4 L248.5,130.4 L250.2,130.4 L251.9,130.4 L253.6,130.4 L255.3,130.4 L257.0,130.4 L258.7,130.4 L260.4,130.4" fill="none" stroke="#a7f3ee" stroke-width="5" stroke-linecap="round" stroke-linejoin="round" opacity="1.0"/></g><g class="f8"><path d="M256.0,158.0 L258.8,158.6 L261.7,159.3 L264.5,159.9 L267.3,160.5 L270.1,161.1 L273.0,161.8 L274.8,160.4 L276.1,157.8 L277.4,155.2 L278.7,152.6 L280.0,150.0" fill="none" stroke="#f43f5e" stroke-width="19" stroke-linecap="round" stroke-linejoin="round" opacity="0.95"/><path d="M256.0,158.0 L258.8,158.6 L261.7,159.3 L264.5,159.9 L267.3,160.5 L270.1,161.1 L273.0,161.8 L274.8,160.4 L276.1,157.8 L277.4,155.2 L278.7,152.6 L280.0,150.0" fill="none" stroke="#0c2020" stroke-width="11" stroke-linecap="round" stroke-linejoin="round" opacity="1.0"/><path d="M200.0,216.0 L190.4,222.9 L180.8,229.8 L171.3,236.7 L161.7,243.6 L152.1,250.5 L142.2,256.9 L132.1,263.1 L122.1,269.3 L112.1,275.5 L102.0,281.8 L92.0,288.0" fill="none" stroke="#2dd4bf" stroke-width="19" stroke-linecap="round" stroke-linejoin="round" opacity="0.95"/><path d="M200.0,216.0 L190.4,222.9 L180.8,229.8 L171.3,236.7 L161.7,243.6 L152.1,250.5 L142.2,256.9 L132.1,263.1 L122.1,269.3 L112.1,275.5 L102.0,281.8 L92.0,288.0" fill="none" stroke="#0c2020" stroke-width="11" stroke-linecap="round" stroke-linejoin="round" opacity="1.0"/><path d="M256.0,158.0 L250.9,163.3 L245.8,168.5 L240.7,173.8 L235.6,179.1 L230.5,184.4 L225.5,189.6 L220.4,194.9 L215.3,200.2 L210.2,205.5 L205.1,210.7 L200.0,216.0" fill="none" stroke="#2dd4bf" stroke-width="23" stroke-linecap="round" stroke-linejoin="round" opacity="0.95"/><path d="M256.0,158.0 L250.9,163.3 L245.8,168.5 L240.7,173.8 L235.6,179.1 L230.5,184.4 L225.5,189.6 L220.4,194.9 L215.3,200.2 L210.2,205.5 L205.1,210.7 L200.0,216.0" fill="none" stroke="#0c2020" stroke-width="15" stroke-linecap="round" stroke-linejoin="round" opacity="1.0"/><circle cx="252.0" cy="132.0" r="19.0" fill="#2dd4bf" stroke="none" stroke-width="0" opacity="0.95"/><circle cx="252.0" cy="132.0" r="15.0" fill="#0c2020" stroke="none" stroke-width="6.3" opacity="1.0"/><path d="M250.0,115.0 L247.0,118.0 L244.0,121.0 L241.1,123.9 L238.1,126.9 L235.1,129.9 L232.1,132.9 L231.5,136.5 L232.4,140.6 L233.3,144.8 L234.1,148.9 L235.0,153.0" fill="none" stroke="#2dd4bf" stroke-width="5" stroke-linecap="round" stroke-linejoin="round" opacity="1.0"/><path d="M242.7,129.0 L244.4,129.0 L246.1,129.0 L247.8,129.0 L249.5,129.0 L251.2,129.0 L252.8,129.0 L254.5,129.0 L256.2,129.0 L257.9,129.0 L259.6,129.0 L261.3,129.0" fill="none" stroke="#a7f3ee" stroke-width="5" stroke-linecap="round" stroke-linejoin="round" opacity="1.0"/></g><g class="f9"><path d="M255.1,159.4 L258.0,159.8 L260.9,160.3 L263.8,160.7 L266.7,161.2 L269.6,161.6 L272.4,162.1 L274.4,160.6 L275.8,157.9 L277.2,155.3 L278.6,152.6 L280.0,150.0" fill="none" stroke="#f43f5e" stroke-width="19" stroke-linecap="round" stroke-linejoin="round" opacity="0.95"/><path d="M255.1,159.4 L258.0,159.8 L260.9,160.3 L263.8,160.7 L266.7,161.2 L269.6,161.6 L272.4,162.1 L274.4,160.6 L275.8,157.9 L277.2,155.3 L278.6,152.6 L280.0,150.0" fill="none" stroke="#0c2020" stroke-width="11" stroke-linecap="round" stroke-linejoin="round" opacity="1.0"/><path d="M199.5,216.9 L189.9,223.7 L180.4,230.5 L170.9,237.3 L161.3,244.1 L151.8,251.0 L141.9,257.3 L131.9,263.4 L121.9,269.6 L112.0,275.7 L102.0,281.9 L92.0,288.0" fill="none" stroke="#2dd4bf" stroke-width="19" stroke-linecap="round" stroke-linejoin="round" opacity="0.95"/><path d="M199.5,216.9 L189.9,223.7 L180.4,230.5 L170.9,237.3 L161.3,244.1 L151.8,251.0 L141.9,257.3 L131.9,263.4 L121.9,269.6 L112.0,275.7 L102.0,281.9 L92.0,288.0" fill="none" stroke="#0c2020" stroke-width="11" stroke-linecap="round" stroke-linejoin="round" opacity="1.0"/><path d="M255.1,159.4 L250.1,164.6 L245.0,169.8 L240.0,175.1 L234.9,180.3 L229.8,185.5 L224.8,190.7 L219.7,196.0 L214.7,201.2 L209.6,206.4 L204.5,211.6 L199.5,216.9" fill="none" stroke="#2dd4bf" stroke-width="23" stroke-linecap="round" stroke-linejoin="round" opacity="0.95"/><path d="M255.1,159.4 L250.1,164.6 L245.0,169.8 L240.0,175.1 L234.9,180.3 L229.8,185.5 L224.8,190.7 L219.7,196.0 L214.7,201.2 L209.6,206.4 L204.5,211.6 L199.5,216.9" fill="none" stroke="#0c2020" stroke-width="15" stroke-linecap="round" stroke-linejoin="round" opacity="1.0"/><circle cx="251.1" cy="133.4" r="19.0" fill="#2dd4bf" stroke="none" stroke-width="0" opacity="0.95"/><circle cx="251.1" cy="133.4" r="15.0" fill="#0c2020" stroke="none" stroke-width="6.3" opacity="1.0"/><path d="M249.1,116.4 L246.1,119.4 L243.1,122.3 L240.1,125.3 L237.2,128.3 L234.2,131.3 L231.2,134.2 L230.6,137.9 L231.5,142.0 L232.3,146.1 L233.2,150.3 L234.1,154.4" fill="none" stroke="#2dd4bf" stroke-width="5" stroke-linecap="round" stroke-linejoin="round" opacity="1.0"/><path d="M241.8,130.4 L243.4,130.4 L245.1,130.4 L246.8,130.4 L248.5,130.4 L250.2,130.4 L251.9,130.4 L253.6,130.4 L255.3,130.4 L257.0,130.4 L258.7,130.4 L260.4,130.4" fill="none" stroke="#a7f3ee" stroke-width="5" stroke-linecap="round" stroke-linejoin="round" opacity="1.0"/></g><g class="f10"><path d="M252.9,163.0 L255.9,163.0 L258.9,163.0 L262.0,163.0 L265.0,163.0 L268.0,162.9 L271.1,162.9 L273.2,161.1 L274.9,158.4 L276.6,155.6 L278.3,152.8 L280.0,150.0" fill="none" stroke="#f43f5e" stroke-width="19" stroke-linecap="round" stroke-linejoin="round" opacity="0.95"/><path d="M252.9,163.0 L255.9,163.0 L258.9,163.0 L262.0,163.0 L265.0,163.0 L268.0,162.9 L271.1,162.9 L273.2,161.1 L274.9,158.4 L276.6,155.6 L278.3,152.8 L280.0,150.0" fill="none" stroke="#0c2020" stroke-width="11" stroke-linecap="round" stroke-linejoin="round" opacity="1.0"/><path d="M198.1,219.1 L188.7,225.7 L179.3,232.3 L169.9,239.0 L160.4,245.6 L151.0,252.2 L141.3,258.3 L131.4,264.2 L121.6,270.2 L111.7,276.1 L101.9,282.1 L92.0,288.0" fill="none" stroke="#2dd4bf" stroke-width="19" stroke-linecap="round" stroke-linejoin="round" opacity="0.95"/><path d="M198.1,219.1 L188.7,225.7 L179.3,232.3 L169.9,239.0 L160.4,245.6 L151.0,252.2 L141.3,258.3 L131.4,264.2 L121.6,270.2 L111.7,276.1 L101.9,282.1 L92.0,288.0" fill="none" stroke="#0c2020" stroke-width="11" stroke-linecap="round" stroke-linejoin="round" opacity="1.0"/><path d="M252.9,163.0 L247.9,168.1 L242.9,173.2 L237.9,178.3 L233.0,183.4 L228.0,188.5 L223.0,193.6 L218.0,198.7 L213.1,203.8 L208.1,208.9 L203.1,214.0 L198.1,219.1" fill="none" stroke="#2dd4bf" stroke-width="23" stroke-linecap="round" stroke-linejoin="round" opacity="0.95"/><path d="M252.9,163.0 L247.9,168.1 L242.9,173.2 L237.9,178.3 L233.0,183.4 L228.0,188.5 L223.0,193.6 L218.0,198.7 L213.1,203.8 L208.1,208.9 L203.1,214.0 L198.1,219.1" fill="none" stroke="#0c2020" stroke-width="15" stroke-linecap="round" stroke-linejoin="round" opacity="1.0"/><circle cx="248.6" cy="137.0" r="19.0" fill="#2dd4bf" stroke="none" stroke-width="0" opacity="0.95"/><circle cx="248.6" cy="137.0" r="15.0" fill="#0c2020" stroke="none" stroke-width="6.3" opacity="1.0"/><path d="M246.6,120.0 L243.6,123.0 L240.6,126.0 L237.6,128.9 L234.7,131.9 L231.7,134.9 L228.7,137.9 L228.1,141.5 L229.0,145.6 L229.8,149.8 L230.7,153.9 L231.6,158.0" fill="none" stroke="#2dd4bf" stroke-width="5" stroke-linecap="round" stroke-linejoin="round" opacity="1.0"/><path d="M239.3,134.0 L241.0,134.0 L242.6,134.0 L244.3,134.0 L246.0,134.0 L247.7,134.0 L249.4,134.0 L251.1,134.0 L252.8,134.0 L254.5,134.0 L256.2,134.0 L257.9,134.0" fill="none" stroke="#a7f3ee" stroke-width="5" stroke-linecap="round" stroke-linejoin="round" opacity="1.0"/></g><g class="f11"><path d="M249.7,168.1 L252.9,167.5 L256.2,166.8 L259.4,166.1 L262.7,165.5 L265.9,164.8 L269.1,164.1 L271.6,161.9 L273.7,158.9 L275.8,156.0 L277.9,153.0 L280.0,150.0" fill="none" stroke="#f43f5e" stroke-width="19" stroke-linecap="round" stroke-linejoin="round" opacity="0.95"/><path d="M249.7,168.1 L252.9,167.5 L256.2,166.8 L259.4,166.1 L262.7,165.5 L265.9,164.8 L269.1,164.1 L271.6,161.9 L273.7,158.9 L275.8,156.0 L277.9,153.0 L280.0,150.0" fill="none" stroke="#0c2020" stroke-width="11" stroke-linecap="round" stroke-linejoin="round" opacity="1.0"/><path d="M196.2,222.3 L186.9,228.6 L177.7,235.0 L168.4,241.3 L159.2,247.6 L149.9,253.9 L140.3,259.7 L130.7,265.4 L121.0,271.0 L111.3,276.7 L101.7,282.3 L92.0,288.0" fill="none" stroke="#2dd4bf" stroke-width="19" stroke-linecap="round" stroke-linejoin="round" opacity="0.95"/><path d="M196.2,222.3 L186.9,228.6 L177.7,235.0 L168.4,241.3 L159.2,247.6 L149.9,253.9 L140.3,259.7 L130.7,265.4 L121.0,271.0 L111.3,276.7 L101.7,282.3 L92.0,288.0" fill="none" stroke="#0c2020" stroke-width="11" stroke-linecap="round" stroke-linejoin="round" opacity="1.0"/><path d="M249.7,168.1 L244.8,173.1 L240.0,178.0 L235.1,182.9 L230.2,187.8 L225.4,192.8 L220.5,197.7 L215.6,202.6 L210.8,207.5 L205.9,212.5 L201.1,217.4 L196.2,222.3" fill="none" stroke="#2dd4bf" stroke-width="23" stroke-linecap="round" stroke-linejoin="round" opacity="0.95"/><path d="M249.7,168.1 L244.8,173.1 L240.0,178.0 L235.1,182.9 L230.2,187.8 L225.4,192.8 L220.5,197.7 L215.6,202.6 L210.8,207.5 L205.9,212.5 L201.1,217.4 L196.2,222.3" fill="none" stroke="#0c2020" stroke-width="15" stroke-linecap="round" stroke-linejoin="round" opacity="1.0"/><circle cx="245.0" cy="142.1" r="19.0" fill="#2dd4bf" stroke="none" stroke-width="0" opacity="0.95"/><circle cx="245.0" cy="142.1" r="15.0" fill="#0c2020" stroke="none" stroke-width="6.3" opacity="1.0"/><path d="M243.0,125.1 L240.1,128.1 L237.1,131.1 L234.1,134.1 L231.1,137.0 L228.2,140.0 L225.2,143.0 L224.6,146.7 L225.4,150.8 L226.3,154.9 L227.2,159.0 L228.0,163.1" fill="none" stroke="#2dd4bf" stroke-width="5" stroke-linecap="round" stroke-linejoin="round" opacity="1.0"/><path d="M235.7,139.1 L237.4,139.1 L239.1,139.1 L240.8,139.1 L242.5,139.1 L244.2,139.1 L245.9,139.1 L247.6,139.1 L249.3,139.1 L251.0,139.1 L252.6,139.1 L254.3,139.1" fill="none" stroke="#a7f3ee" stroke-width="5" stroke-linecap="round" stroke-linejoin="round" opacity="1.0"/></g><g class="f12"><path d="M246.0,174.0 L249.5,172.6 L253.0,171.2 L256.5,169.7 L260.0,168.3 L263.5,166.9 L266.9,165.5 L269.8,162.8 L272.3,159.6 L274.9,156.4 L277.4,153.2 L280.0,150.0" fill="none" stroke="#f43f5e" stroke-width="19" stroke-linecap="round" stroke-linejoin="round" opacity="0.95"/><path d="M246.0,174.0 L249.5,172.6 L253.0,171.2 L256.5,169.7 L260.0,168.3 L263.5,166.9 L266.9,165.5 L269.8,162.8 L272.3,159.6 L274.9,156.4 L277.4,153.2 L280.0,150.0" fill="none" stroke="#0c2020" stroke-width="11" stroke-linecap="round" stroke-linejoin="round" opacity="1.0"/><path d="M194.0,226.0 L184.9,232.0 L175.9,238.0 L166.8,243.9 L157.7,249.9 L148.7,255.9 L139.3,261.3 L129.8,266.7 L120.4,272.0 L110.9,277.3 L101.5,282.7 L92.0,288.0" fill="none" stroke="#2dd4bf" stroke-width="19" stroke-linecap="round" stroke-linejoin="round" opacity="0.95"/><path d="M194.0,226.0 L184.9,232.0 L175.9,238.0 L166.8,243.9 L157.7,249.9 L148.7,255.9 L139.3,261.3 L129.8,266.7 L120.4,272.0 L110.9,277.3 L101.5,282.7 L92.0,288.0" fill="none" stroke="#0c2020" stroke-width="11" stroke-linecap="round" stroke-linejoin="round" opacity="1.0"/><path d="M246.0,174.0 L241.3,178.7 L236.5,183.5 L231.8,188.2 L227.1,192.9 L222.4,197.6 L217.6,202.4 L212.9,207.1 L208.2,211.8 L203.5,216.5 L198.7,221.3 L194.0,226.0" fill="none" stroke="#2dd4bf" stroke-width="23" stroke-linecap="round" stroke-linejoin="round" opacity="0.95"/><path d="M246.0,174.0 L241.3,178.7 L236.5,183.5 L231.8,188.2 L227.1,192.9 L222.4,197.6 L217.6,202.4 L212.9,207.1 L208.2,211.8 L203.5,216.5 L198.7,221.3 L194.0,226.0" fill="none" stroke="#0c2020" stroke-width="15" stroke-linecap="round" stroke-linejoin="round" opacity="1.0"/><circle cx="241.0" cy="148.0" r="19.0" fill="#2dd4bf" stroke="none" stroke-width="0" opacity="0.95"/><circle cx="241.0" cy="148.0" r="15.0" fill="#0c2020" stroke="none" stroke-width="6.3" opacity="1.0"/><path d="M239.0,131.0 L236.0,134.0 L233.0,137.0 L230.1,139.9 L227.1,142.9 L224.1,145.9 L221.1,148.9 L220.5,152.5 L221.4,156.6 L222.3,160.8 L223.1,164.9 L224.0,169.0" fill="none" stroke="#2dd4bf" stroke-width="5" stroke-linecap="round" stroke-linejoin="round" opacity="1.0"/><path d="M231.7,145.0 L233.4,145.0 L235.1,145.0 L236.8,145.0 L238.5,145.0 L240.2,145.0 L241.8,145.0 L243.5,145.0 L245.2,145.0 L246.9,145.0 L248.6,145.0 L250.3,145.0" fill="none" stroke="#a7f3ee" stroke-width="5" stroke-linecap="round" stroke-linejoin="round" opacity="1.0"/></g><g class="f13"><path d="M242.3,179.9 L246.1,177.7 L249.8,175.5 L253.5,173.4 L257.3,171.2 L261.0,169.0 L264.7,166.8 L267.9,163.7 L270.9,160.3 L273.9,156.9 L277.0,153.4 L280.0,150.0" fill="none" stroke="#f43f5e" stroke-width="19" stroke-linecap="round" stroke-linejoin="round" opacity="0.95"/><path d="M242.3,179.9 L246.1,177.7 L249.8,175.5 L253.5,173.4 L257.3,171.2 L261.0,169.0 L264.7,166.8 L267.9,163.7 L270.9,160.3 L273.9,156.9 L277.0,153.4 L280.0,150.0" fill="none" stroke="#0c2020" stroke-width="11" stroke-linecap="round" stroke-linejoin="round" opacity="1.0"/><path d="M191.8,229.7 L182.9,235.3 L174.0,240.9 L165.2,246.6 L156.3,252.2 L147.4,257.9 L138.2,263.0 L129.0,268.0 L119.7,273.0 L110.5,278.0 L101.2,283.0 L92.0,288.0" fill="none" stroke="#2dd4bf" stroke-width="19" stroke-linecap="round" stroke-linejoin="round" opacity="0.95"/><path d="M191.8,229.7 L182.9,235.3 L174.0,240.9 L165.2,246.6 L156.3,252.2 L147.4,257.9 L138.2,263.0 L129.0,268.0 L119.7,273.0 L110.5,278.0 L101.2,283.0 L92.0,288.0" fill="none" stroke="#0c2020" stroke-width="11" stroke-linecap="round" stroke-linejoin="round" opacity="1.0"/><path d="M242.3,179.9 L237.7,184.4 L233.1,188.9 L228.5,193.5 L224.0,198.0 L219.4,202.5 L214.8,207.0 L210.2,211.6 L205.6,216.1 L201.0,220.6 L196.4,225.1 L191.8,229.7" fill="none" stroke="#2dd4bf" stroke-width="23" stroke-linecap="round" stroke-linejoin="round" opacity="0.95"/><path d="M242.3,179.9 L237.7,184.4 L233.1,188.9 L228.5,193.5 L224.0,198.0 L219.4,202.5 L214.8,207.0 L210.2,211.6 L205.6,216.1 L201.0,220.6 L196.4,225.1 L191.8,229.7" fill="none" stroke="#0c2020" stroke-width="15" stroke-linecap="round" stroke-linejoin="round" opacity="1.0"/><circle cx="237.0" cy="153.9" r="19.0" fill="#2dd4bf" stroke="none" stroke-width="0" opacity="0.95"/><circle cx="237.0" cy="153.9" r="15.0" fill="#0c2020" stroke="none" stroke-width="6.3" opacity="1.0"/><path d="M235.0,136.9 L232.0,139.9 L229.0,142.8 L226.0,145.8 L223.1,148.8 L220.1,151.8 L217.1,154.7 L216.5,158.4 L217.4,162.5 L218.2,166.6 L219.1,170.8 L220.0,174.9" fill="none" stroke="#2dd4bf" stroke-width="5" stroke-linecap="round" stroke-linejoin="round" opacity="1.0"/><path d="M227.7,150.9 L229.4,150.9 L231.0,150.9 L232.7,150.9 L234.4,150.9 L236.1,150.9 L237.8,150.9 L239.5,150.9 L241.2,150.9 L242.9,150.9 L244.6,150.9 L246.3,150.9" fill="none" stroke="#a7f3ee" stroke-width="5" stroke-linecap="round" stroke-linejoin="round" opacity="1.0"/></g><g class="f14"><path d="M239.1,185.0 L243.1,182.2 L247.0,179.4 L251.0,176.5 L254.9,173.7 L258.9,170.9 L262.8,168.0 L266.3,164.5 L269.7,160.9 L273.1,157.3 L276.6,153.6 L280.0,150.0" fill="none" stroke="#f43f5e" stroke-width="19" stroke-linecap="round" stroke-linejoin="round" opacity="0.95"/><path d="M239.1,185.0 L243.1,182.2 L247.0,179.4 L251.0,176.5 L254.9,173.7 L258.9,170.9 L262.8,168.0 L266.3,164.5 L269.7,160.9 L273.1,157.3 L276.6,153.6 L280.0,150.0" fill="none" stroke="#0c2020" stroke-width="11" stroke-linecap="round" stroke-linejoin="round" opacity="1.0"/><path d="M189.9,232.9 L181.2,238.2 L172.5,243.6 L163.7,248.9 L155.0,254.2 L146.3,259.6 L137.3,264.4 L128.2,269.1 L119.2,273.8 L110.1,278.6 L101.1,283.3 L92.0,288.0" fill="none" stroke="#2dd4bf" stroke-width="19" stroke-linecap="round" stroke-linejoin="round" opacity="0.95"/><path d="M189.9,232.9 L181.2,238.2 L172.5,243.6 L163.7,248.9 L155.0,254.2 L146.3,259.6 L137.3,264.4 L128.2,269.1 L119.2,273.8 L110.1,278.6 L101.1,283.3 L92.0,288.0" fill="none" stroke="#0c2020" stroke-width="11" stroke-linecap="round" stroke-linejoin="round" opacity="1.0"/><path d="M239.1,185.0 L234.6,189.4 L230.2,193.7 L225.7,198.1 L221.2,202.4 L216.7,206.8 L212.3,211.1 L207.8,215.5 L203.3,219.8 L198.8,224.2 L194.4,228.5 L189.9,232.9" fill="none" stroke="#2dd4bf" stroke-width="23" stroke-linecap="round" stroke-linejoin="round" opacity="0.95"/><path d="M239.1,185.0 L234.6,189.4 L230.2,193.7 L225.7,198.1 L221.2,202.4 L216.7,206.8 L212.3,211.1 L207.8,215.5 L203.3,219.8 L198.8,224.2 L194.4,228.5 L189.9,232.9" fill="none" stroke="#0c2020" stroke-width="15" stroke-linecap="round" stroke-linejoin="round" opacity="1.0"/><circle cx="233.4" cy="159.0" r="19.0" fill="#2dd4bf" stroke="none" stroke-width="0" opacity="0.95"/><circle cx="233.4" cy="159.0" r="15.0" fill="#0c2020" stroke="none" stroke-width="6.3" opacity="1.0"/><path d="M231.4,142.0 L228.5,145.0 L225.5,148.0 L222.5,150.9 L219.5,153.9 L216.6,156.9 L213.6,159.9 L213.0,163.5 L213.8,167.6 L214.7,171.8 L215.6,175.9 L216.4,180.0" fill="none" stroke="#2dd4bf" stroke-width="5" stroke-linecap="round" stroke-linejoin="round" opacity="1.0"/><path d="M224.1,156.0 L225.8,156.0 L227.5,156.0 L229.2,156.0 L230.9,156.0 L232.6,156.0 L234.3,156.0 L236.0,156.0 L237.7,156.0 L239.4,156.0 L241.0,156.0 L242.7,156.0" fill="none" stroke="#a7f3ee" stroke-width="5" stroke-linecap="round" stroke-linejoin="round" opacity="1.0"/></g><g class="f15"><path d="M236.9,188.6 L241.0,185.3 L245.1,182.0 L249.2,178.8 L253.3,175.5 L257.4,172.2 L261.4,168.8 L265.1,165.1 L268.8,161.3 L272.6,157.5 L276.3,153.8 L280.0,150.0" fill="none" stroke="#f43f5e" stroke-width="19" stroke-linecap="round" stroke-linejoin="round" opacity="0.95"/><path d="M236.9,188.6 L241.0,185.3 L245.1,182.0 L249.2,178.8 L253.3,175.5 L257.4,172.2 L261.4,168.8 L265.1,165.1 L268.8,161.3 L272.6,157.5 L276.3,153.8 L280.0,150.0" fill="none" stroke="#0c2020" stroke-width="11" stroke-linecap="round" stroke-linejoin="round" opacity="1.0"/><path d="M188.5,235.1 L179.9,240.3 L171.3,245.4 L162.7,250.5 L154.1,255.7 L145.5,260.8 L136.7,265.4 L127.7,269.9 L118.8,274.4 L109.9,279.0 L100.9,283.5 L92.0,288.0" fill="none" stroke="#2dd4bf" stroke-width="19" stroke-linecap="round" stroke-linejoin="round" opacity="0.95"/><path d="M188.5,235.1 L179.9,240.3 L171.3,245.4 L162.7,250.5 L154.1,255.7 L145.5,260.8 L136.7,265.4 L127.7,269.9 L118.8,274.4 L109.9,279.0 L100.9,283.5 L92.0,288.0" fill="none" stroke="#0c2020" stroke-width="11" stroke-linecap="round" stroke-linejoin="round" opacity="1.0"/><path d="M236.9,188.6 L232.5,192.9 L228.1,197.1 L223.7,201.3 L219.3,205.5 L214.9,209.8 L210.5,214.0 L206.1,218.2 L201.7,222.5 L197.3,226.7 L192.9,230.9 L188.5,235.1" fill="none" stroke="#2dd4bf" stroke-width="23" stroke-linecap="round" stroke-linejoin="round" opacity="0.95"/><path d="M236.9,188.6 L232.5,192.9 L228.1,197.1 L223.7,201.3 L219.3,205.5 L214.9,209.8 L210.5,214.0 L206.1,218.2 L201.7,222.5 L197.3,226.7 L192.9,230.9 L188.5,235.1" fill="none" stroke="#0c2020" stroke-width="15" stroke-linecap="round" stroke-linejoin="round" opacity="1.0"/><circle cx="230.9" cy="162.6" r="19.0" fill="#2dd4bf" stroke="none" stroke-width="0" opacity="0.95"/><circle cx="230.9" cy="162.6" r="15.0" fill="#0c2020" stroke="none" stroke-width="6.3" opacity="1.0"/><path d="M228.9,145.6 L226.0,148.6 L223.0,151.6 L220.0,154.6 L217.0,157.5 L214.1,160.5 L211.1,163.5 L210.5,167.2 L211.3,171.3 L212.2,175.4 L213.1,179.5 L213.9,183.6" fill="none" stroke="#2dd4bf" stroke-width="5" stroke-linecap="round" stroke-linejoin="round" opacity="1.0"/><path d="M221.6,159.6 L223.3,159.6 L225.0,159.6 L226.7,159.6 L228.4,159.6 L230.1,159.6 L231.8,159.6 L233.5,159.6 L235.2,159.6 L236.9,159.6 L238.6,159.6 L240.2,159.6" fill="none" stroke="#a7f3ee" stroke-width="5" stroke-linecap="round" stroke-linejoin="round" opacity="1.0"/></g></svg>
