<svg xmlns="http://www.w3.org/2000/svg" viewBox="0 0 480 320"><style>@keyframes k0{0%{opacity:1}11.111%{opacity:0}100%{opacity:0}}.f0{opacity:0;animation:k0 2.4s steps(1,end) infinite}@keyframes k1{0%{opacity:0}11.111%{opacity:1}16.667%{opacity:0}100%{opacity:0}}.f1{opacity:0;animation:k1 2.4s steps(1,end) infinite}@keyframes k2{0%{opacity:0}16.667%{opacity:1}22.222%{opacity:0}100%{opacity:0}}.f2{opacity:0;animation:k2 2.4s steps(1,end) infinite}@keyframes k3{0%{opacity:0}22.222%{opacity:1}27.778%{opacity:0}100%{opacity:0}}.f3{opacity:0;animation:k3 2.4s steps(1,end) infinite}@keyframes k4{0%{opacity:0}27.778%{opacity:1}33.333%{opacity:0}100%{opacity:0}}.f4{opacity:0;animation:k4 2.4s steps(1,end) infinite}@keyframes k5{0%{opacity:0}33.333%{opacity:1}38.889%{opacity:0}100%{opacity:0}}.f5{opacity:0;animation:k5 2.4s steps(1,end) infinite}@keyframes k6{0%{opacity:0}38.889%{opacity:1}44.444%{opacity:0}100%{opacity:0}}.f6{opacity:0;animation:k6 2.4s steps(1,end) infinite}@keyframes k7{0%{opacity:0}44.444%{opacity:1}50.000%{opacity:0}100%{opacity:0}}.f7{opacity:0;animation:k7 2.4s steps(1,end) infinite}@keyframes k8{0%{opacity:0}50.000%{opacity:1}61.111%{opacity:0}100%{opacity:0}}.f8{opacity:0;animation:k8 2.4s steps(1,end) infinite}@keyframes k9{0%{opacity:0}61.111%{opacity:1}66.667%{opacity:0}100%{opacity:0}}.f9{opacity:0;animation:k9 2.4s steps(1,end) infinite}@keyframes k10{0%{opacity:0}66.667%{opacity:1}72.222%{opacity:0}100%{opacity:0}}.f10{opacity:0;animation:k10 2.4s steps(1,end) infinite}@keyframes k11{0%{opacity:0}72.222%{opacity:1}77.778%{opacity:0}100%{opacity:0}}.f11{opacity:0;animation:k11 2.4s steps(1,end) infinite}@keyframes k12{0%{opacity:0}77.778%{opacity:1}83.333%{opacity:0}100%{opacity:0}}.f12{opacity:0;animation:k12 2.4s steps(1,end) infinite}@keyframes k13{0%{opacity:0}83.333%{opacity:1}88.889%{opacity:0}100%{opacity:0}}.f13{opacity:0;animation:k13 2.4s steps(1,end) infinite}@keyframes k14{0%{opacity:0}88.889%{opacity:1}94.444%{opacity:0}100%{opacity:0}}.f14{opacity:0;animation:k14 2.4s steps(1,end) infinite}@keyframes k15{0%{opacity:0}94.444%{opacity:1}100%{opacity:1}}.f15{opacity:0;animation:k15 2.4s steps(1,end) infinite}</style><path d="M40.0,292.0 L440.0,292.0" fill="none" stroke="#1f3333" stroke-width="6" stroke-linecap="round" stroke-linejoin="round" opacity="1.0"/><path d="M303.0,0.0 L303.0,258.0" fill="none" stroke="#fbbf24" stroke-width="4" stroke-linecap="round" stroke-linejoin="round" opacity="1.0"/><circle cx="303.0" cy="268.0" r="10.0" fill="none" stroke="#fbbf24" stroke-width="5" opacity="1.0"/><g class="f0"><path d="M313.0,196.0 L312.1,202.5 L311.2,209.1 L310.3,215.6 L309.4,222.2 L308.5,228.7 L307.5,235.3 L306.6,241.8 L305.7,248.4 L304.8,254.9 L303.9,261.5 L303.0,268.0" fill="none" stroke="#f43f5e" stroke-width="21" stroke-linecap="round" stroke-linejoin="round" opacity="0.95"/><path d="M313.0,196.0 L312.1,202.5 L311.2,209.1 L310.3,215.6 L309.4,222.2 L308.5,228.7 L307.5,235.3 L306.6,241.8 L305.7,248.4 L304.8,254.9 L303.9,261.5 L303.0,268.0" fill="none" stroke="#0c2020" stroke-width="13" stroke-linecap="round" stroke-linejoin="round" opacity="1.0"/><path d="M215.0,214.0 L204.3,219.7 L193.6,225.5 L182.9,231.2 L172.2,236.9 L161.5,242.7 L151.6,249.6 L141.8,256.9 L132.1,264.1 L122.4,271.4 L112.7,278.7 L103.0,286.0" fill="none" stroke="#2dd4bf" stroke-width="21" stroke-linecap="round" stroke-linejoin="round" opacity="0.95"/><path d="M215.0,214.0 L204.3,219.7 L193.6,225.5 L182.9,231.2 L172.2,236.9 L161.5,242.7 L151.6,249.6 L141.8,256.9 L132.1,264.1 L122.4,271.4 L112.7,278.7 L103.0,286.0" fill="none" stroke="#0c2020" stroke-width="13" stroke-linecap="round" stroke-linejoin="round" opacity="1.0"/><path d="M313.0,196.0 L304.1,197.6 L295.2,199.3 L286.3,200.9 L277.4,202.5 L268.5,204.2 L259.5,205.8 L250.6,207.5 L241.7,209.1 L232.8,210.7 L223.9,212.4 L215.0,214.0" fill="none" stroke="#2dd4bf" stroke-width="25" stroke-linecap="round" stroke-linejoin="round" opacity="0.95"/><path d="M313.0,196.0 L304.1,197.6 L295.2,199.3 L286.3,200.9 L277.4,202.5 L268.5,204.2 L259.5,205.8 L250.6,207.5 L241.7,209.1 L232.8,210.7 L223.9,212.4 L215.0,214.0" fill="none" stroke="#0c2020" stroke-width="17" stroke-linecap="round" stroke-linejoin="round" opacity="1.0"/><circle cx="341.0" cy="188.0" r="19.0" fill="#2dd4bf" stroke="none" stroke-width="0" opacity="0.95"/><circle cx="341.0" cy="188.0" r="15.0" fill="#0c2020" stroke="none" stroke-width="6.3" opacity="1.0"/><path d="M331.7,185.0 L333.4,185.0 L335.1,185.0 L336.8,185.0 L338.5,185.0 L340.2,185.0 L341.8,185.0 L343.5,185.0 L345.2,185.0 L346.9,185.0 L348.6,185.0 L350.3,185.0" fill="none" stroke="#a7f3ee" stroke-width="5" stroke-linecap="round" stroke-linejoin="round" opacity="1.0"/></g><g class="f1"><path d="M313.1,198.0 L312.3,204.4 L311.6,210.8 L310.9,217.2 L310.1,223.6 L309.3,230.0 L308.2,236.3 L307.2,242.7 L306.1,249.0 L305.1,255.3 L304.0,261.7 L303.0,268.0" fill="none" stroke="#f43f5e" stroke-width="21" stroke-linecap="round" stroke-linejoin="round" opacity="0.95"/><path d="M313.1,198.0 L312.3,204.4 L311.6,210.8 L310.9,217.2 L310.1,223.6 L309.3,230.0 L308.2,236.3 L307.2,242.7 L306.1,249.0 L305.1,255.3 L304.0,261.7 L303.0,268.0" fill="none" stroke="#0c2020" stroke-width="13" stroke-linecap="round" stroke-linejoin="round" opacity="1.0"/><path d="M215.0,215.4 L204.3,221.0 L193.6,226.6 L182.9,232.2 L172.2,237.8 L161.6,243.4 L151.6,250.2 L141.9,257.4 L132.2,264.5 L122.4,271.7 L112.7,278.8 L103.0,286.0" fill="none" stroke="#2dd4bf" stroke-width="21" stroke-linecap="round" stroke-linejoin="round" opacity="0.95"/><path d="M215.0,215.4 L204.3,221.0 L193.6,226.6 L182.9,232.2 L172.2,237.8 L161.6,243.4 L151.6,250.2 L141.9,257.4 L132.2,264.5 L122.4,271.7 L112.7,278.8 L103.0,286.0" fill="none" stroke="#0c2020" stroke-width="13" stroke-linecap="round" stroke-linejoin="round" opacity="1.0"/><path d="M313.1,198.0 L304.2,199.6 L295.3,201.1 L286.3,202.7 L277.4,204.3 L268.5,205.9 L259.6,207.5 L250.7,209.0 L241.8,210.6 L232.8,212.2 L223.9,213.8 L215.0,215.4" fill="none" stroke="#2dd4bf" stroke-width="25" stroke-linecap="round" stroke-linejoin="round" opacity="0.95"/><path d="M313.1,198.0 L304.2,199.6 L295.3,201.1 L286.3,202.7 L277.4,204.3 L268.5,205.9 L259.6,207.5 L250.7,209.0 L241.8,210.6 L232.8,212.2 L223.9,213.8 L215.0,215.4" fill="none" stroke="#0c2020" stroke-width="17" stroke-linecap="round" stroke-linejoin="round" opacity="1.0"/><circle cx="341.1" cy="190.1" r="19.0" fill="#2dd4bf" stroke="none" stroke-width="0" opacity="0.95"/><circle cx="341.1" cy="190.1" r="15.0" fill="#0c2020" stroke="none" stroke-width="6.3" opacity="1.0"/><path d="M331.8,187.1 L333.5,187.1 L335.2,187.1 L336.9,187.1 L338.5,187.1 L340.2,187.1 L341.9,187.1 L343.6,187.1 L345.3,187.1 L347.0,187.1 L348.7,187.1 L350.4,187.1" fill="none" stroke="#a7f3ee" stroke-width="5" stroke-linecap="round" stroke-linejoin="round" opacity="1.0"/></g><g class="f2"><path d="M313.3,203.2 L313.0,209.2 L312.7,215.3 L312.4,221.3 L312.1,227.4 L311.5,233.4 L310.1,239.1 L308.7,244.9 L307.3,250.7 L305.8,256.5 L304.4,262.2 L303.0,268.0" fill="none" stroke="#f43f5e" stroke-width="21" stroke-linecap="round" stroke-linejoin="round" opacity="0.95"/><path d="M313.3,203.2 L313.0,209.2 L312.7,215.3 L312.4,221.3 L312.1,227.4 L311.5,233.4 L310.1,239.1 L308.7,244.9 L307.3,250.7 L305.8,256.5 L304.4,262.2 L303.0,268.0" fill="none" stroke="#0c2020" stroke-width="13" stroke-linecap="round" stroke-linejoin="round" opacity="1.0"/><path d="M215.0,219.0 L204.3,224.3 L193.7,229.6 L183.0,234.9 L172.4,240.2 L161.7,245.5 L151.7,251.9 L142.0,258.8 L132.2,265.6 L122.5,272.4 L112.7,279.2 L103.0,286.0" fill="none" stroke="#2dd4bf" stroke-width="21" stroke-linecap="round" stroke-linejoin="round" opacity="0.95"/><path d="M215.0,219.0 L204.3,224.3 L193.7,229.6 L183.0,234.9 L172.4,240.2 L161.7,245.5 L151.7,251.9 L142.0,258.8 L132.2,265.6 L122.5,272.4 L112.7,279.2 L103.0,286.0" fill="none" stroke="#0c2020" stroke-width="13" stroke-linecap="round" stroke-linejoin="round" opacity="1.0"/><path d="M313.3,203.2 L304.4,204.6 L295.4,206.1 L286.5,207.5 L277.6,208.9 L268.6,210.4 L259.7,211.8 L250.8,213.2 L241.8,214.7 L232.9,216.1 L223.9,217.6 L215.0,219.0" fill="none" stroke="#2dd4bf" stroke-width="25" stroke-linecap="round" stroke-linejoin="round" opacity="0.95"/><path d="M313.3,203.2 L304.4,204.6 L295.4,206.1 L286.5,207.5 L277.6,208.9 L268.6,210.4 L259.7,211.8 L250.8,213.2 L241.8,214.7 L232.9,216.1 L223.9,217.6 L215.0,219.0" fill="none" stroke="#0c2020" stroke-width="17" stroke-linecap="round" stroke-linejoin="round" opacity="1.0"/><circle cx="341.3" cy="195.8" r="19.0" fill="#2dd4bf" stroke="none" stroke-width="0" opacity="0.95"/><circle cx="341.3" cy="195.8" r="15.0" fill="#0c2020" stroke="none" stroke-width="6.3" opacity="1.0"/><path d="M332.0,192.8 L333.7,192.8 L335.4,192.8 L337.1,192.8 L338.8,192.8 L340.5,192.8 L342.2,192.8 L343.8,192.8 L345.5,192.8 L347.2,192.8 L348.9,192.8 L350.6,192.8" fill="none" stroke="#a7f3ee" stroke-width="5" stroke-linecap="round" stroke-linejoin="round" opacity="1.0"/></g><g class="f3"><path d="M313.6,210.6 L313.9,216.1 L314.3,221.6 L314.6,227.2 L314.9,232.7 L314.6,238.1 L312.7,243.1 L310.8,248.1 L308.8,253.1 L306.9,258.0 L304.9,263.0 L303.0,268.0" fill="none" stroke="#f43f5e" stroke-width="21" stroke-linecap="round" stroke-linejoin="round" opacity="0.95"/><path d="M313.6,210.6 L313.9,216.1 L314.3,221.6 L314.6,227.2 L314.9,232.7 L314.6,238.1 L312.7,243.1 L310.8,248.1 L308.8,253.1 L306.9,258.0 L304.9,263.0 L303.0,268.0" fill="none" stroke="#0c2020" stroke-width="13" stroke-linecap="round" stroke-linejoin="round" opacity="1.0"/><path d="M215.0,224.1 L204.4,229.0 L193.8,233.8 L183.2,238.7 L172.6,243.6 L161.9,248.4 L151.9,254.4 L142.2,260.7 L132.4,267.0 L122.6,273.3 L112.8,279.7 L103.0,286.0" fill="none" stroke="#2dd4bf" stroke-width="21" stroke-linecap="round" stroke-linejoin="round" opacity="0.95"/><path d="M215.0,224.1 L204.4,229.0 L193.8,233.8 L183.2,238.7 L172.6,243.6 L161.9,248.4 L151.9,254.4 L142.2,260.7 L132.4,267.0 L122.6,273.3 L112.8,279.7 L103.0,286.0" fill="none" stroke="#0c2020" stroke-width="13" stroke-linecap="round" stroke-linejoin="round" opacity="1.0"/><path d="M313.6,210.6 L304.7,211.8 L295.7,213.0 L286.7,214.3 L277.8,215.5 L268.8,216.7 L259.8,218.0 L250.9,219.2 L241.9,220.4 L232.9,221.7 L224.0,222.9 L215.0,224.1" fill="none" stroke="#2dd4bf" stroke-width="25" stroke-linecap="round" stroke-linejoin="round" opacity="0.95"/><path d="M313.6,210.6 L304.7,211.8 L295.7,213.0 L286.7,214.3 L277.8,215.5 L268.8,216.7 L259.8,218.0 L250.9,219.2 L241.9,220.4 L232.9,221.7 L224.0,222.9 L215.0,224.1" fill="none" stroke="#0c2020" stroke-width="17" stroke-linecap="round" stroke-linejoin="round" opacity="1.0"/><circle cx="341.6" cy="203.8" r="19.0" fill="#2dd4bf" stroke="none" stroke-width="0" opacity="0.95"/><circle cx="341.6" cy="203.8" r="15.0" fill="#0c2020" stroke="none" stroke-width="6.3" opacity="1.0"/><path d="M332.3,200.8 L334.0,200.8 L335.7,200.8 L337.4,200.8 L339.1,200.8 L340.8,200.8 L342.5,200.8 L344.2,200.8 L345.9,200.8 L347.6,200.8 L349.2,200.8 L350.9,200.8" fill="none" stroke="#a7f3ee" stroke-width="5" stroke-linecap="round" stroke-linejoin="round" opacity="1.0"/></g><g class="f4"><path d="M314.0,219.0 L315.0,224.0 L316.0,228.9 L317.0,233.9 L318.1,238.8 L318.2,243.6 L315.7,247.6 L313.2,251.7 L310.6,255.8 L308.1,259.9 L305.5,263.9 L303.0,268.0" fill="none" stroke="#f43f5e" stroke-width="21" stroke-linecap="round" stroke-linejoin="round" opacity="0.95"/><path d="M314.0,219.0 L315.0,224.0 L316.0,228.9 L317.0,233.9 L318.1,238.8 L318.2,243.6 L315.7,247.6 L313.2,251.7 L310.6,255.8 L308.1,259.9 L305.5,263.9 L303.0,268.0" fill="none" stroke="#0c2020" stroke-width="13" stroke-linecap="round" stroke-linejoin="round" opacity="1.0"/><path d="M215.0,230.0 L204.4,234.4 L193.9,238.7 L183.3,243.1 L172.8,247.4 L162.2,251.8 L152.2,257.1 L142.3,262.9 L132.5,268.7 L122.7,274.4 L112.8,280.2 L103.0,286.0" fill="none" stroke="#2dd4bf" stroke-width="21" stroke-linecap="round" stroke-linejoin="round" opacity="0.95"/><path d="M215.0,230.0 L204.4,234.4 L193.9,238.7 L183.3,243.1 L172.8,247.4 L162.2,251.8 L152.2,257.1 L142.3,262.9 L132.5,268.7 L122.7,274.4 L112.8,280.2 L103.0,286.0" fill="none" stroke="#0c2020" stroke-width="13" stroke-linecap="round" stroke-linejoin="round" opacity="1.0"/><path d="M314.0,219.0 L305.0,220.0 L296.0,221.0 L287.0,222.0 L278.0,223.0 L269.0,224.0 L260.0,225.0 L251.0,226.0 L242.0,227.0 L233.0,228.0 L224.0,229.0 L215.0,230.0" fill="none" stroke="#2dd4bf" stroke-width="25" stroke-linecap="round" stroke-linejoin="round" opacity="0.95"/><path d="M314.0,219.0 L305.0,220.0 L296.0,221.0 L287.0,222.0 L278.0,223.0 L269.0,224.0 L260.0,225.0 L251.0,226.0 L242.0,227.0 L233.0,228.0 L224.0,229.0 L215.0,230.0" fill="none" stroke="#0c2020" stroke-width="17" stroke-linecap="round" stroke-linejoin="round" opacity="1.0"/><circle cx="342.0" cy="213.0" r="19.0" fill="#2dd4bf" stroke="none" stroke-width="0" opacity="0.95"/><circle cx="342.0" cy="213.0" r="15.0" fill="#0c2020" stroke="none" stroke-width="6.3" opacity="1.0"/><path d="M332.7,210.0 L334.4,210.0 L336.1,210.0 L337.8,210.0 L339.5,210.0 L341.2,210.0 L342.8,210.0 L344.5,210.0 L346.2,210.0 L347.9,210.0 L349.6,210.0 L351.3,210.0" fill="none" stroke="#a7f3ee" stroke-width="5" stroke-linecap="round" stroke-linejoin="round" opacity="1.0"/></g><g class="f5"><path d="M314.4,227.4 L316.1,231.8 L317.8,236.2 L319.5,240.5 L321.3,244.9 L321.8,249.0 L318.7,252.2 L315.5,255.3 L312.4,258.5 L309.3,261.7 L306.1,264.8 L303.0,268.0" fill="none" stroke="#f43f5e" stroke-width="21" stroke-linecap="round" stroke-linejoin="round" opacity="0.95"/><path d="M314.4,227.4 L316.1,231.8 L317.8,236.2 L319.5,240.5 L321.3,244.9 L321.8,249.0 L318.7,252.2 L315.5,255.3 L312.4,258.5 L309.3,261.7 L306.1,264.8 L303.0,268.0" fill="none" stroke="#0c2020" stroke-width="13" stroke-linecap="round" stroke-linejoin="round" opacity="1.0"/><path d="M215.0,235.9 L204.5,239.7 L194.0,243.6 L183.5,247.4 L173.0,251.3 L162.5,255.1 L152.4,259.9 L142.5,265.1 L132.6,270.3 L122.8,275.6 L112.9,280.8 L103.0,286.0" fill="none" stroke="#2dd4bf" stroke-width="21" stroke-linecap="round" stroke-linejoin="round" opacity="0.95"/><path d="M215.0,235.9 L204.5,239.7 L194.0,243.6 L183.5,247.4 L173.0,251.3 L162.5,255.1 L152.4,259.9 L142.5,265.1 L132.6,270.3 L122.8,275.6 L112.9,280.8 L103.0,286.0" fill="none" stroke="#0c2020" stroke-width="13" stroke-linecap="round" stroke-linejoin="round" opacity="1.0"/><path d="M314.4,227.4 L305.3,228.2 L296.3,229.0 L287.3,229.7 L278.2,230.5 L269.2,231.3 L260.2,232.0 L251.1,232.8 L242.1,233.6 L233.1,234.3 L224.0,235.1 L215.0,235.9" fill="none" stroke="#2dd4bf" stroke-width="25" stroke-linecap="round" stroke-linejoin="round" opacity="0.95"/><path d="M314.4,227.4 L305.3,228.2 L296.3,229.0 L287.3,229.7 L278.2,230.5 L269.2,231.3 L260.2,232.0 L251.1,232.8 L242.1,233.6 L233.1,234.3 L224.0,235.1 L215.0,235.9" fill="none" stroke="#0c2020" stroke-width="17" stroke-linecap="round" stroke-linejoin="round" opacity="1.0"/><circle cx="342.4" cy="222.2" r="19.0" fill="#2dd4bf" stroke="none" stroke-width="0" opacity="0.95"/><circle cx="342.4" cy="222.2" r="15.0" fill="#0c2020" stroke="none" stroke-width="6.3" opacity="1.0"/><path d="M333.1,219.2 L334.8,219.2 L336.4,219.2 L338.1,219.2 L339.8,219.2 L341.5,219.2 L343.2,219.2 L344.9,219.2 L346.6,219.2 L348.3,219.2 L350.0,219.2 L351.7,219.2" fill="none" stroke="#a7f3ee" stroke-width="5" stroke-linecap="round" stroke-linejoin="round" opacity="1.0"/></g><g class="f6"><path d="M314.7,234.8 L317.0,238.7 L319.4,242.5 L321.7,246.4 L324.0,250.2 L325.0,253.7 L321.3,256.1 L317.6,258.5 L314.0,260.9 L310.3,263.2 L306.7,265.6 L303.0,268.0" fill="none" stroke="#f43f5e" stroke-width="21" stroke-linecap="round" stroke-linejoin="round" opacity="0.95"/><path d="M314.7,234.8 L317.0,238.7 L319.4,242.5 L321.7,246.4 L324.0,250.2 L325.0,253.7 L321.3,256.1 L317.6,258.5 L314.0,260.9 L310.3,263.2 L306.7,265.6 L303.0,268.0" fill="none" stroke="#0c2020" stroke-width="13" stroke-linecap="round" stroke-linejoin="round" opacity="1.0"/><path d="M215.0,241.0 L204.5,244.4 L194.1,247.8 L183.6,251.2 L173.2,254.6 L162.7,258.0 L152.6,262.3 L142.7,267.0 L132.8,271.8 L122.8,276.5 L112.9,281.3 L103.0,286.0" fill="none" stroke="#2dd4bf" stroke-width="21" stroke-linecap="round" stroke-linejoin="round" opacity="0.95"/><path d="M215.0,241.0 L204.5,244.4 L194.1,247.8 L183.6,251.2 L173.2,254.6 L162.7,258.0 L152.6,262.3 L142.7,267.0 L132.8,271.8 L122.8,276.5 L112.9,281.3 L103.0,286.0" fill="none" stroke="#0c2020" stroke-width="13" stroke-linecap="round" stroke-linejoin="round" opacity="1.0"/><path d="M314.7,234.8 L305.6,235.4 L296.6,235.9 L287.5,236.5 L278.4,237.1 L269.4,237.6 L260.3,238.2 L251.2,238.8 L242.2,239.3 L233.1,239.9 L224.1,240.4 L215.0,241.0" fill="none" stroke="#2dd4bf" stroke-width="25" stroke-linecap="round" stroke-linejoin="round" opacity="0.95"/><path d="M314.7,234.8 L305.6,235.4 L296.6,235.9 L287.5,236.5 L278.4,237.1 L269.4,237.6 L260.3,238.2 L251.2,238.8 L242.2,239.3 L233.1,239.9 L224.1,240.4 L215.0,241.0" fill="none" stroke="#0c2020" stroke-width="17" stroke-linecap="round" stroke-linejoin="round" opacity="1.0"/><circle cx="342.7" cy="230.2" r="19.0" fill="#2dd4bf" stroke="none" stroke-width="0" opacity="0.95"/><circle cx="342.7" cy="230.2" r="15.0" fill="#0c2020" stroke="none" stroke-width="6.3" opacity="1.0"/><path d="M333.4,227.2 L335.1,227.2 L336.8,227.2 L338.5,227.2 L340.2,227.2 L341.8,227.2 L343.5,227.2 L345.2,227.2 L346.9,227.2 L348.6,227.2 L350.3,227.2 L352.0,227.2" fill="none" stroke="#a7f3ee" stroke-width="5" stroke-linecap="round" stroke-linejoin="round" opacity="1.0"/></g><g class="f7"><path d="M314.9,240.0 L317.7,243.5 L320.5,247.0 L323.2,250.5 L326.0,254.0 L327.2,257.1 L323.1,258.9 L319.1,260.7 L315.1,262.6 L311.1,264.4 L307.0,266.2 L303.0,268.0" fill="none" stroke="#f43f5e" stroke-width="21" stroke-linecap="round" stroke-linejoin="round" opacity="0.95"/><path d="M314.9,240.0 L317.7,243.5 L320.5,247.0 L323.2,250.5 L326.0,254.0 L327.2,257.1 L323.1,258.9 L319.1,260.7 L315.1,262.6 L311.1,264.4 L307.0,266.2 L303.0,268.0" fill="none" stroke="#0c2020" stroke-width="13" stroke-linecap="round" stroke-linejoin="round" opacity="1.0"/><path d="M215.0,244.6 L204.6,247.7 L194.1,250.8 L183.7,253.9 L173.3,257.0 L162.9,260.1 L152.7,264.0 L142.8,268.4 L132.8,272.8 L122.9,277.2 L112.9,281.6 L103.0,286.0" fill="none" stroke="#2dd4bf" stroke-width="21" stroke-linecap="round" stroke-linejoin="round" opacity="0.95"/><path d="M215.0,244.6 L204.6,247.7 L194.1,250.8 L183.7,253.9 L173.3,257.0 L162.9,260.1 L152.7,264.0 L142.8,268.4 L132.8,272.8 L122.9,277.2 L112.9,281.6 L103.0,286.0" fill="none" stroke="#0c2020" stroke-width="13" stroke-linecap="round" stroke-linejoin="round" opacity="1.0"/><path d="M314.9,240.0 L305.8,240.4 L296.7,240.9 L287.7,241.3 L278.6,241.7 L269.5,242.1 L260.4,242.5 L251.3,243.0 L242.2,243.4 L233.2,243.8 L224.1,244.2 L215.0,244.6" fill="none" stroke="#2dd4bf" stroke-width="25" stroke-linecap="round" stroke-linejoin="round" opacity="0.95"/><path d="M314.9,240.0 L305.8,240.4 L296.7,240.9 L287.7,241.3 L278.6,241.7 L269.5,242.1 L260.4,242.5 L251.3,243.0 L242.2,243.4 L233.2,243.8 L224.1,244.2 L215.0,244.6" fill="none" stroke="#0c2020" stroke-width="17" stroke-linecap="round" stroke-linejoin="round" opacity="1.0"/><circle cx="342.9" cy="235.9" r="19.0" fill="#2dd4bf" stroke="none" stroke-width="0" opacity="0.95"/><circle cx="342.9" cy="235.9" r="15.0" fill="#0c2020" stroke="none" stroke-width="6.3" opacity="1.0"/><path d="M333.6,232.9 L335.3,232.9 L337.0,232.9 L338.7,232.9 L340.4,232.9 L342.1,232.9 L343.8,232.9 L345.5,232.9 L347.1,232.9 L348.8,232.9 L350.5,232.9 L352.2,232.9" fill="none" stroke="#a7f3ee" stroke-width="5" stroke-linecap="round" stroke-linejoin="round" opacity="1.0"/></g><g class="f8"><path d="M315.0,242.0 L317.9,245.4 L320.9,248.7 L323.8,252.1 L326.8,255.4 L328.0,258.4 L323.8,260.0 L319.7,261.6 L315.5,263.2 L311.3,264.8 L307.2,266.4 L303.0,268.0" fill="none" stroke="#f43f5e" stroke-width="21" stroke-linecap="round" stroke-linejoin="round" opacity="0.95"/><path d="M315.0,242.0 L317.9,245.4 L320.9,248.7 L323.8,252.1 L326.8,255.4 L328.0,258.4 L323.8,260.0 L319.7,261.6 L315.5,263.2 L311.3,264.8 L307.2,266.4 L303.0,268.0" fill="none" stroke="#0c2020" stroke-width="13" stroke-linecap="round" stroke-linejoin="round" opacity="1.0"/><path d="M215.0,246.0 L204.6,249.0 L194.2,252.0 L183.8,254.9 L173.3,257.9 L162.9,260.9 L152.8,264.7 L142.8,268.9 L132.9,273.2 L122.9,277.5 L113.0,281.7 L103.0,286.0" fill="none" stroke="#2dd4bf" stroke-width="21" stroke-linecap="round" stroke-linejoin="round" opacity="0.95"/><path d="M215.0,246.0 L204.6,249.0 L194.2,252.0 L183.8,254.9 L173.3,257.9 L162.9,260.9 L152.8,264.7 L142.8,268.9 L132.9,273.2 L122.9,277.5 L113.0,281.7 L103.0,286.0" fill="none" stroke="#0c2020" stroke-width="13" stroke-linecap="round" stroke-linejoin="round" opacity="1.0"/><path d="M315.0,242.0 L305.9,242.4 L296.8,242.7 L287.7,243.1 L278.6,243.5 L269.5,243.8 L260.5,244.2 L251.4,244.5 L242.3,244.9 L233.2,245.3 L224.1,245.6 L215.0,246.0" fill="none" stroke="#2dd4bf" stroke-width="25" stroke-linecap="round" stroke-linejoin="round" opacity="0.95"/><path d="M315.0,242.0 L305.9,242.4 L296.8,242.7 L287.7,243.1 L278.6,243.5 L269.5,243.8 L260.5,244.2 L251.4,244.5 L242.3,244.9 L233.2,245.3 L224.1,245.6 L215.0,246.0" fill="none" stroke="#0c2020" stroke-width="17" stroke-linecap="round" stroke-linejoin="round" opacity="1.0"/><circle cx="343.0" cy="238.0" r="19.0" fill="#2dd4bf" stroke="none" stroke-width="0" opacity="0.95"/><circle cx="343.0" cy="238.0" r="15.0" fill="#0c2020" stroke="none" stroke-width="6.3" opacity="1.0"/><path d="M333.7,235.0 L335.4,235.0 L337.1,235.0 L338.8,235.0 L340.5,235.0 L342.2,235.0 L343.8,235.0 L345.5,235.0 L347.2,235.0 L348.9,235.0 L350.6,235.0 L352.3,235.0" fill="none" stroke="#a7f3ee" stroke-width="5" stroke-linecap="round" stroke-linejoin="round" opacity="1.0"/></g><g class="f9"><path d="M314.9,240.0 L317.7,243.5 L320.5,247.0 L323.2,250.5 L326.0,254.0 L327.2,257.1 L323.1,258.9 L319.1,260.7 L315.1,262.6 L311.1,264.4 L307.0,266.2 L303.0,268.0" fill="none" stroke="#f43f5e" stroke-width="21" stroke-linecap="round" stroke-linejoin="round" opacity="0.95"/><path d="M314.9,240.0 L317.7,243.5 L320.5,247.0 L323.2,250.5 L326.0,254.0 L327.2,257.1 L323.1,258.9 L319.1,260.7 L315.1,262.6 L311.1,264.4 L307.0,266.2 L303.0,268.0" fill="none" stroke="#0c2020" stroke-width="13" stroke-linecap="round" stroke-linejoin="round" opacity="1.0"/><path d="M215.0,244.6 L204.6,247.7 L194.1,250.8 L183.7,253.9 L173.3,257.0 L162.9,260.1 L152.7,264.0 L142.8,268.4 L132.8,272.8 L122.9,277.2 L112.9,281.6 L103.0,286.0" fill="none" stroke="#2dd4bf" stroke-width="21" stroke-linecap="round" stroke-linejoin="round" opacity="0.95"/><path d="M215.0,244.6 L204.6,247.7 L194.1,250.8 L183.7,253.9 L173.3,257.0 L162.9,260.1 L152.7,264.0 L142.8,268.4 L132.8,272.8 L122.9,277.2 L112.9,281.6 L103.0,286.0" fill="none" stroke="#0c2020" stroke-width="13" stroke-linecap="round" stroke-linejoin="round" opacity="1.0"/><path d="M314.9,240.0 L305.8,240.4 L296.7,240.9 L287.7,241.3 L278.6,241.7 L269.5,242.1 L260.4,242.5 L251.3,243.0 L242.2,243.4 L233.2,243.8 L224.1,244.2 L215.0,244.6" fill="none" stroke="#2dd4bf" stroke-width="25" stroke-linecap="round" stroke-linejoin="round" opacity="0.95"/><path d="M314.9,240.0 L305.8,240.4 L296.7,240.9 L287.7,241.3 L278.6,241.7 L269.5,242.1 L260.4,242.5 L251.3,243.0 L242.2,243.4 L233.2,243.8 L224.1,244.2 L215.0,244.6" fill="none" stroke="#0c2020" stroke-width="17" stroke-linecap="round" stroke-linejoin="round" opacity="1.0"/><circle cx="342.9" cy="235.9" r="19.0" fill="#2dd4bf" stroke="none" stroke-width="0" opacity="0.95"/><circle cx="342.9" cy="235.9" r="15.0" fill="#0c2020" stroke="none" stroke-width="6.3" opacity="1.0"/><path d="M333.6,232.9 L335.3,232.9 L337.0,232.9 L338.7,232.9 L340.4,232.9 L342.1,232.9 L343.8,232.9 L345.5,232.9 L347.1,232.9 L348.8,232.9 L350.5,232.9 L352.2,232.9" fill="none" stroke="#a7f3ee" stroke-width="5" stroke-linecap="round" stroke-linejoin="round" opacity="1.0"/></g><g class="f10"><path d="M314.7,234.8 L317.0,238.7 L319.4,242.5 L321.7,246.4 L324.0,250.2 L325.0,253.7 L321.3,256.1 L317.6,258.5 L314.0,260.9 L310.3,263.2 L306.7,265.6 L303.0,268.0" fill="none" stroke="#f43f5e" stroke-width="21" stroke-linecap="round" stroke-linejoin="round" opacity="0.95"/><path d="M314.7,234.8 L317.0,238.7 L319.4,242.5 L321.7,246.4 L324.0,250.2 L325.0,253.7 L321.3,256.1 L317.6,258.5 L314.0,260.9 L310.3,263.2 L306.7,265.6 L303.0,268.0" fill="none" stroke="#0c2020" stroke-width="13" stroke-linecap="round" stroke-linejoin="round" opacity="1.0"/><path d="M215.0,241.0 L204.5,244.4 L194.1,247.8 L183.6,251.2 L173.2,254.6 L162.7,258.0 L152.6,262.3 L142.7,267.0 L132.8,271.8 L122.8,276.5 L112.9,281.3 L103.0,286.0" fill="none" stroke="#2dd4bf" stroke-width="21" stroke-linecap="round" stroke-linejoin="round" opacity="0.95"/><path d="M215.0,241.0 L204.5,244.4 L194.1,247.8 L183.6,251.2 L173.2,254.6 L162.7,258.0 L152.6,262.3 L142.7,267.0 L132.8,271.8 L122.8,276.5 L112.9,281.3 L103.0,286.0" fill="none" stroke="#0c2020" stroke-width="13" stroke-linecap="round" stroke-linejoin="round" opacity="1.0"/><path d="M314.7,234.8 L305.6,235.4 L296.6,235.9 L287.5,236.5 L278.4,237.1 L269.4,237.6 L260.3,238.2 L251.2,238.8 L242.2,239.3 L233.1,239.9 L224.1,240.4 L215.0,241.0" fill="none" stroke="#2dd4bf" stroke-width="25" stroke-linecap="round" stroke-linejoin="round" opacity="0.95"/><path d="M314.7,234.8 L305.6,235.4 L296.6,235.9 L287.5,236.5 L278.4,237.1 L269.4,237.6 L260.3,238.2 L251.2,238.8 L242.2,239.3 L233.1,239.9 L224.1,240.4 L215.0,241.0" fill="none" stroke="#0c2020" stroke-width="17" stroke-linecap="round" stroke-linejoin="round" opacity="1.0"/><circle cx="342.7" cy="230.2" r="19.0" fill="#2dd4bf" stroke="none" stroke-width="0" opacity="0.95"/><circle cx="342.7" cy="230.2" r="15.0" fill="#0c2020" stroke="none" stroke-width="6.3" opacity="1.0"/><path d="M333.4,227.2 L335.1,227.2 L336.8,227.2 L338.5,227.2 L340.2,227.2 L341.8,227.2 L343.5,227.2 L345.2,227.2 L346.9,227.2 L348.6,227.2 L350.3,227.2 L352.0,227.2" fill="none" stroke="#a7f3ee" stroke-width="5" stroke-linecap="round" stroke-linejoin="round" opacity="1.0"/></g><g class="f11"><path d="M314.4,227.4 L316.1,231.8 L317.8,236.2 L319.5,240.5 L321.3,244.9 L321.8,249.0 L318.7,252.2 L315.5,255.3 L312.4,258.5 L309.3,261.7 L306.1,264.8 L303.0,268.0" fill="none" stroke="#f43f5e" stroke-width="21" stroke-linecap="round" stroke-linejoin="round" opacity="0.95"/><path d="M314.4,227.4 L316.1,231.8 L317.8,236.2 L319.5,240.5 L321.3,244.9 L321.8,249.0 L318.7,252.2 L315.5,255.3 L312.4,258.5 L309.3,261.7 L306.1,264.8 L303.0,268.0" fill="none" stroke="#0c2020" stroke-width="13" stroke-linecap="round" stroke-linejoin="round" opacity="1.0"/><path d="M215.0,235.9 L204.5,239.7 L194.0,243.6 L183.5,247.4 L173.0,251.3 L162.5,255.1 L152.4,259.9 L142.5,265.1 L132.6,270.3 L122.8,275.6 L112.9,280.8 L103.0,286.0" fill="none" stroke="#2dd4bf" stroke-width="21" stroke-linecap="round" stroke-linejoin="round" opacity="0.95"/><path d="M215.0,235.9 L204.5,239.7 L194.0,243.6 L183.5,247.4 L173.0,251.3 L162.5,255.1 L152.4,259.9 L142.5,265.1 L132.6,270.3 L122.8,275.6 L112.9,280.8 L103.0,286.0" fill="none" stroke="#0c2020" stroke-width="13" stroke-linecap="round" stroke-linejoin="round" opacity="1.0"/><path d="M314.4,227.4 L305.3,228.2 L296.3,229.0 L287.3,229.7 L278.2,230.5 L269.2,231.3 L260.2,232.0 L251.1,232.8 L242.1,233.6 L233.1,234.3 L224.0,235.1 L215.0,235.9" fill="none" stroke="#2dd4bf" stroke-width="25" stroke-linecap="round" stroke-linejoin="round" opacity="0.95"/><path d="M314.4,227.4 L305.3,228.2 L296.3,229.0 L287.3,229.7 L278.2,230.5 L269.2,231.3 L260.2,232.0 L251.1,232.8 L242.1,233.6 L233.1,234.3 L224.0,235.1 L215.0,235.9" fill="none" stroke="#0c2020" stroke-width="17" stroke-linecap="round" stroke-linejoin="round" opacity="1.0"/><circle cx="342.4" cy="222.2" r="19.0" fill="#2dd4bf" stroke="none" stroke-width="0" opacity="0.95"/><circle cx="342.4" cy="222.2" r="15.0" fill="#0c2020" stroke="none" stroke-width="6.3" opacity="1.0"/><path d="M333.1,219.2 L334.8,219.2 L336.4,219.2 L338.1,219.2 L339.8,219.2 L341.5,219.2 L343.2,219.2 L344.9,219.2 L346.6,219.2 L348.3,219.2 L350.0,219.2 L351.7,219.2" fill="none" stroke="#a7f3ee" stroke-width="5" stroke-linecap="round" stroke-linejoin="round" opacity="1.0"/></g><g class="f12"><path d="M314.0,219.0 L315.0,224.0 L316.0,228.9 L317.0,233.9 L318.1,238.8 L318.2,243.6 L315.7,247.6 L313.2,251.7 L310.6,255.8 L308.1,259.9 L305.5,263.9 L303.0,268.0" fill="none" stroke="#f43f5e" stroke-width="21" stroke-linecap="round" stroke-linejoin="round" opacity="0.95"/><path d="M314.0,219.0 L315.0,224.0 L316.0,228.9 L317.0,233.9 L318.1,238.8 L318.2,243.6 L315.7,247.6 L313.2,251.7 L310.6,255.8 L308.1,259.9 L305.5,263.9 L303.0,268.0" fill="none" stroke="#0c2020" stroke-width="13" stroke-linecap="round" stroke-linejoin="round" opacity="1.0"/><path d="M215.0,230.0 L204.4,234.4 L193.9,238.7 L183.3,243.1 L172.8,247.4 L162.2,251.8 L152.2,257.1 L142.3,262.9 L132.5,268.7 L122.7,274.4 L112.8,280.2 L103.0,286.0" fill="none" stroke="#2dd4bf" stroke-width="21" stroke-linecap="round" stroke-linejoin="round" opacity="0.95"/><path d="M215.0,230.0 L204.4,234.4 L193.9,238.7 L183.3,243.1 L172.8,247.4 L162.2,251.8 L152.2,257.1 L142.3,262.9 L132.5,268.7 L122.7,274.4 L112.8,280.2 L103.0,286.0" fill="none" stroke="#0c2020" stroke-width="13" stroke-linecap="round" stroke-linejoin="round" opacity="1.0"/><path d="M314.0,219.0 L305.0,220.0 L296.0,221.0 L287.0,222.0 L278.0,223.0 L269.0,224.0 L260.0,225.0 L251.0,226.0 L242.0,227.0 L233.0,228.0 L224.0,229.0 L215.0,230.0" fill="none" stroke="#2dd4bf" stroke-width="25" stroke-linecap="round" stroke-linejoin="round" opacity="0.95"/><path d="M314.0,219.0 L305.0,220.0 L296.0,221.0 L287.0,222.0 L278.0,223.0 L269.0,224.0 L260.0,225.0 L251.0,226.0 L242.0,227.0 L233.0,228.0 L224.0,229.0 L215.0,230.0" fill="none" stroke="#0c2020" stroke-width="17" stroke-linecap="round" stroke-linejoin="round" opacity="1.0"/><circle cx="342.0" cy="213.0" r="19.0" fill="#2dd4bf" stroke="none" stroke-width="0" opacity="0.95"/><circle cx="342.0" cy="213.0" r="15.0" fill="#0c2020" stroke="none" stroke-width="6.3" opacity="1.0"/><path d="M332.7,210.0 L334.4,210.0 L336.1,210.0 L337.8,210.0 L339.5,210.0 L341.2,210.0 L342.8,210.0 L344.5,210.0 L346.2,210.0 L347.9,210.0 L349.6,210.0 L351.3,210.0" fill="none" stroke="#a7f3ee" stroke-width="5" stroke-linecap="round" stroke-linejoin="round" opacity="1.0"/></g><g class="f13"><path d="M313.6,210.6 L313.9,216.1 L314.3,221.6 L314.6,227.2 L314.9,232.7 L314.6,238.1 L312.7,243.1 L310.8,248.1 L308.8,253.1 L306.9,258.0 L304.9,263.0 L303.0,268.0" fill="none" stroke="#f43f5e" stroke-width="21" stroke-linecap="round" stroke-linejoin="round" opacity="0.95"/><path d="M313.6,210.6 L313.9,216.1 L314.3,221.6 L314.6,227.2 L314.9,232.7 L314.6,238.1 L312.7,243.1 L310.8,248.1 L308.8,253.1 L306.9,258.0 L304.9,263.0 L303.0,268.0" fill="none" stroke="#0c2020" stroke-width="13" stroke-linecap="round" stroke-linejoin="round" opacity="1.0"/><path d="M215.0,224.1 L204.4,229.0 L193.8,233.8 L183.2,238.7 L172.6,243.6 L161.9,248.4 L151.9,254.4 L142.2,260.7 L132.4,267.0 L122.6,273.3 L112.8,279.7 L103.0,286.0" fill="none" stroke="#2dd4bf" stroke-width="21" stroke-linecap="round" stroke-linejoin="round" opacity="0.95"/><path d="M215.0,224.1 L204.4,229.0 L193.8,233.8 L183.2,238.7 L172.6,243.6 L161.9,248.4 L151.9,254.4 L142.2,260.7 L132.4,267.0 L122.6,273.3 L112.8,279.7 L103.0,286.0" fill="none" stroke="#0c2020" stroke-width="13" stroke-linecap="round" stroke-linejoin="round" opacity="1.0"/><path d="M313.6,210.6 L304.7,211.8 L295.7,213.0 L286.7,214.3 L277.8,215.5 L268.8,216.7 L259.8,218.0 L250.9,219.2 L241.9,220.4 L232.9,221.7 L224.0,222.9 L215.0,224.1" fill="none" stroke="#2dd4bf" stroke-width="25" stroke-linecap="round" stroke-linejoin="round" opacity="0.95"/><path d="M313.6,210.6 L304.7,211.8 L295.7,213.0 L286.7,214.3 L277.8,215.5 L268.8,216.7 L259.8,218.0 L250.9,219.2 L241.9,220.4 L232.9,221.7 L224.0,222.9 L215.0,224.1" fill="none" stroke="#0c2020" stroke-width="17" stroke-linecap="round" stroke-linejoin="round" opacity="1.0"/><circle cx="341.6" cy="203.8" r="19.0" fill="#2dd4bf" stroke="none" stroke-width="0" opacity="0.95"/><circle cx="341.6" cy="203.8" r="15.0" fill="#0c2020" stroke="none" stroke-width="6.3" opacity="1.0"/><path d="M332.3,200.8 L334.0,200.8 L335.7,200.8 L337.4,200.8 L339.1,200.8 L340.8,200.8 L342.5,200.8 L344.2,200.8 L345.9,200.8 L347.6,200.8 L349.2,200.8 L350.9,200.8" fill="none" stroke="#a7f3ee" stroke-width="5" stroke-linecap="round" stroke-linejoin="round" opacity="1.0"/></g><g class="f14"><path d="M313.3,203.2 L313.0,209.2 L312.7,215.3 L312.4,221.3 L312.1,227.4 L311.5,233.4 L310.1,239.1 L308.7,244.9 L307.3,250.7 L305.8,256.5 L304.4,262.2 L303.0,268.0" fill="none" stroke="#f43f5e" stroke-width="21" stroke-linecap="round" stroke-linejoin="round" opacity="0.95"/><path d="M313.3,203.2 L313.0,209.2 L312.7,215.3 L312.4,221.3 L312.1,227.4 L311.5,233.4 L310.1,239.1 L308.7,244.9 L307.3,250.7 L305.8,256.5 L304.4,262.2 L303.0,268.0" fill="none" stroke="#0c2020" stroke-width="13" stroke-linecap="round" stroke-linejoin="round" opacity="1.0"/><path d="M215.0,219.0 L204.3,224.3 L193.7,229.6 L183.0,234.9 L172.4,240.2 L161.7,245.5 L151.7,251.9 L142.0,258.8 L132.2,265.6 L122.5,272.4 L112.7,279.2 L103.0,286.0" fill="none" stroke="#2dd4bf" stroke-width="21" stroke-linecap="round" stroke-linejoin="round" opacity="0.95"/><path d="M215.0,219.0 L204.3,224.3 L193.7,229.6 L183.0,234.9 L172.4,240.2 L161.7,245.5 L151.7,251.9 L142.0,258.8 L132.2,265.6 L122.5,272.4 L112.7,279.2 L103.0,286.0" fill="none" stroke="#0c2020" stroke-width="13" stroke-linecap="round" stroke-linejoin="round" opacity="1.0"/><path d="M313.3,203.2 L304.4,204.6 L295.4,206.1 L286.5,207.5 L277.6,208.9 L268.6,210.4 L259.7,211.8 L250.8,213.2 L241.8,214.7 L232.9,216.1 L223.9,217.6 L215.0,219.0" fill="none" stroke="#2dd4bf" stroke-width="25" stroke-linecap="round" stroke-linejoin="round" opacity="0.95"/><path d="M313.3,203.2 L304.4,204.6 L295.4,206.1 L286.5,207.5 L277.6,208.9 L268.6,210.4 L259.7,211.8 L250.8,213.2 L241.8,214.7 L232.9,216.1 L223.9,217.6 L215.0,219.0" fill="none" stroke="#0c2020" stroke-width="17" stroke-linecap="round" stroke-linejoin="round" opacity="1.0"/><circle cx="341.3" cy="195.8" r="19.0" fill="#2dd4bf" stroke="none" stroke-width="0" opacity="0.95"/><circle cx="341.3" cy="195.8" r="15.0" fill="#0c2020" stroke="none" stroke-width="6.3" opacity="1.0"/><path d="M332.0,192.8 L333.7,192.8 L335.4,192.8 L337.1,192.8 L338.8,192.8 L340.5,192.8 L342.2,192.8 L343.8,192.8 L345.5,192.8 L347.2,192.8 L348.9,192.8 L350.6,192.8" fill="none" stroke="#a7f3ee" stroke-width="5" stroke-linecap="round" stroke-linejoin="round" opacity="1.0"/></g><g class="f15"><path d="M313.1,198.0 L312.3,204.4 L311.6,210.8 L310.9,217.2 L310.1,223.6 L309.3,230.0 L308.2,236.3 L307.2,242.7 L306.1,249.0 L305.1,255.3 L304.0,261.7 L303.0,268.0" fill="none" stroke="#f43f5e" stroke-width="21" stroke-linecap="round" stroke-linejoin="round" opacity="0.95"/><path d="M313.1,198.0 L312.3,204.4 L311.6,210.8 L310.9,217.2 L310.1,223.6 L309.3,230.0 L308.2,236.3 L307.2,242.7 L306.1,249.0 L305.1,255.3 L304.0,261.7 L303.0,268.0" fill="none" stroke="#0c2020" stroke-width="13" stroke-linecap="round" stroke-linejoin="round" opacity="1.0"/><path d="M215.0,215.4 L204.3,221.0 L193.6,226.6 L182.9,232.2 L172.2,237.8 L161.6,243.4 L151.6,250.2 L141.9,257.4 L132.2,264.5 L122.4,271.7 L112.7,278.8 L103.0,286.0" fill="none" stroke="#2dd4bf" stroke-width="21" stroke-linecap="round" stroke-linejoin="round" opacity="0.95"/><path d="M215.0,215.4 L204.3,221.0 L193.6,226.6 L182.9,232.2 L172.2,237.8 L161.6,243.4 L151.6,250.2 L141.9,257.4 L132.2,264.5 L122.4,271.7 L112.7,278.8 L103.0,286.0" fill="none" stroke="#0c2020" stroke-width="13" stroke-linecap="round" stroke-linejoin="round" opacity="1.0"/><path d="M313.1,198.0 L304.2,199.6 L295.3,201.1 L286.3,202.7 L277.4,204.3 L268.5,205.9 L259.6,207.5 L250.7,209.0 L241.8,210.6 L232.8,212.2 L223.9,213.8 L215.0,215.4" fill="none" stroke="#2dd4bf" stroke-width="25" stroke-linecap="round" stroke-linejoin="round" opacity="0.95"/><path d="M313.1,198.0 L304.2,199.6 L295.3,201.1 L286.3,202.7 L277.4,204.3 L268.5,205.9 L259.6,207.5 L250.7,209.0 L241.8,210.6 L232.8,212.2 L223.9,213.8 L215.0,215.4" fill="none" stroke="#0c2020" stroke-width="17" stroke-linecap="round" stroke-linejoin="round" opacity="1.0"/><circle cx="341.1" cy="190.1" r="19.0" fill="#2dd4bf" stroke="none" stroke-width="0" opacity="0.95"/><circle cx="341.1" cy="190.1" r="15.0" fill="#0c2020" stroke="none" stroke-width="6.3" opacity="1.0"/><path d="M331.8,187.1 L333.5,187.1 L335.2,187.1 L336.9,187.1 L338.5,187.1 L340.2,187.1 L341.9,187.1 L343.6,187.1 L345.3,187.1 L347.0,187.1 L348.7,187.1 L350.4,187.1" fill="none" stroke="#a7f3ee" stroke-width="5" stroke-linecap="round" stroke-linejoin="round" opacity="1.0"/></g></svg>
