<svg xmlns="http://www.w3.org/2000/svg" viewBox="0 0 480 320"><style>@keyframes k0{0%{opacity:1}11.111%{opacity:0}100%{opacity:0}}.f0{opacity:0;animation:k0 2.4s steps(1,end) infinite}@keyframes k1{0%{opacity:0}11.111%{opacity:1}16.667%{opacity:0}100%{opacity:0}}.f1{opacity:0;animation:k1 2.4s steps(1,end) infinite}@keyframes k2{0%{opacity:0}16.667%{opacity:1}22.222%{opacity:0}100%{opacity:0}}.f2{opacity:0;animation:k2 2.4s steps(1,end) infinite}@keyframes k3{0%{opacity:0}22.222%{opacity:1}27.778%{opacity:0}100%{opacity:0}}.f3{opacity:0;animation:k3 2.4s steps(1,end) infinite}@keyframes k4{0%{opacity:0}27.778%{opacity:1}33.333%{opacity:0}100%{opacity:0}}.f4{opacity:0;animation:k4 2.4s steps(1,end) infinite}@keyframes k5{0%{opacity:0}33.333%{opacity:1}38.889%{opacity:0}100%{opacity:0}}.f5{opacity:0;animation:k5 2.4s steps(1,end) infinite}@keyframes k6{0%{opacity:0}38.889%{opacity:1}44.444%{opacity:0}100%{opacity:0}}.f6{opacity:0;animation:k6 2.4s steps(1,end) infinite}@keyframes k7{0%{opacity:0}44.444%{opacity:1}50.000%{opacity:0}100%{opacity:0}}.f7{opacity:0;animation:k7 2.4s steps(1,end) infinite}@keyframes k8{0%{opacity:0}50.000%{opacity:1}61.111%{opacity:0}100%{opacity:0}}.f8{opacity:0;animation:k8 2.4s steps(1,end) infinite}@keyframes k9{0%{opacity:0}61.111%{opacity:1}66.667%{opacity:0}100%{opacity:0}}.f9{opacity:0;animation:k9 2.4s steps(1,end) infinite}@keyframes k10{0%{opacity:0}66.667%{opacity:1}72.222%{opacity:0}100%{opacity:0}}.f10{opacity:0;animation:k10 2.4s steps(1,end) infinite}@keyframes k11{0%{opacity:0}72.222%{opacity:1}77.778%{opacity:0}100%{opacity:0}}.f11{opacity:0;animation:k11 2.4s steps(1,end) infinite}@keyframes k12{0%{opacity:0}77.778%{opacity:1}83.333%{opacity:0}100%{opacity:0}}.f12{opacity:0;animation:k12 2.4s steps(1,end) infinite}@keyframes k13{0%{opacity:0}83.333%{opacity:1}88.889%{opacity:0}100%{opacity:0}}.f13{opacity:0;animation:k13 2.4s steps(1,end) infinite}@keyframes k14{0%{opacity:0}88.889%{opacity:1}94.444%{opacity:0}100%{opacity:0}}.f14{opacity:0;animation:k14 2.4s steps(1,end) infinite}@keyframes k15{0%{opacity:0}94.444%{opacity:1}100%{opacity:1}}.f15{opacity:0;animation:k15 2.4s steps(1,end) infinite}</style><path d="M206.0,0.0 L206.0,162.0" fill="none" stroke="#fbbf24" stroke-width="4" stroke-linecap="round" stroke-linejoin="round" opacity="1.0"/><circle cx="206.0" cy="172.0" r="10.0" fill="none" stroke="#fbbf24" stroke-width="5" opacity="1.0"/><path d="M274.0,0.0 L274.0,162.0" fill="none" stroke="#fbbf24" stroke-width="4" stroke-linecap="round" stroke-linejoin="round" opacity="1.0"/><circle cx="274.0" cy="172.0" r="10.0" fill="none" stroke="#fbbf24" stroke-width="5" opacity="1.0"/><g class="f0"><path d="M240.0,128.0 L235.6,131.2 L231.3,134.4 L226.9,137.6 L222.5,140.8 L218.2,144.0 L213.8,147.2 L209.9,150.7 L208.9,156.0 L207.9,161.3 L207.0,166.7 L206.0,172.0" fill="none" stroke="#8f2a3e" stroke-width="19" stroke-linecap="round" stroke-linejoin="round" opacity="0.95"/><path d="M240.0,128.0 L235.6,131.2 L231.3,134.4 L226.9,137.6 L222.5,140.8 L218.2,144.0 L213.8,147.2 L209.9,150.7 L208.9,156.0 L207.9,161.3 L207.0,166.7 L206.0,172.0" fill="none" stroke="#0c2020" stroke-width="11" stroke-linecap="round" stroke-linejoin="round" opacity="1.0"/><path d="M240.0,128.0 L244.4,131.2 L248.7,134.4 L253.1,137.6 L257.5,140.8 L261.8,144.0 L266.2,147.2 L270.1,150.7 L271.1,156.0 L272.1,161.3 L273.0,166.7 L274.0,172.0" fill="none" stroke="#f43f5e" stroke-width="19" stroke-linecap="round" stroke-linejoin="round" opacity="0.95"/><path d="M240.0,128.0 L244.4,131.2 L248.7,134.4 L253.1,137.6 L257.5,140.8 L261.8,144.0 L266.2,147.2 L270.1,150.7 L271.1,156.0 L272.1,161.3 L273.0,166.7 L274.0,172.0" fill="none" stroke="#0c2020" stroke-width="11" stroke-linecap="round" stroke-linejoin="round" opacity="1.0"/><path d="M240.0,206.0 L238.8,212.4 L237.6,218.8 L236.3,225.3 L235.1,231.7 L233.9,238.1 L232.7,244.5 L231.2,250.9 L229.4,257.2 L227.6,263.4 L225.8,269.7 L224.0,276.0" fill="none" stroke="#0d9488" stroke-width="19" stroke-linecap="round" stroke-linejoin="round" opacity="0.95"/><path d="M240.0,206.0 L238.8,212.4 L237.6,218.8 L236.3,225.3 L235.1,231.7 L233.9,238.1 L232.7,244.5 L231.2,250.9 L229.4,257.2 L227.6,263.4 L225.8,269.7 L224.0,276.0" fill="none" stroke="#0c2020" stroke-width="11" stroke-linecap="round" stroke-linejoin="round" opacity="1.0"/><path d="M240.0,206.0 L241.2,212.4 L242.4,218.8 L243.6,225.1 L244.9,231.5 L246.1,237.9 L247.3,244.3 L247.4,250.6 L246.1,257.0 L244.7,263.3 L243.4,269.7 L242.0,276.0" fill="none" stroke="#2dd4bf" stroke-width="19" stroke-linecap="round" stroke-linejoin="round" opacity="0.95"/><path d="M240.0,206.0 L241.2,212.4 L242.4,218.8 L243.6,225.1 L244.9,231.5 L246.1,237.9 L247.3,244.3 L247.4,250.6 L246.1,257.0 L244.7,263.3 L243.4,269.7 L242.0,276.0" fill="none" stroke="#0c2020" stroke-width="11" stroke-linecap="round" stroke-linejoin="round" opacity="1.0"/><path d="M240.0,128.0 L240.0,135.1 L240.0,142.2 L240.0,149.3 L240.0,156.4 L240.0,163.5 L240.0,170.5 L240.0,177.6 L240.0,184.7 L240.0,191.8 L240.0,198.9 L240.0,206.0" fill="none" stroke="#2dd4bf" stroke-width="23" stroke-linecap="round" stroke-linejoin="round" opacity="0.95"/><path d="M240.0,128.0 L240.0,135.1 L240.0,142.2 L240.0,149.3 L240.0,156.4 L240.0,163.5 L240.0,170.5 L240.0,177.6 L240.0,184.7 L240.0,191.8 L240.0,198.9 L240.0,206.0" fill="none" stroke="#0c2020" stroke-width="15" stroke-linecap="round" stroke-linejoin="round" opacity="1.0"/><circle cx="240.0" cy="100.0" r="19.0" fill="#2dd4bf" stroke="none" stroke-width="0" opacity="0.95"/><circle cx="240.0" cy="100.0" r="15.0" fill="#0c2020" stroke="none" stroke-width="6.3" opacity="1.0"/><path d="M238.0,83.0 L235.0,86.0 L232.0,89.0 L229.1,91.9 L226.1,94.9 L223.1,97.9 L220.1,100.9 L219.5,104.5 L220.4,108.6 L221.3,112.8 L222.1,116.9 L223.0,121.0" fill="none" stroke="#2dd4bf" stroke-width="5" stroke-linecap="round" stroke-linejoin="round" opacity="1.0"/><path d="M230.7,97.0 L232.4,97.0 L234.1,97.0 L235.8,97.0 L237.5,97.0 L239.2,97.0 L240.8,97.0 L242.5,97.0 L244.2,97.0 L245.9,97.0 L247.6,97.0 L249.3,97.0" fill="none" stroke="#a7f3ee" stroke-width="5" stroke-linecap="round" stroke-linejoin="round" opacity="1.0"/></g><g class="f1"><path d="M240.0,129.2 L235.7,132.3 L231.3,135.4 L227.0,138.6 L222.6,141.7 L218.3,144.8 L213.9,147.9 L210.0,151.3 L208.9,156.4 L207.8,161.6 L206.8,166.8 L206.0,172.0" fill="none" stroke="#8f2a3e" stroke-width="19" stroke-linecap="round" stroke-linejoin="round" opacity="0.95"/><path d="M240.0,129.2 L235.7,132.3 L231.3,135.4 L227.0,138.6 L222.6,141.7 L218.3,144.8 L213.9,147.9 L210.0,151.3 L208.9,156.4 L207.8,161.6 L206.8,166.8 L206.0,172.0" fill="none" stroke="#0c2020" stroke-width="11" stroke-linecap="round" stroke-linejoin="round" opacity="1.0"/><path d="M240.0,129.2 L244.3,132.3 L248.7,135.4 L253.0,138.6 L257.4,141.7 L261.7,144.8 L266.1,147.9 L270.0,151.3 L271.1,156.4 L272.2,161.6 L273.2,166.8 L274.0,172.0" fill="none" stroke="#f43f5e" stroke-width="19" stroke-linecap="round" stroke-linejoin="round" opacity="0.95"/><path d="M240.0,129.2 L244.3,132.3 L248.7,135.4 L253.0,138.6 L257.4,141.7 L261.7,144.8 L266.1,147.9 L270.0,151.3 L271.1,156.4 L272.2,161.6 L273.2,166.8 L274.0,172.0" fill="none" stroke="#0c2020" stroke-width="11" stroke-linecap="round" stroke-linejoin="round" opacity="1.0"/><path d="M240.0,206.9 L238.8,213.3 L237.5,219.6 L236.3,225.9 L235.0,232.3 L233.8,238.6 L232.6,244.9 L231.1,251.2 L229.3,257.4 L227.5,263.6 L225.8,269.8 L224.0,276.0" fill="none" stroke="#0d9488" stroke-width="19" stroke-linecap="round" stroke-linejoin="round" opacity="0.95"/><path d="M240.0,206.9 L238.8,213.3 L237.5,219.6 L236.3,225.9 L235.0,232.3 L233.8,238.6 L232.6,244.9 L231.1,251.2 L229.3,257.4 L227.5,263.6 L225.8,269.8 L224.0,276.0" fill="none" stroke="#0c2020" stroke-width="11" stroke-linecap="round" stroke-linejoin="round" opacity="1.0"/><path d="M240.0,206.9 L241.2,213.2 L242.5,219.5 L243.7,225.8 L244.9,232.1 L246.1,238.4 L247.3,244.7 L247.4,250.9 L246.0,257.2 L244.7,263.5 L243.3,269.7 L242.0,276.0" fill="none" stroke="#2dd4bf" stroke-width="19" stroke-linecap="round" stroke-linejoin="round" opacity="0.95"/><path d="M240.0,206.9 L241.2,213.2 L242.5,219.5 L243.7,225.8 L244.9,232.1 L246.1,238.4 L247.3,244.7 L247.4,250.9 L246.0,257.2 L244.7,263.5 L243.3,269.7 L242.0,276.0" fill="none" stroke="#0c2020" stroke-width="11" stroke-linecap="round" stroke-linejoin="round" opacity="1.0"/><path d="M240.0,129.2 L240.0,136.3 L240.0,143.3 L240.0,150.4 L240.0,157.5 L240.0,164.5 L240.0,171.6 L240.0,178.7 L240.0,185.7 L240.0,192.8 L240.0,199.9 L240.0,206.9" fill="none" stroke="#2dd4bf" stroke-width="23" stroke-linecap="round" stroke-linejoin="round" opacity="0.95"/><path d="M240.0,129.2 L240.0,136.3 L240.0,143.3 L240.0,150.4 L240.0,157.5 L240.0,164.5 L240.0,171.6 L240.0,178.7 L240.0,185.7 L240.0,192.8 L240.0,199.9 L240.0,206.9" fill="none" stroke="#0c2020" stroke-width="15" stroke-linecap="round" stroke-linejoin="round" opacity="1.0"/><circle cx="240.0" cy="101.2" r="19.0" fill="#2dd4bf" stroke="none" stroke-width="0" opacity="0.95"/><circle cx="240.0" cy="101.2" r="15.0" fill="#0c2020" stroke="none" stroke-width="6.3" opacity="1.0"/><path d="M238.0,84.2 L235.0,87.2 L232.0,90.2 L229.1,93.1 L226.1,96.1 L223.1,99.1 L220.1,102.1 L219.5,105.7 L220.4,109.9 L221.3,114.0 L222.1,118.1 L223.0,122.2" fill="none" stroke="#2dd4bf" stroke-width="5" stroke-linecap="round" stroke-linejoin="round" opacity="1.0"/><path d="M230.7,98.2 L232.4,98.2 L234.1,98.2 L235.8,98.2 L237.5,98.2 L239.2,98.2 L240.8,98.2 L242.5,98.2 L244.2,98.2 L245.9,98.2 L247.6,98.2 L249.3,98.2" fill="none" stroke="#a7f3ee" stroke-width="5" stroke-linecap="round" stroke-linejoin="round" opacity="1.0"/></g><g class="f2"><path d="M240.0,132.4 L235.7,135.3 L231.4,138.2 L227.1,141.1 L222.8,144.0 L218.5,146.9 L214.2,149.8 L210.3,152.9 L208.8,157.6 L207.4,162.3 L206.4,167.0 L206.0,172.0" fill="none" stroke="#8f2a3e" stroke-width="19" stroke-linecap="round" stroke-linejoin="round" opacity="0.95"/><path d="M240.0,132.4 L235.7,135.3 L231.4,138.2 L227.1,141.1 L222.8,144.0 L218.5,146.9 L214.2,149.8 L210.3,152.9 L208.8,157.6 L207.4,162.3 L206.4,167.0 L206.0,172.0" fill="none" stroke="#0c2020" stroke-width="11" stroke-linecap="round" stroke-linejoin="round" opacity="1.0"/><path d="M240.0,132.4 L244.3,135.3 L248.6,138.2 L252.9,141.1 L257.2,144.0 L261.5,146.9 L265.8,149.8 L269.7,152.9 L271.2,157.6 L272.6,162.3 L273.6,167.0 L274.0,172.0" fill="none" stroke="#f43f5e" stroke-width="19" stroke-linecap="round" stroke-linejoin="round" opacity="0.95"/><path d="M240.0,132.4 L244.3,135.3 L248.6,138.2 L252.9,141.1 L257.2,144.0 L261.5,146.9 L265.8,149.8 L269.7,152.9 L271.2,157.6 L272.6,162.3 L273.6,167.0 L274.0,172.0" fill="none" stroke="#0c2020" stroke-width="11" stroke-linecap="round" stroke-linejoin="round" opacity="1.0"/><path d="M240.0,209.4 L238.7,215.5 L237.4,221.6 L236.1,227.7 L234.8,233.8 L233.5,239.9 L232.3,246.0 L230.8,252.0 L229.1,258.0 L227.4,264.0 L225.7,270.0 L224.0,276.0" fill="none" stroke="#0d9488" stroke-width="19" stroke-linecap="round" stroke-linejoin="round" opacity="0.95"/><path d="M240.0,209.4 L238.7,215.5 L237.4,221.6 L236.1,227.7 L234.8,233.8 L233.5,239.9 L232.3,246.0 L230.8,252.0 L229.1,258.0 L227.4,264.0 L225.7,270.0 L224.0,276.0" fill="none" stroke="#0c2020" stroke-width="11" stroke-linecap="round" stroke-linejoin="round" opacity="1.0"/><path d="M240.0,209.4 L241.3,215.5 L242.6,221.5 L243.9,227.6 L245.2,233.6 L246.3,239.7 L247.2,245.7 L247.2,251.8 L245.9,257.8 L244.6,263.9 L243.3,269.9 L242.0,276.0" fill="none" stroke="#2dd4bf" stroke-width="19" stroke-linecap="round" stroke-linejoin="round" opacity="0.95"/><path d="M240.0,209.4 L241.3,215.5 L242.6,221.5 L243.9,227.6 L245.2,233.6 L246.3,239.7 L247.2,245.7 L247.2,251.8 L245.9,257.8 L244.6,263.9 L243.3,269.9 L242.0,276.0" fill="none" stroke="#0c2020" stroke-width="11" stroke-linecap="round" stroke-linejoin="round" opacity="1.0"/><path d="M240.0,132.4 L240.0,139.4 L240.0,146.4 L240.0,153.4 L240.0,160.4 L240.0,167.4 L240.0,174.4 L240.0,181.4 L240.0,188.4 L240.0,195.4 L240.0,202.4 L240.0,209.4" fill="none" stroke="#2dd4bf" stroke-width="23" stroke-linecap="round" stroke-linejoin="round" opacity="0.95"/><path d="M240.0,132.4 L240.0,139.4 L240.0,146.4 L240.0,153.4 L240.0,160.4 L240.0,167.4 L240.0,174.4 L240.0,181.4 L240.0,188.4 L240.0,195.4 L240.0,202.4 L240.0,209.4" fill="none" stroke="#0c2020" stroke-width="15" stroke-linecap="round" stroke-linejoin="round" opacity="1.0"/><circle cx="240.0" cy="104.4" r="19.0" fill="#2dd4bf" stroke="none" stroke-width="0" opacity="0.95"/><circle cx="240.0" cy="104.4" r="15.0" fill="#0c2020" stroke="none" stroke-width="6.3" opacity="1.0"/><path d="M238.0,87.4 L235.0,90.4 L232.0,93.3 L229.1,96.3 L226.1,99.3 L223.1,102.3 L220.1,105.2 L219.5,108.9 L220.4,113.0 L221.3,117.1 L222.1,121.3 L223.0,125.4" fill="none" stroke="#2dd4bf" stroke-width="5" stroke-linecap="round" stroke-linejoin="round" opacity="1.0"/><path d="M230.7,101.4 L232.4,101.4 L234.1,101.4 L235.8,101.4 L237.5,101.4 L239.2,101.4 L240.8,101.4 L242.5,101.4 L244.2,101.4 L245.9,101.4 L247.6,101.4 L249.3,101.4" fill="none" stroke="#a7f3ee" stroke-width="5" stroke-linecap="round" stroke-linejoin="round" opacity="1.0"/></g><g class="f3"><path d="M240.0,136.9 L235.8,139.4 L231.5,142.0 L227.3,144.6 L223.1,147.2 L218.8,149.8 L214.6,152.4 L210.7,155.1 L208.8,159.2 L206.8,163.2 L205.7,167.4 L206.0,172.0" fill="none" stroke="#8f2a3e" stroke-width="19" stroke-linecap="round" stroke-linejoin="round" opacity="0.95"/><path d="M240.0,136.9 L235.8,139.4 L231.5,142.0 L227.3,144.6 L223.1,147.2 L218.8,149.8 L214.6,152.4 L210.7,155.1 L208.8,159.2 L206.8,163.2 L205.7,167.4 L206.0,172.0" fill="none" stroke="#0c2020" stroke-width="11" stroke-linecap="round" stroke-linejoin="round" opacity="1.0"/><path d="M240.0,136.9 L244.2,139.4 L248.5,142.0 L252.7,144.6 L256.9,147.2 L261.2,149.8 L265.4,152.4 L269.3,155.1 L271.2,159.2 L273.2,163.2 L274.3,167.4 L274.0,172.0" fill="none" stroke="#f43f5e" stroke-width="19" stroke-linecap="round" stroke-linejoin="round" opacity="0.95"/><path d="M240.0,136.9 L244.2,139.4 L248.5,142.0 L252.7,144.6 L256.9,147.2 L261.2,149.8 L265.4,152.4 L269.3,155.1 L271.2,159.2 L273.2,163.2 L274.3,167.4 L274.0,172.0" fill="none" stroke="#0c2020" stroke-width="11" stroke-linecap="round" stroke-linejoin="round" opacity="1.0"/><path d="M240.0,213.0 L238.6,218.7 L237.2,224.4 L235.9,230.2 L234.5,235.9 L233.2,241.7 L231.9,247.5 L230.5,253.2 L228.9,258.9 L227.3,264.6 L225.6,270.3 L224.0,276.0" fill="none" stroke="#0d9488" stroke-width="19" stroke-linecap="round" stroke-linejoin="round" opacity="0.95"/><path d="M240.0,213.0 L238.6,218.7 L237.2,224.4 L235.9,230.2 L234.5,235.9 L233.2,241.7 L231.9,247.5 L230.5,253.2 L228.9,258.9 L227.3,264.6 L225.6,270.3 L224.0,276.0" fill="none" stroke="#0c2020" stroke-width="11" stroke-linecap="round" stroke-linejoin="round" opacity="1.0"/><path d="M240.0,213.0 L241.4,218.7 L242.7,224.4 L244.1,230.1 L245.5,235.8 L246.6,241.5 L247.1,247.2 L246.9,253.0 L245.7,258.8 L244.5,264.5 L243.2,270.3 L242.0,276.0" fill="none" stroke="#2dd4bf" stroke-width="19" stroke-linecap="round" stroke-linejoin="round" opacity="0.95"/><path d="M240.0,213.0 L241.4,218.7 L242.7,224.4 L244.1,230.1 L245.5,235.8 L246.6,241.5 L247.1,247.2 L246.9,253.0 L245.7,258.8 L244.5,264.5 L243.2,270.3 L242.0,276.0" fill="none" stroke="#0c2020" stroke-width="11" stroke-linecap="round" stroke-linejoin="round" opacity="1.0"/><path d="M240.0,136.9 L240.0,143.8 L240.0,150.7 L240.0,157.6 L240.0,164.5 L240.0,171.5 L240.0,178.4 L240.0,185.3 L240.0,192.2 L240.0,199.1 L240.0,206.0 L240.0,213.0" fill="none" stroke="#2dd4bf" stroke-width="23" stroke-linecap="round" stroke-linejoin="round" opacity="0.95"/><path d="M240.0,136.9 L240.0,143.8 L240.0,150.7 L240.0,157.6 L240.0,164.5 L240.0,171.5 L240.0,178.4 L240.0,185.3 L240.0,192.2 L240.0,199.1 L240.0,206.0 L240.0,213.0" fill="none" stroke="#0c2020" stroke-width="15" stroke-linecap="round" stroke-linejoin="round" opacity="1.0"/><circle cx="240.0" cy="108.9" r="19.0" fill="#2dd4bf" stroke="none" stroke-width="0" opacity="0.95"/><circle cx="240.0" cy="108.9" r="15.0" fill="#0c2020" stroke="none" stroke-width="6.3" opacity="1.0"/><path d="M238.0,91.9 L235.0,94.8 L232.0,97.8 L229.1,100.8 L226.1,103.8 L223.1,106.7 L220.1,109.7 L219.5,113.4 L220.4,117.5 L221.3,121.6 L222.1,125.7 L223.0,129.9" fill="none" stroke="#2dd4bf" stroke-width="5" stroke-linecap="round" stroke-linejoin="round" opacity="1.0"/><path d="M230.7,105.9 L232.4,105.9 L234.1,105.9 L235.8,105.9 L237.5,105.9 L239.2,105.9 L240.8,105.9 L242.5,105.9 L244.2,105.9 L245.9,105.9 L247.6,105.9 L249.3,105.9" fill="none" stroke="#a7f3ee" stroke-width="5" stroke-linecap="round" stroke-linejoin="round" opacity="1.0"/></g><g class="f4"><path d="M240.0,142.0 L235.8,144.2 L231.7,146.4 L227.5,148.7 L223.4,150.9 L219.2,153.1 L215.1,155.3 L211.1,157.7 L208.7,161.0 L206.2,164.3 L205.0,167.9 L206.0,172.0" fill="none" stroke="#8f2a3e" stroke-width="19" stroke-linecap="round" stroke-linejoin="round" opacity="0.95"/><path d="M240.0,142.0 L235.8,144.2 L231.7,146.4 L227.5,148.7 L223.4,150.9 L219.2,153.1 L215.1,155.3 L211.1,157.7 L208.7,161.0 L206.2,164.3 L205.0,167.9 L206.0,172.0" fill="none" stroke="#0c2020" stroke-width="11" stroke-linecap="round" stroke-linejoin="round" opacity="1.0"/><path d="M240.0,142.0 L244.2,144.2 L248.3,146.4 L252.5,148.7 L256.6,150.9 L260.8,153.1 L264.9,155.3 L268.9,157.7 L271.3,161.0 L273.8,164.3 L275.0,167.9 L274.0,172.0" fill="none" stroke="#f43f5e" stroke-width="19" stroke-linecap="round" stroke-linejoin="round" opacity="0.95"/><path d="M240.0,142.0 L244.2,144.2 L248.3,146.4 L252.5,148.7 L256.6,150.9 L260.8,153.1 L264.9,155.3 L268.9,157.7 L271.3,161.0 L273.8,164.3 L275.0,167.9 L274.0,172.0" fill="none" stroke="#0c2020" stroke-width="11" stroke-linecap="round" stroke-linejoin="round" opacity="1.0"/><path d="M240.0,217.0 L238.5,222.3 L237.1,227.7 L235.6,233.0 L234.1,238.4 L232.7,243.8 L231.5,249.2 L230.1,254.6 L228.6,259.9 L227.1,265.3 L225.5,270.6 L224.0,276.0" fill="none" stroke="#0d9488" stroke-width="19" stroke-linecap="round" stroke-linejoin="round" opacity="0.95"/><path d="M240.0,217.0 L238.5,222.3 L237.1,227.7 L235.6,233.0 L234.1,238.4 L232.7,243.8 L231.5,249.2 L230.1,254.6 L228.6,259.9 L227.1,265.3 L225.5,270.6 L224.0,276.0" fill="none" stroke="#0c2020" stroke-width="11" stroke-linecap="round" stroke-linejoin="round" opacity="1.0"/><path d="M240.0,217.0 L241.5,222.3 L242.9,227.6 L244.4,232.9 L245.8,238.2 L246.9,243.6 L247.0,249.0 L246.6,254.4 L245.5,259.8 L244.3,265.2 L243.2,270.6 L242.0,276.0" fill="none" stroke="#2dd4bf" stroke-width="19" stroke-linecap="round" stroke-linejoin="round" opacity="0.95"/><path d="M240.0,217.0 L241.5,222.3 L242.9,227.6 L244.4,232.9 L245.8,238.2 L246.9,243.6 L247.0,249.0 L246.6,254.4 L245.5,259.8 L244.3,265.2 L243.2,270.6 L242.0,276.0" fill="none" stroke="#0c2020" stroke-width="11" stroke-linecap="round" stroke-linejoin="round" opacity="1.0"/><path d="M240.0,142.0 L240.0,148.8 L240.0,155.6 L240.0,162.5 L240.0,169.3 L240.0,176.1 L240.0,182.9 L240.0,189.7 L240.0,196.5 L240.0,203.4 L240.0,210.2 L240.0,217.0" fill="none" stroke="#2dd4bf" stroke-width="23" stroke-linecap="round" stroke-linejoin="round" opacity="0.95"/><path d="M240.0,142.0 L240.0,148.8 L240.0,155.6 L240.0,162.5 L240.0,169.3 L240.0,176.1 L240.0,182.9 L240.0,189.7 L240.0,196.5 L240.0,203.4 L240.0,210.2 L240.0,217.0" fill="none" stroke="#0c2020" stroke-width="15" stroke-linecap="round" stroke-linejoin="round" opacity="1.0"/><circle cx="240.0" cy="114.0" r="19.0" fill="#2dd4bf" stroke="none" stroke-width="0" opacity="0.95"/><circle cx="240.0" cy="114.0" r="15.0" fill="#0c2020" stroke="none" stroke-width="6.3" opacity="1.0"/><path d="M238.0,97.0 L235.0,100.0 L232.0,103.0 L229.1,105.9 L226.1,108.9 L223.1,111.9 L220.1,114.9 L219.5,118.5 L220.4,122.6 L221.3,126.8 L222.1,130.9 L223.0,135.0" fill="none" stroke="#2dd4bf" stroke-width="5" stroke-linecap="round" stroke-linejoin="round" opacity="1.0"/><path d="M230.7,111.0 L232.4,111.0 L234.1,111.0 L235.8,111.0 L237.5,111.0 L239.2,111.0 L240.8,111.0 L242.5,111.0 L244.2,111.0 L245.9,111.0 L247.6,111.0 L249.3,111.0" fill="none" stroke="#a7f3ee" stroke-width="5" stroke-linecap="round" stroke-linejoin="round" opacity="1.0"/></g><g class="f5"><path d="M240.0,147.1 L235.9,149.0 L231.8,150.9 L227.8,152.7 L223.7,154.6 L219.6,156.5 L215.5,158.3 L211.6,160.3 L208.6,162.8 L205.6,165.4 L204.3,168.3 L206.0,172.0" fill="none" stroke="#8f2a3e" stroke-width="19" stroke-linecap="round" stroke-linejoin="round" opacity="0.95"/><path d="M240.0,147.1 L235.9,149.0 L231.8,150.9 L227.8,152.7 L223.7,154.6 L219.6,156.5 L215.5,158.3 L211.6,160.3 L208.6,162.8 L205.6,165.4 L204.3,168.3 L206.0,172.0" fill="none" stroke="#0c2020" stroke-width="11" stroke-linecap="round" stroke-linejoin="round" opacity="1.0"/><path d="M240.0,147.1 L244.1,149.0 L248.2,150.9 L252.2,152.7 L256.3,154.6 L260.4,156.5 L264.5,158.3 L268.4,160.3 L271.4,162.8 L274.4,165.4 L275.7,168.3 L274.0,172.0" fill="none" stroke="#f43f5e" stroke-width="19" stroke-linecap="round" stroke-linejoin="round" opacity="0.95"/><path d="M240.0,147.1 L244.1,149.0 L248.2,150.9 L252.2,152.7 L256.3,154.6 L260.4,156.5 L264.5,158.3 L268.4,160.3 L271.4,162.8 L274.4,165.4 L275.7,168.3 L274.0,172.0" fill="none" stroke="#0c2020" stroke-width="11" stroke-linecap="round" stroke-linejoin="round" opacity="1.0"/><path d="M240.0,221.0 L238.4,226.0 L236.9,230.9 L235.3,235.9 L233.8,240.9 L232.3,245.8 L231.1,250.9 L229.7,255.9 L228.3,261.0 L226.9,266.0 L225.4,271.0 L224.0,276.0" fill="none" stroke="#0d9488" stroke-width="19" stroke-linecap="round" stroke-linejoin="round" opacity="0.95"/><path d="M240.0,221.0 L238.4,226.0 L236.9,230.9 L235.3,235.9 L233.8,240.9 L232.3,245.8 L231.1,250.9 L229.7,255.9 L228.3,261.0 L226.9,266.0 L225.4,271.0 L224.0,276.0" fill="none" stroke="#0c2020" stroke-width="11" stroke-linecap="round" stroke-linejoin="round" opacity="1.0"/><path d="M240.0,221.0 L241.5,226.0 L243.1,230.9 L244.6,235.8 L246.2,240.7 L247.2,245.6 L246.9,250.7 L246.3,255.8 L245.3,260.8 L244.2,265.9 L243.1,270.9 L242.0,276.0" fill="none" stroke="#2dd4bf" stroke-width="19" stroke-linecap="round" stroke-linejoin="round" opacity="0.95"/><path d="M240.0,221.0 L241.5,226.0 L243.1,230.9 L244.6,235.8 L246.2,240.7 L247.2,245.6 L246.9,250.7 L246.3,255.8 L245.3,260.8 L244.2,265.9 L243.1,270.9 L242.0,276.0" fill="none" stroke="#0c2020" stroke-width="11" stroke-linecap="round" stroke-linejoin="round" opacity="1.0"/><path d="M240.0,147.1 L240.0,153.9 L240.0,160.6 L240.0,167.3 L240.0,174.0 L240.0,180.7 L240.0,187.4 L240.0,194.2 L240.0,200.9 L240.0,207.6 L240.0,214.3 L240.0,221.0" fill="none" stroke="#2dd4bf" stroke-width="23" stroke-linecap="round" stroke-linejoin="round" opacity="0.95"/><path d="M240.0,147.1 L240.0,153.9 L240.0,160.6 L240.0,167.3 L240.0,174.0 L240.0,180.7 L240.0,187.4 L240.0,194.2 L240.0,200.9 L240.0,207.6 L240.0,214.3 L240.0,221.0" fill="none" stroke="#0c2020" stroke-width="15" stroke-linecap="round" stroke-linejoin="round" opacity="1.0"/><circle cx="240.0" cy="119.1" r="19.0" fill="#2dd4bf" stroke="none" stroke-width="0" opacity="0.95"/><circle cx="240.0" cy="119.1" r="15.0" fill="#0c2020" stroke="none" stroke-width="6.3" opacity="1.0"/><path d="M238.0,102.1 L235.0,105.1 L232.0,108.1 L229.1,111.1 L226.1,114.0 L223.1,117.0 L220.1,120.0 L219.5,123.7 L220.4,127.8 L221.3,131.9 L222.1,136.0 L223.0,140.1" fill="none" stroke="#2dd4bf" stroke-width="5" stroke-linecap="round" stroke-linejoin="round" opacity="1.0"/><path d="M230.7,116.1 L232.4,116.1 L234.1,116.1 L235.8,116.1 L237.5,116.1 L239.2,116.1 L240.8,116.1 L242.5,116.1 L244.2,116.1 L245.9,116.1 L247.6,116.1 L249.3,116.1" fill="none" stroke="#a7f3ee" stroke-width="5" stroke-linecap="round" stroke-linejoin="round" opacity="1.0"/></g><g class="f6"><path d="M240.0,151.6 L236.0,153.2 L232.0,154.7 L228.0,156.3 L224.0,157.8 L219.9,159.4 L215.9,160.9 L212.0,162.5 L208.5,164.4 L205.0,166.3 L203.7,168.7 L206.0,172.0" fill="none" stroke="#8f2a3e" stroke-width="19" stroke-linecap="round" stroke-linejoin="round" opacity="0.95"/><path d="M240.0,151.6 L236.0,153.2 L232.0,154.7 L228.0,156.3 L224.0,157.8 L219.9,159.4 L215.9,160.9 L212.0,162.5 L208.5,164.4 L205.0,166.3 L203.7,168.7 L206.0,172.0" fill="none" stroke="#0c2020" stroke-width="11" stroke-linecap="round" stroke-linejoin="round" opacity="1.0"/><path d="M240.0,151.6 L244.0,153.2 L248.0,154.7 L252.0,156.3 L256.0,157.8 L260.1,159.4 L264.1,160.9 L268.0,162.5 L271.5,164.4 L275.0,166.3 L276.3,168.7 L274.0,172.0" fill="none" stroke="#f43f5e" stroke-width="19" stroke-linecap="round" stroke-linejoin="round" opacity="0.95"/><path d="M240.0,151.6 L244.0,153.2 L248.0,154.7 L252.0,156.3 L256.0,157.8 L260.1,159.4 L264.1,160.9 L268.0,162.5 L271.5,164.4 L275.0,166.3 L276.3,168.7 L274.0,172.0" fill="none" stroke="#0c2020" stroke-width="11" stroke-linecap="round" stroke-linejoin="round" opacity="1.0"/><path d="M240.0,224.6 L238.4,229.2 L236.7,233.8 L235.1,238.4 L233.5,243.0 L232.0,247.7 L230.7,252.4 L229.4,257.1 L228.0,261.8 L226.7,266.6 L225.3,271.3 L224.0,276.0" fill="none" stroke="#0d9488" stroke-width="19" stroke-linecap="round" stroke-linejoin="round" opacity="0.95"/><path d="M240.0,224.6 L238.4,229.2 L236.7,233.8 L235.1,238.4 L233.5,243.0 L232.0,247.7 L230.7,252.4 L229.4,257.1 L228.0,261.8 L226.7,266.6 L225.3,271.3 L224.0,276.0" fill="none" stroke="#0c2020" stroke-width="11" stroke-linecap="round" stroke-linejoin="round" opacity="1.0"/><path d="M240.0,224.6 L241.6,229.1 L243.2,233.7 L244.9,238.3 L246.5,242.8 L247.5,247.5 L246.9,252.2 L246.1,257.0 L245.1,261.7 L244.0,266.5 L243.0,271.2 L242.0,276.0" fill="none" stroke="#2dd4bf" stroke-width="19" stroke-linecap="round" stroke-linejoin="round" opacity="0.95"/><path d="M240.0,224.6 L241.6,229.1 L243.2,233.7 L244.9,238.3 L246.5,242.8 L247.5,247.5 L246.9,252.2 L246.1,257.0 L245.1,261.7 L244.0,266.5 L243.0,271.2 L242.0,276.0" fill="none" stroke="#0c2020" stroke-width="11" stroke-linecap="round" stroke-linejoin="round" opacity="1.0"/><path d="M240.0,151.6 L240.0,158.3 L240.0,164.9 L240.0,171.5 L240.0,178.1 L240.0,184.8 L240.0,191.4 L240.0,198.0 L240.0,204.7 L240.0,211.3 L240.0,217.9 L240.0,224.6" fill="none" stroke="#2dd4bf" stroke-width="23" stroke-linecap="round" stroke-linejoin="round" opacity="0.95"/><path d="M240.0,151.6 L240.0,158.3 L240.0,164.9 L240.0,171.5 L240.0,178.1 L240.0,184.8 L240.0,191.4 L240.0,198.0 L240.0,204.7 L240.0,211.3 L240.0,217.9 L240.0,224.6" fill="none" stroke="#0c2020" stroke-width="15" stroke-linecap="round" stroke-linejoin="round" opacity="1.0"/><circle cx="240.0" cy="123.6" r="19.0" fill="#2dd4bf" stroke="none" stroke-width="0" opacity="0.95"/><circle cx="240.0" cy="123.6" r="15.0" fill="#0c2020" stroke="none" stroke-width="6.3" opacity="1.0"/><path d="M238.0,106.6 L235.0,109.6 L232.0,112.6 L229.1,115.6 L226.1,118.5 L223.1,121.5 L220.1,124.5 L219.5,128.2 L220.4,132.3 L221.3,136.4 L222.1,140.5 L223.0,144.6" fill="none" stroke="#2dd4bf" stroke-width="5" stroke-linecap="round" stroke-linejoin="round" opacity="1.0"/><path d="M230.7,120.6 L232.4,120.6 L234.1,120.6 L235.8,120.6 L237.5,120.6 L239.2,120.6 L240.8,120.6 L242.5,120.6 L244.2,120.6 L245.9,120.6 L247.6,120.6 L249.3,120.6" fill="none" stroke="#a7f3ee" stroke-width="5" stroke-linecap="round" stroke-linejoin="round" opacity="1.0"/></g><g class="f7"><path d="M240.0,154.8 L236.0,156.1 L232.1,157.5 L228.1,158.8 L224.1,160.1 L220.2,161.4 L216.2,162.8 L212.3,164.1 L208.5,165.5 L204.6,167.0 L203.2,169.0 L206.0,172.0" fill="none" stroke="#8f2a3e" stroke-width="19" stroke-linecap="round" stroke-linejoin="round" opacity="0.95"/><path d="M240.0,154.8 L236.0,156.1 L232.1,157.5 L228.1,158.8 L224.1,160.1 L220.2,161.4 L216.2,162.8 L212.3,164.1 L208.5,165.5 L204.6,167.0 L203.2,169.0 L206.0,172.0" fill="none" stroke="#0c2020" stroke-width="11" stroke-linecap="round" stroke-linejoin="round" opacity="1.0"/><path d="M240.0,154.8 L244.0,156.1 L247.9,157.5 L251.9,158.8 L255.9,160.1 L259.8,161.4 L263.8,162.8 L267.7,164.1 L271.5,165.5 L275.4,167.0 L276.8,169.0 L274.0,172.0" fill="none" stroke="#f43f5e" stroke-width="19" stroke-linecap="round" stroke-linejoin="round" opacity="0.95"/><path d="M240.0,154.8 L244.0,156.1 L247.9,157.5 L251.9,158.8 L255.9,160.1 L259.8,161.4 L263.8,162.8 L267.7,164.1 L271.5,165.5 L275.4,167.0 L276.8,169.0 L274.0,172.0" fill="none" stroke="#0c2020" stroke-width="11" stroke-linecap="round" stroke-linejoin="round" opacity="1.0"/><path d="M240.0,227.1 L238.3,231.4 L236.6,235.8 L234.9,240.2 L233.2,244.5 L231.7,248.9 L230.4,253.5 L229.2,258.0 L227.9,262.5 L226.6,267.0 L225.3,271.5 L224.0,276.0" fill="none" stroke="#0d9488" stroke-width="19" stroke-linecap="round" stroke-linejoin="round" opacity="0.95"/><path d="M240.0,227.1 L238.3,231.4 L236.6,235.8 L234.9,240.2 L233.2,244.5 L231.7,248.9 L230.4,253.5 L229.2,258.0 L227.9,262.5 L226.6,267.0 L225.3,271.5 L224.0,276.0" fill="none" stroke="#0c2020" stroke-width="11" stroke-linecap="round" stroke-linejoin="round" opacity="1.0"/><path d="M240.0,227.1 L241.7,231.4 L243.3,235.7 L245.0,240.0 L246.7,244.4 L247.7,248.8 L246.8,253.3 L245.9,257.8 L244.9,262.4 L243.9,266.9 L243.0,271.5 L242.0,276.0" fill="none" stroke="#2dd4bf" stroke-width="19" stroke-linecap="round" stroke-linejoin="round" opacity="0.95"/><path d="M240.0,227.1 L241.7,231.4 L243.3,235.7 L245.0,240.0 L246.7,244.4 L247.7,248.8 L246.8,253.3 L245.9,257.8 L244.9,262.4 L243.9,266.9 L243.0,271.5 L242.0,276.0" fill="none" stroke="#0c2020" stroke-width="11" stroke-linecap="round" stroke-linejoin="round" opacity="1.0"/><path d="M240.0,154.8 L240.0,161.4 L240.0,167.9 L240.0,174.5 L240.0,181.1 L240.0,187.6 L240.0,194.2 L240.0,200.8 L240.0,207.3 L240.0,213.9 L240.0,220.5 L240.0,227.1" fill="none" stroke="#2dd4bf" stroke-width="23" stroke-linecap="round" stroke-linejoin="round" opacity="0.95"/><path d="M240.0,154.8 L240.0,161.4 L240.0,167.9 L240.0,174.5 L240.0,181.1 L240.0,187.6 L240.0,194.2 L240.0,200.8 L240.0,207.3 L240.0,213.9 L240.0,220.5 L240.0,227.1" fill="none" stroke="#0c2020" stroke-width="15" stroke-linecap="round" stroke-linejoin="round" opacity="1.0"/><circle cx="240.0" cy="126.8" r="19.0" fill="#2dd4bf" stroke="none" stroke-width="0" opacity="0.95"/><circle cx="240.0" cy="126.8" r="15.0" fill="#0c2020" stroke="none" stroke-width="6.3" opacity="1.0"/><path d="M238.0,109.8 L235.0,112.8 L232.0,115.7 L229.1,118.7 L226.1,121.7 L223.1,124.7 L220.1,127.6 L219.5,131.3 L220.4,135.4 L221.3,139.6 L222.1,143.7 L223.0,147.8" fill="none" stroke="#2dd4bf" stroke-width="5" stroke-linecap="round" stroke-linejoin="round" opacity="1.0"/><path d="M230.7,123.8 L232.4,123.8 L234.1,123.8 L235.8,123.8 L237.5,123.8 L239.2,123.8 L240.8,123.8 L242.5,123.8 L244.2,123.8 L245.9,123.8 L247.6,123.8 L249.3,123.8" fill="none" stroke="#a7f3ee" stroke-width="5" stroke-linecap="round" stroke-linejoin="round" opacity="1.0"/></g><g class="f8"><path d="M240.0,156.0 L236.1,157.2 L232.1,158.5 L228.2,159.7 L224.2,161.0 L220.3,162.2 L216.3,163.5 L212.4,164.7 L208.4,166.0 L204.5,167.2 L203.1,169.1 L206.0,172.0" fill="none" stroke="#8f2a3e" stroke-width="19" stroke-linecap="round" stroke-linejoin="round" opacity="0.95"/><path d="M240.0,156.0 L236.1,157.2 L232.1,158.5 L228.2,159.7 L224.2,161.0 L220.3,162.2 L216.3,163.5 L212.4,164.7 L208.4,166.0 L204.5,167.2 L203.1,169.1 L206.0,172.0" fill="none" stroke="#0c2020" stroke-width="11" stroke-linecap="round" stroke-linejoin="round" opacity="1.0"/><path d="M240.0,156.0 L243.9,157.2 L247.9,158.5 L251.8,159.7 L255.8,161.0 L259.7,162.2 L263.7,163.5 L267.6,164.7 L271.6,166.0 L275.5,167.2 L276.9,169.1 L274.0,172.0" fill="none" stroke="#f43f5e" stroke-width="19" stroke-linecap="round" stroke-linejoin="round" opacity="0.95"/><path d="M240.0,156.0 L243.9,157.2 L247.9,158.5 L251.8,159.7 L255.8,161.0 L259.7,162.2 L263.7,163.5 L267.6,164.7 L271.6,166.0 L275.5,167.2 L276.9,169.1 L274.0,172.0" fill="none" stroke="#0c2020" stroke-width="11" stroke-linecap="round" stroke-linejoin="round" opacity="1.0"/><path d="M240.0,228.0 L238.3,232.3 L236.6,236.6 L234.9,240.8 L233.2,245.1 L231.6,249.4 L230.3,253.9 L229.1,258.3 L227.8,262.7 L226.5,267.1 L225.3,271.6 L224.0,276.0" fill="none" stroke="#0d9488" stroke-width="19" stroke-linecap="round" stroke-linejoin="round" opacity="0.95"/><path d="M240.0,228.0 L238.3,232.3 L236.6,236.6 L234.9,240.8 L233.2,245.1 L231.6,249.4 L230.3,253.9 L229.1,258.3 L227.8,262.7 L226.5,267.1 L225.3,271.6 L224.0,276.0" fill="none" stroke="#0c2020" stroke-width="11" stroke-linecap="round" stroke-linejoin="round" opacity="1.0"/><path d="M240.0,228.0 L241.7,232.2 L243.4,236.5 L245.1,240.7 L246.8,244.9 L247.7,249.2 L246.8,253.7 L245.8,258.2 L244.9,262.6 L243.9,267.1 L243.0,271.5 L242.0,276.0" fill="none" stroke="#2dd4bf" stroke-width="19" stroke-linecap="round" stroke-linejoin="round" opacity="0.95"/><path d="M240.0,228.0 L241.7,232.2 L243.4,236.5 L245.1,240.7 L246.8,244.9 L247.7,249.2 L246.8,253.7 L245.8,258.2 L244.9,262.6 L243.9,267.1 L243.0,271.5 L242.0,276.0" fill="none" stroke="#0c2020" stroke-width="11" stroke-linecap="round" stroke-linejoin="round" opacity="1.0"/><path d="M240.0,156.0 L240.0,162.5 L240.0,169.1 L240.0,175.6 L240.0,182.2 L240.0,188.7 L240.0,195.3 L240.0,201.8 L240.0,208.4 L240.0,214.9 L240.0,221.5 L240.0,228.0" fill="none" stroke="#2dd4bf" stroke-width="23" stroke-linecap="round" stroke-linejoin="round" opacity="0.95"/><path d="M240.0,156.0 L240.0,162.5 L240.0,169.1 L240.0,175.6 L240.0,182.2 L240.0,188.7 L240.0,195.3 L240.0,201.8 L240.0,208.4 L240.0,214.9 L240.0,221.5 L240.0,228.0" fill="none" stroke="#0c2020" stroke-width="15" stroke-linecap="round" stroke-linejoin="round" opacity="1.0"/><circle cx="240.0" cy="128.0" r="19.0" fill="#2dd4bf" stroke="none" stroke-width="0" opacity="0.95"/><circle cx="240.0" cy="128.0" r="15.0" fill="#0c2020" stroke="none" stroke-width="6.3" opacity="1.0"/><path d="M238.0,111.0 L235.0,114.0 L232.0,117.0 L229.1,119.9 L226.1,122.9 L223.1,125.9 L220.1,128.9 L219.5,132.5 L220.4,136.6 L221.3,140.8 L222.1,144.9 L223.0,149.0" fill="none" stroke="#2dd4bf" stroke-width="5" stroke-linecap="round" stroke-linejoin="round" opacity="1.0"/><path d="M230.7,125.0 L232.4,125.0 L234.1,125.0 L235.8,125.0 L237.5,125.0 L239.2,125.0 L240.8,125.0 L242.5,125.0 L244.2,125.0 L245.9,125.0 L247.6,125.0 L249.3,125.0" fill="none" stroke="#a7f3ee" stroke-width="5" stroke-linecap="round" stroke-linejoin="round" opacity="1.0"/></g><g class="f9"><path d="M240.0,154.8 L236.0,156.1 L232.1,157.5 L228.1,158.8 L224.1,160.1 L220.2,161.4 L216.2,162.8 L212.3,164.1 L208.5,165.5 L204.6,167.0 L203.2,169.0 L206.0,172.0" fill="none" stroke="#8f2a3e" stroke-width="19" stroke-linecap="round" stroke-linejoin="round" opacity="0.95"/><path d="M240.0,154.8 L236.0,156.1 L232.1,157.5 L228.1,158.8 L224.1,160.1 L220.2,161.4 L216.2,162.8 L212.3,164.1 L208.5,165.5 L204.6,167.0 L203.2,169.0 L206.0,172.0" fill="none" stroke="#0c2020" stroke-width="11" stroke-linecap="round" stroke-linejoin="round" opacity="1.0"/><path d="M240.0,154.8 L244.0,156.1 L247.9,157.5 L251.9,158.8 L255.9,160.1 L259.8,161.4 L263.8,162.8 L267.7,164.1 L271.5,165.5 L275.4,167.0 L276.8,169.0 L274.0,172.0" fill="none" stroke="#f43f5e" stroke-width="19" stroke-linecap="round" stroke-linejoin="round" opacity="0.95"/><path d="M240.0,154.8 L244.0,156.1 L247.9,157.5 L251.9,158.8 L255.9,160.1 L259.8,161.4 L263.8,162.8 L267.7,164.1 L271.5,165.5 L275.4,167.0 L276.8,169.0 L274.0,172.0" fill="none" stroke="#0c2020" stroke-width="11" stroke-linecap="round" stroke-linejoin="round" opacity="1.0"/><path d="M240.0,227.1 L238.3,231.4 L236.6,235.8 L234.9,240.2 L233.2,244.5 L231.7,248.9 L230.4,253.5 L229.2,258.0 L227.9,262.5 L226.6,267.0 L225.3,271.5 L224.0,276.0" fill="none" stroke="#0d9488" stroke-width="19" stroke-linecap="round" stroke-linejoin="round" opacity="0.95"/><path d="M240.0,227.1 L238.3,231.4 L236.6,235.8 L234.9,240.2 L233.2,244.5 L231.7,248.9 L230.4,253.5 L229.2,258.0 L227.9,262.5 L226.6,267.0 L225.3,271.5 L224.0,276.0" fill="none" stroke="#0c2020" stroke-width="11" stroke-linecap="round" stroke-linejoin="round" opacity="1.0"/><path d="M240.0,227.1 L241.7,231.4 L243.3,235.7 L245.0,240.0 L246.7,244.4 L247.7,248.8 L246.8,253.3 L245.9,257.8 L244.9,262.4 L243.9,266.9 L243.0,271.5 L242.0,276.0" fill="none" stroke="#2dd4bf" stroke-width="19" stroke-linecap="round" stroke-linejoin="round" opacity="0.95"/><path d="M240.0,227.1 L241.7,231.4 L243.3,235.7 L245.0,240.0 L246.7,244.4 L247.7,248.8 L246.8,253.3 L245.9,257.8 L244.9,262.4 L243.9,266.9 L243.0,271.5 L242.0,276.0" fill="none" stroke="#0c2020" stroke-width="11" stroke-linecap="round" stroke-linejoin="round" opacity="1.0"/><path d="M240.0,154.8 L240.0,161.4 L240.0,167.9 L240.0,174.5 L240.0,181.1 L240.0,187.6 L240.0,194.2 L240.0,200.8 L240.0,207.3 L240.0,213.9 L240.0,220.5 L240.0,227.1" fill="none" stroke="#2dd4bf" stroke-width="23" stroke-linecap="round" stroke-linejoin="round" opacity="0.95"/><path d="M240.0,154.8 L240.0,161.4 L240.0,167.9 L240.0,174.5 L240.0,181.1 L240.0,187.6 L240.0,194.2 L240.0,200.8 L240.0,207.3 L240.0,213.9 L240.0,220.5 L240.0,227.1" fill="none" stroke="#0c2020" stroke-width="15" stroke-linecap="round" stroke-linejoin="round" opacity="1.0"/><circle cx="240.0" cy="126.8" r="19.0" fill="#2dd4bf" stroke="none" stroke-width="0" opacity="0.95"/><circle cx="240.0" cy="126.8" r="15.0" fill="#0c2020" stroke="none" stroke-width="6.3" opacity="1.0"/><path d="M238.0,109.8 L235.0,112.8 L232.0,115.7 L229.1,118.7 L226.1,121.7 L223.1,124.7 L220.1,127.6 L219.5,131.3 L220.4,135.4 L221.3,139.6 L222.1,143.7 L223.0,147.8" fill="none" stroke="#2dd4bf" stroke-width="5" stroke-linecap="round" stroke-linejoin="round" opacity="1.0"/><path d="M230.7,123.8 L232.4,123.8 L234.1,123.8 L235.8,123.8 L237.5,123.8 L239.2,123.8 L240.8,123.8 L242.5,123.8 L244.2,123.8 L245.9,123.8 L247.6,123.8 L249.3,123.8" fill="none" stroke="#a7f3ee" stroke-width="5" stroke-linecap="round" stroke-linejoin="round" opacity="1.0"/></g><g class="f10"><path d="M240.0,151.6 L236.0,153.2 L232.0,154.7 L228.0,156.3 L224.0,157.8 L219.9,159.4 L215.9,160.9 L212.0,162.5 L208.5,164.4 L205.0,166.3 L203.7,168.7 L206.0,172.0" fill="none" stroke="#8f2a3e" stroke-width="19" stroke-linecap="round" stroke-linejoin="round" opacity="0.95"/><path d="M240.0,151.6 L236.0,153.2 L232.0,154.7 L228.0,156.3 L224.0,157.8 L219.9,159.4 L215.9,160.9 L212.0,162.5 L208.5,164.4 L205.0,166.3 L203.7,168.7 L206.0,172.0" fill="none" stroke="#0c2020" stroke-width="11" stroke-linecap="round" stroke-linejoin="round" opacity="1.0"/><path d="M240.0,151.6 L244.0,153.2 L248.0,154.7 L252.0,156.3 L256.0,157.8 L260.1,159.4 L264.1,160.9 L268.0,162.5 L271.5,164.4 L275.0,166.3 L276.3,168.7 L274.0,172.0" fill="none" stroke="#f43f5e" stroke-width="19" stroke-linecap="round" stroke-linejoin="round" opacity="0.95"/><path d="M240.0,151.6 L244.0,153.2 L248.0,154.7 L252.0,156.3 L256.0,157.8 L260.1,159.4 L264.1,160.9 L268.0,162.5 L271.5,164.4 L275.0,166.3 L276.3,168.7 L274.0,172.0" fill="none" stroke="#0c2020" stroke-width="11" stroke-linecap="round" stroke-linejoin="round" opacity="1.0"/><path d="M240.0,224.6 L238.4,229.2 L236.7,233.8 L235.1,238.4 L233.5,243.0 L232.0,247.7 L230.7,252.4 L229.4,257.1 L228.0,261.8 L226.7,266.6 L225.3,271.3 L224.0,276.0" fill="none" stroke="#0d9488" stroke-width="19" stroke-linecap="round" stroke-linejoin="round" opacity="0.95"/><path d="M240.0,224.6 L238.4,229.2 L236.7,233.8 L235.1,238.4 L233.5,243.0 L232.0,247.7 L230.7,252.4 L229.4,257.1 L228.0,261.8 L226.7,266.6 L225.3,271.3 L224.0,276.0" fill="none" stroke="#0c2020" stroke-width="11" stroke-linecap="round" stroke-linejoin="round" opacity="1.0"/><path d="M240.0,224.6 L241.6,229.1 L243.2,233.7 L244.9,238.3 L246.5,242.8 L247.5,247.5 L246.9,252.2 L246.1,257.0 L245.1,261.7 L244.0,266.5 L243.0,271.2 L242.0,276.0" fill="none" stroke="#2dd4bf" stroke-width="19" stroke-linecap="round" stroke-linejoin="round" opacity="0.95"/><path d="M240.0,224.6 L241.6,229.1 L243.2,233.7 L244.9,238.3 L246.5,242.8 L247.5,247.5 L246.9,252.2 L246.1,257.0 L245.1,261.7 L244.0,266.5 L243.0,271.2 L242.0,276.0" fill="none" stroke="#0c2020" stroke-width="11" stroke-linecap="round" stroke-linejoin="round" opacity="1.0"/><path d="M240.0,151.6 L240.0,158.3 L240.0,164.9 L240.0,171.5 L240.0,178.1 L240.0,184.8 L240.0,191.4 L240.0,198.0 L240.0,204.7 L240.0,211.3 L240.0,217.9 L240.0,224.6" fill="none" stroke="#2dd4bf" stroke-width="23" stroke-linecap="round" stroke-linejoin="round" opacity="0.95"/><path d="M240.0,151.6 L240.0,158.3 L240.0,164.9 L240.0,171.5 L240.0,178.1 L240.0,184.8 L240.0,191.4 L240.0,198.0 L240.0,204.7 L240.0,211.3 L240.0,217.9 L240.0,224.6" fill="none" stroke="#0c2020" stroke-width="15" stroke-linecap="round" stroke-linejoin="round" opacity="1.0"/><circle cx="240.0" cy="123.6" r="19.0" fill="#2dd4bf" stroke="none" stroke-width="0" opacity="0.95"/><circle cx="240.0" cy="123.6" r="15.0" fill="#0c2020" stroke="none" stroke-width="6.3" opacity="1.0"/><path d="M238.0,106.6 L235.0,109.6 L232.0,112.6 L229.1,115.6 L226.1,118.5 L223.1,121.5 L220.1,124.5 L219.5,128.2 L220.4,132.3 L221.3,136.4 L222.1,140.5 L223.0,144.6" fill="none" stroke="#2dd4bf" stroke-width="5" stroke-linecap="round" stroke-linejoin="round" opacity="1.0"/><path d="M230.7,120.6 L232.4,120.6 L234.1,120.6 L235.8,120.6 L237.5,120.6 L239.2,120.6 L240.8,120.6 L242.5,120.6 L244.2,120.6 L245.9,120.6 L247.6,120.6 L249.3,120.6" fill="none" stroke="#a7f3ee" stroke-width="5" stroke-linecap="round" stroke-linejoin="round" opacity="1.0"/></g><g class="f11"><path d="M240.0,147.1 L235.9,149.0 L231.8,150.9 L227.8,152.7 L223.7,154.6 L219.6,156.5 L215.5,158.3 L211.6,160.3 L208.6,162.8 L205.6,165.4 L204.3,168.3 L206.0,172.0" fill="none" stroke="#8f2a3e" stroke-width="19" stroke-linecap="round" stroke-linejoin="round" opacity="0.95"/><path d="M240.0,147.1 L235.9,149.0 L231.8,150.9 L227.8,152.7 L223.7,154.6 L219.6,156.5 L215.5,158.3 L211.6,160.3 L208.6,162.8 L205.6,165.4 L204.3,168.3 L206.0,172.0" fill="none" stroke="#0c2020" stroke-width="11" stroke-linecap="round" stroke-linejoin="round" opacity="1.0"/><path d="M240.0,147.1 L244.1,149.0 L248.2,150.9 L252.2,152.7 L256.3,154.6 L260.4,156.5 L264.5,158.3 L268.4,160.3 L271.4,162.8 L274.4,165.4 L275.7,168.3 L274.0,172.0" fill="none" stroke="#f43f5e" stroke-width="19" stroke-linecap="round" stroke-linejoin="round" opacity="0.95"/><path d="M240.0,147.1 L244.1,149.0 L248.2,150.9 L252.2,152.7 L256.3,154.6 L260.4,156.5 L264.5,158.3 L268.4,160.3 L271.4,162.8 L274.4,165.4 L275.7,168.3 L274.0,172.0" fill="none" stroke="#0c2020" stroke-width="11" stroke-linecap="round" stroke-linejoin="round" opacity="1.0"/><path d="M240.0,221.0 L238.4,226.0 L236.9,230.9 L235.3,235.9 L233.8,240.9 L232.3,245.8 L231.1,250.9 L229.7,255.9 L228.3,261.0 L226.9,266.0 L225.4,271.0 L224.0,276.0" fill="none" stroke="#0d9488" stroke-width="19" stroke-linecap="round" stroke-linejoin="round" opacity="0.95"/><path d="M240.0,221.0 L238.4,226.0 L236.9,230.9 L235.3,235.9 L233.8,240.9 L232.3,245.8 L231.1,250.9 L229.7,255.9 L228.3,261.0 L226.9,266.0 L225.4,271.0 L224.0,276.0" fill="none" stroke="#0c2020" stroke-width="11" stroke-linecap="round" stroke-linejoin="round" opacity="1.0"/><path d="M240.0,221.0 L241.5,226.0 L243.1,230.9 L244.6,235.8 L246.2,240.7 L247.2,245.6 L246.9,250.7 L246.3,255.8 L245.3,260.8 L244.2,265.9 L243.1,270.9 L242.0,276.0" fill="none" stroke="#2dd4bf" stroke-width="19" stroke-linecap="round" stroke-linejoin="round" opacity="0.95"/><path d="M240.0,221.0 L241.5,226.0 L243.1,230.9 L244.6,235.8 L246.2,240.7 L247.2,245.6 L246.9,250.7 L246.3,255.8 L245.3,260.8 L244.2,265.9 L243.1,270.9 L242.0,276.0" fill="none" stroke="#0c2020" stroke-width="11" stroke-linecap="round" stroke-linejoin="round" opacity="1.0"/><path d="M240.0,147.1 L240.0,153.9 L240.0,160.6 L240.0,167.3 L240.0,174.0 L240.0,180.7 L240.0,187.4 L240.0,194.2 L240.0,200.9 L240.0,207.6 L240.0,214.3 L240.0,221.0" fill="none" stroke="#2dd4bf" stroke-width="23" stroke-linecap="round" stroke-linejoin="round" opacity="0.95"/><path d="M240.0,147.1 L240.0,153.9 L240.0,160.6 L240.0,167.3 L240.0,174.0 L240.0,180.7 L240.0,187.4 L240.0,194.2 L240.0,200.9 L240.0,207.6 L240.0,214.3 L240.0,221.0" fill="none" stroke="#0c2020" stroke-width="15" stroke-linecap="round" stroke-linejoin="round" opacity="1.0"/><circle cx="240.0" cy="119.1" r="19.0" fill="#2dd4bf" stroke="none" stroke-width="0" opacity="0.95"/><circle cx="240.0" cy="119.1" r="15.0" fill="#0c2020" stroke="none" stroke-width="6.3" opacity="1.0"/><path d="M238.0,102.1 L235.0,105.1 L232.0,108.1 L229.1,111.1 L226.1,114.0 L223.1,117.0 L220.1,120.0 L219.5,123.7 L220.4,127.8 L221.3,131.9 L222.1,136.0 L223.0,140.1" fill="none" stroke="#2dd4bf" stroke-width="5" stroke-linecap="round" stroke-linejoin="round" opacity="1.0"/><path d="M230.7,116.1 L232.4,116.1 L234.1,116.1 L235.8,116.1 L237.5,116.1 L239.2,116.1 L240.8,116.1 L242.5,116.1 L244.2,116.1 L245.9,116.1 L247.6,116.1 L249.3,116.1" fill="none" stroke="#a7f3ee" stroke-width="5" stroke-linecap="round" stroke-linejoin="round" opacity="1.0"/></g><g class="f12"><path d="M240.0,142.0 L235.8,144.2 L231.7,146.4 L227.5,148.7 L223.4,150.9 L219.2,153.1 L215.1,155.3 L211.1,157.7 L208.7,161.0 L206.2,164.3 L205.0,167.9 L206.0,172.0" fill="none" stroke="#8f2a3e" stroke-width="19" stroke-linecap="round" stroke-linejoin="round" opacity="0.95"/><path d="M240.0,142.0 L235.8,144.2 L231.7,146.4 L227.5,148.7 L223.4,150.9 L219.2,153.1 L215.1,155.3 L211.1,157.7 L208.7,161.0 L206.2,164.3 L205.0,167.9 L206.0,172.0" fill="none" stroke="#0c2020" stroke-width="11" stroke-linecap="round" stroke-linejoin="round" opacity="1.0"/><path d="M240.0,142.0 L244.2,144.2 L248.3,146.4 L252.5,148.7 L256.6,150.9 L260.8,153.1 L264.9,155.3 L268.9,157.7 L271.3,161.0 L273.8,164.3 L275.0,167.9 L274.0,172.0" fill="none" stroke="#f43f5e" stroke-width="19" stroke-linecap="round" stroke-linejoin="round" opacity="0.95"/><path d="M240.0,142.0 L244.2,144.2 L248.3,146.4 L252.5,148.7 L256.6,150.9 L260.8,153.1 L264.9,155.3 L268.9,157.7 L271.3,161.0 L273.8,164.3 L275.0,167.9 L274.0,172.0" fill="none" stroke="#0c2020" stroke-width="11" stroke-linecap="round" stroke-linejoin="round" opacity="1.0"/><path d="M240.0,217.0 L238.5,222.3 L237.1,227.7 L235.6,233.0 L234.1,238.4 L232.7,243.8 L231.5,249.2 L230.1,254.6 L228.6,259.9 L227.1,265.3 L225.5,270.6 L224.0,276.0" fill="none" stroke="#0d9488" stroke-width="19" stroke-linecap="round" stroke-linejoin="round" opacity="0.95"/><path d="M240.0,217.0 L238.5,222.3 L237.1,227.7 L235.6,233.0 L234.1,238.4 L232.7,243.8 L231.5,249.2 L230.1,254.6 L228.6,259.9 L227.1,265.3 L225.5,270.6 L224.0,276.0" fill="none" stroke="#0c2020" stroke-width="11" stroke-linecap="round" stroke-linejoin="round" opacity="1.0"/><path d="M240.0,217.0 L241.5,222.3 L242.9,227.6 L244.4,232.9 L245.8,238.2 L246.9,243.6 L247.0,249.0 L246.6,254.4 L245.5,259.8 L244.3,265.2 L243.2,270.6 L242.0,276.0" fill="none" stroke="#2dd4bf" stroke-width="19" stroke-linecap="round" stroke-linejoin="round" opacity="0.95"/><path d="M240.0,217.0 L241.5,222.3 L242.9,227.6 L244.4,232.9 L245.8,238.2 L246.9,243.6 L247.0,249.0 L246.6,254.4 L245.5,259.8 L244.3,265.2 L243.2,270.6 L242.0,276.0" fill="none" stroke="#0c2020" stroke-width="11" stroke-linecap="round" stroke-linejoin="round" opacity="1.0"/><path d="M240.0,142.0 L240.0,148.8 L240.0,155.6 L240.0,162.5 L240.0,169.3 L240.0,176.1 L240.0,182.9 L240.0,189.7 L240.0,196.5 L240.0,203.4 L240.0,210.2 L240.0,217.0" fill="none" stroke="#2dd4bf" stroke-width="23" stroke-linecap="round" stroke-linejoin="round" opacity="0.95"/><path d="M240.0,142.0 L240.0,148.8 L240.0,155.6 L240.0,162.5 L240.0,169.3 L240.0,176.1 L240.0,182.9 L240.0,189.7 L240.0,196.5 L240.0,203.4 L240.0,210.2 L240.0,217.0" fill="none" stroke="#0c2020" stroke-width="15" stroke-linecap="round" stroke-linejoin="round" opacity="1.0"/><circle cx="240.0" cy="114.0" r="19.0" fill="#2dd4bf" stroke="none" stroke-width="0" opacity="0.95"/><circle cx="240.0" cy="114.0" r="15.0" fill="#0c2020" stroke="none" stroke-width="6.3" opacity="1.0"/><path d="M238.0,97.0 L235.0,100.0 L232.0,103.0 L229.1,105.9 L226.1,108.9 L223.1,111.9 L220.1,114.9 L219.5,118.5 L220.4,122.6 L221.3,126.8 L222.1,130.9 L223.0,135.0" fill="none" stroke="#2dd4bf" stroke-width="5" stroke-linecap="round" stroke-linejoin="round" opacity="1.0"/><path d="M230.7,111.0 L232.4,111.0 L234.1,111.0 L235.8,111.0 L237.5,111.0 L239.2,111.0 L240.8,111.0 L242.5,111.0 L244.2,111.0 L245.9,111.0 L247.6,111.0 L249.3,111.0" fill="none" stroke="#a7f3ee" stroke-width="5" stroke-linecap="round" stroke-linejoin="round" opacity="1.0"/></g><g class="f13"><path d="M240.0,136.9 L235.8,139.4 L231.5,142.0 L227.3,144.6 L223.1,147.2 L218.8,149.8 L214.6,152.4 L210.7,155.1 L208.8,159.2 L206.8,163.2 L205.7,167.4 L206.0,172.0" fill="none" stroke="#8f2a3e" stroke-width="19" stroke-linecap="round" stroke-linejoin="round" opacity="0.95"/><path d="M240.0,136.9 L235.8,139.4 L231.5,142.0 L227.3,144.6 L223.1,147.2 L218.8,149.8 L214.6,152.4 L210.7,155.1 L208.8,159.2 L206.8,163.2 L205.7,167.4 L206.0,172.0" fill="none" stroke="#0c2020" stroke-width="11" stroke-linecap="round" stroke-linejoin="round" opacity="1.0"/><path d="M240.0,136.9 L244.2,139.4 L248.5,142.0 L252.7,144.6 L256.9,147.2 L261.2,149.8 L265.4,152.4 L269.3,155.1 L271.2,159.2 L273.2,163.2 L274.3,167.4 L274.0,172.0" fill="none" stroke="#f43f5e" stroke-width="19" stroke-linecap="round" stroke-linejoin="round" opacity="0.95"/><path d="M240.0,136.9 L244.2,139.4 L248.5,142.0 L252.7,144.6 L256.9,147.2 L261.2,149.8 L265.4,152.4 L269.3,155.1 L271.2,159.2 L273.2,163.2 L274.3,167.4 L274.0,172.0" fill="none" stroke="#0c2020" stroke-width="11" stroke-linecap="round" stroke-linejoin="round" opacity="1.0"/><path d="M240.0,213.0 L238.6,218.7 L237.2,224.4 L235.9,230.2 L234.5,235.9 L233.2,241.7 L231.9,247.5 L230.5,253.2 L228.9,258.9 L227.3,264.6 L225.6,270.3 L224.0,276.0" fill="none" stroke="#0d9488" stroke-width="19" stroke-linecap="round" stroke-linejoin="round" opacity="0.95"/><path d="M240.0,213.0 L238.6,218.7 L237.2,224.4 L235.9,230.2 L234.5,235.9 L233.2,241.7 L231.9,247.5 L230.5,253.2 L228.9,258.9 L227.3,264.6 L225.6,270.3 L224.0,276.0" fill="none" stroke="#0c2020" stroke-width="11" stroke-linecap="round" stroke-linejoin="round" opacity="1.0"/><path d="M240.0,213.0 L241.4,218.7 L242.7,224.4 L244.1,230.1 L245.5,235.8 L246.6,241.5 L247.1,247.2 L246.9,253.0 L245.7,258.8 L244.5,264.5 L243.2,270.3 L242.0,276.0" fill="none" stroke="#2dd4bf" stroke-width="19" stroke-linecap="round" stroke-linejoin="round" opacity="0.95"/><path d="M240.0,213.0 L241.4,218.7 L242.7,224.4 L244.1,230.1 L245.5,235.8 L246.6,241.5 L247.1,247.2 L246.9,253.0 L245.7,258.8 L244.5,264.5 L243.2,270.3 L242.0,276.0" fill="none" stroke="#0c2020" stroke-width="11" stroke-linecap="round" stroke-linejoin="round" opacity="1.0"/><path d="M240.0,136.9 L240.0,143.8 L240.0,150.7 L240.0,157.6 L240.0,164.5 L240.0,171.5 L240.0,178.4 L240.0,185.3 L240.0,192.2 L240.0,199.1 L240.0,206.0 L240.0,213.0" fill="none" stroke="#2dd4bf" stroke-width="23" stroke-linecap="round" stroke-linejoin="round" opacity="0.95"/><path d="M240.0,136.9 L240.0,143.8 L240.0,150.7 L240.0,157.6 L240.0,164.5 L240.0,171.5 L240.0,178.4 L240.0,185.3 L240.0,192.2 L240.0,199.1 L240.0,206.0 L240.0,213.0" fill="none" stroke="#0c2020" stroke-width="15" stroke-linecap="round" stroke-linejoin="round" opacity="1.0"/><circle cx="240.0" cy="108.9" r="19.0" fill="#2dd4bf" stroke="none" stroke-width="0" opacity="0.95"/><circle cx="240.0" cy="108.9" r="15.0" fill="#0c2020" stroke="none" stroke-width="6.3" opacity="1.0"/><path d="M238.0,91.9 L235.0,94.8 L232.0,97.8 L229.1,100.8 L226.1,103.8 L223.1,106.7 L220.1,109.7 L219.5,113.4 L220.4,117.5 L221.3,121.6 L222.1,125.7 L223.0,129.9" fill="none" stroke="#2dd4bf" stroke-width="5" stroke-linecap="round" stroke-linejoin="round" opacity="1.0"/><path d="M230.7,105.9 L232.4,105.9 L234.1,105.9 L235.8,105.9 L237.5,105.9 L239.2,105.9 L240.8,105.9 L242.5,105.9 L244.2,105.9 L245.9,105.9 L247.6,105.9 L249.3,105.9" fill="none" stroke="#a7f3ee" stroke-width="5" stroke-linecap="round" stroke-linejoin="round" opacity="1.0"/></g><g class="f14"><path d="M240.0,132.4 L235.7,135.3 L231.4,138.2 L227.1,141.1 L222.8,144.0 L218.5,146.9 L214.2,149.8 L210.3,152.9 L208.8,157.6 L207.4,162.3 L206.4,167.0 L206.0,172.0" fill="none" stroke="#8f2a3e" stroke-width="19" stroke-linecap="round" stroke-linejoin="round" opacity="0.95"/><path d="M240.0,132.4 L235.7,135.3 L231.4,138.2 L227.1,141.1 L222.8,144.0 L218.5,146.9 L214.2,149.8 L210.3,152.9 L208.8,157.6 L207.4,162.3 L206.4,167.0 L206.0,172.0" fill="none" stroke="#0c2020" stroke-width="11" stroke-linecap="round" stroke-linejoin="round" opacity="1.0"/><path d="M240.0,132.4 L244.3,135.3 L248.6,138.2 L252.9,141.1 L257.2,144.0 L261.5,146.9 L265.8,149.8 L269.7,152.9 L271.2,157.6 L272.6,162.3 L273.6,167.0 L274.0,172.0" fill="none" stroke="#f43f5e" stroke-width="19" stroke-linecap="round" stroke-linejoin="round" opacity="0.95"/><path d="M240.0,132.4 L244.3,135.3 L248.6,138.2 L252.9,141.1 L257.2,144.0 L261.5,146.9 L265.8,149.8 L269.7,152.9 L271.2,157.6 L272.6,162.3 L273.6,167.0 L274.0,172.0" fill="none" stroke="#0c2020" stroke-width="11" stroke-linecap="round" stroke-linejoin="round" opacity="1.0"/><path d="M240.0,209.4 L238.7,215.5 L237.4,221.6 L236.1,227.7 L234.8,233.8 L233.5,239.9 L232.3,246.0 L230.8,252.0 L229.1,258.0 L227.4,264.0 L225.7,270.0 L224.0,276.0" fill="none" stroke="#0d9488" stroke-width="19" stroke-linecap="round" stroke-linejoin="round" opacity="0.95"/><path d="M240.0,209.4 L238.7,215.5 L237.4,221.6 L236.1,227.7 L234.8,233.8 L233.5,239.9 L232.3,246.0 L230.8,252.0 L229.1,258.0 L227.4,264.0 L225.7,270.0 L224.0,276.0" fill="none" stroke="#0c2020" stroke-width="11" stroke-linecap="round" stroke-linejoin="round" opacity="1.0"/><path d="M240.0,209.4 L241.3,215.5 L242.6,221.5 L243.9,227.6 L245.2,233.6 L246.3,239.7 L247.2,245.7 L247.2,251.8 L245.9,257.8 L244.6,263.9 L243.3,269.9 L242.0,276.0" fill="none" stroke="#2dd4bf" stroke-width="19" stroke-linecap="round" stroke-linejoin="round" opacity="0.95"/><path d="M240.0,209.4 L241.3,215.5 L242.6,221.5 L243.9,227.6 L245.2,233.6 L246.3,239.7 L247.2,245.7 L247.2,251.8 L245.9,257.8 L244.6,263.9 L243.3,269.9 L242.0,276.0" fill="none" stroke="#0c2020" stroke-width="11" stroke-linecap="round" stroke-linejoin="round" opacity="1.0"/><path d="M240.0,132.4 L240.0,139.4 L240.0,146.4 L240.0,153.4 L240.0,160.4 L240.0,167.4 L240.0,174.4 L240.0,181.4 L240.0,188.4 L240.0,195.4 L240.0,202.4 L240.0,209.4" fill="none" stroke="#2dd4bf" stroke-width="23" stroke-linecap="round" stroke-linejoin="round" opacity="0.95"/><path d="M240.0,132.4 L240.0,139.4 L240.0,146.4 L240.0,153.4 L240.0,160.4 L240.0,167.4 L240.0,174.4 L240.0,181.4 L240.0,188.4 L240.0,195.4 L240.0,202.4 L240.0,209.4" fill="none" stroke="#0c2020" stroke-width="15" stroke-linecap="round" stroke-linejoin="round" opacity="1.0"/><circle cx="240.0" cy="104.4" r="19.0" fill="#2dd4bf" stroke="none" stroke-width="0" opacity="0.95"/><circle cx="240.0" cy="104.4" r="15.0" fill="#0c2020" stroke="none" stroke-width="6.3" opacity="1.0"/><path d="M238.0,87.4 L235.0,90.4 L232.0,93.3 L229.1,96.3 L226.1,99.3 L223.1,102.3 L220.1,105.2 L219.5,108.9 L220.4,113.0 L221.3,117.1 L222.1,121.3 L223.0,125.4" fill="none" stroke="#2dd4bf" stroke-width="5" stroke-linecap="round" stroke-linejoin="round" opacity="1.0"/><path d="M230.7,101.4 L232.4,101.4 L234.1,101.4 L235.8,101.4 L237.5,101.4 L239.2,101.4 L240.8,101.4 L242.5,101.4 L244.2,101.4 L245.9,101.4 L247.6,101.4 L249.3,101.4" fill="none" stroke="#a7f3ee" stroke-width="5" stroke-linecap="round" stroke-linejoin="round" opacity="1.0"/></g><g class="f15"><path d="M240.0,129.2 L235.7,132.3 L231.3,135.4 L227.0,138.6 L222.6,141.7 L218.3,144.8 L213.9,147.9 L210.0,151.3 L208.9,156.4 L207.8,161.6 L206.8,166.8 L206.0,172.0" fill="none" stroke="#8f2a3e" stroke-width="19" stroke-linecap="round" stroke-linejoin="round" opacity="0.95"/><path d="M240.0,129.2 L235.7,132.3 L231.3,135.4 L227.0,138.6 L222.6,141.7 L218.3,144.8 L213.9,147.9 L210.0,151.3 L208.9,156.4 L207.8,161.6 L206.8,166.8 L206.0,172.0" fill="none" stroke="#0c2020" stroke-width="11" stroke-linecap="round" stroke-linejoin="round" opacity="1.0"/><path d="M240.0,129.2 L244.3,132.3 L248.7,135.4 L253.0,138.6 L257.4,141.7 L261.7,144.8 L266.1,147.9 L270.0,151.3 L271.1,156.4 L272.2,161.6 L273.2,166.8 L274.0,172.0" fill="none" stroke="#f43f5e" stroke-width="19" stroke-linecap="round" stroke-linejoin="round" opacity="0.95"/><path d="M240.0,129.2 L244.3,132.3 L248.7,135.4 L253.0,138.6 L257.4,141.7 L261.7,144.8 L266.1,147.9 L270.0,151.3 L271.1,156.4 L272.2,161.6 L273.2,166.8 L274.0,172.0" fill="none" stroke="#0c2020" stroke-width="11" stroke-linecap="round" stroke-linejoin="round" opacity="1.0"/><path d="M240.0,206.9 L238.8,213.3 L237.5,219.6 L236.3,225.9 L235.0,232.3 L233.8,238.6 L232.6,244.9 L231.1,251.2 L229.3,257.4 L227.5,263.6 L225.8,269.8 L224.0,276.0" fill="none" stroke="#0d9488" stroke-width="19" stroke-linecap="round" stroke-linejoin="round" opacity="0.95"/><path d="M240.0,206.9 L238.8,213.3 L237.5,219.6 L236.3,225.9 L235.0,232.3 L233.8,238.6 L232.6,244.9 L231.1,251.2 L229.3,257.4 L227.5,263.6 L225.8,269.8 L224.0,276.0" fill="none" stroke="#0c2020" stroke-width="11" stroke-linecap="round" stroke-linejoin="round" opacity="1.0"/><path d="M240.0,206.9 L241.2,213.2 L242.5,219.5 L243.7,225.8 L244.9,232.1 L246.1,238.4 L247.3,244.7 L247.4,250.9 L246.0,257.2 L244.7,263.5 L243.3,269.7 L242.0,276.0" fill="none" stroke="#2dd4bf" stroke-width="19" stroke-linecap="round" stroke-linejoin="round" opacity="0.95"/><path d="M240.0,206.9 L241.2,213.2 L242.5,219.5 L243.7,225.8 L244.9,232.1 L246.1,238.4 L247.3,244.7 L247.4,250.9 L246.0,257.2 L244.7,263.5 L243.3,269.7 L242.0,276.0" fill="none" stroke="#0c2020" stroke-width="11" stroke-linecap="round" stroke-linejoin="round" opacity="1.0"/><path d="M240.0,129.2 L240.0,136.3 L240.0,143.3 L240.0,150.4 L240.0,157.5 L240.0,164.5 L240.0,171.6 L240.0,178.7 L240.0,185.7 L240.0,192.8 L240.0,199.9 L240.0,206.9" fill="none" stroke="#2dd4bf" stroke-width="23" stroke-linecap="round" stroke-linejoin="round" opacity="0.95"/><path d="M240.0,129.2 L240.0,136.3 L240.0,143.3 L240.0,150.4 L240.0,157.5 L240.0,164.5 L240.0,171.6 L240.0,178.7 L240.0,185.7 L240.0,192.8 L240.0,199.9 L240.0,206.9" fill="none" stroke="#0c2020" stroke-width="15" stroke-linecap="round" stroke-linejoin="round" opacity="1.0"/><circle cx="240.0" cy="101.2" r="19.0" fill="#2dd4bf" stroke="none" stroke-width="0" opacity="0.95"/><circle cx="240.0" cy="101.2" r="15.0" fill="#0c2020" stroke="none" stroke-width="6.3" opacity="1.0"/><path d="M238.0,84.2 L235.0,87.2 L232.0,90.2 L229.1,93.1 L226.1,96.1 L223.1,99.1 L220.1,102.1 L219.5,105.7 L220.4,109.9 L221.3,114.0 L222.1,118.1 L223.0,122.2" fill="none" stroke="#2dd4bf" stroke-width="5" stroke-linecap="round" stroke-linejoin="round" opacity="1.0"/><path d="M230.7,98.2 L232.4,98.2 L234.1,98.2 L235.8,98.2 L237.5,98.2 L239.2,98.2 L240.8,98.2 L242.5,98.2 L244.2,98.2 L245.9,98.2 L247.6,98.2 L249.3,98.2" fill="none" stroke="#a7f3ee" stroke-width="5" stroke-linecap="round" stroke-linejoin="round" opacity="1.0"/></g></svg>
