<svg xmlns="http://www.w3.org/2000/svg" viewBox="0 0 480 320"><style>@keyframes k0{0%{opacity:1}11.111%{opacity:0}100%{opacity:0}}.f0{opacity:0;animation:k0 2.4s steps(1,end) infinite}@keyframes k1{0%{opacity:0}11.111%{opacity:1}16.667%{opacity:0}100%{opacity:0}}.f1{opacity:0;animation:k1 2.4s steps(1,end) infinite}@keyframes k2{0%{opacity:0}16.667%{opacity:1}22.222%{opacity:0}100%{opacity:0}}.f2{opacity:0;animation:k2 2.4s steps(1,end) infinite}@keyframes k3{0%{opacity:0}22.222%{opacity:1}27.778%{opacity:0}100%{opacity:0}}.f3{opacity:0;animation:k3 2.4s steps(1,end) infinite}@keyframes k4{0%{opacity:0}27.778%{opacity:1}33.333%{opacity:0}100%{opacity:0}}.f4{opacity:0;animation:k4 2.4s steps(1,end) infinite}@keyframes k5{0%{opacity:0}33.333%{opacity:1}38.889%{opacity:0}100%{opacity:0}}.f5{opacity:0;animation:k5 2.4s steps(1,end) infinite}@keyframes k6{0%{opacity:0}38.889%{opacity:1}44.444%{opacity:0}100%{opacity:0}}.f6{opacity:0;animation:k6 2.4s steps(1,end) infinite}@keyframes k7{0%{opacity:0}44.444%{opacity:1}50.000%{opacity:0}100%{opacity:0}}.f7{opacity:0;animation:k7 2.4s steps(1,end) infinite}@keyframes k8{0%{opacity:0}50.000%{opacity:1}61.111%{opacity:0}100%{opacity:0}}.f8{opacity:0;animation:k8 2.4s steps(1,end) infinite}@keyframes k9{0%{opacity:0}61.111%{opacity:1}66.667%{opacity:0}100%{opacity:0}}.f9{opacity:0;animation:k9 2.4s steps(1,end) infinite}@keyframes k10{0%{opacity:0}66.667%{opacity:1}72.222%{opacity:0}100%{opacity:0}}.f10{opacity:0;animation:k10 2.4s steps(1,end) infinite}@keyframes k11{0%{opacity:0}72.222%{opacity:1}77.778%{opacity:0}100%{opacity:0}}.f11{opacity:0;animation:k11 2.4s steps(1,end) infinite}@keyframes k12{0%{opacity:0}77.778%{opacity:1}83.333%{opacity:0}100%{opacity:0}}.f12{opacity:0;animation:k12 2.4s steps(1,end) infinite}@keyframes k13{0%{opacity:0}83.333%{opacity:1}88.889%{opacity:0}100%{opacity:0}}.f13{opacity:0;animation:k13 2.4s steps(1,end) infinite}@keyframes k14{0%{opacity:0}88.889%{opacity:1}94.444%{opacity:0}100%{opacity:0}}.f14{opacity:0;animation:k14 2.4s steps(1,end) infinite}@keyframes k15{0%{opacity:0}94.444%{opacity:1}100%{opacity:1}}.f15{opacity:0;animation:k15 2.4s steps(1,end) infinite}</style><path d="M206.0,0.0 L206.0,86.0" fill="none" stroke="#fbbf24" stroke-width="4" stroke-linecap="round" stroke-linejoin="round" opacity="1.0"/><circle cx="206.0" cy="96.0" r="10.0" fill="none" stroke="#fbbf24" stroke-width="5" opacity="1.0"/><path d="M274.0,0.0 L274.0,86.0" fill="none" stroke="#fbbf24" stroke-width="4" stroke-linecap="round" stroke-linejoin="round" opacity="1.0"/><circle cx="274.0" cy="96.0" r="10.0" fill="none" stroke="#fbbf24" stroke-width="5" opacity="1.0"/><path d="M240.0,140.0 L206.0,96.0" fill="none" stroke="#0d9488" stroke-width="21" stroke-linecap="round" stroke-linejoin="round" opacity="0.95"/><path d="M240.0,140.0 L206.0,96.0" fill="none" stroke="#0c2020" stroke-width="13" stroke-linecap="round" stroke-linejoin="round" opacity="1.0"/><path d="M240.0,140.0 L274.0,96.0" fill="none" stroke="#2dd4bf" stroke-width="21" stroke-linecap="round" stroke-linejoin="round" opacity="0.95"/><path d="M240.0,140.0 L274.0,96.0" fill="none" stroke="#0c2020" stroke-width="13" stroke-linecap="round" stroke-linejoin="round" opacity="1.0"/><path d="M240.0,140.0 L240.0,214.0" fill="none" stroke="#f43f5e" stroke-width="25" stroke-linecap="round" stroke-linejoin="round" opacity="0.95"/><path d="M240.0,140.0 L240.0,214.0" fill="none" stroke="#0c2020" stroke-width="17" stroke-linecap="round" stroke-linejoin="round" opacity="1.0"/><circle cx="240.0" cy="114.0" r="19.0" fill="#f43f5e" stroke="none" stroke-width="0" opacity="0.95"/><circle cx="240.0" cy="114.0" r="15.0" fill="#0c2020" stroke="none" stroke-width="6.3" opacity="1.0"/><path d="M230.7,111.0 L249.3,111.0" fill="none" stroke="#a7f3ee" stroke-width="5" stroke-linecap="round" stroke-linejoin="round" opacity="1.0"/><g class="f0"><path d="M240.0,214.0 L245.4,215.9 L250.8,217.8 L256.1,219.7 L261.5,221.6 L266.9,223.5 L272.3,225.4 L274.9,229.8 L276.2,235.3 L277.4,240.9 L278.7,246.4 L280.0,252.0" fill="none" stroke="#0d9488" stroke-width="21" stroke-linecap="round" stroke-linejoin="round" opacity="0.95"/><path d="M240.0,214.0 L245.4,215.9 L250.8,217.8 L256.1,219.7 L261.5,221.6 L266.9,223.5 L272.3,225.4 L274.9,229.8 L276.2,235.3 L277.4,240.9 L278.7,246.4 L280.0,252.0" fill="none" stroke="#0c2020" stroke-width="13" stroke-linecap="round" stroke-linejoin="round" opacity="1.0"/><path d="M240.0,214.0 L245.7,216.4 L251.5,218.8 L257.2,221.2 L262.9,223.7 L268.7,226.1 L274.4,228.5 L278.7,232.2 L280.5,238.2 L282.3,244.1 L284.2,250.1 L286.0,256.0" fill="none" stroke="#2dd4bf" stroke-width="21" stroke-linecap="round" stroke-linejoin="round" opacity="0.95"/><path d="M240.0,214.0 L245.7,216.4 L251.5,218.8 L257.2,221.2 L262.9,223.7 L268.7,226.1 L274.4,228.5 L278.7,232.2 L280.5,238.2 L282.3,244.1 L284.2,250.1 L286.0,256.0" fill="none" stroke="#0c2020" stroke-width="13" stroke-linecap="round" stroke-linejoin="round" opacity="1.0"/></g><g class="f1"><path d="M240.0,214.0 L245.4,215.8 L250.8,217.7 L256.2,219.5 L261.5,221.3 L266.9,223.2 L272.3,225.0 L274.9,229.4 L276.2,234.9 L277.4,240.5 L278.7,246.0 L280.0,251.6" fill="none" stroke="#0d9488" stroke-width="21" stroke-linecap="round" stroke-linejoin="round" opacity="0.95"/><path d="M240.0,214.0 L245.4,215.8 L250.8,217.7 L256.2,219.5 L261.5,221.3 L266.9,223.2 L272.3,225.0 L274.9,229.4 L276.2,234.9 L277.4,240.5 L278.7,246.0 L280.0,251.6" fill="none" stroke="#0c2020" stroke-width="13" stroke-linecap="round" stroke-linejoin="round" opacity="1.0"/><path d="M240.0,214.0 L245.7,216.4 L251.5,218.7 L257.2,221.1 L263.0,223.4 L268.7,225.8 L274.4,228.1 L278.7,231.8 L280.5,237.8 L282.3,243.7 L284.2,249.6 L286.0,255.6" fill="none" stroke="#2dd4bf" stroke-width="21" stroke-linecap="round" stroke-linejoin="round" opacity="0.95"/><path d="M240.0,214.0 L245.7,216.4 L251.5,218.7 L257.2,221.1 L263.0,223.4 L268.7,225.8 L274.4,228.1 L278.7,231.8 L280.5,237.8 L282.3,243.7 L284.2,249.6 L286.0,255.6" fill="none" stroke="#0c2020" stroke-width="13" stroke-linecap="round" stroke-linejoin="round" opacity="1.0"/></g><g class="f2"><path d="M240.0,214.0 L245.4,215.7 L250.8,217.3 L256.2,219.0 L261.6,220.6 L267.0,222.3 L272.4,223.9 L274.9,228.3 L276.2,233.8 L277.4,239.4 L278.7,244.9 L280.0,250.4" fill="none" stroke="#0d9488" stroke-width="21" stroke-linecap="round" stroke-linejoin="round" opacity="0.95"/><path d="M240.0,214.0 L245.4,215.7 L250.8,217.3 L256.2,219.0 L261.6,220.6 L267.0,222.3 L272.4,223.9 L274.9,228.3 L276.2,233.8 L277.4,239.4 L278.7,244.9 L280.0,250.4" fill="none" stroke="#0c2020" stroke-width="13" stroke-linecap="round" stroke-linejoin="round" opacity="1.0"/><path d="M240.0,214.0 L245.8,216.2 L251.5,218.4 L257.3,220.5 L263.0,222.7 L268.8,224.9 L274.6,227.1 L278.7,230.8 L280.5,236.7 L282.4,242.6 L284.2,248.5 L286.0,254.4" fill="none" stroke="#2dd4bf" stroke-width="21" stroke-linecap="round" stroke-linejoin="round" opacity="0.95"/><path d="M240.0,214.0 L245.8,216.2 L251.5,218.4 L257.3,220.5 L263.0,222.7 L268.8,224.9 L274.6,227.1 L278.7,230.8 L280.5,236.7 L282.4,242.6 L284.2,248.5 L286.0,254.4" fill="none" stroke="#0c2020" stroke-width="13" stroke-linecap="round" stroke-linejoin="round" opacity="1.0"/></g><g class="f3"><path d="M240.0,214.0 L245.4,215.4 L250.8,216.8 L256.3,218.2 L261.7,219.6 L267.1,221.0 L272.5,222.4 L274.9,226.8 L276.2,232.3 L277.5,237.8 L278.7,243.3 L280.0,248.8" fill="none" stroke="#0d9488" stroke-width="21" stroke-linecap="round" stroke-linejoin="round" opacity="0.95"/><path d="M240.0,214.0 L245.4,215.4 L250.8,216.8 L256.3,218.2 L261.7,219.6 L267.1,221.0 L272.5,222.4 L274.9,226.8 L276.2,232.3 L277.5,237.8 L278.7,243.3 L280.0,248.8" fill="none" stroke="#0c2020" stroke-width="13" stroke-linecap="round" stroke-linejoin="round" opacity="1.0"/><path d="M240.0,214.0 L245.8,215.9 L251.6,217.9 L257.4,219.8 L263.1,221.8 L268.9,223.7 L274.7,225.7 L278.8,229.4 L280.6,235.2 L282.4,241.1 L284.2,247.0 L286.0,252.8" fill="none" stroke="#2dd4bf" stroke-width="21" stroke-linecap="round" stroke-linejoin="round" opacity="0.95"/><path d="M240.0,214.0 L245.8,215.9 L251.6,217.9 L257.4,219.8 L263.1,221.8 L268.9,223.7 L274.7,225.7 L278.8,229.4 L280.6,235.2 L282.4,241.1 L284.2,247.0 L286.0,252.8" fill="none" stroke="#0c2020" stroke-width="13" stroke-linecap="round" stroke-linejoin="round" opacity="1.0"/></g><g class="f4"><path d="M240.0,214.0 L245.4,215.1 L250.9,216.2 L256.3,217.3 L261.8,218.4 L267.2,219.6 L272.7,220.7 L275.0,225.1 L276.2,230.6 L277.5,236.1 L278.7,241.5 L280.0,247.0" fill="none" stroke="#0d9488" stroke-width="21" stroke-linecap="round" stroke-linejoin="round" opacity="0.95"/><path d="M240.0,214.0 L245.4,215.1 L250.9,216.2 L256.3,217.3 L261.8,218.4 L267.2,219.6 L272.7,220.7 L275.0,225.1 L276.2,230.6 L277.5,236.1 L278.7,241.5 L280.0,247.0" fill="none" stroke="#0c2020" stroke-width="13" stroke-linecap="round" stroke-linejoin="round" opacity="1.0"/><path d="M240.0,214.0 L245.8,215.7 L251.6,217.3 L257.4,219.0 L263.3,220.7 L269.1,222.4 L274.9,224.0 L278.8,227.7 L280.6,233.5 L282.4,239.3 L284.2,245.2 L286.0,251.0" fill="none" stroke="#2dd4bf" stroke-width="21" stroke-linecap="round" stroke-linejoin="round" opacity="0.95"/><path d="M240.0,214.0 L245.8,215.7 L251.6,217.3 L257.4,219.0 L263.3,220.7 L269.1,222.4 L274.9,224.0 L278.8,227.7 L280.6,233.5 L282.4,239.3 L284.2,245.2 L286.0,251.0" fill="none" stroke="#0c2020" stroke-width="13" stroke-linecap="round" stroke-linejoin="round" opacity="1.0"/></g><g class="f5"><path d="M240.0,214.0 L245.5,214.8 L250.9,215.6 L256.4,216.5 L261.9,217.3 L267.4,218.1 L272.8,218.9 L275.0,223.4 L276.2,228.9 L277.5,234.3 L278.7,239.7 L280.0,245.2" fill="none" stroke="#0d9488" stroke-width="21" stroke-linecap="round" stroke-linejoin="round" opacity="0.95"/><path d="M240.0,214.0 L245.5,214.8 L250.9,215.6 L256.4,216.5 L261.9,217.3 L267.4,218.1 L272.8,218.9 L275.0,223.4 L276.2,228.9 L277.5,234.3 L278.7,239.7 L280.0,245.2" fill="none" stroke="#0c2020" stroke-width="13" stroke-linecap="round" stroke-linejoin="round" opacity="1.0"/><path d="M240.0,214.0 L245.8,215.4 L251.7,216.8 L257.5,218.2 L263.4,219.6 L269.2,221.0 L275.1,222.4 L278.9,226.0 L280.7,231.8 L282.4,237.6 L284.2,243.4 L286.0,249.2" fill="none" stroke="#2dd4bf" stroke-width="21" stroke-linecap="round" stroke-linejoin="round" opacity="0.95"/><path d="M240.0,214.0 L245.8,215.4 L251.7,216.8 L257.5,218.2 L263.4,219.6 L269.2,221.0 L275.1,222.4 L278.9,226.0 L280.7,231.8 L282.4,237.6 L284.2,243.4 L286.0,249.2" fill="none" stroke="#0c2020" stroke-width="13" stroke-linecap="round" stroke-linejoin="round" opacity="1.0"/></g><g class="f6"><path d="M240.0,214.0 L245.5,214.6 L251.0,215.1 L256.5,215.7 L262.0,216.3 L267.5,216.9 L272.9,217.4 L275.0,221.9 L276.3,227.3 L277.5,232.7 L278.8,238.2 L280.0,243.6" fill="none" stroke="#0d9488" stroke-width="21" stroke-linecap="round" stroke-linejoin="round" opacity="0.95"/><path d="M240.0,214.0 L245.5,214.6 L251.0,215.1 L256.5,215.7 L262.0,216.3 L267.5,216.9 L272.9,217.4 L275.0,221.9 L276.3,227.3 L277.5,232.7 L278.8,238.2 L280.0,243.6" fill="none" stroke="#0c2020" stroke-width="13" stroke-linecap="round" stroke-linejoin="round" opacity="1.0"/><path d="M240.0,214.0 L245.9,215.2 L251.7,216.3 L257.6,217.5 L263.5,218.7 L269.4,219.8 L275.2,221.0 L278.9,224.6 L280.7,230.3 L282.5,236.1 L284.2,241.8 L286.0,247.6" fill="none" stroke="#2dd4bf" stroke-width="21" stroke-linecap="round" stroke-linejoin="round" opacity="0.95"/><path d="M240.0,214.0 L245.9,215.2 L251.7,216.3 L257.6,217.5 L263.5,218.7 L269.4,219.8 L275.2,221.0 L278.9,224.6 L280.7,230.3 L282.5,236.1 L284.2,241.8 L286.0,247.6" fill="none" stroke="#0c2020" stroke-width="13" stroke-linecap="round" stroke-linejoin="round" opacity="1.0"/></g><g class="f7"><path d="M240.0,214.0 L245.5,214.4 L251.0,214.8 L256.5,215.2 L262.0,215.6 L267.5,216.0 L273.0,216.4 L275.0,220.9 L276.3,226.3 L277.5,231.7 L278.8,237.0 L280.0,242.4" fill="none" stroke="#0d9488" stroke-width="21" stroke-linecap="round" stroke-linejoin="round" opacity="0.95"/><path d="M240.0,214.0 L245.5,214.4 L251.0,214.8 L256.5,215.2 L262.0,215.6 L267.5,216.0 L273.0,216.4 L275.0,220.9 L276.3,226.3 L277.5,231.7 L278.8,237.0 L280.0,242.4" fill="none" stroke="#0c2020" stroke-width="13" stroke-linecap="round" stroke-linejoin="round" opacity="1.0"/><path d="M240.0,214.0 L245.9,215.0 L251.8,216.0 L257.7,217.0 L263.6,218.0 L269.5,219.0 L275.3,220.0 L279.0,223.6 L280.7,229.3 L282.5,235.0 L284.2,240.7 L286.0,246.4" fill="none" stroke="#2dd4bf" stroke-width="21" stroke-linecap="round" stroke-linejoin="round" opacity="0.95"/><path d="M240.0,214.0 L245.9,215.0 L251.8,216.0 L257.7,217.0 L263.6,218.0 L269.5,219.0 L275.3,220.0 L279.0,223.6 L280.7,229.3 L282.5,235.0 L284.2,240.7 L286.0,246.4" fill="none" stroke="#0c2020" stroke-width="13" stroke-linecap="round" stroke-linejoin="round" opacity="1.0"/></g><g class="f8"><path d="M240.0,214.0 L245.5,214.3 L251.0,214.6 L256.5,215.0 L262.0,215.3 L267.6,215.6 L273.1,215.9 L275.0,220.5 L276.3,225.9 L277.5,231.2 L278.8,236.6 L280.0,242.0" fill="none" stroke="#0d9488" stroke-width="21" stroke-linecap="round" stroke-linejoin="round" opacity="0.95"/><path d="M240.0,214.0 L245.5,214.3 L251.0,214.6 L256.5,215.0 L262.0,215.3 L267.6,215.6 L273.1,215.9 L275.0,220.5 L276.3,225.9 L277.5,231.2 L278.8,236.6 L280.0,242.0" fill="none" stroke="#0c2020" stroke-width="13" stroke-linecap="round" stroke-linejoin="round" opacity="1.0"/><path d="M240.0,214.0 L245.9,214.9 L251.8,215.9 L257.7,216.8 L263.6,217.7 L269.5,218.7 L275.4,219.6 L279.0,223.2 L280.7,228.9 L282.5,234.6 L284.2,240.3 L286.0,246.0" fill="none" stroke="#2dd4bf" stroke-width="21" stroke-linecap="round" stroke-linejoin="round" opacity="0.95"/><path d="M240.0,214.0 L245.9,214.9 L251.8,215.9 L257.7,216.8 L263.6,217.7 L269.5,218.7 L275.4,219.6 L279.0,223.2 L280.7,228.9 L282.5,234.6 L284.2,240.3 L286.0,246.0" fill="none" stroke="#0c2020" stroke-width="13" stroke-linecap="round" stroke-linejoin="round" opacity="1.0"/></g><g class="f9"><path d="M240.0,214.0 L245.5,214.4 L251.0,214.8 L256.5,215.2 L262.0,215.6 L267.5,216.0 L273.0,216.4 L275.0,220.9 L276.3,226.3 L277.5,231.7 L278.8,237.0 L280.0,242.4" fill="none" stroke="#0d9488" stroke-width="21" stroke-linecap="round" stroke-linejoin="round" opacity="0.95"/><path d="M240.0,214.0 L245.5,214.4 L251.0,214.8 L256.5,215.2 L262.0,215.6 L267.5,216.0 L273.0,216.4 L275.0,220.9 L276.3,226.3 L277.5,231.7 L278.8,237.0 L280.0,242.4" fill="none" stroke="#0c2020" stroke-width="13" stroke-linecap="round" stroke-linejoin="round" opacity="1.0"/><path d="M240.0,214.0 L245.9,215.0 L251.8,216.0 L257.7,217.0 L263.6,218.0 L269.5,219.0 L275.3,220.0 L279.0,223.6 L280.7,229.3 L282.5,235.0 L284.2,240.7 L286.0,246.4" fill="none" stroke="#2dd4bf" stroke-width="21" stroke-linecap="round" stroke-linejoin="round" opacity="0.95"/><path d="M240.0,214.0 L245.9,215.0 L251.8,216.0 L257.7,217.0 L263.6,218.0 L269.5,219.0 L275.3,220.0 L279.0,223.6 L280.7,229.3 L282.5,235.0 L284.2,240.7 L286.0,246.4" fill="none" stroke="#0c2020" stroke-width="13" stroke-linecap="round" stroke-linejoin="round" opacity="1.0"/></g><g class="f10"><path d="M240.0,214.0 L245.5,214.6 L251.0,215.1 L256.5,215.7 L262.0,216.3 L267.5,216.9 L272.9,217.4 L275.0,221.9 L276.3,227.3 L277.5,232.7 L278.8,238.2 L280.0,243.6" fill="none" stroke="#0d9488" stroke-width="21" stroke-linecap="round" stroke-linejoin="round" opacity="0.95"/><path d="M240.0,214.0 L245.5,214.6 L251.0,215.1 L256.5,215.7 L262.0,216.3 L267.5,216.9 L272.9,217.4 L275.0,221.9 L276.3,227.3 L277.5,232.7 L278.8,238.2 L280.0,243.6" fill="none" stroke="#0c2020" stroke-width="13" stroke-linecap="round" stroke-linejoin="round" opacity="1.0"/><path d="M240.0,214.0 L245.9,215.2 L251.7,216.3 L257.6,217.5 L263.5,218.7 L269.4,219.8 L275.2,221.0 L278.9,224.6 L280.7,230.3 L282.5,236.1 L284.2,241.8 L286.0,247.6" fill="none" stroke="#2dd4bf" stroke-width="21" stroke-linecap="round" stroke-linejoin="round" opacity="0.95"/><path d="M240.0,214.0 L245.9,215.2 L251.7,216.3 L257.6,217.5 L263.5,218.7 L269.4,219.8 L275.2,221.0 L278.9,224.6 L280.7,230.3 L282.5,236.1 L284.2,241.8 L286.0,247.6" fill="none" stroke="#0c2020" stroke-width="13" stroke-linecap="round" stroke-linejoin="round" opacity="1.0"/></g><g class="f11"><path d="M240.0,214.0 L245.5,214.8 L250.9,215.6 L256.4,216.5 L261.9,217.3 L267.4,218.1 L272.8,218.9 L275.0,223.4 L276.2,228.9 L277.5,234.3 L278.7,239.7 L280.0,245.2" fill="none" stroke="#0d9488" stroke-width="21" stroke-linecap="round" stroke-linejoin="round" opacity="0.95"/><path d="M240.0,214.0 L245.5,214.8 L250.9,215.6 L256.4,216.5 L261.9,217.3 L267.4,218.1 L272.8,218.9 L275.0,223.4 L276.2,228.9 L277.5,234.3 L278.7,239.7 L280.0,245.2" fill="none" stroke="#0c2020" stroke-width="13" stroke-linecap="round" stroke-linejoin="round" opacity="1.0"/><path d="M240.0,214.0 L245.8,215.4 L251.7,216.8 L257.5,218.2 L263.4,219.6 L269.2,221.0 L275.1,222.4 L278.9,226.0 L280.7,231.8 L282.4,237.6 L284.2,243.4 L286.0,249.2" fill="none" stroke="#2dd4bf" stroke-width="21" stroke-linecap="round" stroke-linejoin="round" opacity="0.95"/><path d="M240.0,214.0 L245.8,215.4 L251.7,216.8 L257.5,218.2 L263.4,219.6 L269.2,221.0 L275.1,222.4 L278.9,226.0 L280.7,231.8 L282.4,237.6 L284.2,243.4 L286.0,249.2" fill="none" stroke="#0c2020" stroke-width="13" stroke-linecap="round" stroke-linejoin="round" opacity="1.0"/></g><g class="f12"><path d="M240.0,214.0 L245.4,215.1 L250.9,216.2 L256.3,217.3 L261.8,218.4 L267.2,219.6 L272.7,220.7 L275.0,225.1 L276.2,230.6 L277.5,236.1 L278.7,241.5 L280.0,247.0" fill="none" stroke="#0d9488" stroke-width="21" stroke-linecap="round" stroke-linejoin="round" opacity="0.95"/><path d="M240.0,214.0 L245.4,215.1 L250.9,216.2 L256.3,217.3 L261.8,218.4 L267.2,219.6 L272.7,220.7 L275.0,225.1 L276.2,230.6 L277.5,236.1 L278.7,241.5 L280.0,247.0" fill="none" stroke="#0c2020" stroke-width="13" stroke-linecap="round" stroke-linejoin="round" opacity="1.0"/><path d="M240.0,214.0 L245.8,215.7 L251.6,217.3 L257.4,219.0 L263.3,220.7 L269.1,222.4 L274.9,224.0 L278.8,227.7 L280.6,233.5 L282.4,239.3 L284.2,245.2 L286.0,251.0" fill="none" stroke="#2dd4bf" stroke-width="21" stroke-linecap="round" stroke-linejoin="round" opacity="0.95"/><path d="M240.0,214.0 L245.8,215.7 L251.6,217.3 L257.4,219.0 L263.3,220.7 L269.1,222.4 L274.9,224.0 L278.8,227.7 L280.6,233.5 L282.4,239.3 L284.2,245.2 L286.0,251.0" fill="none" stroke="#0c2020" stroke-width="13" stroke-linecap="round" stroke-linejoin="round" opacity="1.0"/></g><g class="f13"><path d="M240.0,214.0 L245.4,215.4 L250.8,216.8 L256.3,218.2 L261.7,219.6 L267.1,221.0 L272.5,222.4 L274.9,226.8 L276.2,232.3 L277.5,237.8 L278.7,243.3 L280.0,248.8" fill="none" stroke="#0d9488" stroke-width="21" stroke-linecap="round" stroke-linejoin="round" opacity="0.95"/><path d="M240.0,214.0 L245.4,215.4 L250.8,216.8 L256.3,218.2 L261.7,219.6 L267.1,221.0 L272.5,222.4 L274.9,226.8 L276.2,232.3 L277.5,237.8 L278.7,243.3 L280.0,248.8" fill="none" stroke="#0c2020" stroke-width="13" stroke-linecap="round" stroke-linejoin="round" opacity="1.0"/><path d="M240.0,214.0 L245.8,215.9 L251.6,217.9 L257.4,219.8 L263.1,221.8 L268.9,223.7 L274.7,225.7 L278.8,229.4 L280.6,235.2 L282.4,241.1 L284.2,247.0 L286.0,252.8" fill="none" stroke="#2dd4bf" stroke-width="21" stroke-linecap="round" stroke-linejoin="round" opacity="0.95"/><path d="M240.0,214.0 L245.8,215.9 L251.6,217.9 L257.4,219.8 L263.1,221.8 L268.9,223.7 L274.7,225.7 L278.8,229.4 L280.6,235.2 L282.4,241.1 L284.2,247.0 L286.0,252.8" fill="none" stroke="#0c2020" stroke-width="13" stroke-linecap="round" stroke-linejoin="round" opacity="1.0"/></g><g class="f14"><path d="M240.0,214.0 L245.4,215.7 L250.8,217.3 L256.2,219.0 L261.6,220.6 L267.0,222.3 L272.4,223.9 L274.9,228.3 L276.2,233.8 L277.4,239.4 L278.7,244.9 L280.0,250.4" fill="none" stroke="#0d9488" stroke-width="21" stroke-linecap="round" stroke-linejoin="round" opacity="0.95"/><path d="M240.0,214.0 L245.4,215.7 L250.8,217.3 L256.2,219.0 L261.6,220.6 L267.0,222.3 L272.4,223.9 L274.9,228.3 L276.2,233.8 L277.4,239.4 L278.7,244.9 L280.0,250.4" fill="none" stroke="#0c2020" stroke-width="13" stroke-linecap="round" stroke-linejoin="round" opacity="1.0"/><path d="M240.0,214.0 L245.8,216.2 L251.5,218.4 L257.3,220.5 L263.0,222.7 L268.8,224.9 L274.6,227.1 L278.7,230.8 L280.5,236.7 L282.4,242.6 L284.2,248.5 L286.0,254.4" fill="none" stroke="#2dd4bf" stroke-width="21" stroke-linecap="round" stroke-linejoin="round" opacity="0.95"/><path d="M240.0,214.0 L245.8,216.2 L251.5,218.4 L257.3,220.5 L263.0,222.7 L268.8,224.9 L274.6,227.1 L278.7,230.8 L280.5,236.7 L282.4,242.6 L284.2,248.5 L286.0,254.4" fill="none" stroke="#0c2020" stroke-width="13" stroke-linecap="round" stroke-linejoin="round" opacity="1.0"/></g><g class="f15"><path d="M240.0,214.0 L245.4,215.8 L250.8,217.7 L256.2,219.5 L261.5,221.3 L266.9,223.2 L272.3,225.0 L274.9,229.4 L276.2,234.9 L277.4,240.5 L278.7,246.0 L280.0,251.6" fill="none" stroke="#0d9488" stroke-width="21" stroke-linecap="round" stroke-linejoin="round" opacity="0.95"/><path d="M240.0,214.0 L245.4,215.8 L250.8,217.7 L256.2,219.5 L261.5,221.3 L266.9,223.2 L272.3,225.0 L274.9,229.4 L276.2,234.9 L277.4,240.5 L278.7,246.0 L280.0,251.6" fill="none" stroke="#0c2020" stroke-width="13" stroke-linecap="round" stroke-linejoin="round" opacity="1.0"/><path d="M240.0,214.0 L245.7,216.4 L251.5,218.7 L257.2,221.1 L263.0,223.4 L268.7,225.8 L274.4,228.1 L278.7,231.8 L280.5,237.8 L282.3,243.7 L284.2,249.6 L286.0,255.6" fill="none" stroke="#2dd4bf" stroke-width="21" stroke-linecap="round" stroke-linejoin="round" opacity="0.95"/><path d="M240.0,214.0 L245.7,216.4 L251.5,218.7 L257.2,221.1 L263.0,223.4 L268.7,225.8 L274.4,228.1 L278.7,231.8 L280.5,237.8 L282.3,243.7 L284.2,249.6 L286.0,255.6" fill="none" stroke="#0c2020" stroke-width="13" stroke-linecap="round" stroke-linejoin="round" opacity="1.0"/></g></svg>
