<svg xmlns="http://www.w3.org/2000/svg" viewBox="0 0 480 320"><style>@keyframes k0{0%{opacity:1}11.111%{opacity:0}100%{opacity:0}}.f0{opacity:0;animation:k0 2.4s steps(1,end) infinite}@keyframes k1{0%{opacity:0}11.111%{opacity:1}16.667%{opacity:0}100%{opacity:0}}.f1{opacity:0;animation:k1 2.4s steps(1,end) infinite}@keyframes k2{0%{opacity:0}16.667%{opacity:1}22.222%{opacity:0}100%{opacity:0}}.f2{opacity:0;animation:k2 2.4s steps(1,end) infinite}@keyframes k3{0%{opacity:0}22.222%{opacity:1}27.778%{opacity:0}100%{opacity:0}}.f3{opacity:0;animation:k3 2.4s steps(1,end) infinite}@keyframes k4{0%{opacity:0}27.778%{opacity:1}33.333%{opacity:0}100%{opacity:0}}.f4{opacity:0;animation:k4 2.4s steps(1,end) infinite}@keyframes k5{0%{opacity:0}33.333%{opacity:1}38.889%{opacity:0}100%{opacity:0}}.f5{opacity:0;animation:k5 2.4s steps(1,end) infinite}@keyframes k6{0%{opacity:0}38.889%{opacity:1}44.444%{opacity:0}100%{opacity:0}}.f6{opacity:0;animation:k6 2.4s steps(1,end) infinite}@keyframes k7{0%{opacity:0}44.444%{opacity:1}50.000%{opacity:0}100%{opacity:0}}.f7{opacity:0;animation:k7 2.4s steps(1,end) infinite}@keyframes k8{0%{opacity:0}50.000%{opacity:1}61.111%{opacity:0}100%{opacity:0}}.f8{opacity:0;animation:k8 2.4s steps(1,end) infinite}@keyframes k9{0%{opacity:0}61.111%{opacity:1}66.667%{opacity:0}100%{opacity:0}}.f9{opacity:0;animation:k9 2.4s steps(1,end) infinite}@keyframes k10{0%{opacity:0}66.667%{opacity:1}72.222%{opacity:0}100%{opacity:0}}.f10{opacity:0;animation:k10 2.4s steps(1,end) infinite}@keyframes k11{0%{opacity:0}72.222%{opacity:1}77.778%{opacity:0}100%{opacity:0}}.f11{opacity:0;animation:k11 2.4s steps(1,end) infinite}@keyframes k12{0%{opacity:0}77.778%{opacity:1}83.333%{opacity:0}100%{opacity:0}}.f12{opacity:0;animation:k12 2.4s steps(1,end) infinite}@keyframes k13{0%{opacity:0}83.333%{opacity:1}88.889%{opacity:0}100%{opacity:0}}.f13{opacity:0;animation:k13 2.4s steps(1,end) infinite}@keyframes k14{0%{opacity:0}88.889%{opacity:1}94.444%{opacity:0}100%{opacity:0}}.f14{opacity:0;animation:k14 2.4s steps(1,end) infinite}@keyframes k15{0%{opacity:0}94.444%{opacity:1}100%{opacity:1}}.f15{opacity:0;animation:k15 2.4s steps(1,end) infinite}</style><path d="M40.0,292.0 L440.0,292.0" fill="none" stroke="#1f3333" stroke-width="6" stroke-linecap="round" stroke-linejoin="round" opacity="1.0"/><g class="f0"><path d="M240.0,118.0 L235.8,123.9 L231.5,129.8 L227.3,135.8 L223.1,141.7 L218.9,147.6 L214.6,153.5 L210.4,159.4 L204.9,164.2 L199.3,168.8 L193.6,173.4 L188.0,178.0" fill="none" stroke="#0d9488" stroke-width="19" stroke-linecap="round" stroke-linejoin="round" opacity="0.95"/><path d="M240.0,118.0 L235.8,123.9 L231.5,129.8 L227.3,135.8 L223.1,141.7 L218.9,147.6 L214.6,153.5 L210.4,159.4 L204.9,164.2 L199.3,168.8 L193.6,173.4 L188.0,178.0" fill="none" stroke="#0c2020" stroke-width="11" stroke-linecap="round" stroke-linejoin="round" opacity="1.0"/><path d="M240.0,118.0 L244.2,123.9 L248.5,129.8 L252.7,135.8 L256.9,141.7 L261.1,147.6 L265.4,153.5 L269.6,159.4 L275.1,164.2 L280.7,168.8 L286.4,173.4 L292.0,178.0" fill="none" stroke="#2dd4bf" stroke-width="19" stroke-linecap="round" stroke-linejoin="round" opacity="0.95"/><path d="M240.0,118.0 L244.2,123.9 L248.5,129.8 L252.7,135.8 L256.9,141.7 L261.1,147.6 L265.4,153.5 L269.6,159.4 L275.1,164.2 L280.7,168.8 L286.4,173.4 L292.0,178.0" fill="none" stroke="#0c2020" stroke-width="11" stroke-linecap="round" stroke-linejoin="round" opacity="1.0"/><path d="M240.0,192.0 L238.9,201.1 L237.7,210.1 L236.6,219.2 L235.5,228.2 L234.3,237.3 L233.8,246.4 L233.4,255.5 L233.1,264.6 L232.7,273.8 L232.4,282.9 L232.0,292.0" fill="none" stroke="#8f2a3e" stroke-width="19" stroke-linecap="round" stroke-linejoin="round" opacity="0.95"/><path d="M240.0,192.0 L238.9,201.1 L237.7,210.1 L236.6,219.2 L235.5,228.2 L234.3,237.3 L233.8,246.4 L233.4,255.5 L233.1,264.6 L232.7,273.8 L232.4,282.9 L232.0,292.0" fill="none" stroke="#0c2020" stroke-width="11" stroke-linecap="round" stroke-linejoin="round" opacity="1.0"/><path d="M240.0,192.0 L241.5,201.0 L243.0,210.1 L244.5,219.1 L246.0,228.1 L247.5,237.2 L247.8,246.3 L247.4,255.4 L247.1,264.6 L246.7,273.7 L246.4,282.9 L246.0,292.0" fill="none" stroke="#f43f5e" stroke-width="19" stroke-linecap="round" stroke-linejoin="round" opacity="0.95"/><path d="M240.0,192.0 L241.5,201.0 L243.0,210.1 L244.5,219.1 L246.0,228.1 L247.5,237.2 L247.8,246.3 L247.4,255.4 L247.1,264.6 L246.7,273.7 L246.4,282.9 L246.0,292.0" fill="none" stroke="#0c2020" stroke-width="11" stroke-linecap="round" stroke-linejoin="round" opacity="1.0"/><path d="M240.0,118.0 L240.0,124.7 L240.0,131.5 L240.0,138.2 L240.0,144.9 L240.0,151.6 L240.0,158.4 L240.0,165.1 L240.0,171.8 L240.0,178.5 L240.0,185.3 L240.0,192.0" fill="none" stroke="#2dd4bf" stroke-width="23" stroke-linecap="round" stroke-linejoin="round" opacity="0.95"/><path d="M240.0,118.0 L240.0,124.7 L240.0,131.5 L240.0,138.2 L240.0,144.9 L240.0,151.6 L240.0,158.4 L240.0,165.1 L240.0,171.8 L240.0,178.5 L240.0,185.3 L240.0,192.0" fill="none" stroke="#0c2020" stroke-width="15" stroke-linecap="round" stroke-linejoin="round" opacity="1.0"/><circle cx="242.0" cy="90.0" r="19.0" fill="#2dd4bf" stroke="none" stroke-width="0" opacity="0.95"/><circle cx="242.0" cy="90.0" r="15.0" fill="#0c2020" stroke="none" stroke-width="6.3" opacity="1.0"/><path d="M240.0,73.0 L237.0,76.0 L234.0,79.0 L231.1,81.9 L228.1,84.9 L225.1,87.9 L222.1,90.9 L221.5,94.5 L222.4,98.6 L223.3,102.8 L224.1,106.9 L225.0,111.0" fill="none" stroke="#2dd4bf" stroke-width="5" stroke-linecap="round" stroke-linejoin="round" opacity="1.0"/><path d="M232.7,87.0 L234.4,87.0 L236.1,87.0 L237.8,87.0 L239.5,87.0 L241.2,87.0 L242.8,87.0 L244.5,87.0 L246.2,87.0 L247.9,87.0 L249.6,87.0 L251.3,87.0" fill="none" stroke="#a7f3ee" stroke-width="5" stroke-linecap="round" stroke-linejoin="round" opacity="1.0"/><path d="M188.0,178.0 L194.3,192.7 L201.3,207.0 L209.4,220.7 L219.4,233.2 L232.2,242.3 L247.8,242.3 L260.6,233.2 L270.6,220.7 L278.7,207.0 L285.7,192.7 L292.0,178.0" fill="none" stroke="#fbbf24" stroke-width="4" stroke-linecap="round" stroke-linejoin="round" opacity="1.0"/></g><g class="f1"><path d="M240.0,117.1 L235.8,123.0 L231.6,128.9 L227.3,134.8 L223.1,140.7 L218.9,146.6 L214.7,152.5 L210.4,158.4 L205.0,163.0 L199.3,167.2 L193.7,171.5 L188.0,175.8" fill="none" stroke="#0d9488" stroke-width="19" stroke-linecap="round" stroke-linejoin="round" opacity="0.95"/><path d="M240.0,117.1 L235.8,123.0 L231.6,128.9 L227.3,134.8 L223.1,140.7 L218.9,146.6 L214.7,152.5 L210.4,158.4 L205.0,163.0 L199.3,167.2 L193.7,171.5 L188.0,175.8" fill="none" stroke="#0c2020" stroke-width="11" stroke-linecap="round" stroke-linejoin="round" opacity="1.0"/><path d="M240.0,117.1 L244.2,123.0 L248.4,128.9 L252.7,134.8 L256.9,140.7 L261.1,146.6 L265.3,152.5 L269.6,158.4 L275.0,163.0 L280.7,167.2 L286.3,171.5 L292.0,175.8" fill="none" stroke="#2dd4bf" stroke-width="19" stroke-linecap="round" stroke-linejoin="round" opacity="0.95"/><path d="M240.0,117.1 L244.2,123.0 L248.4,128.9 L252.7,134.8 L256.9,140.7 L261.1,146.6 L265.3,152.5 L269.6,158.4 L275.0,163.0 L280.7,167.2 L286.3,171.5 L292.0,175.8" fill="none" stroke="#0c2020" stroke-width="11" stroke-linecap="round" stroke-linejoin="round" opacity="1.0"/><path d="M240.0,191.1 L238.9,200.0 L237.7,209.0 L236.6,218.0 L235.5,227.0 L234.4,236.0 L233.8,245.0 L233.4,254.0 L233.0,263.1 L232.7,272.1 L232.3,281.2 L231.9,290.2" fill="none" stroke="#8f2a3e" stroke-width="19" stroke-linecap="round" stroke-linejoin="round" opacity="0.95"/><path d="M240.0,191.1 L238.9,200.0 L237.7,209.0 L236.6,218.0 L235.5,227.0 L234.4,236.0 L233.8,245.0 L233.4,254.0 L233.0,263.1 L232.7,272.1 L232.3,281.2 L231.9,290.2" fill="none" stroke="#0c2020" stroke-width="11" stroke-linecap="round" stroke-linejoin="round" opacity="1.0"/><path d="M240.0,191.1 L241.5,200.0 L243.0,209.0 L244.5,217.9 L246.0,226.9 L247.5,235.8 L247.8,244.9 L247.4,253.9 L247.0,263.0 L246.7,272.1 L246.3,281.1 L245.9,290.2" fill="none" stroke="#f43f5e" stroke-width="19" stroke-linecap="round" stroke-linejoin="round" opacity="0.95"/><path d="M240.0,191.1 L241.5,200.0 L243.0,209.0 L244.5,217.9 L246.0,226.9 L247.5,235.8 L247.8,244.9 L247.4,253.9 L247.0,263.0 L246.7,272.1 L246.3,281.1 L245.9,290.2" fill="none" stroke="#0c2020" stroke-width="11" stroke-linecap="round" stroke-linejoin="round" opacity="1.0"/><path d="M240.0,117.1 L240.0,123.8 L240.0,130.5 L240.0,137.2 L240.0,144.0 L240.0,150.7 L240.0,157.4 L240.0,164.1 L240.0,170.9 L240.0,177.6 L240.0,184.3 L240.0,191.1" fill="none" stroke="#2dd4bf" stroke-width="23" stroke-linecap="round" stroke-linejoin="round" opacity="0.95"/><path d="M240.0,117.1 L240.0,123.8 L240.0,130.5 L240.0,137.2 L240.0,144.0 L240.0,150.7 L240.0,157.4 L240.0,164.1 L240.0,170.9 L240.0,177.6 L240.0,184.3 L240.0,191.1" fill="none" stroke="#0c2020" stroke-width="15" stroke-linecap="round" stroke-linejoin="round" opacity="1.0"/><circle cx="242.0" cy="89.1" r="19.0" fill="#2dd4bf" stroke="none" stroke-width="0" opacity="0.95"/><circle cx="242.0" cy="89.1" r="15.0" fill="#0c2020" stroke="none" stroke-width="6.3" opacity="1.0"/><path d="M240.0,72.1 L237.0,75.0 L234.0,78.0 L231.1,81.0 L228.1,84.0 L225.1,86.9 L222.1,89.9 L221.5,93.6 L222.4,97.7 L223.3,101.8 L224.1,105.9 L225.0,110.1" fill="none" stroke="#2dd4bf" stroke-width="5" stroke-linecap="round" stroke-linejoin="round" opacity="1.0"/><path d="M232.7,86.1 L234.4,86.1 L236.1,86.1 L237.8,86.1 L239.5,86.1 L241.2,86.1 L242.8,86.1 L244.5,86.1 L246.2,86.1 L247.9,86.1 L249.6,86.1 L251.3,86.1" fill="none" stroke="#a7f3ee" stroke-width="5" stroke-linecap="round" stroke-linejoin="round" opacity="1.0"/><path d="M188.0,175.8 L194.3,189.3 L201.3,202.5 L209.5,215.1 L219.4,226.6 L232.2,235.1 L247.8,235.1 L260.6,226.6 L270.5,215.1 L278.7,202.5 L285.7,189.3 L292.0,175.8" fill="none" stroke="#fbbf24" stroke-width="4" stroke-linecap="round" stroke-linejoin="round" opacity="1.0"/></g><g class="f2"><path d="M240.0,114.6 L235.8,120.4 L231.6,126.3 L227.4,132.2 L223.2,138.1 L219.0,144.0 L214.8,149.9 L210.6,155.7 L205.1,159.8 L199.4,163.1 L193.7,166.5 L188.0,169.9" fill="none" stroke="#0d9488" stroke-width="19" stroke-linecap="round" stroke-linejoin="round" opacity="0.95"/><path d="M240.0,114.6 L235.8,120.4 L231.6,126.3 L227.4,132.2 L223.2,138.1 L219.0,144.0 L214.8,149.9 L210.6,155.7 L205.1,159.8 L199.4,163.1 L193.7,166.5 L188.0,169.9" fill="none" stroke="#0c2020" stroke-width="11" stroke-linecap="round" stroke-linejoin="round" opacity="1.0"/><path d="M240.0,114.6 L244.2,120.4 L248.4,126.3 L252.6,132.2 L256.8,138.1 L261.0,144.0 L265.2,149.9 L269.4,155.7 L274.9,159.8 L280.6,163.1 L286.3,166.5 L292.0,169.9" fill="none" stroke="#2dd4bf" stroke-width="19" stroke-linecap="round" stroke-linejoin="round" opacity="0.95"/><path d="M240.0,114.6 L244.2,120.4 L248.4,126.3 L252.6,132.2 L256.8,138.1 L261.0,144.0 L265.2,149.9 L269.4,155.7 L274.9,159.8 L280.6,163.1 L286.3,166.5 L292.0,169.9" fill="none" stroke="#0c2020" stroke-width="11" stroke-linecap="round" stroke-linejoin="round" opacity="1.0"/><path d="M240.0,188.6 L238.9,197.3 L237.8,206.1 L236.7,214.9 L235.6,223.7 L234.4,232.4 L233.8,241.3 L233.4,250.1 L233.0,258.9 L232.5,267.8 L232.1,276.6 L231.7,285.4" fill="none" stroke="#8f2a3e" stroke-width="19" stroke-linecap="round" stroke-linejoin="round" opacity="0.95"/><path d="M240.0,188.6 L238.9,197.3 L237.8,206.1 L236.7,214.9 L235.6,223.7 L234.4,232.4 L233.8,241.3 L233.4,250.1 L233.0,258.9 L232.5,267.8 L232.1,276.6 L231.7,285.4" fill="none" stroke="#0c2020" stroke-width="11" stroke-linecap="round" stroke-linejoin="round" opacity="1.0"/><path d="M240.0,188.6 L241.5,197.3 L243.0,206.1 L244.4,214.8 L245.9,223.6 L247.4,232.3 L247.8,241.1 L247.4,250.0 L247.0,258.9 L246.5,267.7 L246.1,276.6 L245.7,285.4" fill="none" stroke="#f43f5e" stroke-width="19" stroke-linecap="round" stroke-linejoin="round" opacity="0.95"/><path d="M240.0,188.6 L241.5,197.3 L243.0,206.1 L244.4,214.8 L245.9,223.6 L247.4,232.3 L247.8,241.1 L247.4,250.0 L247.0,258.9 L246.5,267.7 L246.1,276.6 L245.7,285.4" fill="none" stroke="#0c2020" stroke-width="11" stroke-linecap="round" stroke-linejoin="round" opacity="1.0"/><path d="M240.0,114.6 L240.0,121.3 L240.0,128.0 L240.0,134.7 L240.0,141.5 L240.0,148.2 L240.0,154.9 L240.0,161.7 L240.0,168.4 L240.0,175.1 L240.0,181.8 L240.0,188.6" fill="none" stroke="#2dd4bf" stroke-width="23" stroke-linecap="round" stroke-linejoin="round" opacity="0.95"/><path d="M240.0,114.6 L240.0,121.3 L240.0,128.0 L240.0,134.7 L240.0,141.5 L240.0,148.2 L240.0,154.9 L240.0,161.7 L240.0,168.4 L240.0,175.1 L240.0,181.8 L240.0,188.6" fill="none" stroke="#0c2020" stroke-width="15" stroke-linecap="round" stroke-linejoin="round" opacity="1.0"/><circle cx="242.0" cy="86.6" r="19.0" fill="#2dd4bf" stroke="none" stroke-width="0" opacity="0.95"/><circle cx="242.0" cy="86.6" r="15.0" fill="#0c2020" stroke="none" stroke-width="6.3" opacity="1.0"/><path d="M240.0,69.6 L237.0,72.5 L234.0,75.5 L231.1,78.5 L228.1,81.5 L225.1,84.4 L222.1,87.4 L221.5,91.1 L222.4,95.2 L223.3,99.3 L224.1,103.4 L225.0,107.6" fill="none" stroke="#2dd4bf" stroke-width="5" stroke-linecap="round" stroke-linejoin="round" opacity="1.0"/><path d="M232.7,83.6 L234.4,83.6 L236.1,83.6 L237.8,83.6 L239.5,83.6 L241.2,83.6 L242.8,83.6 L244.5,83.6 L246.2,83.6 L247.9,83.6 L249.6,83.6 L251.3,83.6" fill="none" stroke="#a7f3ee" stroke-width="5" stroke-linecap="round" stroke-linejoin="round" opacity="1.0"/><path d="M188.0,169.9 L194.4,180.3 L201.4,190.5 L209.6,200.4 L219.6,209.3 L232.3,216.1 L247.7,216.1 L260.4,209.3 L270.4,200.4 L278.6,190.5 L285.6,180.3 L292.0,169.9" fill="none" stroke="#fbbf24" stroke-width="4" stroke-linecap="round" stroke-linejoin="round" opacity="1.0"/></g><g class="f3"><path d="M240.0,111.0 L235.8,116.9 L231.7,122.7 L227.5,128.6 L223.3,134.4 L219.1,140.3 L215.0,146.1 L210.8,151.9 L205.4,155.3 L199.6,157.4 L193.8,159.5 L188.0,161.5" fill="none" stroke="#0d9488" stroke-width="19" stroke-linecap="round" stroke-linejoin="round" opacity="0.95"/><path d="M240.0,111.0 L235.8,116.9 L231.7,122.7 L227.5,128.6 L223.3,134.4 L219.1,140.3 L215.0,146.1 L210.8,151.9 L205.4,155.3 L199.6,157.4 L193.8,159.5 L188.0,161.5" fill="none" stroke="#0c2020" stroke-width="11" stroke-linecap="round" stroke-linejoin="round" opacity="1.0"/><path d="M240.0,111.0 L244.2,116.9 L248.3,122.7 L252.5,128.6 L256.7,134.4 L260.9,140.3 L265.0,146.1 L269.2,151.9 L274.6,155.3 L280.4,157.4 L286.2,159.5 L292.0,161.5" fill="none" stroke="#2dd4bf" stroke-width="19" stroke-linecap="round" stroke-linejoin="round" opacity="0.95"/><path d="M240.0,111.0 L244.2,116.9 L248.3,122.7 L252.5,128.6 L256.7,134.4 L260.9,140.3 L265.0,146.1 L269.2,151.9 L274.6,155.3 L280.4,157.4 L286.2,159.5 L292.0,161.5" fill="none" stroke="#0c2020" stroke-width="11" stroke-linecap="round" stroke-linejoin="round" opacity="1.0"/><path d="M240.0,185.0 L238.9,193.5 L237.8,202.0 L236.7,210.5 L235.7,219.0 L234.6,227.5 L233.9,236.0 L233.4,244.5 L232.9,253.1 L232.4,261.6 L231.9,270.2 L231.4,278.7" fill="none" stroke="#8f2a3e" stroke-width="19" stroke-linecap="round" stroke-linejoin="round" opacity="0.95"/><path d="M240.0,185.0 L238.9,193.5 L237.8,202.0 L236.7,210.5 L235.7,219.0 L234.6,227.5 L233.9,236.0 L233.4,244.5 L232.9,253.1 L232.4,261.6 L231.9,270.2 L231.4,278.7" fill="none" stroke="#0c2020" stroke-width="11" stroke-linecap="round" stroke-linejoin="round" opacity="1.0"/><path d="M240.0,185.0 L241.4,193.5 L242.9,202.0 L244.3,210.4 L245.8,218.9 L247.2,227.4 L247.8,235.9 L247.4,244.4 L246.9,253.0 L246.4,261.6 L245.9,270.1 L245.4,278.7" fill="none" stroke="#f43f5e" stroke-width="19" stroke-linecap="round" stroke-linejoin="round" opacity="0.95"/><path d="M240.0,185.0 L241.4,193.5 L242.9,202.0 L244.3,210.4 L245.8,218.9 L247.2,227.4 L247.8,235.9 L247.4,244.4 L246.9,253.0 L246.4,261.6 L245.9,270.1 L245.4,278.7" fill="none" stroke="#0c2020" stroke-width="11" stroke-linecap="round" stroke-linejoin="round" opacity="1.0"/><path d="M240.0,111.0 L240.0,117.8 L240.0,124.5 L240.0,131.2 L240.0,137.9 L240.0,144.7 L240.0,151.4 L240.0,158.1 L240.0,164.9 L240.0,171.6 L240.0,178.3 L240.0,185.0" fill="none" stroke="#2dd4bf" stroke-width="23" stroke-linecap="round" stroke-linejoin="round" opacity="0.95"/><path d="M240.0,111.0 L240.0,117.8 L240.0,124.5 L240.0,131.2 L240.0,137.9 L240.0,144.7 L240.0,151.4 L240.0,158.1 L240.0,164.9 L240.0,171.6 L240.0,178.3 L240.0,185.0" fill="none" stroke="#0c2020" stroke-width="15" stroke-linecap="round" stroke-linejoin="round" opacity="1.0"/><circle cx="242.0" cy="83.0" r="19.0" fill="#2dd4bf" stroke="none" stroke-width="0" opacity="0.95"/><circle cx="242.0" cy="83.0" r="15.0" fill="#0c2020" stroke="none" stroke-width="6.3" opacity="1.0"/><path d="M240.0,66.0 L237.0,69.0 L234.0,72.0 L231.1,75.0 L228.1,77.9 L225.1,80.9 L222.1,83.9 L221.5,87.6 L222.4,91.7 L223.3,95.8 L224.1,99.9 L225.0,104.0" fill="none" stroke="#2dd4bf" stroke-width="5" stroke-linecap="round" stroke-linejoin="round" opacity="1.0"/><path d="M232.7,80.0 L234.4,80.0 L236.1,80.0 L237.8,80.0 L239.5,80.0 L241.2,80.0 L242.8,80.0 L244.5,80.0 L246.2,80.0 L247.9,80.0 L249.6,80.0 L251.3,80.0" fill="none" stroke="#a7f3ee" stroke-width="5" stroke-linecap="round" stroke-linejoin="round" opacity="1.0"/><path d="M188.0,161.5 L194.4,167.6 L201.5,173.6 L209.8,179.5 L219.8,184.9 L232.5,189.1 L247.5,189.1 L260.2,184.9 L270.2,179.5 L278.5,173.6 L285.6,167.6 L292.0,161.5" fill="none" stroke="#fbbf24" stroke-width="4" stroke-linecap="round" stroke-linejoin="round" opacity="1.0"/></g><g class="f4"><path d="M240.0,107.0 L235.9,112.8 L231.7,118.6 L227.6,124.4 L223.4,130.2 L219.3,136.0 L215.2,141.8 L211.0,147.6 L205.6,150.1 L199.8,150.7 L193.9,151.4 L188.0,152.0" fill="none" stroke="#0d9488" stroke-width="19" stroke-linecap="round" stroke-linejoin="round" opacity="0.95"/><path d="M240.0,107.0 L235.9,112.8 L231.7,118.6 L227.6,124.4 L223.4,130.2 L219.3,136.0 L215.2,141.8 L211.0,147.6 L205.6,150.1 L199.8,150.7 L193.9,151.4 L188.0,152.0" fill="none" stroke="#0c2020" stroke-width="11" stroke-linecap="round" stroke-linejoin="round" opacity="1.0"/><path d="M240.0,107.0 L244.1,112.8 L248.3,118.6 L252.4,124.4 L256.6,130.2 L260.7,136.0 L264.8,141.8 L269.0,147.6 L274.4,150.1 L280.2,150.7 L286.1,151.4 L292.0,152.0" fill="none" stroke="#2dd4bf" stroke-width="19" stroke-linecap="round" stroke-linejoin="round" opacity="0.95"/><path d="M240.0,107.0 L244.1,112.8 L248.3,118.6 L252.4,124.4 L256.6,130.2 L260.7,136.0 L264.8,141.8 L269.0,147.6 L274.4,150.1 L280.2,150.7 L286.1,151.4 L292.0,152.0" fill="none" stroke="#0c2020" stroke-width="11" stroke-linecap="round" stroke-linejoin="round" opacity="1.0"/><path d="M240.0,181.0 L238.9,189.2 L237.9,197.3 L236.8,205.5 L235.8,213.6 L234.7,221.8 L233.9,230.0 L233.3,238.2 L232.7,246.4 L232.2,254.6 L231.6,262.8 L231.0,271.0" fill="none" stroke="#8f2a3e" stroke-width="19" stroke-linecap="round" stroke-linejoin="round" opacity="0.95"/><path d="M240.0,181.0 L238.9,189.2 L237.9,197.3 L236.8,205.5 L235.8,213.6 L234.7,221.8 L233.9,230.0 L233.3,238.2 L232.7,246.4 L232.2,254.6 L231.6,262.8 L231.0,271.0" fill="none" stroke="#0c2020" stroke-width="11" stroke-linecap="round" stroke-linejoin="round" opacity="1.0"/><path d="M240.0,181.0 L241.4,189.1 L242.8,197.3 L244.2,205.4 L245.6,213.5 L247.1,221.7 L247.8,229.8 L247.3,238.1 L246.7,246.3 L246.2,254.5 L245.6,262.8 L245.0,271.0" fill="none" stroke="#f43f5e" stroke-width="19" stroke-linecap="round" stroke-linejoin="round" opacity="0.95"/><path d="M240.0,181.0 L241.4,189.1 L242.8,197.3 L244.2,205.4 L245.6,213.5 L247.1,221.7 L247.8,229.8 L247.3,238.1 L246.7,246.3 L246.2,254.5 L245.6,262.8 L245.0,271.0" fill="none" stroke="#0c2020" stroke-width="11" stroke-linecap="round" stroke-linejoin="round" opacity="1.0"/><path d="M240.0,107.0 L240.0,113.7 L240.0,120.5 L240.0,127.2 L240.0,133.9 L240.0,140.6 L240.0,147.4 L240.0,154.1 L240.0,160.8 L240.0,167.5 L240.0,174.3 L240.0,181.0" fill="none" stroke="#2dd4bf" stroke-width="23" stroke-linecap="round" stroke-linejoin="round" opacity="0.95"/><path d="M240.0,107.0 L240.0,113.7 L240.0,120.5 L240.0,127.2 L240.0,133.9 L240.0,140.6 L240.0,147.4 L240.0,154.1 L240.0,160.8 L240.0,167.5 L240.0,174.3 L240.0,181.0" fill="none" stroke="#0c2020" stroke-width="15" stroke-linecap="round" stroke-linejoin="round" opacity="1.0"/><circle cx="242.0" cy="79.0" r="19.0" fill="#2dd4bf" stroke="none" stroke-width="0" opacity="0.95"/><circle cx="242.0" cy="79.0" r="15.0" fill="#0c2020" stroke="none" stroke-width="6.3" opacity="1.0"/><path d="M240.0,62.0 L237.0,65.0 L234.0,68.0 L231.1,70.9 L228.1,73.9 L225.1,76.9 L222.1,79.9 L221.5,83.5 L222.4,87.6 L223.3,91.8 L224.1,95.9 L225.0,100.0" fill="none" stroke="#2dd4bf" stroke-width="5" stroke-linecap="round" stroke-linejoin="round" opacity="1.0"/><path d="M232.7,76.0 L234.4,76.0 L236.1,76.0 L237.8,76.0 L239.5,76.0 L241.2,76.0 L242.8,76.0 L244.5,76.0 L246.2,76.0 L247.9,76.0 L249.6,76.0 L251.3,76.0" fill="none" stroke="#a7f3ee" stroke-width="5" stroke-linecap="round" stroke-linejoin="round" opacity="1.0"/><path d="M188.0,152.0 L194.5,153.1 L201.7,154.3 L210.0,155.5 L220.0,156.9 L232.6,158.3 L247.4,158.3 L260.0,156.9 L270.0,155.5 L278.3,154.3 L285.5,153.1 L292.0,152.0" fill="none" stroke="#fbbf24" stroke-width="4" stroke-linecap="round" stroke-linejoin="round" opacity="1.0"/></g><g class="f5"><path d="M240.0,103.0 L235.9,108.7 L231.8,114.5 L227.7,120.2 L223.6,126.0 L219.5,131.7 L215.4,137.5 L211.2,143.2 L205.9,144.9 L199.9,144.1 L194.0,143.3 L188.0,142.5" fill="none" stroke="#0d9488" stroke-width="19" stroke-linecap="round" stroke-linejoin="round" opacity="0.95"/><path d="M240.0,103.0 L235.9,108.7 L231.8,114.5 L227.7,120.2 L223.6,126.0 L219.5,131.7 L215.4,137.5 L211.2,143.2 L205.9,144.9 L199.9,144.1 L194.0,143.3 L188.0,142.5" fill="none" stroke="#0c2020" stroke-width="11" stroke-linecap="round" stroke-linejoin="round" opacity="1.0"/><path d="M240.0,103.0 L244.1,108.7 L248.2,114.5 L252.3,120.2 L256.4,126.0 L260.5,131.7 L264.6,137.5 L268.8,143.2 L274.1,144.9 L280.1,144.1 L286.0,143.3 L292.0,142.5" fill="none" stroke="#2dd4bf" stroke-width="19" stroke-linecap="round" stroke-linejoin="round" opacity="0.95"/><path d="M240.0,103.0 L244.1,108.7 L248.2,114.5 L252.3,120.2 L256.4,126.0 L260.5,131.7 L264.6,137.5 L268.8,143.2 L274.1,144.9 L280.1,144.1 L286.0,143.3 L292.0,142.5" fill="none" stroke="#0c2020" stroke-width="11" stroke-linecap="round" stroke-linejoin="round" opacity="1.0"/><path d="M240.0,177.0 L239.0,184.8 L237.9,192.6 L236.9,200.5 L235.9,208.3 L234.8,216.1 L234.0,224.0 L233.3,231.8 L232.6,239.7 L232.0,247.6 L231.3,255.4 L230.6,263.3" fill="none" stroke="#8f2a3e" stroke-width="19" stroke-linecap="round" stroke-linejoin="round" opacity="0.95"/><path d="M240.0,177.0 L239.0,184.8 L237.9,192.6 L236.9,200.5 L235.9,208.3 L234.8,216.1 L234.0,224.0 L233.3,231.8 L232.6,239.7 L232.0,247.6 L231.3,255.4 L230.6,263.3" fill="none" stroke="#0c2020" stroke-width="11" stroke-linecap="round" stroke-linejoin="round" opacity="1.0"/><path d="M240.0,177.0 L241.4,184.8 L242.8,192.6 L244.1,200.4 L245.5,208.2 L246.9,216.0 L247.9,223.8 L247.3,231.7 L246.6,239.6 L246.0,247.5 L245.3,255.4 L244.6,263.3" fill="none" stroke="#f43f5e" stroke-width="19" stroke-linecap="round" stroke-linejoin="round" opacity="0.95"/><path d="M240.0,177.0 L241.4,184.8 L242.8,192.6 L244.1,200.4 L245.5,208.2 L246.9,216.0 L247.9,223.8 L247.3,231.7 L246.6,239.6 L246.0,247.5 L245.3,255.4 L244.6,263.3" fill="none" stroke="#0c2020" stroke-width="11" stroke-linecap="round" stroke-linejoin="round" opacity="1.0"/><path d="M240.0,103.0 L240.0,109.7 L240.0,116.4 L240.0,123.1 L240.0,129.9 L240.0,136.6 L240.0,143.3 L240.0,150.1 L240.0,156.8 L240.0,163.5 L240.0,170.2 L240.0,177.0" fill="none" stroke="#2dd4bf" stroke-width="23" stroke-linecap="round" stroke-linejoin="round" opacity="0.95"/><path d="M240.0,103.0 L240.0,109.7 L240.0,116.4 L240.0,123.1 L240.0,129.9 L240.0,136.6 L240.0,143.3 L240.0,150.1 L240.0,156.8 L240.0,163.5 L240.0,170.2 L240.0,177.0" fill="none" stroke="#0c2020" stroke-width="15" stroke-linecap="round" stroke-linejoin="round" opacity="1.0"/><circle cx="242.0" cy="75.0" r="19.0" fill="#2dd4bf" stroke="none" stroke-width="0" opacity="0.95"/><circle cx="242.0" cy="75.0" r="15.0" fill="#0c2020" stroke="none" stroke-width="6.3" opacity="1.0"/><path d="M240.0,58.0 L237.0,60.9 L234.0,63.9 L231.1,66.9 L228.1,69.9 L225.1,72.8 L222.1,75.8 L221.5,79.5 L222.4,83.6 L223.3,87.7 L224.1,91.8 L225.0,96.0" fill="none" stroke="#2dd4bf" stroke-width="5" stroke-linecap="round" stroke-linejoin="round" opacity="1.0"/><path d="M232.7,72.0 L234.4,72.0 L236.1,72.0 L237.8,72.0 L239.5,72.0 L241.2,72.0 L242.8,72.0 L244.5,72.0 L246.2,72.0 L247.9,72.0 L249.6,72.0 L251.3,72.0" fill="none" stroke="#a7f3ee" stroke-width="5" stroke-linecap="round" stroke-linejoin="round" opacity="1.0"/><path d="M188.0,142.5 L194.5,138.6 L201.8,134.9 L210.2,131.6 L220.2,128.9 L232.8,127.4 L247.2,127.4 L259.8,128.9 L269.8,131.6 L278.2,134.9 L285.5,138.6 L292.0,142.5" fill="none" stroke="#fbbf24" stroke-width="4" stroke-linecap="round" stroke-linejoin="round" opacity="1.0"/></g><g class="f6"><path d="M240.0,99.4 L235.9,105.1 L231.8,110.9 L227.8,116.6 L223.7,122.3 L219.6,128.0 L215.5,133.7 L211.4,139.4 L206.1,140.4 L200.1,138.3 L194.0,136.2 L188.0,134.1" fill="none" stroke="#0d9488" stroke-width="19" stroke-linecap="round" stroke-linejoin="round" opacity="0.95"/><path d="M240.0,99.4 L235.9,105.1 L231.8,110.9 L227.8,116.6 L223.7,122.3 L219.6,128.0 L215.5,133.7 L211.4,139.4 L206.1,140.4 L200.1,138.3 L194.0,136.2 L188.0,134.1" fill="none" stroke="#0c2020" stroke-width="11" stroke-linecap="round" stroke-linejoin="round" opacity="1.0"/><path d="M240.0,99.4 L244.1,105.1 L248.2,110.9 L252.2,116.6 L256.3,122.3 L260.4,128.0 L264.5,133.7 L268.6,139.4 L273.9,140.4 L279.9,138.3 L286.0,136.2 L292.0,134.1" fill="none" stroke="#2dd4bf" stroke-width="19" stroke-linecap="round" stroke-linejoin="round" opacity="0.95"/><path d="M240.0,99.4 L244.1,105.1 L248.2,110.9 L252.2,116.6 L256.3,122.3 L260.4,128.0 L264.5,133.7 L268.6,139.4 L273.9,140.4 L279.9,138.3 L286.0,136.2 L292.0,134.1" fill="none" stroke="#0c2020" stroke-width="11" stroke-linecap="round" stroke-linejoin="round" opacity="1.0"/><path d="M240.0,173.4 L239.0,181.0 L238.0,188.5 L237.0,196.1 L235.9,203.6 L234.9,211.2 L234.0,218.7 L233.3,226.3 L232.5,233.8 L231.8,241.4 L231.1,249.0 L230.3,256.6" fill="none" stroke="#8f2a3e" stroke-width="19" stroke-linecap="round" stroke-linejoin="round" opacity="0.95"/><path d="M240.0,173.4 L239.0,181.0 L238.0,188.5 L237.0,196.1 L235.9,203.6 L234.9,211.2 L234.0,218.7 L233.3,226.3 L232.5,233.8 L231.8,241.4 L231.1,249.0 L230.3,256.6" fill="none" stroke="#0c2020" stroke-width="11" stroke-linecap="round" stroke-linejoin="round" opacity="1.0"/><path d="M240.0,173.4 L241.3,181.0 L242.7,188.5 L244.0,196.0 L245.4,203.5 L246.7,211.0 L247.9,218.6 L247.3,226.2 L246.5,233.8 L245.8,241.4 L245.1,249.0 L244.3,256.6" fill="none" stroke="#f43f5e" stroke-width="19" stroke-linecap="round" stroke-linejoin="round" opacity="0.95"/><path d="M240.0,173.4 L241.3,181.0 L242.7,188.5 L244.0,196.0 L245.4,203.5 L246.7,211.0 L247.9,218.6 L247.3,226.2 L246.5,233.8 L245.8,241.4 L245.1,249.0 L244.3,256.6" fill="none" stroke="#0c2020" stroke-width="11" stroke-linecap="round" stroke-linejoin="round" opacity="1.0"/><path d="M240.0,99.4 L240.0,106.2 L240.0,112.9 L240.0,119.6 L240.0,126.3 L240.0,133.1 L240.0,139.8 L240.0,146.5 L240.0,153.3 L240.0,160.0 L240.0,166.7 L240.0,173.4" fill="none" stroke="#2dd4bf" stroke-width="23" stroke-linecap="round" stroke-linejoin="round" opacity="0.95"/><path d="M240.0,99.4 L240.0,106.2 L240.0,112.9 L240.0,119.6 L240.0,126.3 L240.0,133.1 L240.0,139.8 L240.0,146.5 L240.0,153.3 L240.0,160.0 L240.0,166.7 L240.0,173.4" fill="none" stroke="#0c2020" stroke-width="15" stroke-linecap="round" stroke-linejoin="round" opacity="1.0"/><circle cx="242.0" cy="71.4" r="19.0" fill="#2dd4bf" stroke="none" stroke-width="0" opacity="0.95"/><circle cx="242.0" cy="71.4" r="15.0" fill="#0c2020" stroke="none" stroke-width="6.3" opacity="1.0"/><path d="M240.0,54.4 L237.0,57.4 L234.0,60.4 L231.1,63.4 L228.1,66.3 L225.1,69.3 L222.1,72.3 L221.5,76.0 L222.4,80.1 L223.3,84.2 L224.1,88.3 L225.0,92.4" fill="none" stroke="#2dd4bf" stroke-width="5" stroke-linecap="round" stroke-linejoin="round" opacity="1.0"/><path d="M232.7,68.4 L234.4,68.4 L236.1,68.4 L237.8,68.4 L239.5,68.4 L241.2,68.4 L242.8,68.4 L244.5,68.4 L246.2,68.4 L247.9,68.4 L249.6,68.4 L251.3,68.4" fill="none" stroke="#a7f3ee" stroke-width="5" stroke-linecap="round" stroke-linejoin="round" opacity="1.0"/><path d="M188.0,134.1 L194.6,125.9 L201.9,118.0 L210.4,110.7 L220.5,104.4 L232.9,100.5 L247.1,100.5 L259.5,104.4 L269.6,110.7 L278.1,118.0 L285.4,125.9 L292.0,134.1" fill="none" stroke="#fbbf24" stroke-width="4" stroke-linecap="round" stroke-linejoin="round" opacity="1.0"/></g><g class="f7"><path d="M240.0,96.9 L235.9,102.6 L231.9,108.3 L227.8,114.0 L223.8,119.7 L219.7,125.4 L215.6,131.0 L211.6,136.7 L206.3,137.2 L200.2,134.2 L194.1,131.2 L188.0,128.2" fill="none" stroke="#0d9488" stroke-width="19" stroke-linecap="round" stroke-linejoin="round" opacity="0.95"/><path d="M240.0,96.9 L235.9,102.6 L231.9,108.3 L227.8,114.0 L223.8,119.7 L219.7,125.4 L215.6,131.0 L211.6,136.7 L206.3,137.2 L200.2,134.2 L194.1,131.2 L188.0,128.2" fill="none" stroke="#0c2020" stroke-width="11" stroke-linecap="round" stroke-linejoin="round" opacity="1.0"/><path d="M240.0,96.9 L244.1,102.6 L248.1,108.3 L252.2,114.0 L256.2,119.7 L260.3,125.4 L264.4,131.0 L268.4,136.7 L273.7,137.2 L279.8,134.2 L285.9,131.2 L292.0,128.2" fill="none" stroke="#2dd4bf" stroke-width="19" stroke-linecap="round" stroke-linejoin="round" opacity="0.95"/><path d="M240.0,96.9 L244.1,102.6 L248.1,108.3 L252.2,114.0 L256.2,119.7 L260.3,125.4 L264.4,131.0 L268.4,136.7 L273.7,137.2 L279.8,134.2 L285.9,131.2 L292.0,128.2" fill="none" stroke="#0c2020" stroke-width="11" stroke-linecap="round" stroke-linejoin="round" opacity="1.0"/><path d="M240.0,170.9 L239.0,178.3 L238.0,185.6 L237.0,193.0 L236.0,200.3 L235.0,207.6 L234.0,215.0 L233.2,222.3 L232.5,229.7 L231.7,237.1 L230.9,244.4 L230.1,251.8" fill="none" stroke="#8f2a3e" stroke-width="19" stroke-linecap="round" stroke-linejoin="round" opacity="0.95"/><path d="M240.0,170.9 L239.0,178.3 L238.0,185.6 L237.0,193.0 L236.0,200.3 L235.0,207.6 L234.0,215.0 L233.2,222.3 L232.5,229.7 L231.7,237.1 L230.9,244.4 L230.1,251.8" fill="none" stroke="#0c2020" stroke-width="11" stroke-linecap="round" stroke-linejoin="round" opacity="1.0"/><path d="M240.0,170.9 L241.3,178.3 L242.6,185.6 L244.0,192.9 L245.3,200.2 L246.6,207.5 L247.9,214.8 L247.3,222.2 L246.5,229.6 L245.7,237.0 L244.9,244.4 L244.1,251.8" fill="none" stroke="#f43f5e" stroke-width="19" stroke-linecap="round" stroke-linejoin="round" opacity="0.95"/><path d="M240.0,170.9 L241.3,178.3 L242.6,185.6 L244.0,192.9 L245.3,200.2 L246.6,207.5 L247.9,214.8 L247.3,222.2 L246.5,229.6 L245.7,237.0 L244.9,244.4 L244.1,251.8" fill="none" stroke="#0c2020" stroke-width="11" stroke-linecap="round" stroke-linejoin="round" opacity="1.0"/><path d="M240.0,96.9 L240.0,103.7 L240.0,110.4 L240.0,117.1 L240.0,123.9 L240.0,130.6 L240.0,137.3 L240.0,144.0 L240.0,150.8 L240.0,157.5 L240.0,164.2 L240.0,170.9" fill="none" stroke="#2dd4bf" stroke-width="23" stroke-linecap="round" stroke-linejoin="round" opacity="0.95"/><path d="M240.0,96.9 L240.0,103.7 L240.0,110.4 L240.0,117.1 L240.0,123.9 L240.0,130.6 L240.0,137.3 L240.0,144.0 L240.0,150.8 L240.0,157.5 L240.0,164.2 L240.0,170.9" fill="none" stroke="#0c2020" stroke-width="15" stroke-linecap="round" stroke-linejoin="round" opacity="1.0"/><circle cx="242.0" cy="68.9" r="19.0" fill="#2dd4bf" stroke="none" stroke-width="0" opacity="0.95"/><circle cx="242.0" cy="68.9" r="15.0" fill="#0c2020" stroke="none" stroke-width="6.3" opacity="1.0"/><path d="M240.0,51.9 L237.0,54.9 L234.0,57.9 L231.1,60.9 L228.1,63.8 L225.1,66.8 L222.1,69.8 L221.5,73.5 L222.4,77.6 L223.3,81.7 L224.1,85.8 L225.0,89.9" fill="none" stroke="#2dd4bf" stroke-width="5" stroke-linecap="round" stroke-linejoin="round" opacity="1.0"/><path d="M232.7,65.9 L234.4,65.9 L236.1,65.9 L237.8,65.9 L239.5,65.9 L241.2,65.9 L242.8,65.9 L244.5,65.9 L246.2,65.9 L247.9,65.9 L249.6,65.9 L251.3,65.9" fill="none" stroke="#a7f3ee" stroke-width="5" stroke-linecap="round" stroke-linejoin="round" opacity="1.0"/><path d="M188.0,128.2 L194.6,117.0 L202.0,106.1 L210.5,96.0 L220.6,87.1 L233.0,81.4 L247.0,81.4 L259.4,87.1 L269.5,96.0 L278.0,106.1 L285.4,117.0 L292.0,128.2" fill="none" stroke="#fbbf24" stroke-width="4" stroke-linecap="round" stroke-linejoin="round" opacity="1.0"/></g><g class="f8"><path d="M240.0,96.0 L235.9,101.7 L231.9,107.3 L227.8,113.0 L223.8,118.7 L219.7,124.4 L215.7,130.0 L211.6,135.7 L206.4,136.0 L200.2,132.7 L194.1,129.3 L188.0,126.0" fill="none" stroke="#0d9488" stroke-width="19" stroke-linecap="round" stroke-linejoin="round" opacity="0.95"/><path d="M240.0,96.0 L235.9,101.7 L231.9,107.3 L227.8,113.0 L223.8,118.7 L219.7,124.4 L215.7,130.0 L211.6,135.7 L206.4,136.0 L200.2,132.7 L194.1,129.3 L188.0,126.0" fill="none" stroke="#0c2020" stroke-width="11" stroke-linecap="round" stroke-linejoin="round" opacity="1.0"/><path d="M240.0,96.0 L244.1,101.7 L248.1,107.3 L252.2,113.0 L256.2,118.7 L260.3,124.4 L264.3,130.0 L268.4,135.7 L273.6,136.0 L279.8,132.7 L285.9,129.3 L292.0,126.0" fill="none" stroke="#2dd4bf" stroke-width="19" stroke-linecap="round" stroke-linejoin="round" opacity="0.95"/><path d="M240.0,96.0 L244.1,101.7 L248.1,107.3 L252.2,113.0 L256.2,118.7 L260.3,124.4 L264.3,130.0 L268.4,135.7 L273.6,136.0 L279.8,132.7 L285.9,129.3 L292.0,126.0" fill="none" stroke="#0c2020" stroke-width="11" stroke-linecap="round" stroke-linejoin="round" opacity="1.0"/><path d="M240.0,170.0 L239.0,177.3 L238.0,184.5 L237.0,191.8 L236.0,199.1 L235.0,206.3 L234.1,213.6 L233.2,220.9 L232.4,228.1 L231.6,235.4 L230.8,242.7 L230.0,250.0" fill="none" stroke="#8f2a3e" stroke-width="19" stroke-linecap="round" stroke-linejoin="round" opacity="0.95"/><path d="M240.0,170.0 L239.0,177.3 L238.0,184.5 L237.0,191.8 L236.0,199.1 L235.0,206.3 L234.1,213.6 L233.2,220.9 L232.4,228.1 L231.6,235.4 L230.8,242.7 L230.0,250.0" fill="none" stroke="#0c2020" stroke-width="11" stroke-linecap="round" stroke-linejoin="round" opacity="1.0"/><path d="M240.0,170.0 L241.3,177.2 L242.6,184.5 L243.9,191.7 L245.3,199.0 L246.6,206.2 L247.9,213.4 L247.3,220.7 L246.4,228.1 L245.6,235.4 L244.8,242.7 L244.0,250.0" fill="none" stroke="#f43f5e" stroke-width="19" stroke-linecap="round" stroke-linejoin="round" opacity="0.95"/><path d="M240.0,170.0 L241.3,177.2 L242.6,184.5 L243.9,191.7 L245.3,199.0 L246.6,206.2 L247.9,213.4 L247.3,220.7 L246.4,228.1 L245.6,235.4 L244.8,242.7 L244.0,250.0" fill="none" stroke="#0c2020" stroke-width="11" stroke-linecap="round" stroke-linejoin="round" opacity="1.0"/><path d="M240.0,96.0 L240.0,102.7 L240.0,109.5 L240.0,116.2 L240.0,122.9 L240.0,129.6 L240.0,136.4 L240.0,143.1 L240.0,149.8 L240.0,156.5 L240.0,163.3 L240.0,170.0" fill="none" stroke="#2dd4bf" stroke-width="23" stroke-linecap="round" stroke-linejoin="round" opacity="0.95"/><path d="M240.0,96.0 L240.0,102.7 L240.0,109.5 L240.0,116.2 L240.0,122.9 L240.0,129.6 L240.0,136.4 L240.0,143.1 L240.0,149.8 L240.0,156.5 L240.0,163.3 L240.0,170.0" fill="none" stroke="#0c2020" stroke-width="15" stroke-linecap="round" stroke-linejoin="round" opacity="1.0"/><circle cx="242.0" cy="68.0" r="19.0" fill="#2dd4bf" stroke="none" stroke-width="0" opacity="0.95"/><circle cx="242.0" cy="68.0" r="15.0" fill="#0c2020" stroke="none" stroke-width="6.3" opacity="1.0"/><path d="M240.0,51.0 L237.0,54.0 L234.0,57.0 L231.1,59.9 L228.1,62.9 L225.1,65.9 L222.1,68.9 L221.5,72.5 L222.4,76.6 L223.3,80.8 L224.1,84.9 L225.0,89.0" fill="none" stroke="#2dd4bf" stroke-width="5" stroke-linecap="round" stroke-linejoin="round" opacity="1.0"/><path d="M232.7,65.0 L234.4,65.0 L236.1,65.0 L237.8,65.0 L239.5,65.0 L241.2,65.0 L242.8,65.0 L244.5,65.0 L246.2,65.0 L247.9,65.0 L249.6,65.0 L251.3,65.0" fill="none" stroke="#a7f3ee" stroke-width="5" stroke-linecap="round" stroke-linejoin="round" opacity="1.0"/><path d="M188.0,126.0 L194.7,113.6 L202.0,101.6 L210.5,90.4 L220.7,80.6 L233.0,74.2 L247.0,74.2 L259.3,80.6 L269.5,90.4 L278.0,101.6 L285.3,113.6 L292.0,126.0" fill="none" stroke="#fbbf24" stroke-width="4" stroke-linecap="round" stroke-linejoin="round" opacity="1.0"/></g><g class="f9"><path d="M240.0,96.9 L235.9,102.6 L231.9,108.3 L227.8,114.0 L223.8,119.7 L219.7,125.4 L215.6,131.0 L211.6,136.7 L206.3,137.2 L200.2,134.2 L194.1,131.2 L188.0,128.2" fill="none" stroke="#0d9488" stroke-width="19" stroke-linecap="round" stroke-linejoin="round" opacity="0.95"/><path d="M240.0,96.9 L235.9,102.6 L231.9,108.3 L227.8,114.0 L223.8,119.7 L219.7,125.4 L215.6,131.0 L211.6,136.7 L206.3,137.2 L200.2,134.2 L194.1,131.2 L188.0,128.2" fill="none" stroke="#0c2020" stroke-width="11" stroke-linecap="round" stroke-linejoin="round" opacity="1.0"/><path d="M240.0,96.9 L244.1,102.6 L248.1,108.3 L252.2,114.0 L256.2,119.7 L260.3,125.4 L264.4,131.0 L268.4,136.7 L273.7,137.2 L279.8,134.2 L285.9,131.2 L292.0,128.2" fill="none" stroke="#2dd4bf" stroke-width="19" stroke-linecap="round" stroke-linejoin="round" opacity="0.95"/><path d="M240.0,96.9 L244.1,102.6 L248.1,108.3 L252.2,114.0 L256.2,119.7 L260.3,125.4 L264.4,131.0 L268.4,136.7 L273.7,137.2 L279.8,134.2 L285.9,131.2 L292.0,128.2" fill="none" stroke="#0c2020" stroke-width="11" stroke-linecap="round" stroke-linejoin="round" opacity="1.0"/><path d="M240.0,170.9 L239.0,178.3 L238.0,185.6 L237.0,193.0 L236.0,200.3 L235.0,207.6 L234.0,215.0 L233.2,222.3 L232.5,229.7 L231.7,237.1 L230.9,244.4 L230.1,251.8" fill="none" stroke="#8f2a3e" stroke-width="19" stroke-linecap="round" stroke-linejoin="round" opacity="0.95"/><path d="M240.0,170.9 L239.0,178.3 L238.0,185.6 L237.0,193.0 L236.0,200.3 L235.0,207.6 L234.0,215.0 L233.2,222.3 L232.5,229.7 L231.7,237.1 L230.9,244.4 L230.1,251.8" fill="none" stroke="#0c2020" stroke-width="11" stroke-linecap="round" stroke-linejoin="round" opacity="1.0"/><path d="M240.0,170.9 L241.3,178.3 L242.6,185.6 L244.0,192.9 L245.3,200.2 L246.6,207.5 L247.9,214.8 L247.3,222.2 L246.5,229.6 L245.7,237.0 L244.9,244.4 L244.1,251.8" fill="none" stroke="#f43f5e" stroke-width="19" stroke-linecap="round" stroke-linejoin="round" opacity="0.95"/><path d="M240.0,170.9 L241.3,178.3 L242.6,185.6 L244.0,192.9 L245.3,200.2 L246.6,207.5 L247.9,214.8 L247.3,222.2 L246.5,229.6 L245.7,237.0 L244.9,244.4 L244.1,251.8" fill="none" stroke="#0c2020" stroke-width="11" stroke-linecap="round" stroke-linejoin="round" opacity="1.0"/><path d="M240.0,96.9 L240.0,103.7 L240.0,110.4 L240.0,117.1 L240.0,123.9 L240.0,130.6 L240.0,137.3 L240.0,144.0 L240.0,150.8 L240.0,157.5 L240.0,164.2 L240.0,170.9" fill="none" stroke="#2dd4bf" stroke-width="23" stroke-linecap="round" stroke-linejoin="round" opacity="0.95"/><path d="M240.0,96.9 L240.0,103.7 L240.0,110.4 L240.0,117.1 L240.0,123.9 L240.0,130.6 L240.0,137.3 L240.0,144.0 L240.0,150.8 L240.0,157.5 L240.0,164.2 L240.0,170.9" fill="none" stroke="#0c2020" stroke-width="15" stroke-linecap="round" stroke-linejoin="round" opacity="1.0"/><circle cx="242.0" cy="68.9" r="19.0" fill="#2dd4bf" stroke="none" stroke-width="0" opacity="0.95"/><circle cx="242.0" cy="68.9" r="15.0" fill="#0c2020" stroke="none" stroke-width="6.3" opacity="1.0"/><path d="M240.0,51.9 L237.0,54.9 L234.0,57.9 L231.1,60.9 L228.1,63.8 L225.1,66.8 L222.1,69.8 L221.5,73.5 L222.4,77.6 L223.3,81.7 L224.1,85.8 L225.0,89.9" fill="none" stroke="#2dd4bf" stroke-width="5" stroke-linecap="round" stroke-linejoin="round" opacity="1.0"/><path d="M232.7,65.9 L234.4,65.9 L236.1,65.9 L237.8,65.9 L239.5,65.9 L241.2,65.9 L242.8,65.9 L244.5,65.9 L246.2,65.9 L247.9,65.9 L249.6,65.9 L251.3,65.9" fill="none" stroke="#a7f3ee" stroke-width="5" stroke-linecap="round" stroke-linejoin="round" opacity="1.0"/><path d="M188.0,128.2 L194.6,117.0 L202.0,106.1 L210.5,96.0 L220.6,87.1 L233.0,81.4 L247.0,81.4 L259.4,87.1 L269.5,96.0 L278.0,106.1 L285.4,117.0 L292.0,128.2" fill="none" stroke="#fbbf24" stroke-width="4" stroke-linecap="round" stroke-linejoin="round" opacity="1.0"/></g><g class="f10"><path d="M240.0,99.4 L235.9,105.1 L231.8,110.9 L227.8,116.6 L223.7,122.3 L219.6,128.0 L215.5,133.7 L211.4,139.4 L206.1,140.4 L200.1,138.3 L194.0,136.2 L188.0,134.1" fill="none" stroke="#0d9488" stroke-width="19" stroke-linecap="round" stroke-linejoin="round" opacity="0.95"/><path d="M240.0,99.4 L235.9,105.1 L231.8,110.9 L227.8,116.6 L223.7,122.3 L219.6,128.0 L215.5,133.7 L211.4,139.4 L206.1,140.4 L200.1,138.3 L194.0,136.2 L188.0,134.1" fill="none" stroke="#0c2020" stroke-width="11" stroke-linecap="round" stroke-linejoin="round" opacity="1.0"/><path d="M240.0,99.4 L244.1,105.1 L248.2,110.9 L252.2,116.6 L256.3,122.3 L260.4,128.0 L264.5,133.7 L268.6,139.4 L273.9,140.4 L279.9,138.3 L286.0,136.2 L292.0,134.1" fill="none" stroke="#2dd4bf" stroke-width="19" stroke-linecap="round" stroke-linejoin="round" opacity="0.95"/><path d="M240.0,99.4 L244.1,105.1 L248.2,110.9 L252.2,116.6 L256.3,122.3 L260.4,128.0 L264.5,133.7 L268.6,139.4 L273.9,140.4 L279.9,138.3 L286.0,136.2 L292.0,134.1" fill="none" stroke="#0c2020" stroke-width="11" stroke-linecap="round" stroke-linejoin="round" opacity="1.0"/><path d="M240.0,173.4 L239.0,181.0 L238.0,188.5 L237.0,196.1 L235.9,203.6 L234.9,211.2 L234.0,218.7 L233.3,226.3 L232.5,233.8 L231.8,241.4 L231.1,249.0 L230.3,256.6" fill="none" stroke="#8f2a3e" stroke-width="19" stroke-linecap="round" stroke-linejoin="round" opacity="0.95"/><path d="M240.0,173.4 L239.0,181.0 L238.0,188.5 L237.0,196.1 L235.9,203.6 L234.9,211.2 L234.0,218.7 L233.3,226.3 L232.5,233.8 L231.8,241.4 L231.1,249.0 L230.3,256.6" fill="none" stroke="#0c2020" stroke-width="11" stroke-linecap="round" stroke-linejoin="round" opacity="1.0"/><path d="M240.0,173.4 L241.3,181.0 L242.7,188.5 L244.0,196.0 L245.4,203.5 L246.7,211.0 L247.9,218.6 L247.3,226.2 L246.5,233.8 L245.8,241.4 L245.1,249.0 L244.3,256.6" fill="none" stroke="#f43f5e" stroke-width="19" stroke-linecap="round" stroke-linejoin="round" opacity="0.95"/><path d="M240.0,173.4 L241.3,181.0 L242.7,188.5 L244.0,196.0 L245.4,203.5 L246.7,211.0 L247.9,218.6 L247.3,226.2 L246.5,233.8 L245.8,241.4 L245.1,249.0 L244.3,256.6" fill="none" stroke="#0c2020" stroke-width="11" stroke-linecap="round" stroke-linejoin="round" opacity="1.0"/><path d="M240.0,99.4 L240.0,106.2 L240.0,112.9 L240.0,119.6 L240.0,126.3 L240.0,133.1 L240.0,139.8 L240.0,146.5 L240.0,153.3 L240.0,160.0 L240.0,166.7 L240.0,173.4" fill="none" stroke="#2dd4bf" stroke-width="23" stroke-linecap="round" stroke-linejoin="round" opacity="0.95"/><path d="M240.0,99.4 L240.0,106.2 L240.0,112.9 L240.0,119.6 L240.0,126.3 L240.0,133.1 L240.0,139.8 L240.0,146.5 L240.0,153.3 L240.0,160.0 L240.0,166.7 L240.0,173.4" fill="none" stroke="#0c2020" stroke-width="15" stroke-linecap="round" stroke-linejoin="round" opacity="1.0"/><circle cx="242.0" cy="71.4" r="19.0" fill="#2dd4bf" stroke="none" stroke-width="0" opacity="0.95"/><circle cx="242.0" cy="71.4" r="15.0" fill="#0c2020" stroke="none" stroke-width="6.3" opacity="1.0"/><path d="M240.0,54.4 L237.0,57.4 L234.0,60.4 L231.1,63.4 L228.1,66.3 L225.1,69.3 L222.1,72.3 L221.5,76.0 L222.4,80.1 L223.3,84.2 L224.1,88.3 L225.0,92.4" fill="none" stroke="#2dd4bf" stroke-width="5" stroke-linecap="round" stroke-linejoin="round" opacity="1.0"/><path d="M232.7,68.4 L234.4,68.4 L236.1,68.4 L237.8,68.4 L239.5,68.4 L241.2,68.4 L242.8,68.4 L244.5,68.4 L246.2,68.4 L247.9,68.4 L249.6,68.4 L251.3,68.4" fill="none" stroke="#a7f3ee" stroke-width="5" stroke-linecap="round" stroke-linejoin="round" opacity="1.0"/><path d="M188.0,134.1 L194.6,125.9 L201.9,118.0 L210.4,110.7 L220.5,104.4 L232.9,100.5 L247.1,100.5 L259.5,104.4 L269.6,110.7 L278.1,118.0 L285.4,125.9 L292.0,134.1" fill="none" stroke="#fbbf24" stroke-width="4" stroke-linecap="round" stroke-linejoin="round" opacity="1.0"/></g><g class="f11"><path d="M240.0,103.0 L235.9,108.7 L231.8,114.5 L227.7,120.2 L223.6,126.0 L219.5,131.7 L215.4,137.5 L211.2,143.2 L205.9,144.9 L199.9,144.1 L194.0,143.3 L188.0,142.5" fill="none" stroke="#0d9488" stroke-width="19" stroke-linecap="round" stroke-linejoin="round" opacity="0.95"/><path d="M240.0,103.0 L235.9,108.7 L231.8,114.5 L227.7,120.2 L223.6,126.0 L219.5,131.7 L215.4,137.5 L211.2,143.2 L205.9,144.9 L199.9,144.1 L194.0,143.3 L188.0,142.5" fill="none" stroke="#0c2020" stroke-width="11" stroke-linecap="round" stroke-linejoin="round" opacity="1.0"/><path d="M240.0,103.0 L244.1,108.7 L248.2,114.5 L252.3,120.2 L256.4,126.0 L260.5,131.7 L264.6,137.5 L268.8,143.2 L274.1,144.9 L280.1,144.1 L286.0,143.3 L292.0,142.5" fill="none" stroke="#2dd4bf" stroke-width="19" stroke-linecap="round" stroke-linejoin="round" opacity="0.95"/><path d="M240.0,103.0 L244.1,108.7 L248.2,114.5 L252.3,120.2 L256.4,126.0 L260.5,131.7 L264.6,137.5 L268.8,143.2 L274.1,144.9 L280.1,144.1 L286.0,143.3 L292.0,142.5" fill="none" stroke="#0c2020" stroke-width="11" stroke-linecap="round" stroke-linejoin="round" opacity="1.0"/><path d="M240.0,177.0 L239.0,184.8 L237.9,192.6 L236.9,200.5 L235.9,208.3 L234.8,216.1 L234.0,224.0 L233.3,231.8 L232.6,239.7 L232.0,247.6 L231.3,255.4 L230.6,263.3" fill="none" stroke="#8f2a3e" stroke-width="19" stroke-linecap="round" stroke-linejoin="round" opacity="0.95"/><path d="M240.0,177.0 L239.0,184.8 L237.9,192.6 L236.9,200.5 L235.9,208.3 L234.8,216.1 L234.0,224.0 L233.3,231.8 L232.6,239.7 L232.0,247.6 L231.3,255.4 L230.6,263.3" fill="none" stroke="#0c2020" stroke-width="11" stroke-linecap="round" stroke-linejoin="round" opacity="1.0"/><path d="M240.0,177.0 L241.4,184.8 L242.8,192.6 L244.1,200.4 L245.5,208.2 L246.9,216.0 L247.9,223.8 L247.3,231.7 L246.6,239.6 L246.0,247.5 L245.3,255.4 L244.6,263.3" fill="none" stroke="#f43f5e" stroke-width="19" stroke-linecap="round" stroke-linejoin="round" opacity="0.95"/><path d="M240.0,177.0 L241.4,184.8 L242.8,192.6 L244.1,200.4 L245.5,208.2 L246.9,216.0 L247.9,223.8 L247.3,231.7 L246.6,239.6 L246.0,247.5 L245.3,255.4 L244.6,263.3" fill="none" stroke="#0c2020" stroke-width="11" stroke-linecap="round" stroke-linejoin="round" opacity="1.0"/><path d="M240.0,103.0 L240.0,109.7 L240.0,116.4 L240.0,123.1 L240.0,129.9 L240.0,136.6 L240.0,143.3 L240.0,150.1 L240.0,156.8 L240.0,163.5 L240.0,170.2 L240.0,177.0" fill="none" stroke="#2dd4bf" stroke-width="23" stroke-linecap="round" stroke-linejoin="round" opacity="0.95"/><path d="M240.0,103.0 L240.0,109.7 L240.0,116.4 L240.0,123.1 L240.0,129.9 L240.0,136.6 L240.0,143.3 L240.0,150.1 L240.0,156.8 L240.0,163.5 L240.0,170.2 L240.0,177.0" fill="none" stroke="#0c2020" stroke-width="15" stroke-linecap="round" stroke-linejoin="round" opacity="1.0"/><circle cx="242.0" cy="75.0" r="19.0" fill="#2dd4bf" stroke="none" stroke-width="0" opacity="0.95"/><circle cx="242.0" cy="75.0" r="15.0" fill="#0c2020" stroke="none" stroke-width="6.3" opacity="1.0"/><path d="M240.0,58.0 L237.0,60.9 L234.0,63.9 L231.1,66.9 L228.1,69.9 L225.1,72.8 L222.1,75.8 L221.5,79.5 L222.4,83.6 L223.3,87.7 L224.1,91.8 L225.0,96.0" fill="none" stroke="#2dd4bf" stroke-width="5" stroke-linecap="round" stroke-linejoin="round" opacity="1.0"/><path d="M232.7,72.0 L234.4,72.0 L236.1,72.0 L237.8,72.0 L239.5,72.0 L241.2,72.0 L242.8,72.0 L244.5,72.0 L246.2,72.0 L247.9,72.0 L249.6,72.0 L251.3,72.0" fill="none" stroke="#a7f3ee" stroke-width="5" stroke-linecap="round" stroke-linejoin="round" opacity="1.0"/><path d="M188.0,142.5 L194.5,138.6 L201.8,134.9 L210.2,131.6 L220.2,128.9 L232.8,127.4 L247.2,127.4 L259.8,128.9 L269.8,131.6 L278.2,134.9 L285.5,138.6 L292.0,142.5" fill="none" stroke="#fbbf24" stroke-width="4" stroke-linecap="round" stroke-linejoin="round" opacity="1.0"/></g><g class="f12"><path d="M240.0,107.0 L235.9,112.8 L231.7,118.6 L227.6,124.4 L223.4,130.2 L219.3,136.0 L215.2,141.8 L211.0,147.6 L205.6,150.1 L199.8,150.7 L193.9,151.4 L188.0,152.0" fill="none" stroke="#0d9488" stroke-width="19" stroke-linecap="round" stroke-linejoin="round" opacity="0.95"/><path d="M240.0,107.0 L235.9,112.8 L231.7,118.6 L227.6,124.4 L223.4,130.2 L219.3,136.0 L215.2,141.8 L211.0,147.6 L205.6,150.1 L199.8,150.7 L193.9,151.4 L188.0,152.0" fill="none" stroke="#0c2020" stroke-width="11" stroke-linecap="round" stroke-linejoin="round" opacity="1.0"/><path d="M240.0,107.0 L244.1,112.8 L248.3,118.6 L252.4,124.4 L256.6,130.2 L260.7,136.0 L264.8,141.8 L269.0,147.6 L274.4,150.1 L280.2,150.7 L286.1,151.4 L292.0,152.0" fill="none" stroke="#2dd4bf" stroke-width="19" stroke-linecap="round" stroke-linejoin="round" opacity="0.95"/><path d="M240.0,107.0 L244.1,112.8 L248.3,118.6 L252.4,124.4 L256.6,130.2 L260.7,136.0 L264.8,141.8 L269.0,147.6 L274.4,150.1 L280.2,150.7 L286.1,151.4 L292.0,152.0" fill="none" stroke="#0c2020" stroke-width="11" stroke-linecap="round" stroke-linejoin="round" opacity="1.0"/><path d="M240.0,181.0 L238.9,189.2 L237.9,197.3 L236.8,205.5 L235.8,213.6 L234.7,221.8 L233.9,230.0 L233.3,238.2 L232.7,246.4 L232.2,254.6 L231.6,262.8 L231.0,271.0" fill="none" stroke="#8f2a3e" stroke-width="19" stroke-linecap="round" stroke-linejoin="round" opacity="0.95"/><path d="M240.0,181.0 L238.9,189.2 L237.9,197.3 L236.8,205.5 L235.8,213.6 L234.7,221.8 L233.9,230.0 L233.3,238.2 L232.7,246.4 L232.2,254.6 L231.6,262.8 L231.0,271.0" fill="none" stroke="#0c2020" stroke-width="11" stroke-linecap="round" stroke-linejoin="round" opacity="1.0"/><path d="M240.0,181.0 L241.4,189.1 L242.8,197.3 L244.2,205.4 L245.6,213.5 L247.1,221.7 L247.8,229.8 L247.3,238.1 L246.7,246.3 L246.2,254.5 L245.6,262.8 L245.0,271.0" fill="none" stroke="#f43f5e" stroke-width="19" stroke-linecap="round" stroke-linejoin="round" opacity="0.95"/><path d="M240.0,181.0 L241.4,189.1 L242.8,197.3 L244.2,205.4 L245.6,213.5 L247.1,221.7 L247.8,229.8 L247.3,238.1 L246.7,246.3 L246.2,254.5 L245.6,262.8 L245.0,271.0" fill="none" stroke="#0c2020" stroke-width="11" stroke-linecap="round" stroke-linejoin="round" opacity="1.0"/><path d="M240.0,107.0 L240.0,113.7 L240.0,120.5 L240.0,127.2 L240.0,133.9 L240.0,140.6 L240.0,147.4 L240.0,154.1 L240.0,160.8 L240.0,167.5 L240.0,174.3 L240.0,181.0" fill="none" stroke="#2dd4bf" stroke-width="23" stroke-linecap="round" stroke-linejoin="round" opacity="0.95"/><path d="M240.0,107.0 L240.0,113.7 L240.0,120.5 L240.0,127.2 L240.0,133.9 L240.0,140.6 L240.0,147.4 L240.0,154.1 L240.0,160.8 L240.0,167.5 L240.0,174.3 L240.0,181.0" fill="none" stroke="#0c2020" stroke-width="15" stroke-linecap="round" stroke-linejoin="round" opacity="1.0"/><circle cx="242.0" cy="79.0" r="19.0" fill="#2dd4bf" stroke="none" stroke-width="0" opacity="0.95"/><circle cx="242.0" cy="79.0" r="15.0" fill="#0c2020" stroke="none" stroke-width="6.3" opacity="1.0"/><path d="M240.0,62.0 L237.0,65.0 L234.0,68.0 L231.1,70.9 L228.1,73.9 L225.1,76.9 L222.1,79.9 L221.5,83.5 L222.4,87.6 L223.3,91.8 L224.1,95.9 L225.0,100.0" fill="none" stroke="#2dd4bf" stroke-width="5" stroke-linecap="round" stroke-linejoin="round" opacity="1.0"/><path d="M232.7,76.0 L234.4,76.0 L236.1,76.0 L237.8,76.0 L239.5,76.0 L241.2,76.0 L242.8,76.0 L244.5,76.0 L246.2,76.0 L247.9,76.0 L249.6,76.0 L251.3,76.0" fill="none" stroke="#a7f3ee" stroke-width="5" stroke-linecap="round" stroke-linejoin="round" opacity="1.0"/><path d="M188.0,152.0 L194.5,153.1 L201.7,154.3 L210.0,155.5 L220.0,156.9 L232.6,158.3 L247.4,158.3 L260.0,156.9 L270.0,155.5 L278.3,154.3 L285.5,153.1 L292.0,152.0" fill="none" stroke="#fbbf24" stroke-width="4" stroke-linecap="round" stroke-linejoin="round" opacity="1.0"/></g><g class="f13"><path d="M240.0,111.0 L235.8,116.9 L231.7,122.7 L227.5,128.6 L223.3,134.4 L219.1,140.3 L215.0,146.1 L210.8,151.9 L205.4,155.3 L199.6,157.4 L193.8,159.5 L188.0,161.5" fill="none" stroke="#0d9488" stroke-width="19" stroke-linecap="round" stroke-linejoin="round" opacity="0.95"/><path d="M240.0,111.0 L235.8,116.9 L231.7,122.7 L227.5,128.6 L223.3,134.4 L219.1,140.3 L215.0,146.1 L210.8,151.9 L205.4,155.3 L199.6,157.4 L193.8,159.5 L188.0,161.5" fill="none" stroke="#0c2020" stroke-width="11" stroke-linecap="round" stroke-linejoin="round" opacity="1.0"/><path d="M240.0,111.0 L244.2,116.9 L248.3,122.7 L252.5,128.6 L256.7,134.4 L260.9,140.3 L265.0,146.1 L269.2,151.9 L274.6,155.3 L280.4,157.4 L286.2,159.5 L292.0,161.5" fill="none" stroke="#2dd4bf" stroke-width="19" stroke-linecap="round" stroke-linejoin="round" opacity="0.95"/><path d="M240.0,111.0 L244.2,116.9 L248.3,122.7 L252.5,128.6 L256.7,134.4 L260.9,140.3 L265.0,146.1 L269.2,151.9 L274.6,155.3 L280.4,157.4 L286.2,159.5 L292.0,161.5" fill="none" stroke="#0c2020" stroke-width="11" stroke-linecap="round" stroke-linejoin="round" opacity="1.0"/><path d="M240.0,185.0 L238.9,193.5 L237.8,202.0 L236.7,210.5 L235.7,219.0 L234.6,227.5 L233.9,236.0 L233.4,244.5 L232.9,253.1 L232.4,261.6 L231.9,270.2 L231.4,278.7" fill="none" stroke="#8f2a3e" stroke-width="19" stroke-linecap="round" stroke-linejoin="round" opacity="0.95"/><path d="M240.0,185.0 L238.9,193.5 L237.8,202.0 L236.7,210.5 L235.7,219.0 L234.6,227.5 L233.9,236.0 L233.4,244.5 L232.9,253.1 L232.4,261.6 L231.9,270.2 L231.4,278.7" fill="none" stroke="#0c2020" stroke-width="11" stroke-linecap="round" stroke-linejoin="round" opacity="1.0"/><path d="M240.0,185.0 L241.4,193.5 L242.9,202.0 L244.3,210.4 L245.8,218.9 L247.2,227.4 L247.8,235.9 L247.4,244.4 L246.9,253.0 L246.4,261.6 L245.9,270.1 L245.4,278.7" fill="none" stroke="#f43f5e" stroke-width="19" stroke-linecap="round" stroke-linejoin="round" opacity="0.95"/><path d="M240.0,185.0 L241.4,193.5 L242.9,202.0 L244.3,210.4 L245.8,218.9 L247.2,227.4 L247.8,235.9 L247.4,244.4 L246.9,253.0 L246.4,261.6 L245.9,270.1 L245.4,278.7" fill="none" stroke="#0c2020" stroke-width="11" stroke-linecap="round" stroke-linejoin="round" opacity="1.0"/><path d="M240.0,111.0 L240.0,117.8 L240.0,124.5 L240.0,131.2 L240.0,137.9 L240.0,144.7 L240.0,151.4 L240.0,158.1 L240.0,164.9 L240.0,171.6 L240.0,178.3 L240.0,185.0" fill="none" stroke="#2dd4bf" stroke-width="23" stroke-linecap="round" stroke-linejoin="round" opacity="0.95"/><path d="M240.0,111.0 L240.0,117.8 L240.0,124.5 L240.0,131.2 L240.0,137.9 L240.0,144.7 L240.0,151.4 L240.0,158.1 L240.0,164.9 L240.0,171.6 L240.0,178.3 L240.0,185.0" fill="none" stroke="#0c2020" stroke-width="15" stroke-linecap="round" stroke-linejoin="round" opacity="1.0"/><circle cx="242.0" cy="83.0" r="19.0" fill="#2dd4bf" stroke="none" stroke-width="0" opacity="0.95"/><circle cx="242.0" cy="83.0" r="15.0" fill="#0c2020" stroke="none" stroke-width="6.3" opacity="1.0"/><path d="M240.0,66.0 L237.0,69.0 L234.0,72.0 L231.1,75.0 L228.1,77.9 L225.1,80.9 L222.1,83.9 L221.5,87.6 L222.4,91.7 L223.3,95.8 L224.1,99.9 L225.0,104.0" fill="none" stroke="#2dd4bf" stroke-width="5" stroke-linecap="round" stroke-linejoin="round" opacity="1.0"/><path d="M232.7,80.0 L234.4,80.0 L236.1,80.0 L237.8,80.0 L239.5,80.0 L241.2,80.0 L242.8,80.0 L244.5,80.0 L246.2,80.0 L247.9,80.0 L249.6,80.0 L251.3,80.0" fill="none" stroke="#a7f3ee" stroke-width="5" stroke-linecap="round" stroke-linejoin="round" opacity="1.0"/><path d="M188.0,161.5 L194.4,167.6 L201.5,173.6 L209.8,179.5 L219.8,184.9 L232.5,189.1 L247.5,189.1 L260.2,184.9 L270.2,179.5 L278.5,173.6 L285.6,167.6 L292.0,161.5" fill="none" stroke="#fbbf24" stroke-width="4" stroke-linecap="round" stroke-linejoin="round" opacity="1.0"/></g><g class="f14"><path d="M240.0,114.6 L235.8,120.4 L231.6,126.3 L227.4,132.2 L223.2,138.1 L219.0,144.0 L214.8,149.9 L210.6,155.7 L205.1,159.8 L199.4,163.1 L193.7,166.5 L188.0,169.9" fill="none" stroke="#0d9488" stroke-width="19" stroke-linecap="round" stroke-linejoin="round" opacity="0.95"/><path d="M240.0,114.6 L235.8,120.4 L231.6,126.3 L227.4,132.2 L223.2,138.1 L219.0,144.0 L214.8,149.9 L210.6,155.7 L205.1,159.8 L199.4,163.1 L193.7,166.5 L188.0,169.9" fill="none" stroke="#0c2020" stroke-width="11" stroke-linecap="round" stroke-linejoin="round" opacity="1.0"/><path d="M240.0,114.6 L244.2,120.4 L248.4,126.3 L252.6,132.2 L256.8,138.1 L261.0,144.0 L265.2,149.9 L269.4,155.7 L274.9,159.8 L280.6,163.1 L286.3,166.5 L292.0,169.9" fill="none" stroke="#2dd4bf" stroke-width="19" stroke-linecap="round" stroke-linejoin="round" opacity="0.95"/><path d="M240.0,114.6 L244.2,120.4 L248.4,126.3 L252.6,132.2 L256.8,138.1 L261.0,144.0 L265.2,149.9 L269.4,155.7 L274.9,159.8 L280.6,163.1 L286.3,166.5 L292.0,169.9" fill="none" stroke="#0c2020" stroke-width="11" stroke-linecap="round" stroke-linejoin="round" opacity="1.0"/><path d="M240.0,188.6 L238.9,197.3 L237.8,206.1 L236.7,214.9 L235.6,223.7 L234.4,232.4 L233.8,241.3 L233.4,250.1 L233.0,258.9 L232.5,267.8 L232.1,276.6 L231.7,285.4" fill="none" stroke="#8f2a3e" stroke-width="19" stroke-linecap="round" stroke-linejoin="round" opacity="0.95"/><path d="M240.0,188.6 L238.9,197.3 L237.8,206.1 L236.7,214.9 L235.6,223.7 L234.4,232.4 L233.8,241.3 L233.4,250.1 L233.0,258.9 L232.5,267.8 L232.1,276.6 L231.7,285.4" fill="none" stroke="#0c2020" stroke-width="11" stroke-linecap="round" stroke-linejoin="round" opacity="1.0"/><path d="M240.0,188.6 L241.5,197.3 L243.0,206.1 L244.4,214.8 L245.9,223.6 L247.4,232.3 L247.8,241.1 L247.4,250.0 L247.0,258.9 L246.5,267.7 L246.1,276.6 L245.7,285.4" fill="none" stroke="#f43f5e" stroke-width="19" stroke-linecap="round" stroke-linejoin="round" opacity="0.95"/><path d="M240.0,188.6 L241.5,197.3 L243.0,206.1 L244.4,214.8 L245.9,223.6 L247.4,232.3 L247.8,241.1 L247.4,250.0 L247.0,258.9 L246.5,267.7 L246.1,276.6 L245.7,285.4" fill="none" stroke="#0c2020" stroke-width="11" stroke-linecap="round" stroke-linejoin="round" opacity="1.0"/><path d="M240.0,114.6 L240.0,121.3 L240.0,128.0 L240.0,134.7 L240.0,141.5 L240.0,148.2 L240.0,154.9 L240.0,161.7 L240.0,168.4 L240.0,175.1 L240.0,181.8 L240.0,188.6" fill="none" stroke="#2dd4bf" stroke-width="23" stroke-linecap="round" stroke-linejoin="round" opacity="0.95"/><path d="M240.0,114.6 L240.0,121.3 L240.0,128.0 L240.0,134.7 L240.0,141.5 L240.0,148.2 L240.0,154.9 L240.0,161.7 L240.0,168.4 L240.0,175.1 L240.0,181.8 L240.0,188.6" fill="none" stroke="#0c2020" stroke-width="15" stroke-linecap="round" stroke-linejoin="round" opacity="1.0"/><circle cx="242.0" cy="86.6" r="19.0" fill="#2dd4bf" stroke="none" stroke-width="0" opacity="0.95"/><circle cx="242.0" cy="86.6" r="15.0" fill="#0c2020" stroke="none" stroke-width="6.3" opacity="1.0"/><path d="M240.0,69.6 L237.0,72.5 L234.0,75.5 L231.1,78.5 L228.1,81.5 L225.1,84.4 L222.1,87.4 L221.5,91.1 L222.4,95.2 L223.3,99.3 L224.1,103.4 L225.0,107.6" fill="none" stroke="#2dd4bf" stroke-width="5" stroke-linecap="round" stroke-linejoin="round" opacity="1.0"/><path d="M232.7,83.6 L234.4,83.6 L236.1,83.6 L237.8,83.6 L239.5,83.6 L241.2,83.6 L242.8,83.6 L244.5,83.6 L246.2,83.6 L247.9,83.6 L249.6,83.6 L251.3,83.6" fill="none" stroke="#a7f3ee" stroke-width="5" stroke-linecap="round" stroke-linejoin="round" opacity="1.0"/><path d="M188.0,169.9 L194.4,180.3 L201.4,190.5 L209.6,200.4 L219.6,209.3 L232.3,216.1 L247.7,216.1 L260.4,209.3 L270.4,200.4 L278.6,190.5 L285.6,180.3 L292.0,169.9" fill="none" stroke="#fbbf24" stroke-width="4" stroke-linecap="round" stroke-linejoin="round" opacity="1.0"/></g><g class="f15"><path d="M240.0,117.1 L235.8,123.0 L231.6,128.9 L227.3,134.8 L223.1,140.7 L218.9,146.6 L214.7,152.5 L210.4,158.4 L205.0,163.0 L199.3,167.2 L193.7,171.5 L188.0,175.8" fill="none" stroke="#0d9488" stroke-width="19" stroke-linecap="round" stroke-linejoin="round" opacity="0.95"/><path d="M240.0,117.1 L235.8,123.0 L231.6,128.9 L227.3,134.8 L223.1,140.7 L218.9,146.6 L214.7,152.5 L210.4,158.4 L205.0,163.0 L199.3,167.2 L193.7,171.5 L188.0,175.8" fill="none" stroke="#0c2020" stroke-width="11" stroke-linecap="round" stroke-linejoin="round" opacity="1.0"/><path d="M240.0,117.1 L244.2,123.0 L248.4,128.9 L252.7,134.8 L256.9,140.7 L261.1,146.6 L265.3,152.5 L269.6,158.4 L275.0,163.0 L280.7,167.2 L286.3,171.5 L292.0,175.8" fill="none" stroke="#2dd4bf" stroke-width="19" stroke-linecap="round" stroke-linejoin="round" opacity="0.95"/><path d="M240.0,117.1 L244.2,123.0 L248.4,128.9 L252.7,134.8 L256.9,140.7 L261.1,146.6 L265.3,152.5 L269.6,158.4 L275.0,163.0 L280.7,167.2 L286.3,171.5 L292.0,175.8" fill="none" stroke="#0c2020" stroke-width="11" stroke-linecap="round" stroke-linejoin="round" opacity="1.0"/><path d="M240.0,191.1 L238.9,200.0 L237.7,209.0 L236.6,218.0 L235.5,227.0 L234.4,236.0 L233.8,245.0 L233.4,254.0 L233.0,263.1 L232.7,272.1 L232.3,281.2 L231.9,290.2" fill="none" stroke="#8f2a3e" stroke-width="19" stroke-linecap="round" stroke-linejoin="round" opacity="0.95"/><path d="M240.0,191.1 L238.9,200.0 L237.7,209.0 L236.6,218.0 L235.5,227.0 L234.4,236.0 L233.8,245.0 L233.4,254.0 L233.0,263.1 L232.7,272.1 L232.3,281.2 L231.9,290.2" fill="none" stroke="#0c2020" stroke-width="11" stroke-linecap="round" stroke-linejoin="round" opacity="1.0"/><path d="M240.0,191.1 L241.5,200.0 L243.0,209.0 L244.5,217.9 L246.0,226.9 L247.5,235.8 L247.8,244.9 L247.4,253.9 L247.0,263.0 L246.7,272.1 L246.3,281.1 L245.9,290.2" fill="none" stroke="#f43f5e" stroke-width="19" stroke-linecap="round" stroke-linejoin="round" opacity="0.95"/><path d="M240.0,191.1 L241.5,200.0 L243.0,209.0 L244.5,217.9 L246.0,226.9 L247.5,235.8 L247.8,244.9 L247.4,253.9 L247.0,263.0 L246.7,272.1 L246.3,281.1 L245.9,290.2" fill="none" stroke="#0c2020" stroke-width="11" stroke-linecap="round" stroke-linejoin="round" opacity="1.0"/><path d="M240.0,117.1 L240.0,123.8 L240.0,130.5 L240.0,137.2 L240.0,144.0 L240.0,150.7 L240.0,157.4 L240.0,164.1 L240.0,170.9 L240.0,177.6 L240.0,184.3 L240.0,191.1" fill="none" stroke="#2dd4bf" stroke-width="23" stroke-linecap="round" stroke-linejoin="round" opacity="0.95"/><path d="M240.0,117.1 L240.0,123.8 L240.0,130.5 L240.0,137.2 L240.0,144.0 L240.0,150.7 L240.0,157.4 L240.0,164.1 L240.0,170.9 L240.0,177.6 L240.0,184.3 L240.0,191.1" fill="none" stroke="#0c2020" stroke-width="15" stroke-linecap="round" stroke-linejoin="round" opacity="1.0"/><circle cx="242.0" cy="89.1" r="19.0" fill="#2dd4bf" stroke="none" stroke-width="0" opacity="0.95"/><circle cx="242.0" cy="89.1" r="15.0" fill="#0c2020" stroke="none" stroke-width="6.3" opacity="1.0"/><path d="M240.0,72.1 L237.0,75.0 L234.0,78.0 L231.1,81.0 L228.1,84.0 L225.1,86.9 L222.1,89.9 L221.5,93.6 L222.4,97.7 L223.3,101.8 L224.1,105.9 L225.0,110.1" fill="none" stroke="#2dd4bf" stroke-width="5" stroke-linecap="round" stroke-linejoin="round" opacity="1.0"/><path d="M232.7,86.1 L234.4,86.1 L236.1,86.1 L237.8,86.1 L239.5,86.1 L241.2,86.1 L242.8,86.1 L244.5,86.1 L246.2,86.1 L247.9,86.1 L249.6,86.1 L251.3,86.1" fill="none" stroke="#a7f3ee" stroke-width="5" stroke-linecap="round" stroke-linejoin="round" opacity="1.0"/><path d="M188.0,175.8 L194.3,189.3 L201.3,202.5 L209.5,215.1 L219.4,226.6 L232.2,235.1 L247.8,235.1 L260.6,226.6 L270.5,215.1 L278.7,202.5 L285.7,189.3 L292.0,175.8" fill="none" stroke="#fbbf24" stroke-width="4" stroke-linecap="round" stroke-linejoin="round" opacity="1.0"/></g></svg>
