<svg xmlns="http://www.w3.org/2000/svg" viewBox="0 0 480 320"><style>@keyframes k0{0%{opacity:1}11.111%{opacity:0}100%{opacity:0}}.f0{opacity:0;animation:k0 2.4s steps(1,end) infinite}@keyframes k1{0%{opacity:0}11.111%{opacity:1}16.667%{opacity:0}100%{opacity:0}}.f1{opacity:0;animation:k1 2.4s steps(1,end) infinite}@keyframes k2{0%{opacity:0}16.667%{opacity:1}22.222%{opacity:0}100%{opacity:0}}.f2{opacity:0;animation:k2 2.4s steps(1,end) infinite}@keyframes k3{0%{opacity:0}22.222%{opacity:1}27.778%{opacity:0}100%{opacity:0}}.f3{opacity:0;animation:k3 2.4s steps(1,end) infinite}@keyframes k4{0%{opacity:0}27.778%{opacity:1}33.333%{opacity:0}100%{opacity:0}}.f4{opacity:0;animation:k4 2.4s steps(1,end) infinite}@keyframes k5{0%{opacity:0}33.333%{opacity:1}38.889%{opacity:0}100%{opacity:0}}.f5{opacity:0;animation:k5 2.4s steps(1,end) infinite}@keyframes k6{0%{opacity:0}38.889%{opacity:1}44.444%{opacity:0}100%{opacity:0}}.f6{opacity:0;animation:k6 2.4s steps(1,end) infinite}@keyframes k7{0%{opacity:0}44.444%{opacity:1}50.000%{opacity:0}100%{opacity:0}}.f7{opacity:0;animation:k7 2.4s steps(1,end) infinite}@keyframes k8{0%{opacity:0}50.000%{opacity:1}61.111%{opacity:0}100%{opacity:0}}.f8{opacity:0;animation:k8 2.4s steps(1,end) infinite}@keyframes k9{0%{opacity:0}61.111%{opacity:1}66.667%{opacity:0}100%{opacity:0}}.f9{opacity:0;animation:k9 2.4s steps(1,end) infinite}@keyframes k10{0%{opacity:0}66.667%{opacity:1}72.222%{opacity:0}100%{opacity:0}}.f10{opacity:0;animation:k10 2.4s steps(1,end) infinite}@keyframes k11{0%{opacity:0}72.222%{opacity:1}77.778%{opacity:0}100%{opacity:0}}.f11{opacity:0;animation:k11 2.4s steps(1,end) infinite}@keyframes k12{0%{opacity:0}77.778%{opacity:1}83.333%{opacity:0}100%{opacity:0}}.f12{opacity:0;animation:k12 2.4s steps(1,end) infinite}@keyframes k13{0%{opacity:0}83.333%{opacity:1}88.889%{opacity:0}100%{opacity:0}}.f13{opacity:0;animation:k13 2.4s steps(1,end) infinite}@keyframes k14{0%{opacity:0}88.889%{opacity:1}94.444%{opacity:0}100%{opacity:0}}.f14{opacity:0;animation:k14 2.4s steps(1,end) infinite}@keyframes k15{0%{opacity:0}94.444%{opacity:1}100%{opacity:1}}.f15{opacity:0;animation:k15 2.4s steps(1,end) infinite}</style><path d="M40.0,292.0 L440.0,292.0" fill="none" stroke="#1f3333" stroke-width="6" stroke-linecap="round" stroke-linejoin="round" opacity="1.0"/><path d="M240.0,258.0 L182.0,220.0 L136.0,232.0" fill="none" stroke="#2dd4bf" stroke-width="21" stroke-linecap="round" stroke-linejoin="round" opacity="0.95"/><path d="M240.0,258.0 L182.0,220.0 L136.0,232.0" fill="none" stroke="#0c2020" stroke-width="13" stroke-linecap="round" stroke-linejoin="round" opacity="1.0"/><path d="M284.0,186.0 L240.0,258.0" fill="none" stroke="#f43f5e" stroke-width="25" stroke-linecap="round" stroke-linejoin="round" opacity="0.95"/><path d="M284.0,186.0 L240.0,258.0" fill="none" stroke="#0c2020" stroke-width="17" stroke-linecap="round" stroke-linejoin="round" opacity="1.0"/><circle cx="292.0" cy="160.0" r="19.0" fill="#f43f5e" stroke="none" stroke-width="0" opacity="0.95"/><circle cx="292.0" cy="160.0" r="15.0" fill="#0c2020" stroke="none" stroke-width="6.3" opacity="1.0"/><path d="M282.7,157.0 L301.3,157.0" fill="none" stroke="#a7f3ee" stroke-width="5" stroke-linecap="round" stroke-linejoin="round" opacity="1.0"/><g class="f0"><path d="M284.0,186.0 L276.8,189.8 L269.7,193.5 L262.5,197.3 L255.4,201.1 L248.2,204.8 L240.4,206.2 L232.3,206.6 L224.2,206.9 L216.2,207.3 L208.1,207.6 L200.0,208.0" fill="none" stroke="#2dd4bf" stroke-width="21" stroke-linecap="round" stroke-linejoin="round" opacity="0.95"/><path d="M284.0,186.0 L276.8,189.8 L269.7,193.5 L262.5,197.3 L255.4,201.1 L248.2,204.8 L240.4,206.2 L232.3,206.6 L224.2,206.9 L216.2,207.3 L208.1,207.6 L200.0,208.0" fill="none" stroke="#0c2020" stroke-width="13" stroke-linecap="round" stroke-linejoin="round" opacity="1.0"/><path d="M194.0,210.0 L195.1,210.0 L196.2,210.0 L197.3,210.0 L198.4,210.0 L199.5,210.0 L200.5,210.0 L201.6,210.0 L202.7,210.0 L203.8,210.0 L204.9,210.0 L206.0,210.0" fill="none" stroke="#fbbf24" stroke-width="5" stroke-linecap="round" stroke-linejoin="round" opacity="1.0"/><circle cx="200.0" cy="221.0" r="9.0" fill="#fbbf24" stroke="none" stroke-width="6.3" opacity="1.0"/></g><g class="f1"><path d="M284.0,186.0 L277.0,189.7 L269.9,193.4 L262.9,197.1 L255.8,200.8 L248.8,204.5 L241.1,206.0 L233.2,206.4 L225.2,206.9 L217.6,207.3 L210.1,207.6 L202.6,208.0" fill="none" stroke="#2dd4bf" stroke-width="21" stroke-linecap="round" stroke-linejoin="round" opacity="0.95"/><path d="M284.0,186.0 L277.0,189.7 L269.9,193.4 L262.9,197.1 L255.8,200.8 L248.8,204.5 L241.1,206.0 L233.2,206.4 L225.2,206.9 L217.6,207.3 L210.1,207.6 L202.6,208.0" fill="none" stroke="#0c2020" stroke-width="13" stroke-linecap="round" stroke-linejoin="round" opacity="1.0"/><path d="M196.6,210.0 L197.7,210.0 L198.8,210.0 L199.9,210.0 L200.9,210.0 L202.0,210.0 L203.1,210.0 L204.2,210.0 L205.3,210.0 L206.4,210.0 L207.5,210.0 L208.6,210.0" fill="none" stroke="#fbbf24" stroke-width="5" stroke-linecap="round" stroke-linejoin="round" opacity="1.0"/><circle cx="202.6" cy="221.0" r="9.0" fill="#fbbf24" stroke="none" stroke-width="6.3" opacity="1.0"/></g><g class="f2"><path d="M284.0,186.0 L277.2,189.6 L270.5,193.1 L263.7,196.7 L257.0,200.2 L250.2,203.8 L242.9,205.3 L235.4,206.0 L227.8,206.7 L221.4,207.2 L215.4,207.6 L209.4,208.0" fill="none" stroke="#2dd4bf" stroke-width="21" stroke-linecap="round" stroke-linejoin="round" opacity="0.95"/><path d="M284.0,186.0 L277.2,189.6 L270.5,193.1 L263.7,196.7 L257.0,200.2 L250.2,203.8 L242.9,205.3 L235.4,206.0 L227.8,206.7 L221.4,207.2 L215.4,207.6 L209.4,208.0" fill="none" stroke="#0c2020" stroke-width="13" stroke-linecap="round" stroke-linejoin="round" opacity="1.0"/><path d="M203.4,210.0 L204.5,210.0 L205.6,210.0 L206.6,210.0 L207.7,210.0 L208.8,210.0 L209.9,210.0 L211.0,210.0 L212.1,210.0 L213.2,210.0 L214.3,210.0 L215.4,210.0" fill="none" stroke="#fbbf24" stroke-width="5" stroke-linecap="round" stroke-linejoin="round" opacity="1.0"/><circle cx="209.4" cy="221.0" r="9.0" fill="#fbbf24" stroke="none" stroke-width="6.3" opacity="1.0"/></g><g class="f3"><path d="M284.0,186.0 L277.7,189.3 L271.3,192.7 L265.0,196.0 L258.6,199.4 L252.3,202.7 L245.5,204.4 L238.5,205.4 L231.5,206.4 L226.8,207.1 L222.9,207.5 L219.0,208.0" fill="none" stroke="#2dd4bf" stroke-width="21" stroke-linecap="round" stroke-linejoin="round" opacity="0.95"/><path d="M284.0,186.0 L277.7,189.3 L271.3,192.7 L265.0,196.0 L258.6,199.4 L252.3,202.7 L245.5,204.4 L238.5,205.4 L231.5,206.4 L226.8,207.1 L222.9,207.5 L219.0,208.0" fill="none" stroke="#0c2020" stroke-width="13" stroke-linecap="round" stroke-linejoin="round" opacity="1.0"/><path d="M213.0,210.0 L214.1,210.0 L215.2,210.0 L216.3,210.0 L217.3,210.0 L218.4,210.0 L219.5,210.0 L220.6,210.0 L221.7,210.0 L222.8,210.0 L223.9,210.0 L225.0,210.0" fill="none" stroke="#fbbf24" stroke-width="5" stroke-linecap="round" stroke-linejoin="round" opacity="1.0"/><circle cx="219.0" cy="221.0" r="9.0" fill="#fbbf24" stroke="none" stroke-width="6.3" opacity="1.0"/></g><g class="f4"><path d="M284.0,186.0 L278.1,189.1 L272.2,192.2 L266.4,195.3 L260.5,198.4 L254.6,201.5 L248.4,203.4 L242.1,204.8 L235.8,206.1 L232.9,206.9 L231.5,207.5 L230.0,208.0" fill="none" stroke="#2dd4bf" stroke-width="21" stroke-linecap="round" stroke-linejoin="round" opacity="0.95"/><path d="M284.0,186.0 L278.1,189.1 L272.2,192.2 L266.4,195.3 L260.5,198.4 L254.6,201.5 L248.4,203.4 L242.1,204.8 L235.8,206.1 L232.9,206.9 L231.5,207.5 L230.0,208.0" fill="none" stroke="#0c2020" stroke-width="13" stroke-linecap="round" stroke-linejoin="round" opacity="1.0"/><path d="M224.0,210.0 L225.1,210.0 L226.2,210.0 L227.3,210.0 L228.4,210.0 L229.5,210.0 L230.5,210.0 L231.6,210.0 L232.7,210.0 L233.8,210.0 L234.9,210.0 L236.0,210.0" fill="none" stroke="#fbbf24" stroke-width="5" stroke-linecap="round" stroke-linejoin="round" opacity="1.0"/><circle cx="230.0" cy="221.0" r="9.0" fill="#fbbf24" stroke="none" stroke-width="6.3" opacity="1.0"/></g><g class="f5"><path d="M284.0,186.0 L278.6,188.8 L273.2,191.7 L267.8,194.5 L262.4,197.4 L257.0,200.2 L251.4,202.3 L245.7,204.1 L240.0,205.8 L239.1,206.8 L240.1,207.4 L241.0,208.0" fill="none" stroke="#2dd4bf" stroke-width="21" stroke-linecap="round" stroke-linejoin="round" opacity="0.95"/><path d="M284.0,186.0 L278.6,188.8 L273.2,191.7 L267.8,194.5 L262.4,197.4 L257.0,200.2 L251.4,202.3 L245.7,204.1 L240.0,205.8 L239.1,206.8 L240.1,207.4 L241.0,208.0" fill="none" stroke="#0c2020" stroke-width="13" stroke-linecap="round" stroke-linejoin="round" opacity="1.0"/><path d="M235.0,210.0 L236.1,210.0 L237.2,210.0 L238.3,210.0 L239.4,210.0 L240.5,210.0 L241.6,210.0 L242.7,210.0 L243.7,210.0 L244.8,210.0 L245.9,210.0 L247.0,210.0" fill="none" stroke="#fbbf24" stroke-width="5" stroke-linecap="round" stroke-linejoin="round" opacity="1.0"/><circle cx="241.0" cy="221.0" r="9.0" fill="#fbbf24" stroke="none" stroke-width="6.3" opacity="1.0"/></g><g class="f6"><path d="M284.0,186.0 L279.0,188.6 L274.0,191.3 L269.0,193.9 L264.0,196.5 L259.0,199.1 L253.9,201.4 L248.8,203.5 L243.7,205.6 L244.5,206.7 L247.6,207.3 L250.6,208.0" fill="none" stroke="#2dd4bf" stroke-width="21" stroke-linecap="round" stroke-linejoin="round" opacity="0.95"/><path d="M284.0,186.0 L279.0,188.6 L274.0,191.3 L269.0,193.9 L264.0,196.5 L259.0,199.1 L253.9,201.4 L248.8,203.5 L243.7,205.6 L244.5,206.7 L247.6,207.3 L250.6,208.0" fill="none" stroke="#0c2020" stroke-width="13" stroke-linecap="round" stroke-linejoin="round" opacity="1.0"/><path d="M244.6,210.0 L245.7,210.0 L246.8,210.0 L247.9,210.0 L249.0,210.0 L250.1,210.0 L251.2,210.0 L252.3,210.0 L253.4,210.0 L254.4,210.0 L255.5,210.0 L256.6,210.0" fill="none" stroke="#fbbf24" stroke-width="5" stroke-linecap="round" stroke-linejoin="round" opacity="1.0"/><circle cx="250.6" cy="221.0" r="9.0" fill="#fbbf24" stroke="none" stroke-width="6.3" opacity="1.0"/></g><g class="f7"><path d="M284.0,186.0 L279.3,188.5 L274.6,191.0 L269.9,193.4 L265.2,195.9 L260.5,198.4 L255.8,200.7 L251.0,203.1 L246.3,205.4 L248.3,206.6 L252.9,207.3 L257.4,208.0" fill="none" stroke="#2dd4bf" stroke-width="21" stroke-linecap="round" stroke-linejoin="round" opacity="0.95"/><path d="M284.0,186.0 L279.3,188.5 L274.6,191.0 L269.9,193.4 L265.2,195.9 L260.5,198.4 L255.8,200.7 L251.0,203.1 L246.3,205.4 L248.3,206.6 L252.9,207.3 L257.4,208.0" fill="none" stroke="#0c2020" stroke-width="13" stroke-linecap="round" stroke-linejoin="round" opacity="1.0"/><path d="M251.4,210.0 L252.5,210.0 L253.6,210.0 L254.7,210.0 L255.8,210.0 L256.9,210.0 L258.0,210.0 L259.1,210.0 L260.1,210.0 L261.2,210.0 L262.3,210.0 L263.4,210.0" fill="none" stroke="#fbbf24" stroke-width="5" stroke-linecap="round" stroke-linejoin="round" opacity="1.0"/><circle cx="257.4" cy="221.0" r="9.0" fill="#fbbf24" stroke="none" stroke-width="6.3" opacity="1.0"/></g><g class="f8"><path d="M284.0,186.0 L279.4,188.4 L274.8,190.8 L270.2,193.3 L265.6,195.7 L261.0,198.1 L256.4,200.5 L251.9,202.9 L247.3,205.3 L249.7,206.5 L254.9,207.3 L260.0,208.0" fill="none" stroke="#2dd4bf" stroke-width="21" stroke-linecap="round" stroke-linejoin="round" opacity="0.95"/><path d="M284.0,186.0 L279.4,188.4 L274.8,190.8 L270.2,193.3 L265.6,195.7 L261.0,198.1 L256.4,200.5 L251.9,202.9 L247.3,205.3 L249.7,206.5 L254.9,207.3 L260.0,208.0" fill="none" stroke="#0c2020" stroke-width="13" stroke-linecap="round" stroke-linejoin="round" opacity="1.0"/><path d="M254.0,210.0 L255.1,210.0 L256.2,210.0 L257.3,210.0 L258.4,210.0 L259.5,210.0 L260.5,210.0 L261.6,210.0 L262.7,210.0 L263.8,210.0 L264.9,210.0 L266.0,210.0" fill="none" stroke="#fbbf24" stroke-width="5" stroke-linecap="round" stroke-linejoin="round" opacity="1.0"/><circle cx="260.0" cy="221.0" r="9.0" fill="#fbbf24" stroke="none" stroke-width="6.3" opacity="1.0"/></g><g class="f9"><path d="M284.0,186.0 L279.3,188.5 L274.6,191.0 L269.9,193.4 L265.2,195.9 L260.5,198.4 L255.8,200.7 L251.0,203.1 L246.3,205.4 L248.3,206.6 L252.9,207.3 L257.4,208.0" fill="none" stroke="#2dd4bf" stroke-width="21" stroke-linecap="round" stroke-linejoin="round" opacity="0.95"/><path d="M284.0,186.0 L279.3,188.5 L274.6,191.0 L269.9,193.4 L265.2,195.9 L260.5,198.4 L255.8,200.7 L251.0,203.1 L246.3,205.4 L248.3,206.6 L252.9,207.3 L257.4,208.0" fill="none" stroke="#0c2020" stroke-width="13" stroke-linecap="round" stroke-linejoin="round" opacity="1.0"/><path d="M251.4,210.0 L252.5,210.0 L253.6,210.0 L254.7,210.0 L255.8,210.0 L256.9,210.0 L258.0,210.0 L259.1,210.0 L260.1,210.0 L261.2,210.0 L262.3,210.0 L263.4,210.0" fill="none" stroke="#fbbf24" stroke-width="5" stroke-linecap="round" stroke-linejoin="round" opacity="1.0"/><circle cx="257.4" cy="221.0" r="9.0" fill="#fbbf24" stroke="none" stroke-width="6.3" opacity="1.0"/></g><g class="f10"><path d="M284.0,186.0 L279.0,188.6 L274.0,191.3 L269.0,193.9 L264.0,196.5 L259.0,199.1 L253.9,201.4 L248.8,203.5 L243.7,205.6 L244.5,206.7 L247.6,207.3 L250.6,208.0" fill="none" stroke="#2dd4bf" stroke-width="21" stroke-linecap="round" stroke-linejoin="round" opacity="0.95"/><path d="M284.0,186.0 L279.0,188.6 L274.0,191.3 L269.0,193.9 L264.0,196.5 L259.0,199.1 L253.9,201.4 L248.8,203.5 L243.7,205.6 L244.5,206.7 L247.6,207.3 L250.6,208.0" fill="none" stroke="#0c2020" stroke-width="13" stroke-linecap="round" stroke-linejoin="round" opacity="1.0"/><path d="M244.6,210.0 L245.7,210.0 L246.8,210.0 L247.9,210.0 L249.0,210.0 L250.1,210.0 L251.2,210.0 L252.3,210.0 L253.4,210.0 L254.4,210.0 L255.5,210.0 L256.6,210.0" fill="none" stroke="#fbbf24" stroke-width="5" stroke-linecap="round" stroke-linejoin="round" opacity="1.0"/><circle cx="250.6" cy="221.0" r="9.0" fill="#fbbf24" stroke="none" stroke-width="6.3" opacity="1.0"/></g><g class="f11"><path d="M284.0,186.0 L278.6,188.8 L273.2,191.7 L267.8,194.5 L262.4,197.4 L257.0,200.2 L251.4,202.3 L245.7,204.1 L240.0,205.8 L239.1,206.8 L240.1,207.4 L241.0,208.0" fill="none" stroke="#2dd4bf" stroke-width="21" stroke-linecap="round" stroke-linejoin="round" opacity="0.95"/><path d="M284.0,186.0 L278.6,188.8 L273.2,191.7 L267.8,194.5 L262.4,197.4 L257.0,200.2 L251.4,202.3 L245.7,204.1 L240.0,205.8 L239.1,206.8 L240.1,207.4 L241.0,208.0" fill="none" stroke="#0c2020" stroke-width="13" stroke-linecap="round" stroke-linejoin="round" opacity="1.0"/><path d="M235.0,210.0 L236.1,210.0 L237.2,210.0 L238.3,210.0 L239.4,210.0 L240.5,210.0 L241.6,210.0 L242.7,210.0 L243.7,210.0 L244.8,210.0 L245.9,210.0 L247.0,210.0" fill="none" stroke="#fbbf24" stroke-width="5" stroke-linecap="round" stroke-linejoin="round" opacity="1.0"/><circle cx="241.0" cy="221.0" r="9.0" fill="#fbbf24" stroke="none" stroke-width="6.3" opacity="1.0"/></g><g class="f12"><path d="M284.0,186.0 L278.1,189.1 L272.2,192.2 L266.4,195.3 L260.5,198.4 L254.6,201.5 L248.4,203.4 L242.1,204.8 L235.8,206.1 L232.9,206.9 L231.5,207.5 L230.0,208.0" fill="none" stroke="#2dd4bf" stroke-width="21" stroke-linecap="round" stroke-linejoin="round" opacity="0.95"/><path d="M284.0,186.0 L278.1,189.1 L272.2,192.2 L266.4,195.3 L260.5,198.4 L254.6,201.5 L248.4,203.4 L242.1,204.8 L235.8,206.1 L232.9,206.9 L231.5,207.5 L230.0,208.0" fill="none" stroke="#0c2020" stroke-width="13" stroke-linecap="round" stroke-linejoin="round" opacity="1.0"/><path d="M224.0,210.0 L225.1,210.0 L226.2,210.0 L227.3,210.0 L228.4,210.0 L229.5,210.0 L230.5,210.0 L231.6,210.0 L232.7,210.0 L233.8,210.0 L234.9,210.0 L236.0,210.0" fill="none" stroke="#fbbf24" stroke-width="5" stroke-linecap="round" stroke-linejoin="round" opacity="1.0"/><circle cx="230.0" cy="221.0" r="9.0" fill="#fbbf24" stroke="none" stroke-width="6.3" opacity="1.0"/></g><g class="f13"><path d="M284.0,186.0 L277.7,189.3 L271.3,192.7 L265.0,196.0 L258.6,199.4 L252.3,202.7 L245.5,204.4 L238.5,205.4 L231.5,206.4 L226.8,207.1 L222.9,207.5 L219.0,208.0" fill="none" stroke="#2dd4bf" stroke-width="21" stroke-linecap="round" stroke-linejoin="round" opacity="0.95"/><path d="M284.0,186.0 L277.7,189.3 L271.3,192.7 L265.0,196.0 L258.6,199.4 L252.3,202.7 L245.5,204.4 L238.5,205.4 L231.5,206.4 L226.8,207.1 L222.9,207.5 L219.0,208.0" fill="none" stroke="#0c2020" stroke-width="13" stroke-linecap="round" stroke-linejoin="round" opacity="1.0"/><path d="M213.0,210.0 L214.1,210.0 L215.2,210.0 L216.3,210.0 L217.3,210.0 L218.4,210.0 L219.5,210.0 L220.6,210.0 L221.7,210.0 L222.8,210.0 L223.9,210.0 L225.0,210.0" fill="none" stroke="#fbbf24" stroke-width="5" stroke-linecap="round" stroke-linejoin="round" opacity="1.0"/><circle cx="219.0" cy="221.0" r="9.0" fill="#fbbf24" stroke="none" stroke-width="6.3" opacity="1.0"/></g><g class="f14"><path d="M284.0,186.0 L277.2,189.6 L270.5,193.1 L263.7,196.7 L257.0,200.2 L250.2,203.8 L242.9,205.3 L235.4,206.0 L227.8,206.7 L221.4,207.2 L215.4,207.6 L209.4,208.0" fill="none" stroke="#2dd4bf" stroke-width="21" stroke-linecap="round" stroke-linejoin="round" opacity="0.95"/><path d="M284.0,186.0 L277.2,189.6 L270.5,193.1 L263.7,196.7 L257.0,200.2 L250.2,203.8 L242.9,205.3 L235.4,206.0 L227.8,206.7 L221.4,207.2 L215.4,207.6 L209.4,208.0" fill="none" stroke="#0c2020" stroke-width="13" stroke-linecap="round" stroke-linejoin="round" opacity="1.0"/><path d="M203.4,210.0 L204.5,210.0 L205.6,210.0 L206.6,210.0 L207.7,210.0 L208.8,210.0 L209.9,210.0 L211.0,210.0 L212.1,210.0 L213.2,210.0 L214.3,210.0 L215.4,210.0" fill="none" stroke="#fbbf24" stroke-width="5" stroke-linecap="round" stroke-linejoin="round" opacity="1.0"/><circle cx="209.4" cy="221.0" r="9.0" fill="#fbbf24" stroke="none" stroke-width="6.3" opacity="1.0"/></g><g class="f15"><path d="M284.0,186.0 L277.0,189.7 L269.9,193.4 L262.9,197.1 L255.8,200.8 L248.8,204.5 L241.1,206.0 L233.2,206.4 L225.2,206.9 L217.6,207.3 L210.1,207.6 L202.6,208.0" fill="none" stroke="#2dd4bf" stroke-width="21" stroke-linecap="round" stroke-linejoin="round" opacity="0.95"/><path d="M284.0,186.0 L277.0,189.7 L269.9,193.4 L262.9,197.1 L255.8,200.8 L248.8,204.5 L241.1,206.0 L233.2,206.4 L225.2,206.9 L217.6,207.3 L210.1,207.6 L202.6,208.0" fill="none" stroke="#0c2020" stroke-width="13" stroke-linecap="round" stroke-linejoin="round" opacity="1.0"/><path d="M196.6,210.0 L197.7,210.0 L198.8,210.0 L199.9,210.0 L200.9,210.0 L202.0,210.0 L203.1,210.0 L204.2,210.0 L205.3,210.0 L206.4,210.0 L207.5,210.0 L208.6,210.0" fill="none" stroke="#fbbf24" stroke-width="5" stroke-linecap="round" stroke-linejoin="round" opacity="1.0"/><circle cx="202.6" cy="221.0" r="9.0" fill="#fbbf24" stroke="none" stroke-width="6.3" opacity="1.0"/></g></svg>
