<svg xmlns="http://www.w3.org/2000/svg" viewBox="0 0 480 320"><style>@keyframes k0{0%{opacity:1}11.111%{opacity:0}100%{opacity:0}}.f0{opacity:0;animation:k0 2.4s steps(1,end) infinite}@keyframes k1{0%{opacity:0}11.111%{opacity:1}16.667%{opacity:0}100%{opacity:0}}.f1{opacity:0;animation:k1 2.4s steps(1,end) infinite}@keyframes k2{0%{opacity:0}16.667%{opacity:1}22.222%{opacity:0}100%{opacity:0}}.f2{opacity:0;animation:k2 2.4s steps(1,end) infinite}@keyframes k3{0%{opacity:0}22.222%{opacity:1}27.778%{opacity:0}100%{opacity:0}}.f3{opacity:0;animation:k3 2.4s steps(1,end) infinite}@keyframes k4{0%{opacity:0}27.778%{opacity:1}33.333%{opacity:0}100%{opacity:0}}.f4{opacity:0;animation:k4 2.4s steps(1,end) infinite}@keyframes k5{0%{opacity:0}33.333%{opacity:1}38.889%{opacity:0}100%{opacity:0}}.f5{opacity:0;animation:k5 2.4s steps(1,end) infinite}@keyframes k6{0%{opacity:0}38.889%{opacity:1}44.444%{opacity:0}100%{opacity:0}}.f6{opacity:0;animation:k6 2.4s steps(1,end) infinite}@keyframes k7{0%{opacity:0}44.444%{opacity:1}50.000%{opacity:0}100%{opacity:0}}.f7{opacity:0;animation:k7 2.4s steps(1,end) infinite}@keyframes k8{0%{opacity:0}50.000%{opacity:1}61.111%{opacity:0}100%{opacity:0}}.f8{opacity:0;animation:k8 2.4s steps(1,end) infinite}@keyframes k9{0%{opacity:0}61.111%{opacity:1}66.667%{opacity:0}100%{opacity:0}}.f9{opacity:0;animation:k9 2.4s steps(1,end) infinite}@keyframes k10{0%{opacity:0}66.667%{opacity:1}72.222%{opacity:0}100%{opacity:0}}.f10{opacity:0;animation:k10 2.4s steps(1,end) infinite}@keyframes k11{0%{opacity:0}72.222%{opacity:1}77.778%{opacity:0}100%{opacity:0}}.f11{opacity:0;animation:k11 2.4s steps(1,end) infinite}@keyframes k12{0%{opacity:0}77.778%{opacity:1}83.333%{opacity:0}100%{opacity:0}}.f12{opacity:0;animation:k12 2.4s steps(1,end) infinite}@keyframes k13{0%{opacity:0}83.333%{opacity:1}88.889%{opacity:0}100%{opacity:0}}.f13{opacity:0;animation:k13 2.4s steps(1,end) infinite}@keyframes k14{0%{opacity:0}88.889%{opacity:1}94.444%{opacity:0}100%{opacity:0}}.f14{opacity:0;animation:k14 2.4s steps(1,end) infinite}@keyframes k15{0%{opacity:0}94.444%{opacity:1}100%{opacity:1}}.f15{opacity:0;animation:k15 2.4s steps(1,end) infinite}</style><path d="M40.0,292.0 L440.0,292.0" fill="none" stroke="#1f3333" stroke-width="6" stroke-linecap="round" stroke-linejoin="round" opacity="1.0"/><path d="M315.0,208.0 L297.0,250.0 L327.0,292.0" fill="none" stroke="#2dd4bf" stroke-width="19" stroke-linecap="round" stroke-linejoin="round" opacity="0.95"/><path d="M315.0,208.0 L297.0,250.0 L327.0,292.0" fill="none" stroke="#0c2020" stroke-width="11" stroke-linecap="round" stroke-linejoin="round" opacity="1.0"/><circle cx="341.0" cy="200.0" r="19.0" fill="#f43f5e" stroke="none" stroke-width="0" opacity="0.95"/><circle cx="341.0" cy="200.0" r="15.0" fill="#0c2020" stroke="none" stroke-width="6.3" opacity="1.0"/><path d="M339.0,183.0 L320.0,202.0 L324.0,221.0" fill="none" stroke="#2dd4bf" stroke-width="5" stroke-linecap="round" stroke-linejoin="round" opacity="1.0"/><path d="M331.7,197.0 L350.3,197.0" fill="none" stroke="#a7f3ee" stroke-width="5" stroke-linecap="round" stroke-linejoin="round" opacity="1.0"/><g class="f0"><path d="M229.0,226.0 L217.5,230.5 L206.0,234.9 L194.5,239.4 L182.9,243.8 L171.4,248.3 L160.6,254.2 L150.3,260.9 L140.0,267.7 L129.7,274.5 L119.3,281.2 L109.0,288.0" fill="none" stroke="#2dd4bf" stroke-width="19" stroke-linecap="round" stroke-linejoin="round" opacity="0.95"/><path d="M229.0,226.0 L217.5,230.5 L206.0,234.9 L194.5,239.4 L182.9,243.8 L171.4,248.3 L160.6,254.2 L150.3,260.9 L140.0,267.7 L129.7,274.5 L119.3,281.2 L109.0,288.0" fill="none" stroke="#0c2020" stroke-width="11" stroke-linecap="round" stroke-linejoin="round" opacity="1.0"/><path d="M315.0,208.0 L307.2,209.6 L299.4,211.3 L291.5,212.9 L283.7,214.5 L275.9,216.2 L268.1,217.8 L260.3,219.5 L252.5,221.1 L244.6,222.7 L236.8,224.4 L229.0,226.0" fill="none" stroke="#f43f5e" stroke-width="23" stroke-linecap="round" stroke-linejoin="round" opacity="0.95"/><path d="M315.0,208.0 L307.2,209.6 L299.4,211.3 L291.5,212.9 L283.7,214.5 L275.9,216.2 L268.1,217.8 L260.3,219.5 L252.5,221.1 L244.6,222.7 L236.8,224.4 L229.0,226.0" fill="none" stroke="#0c2020" stroke-width="15" stroke-linecap="round" stroke-linejoin="round" opacity="1.0"/></g><g class="f1"><path d="M229.0,226.9 L217.5,231.3 L206.0,235.7 L194.5,240.0 L183.0,244.4 L171.5,248.8 L160.7,254.6 L150.3,261.3 L140.0,267.9 L129.7,274.6 L119.3,281.3 L109.0,288.0" fill="none" stroke="#2dd4bf" stroke-width="19" stroke-linecap="round" stroke-linejoin="round" opacity="0.95"/><path d="M229.0,226.9 L217.5,231.3 L206.0,235.7 L194.5,240.0 L183.0,244.4 L171.5,248.8 L160.7,254.6 L150.3,261.3 L140.0,267.9 L129.7,274.6 L119.3,281.3 L109.0,288.0" fill="none" stroke="#0c2020" stroke-width="11" stroke-linecap="round" stroke-linejoin="round" opacity="1.0"/><path d="M315.0,208.0 L307.2,209.7 L299.4,211.4 L291.5,213.2 L283.7,214.9 L275.9,216.6 L268.1,218.3 L260.3,220.1 L252.5,221.8 L244.6,223.5 L236.8,225.2 L229.0,226.9" fill="none" stroke="#f43f5e" stroke-width="23" stroke-linecap="round" stroke-linejoin="round" opacity="0.95"/><path d="M315.0,208.0 L307.2,209.7 L299.4,211.4 L291.5,213.2 L283.7,214.9 L275.9,216.6 L268.1,218.3 L260.3,220.1 L252.5,221.8 L244.6,223.5 L236.8,225.2 L229.0,226.9" fill="none" stroke="#0c2020" stroke-width="15" stroke-linecap="round" stroke-linejoin="round" opacity="1.0"/></g><g class="f2"><path d="M229.0,229.4 L217.5,233.6 L206.0,237.7 L194.5,241.8 L183.1,246.0 L171.6,250.1 L160.8,255.6 L150.4,262.1 L140.1,268.6 L129.7,275.1 L119.4,281.5 L109.0,288.0" fill="none" stroke="#2dd4bf" stroke-width="19" stroke-linecap="round" stroke-linejoin="round" opacity="0.95"/><path d="M229.0,229.4 L217.5,233.6 L206.0,237.7 L194.5,241.8 L183.1,246.0 L171.6,250.1 L160.8,255.6 L150.4,262.1 L140.1,268.6 L129.7,275.1 L119.4,281.5 L109.0,288.0" fill="none" stroke="#0c2020" stroke-width="11" stroke-linecap="round" stroke-linejoin="round" opacity="1.0"/><path d="M315.0,208.0 L307.2,209.9 L299.4,211.9 L291.5,213.8 L283.7,215.8 L275.9,217.7 L268.1,219.7 L260.3,221.6 L252.5,223.6 L244.6,225.5 L236.8,227.5 L229.0,229.4" fill="none" stroke="#f43f5e" stroke-width="23" stroke-linecap="round" stroke-linejoin="round" opacity="0.95"/><path d="M315.0,208.0 L307.2,209.9 L299.4,211.9 L291.5,213.8 L283.7,215.8 L275.9,217.7 L268.1,219.7 L260.3,221.6 L252.5,223.6 L244.6,225.5 L236.8,227.5 L229.0,229.4" fill="none" stroke="#0c2020" stroke-width="15" stroke-linecap="round" stroke-linejoin="round" opacity="1.0"/></g><g class="f3"><path d="M229.0,233.0 L217.5,236.8 L206.1,240.6 L194.6,244.4 L183.2,248.2 L171.7,252.0 L160.9,257.1 L150.5,263.3 L140.1,269.5 L129.8,275.7 L119.4,281.8 L109.0,288.0" fill="none" stroke="#2dd4bf" stroke-width="19" stroke-linecap="round" stroke-linejoin="round" opacity="0.95"/><path d="M229.0,233.0 L217.5,236.8 L206.1,240.6 L194.6,244.4 L183.2,248.2 L171.7,252.0 L160.9,257.1 L150.5,263.3 L140.1,269.5 L129.8,275.7 L119.4,281.8 L109.0,288.0" fill="none" stroke="#0c2020" stroke-width="11" stroke-linecap="round" stroke-linejoin="round" opacity="1.0"/><path d="M315.0,208.0 L307.2,210.3 L299.4,212.5 L291.5,214.8 L283.7,217.1 L275.9,219.3 L268.1,221.6 L260.3,223.9 L252.5,226.2 L244.6,228.4 L236.8,230.7 L229.0,233.0" fill="none" stroke="#f43f5e" stroke-width="23" stroke-linecap="round" stroke-linejoin="round" opacity="0.95"/><path d="M315.0,208.0 L307.2,210.3 L299.4,212.5 L291.5,214.8 L283.7,217.1 L275.9,219.3 L268.1,221.6 L260.3,223.9 L252.5,226.2 L244.6,228.4 L236.8,230.7 L229.0,233.0" fill="none" stroke="#0c2020" stroke-width="15" stroke-linecap="round" stroke-linejoin="round" opacity="1.0"/></g><g class="f4"><path d="M229.0,237.0 L217.6,240.4 L206.2,243.8 L194.7,247.2 L183.3,250.7 L171.9,254.1 L161.1,258.9 L150.6,264.7 L140.2,270.5 L129.8,276.3 L119.4,282.2 L109.0,288.0" fill="none" stroke="#2dd4bf" stroke-width="19" stroke-linecap="round" stroke-linejoin="round" opacity="0.95"/><path d="M229.0,237.0 L217.6,240.4 L206.2,243.8 L194.7,247.2 L183.3,250.7 L171.9,254.1 L161.1,258.9 L150.6,264.7 L140.2,270.5 L129.8,276.3 L119.4,282.2 L109.0,288.0" fill="none" stroke="#0c2020" stroke-width="11" stroke-linecap="round" stroke-linejoin="round" opacity="1.0"/><path d="M315.0,208.0 L307.2,210.6 L299.4,213.3 L291.5,215.9 L283.7,218.5 L275.9,221.2 L268.1,223.8 L260.3,226.5 L252.5,229.1 L244.6,231.7 L236.8,234.4 L229.0,237.0" fill="none" stroke="#f43f5e" stroke-width="23" stroke-linecap="round" stroke-linejoin="round" opacity="0.95"/><path d="M315.0,208.0 L307.2,210.6 L299.4,213.3 L291.5,215.9 L283.7,218.5 L275.9,221.2 L268.1,223.8 L260.3,226.5 L252.5,229.1 L244.6,231.7 L236.8,234.4 L229.0,237.0" fill="none" stroke="#0c2020" stroke-width="15" stroke-linecap="round" stroke-linejoin="round" opacity="1.0"/></g><g class="f5"><path d="M229.0,241.0 L217.6,244.1 L206.2,247.1 L194.8,250.1 L183.4,253.2 L172.1,256.2 L161.2,260.6 L150.8,266.1 L140.3,271.6 L129.9,277.0 L119.4,282.5 L109.0,288.0" fill="none" stroke="#2dd4bf" stroke-width="19" stroke-linecap="round" stroke-linejoin="round" opacity="0.95"/><path d="M229.0,241.0 L217.6,244.1 L206.2,247.1 L194.8,250.1 L183.4,253.2 L172.1,256.2 L161.2,260.6 L150.8,266.1 L140.3,271.6 L129.9,277.0 L119.4,282.5 L109.0,288.0" fill="none" stroke="#0c2020" stroke-width="11" stroke-linecap="round" stroke-linejoin="round" opacity="1.0"/><path d="M315.0,208.0 L307.2,211.0 L299.4,214.0 L291.5,217.0 L283.7,220.0 L275.9,223.0 L268.1,226.0 L260.3,229.0 L252.5,232.0 L244.6,235.0 L236.8,238.0 L229.0,241.0" fill="none" stroke="#f43f5e" stroke-width="23" stroke-linecap="round" stroke-linejoin="round" opacity="0.95"/><path d="M315.0,208.0 L307.2,211.0 L299.4,214.0 L291.5,217.0 L283.7,220.0 L275.9,223.0 L268.1,226.0 L260.3,229.0 L252.5,232.0 L244.6,235.0 L236.8,238.0 L229.0,241.0" fill="none" stroke="#0c2020" stroke-width="15" stroke-linecap="round" stroke-linejoin="round" opacity="1.0"/></g><g class="f6"><path d="M229.0,244.6 L217.6,247.3 L206.3,250.0 L194.9,252.7 L183.6,255.4 L172.2,258.1 L161.3,262.1 L150.9,267.3 L140.4,272.5 L129.9,277.6 L119.5,282.8 L109.0,288.0" fill="none" stroke="#2dd4bf" stroke-width="19" stroke-linecap="round" stroke-linejoin="round" opacity="0.95"/><path d="M229.0,244.6 L217.6,247.3 L206.3,250.0 L194.9,252.7 L183.6,255.4 L172.2,258.1 L161.3,262.1 L150.9,267.3 L140.4,272.5 L129.9,277.6 L119.5,282.8 L109.0,288.0" fill="none" stroke="#0c2020" stroke-width="11" stroke-linecap="round" stroke-linejoin="round" opacity="1.0"/><path d="M315.0,208.0 L307.2,211.3 L299.4,214.6 L291.5,218.0 L283.7,221.3 L275.9,224.6 L268.1,227.9 L260.3,231.3 L252.5,234.6 L244.6,237.9 L236.8,241.2 L229.0,244.6" fill="none" stroke="#f43f5e" stroke-width="23" stroke-linecap="round" stroke-linejoin="round" opacity="0.95"/><path d="M315.0,208.0 L307.2,211.3 L299.4,214.6 L291.5,218.0 L283.7,221.3 L275.9,224.6 L268.1,227.9 L260.3,231.3 L252.5,234.6 L244.6,237.9 L236.8,241.2 L229.0,244.6" fill="none" stroke="#0c2020" stroke-width="15" stroke-linecap="round" stroke-linejoin="round" opacity="1.0"/></g><g class="f7"><path d="M229.0,247.1 L217.7,249.5 L206.3,252.0 L195.0,254.4 L183.7,256.9 L172.3,259.4 L161.4,263.2 L150.9,268.1 L140.5,273.1 L130.0,278.1 L119.5,283.0 L109.0,288.0" fill="none" stroke="#2dd4bf" stroke-width="19" stroke-linecap="round" stroke-linejoin="round" opacity="0.95"/><path d="M229.0,247.1 L217.7,249.5 L206.3,252.0 L195.0,254.4 L183.7,256.9 L172.3,259.4 L161.4,263.2 L150.9,268.1 L140.5,273.1 L130.0,278.1 L119.5,283.0 L109.0,288.0" fill="none" stroke="#0c2020" stroke-width="11" stroke-linecap="round" stroke-linejoin="round" opacity="1.0"/><path d="M315.0,208.0 L307.2,211.6 L299.4,215.1 L291.5,218.7 L283.7,222.2 L275.9,225.8 L268.1,229.3 L260.3,232.9 L252.5,236.4 L244.6,240.0 L236.8,243.5 L229.0,247.1" fill="none" stroke="#f43f5e" stroke-width="23" stroke-linecap="round" stroke-linejoin="round" opacity="0.95"/><path d="M315.0,208.0 L307.2,211.6 L299.4,215.1 L291.5,218.7 L283.7,222.2 L275.9,225.8 L268.1,229.3 L260.3,232.9 L252.5,236.4 L244.6,240.0 L236.8,243.5 L229.0,247.1" fill="none" stroke="#0c2020" stroke-width="15" stroke-linecap="round" stroke-linejoin="round" opacity="1.0"/></g><g class="f8"><path d="M229.0,248.0 L217.7,250.4 L206.3,252.8 L195.0,255.1 L183.7,257.5 L172.4,259.9 L161.5,263.6 L151.0,268.5 L140.5,273.3 L130.0,278.2 L119.5,283.1 L109.0,288.0" fill="none" stroke="#2dd4bf" stroke-width="19" stroke-linecap="round" stroke-linejoin="round" opacity="0.95"/><path d="M229.0,248.0 L217.7,250.4 L206.3,252.8 L195.0,255.1 L183.7,257.5 L172.4,259.9 L161.5,263.6 L151.0,268.5 L140.5,273.3 L130.0,278.2 L119.5,283.1 L109.0,288.0" fill="none" stroke="#0c2020" stroke-width="11" stroke-linecap="round" stroke-linejoin="round" opacity="1.0"/><path d="M315.0,208.0 L307.2,211.6 L299.4,215.3 L291.5,218.9 L283.7,222.5 L275.9,226.2 L268.1,229.8 L260.3,233.5 L252.5,237.1 L244.6,240.7 L236.8,244.4 L229.0,248.0" fill="none" stroke="#f43f5e" stroke-width="23" stroke-linecap="round" stroke-linejoin="round" opacity="0.95"/><path d="M315.0,208.0 L307.2,211.6 L299.4,215.3 L291.5,218.9 L283.7,222.5 L275.9,226.2 L268.1,229.8 L260.3,233.5 L252.5,237.1 L244.6,240.7 L236.8,244.4 L229.0,248.0" fill="none" stroke="#0c2020" stroke-width="15" stroke-linecap="round" stroke-linejoin="round" opacity="1.0"/></g><g class="f9"><path d="M229.0,247.1 L217.7,249.5 L206.3,252.0 L195.0,254.4 L183.7,256.9 L172.3,259.4 L161.4,263.2 L150.9,268.1 L140.5,273.1 L130.0,278.1 L119.5,283.0 L109.0,288.0" fill="none" stroke="#2dd4bf" stroke-width="19" stroke-linecap="round" stroke-linejoin="round" opacity="0.95"/><path d="M229.0,247.1 L217.7,249.5 L206.3,252.0 L195.0,254.4 L183.7,256.9 L172.3,259.4 L161.4,263.2 L150.9,268.1 L140.5,273.1 L130.0,278.1 L119.5,283.0 L109.0,288.0" fill="none" stroke="#0c2020" stroke-width="11" stroke-linecap="round" stroke-linejoin="round" opacity="1.0"/><path d="M315.0,208.0 L307.2,211.6 L299.4,215.1 L291.5,218.7 L283.7,222.2 L275.9,225.8 L268.1,229.3 L260.3,232.9 L252.5,236.4 L244.6,240.0 L236.8,243.5 L229.0,247.1" fill="none" stroke="#f43f5e" stroke-width="23" stroke-linecap="round" stroke-linejoin="round" opacity="0.95"/><path d="M315.0,208.0 L307.2,211.6 L299.4,215.1 L291.5,218.7 L283.7,222.2 L275.9,225.8 L268.1,229.3 L260.3,232.9 L252.5,236.4 L244.6,240.0 L236.8,243.5 L229.0,247.1" fill="none" stroke="#0c2020" stroke-width="15" stroke-linecap="round" stroke-linejoin="round" opacity="1.0"/></g><g class="f10"><path d="M229.0,244.6 L217.6,247.3 L206.3,250.0 L194.9,252.7 L183.6,255.4 L172.2,258.1 L161.3,262.1 L150.9,267.3 L140.4,272.5 L129.9,277.6 L119.5,282.8 L109.0,288.0" fill="none" stroke="#2dd4bf" stroke-width="19" stroke-linecap="round" stroke-linejoin="round" opacity="0.95"/><path d="M229.0,244.6 L217.6,247.3 L206.3,250.0 L194.9,252.7 L183.6,255.4 L172.2,258.1 L161.3,262.1 L150.9,267.3 L140.4,272.5 L129.9,277.6 L119.5,282.8 L109.0,288.0" fill="none" stroke="#0c2020" stroke-width="11" stroke-linecap="round" stroke-linejoin="round" opacity="1.0"/><path d="M315.0,208.0 L307.2,211.3 L299.4,214.6 L291.5,218.0 L283.7,221.3 L275.9,224.6 L268.1,227.9 L260.3,231.3 L252.5,234.6 L244.6,237.9 L236.8,241.2 L229.0,244.6" fill="none" stroke="#f43f5e" stroke-width="23" stroke-linecap="round" stroke-linejoin="round" opacity="0.95"/><path d="M315.0,208.0 L307.2,211.3 L299.4,214.6 L291.5,218.0 L283.7,221.3 L275.9,224.6 L268.1,227.9 L260.3,231.3 L252.5,234.6 L244.6,237.9 L236.8,241.2 L229.0,244.6" fill="none" stroke="#0c2020" stroke-width="15" stroke-linecap="round" stroke-linejoin="round" opacity="1.0"/></g><g class="f11"><path d="M229.0,241.0 L217.6,244.1 L206.2,247.1 L194.8,250.1 L183.4,253.2 L172.1,256.2 L161.2,260.6 L150.8,266.1 L140.3,271.6 L129.9,277.0 L119.4,282.5 L109.0,288.0" fill="none" stroke="#2dd4bf" stroke-width="19" stroke-linecap="round" stroke-linejoin="round" opacity="0.95"/><path d="M229.0,241.0 L217.6,244.1 L206.2,247.1 L194.8,250.1 L183.4,253.2 L172.1,256.2 L161.2,260.6 L150.8,266.1 L140.3,271.6 L129.9,277.0 L119.4,282.5 L109.0,288.0" fill="none" stroke="#0c2020" stroke-width="11" stroke-linecap="round" stroke-linejoin="round" opacity="1.0"/><path d="M315.0,208.0 L307.2,211.0 L299.4,214.0 L291.5,217.0 L283.7,220.0 L275.9,223.0 L268.1,226.0 L260.3,229.0 L252.5,232.0 L244.6,235.0 L236.8,238.0 L229.0,241.0" fill="none" stroke="#f43f5e" stroke-width="23" stroke-linecap="round" stroke-linejoin="round" opacity="0.95"/><path d="M315.0,208.0 L307.2,211.0 L299.4,214.0 L291.5,217.0 L283.7,220.0 L275.9,223.0 L268.1,226.0 L260.3,229.0 L252.5,232.0 L244.6,235.0 L236.8,238.0 L229.0,241.0" fill="none" stroke="#0c2020" stroke-width="15" stroke-linecap="round" stroke-linejoin="round" opacity="1.0"/></g><g class="f12"><path d="M229.0,237.0 L217.6,240.4 L206.2,243.8 L194.7,247.2 L183.3,250.7 L171.9,254.1 L161.1,258.9 L150.6,264.7 L140.2,270.5 L129.8,276.3 L119.4,282.2 L109.0,288.0" fill="none" stroke="#2dd4bf" stroke-width="19" stroke-linecap="round" stroke-linejoin="round" opacity="0.95"/><path d="M229.0,237.0 L217.6,240.4 L206.2,243.8 L194.7,247.2 L183.3,250.7 L171.9,254.1 L161.1,258.9 L150.6,264.7 L140.2,270.5 L129.8,276.3 L119.4,282.2 L109.0,288.0" fill="none" stroke="#0c2020" stroke-width="11" stroke-linecap="round" stroke-linejoin="round" opacity="1.0"/><path d="M315.0,208.0 L307.2,210.6 L299.4,213.3 L291.5,215.9 L283.7,218.5 L275.9,221.2 L268.1,223.8 L260.3,226.5 L252.5,229.1 L244.6,231.7 L236.8,234.4 L229.0,237.0" fill="none" stroke="#f43f5e" stroke-width="23" stroke-linecap="round" stroke-linejoin="round" opacity="0.95"/><path d="M315.0,208.0 L307.2,210.6 L299.4,213.3 L291.5,215.9 L283.7,218.5 L275.9,221.2 L268.1,223.8 L260.3,226.5 L252.5,229.1 L244.6,231.7 L236.8,234.4 L229.0,237.0" fill="none" stroke="#0c2020" stroke-width="15" stroke-linecap="round" stroke-linejoin="round" opacity="1.0"/></g><g class="f13"><path d="M229.0,233.0 L217.5,236.8 L206.1,240.6 L194.6,244.4 L183.2,248.2 L171.7,252.0 L160.9,257.1 L150.5,263.3 L140.1,269.5 L129.8,275.7 L119.4,281.8 L109.0,288.0" fill="none" stroke="#2dd4bf" stroke-width="19" stroke-linecap="round" stroke-linejoin="round" opacity="0.95"/><path d="M229.0,233.0 L217.5,236.8 L206.1,240.6 L194.6,244.4 L183.2,248.2 L171.7,252.0 L160.9,257.1 L150.5,263.3 L140.1,269.5 L129.8,275.7 L119.4,281.8 L109.0,288.0" fill="none" stroke="#0c2020" stroke-width="11" stroke-linecap="round" stroke-linejoin="round" opacity="1.0"/><path d="M315.0,208.0 L307.2,210.3 L299.4,212.5 L291.5,214.8 L283.7,217.1 L275.9,219.3 L268.1,221.6 L260.3,223.9 L252.5,226.2 L244.6,228.4 L236.8,230.7 L229.0,233.0" fill="none" stroke="#f43f5e" stroke-width="23" stroke-linecap="round" stroke-linejoin="round" opacity="0.95"/><path d="M315.0,208.0 L307.2,210.3 L299.4,212.5 L291.5,214.8 L283.7,217.1 L275.9,219.3 L268.1,221.6 L260.3,223.9 L252.5,226.2 L244.6,228.4 L236.8,230.7 L229.0,233.0" fill="none" stroke="#0c2020" stroke-width="15" stroke-linecap="round" stroke-linejoin="round" opacity="1.0"/></g><g class="f14"><path d="M229.0,229.4 L217.5,233.6 L206.0,237.7 L194.5,241.8 L183.1,246.0 L171.6,250.1 L160.8,255.6 L150.4,262.1 L140.1,268.6 L129.7,275.1 L119.4,281.5 L109.0,288.0" fill="none" stroke="#2dd4bf" stroke-width="19" stroke-linecap="round" stroke-linejoin="round" opacity="0.95"/><path d="M229.0,229.4 L217.5,233.6 L206.0,237.7 L194.5,241.8 L183.1,246.0 L171.6,250.1 L160.8,255.6 L150.4,262.1 L140.1,268.6 L129.7,275.1 L119.4,281.5 L109.0,288.0" fill="none" stroke="#0c2020" stroke-width="11" stroke-linecap="round" stroke-linejoin="round" opacity="1.0"/><path d="M315.0,208.0 L307.2,209.9 L299.4,211.9 L291.5,213.8 L283.7,215.8 L275.9,217.7 L268.1,219.7 L260.3,221.6 L252.5,223.6 L244.6,225.5 L236.8,227.5 L229.0,229.4" fill="none" stroke="#f43f5e" stroke-width="23" stroke-linecap="round" stroke-linejoin="round" opacity="0.95"/><path d="M315.0,208.0 L307.2,209.9 L299.4,211.9 L291.5,213.8 L283.7,215.8 L275.9,217.7 L268.1,219.7 L260.3,221.6 L252.5,223.6 L244.6,225.5 L236.8,227.5 L229.0,229.4" fill="none" stroke="#0c2020" stroke-width="15" stroke-linecap="round" stroke-linejoin="round" opacity="1.0"/></g><g class="f15"><path d="M229.0,226.9 L217.5,231.3 L206.0,235.7 L194.5,240.0 L183.0,244.4 L171.5,248.8 L160.7,254.6 L150.3,261.3 L140.0,267.9 L129.7,274.6 L119.3,281.3 L109.0,288.0" fill="none" stroke="#2dd4bf" stroke-width="19" stroke-linecap="round" stroke-linejoin="round" opacity="0.95"/><path d="M229.0,226.9 L217.5,231.3 L206.0,235.7 L194.5,240.0 L183.0,244.4 L171.5,248.8 L160.7,254.6 L150.3,261.3 L140.0,267.9 L129.7,274.6 L119.3,281.3 L109.0,288.0" fill="none" stroke="#0c2020" stroke-width="11" stroke-linecap="round" stroke-linejoin="round" opacity="1.0"/><path d="M315.0,208.0 L307.2,209.7 L299.4,211.4 L291.5,213.2 L283.7,214.9 L275.9,216.6 L268.1,218.3 L260.3,220.1 L252.5,221.8 L244.6,223.5 L236.8,225.2 L229.0,226.9" fill="none" stroke="#f43f5e" stroke-width="23" stroke-linecap="round" stroke-linejoin="round" opacity="0.95"/><path d="M315.0,208.0 L307.2,209.7 L299.4,211.4 L291.5,213.2 L283.7,214.9 L275.9,216.6 L268.1,218.3 L260.3,220.1 L252.5,221.8 L244.6,223.5 L236.8,225.2 L229.0,226.9" fill="none" stroke="#0c2020" stroke-width="15" stroke-linecap="round" stroke-linejoin="round" opacity="1.0"/></g></svg>
