<svg xmlns="http://www.w3.org/2000/svg" viewBox="0 0 480 320"><style>@keyframes k0{0%{opacity:1}11.111%{opacity:0}100%{opacity:0}}.f0{opacity:0;animation:k0 2.4s steps(1,end) infinite}@keyframes k1{0%{opacity:0}11.111%{opacity:1}16.667%{opacity:0}100%{opacity:0}}.f1{opacity:0;animation:k1 2.4s steps(1,end) infinite}@keyframes k2{0%{opacity:0}16.667%{opacity:1}22.222%{opacity:0}100%{opacity:0}}.f2{opacity:0;animation:k2 2.4s steps(1,end) infinite}@keyframes k3{0%{opacity:0}22.222%{opacity:1}27.778%{opacity:0}100%{opacity:0}}.f3{opacity:0;animation:k3 2.4s steps(1,end) infinite}@keyframes k4{0%{opacity:0}27.778%{opacity:1}33.333%{opacity:0}100%{opacity:0}}.f4{opacity:0;animation:k4 2.4s steps(1,end) infinite}@keyframes k5{0%{opacity:0}33.333%{opacity:1}38.889%{opacity:0}100%{opacity:0}}.f5{opacity:0;animation:k5 2.4s steps(1,end) infinite}@keyframes k6{0%{opacity:0}38.889%{opacity:1}44.444%{opacity:0}100%{opacity:0}}.f6{opacity:0;animation:k6 2.4s steps(1,end) infinite}@keyframes k7{0%{opacity:0}44.444%{opacity:1}50.000%{opacity:0}100%{opacity:0}}.f7{opacity:0;animation:k7 2.4s steps(1,end) infinite}@keyframes k8{0%{opacity:0}50.000%{opacity:1}61.111%{opacity:0}100%{opacity:0}}.f8{opacity:0;animation:k8 2.4s steps(1,end) infinite}@keyframes k9{0%{opacity:0}61.111%{opacity:1}66.667%{opacity:0}100%{opacity:0}}.f9{opacity:0;animation:k9 2.4s steps(1,end) infinite}@keyframes k10{0%{opacity:0}66.667%{opacity:1}72.222%{opacity:0}100%{opacity:0}}.f10{opacity:0;animation:k10 2.4s steps(1,end) infinite}@keyframes k11{0%{opacity:0}72.222%{opacity:1}77.778%{opacity:0}100%{opacity:0}}.f11{opacity:0;animation:k11 2.4s steps(1,end) infinite}@keyframes k12{0%{opacity:0}77.778%{opacity:1}83.333%{opacity:0}100%{opacity:0}}.f12{opacity:0;animation:k12 2.4s steps(1,end) infinite}@keyframes k13{0%{opacity:0}83.333%{opacity:1}88.889%{opacity:0}100%{opacity:0}}.f13{opacity:0;animation:k13 2.4s steps(1,end) infinite}@keyframes k14{0%{opacity:0}88.889%{opacity:1}94.444%{opacity:0}100%{opacity:0}}.f14{opacity:0;animation:k14 2.4s steps(1,end) infinite}@keyframes k15{0%{opacity:0}94.444%{opacity:1}100%{opacity:1}}.f15{opacity:0;animation:k15 2.4s steps(1,end) infinite}</style><path d="M40.0,292.0 L440.0,292.0" fill="none" stroke="#1f3333" stroke-width="6" stroke-linecap="round" stroke-linejoin="round" opacity="1.0"/><g class="f0"><path d="M328.0,262.0 L325.5,264.2 L322.9,266.4 L320.4,268.5 L317.8,270.7 L315.3,272.9 L312.7,275.1 L310.2,277.3 L307.6,279.5 L305.1,281.6 L302.5,283.8 L300.0,286.0" fill="none" stroke="#2dd4bf" stroke-width="21" stroke-linecap="round" stroke-linejoin="round" opacity="0.95"/><path d="M328.0,262.0 L325.5,264.2 L322.9,266.4 L320.4,268.5 L317.8,270.7 L315.3,272.9 L312.7,275.1 L310.2,277.3 L307.6,279.5 L305.1,281.6 L302.5,283.8 L300.0,286.0" fill="none" stroke="#0c2020" stroke-width="13" stroke-linecap="round" stroke-linejoin="round" opacity="1.0"/><path d="M240.0,268.0 L230.9,262.4 L221.7,256.8 L212.6,251.1 L203.5,245.5 L194.3,239.9 L187.4,239.2 L185.5,249.8 L183.7,260.3 L181.8,270.9 L179.9,281.4 L178.0,292.0" fill="none" stroke="#8f2a3e" stroke-width="21" stroke-linecap="round" stroke-linejoin="round" opacity="0.95"/><path d="M240.0,268.0 L230.9,262.4 L221.7,256.8 L212.6,251.1 L203.5,245.5 L194.3,239.9 L187.4,239.2 L185.5,249.8 L183.7,260.3 L181.8,270.9 L179.9,281.4 L178.0,292.0" fill="none" stroke="#0c2020" stroke-width="13" stroke-linecap="round" stroke-linejoin="round" opacity="1.0"/><path d="M240.0,268.0 L230.6,258.6 L221.2,249.2 L211.9,239.9 L202.5,230.5 L193.1,221.1 L183.7,211.7 L173.2,203.8 L161.9,196.9 L150.6,189.9 L139.3,183.0 L128.0,176.0" fill="none" stroke="#f43f5e" stroke-width="21" stroke-linecap="round" stroke-linejoin="round" opacity="0.95"/><path d="M240.0,268.0 L230.6,258.6 L221.2,249.2 L211.9,239.9 L202.5,230.5 L193.1,221.1 L183.7,211.7 L173.2,203.8 L161.9,196.9 L150.6,189.9 L139.3,183.0 L128.0,176.0" fill="none" stroke="#0c2020" stroke-width="13" stroke-linecap="round" stroke-linejoin="round" opacity="1.0"/><path d="M328.0,262.0 L320.0,262.5 L312.0,263.1 L304.0,263.6 L296.0,264.2 L288.0,264.7 L280.0,265.3 L272.0,265.8 L264.0,266.4 L256.0,266.9 L248.0,267.5 L240.0,268.0" fill="none" stroke="#2dd4bf" stroke-width="25" stroke-linecap="round" stroke-linejoin="round" opacity="0.95"/><path d="M328.0,262.0 L320.0,262.5 L312.0,263.1 L304.0,263.6 L296.0,264.2 L288.0,264.7 L280.0,265.3 L272.0,265.8 L264.0,266.4 L256.0,266.9 L248.0,267.5 L240.0,268.0" fill="none" stroke="#0c2020" stroke-width="17" stroke-linecap="round" stroke-linejoin="round" opacity="1.0"/><circle cx="354.0" cy="256.0" r="19.0" fill="#2dd4bf" stroke="none" stroke-width="0" opacity="0.95"/><circle cx="354.0" cy="256.0" r="15.0" fill="#0c2020" stroke="none" stroke-width="6.3" opacity="1.0"/><path d="M344.7,253.0 L346.4,253.0 L348.1,253.0 L349.8,253.0 L351.5,253.0 L353.2,253.0 L354.8,253.0 L356.5,253.0 L358.2,253.0 L359.9,253.0 L361.6,253.0 L363.3,253.0" fill="none" stroke="#a7f3ee" stroke-width="5" stroke-linecap="round" stroke-linejoin="round" opacity="1.0"/></g><g class="f1"><path d="M327.8,261.8 L325.3,264.0 L322.8,266.2 L320.2,268.4 L317.7,270.6 L315.2,272.8 L312.6,275.0 L310.1,277.2 L307.6,279.4 L305.1,281.6 L302.5,283.8 L300.0,286.0" fill="none" stroke="#2dd4bf" stroke-width="21" stroke-linecap="round" stroke-linejoin="round" opacity="0.95"/><path d="M327.8,261.8 L325.3,264.0 L322.8,266.2 L320.2,268.4 L317.7,270.6 L315.2,272.8 L312.6,275.0 L310.1,277.2 L307.6,279.4 L305.1,281.6 L302.5,283.8 L300.0,286.0" fill="none" stroke="#0c2020" stroke-width="13" stroke-linecap="round" stroke-linejoin="round" opacity="1.0"/><path d="M240.0,266.2 L230.8,260.9 L221.7,255.6 L212.5,250.3 L203.4,245.0 L194.2,239.7 L187.4,239.4 L185.5,249.9 L183.6,260.4 L181.8,271.0 L179.9,281.5 L178.0,292.0" fill="none" stroke="#8f2a3e" stroke-width="21" stroke-linecap="round" stroke-linejoin="round" opacity="0.95"/><path d="M240.0,266.2 L230.8,260.9 L221.7,255.6 L212.5,250.3 L203.4,245.0 L194.2,239.7 L187.4,239.4 L185.5,249.9 L183.6,260.4 L181.8,271.0 L179.9,281.5 L178.0,292.0" fill="none" stroke="#0c2020" stroke-width="13" stroke-linecap="round" stroke-linejoin="round" opacity="1.0"/><path d="M240.0,266.2 L230.6,257.1 L221.1,248.0 L211.7,238.8 L202.2,229.7 L192.8,220.6 L183.4,211.5 L172.9,203.6 L161.7,196.7 L150.4,189.8 L139.2,182.9 L128.0,176.0" fill="none" stroke="#f43f5e" stroke-width="21" stroke-linecap="round" stroke-linejoin="round" opacity="0.95"/><path d="M240.0,266.2 L230.6,257.1 L221.1,248.0 L211.7,238.8 L202.2,229.7 L192.8,220.6 L183.4,211.5 L172.9,203.6 L161.7,196.7 L150.4,189.8 L139.2,182.9 L128.0,176.0" fill="none" stroke="#0c2020" stroke-width="13" stroke-linecap="round" stroke-linejoin="round" opacity="1.0"/><path d="M327.8,261.8 L319.8,262.2 L311.9,262.6 L303.9,263.0 L295.9,263.4 L287.9,263.8 L279.9,264.2 L271.9,264.6 L264.0,265.0 L256.0,265.4 L248.0,265.8 L240.0,266.2" fill="none" stroke="#2dd4bf" stroke-width="25" stroke-linecap="round" stroke-linejoin="round" opacity="0.95"/><path d="M327.8,261.8 L319.8,262.2 L311.9,262.6 L303.9,263.0 L295.9,263.4 L287.9,263.8 L279.9,264.2 L271.9,264.6 L264.0,265.0 L256.0,265.4 L248.0,265.8 L240.0,266.2" fill="none" stroke="#0c2020" stroke-width="17" stroke-linecap="round" stroke-linejoin="round" opacity="1.0"/><circle cx="353.9" cy="255.9" r="19.0" fill="#2dd4bf" stroke="none" stroke-width="0" opacity="0.95"/><circle cx="353.9" cy="255.9" r="15.0" fill="#0c2020" stroke="none" stroke-width="6.3" opacity="1.0"/><path d="M344.6,252.9 L346.3,252.9 L348.0,252.9 L349.7,252.9 L351.4,252.9 L353.1,252.9 L354.8,252.9 L356.5,252.9 L358.1,252.9 L359.8,252.9 L361.5,252.9 L363.2,252.9" fill="none" stroke="#a7f3ee" stroke-width="5" stroke-linecap="round" stroke-linejoin="round" opacity="1.0"/></g><g class="f2"><path d="M327.4,261.4 L324.9,263.6 L322.4,265.9 L319.9,268.1 L317.4,270.3 L314.9,272.6 L312.4,274.8 L310.0,277.0 L307.5,279.3 L305.0,281.5 L302.5,283.8 L300.0,286.0" fill="none" stroke="#2dd4bf" stroke-width="21" stroke-linecap="round" stroke-linejoin="round" opacity="0.95"/><path d="M327.4,261.4 L324.9,263.6 L322.4,265.9 L319.9,268.1 L317.4,270.3 L314.9,272.6 L312.4,274.8 L310.0,277.0 L307.5,279.3 L305.0,281.5 L302.5,283.8 L300.0,286.0" fill="none" stroke="#0c2020" stroke-width="13" stroke-linecap="round" stroke-linejoin="round" opacity="1.0"/><path d="M240.0,261.4 L230.8,257.0 L221.5,252.5 L212.3,248.1 L203.1,243.7 L193.8,239.2 L187.3,239.8 L185.5,250.2 L183.6,260.7 L181.7,271.1 L179.9,281.6 L178.0,292.0" fill="none" stroke="#8f2a3e" stroke-width="21" stroke-linecap="round" stroke-linejoin="round" opacity="0.95"/><path d="M240.0,261.4 L230.8,257.0 L221.5,252.5 L212.3,248.1 L203.1,243.7 L193.8,239.2 L187.3,239.8 L185.5,250.2 L183.6,260.7 L181.7,271.1 L179.9,281.6 L178.0,292.0" fill="none" stroke="#0c2020" stroke-width="13" stroke-linecap="round" stroke-linejoin="round" opacity="1.0"/><path d="M240.0,261.4 L230.4,253.0 L220.8,244.6 L211.2,236.2 L201.6,227.8 L192.0,219.3 L182.5,210.7 L172.1,203.1 L161.1,196.4 L150.1,189.6 L139.0,182.8 L128.0,176.0" fill="none" stroke="#f43f5e" stroke-width="21" stroke-linecap="round" stroke-linejoin="round" opacity="0.95"/><path d="M240.0,261.4 L230.4,253.0 L220.8,244.6 L211.2,236.2 L201.6,227.8 L192.0,219.3 L182.5,210.7 L172.1,203.1 L161.1,196.4 L150.1,189.6 L139.0,182.8 L128.0,176.0" fill="none" stroke="#0c2020" stroke-width="13" stroke-linecap="round" stroke-linejoin="round" opacity="1.0"/><path d="M327.4,261.4 L319.4,261.4 L311.5,261.4 L303.5,261.4 L295.6,261.4 L287.7,261.4 L279.7,261.4 L271.8,261.4 L263.8,261.4 L255.9,261.4 L247.9,261.4 L240.0,261.4" fill="none" stroke="#2dd4bf" stroke-width="25" stroke-linecap="round" stroke-linejoin="round" opacity="0.95"/><path d="M327.4,261.4 L319.4,261.4 L311.5,261.4 L303.5,261.4 L295.6,261.4 L287.7,261.4 L279.7,261.4 L271.8,261.4 L263.8,261.4 L255.9,261.4 L247.9,261.4 L240.0,261.4" fill="none" stroke="#0c2020" stroke-width="17" stroke-linecap="round" stroke-linejoin="round" opacity="1.0"/><circle cx="353.7" cy="255.7" r="19.0" fill="#2dd4bf" stroke="none" stroke-width="0" opacity="0.95"/><circle cx="353.7" cy="255.7" r="15.0" fill="#0c2020" stroke="none" stroke-width="6.3" opacity="1.0"/><path d="M344.4,252.7 L346.1,252.7 L347.8,252.7 L349.5,252.7 L351.2,252.7 L352.8,252.7 L354.5,252.7 L356.2,252.7 L357.9,252.7 L359.6,252.7 L361.3,252.7 L363.0,252.7" fill="none" stroke="#a7f3ee" stroke-width="5" stroke-linecap="round" stroke-linejoin="round" opacity="1.0"/></g><g class="f3"><path d="M326.7,260.7 L324.3,263.0 L321.9,265.3 L319.4,267.6 L317.0,269.9 L314.6,272.2 L312.2,274.5 L309.7,276.8 L307.3,279.1 L304.9,281.4 L302.4,283.7 L300.0,286.0" fill="none" stroke="#2dd4bf" stroke-width="21" stroke-linecap="round" stroke-linejoin="round" opacity="0.95"/><path d="M326.7,260.7 L324.3,263.0 L321.9,265.3 L319.4,267.6 L317.0,269.9 L314.6,272.2 L312.2,274.5 L309.7,276.8 L307.3,279.1 L304.9,281.4 L302.4,283.7 L300.0,286.0" fill="none" stroke="#0c2020" stroke-width="13" stroke-linecap="round" stroke-linejoin="round" opacity="1.0"/><path d="M240.0,254.7 L230.7,251.5 L221.3,248.2 L212.0,245.0 L202.6,241.7 L193.3,238.5 L187.2,240.4 L185.4,250.7 L183.5,261.0 L181.7,271.3 L179.8,281.7 L178.0,292.0" fill="none" stroke="#8f2a3e" stroke-width="21" stroke-linecap="round" stroke-linejoin="round" opacity="0.95"/><path d="M240.0,254.7 L230.7,251.5 L221.3,248.2 L212.0,245.0 L202.6,241.7 L193.3,238.5 L187.2,240.4 L185.4,250.7 L183.5,261.0 L181.7,271.3 L179.8,281.7 L178.0,292.0" fill="none" stroke="#0c2020" stroke-width="13" stroke-linecap="round" stroke-linejoin="round" opacity="1.0"/><path d="M240.0,254.7 L230.2,247.3 L220.4,239.8 L210.5,232.4 L200.7,225.0 L190.9,217.5 L181.2,209.7 L171.0,202.5 L160.3,195.9 L149.5,189.2 L138.8,182.6 L128.0,176.0" fill="none" stroke="#f43f5e" stroke-width="21" stroke-linecap="round" stroke-linejoin="round" opacity="0.95"/><path d="M240.0,254.7 L230.2,247.3 L220.4,239.8 L210.5,232.4 L200.7,225.0 L190.9,217.5 L181.2,209.7 L171.0,202.5 L160.3,195.9 L149.5,189.2 L138.8,182.6 L128.0,176.0" fill="none" stroke="#0c2020" stroke-width="13" stroke-linecap="round" stroke-linejoin="round" opacity="1.0"/><path d="M326.7,260.7 L318.8,260.2 L311.0,259.6 L303.1,259.1 L295.2,258.5 L287.3,258.0 L279.4,257.4 L271.5,256.9 L263.7,256.4 L255.8,255.8 L247.9,255.3 L240.0,254.7" fill="none" stroke="#2dd4bf" stroke-width="25" stroke-linecap="round" stroke-linejoin="round" opacity="0.95"/><path d="M326.7,260.7 L318.8,260.2 L311.0,259.6 L303.1,259.1 L295.2,258.5 L287.3,258.0 L279.4,257.4 L271.5,256.9 L263.7,256.4 L255.8,255.8 L247.9,255.3 L240.0,254.7" fill="none" stroke="#0c2020" stroke-width="17" stroke-linecap="round" stroke-linejoin="round" opacity="1.0"/><circle cx="353.4" cy="255.4" r="19.0" fill="#2dd4bf" stroke="none" stroke-width="0" opacity="0.95"/><circle cx="353.4" cy="255.4" r="15.0" fill="#0c2020" stroke="none" stroke-width="6.3" opacity="1.0"/><path d="M344.1,252.4 L345.8,252.4 L347.4,252.4 L349.1,252.4 L350.8,252.4 L352.5,252.4 L354.2,252.4 L355.9,252.4 L357.6,252.4 L359.3,252.4 L361.0,252.4 L362.7,252.4" fill="none" stroke="#a7f3ee" stroke-width="5" stroke-linecap="round" stroke-linejoin="round" opacity="1.0"/></g><g class="f4"><path d="M326.0,260.0 L323.6,262.4 L321.3,264.7 L318.9,267.1 L316.5,269.5 L314.2,271.8 L311.8,274.2 L309.5,276.5 L307.1,278.9 L304.7,281.3 L302.4,283.6 L300.0,286.0" fill="none" stroke="#2dd4bf" stroke-width="21" stroke-linecap="round" stroke-linejoin="round" opacity="0.95"/><path d="M326.0,260.0 L323.6,262.4 L321.3,264.7 L318.9,267.1 L316.5,269.5 L314.2,271.8 L311.8,274.2 L309.5,276.5 L307.1,278.9 L304.7,281.3 L302.4,283.6 L300.0,286.0" fill="none" stroke="#0c2020" stroke-width="13" stroke-linecap="round" stroke-linejoin="round" opacity="1.0"/><path d="M240.0,247.0 L230.5,245.1 L221.1,243.3 L211.6,241.4 L202.1,239.5 L192.7,237.7 L187.1,241.0 L185.3,251.2 L183.5,261.4 L181.6,271.6 L179.8,281.8 L178.0,292.0" fill="none" stroke="#8f2a3e" stroke-width="21" stroke-linecap="round" stroke-linejoin="round" opacity="0.95"/><path d="M240.0,247.0 L230.5,245.1 L221.1,243.3 L211.6,241.4 L202.1,239.5 L192.7,237.7 L187.1,241.0 L185.3,251.2 L183.5,261.4 L181.6,271.6 L179.8,281.8 L178.0,292.0" fill="none" stroke="#0c2020" stroke-width="13" stroke-linecap="round" stroke-linejoin="round" opacity="1.0"/><path d="M240.0,247.0 L229.9,240.7 L219.8,234.4 L209.8,228.1 L199.7,221.8 L189.6,215.5 L179.8,208.6 L169.7,201.7 L159.3,195.3 L148.9,188.8 L138.4,182.4 L128.0,176.0" fill="none" stroke="#f43f5e" stroke-width="21" stroke-linecap="round" stroke-linejoin="round" opacity="0.95"/><path d="M240.0,247.0 L229.9,240.7 L219.8,234.4 L209.8,228.1 L199.7,221.8 L189.6,215.5 L179.8,208.6 L169.7,201.7 L159.3,195.3 L148.9,188.8 L138.4,182.4 L128.0,176.0" fill="none" stroke="#0c2020" stroke-width="13" stroke-linecap="round" stroke-linejoin="round" opacity="1.0"/><path d="M326.0,260.0 L318.2,258.8 L310.4,257.6 L302.5,256.5 L294.7,255.3 L286.9,254.1 L279.1,252.9 L271.3,251.7 L263.5,250.5 L255.6,249.4 L247.8,248.2 L240.0,247.0" fill="none" stroke="#2dd4bf" stroke-width="25" stroke-linecap="round" stroke-linejoin="round" opacity="0.95"/><path d="M326.0,260.0 L318.2,258.8 L310.4,257.6 L302.5,256.5 L294.7,255.3 L286.9,254.1 L279.1,252.9 L271.3,251.7 L263.5,250.5 L255.6,249.4 L247.8,248.2 L240.0,247.0" fill="none" stroke="#0c2020" stroke-width="17" stroke-linecap="round" stroke-linejoin="round" opacity="1.0"/><circle cx="353.0" cy="255.0" r="19.0" fill="#2dd4bf" stroke="none" stroke-width="0" opacity="0.95"/><circle cx="353.0" cy="255.0" r="15.0" fill="#0c2020" stroke="none" stroke-width="6.3" opacity="1.0"/><path d="M343.7,252.0 L345.4,252.0 L347.1,252.0 L348.8,252.0 L350.5,252.0 L352.2,252.0 L353.8,252.0 L355.5,252.0 L357.2,252.0 L358.9,252.0 L360.6,252.0 L362.3,252.0" fill="none" stroke="#a7f3ee" stroke-width="5" stroke-linecap="round" stroke-linejoin="round" opacity="1.0"/></g><g class="f5"><path d="M325.3,259.3 L323.0,261.7 L320.7,264.1 L318.4,266.6 L316.1,269.0 L313.8,271.4 L311.5,273.8 L309.2,276.3 L306.9,278.7 L304.6,281.1 L302.3,283.6 L300.0,286.0" fill="none" stroke="#2dd4bf" stroke-width="21" stroke-linecap="round" stroke-linejoin="round" opacity="0.95"/><path d="M325.3,259.3 L323.0,261.7 L320.7,264.1 L318.4,266.6 L316.1,269.0 L313.8,271.4 L311.5,273.8 L309.2,276.3 L306.9,278.7 L304.6,281.1 L302.3,283.6 L300.0,286.0" fill="none" stroke="#0c2020" stroke-width="13" stroke-linecap="round" stroke-linejoin="round" opacity="1.0"/><path d="M240.0,239.3 L230.4,238.8 L220.8,238.3 L211.2,237.8 L201.6,237.3 L192.0,236.8 L187.0,241.7 L185.2,251.8 L183.4,261.8 L181.6,271.9 L179.8,281.9 L178.0,292.0" fill="none" stroke="#8f2a3e" stroke-width="21" stroke-linecap="round" stroke-linejoin="round" opacity="0.95"/><path d="M240.0,239.3 L230.4,238.8 L220.8,238.3 L211.2,237.8 L201.6,237.3 L192.0,236.8 L187.0,241.7 L185.2,251.8 L183.4,261.8 L181.6,271.9 L179.8,281.9 L178.0,292.0" fill="none" stroke="#0c2020" stroke-width="13" stroke-linecap="round" stroke-linejoin="round" opacity="1.0"/><path d="M240.0,239.3 L229.7,234.1 L219.3,228.9 L209.0,223.8 L198.7,218.6 L188.3,213.4 L178.4,207.4 L168.5,200.9 L158.4,194.7 L148.2,188.5 L138.1,182.2 L128.0,176.0" fill="none" stroke="#f43f5e" stroke-width="21" stroke-linecap="round" stroke-linejoin="round" opacity="0.95"/><path d="M240.0,239.3 L229.7,234.1 L219.3,228.9 L209.0,223.8 L198.7,218.6 L188.3,213.4 L178.4,207.4 L168.5,200.9 L158.4,194.7 L148.2,188.5 L138.1,182.2 L128.0,176.0" fill="none" stroke="#0c2020" stroke-width="13" stroke-linecap="round" stroke-linejoin="round" opacity="1.0"/><path d="M325.3,259.3 L317.5,257.4 L309.8,255.6 L302.0,253.8 L294.3,252.0 L286.5,250.2 L278.8,248.4 L271.0,246.6 L263.3,244.7 L255.5,242.9 L247.8,241.1 L240.0,239.3" fill="none" stroke="#2dd4bf" stroke-width="25" stroke-linecap="round" stroke-linejoin="round" opacity="0.95"/><path d="M325.3,259.3 L317.5,257.4 L309.8,255.6 L302.0,253.8 L294.3,252.0 L286.5,250.2 L278.8,248.4 L271.0,246.6 L263.3,244.7 L255.5,242.9 L247.8,241.1 L240.0,239.3" fill="none" stroke="#0c2020" stroke-width="17" stroke-linecap="round" stroke-linejoin="round" opacity="1.0"/><circle cx="352.6" cy="254.6" r="19.0" fill="#2dd4bf" stroke="none" stroke-width="0" opacity="0.95"/><circle cx="352.6" cy="254.6" r="15.0" fill="#0c2020" stroke="none" stroke-width="6.3" opacity="1.0"/><path d="M343.3,251.6 L345.0,251.6 L346.7,251.6 L348.4,251.6 L350.1,251.6 L351.8,251.6 L353.5,251.6 L355.2,251.6 L356.9,251.6 L358.6,251.6 L360.2,251.6 L361.9,251.6" fill="none" stroke="#a7f3ee" stroke-width="5" stroke-linecap="round" stroke-linejoin="round" opacity="1.0"/></g><g class="f6"><path d="M324.6,258.6 L322.4,261.1 L320.1,263.6 L317.9,266.1 L315.7,268.6 L313.4,271.1 L311.2,273.6 L309.0,276.0 L306.7,278.5 L304.5,281.0 L302.2,283.5 L300.0,286.0" fill="none" stroke="#2dd4bf" stroke-width="21" stroke-linecap="round" stroke-linejoin="round" opacity="0.95"/><path d="M324.6,258.6 L322.4,261.1 L320.1,263.6 L317.9,266.1 L315.7,268.6 L313.4,271.1 L311.2,273.6 L309.0,276.0 L306.7,278.5 L304.5,281.0 L302.2,283.5 L300.0,286.0" fill="none" stroke="#0c2020" stroke-width="13" stroke-linecap="round" stroke-linejoin="round" opacity="1.0"/><path d="M240.0,232.6 L230.3,233.3 L220.6,234.0 L210.9,234.7 L201.2,235.4 L191.5,236.1 L186.9,242.3 L185.1,252.2 L183.3,262.2 L181.6,272.1 L179.8,282.1 L178.0,292.0" fill="none" stroke="#8f2a3e" stroke-width="21" stroke-linecap="round" stroke-linejoin="round" opacity="0.95"/><path d="M240.0,232.6 L230.3,233.3 L220.6,234.0 L210.9,234.7 L201.2,235.4 L191.5,236.1 L186.9,242.3 L185.1,252.2 L183.3,262.2 L181.6,272.1 L179.8,282.1 L178.0,292.0" fill="none" stroke="#0c2020" stroke-width="13" stroke-linecap="round" stroke-linejoin="round" opacity="1.0"/><path d="M240.0,232.6 L229.4,228.4 L218.9,224.2 L208.3,220.0 L197.8,215.8 L187.2,211.6 L177.1,206.4 L167.4,200.2 L157.5,194.2 L147.7,188.1 L137.8,182.1 L128.0,176.0" fill="none" stroke="#f43f5e" stroke-width="21" stroke-linecap="round" stroke-linejoin="round" opacity="0.95"/><path d="M240.0,232.6 L229.4,228.4 L218.9,224.2 L208.3,220.0 L197.8,215.8 L187.2,211.6 L177.1,206.4 L167.4,200.2 L157.5,194.2 L147.7,188.1 L137.8,182.1 L128.0,176.0" fill="none" stroke="#0c2020" stroke-width="13" stroke-linecap="round" stroke-linejoin="round" opacity="1.0"/><path d="M324.6,258.6 L316.9,256.3 L309.2,253.9 L301.5,251.5 L293.9,249.1 L286.2,246.8 L278.5,244.4 L270.8,242.0 L263.1,239.7 L255.4,237.3 L247.7,234.9 L240.0,232.6" fill="none" stroke="#2dd4bf" stroke-width="25" stroke-linecap="round" stroke-linejoin="round" opacity="0.95"/><path d="M324.6,258.6 L316.9,256.3 L309.2,253.9 L301.5,251.5 L293.9,249.1 L286.2,246.8 L278.5,244.4 L270.8,242.0 L263.1,239.7 L255.4,237.3 L247.7,234.9 L240.0,232.6" fill="none" stroke="#0c2020" stroke-width="17" stroke-linecap="round" stroke-linejoin="round" opacity="1.0"/><circle cx="352.3" cy="254.3" r="19.0" fill="#2dd4bf" stroke="none" stroke-width="0" opacity="0.95"/><circle cx="352.3" cy="254.3" r="15.0" fill="#0c2020" stroke="none" stroke-width="6.3" opacity="1.0"/><path d="M343.0,251.3 L344.7,251.3 L346.4,251.3 L348.1,251.3 L349.8,251.3 L351.5,251.3 L353.2,251.3 L354.8,251.3 L356.5,251.3 L358.2,251.3 L359.9,251.3 L361.6,251.3" fill="none" stroke="#a7f3ee" stroke-width="5" stroke-linecap="round" stroke-linejoin="round" opacity="1.0"/></g><g class="f7"><path d="M324.2,258.2 L322.0,260.7 L319.8,263.2 L317.6,265.8 L315.4,268.3 L313.2,270.8 L311.0,273.4 L308.8,275.9 L306.6,278.4 L304.4,280.9 L302.2,283.5 L300.0,286.0" fill="none" stroke="#2dd4bf" stroke-width="21" stroke-linecap="round" stroke-linejoin="round" opacity="0.95"/><path d="M324.2,258.2 L322.0,260.7 L319.8,263.2 L317.6,265.8 L315.4,268.3 L313.2,270.8 L311.0,273.4 L308.8,275.9 L306.6,278.4 L304.4,280.9 L302.2,283.5 L300.0,286.0" fill="none" stroke="#0c2020" stroke-width="13" stroke-linecap="round" stroke-linejoin="round" opacity="1.0"/><path d="M240.0,227.8 L230.2,229.4 L220.4,230.9 L210.7,232.5 L200.9,234.1 L191.1,235.6 L186.8,242.7 L185.0,252.6 L183.3,262.4 L181.5,272.3 L179.8,282.1 L178.0,292.0" fill="none" stroke="#8f2a3e" stroke-width="21" stroke-linecap="round" stroke-linejoin="round" opacity="0.95"/><path d="M240.0,227.8 L230.2,229.4 L220.4,230.9 L210.7,232.5 L200.9,234.1 L191.1,235.6 L186.8,242.7 L185.0,252.6 L183.3,262.4 L181.5,272.3 L179.8,282.1 L178.0,292.0" fill="none" stroke="#0c2020" stroke-width="13" stroke-linecap="round" stroke-linejoin="round" opacity="1.0"/><path d="M240.0,227.8 L229.3,224.3 L218.6,220.8 L207.9,217.3 L197.2,213.8 L186.4,210.3 L176.2,205.7 L166.6,199.8 L157.0,193.8 L147.3,187.9 L137.7,181.9 L128.0,176.0" fill="none" stroke="#f43f5e" stroke-width="21" stroke-linecap="round" stroke-linejoin="round" opacity="0.95"/><path d="M240.0,227.8 L229.3,224.3 L218.6,220.8 L207.9,217.3 L197.2,213.8 L186.4,210.3 L176.2,205.7 L166.6,199.8 L157.0,193.8 L147.3,187.9 L137.7,181.9 L128.0,176.0" fill="none" stroke="#0c2020" stroke-width="13" stroke-linecap="round" stroke-linejoin="round" opacity="1.0"/><path d="M324.2,258.2 L316.5,255.4 L308.9,252.7 L301.2,249.9 L293.6,247.1 L285.9,244.4 L278.3,241.6 L270.6,238.8 L263.0,236.1 L255.3,233.3 L247.7,230.6 L240.0,227.8" fill="none" stroke="#2dd4bf" stroke-width="25" stroke-linecap="round" stroke-linejoin="round" opacity="0.95"/><path d="M324.2,258.2 L316.5,255.4 L308.9,252.7 L301.2,249.9 L293.6,247.1 L285.9,244.4 L278.3,241.6 L270.6,238.8 L263.0,236.1 L255.3,233.3 L247.7,230.6 L240.0,227.8" fill="none" stroke="#0c2020" stroke-width="17" stroke-linecap="round" stroke-linejoin="round" opacity="1.0"/><circle cx="352.1" cy="254.1" r="19.0" fill="#2dd4bf" stroke="none" stroke-width="0" opacity="0.95"/><circle cx="352.1" cy="254.1" r="15.0" fill="#0c2020" stroke="none" stroke-width="6.3" opacity="1.0"/><path d="M342.8,251.1 L344.5,251.1 L346.2,251.1 L347.9,251.1 L349.5,251.1 L351.2,251.1 L352.9,251.1 L354.6,251.1 L356.3,251.1 L358.0,251.1 L359.7,251.1 L361.4,251.1" fill="none" stroke="#a7f3ee" stroke-width="5" stroke-linecap="round" stroke-linejoin="round" opacity="1.0"/></g><g class="f8"><path d="M324.0,258.0 L321.8,260.5 L319.6,263.1 L317.5,265.6 L315.3,268.2 L313.1,270.7 L310.9,273.3 L308.7,275.8 L306.5,278.4 L304.4,280.9 L302.2,283.5 L300.0,286.0" fill="none" stroke="#2dd4bf" stroke-width="21" stroke-linecap="round" stroke-linejoin="round" opacity="0.95"/><path d="M324.0,258.0 L321.8,260.5 L319.6,263.1 L317.5,265.6 L315.3,268.2 L313.1,270.7 L310.9,273.3 L308.7,275.8 L306.5,278.4 L304.4,280.9 L302.2,283.5 L300.0,286.0" fill="none" stroke="#0c2020" stroke-width="13" stroke-linecap="round" stroke-linejoin="round" opacity="1.0"/><path d="M240.0,226.0 L230.2,227.9 L220.4,229.8 L210.6,231.7 L200.8,233.5 L191.0,235.4 L186.8,242.9 L185.0,252.7 L183.3,262.5 L181.5,272.3 L179.8,282.2 L178.0,292.0" fill="none" stroke="#8f2a3e" stroke-width="21" stroke-linecap="round" stroke-linejoin="round" opacity="0.95"/><path d="M240.0,226.0 L230.2,227.9 L220.4,229.8 L210.6,231.7 L200.8,233.5 L191.0,235.4 L186.8,242.9 L185.0,252.7 L183.3,262.5 L181.5,272.3 L179.8,282.2 L178.0,292.0" fill="none" stroke="#0c2020" stroke-width="13" stroke-linecap="round" stroke-linejoin="round" opacity="1.0"/><path d="M240.0,226.0 L229.2,222.8 L218.5,219.5 L207.7,216.3 L196.9,213.1 L186.1,209.8 L175.9,205.5 L166.3,199.6 L156.7,193.7 L147.2,187.8 L137.6,181.9 L128.0,176.0" fill="none" stroke="#f43f5e" stroke-width="21" stroke-linecap="round" stroke-linejoin="round" opacity="0.95"/><path d="M240.0,226.0 L229.2,222.8 L218.5,219.5 L207.7,216.3 L196.9,213.1 L186.1,209.8 L175.9,205.5 L166.3,199.6 L156.7,193.7 L147.2,187.8 L137.6,181.9 L128.0,176.0" fill="none" stroke="#0c2020" stroke-width="13" stroke-linecap="round" stroke-linejoin="round" opacity="1.0"/><path d="M324.0,258.0 L316.4,255.1 L308.7,252.2 L301.1,249.3 L293.5,246.4 L285.8,243.5 L278.2,240.5 L270.5,237.6 L262.9,234.7 L255.3,231.8 L247.6,228.9 L240.0,226.0" fill="none" stroke="#2dd4bf" stroke-width="25" stroke-linecap="round" stroke-linejoin="round" opacity="0.95"/><path d="M324.0,258.0 L316.4,255.1 L308.7,252.2 L301.1,249.3 L293.5,246.4 L285.8,243.5 L278.2,240.5 L270.5,237.6 L262.9,234.7 L255.3,231.8 L247.6,228.9 L240.0,226.0" fill="none" stroke="#0c2020" stroke-width="17" stroke-linecap="round" stroke-linejoin="round" opacity="1.0"/><circle cx="352.0" cy="254.0" r="19.0" fill="#2dd4bf" stroke="none" stroke-width="0" opacity="0.95"/><circle cx="352.0" cy="254.0" r="15.0" fill="#0c2020" stroke="none" stroke-width="6.3" opacity="1.0"/><path d="M342.7,251.0 L344.4,251.0 L346.1,251.0 L347.8,251.0 L349.5,251.0 L351.2,251.0 L352.8,251.0 L354.5,251.0 L356.2,251.0 L357.9,251.0 L359.6,251.0 L361.3,251.0" fill="none" stroke="#a7f3ee" stroke-width="5" stroke-linecap="round" stroke-linejoin="round" opacity="1.0"/></g><g class="f9"><path d="M324.2,258.2 L322.0,260.7 L319.8,263.2 L317.6,265.8 L315.4,268.3 L313.2,270.8 L311.0,273.4 L308.8,275.9 L306.6,278.4 L304.4,280.9 L302.2,283.5 L300.0,286.0" fill="none" stroke="#2dd4bf" stroke-width="21" stroke-linecap="round" stroke-linejoin="round" opacity="0.95"/><path d="M324.2,258.2 L322.0,260.7 L319.8,263.2 L317.6,265.8 L315.4,268.3 L313.2,270.8 L311.0,273.4 L308.8,275.9 L306.6,278.4 L304.4,280.9 L302.2,283.5 L300.0,286.0" fill="none" stroke="#0c2020" stroke-width="13" stroke-linecap="round" stroke-linejoin="round" opacity="1.0"/><path d="M240.0,227.8 L230.2,229.4 L220.4,230.9 L210.7,232.5 L200.9,234.1 L191.1,235.6 L186.8,242.7 L185.0,252.6 L183.3,262.4 L181.5,272.3 L179.8,282.1 L178.0,292.0" fill="none" stroke="#8f2a3e" stroke-width="21" stroke-linecap="round" stroke-linejoin="round" opacity="0.95"/><path d="M240.0,227.8 L230.2,229.4 L220.4,230.9 L210.7,232.5 L200.9,234.1 L191.1,235.6 L186.8,242.7 L185.0,252.6 L183.3,262.4 L181.5,272.3 L179.8,282.1 L178.0,292.0" fill="none" stroke="#0c2020" stroke-width="13" stroke-linecap="round" stroke-linejoin="round" opacity="1.0"/><path d="M240.0,227.8 L229.3,224.3 L218.6,220.8 L207.9,217.3 L197.2,213.8 L186.4,210.3 L176.2,205.7 L166.6,199.8 L157.0,193.8 L147.3,187.9 L137.7,181.9 L128.0,176.0" fill="none" stroke="#f43f5e" stroke-width="21" stroke-linecap="round" stroke-linejoin="round" opacity="0.95"/><path d="M240.0,227.8 L229.3,224.3 L218.6,220.8 L207.9,217.3 L197.2,213.8 L186.4,210.3 L176.2,205.7 L166.6,199.8 L157.0,193.8 L147.3,187.9 L137.7,181.9 L128.0,176.0" fill="none" stroke="#0c2020" stroke-width="13" stroke-linecap="round" stroke-linejoin="round" opacity="1.0"/><path d="M324.2,258.2 L316.5,255.4 L308.9,252.7 L301.2,249.9 L293.6,247.1 L285.9,244.4 L278.3,241.6 L270.6,238.8 L263.0,236.1 L255.3,233.3 L247.7,230.6 L240.0,227.8" fill="none" stroke="#2dd4bf" stroke-width="25" stroke-linecap="round" stroke-linejoin="round" opacity="0.95"/><path d="M324.2,258.2 L316.5,255.4 L308.9,252.7 L301.2,249.9 L293.6,247.1 L285.9,244.4 L278.3,241.6 L270.6,238.8 L263.0,236.1 L255.3,233.3 L247.7,230.6 L240.0,227.8" fill="none" stroke="#0c2020" stroke-width="17" stroke-linecap="round" stroke-linejoin="round" opacity="1.0"/><circle cx="352.1" cy="254.1" r="19.0" fill="#2dd4bf" stroke="none" stroke-width="0" opacity="0.95"/><circle cx="352.1" cy="254.1" r="15.0" fill="#0c2020" stroke="none" stroke-width="6.3" opacity="1.0"/><path d="M342.8,251.1 L344.5,251.1 L346.2,251.1 L347.9,251.1 L349.5,251.1 L351.2,251.1 L352.9,251.1 L354.6,251.1 L356.3,251.1 L358.0,251.1 L359.7,251.1 L361.4,251.1" fill="none" stroke="#a7f3ee" stroke-width="5" stroke-linecap="round" stroke-linejoin="round" opacity="1.0"/></g><g class="f10"><path d="M324.6,258.6 L322.4,261.1 L320.1,263.6 L317.9,266.1 L315.7,268.6 L313.4,271.1 L311.2,273.6 L309.0,276.0 L306.7,278.5 L304.5,281.0 L302.2,283.5 L300.0,286.0" fill="none" stroke="#2dd4bf" stroke-width="21" stroke-linecap="round" stroke-linejoin="round" opacity="0.95"/><path d="M324.6,258.6 L322.4,261.1 L320.1,263.6 L317.9,266.1 L315.7,268.6 L313.4,271.1 L311.2,273.6 L309.0,276.0 L306.7,278.5 L304.5,281.0 L302.2,283.5 L300.0,286.0" fill="none" stroke="#0c2020" stroke-width="13" stroke-linecap="round" stroke-linejoin="round" opacity="1.0"/><path d="M240.0,232.6 L230.3,233.3 L220.6,234.0 L210.9,234.7 L201.2,235.4 L191.5,236.1 L186.9,242.3 L185.1,252.2 L183.3,262.2 L181.6,272.1 L179.8,282.1 L178.0,292.0" fill="none" stroke="#8f2a3e" stroke-width="21" stroke-linecap="round" stroke-linejoin="round" opacity="0.95"/><path d="M240.0,232.6 L230.3,233.3 L220.6,234.0 L210.9,234.7 L201.2,235.4 L191.5,236.1 L186.9,242.3 L185.1,252.2 L183.3,262.2 L181.6,272.1 L179.8,282.1 L178.0,292.0" fill="none" stroke="#0c2020" stroke-width="13" stroke-linecap="round" stroke-linejoin="round" opacity="1.0"/><path d="M240.0,232.6 L229.4,228.4 L218.9,224.2 L208.3,220.0 L197.8,215.8 L187.2,211.6 L177.1,206.4 L167.4,200.2 L157.5,194.2 L147.7,188.1 L137.8,182.1 L128.0,176.0" fill="none" stroke="#f43f5e" stroke-width="21" stroke-linecap="round" stroke-linejoin="round" opacity="0.95"/><path d="M240.0,232.6 L229.4,228.4 L218.9,224.2 L208.3,220.0 L197.8,215.8 L187.2,211.6 L177.1,206.4 L167.4,200.2 L157.5,194.2 L147.7,188.1 L137.8,182.1 L128.0,176.0" fill="none" stroke="#0c2020" stroke-width="13" stroke-linecap="round" stroke-linejoin="round" opacity="1.0"/><path d="M324.6,258.6 L316.9,256.3 L309.2,253.9 L301.5,251.5 L293.9,249.1 L286.2,246.8 L278.5,244.4 L270.8,242.0 L263.1,239.7 L255.4,237.3 L247.7,234.9 L240.0,232.6" fill="none" stroke="#2dd4bf" stroke-width="25" stroke-linecap="round" stroke-linejoin="round" opacity="0.95"/><path d="M324.6,258.6 L316.9,256.3 L309.2,253.9 L301.5,251.5 L293.9,249.1 L286.2,246.8 L278.5,244.4 L270.8,242.0 L263.1,239.7 L255.4,237.3 L247.7,234.9 L240.0,232.6" fill="none" stroke="#0c2020" stroke-width="17" stroke-linecap="round" stroke-linejoin="round" opacity="1.0"/><circle cx="352.3" cy="254.3" r="19.0" fill="#2dd4bf" stroke="none" stroke-width="0" opacity="0.95"/><circle cx="352.3" cy="254.3" r="15.0" fill="#0c2020" stroke="none" stroke-width="6.3" opacity="1.0"/><path d="M343.0,251.3 L344.7,251.3 L346.4,251.3 L348.1,251.3 L349.8,251.3 L351.5,251.3 L353.2,251.3 L354.8,251.3 L356.5,251.3 L358.2,251.3 L359.9,251.3 L361.6,251.3" fill="none" stroke="#a7f3ee" stroke-width="5" stroke-linecap="round" stroke-linejoin="round" opacity="1.0"/></g><g class="f11"><path d="M325.3,259.3 L323.0,261.7 L320.7,264.1 L318.4,266.6 L316.1,269.0 L313.8,271.4 L311.5,273.8 L309.2,276.3 L306.9,278.7 L304.6,281.1 L302.3,283.6 L300.0,286.0" fill="none" stroke="#2dd4bf" stroke-width="21" stroke-linecap="round" stroke-linejoin="round" opacity="0.95"/><path d="M325.3,259.3 L323.0,261.7 L320.7,264.1 L318.4,266.6 L316.1,269.0 L313.8,271.4 L311.5,273.8 L309.2,276.3 L306.9,278.7 L304.6,281.1 L302.3,283.6 L300.0,286.0" fill="none" stroke="#0c2020" stroke-width="13" stroke-linecap="round" stroke-linejoin="round" opacity="1.0"/><path d="M240.0,239.3 L230.4,238.8 L220.8,238.3 L211.2,237.8 L201.6,237.3 L192.0,236.8 L187.0,241.7 L185.2,251.8 L183.4,261.8 L181.6,271.9 L179.8,281.9 L178.0,292.0" fill="none" stroke="#8f2a3e" stroke-width="21" stroke-linecap="round" stroke-linejoin="round" opacity="0.95"/><path d="M240.0,239.3 L230.4,238.8 L220.8,238.3 L211.2,237.8 L201.6,237.3 L192.0,236.8 L187.0,241.7 L185.2,251.8 L183.4,261.8 L181.6,271.9 L179.8,281.9 L178.0,292.0" fill="none" stroke="#0c2020" stroke-width="13" stroke-linecap="round" stroke-linejoin="round" opacity="1.0"/><path d="M240.0,239.3 L229.7,234.1 L219.3,228.9 L209.0,223.8 L198.7,218.6 L188.3,213.4 L178.4,207.4 L168.5,200.9 L158.4,194.7 L148.2,188.5 L138.1,182.2 L128.0,176.0" fill="none" stroke="#f43f5e" stroke-width="21" stroke-linecap="round" stroke-linejoin="round" opacity="0.95"/><path d="M240.0,239.3 L229.7,234.1 L219.3,228.9 L209.0,223.8 L198.7,218.6 L188.3,213.4 L178.4,207.4 L168.5,200.9 L158.4,194.7 L148.2,188.5 L138.1,182.2 L128.0,176.0" fill="none" stroke="#0c2020" stroke-width="13" stroke-linecap="round" stroke-linejoin="round" opacity="1.0"/><path d="M325.3,259.3 L317.5,257.4 L309.8,255.6 L302.0,253.8 L294.3,252.0 L286.5,250.2 L278.8,248.4 L271.0,246.6 L263.3,244.7 L255.5,242.9 L247.8,241.1 L240.0,239.3" fill="none" stroke="#2dd4bf" stroke-width="25" stroke-linecap="round" stroke-linejoin="round" opacity="0.95"/><path d="M325.3,259.3 L317.5,257.4 L309.8,255.6 L302.0,253.8 L294.3,252.0 L286.5,250.2 L278.8,248.4 L271.0,246.6 L263.3,244.7 L255.5,242.9 L247.8,241.1 L240.0,239.3" fill="none" stroke="#0c2020" stroke-width="17" stroke-linecap="round" stroke-linejoin="round" opacity="1.0"/><circle cx="352.6" cy="254.6" r="19.0" fill="#2dd4bf" stroke="none" stroke-width="0" opacity="0.95"/><circle cx="352.6" cy="254.6" r="15.0" fill="#0c2020" stroke="none" stroke-width="6.3" opacity="1.0"/><path d="M343.3,251.6 L345.0,251.6 L346.7,251.6 L348.4,251.6 L350.1,251.6 L351.8,251.6 L353.5,251.6 L355.2,251.6 L356.9,251.6 L358.6,251.6 L360.2,251.6 L361.9,251.6" fill="none" stroke="#a7f3ee" stroke-width="5" stroke-linecap="round" stroke-linejoin="round" opacity="1.0"/></g><g class="f12"><path d="M326.0,260.0 L323.6,262.4 L321.3,264.7 L318.9,267.1 L316.5,269.5 L314.2,271.8 L311.8,274.2 L309.5,276.5 L307.1,278.9 L304.7,281.3 L302.4,283.6 L300.0,286.0" fill="none" stroke="#2dd4bf" stroke-width="21" stroke-linecap="round" stroke-linejoin="round" opacity="0.95"/><path d="M326.0,260.0 L323.6,262.4 L321.3,264.7 L318.9,267.1 L316.5,269.5 L314.2,271.8 L311.8,274.2 L309.5,276.5 L307.1,278.9 L304.7,281.3 L302.4,283.6 L300.0,286.0" fill="none" stroke="#0c2020" stroke-width="13" stroke-linecap="round" stroke-linejoin="round" opacity="1.0"/><path d="M240.0,247.0 L230.5,245.1 L221.1,243.3 L211.6,241.4 L202.1,239.5 L192.7,237.7 L187.1,241.0 L185.3,251.2 L183.5,261.4 L181.6,271.6 L179.8,281.8 L178.0,292.0" fill="none" stroke="#8f2a3e" stroke-width="21" stroke-linecap="round" stroke-linejoin="round" opacity="0.95"/><path d="M240.0,247.0 L230.5,245.1 L221.1,243.3 L211.6,241.4 L202.1,239.5 L192.7,237.7 L187.1,241.0 L185.3,251.2 L183.5,261.4 L181.6,271.6 L179.8,281.8 L178.0,292.0" fill="none" stroke="#0c2020" stroke-width="13" stroke-linecap="round" stroke-linejoin="round" opacity="1.0"/><path d="M240.0,247.0 L229.9,240.7 L219.8,234.4 L209.8,228.1 L199.7,221.8 L189.6,215.5 L179.8,208.6 L169.7,201.7 L159.3,195.3 L148.9,188.8 L138.4,182.4 L128.0,176.0" fill="none" stroke="#f43f5e" stroke-width="21" stroke-linecap="round" stroke-linejoin="round" opacity="0.95"/><path d="M240.0,247.0 L229.9,240.7 L219.8,234.4 L209.8,228.1 L199.7,221.8 L189.6,215.5 L179.8,208.6 L169.7,201.7 L159.3,195.3 L148.9,188.8 L138.4,182.4 L128.0,176.0" fill="none" stroke="#0c2020" stroke-width="13" stroke-linecap="round" stroke-linejoin="round" opacity="1.0"/><path d="M326.0,260.0 L318.2,258.8 L310.4,257.6 L302.5,256.5 L294.7,255.3 L286.9,254.1 L279.1,252.9 L271.3,251.7 L263.5,250.5 L255.6,249.4 L247.8,248.2 L240.0,247.0" fill="none" stroke="#2dd4bf" stroke-width="25" stroke-linecap="round" stroke-linejoin="round" opacity="0.95"/><path d="M326.0,260.0 L318.2,258.8 L310.4,257.6 L302.5,256.5 L294.7,255.3 L286.9,254.1 L279.1,252.9 L271.3,251.7 L263.5,250.5 L255.6,249.4 L247.8,248.2 L240.0,247.0" fill="none" stroke="#0c2020" stroke-width="17" stroke-linecap="round" stroke-linejoin="round" opacity="1.0"/><circle cx="353.0" cy="255.0" r="19.0" fill="#2dd4bf" stroke="none" stroke-width="0" opacity="0.95"/><circle cx="353.0" cy="255.0" r="15.0" fill="#0c2020" stroke="none" stroke-width="6.3" opacity="1.0"/><path d="M343.7,252.0 L345.4,252.0 L347.1,252.0 L348.8,252.0 L350.5,252.0 L352.2,252.0 L353.8,252.0 L355.5,252.0 L357.2,252.0 L358.9,252.0 L360.6,252.0 L362.3,252.0" fill="none" stroke="#a7f3ee" stroke-width="5" stroke-linecap="round" stroke-linejoin="round" opacity="1.0"/></g><g class="f13"><path d="M326.7,260.7 L324.3,263.0 L321.9,265.3 L319.4,267.6 L317.0,269.9 L314.6,272.2 L312.2,274.5 L309.7,276.8 L307.3,279.1 L304.9,281.4 L302.4,283.7 L300.0,286.0" fill="none" stroke="#2dd4bf" stroke-width="21" stroke-linecap="round" stroke-linejoin="round" opacity="0.95"/><path d="M326.7,260.7 L324.3,263.0 L321.9,265.3 L319.4,267.6 L317.0,269.9 L314.6,272.2 L312.2,274.5 L309.7,276.8 L307.3,279.1 L304.9,281.4 L302.4,283.7 L300.0,286.0" fill="none" stroke="#0c2020" stroke-width="13" stroke-linecap="round" stroke-linejoin="round" opacity="1.0"/><path d="M240.0,254.7 L230.7,251.5 L221.3,248.2 L212.0,245.0 L202.6,241.7 L193.3,238.5 L187.2,240.4 L185.4,250.7 L183.5,261.0 L181.7,271.3 L179.8,281.7 L178.0,292.0" fill="none" stroke="#8f2a3e" stroke-width="21" stroke-linecap="round" stroke-linejoin="round" opacity="0.95"/><path d="M240.0,254.7 L230.7,251.5 L221.3,248.2 L212.0,245.0 L202.6,241.7 L193.3,238.5 L187.2,240.4 L185.4,250.7 L183.5,261.0 L181.7,271.3 L179.8,281.7 L178.0,292.0" fill="none" stroke="#0c2020" stroke-width="13" stroke-linecap="round" stroke-linejoin="round" opacity="1.0"/><path d="M240.0,254.7 L230.2,247.3 L220.4,239.8 L210.5,232.4 L200.7,225.0 L190.9,217.5 L181.2,209.7 L171.0,202.5 L160.3,195.9 L149.5,189.2 L138.8,182.6 L128.0,176.0" fill="none" stroke="#f43f5e" stroke-width="21" stroke-linecap="round" stroke-linejoin="round" opacity="0.95"/><path d="M240.0,254.7 L230.2,247.3 L220.4,239.8 L210.5,232.4 L200.7,225.0 L190.9,217.5 L181.2,209.7 L171.0,202.5 L160.3,195.9 L149.5,189.2 L138.8,182.6 L128.0,176.0" fill="none" stroke="#0c2020" stroke-width="13" stroke-linecap="round" stroke-linejoin="round" opacity="1.0"/><path d="M326.7,260.7 L318.8,260.2 L311.0,259.6 L303.1,259.1 L295.2,258.5 L287.3,258.0 L279.4,257.4 L271.5,256.9 L263.7,256.4 L255.8,255.8 L247.9,255.3 L240.0,254.7" fill="none" stroke="#2dd4bf" stroke-width="25" stroke-linecap="round" stroke-linejoin="round" opacity="0.95"/><path d="M326.7,260.7 L318.8,260.2 L311.0,259.6 L303.1,259.1 L295.2,258.5 L287.3,258.0 L279.4,257.4 L271.5,256.9 L263.7,256.4 L255.8,255.8 L247.9,255.3 L240.0,254.7" fill="none" stroke="#0c2020" stroke-width="17" stroke-linecap="round" stroke-linejoin="round" opacity="1.0"/><circle cx="353.4" cy="255.4" r="19.0" fill="#2dd4bf" stroke="none" stroke-width="0" opacity="0.95"/><circle cx="353.4" cy="255.4" r="15.0" fill="#0c2020" stroke="none" stroke-width="6.3" opacity="1.0"/><path d="M344.1,252.4 L345.8,252.4 L347.4,252.4 L349.1,252.4 L350.8,252.4 L352.5,252.4 L354.2,252.4 L355.9,252.4 L357.6,252.4 L359.3,252.4 L361.0,252.4 L362.7,252.4" fill="none" stroke="#a7f3ee" stroke-width="5" stroke-linecap="round" stroke-linejoin="round" opacity="1.0"/></g><g class="f14"><path d="M327.4,261.4 L324.9,263.6 L322.4,265.9 L319.9,268.1 L317.4,270.3 L314.9,272.6 L312.4,274.8 L310.0,277.0 L307.5,279.3 L305.0,281.5 L302.5,283.8 L300.0,286.0" fill="none" stroke="#2dd4bf" stroke-width="21" stroke-linecap="round" stroke-linejoin="round" opacity="0.95"/><path d="M327.4,261.4 L324.9,263.6 L322.4,265.9 L319.9,268.1 L317.4,270.3 L314.9,272.6 L312.4,274.8 L310.0,277.0 L307.5,279.3 L305.0,281.5 L302.5,283.8 L300.0,286.0" fill="none" stroke="#0c2020" stroke-width="13" stroke-linecap="round" stroke-linejoin="round" opacity="1.0"/><path d="M240.0,261.4 L230.8,257.0 L221.5,252.5 L212.3,248.1 L203.1,243.7 L193.8,239.2 L187.3,239.8 L185.5,250.2 L183.6,260.7 L181.7,271.1 L179.9,281.6 L178.0,292.0" fill="none" stroke="#8f2a3e" stroke-width="21" stroke-linecap="round" stroke-linejoin="round" opacity="0.95"/><path d="M240.0,261.4 L230.8,257.0 L221.5,252.5 L212.3,248.1 L203.1,243.7 L193.8,239.2 L187.3,239.8 L185.5,250.2 L183.6,260.7 L181.7,271.1 L179.9,281.6 L178.0,292.0" fill="none" stroke="#0c2020" stroke-width="13" stroke-linecap="round" stroke-linejoin="round" opacity="1.0"/><path d="M240.0,261.4 L230.4,253.0 L220.8,244.6 L211.2,236.2 L201.6,227.8 L192.0,219.3 L182.5,210.7 L172.1,203.1 L161.1,196.4 L150.1,189.6 L139.0,182.8 L128.0,176.0" fill="none" stroke="#f43f5e" stroke-width="21" stroke-linecap="round" stroke-linejoin="round" opacity="0.95"/><path d="M240.0,261.4 L230.4,253.0 L220.8,244.6 L211.2,236.2 L201.6,227.8 L192.0,219.3 L182.5,210.7 L172.1,203.1 L161.1,196.4 L150.1,189.6 L139.0,182.8 L128.0,176.0" fill="none" stroke="#0c2020" stroke-width="13" stroke-linecap="round" stroke-linejoin="round" opacity="1.0"/><path d="M327.4,261.4 L319.4,261.4 L311.5,261.4 L303.5,261.4 L295.6,261.4 L287.7,261.4 L279.7,261.4 L271.8,261.4 L263.8,261.4 L255.9,261.4 L247.9,261.4 L240.0,261.4" fill="none" stroke="#2dd4bf" stroke-width="25" stroke-linecap="round" stroke-linejoin="round" opacity="0.95"/><path d="M327.4,261.4 L319.4,261.4 L311.5,261.4 L303.5,261.4 L295.6,261.4 L287.7,261.4 L279.7,261.4 L271.8,261.4 L263.8,261.4 L255.9,261.4 L247.9,261.4 L240.0,261.4" fill="none" stroke="#0c2020" stroke-width="17" stroke-linecap="round" stroke-linejoin="round" opacity="1.0"/><circle cx="353.7" cy="255.7" r="19.0" fill="#2dd4bf" stroke="none" stroke-width="0" opacity="0.95"/><circle cx="353.7" cy="255.7" r="15.0" fill="#0c2020" stroke="none" stroke-width="6.3" opacity="1.0"/><path d="M344.4,252.7 L346.1,252.7 L347.8,252.7 L349.5,252.7 L351.2,252.7 L352.8,252.7 L354.5,252.7 L356.2,252.7 L357.9,252.7 L359.6,252.7 L361.3,252.7 L363.0,252.7" fill="none" stroke="#a7f3ee" stroke-width="5" stroke-linecap="round" stroke-linejoin="round" opacity="1.0"/></g><g class="f15"><path d="M327.8,261.8 L325.3,264.0 L322.8,266.2 L320.2,268.4 L317.7,270.6 L315.2,272.8 L312.6,275.0 L310.1,277.2 L307.6,279.4 L305.1,281.6 L302.5,283.8 L300.0,286.0" fill="none" stroke="#2dd4bf" stroke-width="21" stroke-linecap="round" stroke-linejoin="round" opacity="0.95"/><path d="M327.8,261.8 L325.3,264.0 L322.8,266.2 L320.2,268.4 L317.7,270.6 L315.2,272.8 L312.6,275.0 L310.1,277.2 L307.6,279.4 L305.1,281.6 L302.5,283.8 L300.0,286.0" fill="none" stroke="#0c2020" stroke-width="13" stroke-linecap="round" stroke-linejoin="round" opacity="1.0"/><path d="M240.0,266.2 L230.8,260.9 L221.7,255.6 L212.5,250.3 L203.4,245.0 L194.2,239.7 L187.4,239.4 L185.5,249.9 L183.6,260.4 L181.8,271.0 L179.9,281.5 L178.0,292.0" fill="none" stroke="#8f2a3e" stroke-width="21" stroke-linecap="round" stroke-linejoin="round" opacity="0.95"/><path d="M240.0,266.2 L230.8,260.9 L221.7,255.6 L212.5,250.3 L203.4,245.0 L194.2,239.7 L187.4,239.4 L185.5,249.9 L183.6,260.4 L181.8,271.0 L179.9,281.5 L178.0,292.0" fill="none" stroke="#0c2020" stroke-width="13" stroke-linecap="round" stroke-linejoin="round" opacity="1.0"/><path d="M240.0,266.2 L230.6,257.1 L221.1,248.0 L211.7,238.8 L202.2,229.7 L192.8,220.6 L183.4,211.5 L172.9,203.6 L161.7,196.7 L150.4,189.8 L139.2,182.9 L128.0,176.0" fill="none" stroke="#f43f5e" stroke-width="21" stroke-linecap="round" stroke-linejoin="round" opacity="0.95"/><path d="M240.0,266.2 L230.6,257.1 L221.1,248.0 L211.7,238.8 L202.2,229.7 L192.8,220.6 L183.4,211.5 L172.9,203.6 L161.7,196.7 L150.4,189.8 L139.2,182.9 L128.0,176.0" fill="none" stroke="#0c2020" stroke-width="13" stroke-linecap="round" stroke-linejoin="round" opacity="1.0"/><path d="M327.8,261.8 L319.8,262.2 L311.9,262.6 L303.9,263.0 L295.9,263.4 L287.9,263.8 L279.9,264.2 L271.9,264.6 L264.0,265.0 L256.0,265.4 L248.0,265.8 L240.0,266.2" fill="none" stroke="#2dd4bf" stroke-width="25" stroke-linecap="round" stroke-linejoin="round" opacity="0.95"/><path d="M327.8,261.8 L319.8,262.2 L311.9,262.6 L303.9,263.0 L295.9,263.4 L287.9,263.8 L279.9,264.2 L271.9,264.6 L264.0,265.0 L256.0,265.4 L248.0,265.8 L240.0,266.2" fill="none" stroke="#0c2020" stroke-width="17" stroke-linecap="round" stroke-linejoin="round" opacity="1.0"/><circle cx="353.9" cy="255.9" r="19.0" fill="#2dd4bf" stroke="none" stroke-width="0" opacity="0.95"/><circle cx="353.9" cy="255.9" r="15.0" fill="#0c2020" stroke="none" stroke-width="6.3" opacity="1.0"/><path d="M344.6,252.9 L346.3,252.9 L348.0,252.9 L349.7,252.9 L351.4,252.9 L353.1,252.9 L354.8,252.9 L356.5,252.9 L358.1,252.9 L359.8,252.9 L361.5,252.9 L363.2,252.9" fill="none" stroke="#a7f3ee" stroke-width="5" stroke-linecap="round" stroke-linejoin="round" opacity="1.0"/></g></svg>
