<svg xmlns="http://www.w3.org/2000/svg" viewBox="0 0 480 320"><style>@keyframes k0{0%{opacity:1}11.111%{opacity:0}100%{opacity:0}}.f0{opacity:0;animation:k0 2.4s steps(1,end) infinite}@keyframes k1{0%{opacity:0}11.111%{opacity:1}16.667%{opacity:0}100%{opacity:0}}.f1{opacity:0;animation:k1 2.4s steps(1,end) infinite}@keyframes k2{0%{opacity:0}16.667%{opacity:1}22.222%{opacity:0}100%{opacity:0}}.f2{opacity:0;animation:k2 2.4s steps(1,end) infinite}@keyframes k3{0%{opacity:0}22.222%{opacity:1}27.778%{opacity:0}100%{opacity:0}}.f3{opacity:0;animation:k3 2.4s steps(1,end) infinite}@keyframes k4{0%{opacity:0}27.778%{opacity:1}33.333%{opacity:0}100%{opacity:0}}.f4{opacity:0;animation:k4 2.4s steps(1,end) infinite}@keyframes k5{0%{opacity:0}33.333%{opacity:1}38.889%{opacity:0}100%{opacity:0}}.f5{opacity:0;animation:k5 2.4s steps(1,end) infinite}@keyframes k6{0%{opacity:0}38.889%{opacity:1}44.444%{opacity:0}100%{opacity:0}}.f6{opacity:0;animation:k6 2.4s steps(1,end) infinite}@keyframes k7{0%{opacity:0}44.444%{opacity:1}50.000%{opacity:0}100%{opacity:0}}.f7{opacity:0;animation:k7 2.4s steps(1,end) infinite}@keyframes k8{0%{opacity:0}50.000%{opacity:1}61.111%{opacity:0}100%{opacity:0}}.f8{opacity:0;animation:k8 2.4s steps(1,end) infinite}@keyframes k9{0%{opacity:0}61.111%{opacity:1}66.667%{opacity:0}100%{opacity:0}}.f9{opacity:0;animation:k9 2.4s steps(1,end) infinite}@keyframes k10{0%{opacity:0}66.667%{opacity:1}72.222%{opacity:0}100%{opacity:0}}.f10{opacity:0;animation:k10 2.4s steps(1,end) infinite}@keyframes k11{0%{opacity:0}72.222%{opacity:1}77.778%{opacity:0}100%{opacity:0}}.f11{opacity:0;animation:k11 2.4s steps(1,end) infinite}@keyframes k12{0%{opacity:0}77.778%{opacity:1}83.333%{opacity:0}100%{opacity:0}}.f12{opacity:0;animation:k12 2.4s steps(1,end) infinite}@keyframes k13{0%{opacity:0}83.333%{opacity:1}88.889%{opacity:0}100%{opacity:0}}.f13{opacity:0;animation:k13 2.4s steps(1,end) infinite}@keyframes k14{0%{opacity:0}88.889%{opacity:1}94.444%{opacity:0}100%{opacity:0}}.f14{opacity:0;animation:k14 2.4s steps(1,end) infinite}@keyframes k15{0%{opacity:0}94.444%{opacity:1}100%{opacity:1}}.f15{opacity:0;animation:k15 2.4s steps(1,end) infinite}</style><path d="M40.0,292.0 L440.0,292.0" fill="none" stroke="#1f3333" stroke-width="6" stroke-linecap="round" stroke-linejoin="round" opacity="1.0"/><g class="f0"><path d="M270.0,128.0 L263.9,131.6 L257.7,135.1 L251.6,138.7 L245.4,142.2 L239.3,145.8 L233.1,149.3 L226.6,148.0 L219.9,145.5 L213.3,143.0 L206.6,140.5 L200.0,138.0" fill="none" stroke="#2dd4bf" stroke-width="19" stroke-linecap="round" stroke-linejoin="round" opacity="0.95"/><path d="M270.0,128.0 L263.9,131.6 L257.7,135.1 L251.6,138.7 L245.4,142.2 L239.3,145.8 L233.1,149.3 L226.6,148.0 L219.9,145.5 L213.3,143.0 L206.6,140.5 L200.0,138.0" fill="none" stroke="#0c2020" stroke-width="11" stroke-linecap="round" stroke-linejoin="round" opacity="1.0"/><path d="M284.0,198.0 L277.8,205.1 L271.6,212.3 L265.4,219.4 L259.2,226.5 L253.0,233.6 L246.8,240.8 L239.4,241.6 L231.1,237.2 L222.7,232.8 L214.4,228.4 L206.0,224.0" fill="none" stroke="#8f2a3e" stroke-width="19" stroke-linecap="round" stroke-linejoin="round" opacity="0.95"/><path d="M284.0,198.0 L277.8,205.1 L271.6,212.3 L265.4,219.4 L259.2,226.5 L253.0,233.6 L246.8,240.8 L239.4,241.6 L231.1,237.2 L222.7,232.8 L214.4,228.4 L206.0,224.0" fill="none" stroke="#0c2020" stroke-width="11" stroke-linecap="round" stroke-linejoin="round" opacity="1.0"/><path d="M284.0,198.0 L287.2,206.3 L290.5,214.5 L293.7,222.8 L296.9,231.0 L300.2,239.3 L302.3,247.8 L303.1,256.6 L303.8,265.5 L304.5,274.3 L305.3,283.2 L306.0,292.0" fill="none" stroke="#f43f5e" stroke-width="19" stroke-linecap="round" stroke-linejoin="round" opacity="0.95"/><path d="M284.0,198.0 L287.2,206.3 L290.5,214.5 L293.7,222.8 L296.9,231.0 L300.2,239.3 L302.3,247.8 L303.1,256.6 L303.8,265.5 L304.5,274.3 L305.3,283.2 L306.0,292.0" fill="none" stroke="#0c2020" stroke-width="11" stroke-linecap="round" stroke-linejoin="round" opacity="1.0"/><path d="M270.0,128.0 L271.3,134.4 L272.5,140.7 L273.8,147.1 L275.1,153.5 L276.4,159.8 L277.6,166.2 L278.9,172.5 L280.2,178.9 L281.5,185.3 L282.7,191.6 L284.0,198.0" fill="none" stroke="#2dd4bf" stroke-width="23" stroke-linecap="round" stroke-linejoin="round" opacity="0.95"/><path d="M270.0,128.0 L271.3,134.4 L272.5,140.7 L273.8,147.1 L275.1,153.5 L276.4,159.8 L277.6,166.2 L278.9,172.5 L280.2,178.9 L281.5,185.3 L282.7,191.6 L284.0,198.0" fill="none" stroke="#0c2020" stroke-width="15" stroke-linecap="round" stroke-linejoin="round" opacity="1.0"/><circle cx="274.0" cy="100.0" r="19.0" fill="#2dd4bf" stroke="none" stroke-width="0" opacity="0.95"/><circle cx="274.0" cy="100.0" r="15.0" fill="#0c2020" stroke="none" stroke-width="6.3" opacity="1.0"/><path d="M272.0,83.0 L269.0,86.0 L266.0,89.0 L263.1,91.9 L260.1,94.9 L257.1,97.9 L254.1,100.9 L253.5,104.5 L254.4,108.6 L255.3,112.8 L256.1,116.9 L257.0,121.0" fill="none" stroke="#2dd4bf" stroke-width="5" stroke-linecap="round" stroke-linejoin="round" opacity="1.0"/><path d="M264.7,97.0 L266.4,97.0 L268.1,97.0 L269.8,97.0 L271.5,97.0 L273.2,97.0 L274.8,97.0 L276.5,97.0 L278.2,97.0 L279.9,97.0 L281.6,97.0 L283.3,97.0" fill="none" stroke="#a7f3ee" stroke-width="5" stroke-linecap="round" stroke-linejoin="round" opacity="1.0"/></g><g class="f1"><path d="M267.4,128.0 L261.8,131.6 L256.2,135.1 L250.6,138.7 L245.0,142.2 L239.3,145.8 L233.7,149.3 L227.7,148.0 L221.7,145.5 L215.6,143.0 L209.5,140.5 L203.4,138.0" fill="none" stroke="#2dd4bf" stroke-width="19" stroke-linecap="round" stroke-linejoin="round" opacity="0.95"/><path d="M267.4,128.0 L261.8,131.6 L256.2,135.1 L250.6,138.7 L245.0,142.2 L239.3,145.8 L233.7,149.3 L227.7,148.0 L221.7,145.5 L215.6,143.0 L209.5,140.5 L203.4,138.0" fill="none" stroke="#0c2020" stroke-width="11" stroke-linecap="round" stroke-linejoin="round" opacity="1.0"/><path d="M280.2,198.0 L274.6,205.1 L268.9,212.3 L263.2,219.4 L257.6,226.5 L251.9,233.6 L246.2,240.8 L239.5,241.6 L231.8,237.2 L224.2,232.8 L216.6,228.4 L208.9,224.0" fill="none" stroke="#8f2a3e" stroke-width="19" stroke-linecap="round" stroke-linejoin="round" opacity="0.95"/><path d="M280.2,198.0 L274.6,205.1 L268.9,212.3 L263.2,219.4 L257.6,226.5 L251.9,233.6 L246.2,240.8 L239.5,241.6 L231.8,237.2 L224.2,232.8 L216.6,228.4 L208.9,224.0" fill="none" stroke="#0c2020" stroke-width="11" stroke-linecap="round" stroke-linejoin="round" opacity="1.0"/><path d="M280.2,198.0 L283.2,206.3 L286.1,214.5 L289.1,222.8 L292.0,231.0 L295.0,239.3 L297.0,247.8 L297.6,256.6 L298.3,265.5 L299.0,274.3 L299.7,283.2 L300.3,292.0" fill="none" stroke="#f43f5e" stroke-width="19" stroke-linecap="round" stroke-linejoin="round" opacity="0.95"/><path d="M280.2,198.0 L283.2,206.3 L286.1,214.5 L289.1,222.8 L292.0,231.0 L295.0,239.3 L297.0,247.8 L297.6,256.6 L298.3,265.5 L299.0,274.3 L299.7,283.2 L300.3,292.0" fill="none" stroke="#0c2020" stroke-width="11" stroke-linecap="round" stroke-linejoin="round" opacity="1.0"/><path d="M267.4,128.0 L268.6,134.4 L269.7,140.7 L270.9,147.1 L272.1,153.5 L273.2,159.8 L274.4,166.2 L275.6,172.5 L276.7,178.9 L277.9,185.3 L279.1,191.6 L280.2,198.0" fill="none" stroke="#2dd4bf" stroke-width="23" stroke-linecap="round" stroke-linejoin="round" opacity="0.95"/><path d="M267.4,128.0 L268.6,134.4 L269.7,140.7 L270.9,147.1 L272.1,153.5 L273.2,159.8 L274.4,166.2 L275.6,172.5 L276.7,178.9 L277.9,185.3 L279.1,191.6 L280.2,198.0" fill="none" stroke="#0c2020" stroke-width="15" stroke-linecap="round" stroke-linejoin="round" opacity="1.0"/><circle cx="271.1" cy="100.0" r="19.0" fill="#2dd4bf" stroke="none" stroke-width="0" opacity="0.95"/><circle cx="271.1" cy="100.0" r="15.0" fill="#0c2020" stroke="none" stroke-width="6.3" opacity="1.0"/><path d="M269.1,83.0 L266.1,86.0 L263.1,89.0 L260.2,91.9 L257.2,94.9 L254.2,97.9 L251.2,100.9 L250.6,104.5 L251.5,108.6 L252.3,112.8 L253.2,116.9 L254.1,121.0" fill="none" stroke="#2dd4bf" stroke-width="5" stroke-linecap="round" stroke-linejoin="round" opacity="1.0"/><path d="M261.8,97.0 L263.5,97.0 L265.2,97.0 L266.9,97.0 L268.5,97.0 L270.2,97.0 L271.9,97.0 L273.6,97.0 L275.3,97.0 L277.0,97.0 L278.7,97.0 L280.4,97.0" fill="none" stroke="#a7f3ee" stroke-width="5" stroke-linecap="round" stroke-linejoin="round" opacity="1.0"/></g><g class="f2"><path d="M260.6,128.0 L256.4,131.6 L252.2,135.1 L248.0,138.7 L243.7,142.2 L239.5,145.8 L235.3,149.3 L230.8,148.0 L226.2,145.5 L221.6,143.0 L217.1,140.5 L212.5,138.0" fill="none" stroke="#2dd4bf" stroke-width="19" stroke-linecap="round" stroke-linejoin="round" opacity="0.95"/><path d="M260.6,128.0 L256.4,131.6 L252.2,135.1 L248.0,138.7 L243.7,142.2 L239.5,145.8 L235.3,149.3 L230.8,148.0 L226.2,145.5 L221.6,143.0 L217.1,140.5 L212.5,138.0" fill="none" stroke="#0c2020" stroke-width="11" stroke-linecap="round" stroke-linejoin="round" opacity="1.0"/><path d="M270.2,198.0 L266.0,205.1 L261.7,212.3 L257.5,219.4 L253.2,226.5 L248.9,233.6 L244.7,240.8 L239.6,241.6 L233.9,237.2 L228.1,232.8 L222.4,228.4 L216.6,224.0" fill="none" stroke="#8f2a3e" stroke-width="19" stroke-linecap="round" stroke-linejoin="round" opacity="0.95"/><path d="M270.2,198.0 L266.0,205.1 L261.7,212.3 L257.5,219.4 L253.2,226.5 L248.9,233.6 L244.7,240.8 L239.6,241.6 L233.9,237.2 L228.1,232.8 L222.4,228.4 L216.6,224.0" fill="none" stroke="#0c2020" stroke-width="11" stroke-linecap="round" stroke-linejoin="round" opacity="1.0"/><path d="M270.2,198.0 L272.5,206.3 L274.7,214.5 L276.9,222.8 L279.1,231.0 L281.4,239.3 L282.8,247.8 L283.3,256.6 L283.9,265.5 L284.4,274.3 L284.9,283.2 L285.4,292.0" fill="none" stroke="#f43f5e" stroke-width="19" stroke-linecap="round" stroke-linejoin="round" opacity="0.95"/><path d="M270.2,198.0 L272.5,206.3 L274.7,214.5 L276.9,222.8 L279.1,231.0 L281.4,239.3 L282.8,247.8 L283.3,256.6 L283.9,265.5 L284.4,274.3 L284.9,283.2 L285.4,292.0" fill="none" stroke="#0c2020" stroke-width="11" stroke-linecap="round" stroke-linejoin="round" opacity="1.0"/><path d="M260.6,128.0 L261.5,134.4 L262.4,140.7 L263.2,147.1 L264.1,153.5 L265.0,159.8 L265.9,166.2 L266.8,172.5 L267.6,178.9 L268.5,185.3 L269.4,191.6 L270.2,198.0" fill="none" stroke="#2dd4bf" stroke-width="23" stroke-linecap="round" stroke-linejoin="round" opacity="0.95"/><path d="M260.6,128.0 L261.5,134.4 L262.4,140.7 L263.2,147.1 L264.1,153.5 L265.0,159.8 L265.9,166.2 L266.8,172.5 L267.6,178.9 L268.5,185.3 L269.4,191.6 L270.2,198.0" fill="none" stroke="#0c2020" stroke-width="15" stroke-linecap="round" stroke-linejoin="round" opacity="1.0"/><circle cx="263.4" cy="100.0" r="19.0" fill="#2dd4bf" stroke="none" stroke-width="0" opacity="0.95"/><circle cx="263.4" cy="100.0" r="15.0" fill="#0c2020" stroke="none" stroke-width="6.3" opacity="1.0"/><path d="M261.4,83.0 L258.4,86.0 L255.4,89.0 L252.4,91.9 L249.5,94.9 L246.5,97.9 L243.5,100.9 L242.9,104.5 L243.8,108.6 L244.6,112.8 L245.5,116.9 L246.4,121.0" fill="none" stroke="#2dd4bf" stroke-width="5" stroke-linecap="round" stroke-linejoin="round" opacity="1.0"/><path d="M254.1,97.0 L255.8,97.0 L257.5,97.0 L259.1,97.0 L260.8,97.0 L262.5,97.0 L264.2,97.0 L265.9,97.0 L267.6,97.0 L269.3,97.0 L271.0,97.0 L272.7,97.0" fill="none" stroke="#a7f3ee" stroke-width="5" stroke-linecap="round" stroke-linejoin="round" opacity="1.0"/></g><g class="f3"><path d="M251.0,128.0 L248.8,131.6 L246.5,135.1 L244.2,138.7 L242.0,142.2 L239.7,145.8 L237.5,149.3 L235.1,148.0 L232.6,145.5 L230.2,143.0 L227.8,140.5 L225.3,138.0" fill="none" stroke="#2dd4bf" stroke-width="19" stroke-linecap="round" stroke-linejoin="round" opacity="0.95"/><path d="M251.0,128.0 L248.8,131.6 L246.5,135.1 L244.2,138.7 L242.0,142.2 L239.7,145.8 L237.5,149.3 L235.1,148.0 L232.6,145.5 L230.2,143.0 L227.8,140.5 L225.3,138.0" fill="none" stroke="#0c2020" stroke-width="11" stroke-linecap="round" stroke-linejoin="round" opacity="1.0"/><path d="M256.2,198.0 L253.9,205.1 L251.6,212.3 L249.3,219.4 L247.1,226.5 L244.8,233.6 L242.5,240.8 L239.8,241.6 L236.7,237.2 L233.7,232.8 L230.6,228.4 L227.5,224.0" fill="none" stroke="#8f2a3e" stroke-width="19" stroke-linecap="round" stroke-linejoin="round" opacity="0.95"/><path d="M256.2,198.0 L253.9,205.1 L251.6,212.3 L249.3,219.4 L247.1,226.5 L244.8,233.6 L242.5,240.8 L239.8,241.6 L236.7,237.2 L233.7,232.8 L230.6,228.4 L227.5,224.0" fill="none" stroke="#0c2020" stroke-width="11" stroke-linecap="round" stroke-linejoin="round" opacity="1.0"/><path d="M256.2,198.0 L257.3,206.3 L258.5,214.5 L259.7,222.8 L260.9,231.0 L262.1,239.3 L262.9,247.8 L263.2,256.6 L263.4,265.5 L263.7,274.3 L264.0,283.2 L264.2,292.0" fill="none" stroke="#f43f5e" stroke-width="19" stroke-linecap="round" stroke-linejoin="round" opacity="0.95"/><path d="M256.2,198.0 L257.3,206.3 L258.5,214.5 L259.7,222.8 L260.9,231.0 L262.1,239.3 L262.9,247.8 L263.2,256.6 L263.4,265.5 L263.7,274.3 L264.0,283.2 L264.2,292.0" fill="none" stroke="#0c2020" stroke-width="11" stroke-linecap="round" stroke-linejoin="round" opacity="1.0"/><path d="M251.0,128.0 L251.5,134.4 L252.0,140.7 L252.4,147.1 L252.9,153.5 L253.4,159.8 L253.8,166.2 L254.3,172.5 L254.8,178.9 L255.2,185.3 L255.7,191.6 L256.2,198.0" fill="none" stroke="#2dd4bf" stroke-width="23" stroke-linecap="round" stroke-linejoin="round" opacity="0.95"/><path d="M251.0,128.0 L251.5,134.4 L252.0,140.7 L252.4,147.1 L252.9,153.5 L253.4,159.8 L253.8,166.2 L254.3,172.5 L254.8,178.9 L255.2,185.3 L255.7,191.6 L256.2,198.0" fill="none" stroke="#0c2020" stroke-width="15" stroke-linecap="round" stroke-linejoin="round" opacity="1.0"/><circle cx="252.5" cy="100.0" r="19.0" fill="#2dd4bf" stroke="none" stroke-width="0" opacity="0.95"/><circle cx="252.5" cy="100.0" r="15.0" fill="#0c2020" stroke="none" stroke-width="6.3" opacity="1.0"/><path d="M250.5,83.0 L247.5,86.0 L244.5,89.0 L241.6,91.9 L238.6,94.9 L235.6,97.9 L232.6,100.9 L232.0,104.5 L232.9,108.6 L233.8,112.8 L234.6,116.9 L235.5,121.0" fill="none" stroke="#2dd4bf" stroke-width="5" stroke-linecap="round" stroke-linejoin="round" opacity="1.0"/><path d="M243.2,97.0 L244.9,97.0 L246.6,97.0 L248.3,97.0 L249.9,97.0 L251.6,97.0 L253.3,97.0 L255.0,97.0 L256.7,97.0 L258.4,97.0 L260.1,97.0 L261.8,97.0" fill="none" stroke="#a7f3ee" stroke-width="5" stroke-linecap="round" stroke-linejoin="round" opacity="1.0"/></g><g class="f4"><path d="M240.0,128.0 L240.0,131.6 L240.0,135.1 L240.0,138.7 L240.0,142.2 L240.0,145.8 L240.0,149.3 L240.0,148.0 L240.0,145.5 L240.0,143.0 L240.0,140.5 L240.0,138.0" fill="none" stroke="#2dd4bf" stroke-width="19" stroke-linecap="round" stroke-linejoin="round" opacity="0.95"/><path d="M240.0,128.0 L240.0,131.6 L240.0,135.1 L240.0,138.7 L240.0,142.2 L240.0,145.8 L240.0,149.3 L240.0,148.0 L240.0,145.5 L240.0,143.0 L240.0,140.5 L240.0,138.0" fill="none" stroke="#0c2020" stroke-width="11" stroke-linecap="round" stroke-linejoin="round" opacity="1.0"/><path d="M240.0,198.0 L240.0,205.1 L240.0,212.3 L240.0,219.4 L240.0,226.5 L240.0,233.6 L240.0,240.8 L240.0,241.6 L240.0,237.2 L240.0,232.8 L240.0,228.4 L240.0,224.0" fill="none" stroke="#8f2a3e" stroke-width="19" stroke-linecap="round" stroke-linejoin="round" opacity="0.95"/><path d="M240.0,198.0 L240.0,205.1 L240.0,212.3 L240.0,219.4 L240.0,226.5 L240.0,233.6 L240.0,240.8 L240.0,241.6 L240.0,237.2 L240.0,232.8 L240.0,228.4 L240.0,224.0" fill="none" stroke="#0c2020" stroke-width="11" stroke-linecap="round" stroke-linejoin="round" opacity="1.0"/><path d="M240.0,198.0 L240.0,206.3 L240.0,214.5 L240.0,222.8 L240.0,231.0 L240.0,239.3 L240.0,247.8 L240.0,256.6 L240.0,265.5 L240.0,274.3 L240.0,283.2 L240.0,292.0" fill="none" stroke="#f43f5e" stroke-width="19" stroke-linecap="round" stroke-linejoin="round" opacity="0.95"/><path d="M240.0,198.0 L240.0,206.3 L240.0,214.5 L240.0,222.8 L240.0,231.0 L240.0,239.3 L240.0,247.8 L240.0,256.6 L240.0,265.5 L240.0,274.3 L240.0,283.2 L240.0,292.0" fill="none" stroke="#0c2020" stroke-width="11" stroke-linecap="round" stroke-linejoin="round" opacity="1.0"/><path d="M240.0,128.0 L240.0,134.4 L240.0,140.7 L240.0,147.1 L240.0,153.5 L240.0,159.8 L240.0,166.2 L240.0,172.5 L240.0,178.9 L240.0,185.3 L240.0,191.6 L240.0,198.0" fill="none" stroke="#2dd4bf" stroke-width="23" stroke-linecap="round" stroke-linejoin="round" opacity="0.95"/><path d="M240.0,128.0 L240.0,134.4 L240.0,140.7 L240.0,147.1 L240.0,153.5 L240.0,159.8 L240.0,166.2 L240.0,172.5 L240.0,178.9 L240.0,185.3 L240.0,191.6 L240.0,198.0" fill="none" stroke="#0c2020" stroke-width="15" stroke-linecap="round" stroke-linejoin="round" opacity="1.0"/><circle cx="240.0" cy="100.0" r="19.0" fill="#2dd4bf" stroke="none" stroke-width="0" opacity="0.95"/><circle cx="240.0" cy="100.0" r="15.0" fill="#0c2020" stroke="none" stroke-width="6.3" opacity="1.0"/><path d="M238.0,83.0 L235.0,86.0 L232.0,89.0 L229.1,91.9 L226.1,94.9 L223.1,97.9 L220.1,100.9 L219.5,104.5 L220.4,108.6 L221.3,112.8 L222.1,116.9 L223.0,121.0" fill="none" stroke="#2dd4bf" stroke-width="5" stroke-linecap="round" stroke-linejoin="round" opacity="1.0"/><path d="M230.7,97.0 L232.4,97.0 L234.1,97.0 L235.8,97.0 L237.5,97.0 L239.2,97.0 L240.8,97.0 L242.5,97.0 L244.2,97.0 L245.9,97.0 L247.6,97.0 L249.3,97.0" fill="none" stroke="#a7f3ee" stroke-width="5" stroke-linecap="round" stroke-linejoin="round" opacity="1.0"/></g><g class="f5"><path d="M229.0,128.0 L231.2,131.6 L233.5,135.1 L235.8,138.7 L238.0,142.2 L240.3,145.8 L242.5,149.3 L244.9,148.0 L247.4,145.5 L249.8,143.0 L252.2,140.5 L254.7,138.0" fill="none" stroke="#2dd4bf" stroke-width="19" stroke-linecap="round" stroke-linejoin="round" opacity="0.95"/><path d="M229.0,128.0 L231.2,131.6 L233.5,135.1 L235.8,138.7 L238.0,142.2 L240.3,145.8 L242.5,149.3 L244.9,148.0 L247.4,145.5 L249.8,143.0 L252.2,140.5 L254.7,138.0" fill="none" stroke="#0c2020" stroke-width="11" stroke-linecap="round" stroke-linejoin="round" opacity="1.0"/><path d="M223.8,198.0 L226.1,205.1 L228.4,212.3 L230.7,219.4 L232.9,226.5 L235.2,233.6 L237.5,240.8 L240.2,241.6 L243.3,237.2 L246.3,232.8 L249.4,228.4 L252.5,224.0" fill="none" stroke="#8f2a3e" stroke-width="19" stroke-linecap="round" stroke-linejoin="round" opacity="0.95"/><path d="M223.8,198.0 L226.1,205.1 L228.4,212.3 L230.7,219.4 L232.9,226.5 L235.2,233.6 L237.5,240.8 L240.2,241.6 L243.3,237.2 L246.3,232.8 L249.4,228.4 L252.5,224.0" fill="none" stroke="#0c2020" stroke-width="11" stroke-linecap="round" stroke-linejoin="round" opacity="1.0"/><path d="M223.8,198.0 L222.7,206.3 L221.5,214.5 L220.3,222.8 L219.1,231.0 L217.9,239.3 L217.1,247.8 L216.8,256.6 L216.6,265.5 L216.3,274.3 L216.0,283.2 L215.8,292.0" fill="none" stroke="#f43f5e" stroke-width="19" stroke-linecap="round" stroke-linejoin="round" opacity="0.95"/><path d="M223.8,198.0 L222.7,206.3 L221.5,214.5 L220.3,222.8 L219.1,231.0 L217.9,239.3 L217.1,247.8 L216.8,256.6 L216.6,265.5 L216.3,274.3 L216.0,283.2 L215.8,292.0" fill="none" stroke="#0c2020" stroke-width="11" stroke-linecap="round" stroke-linejoin="round" opacity="1.0"/><path d="M229.0,128.0 L228.5,134.4 L228.0,140.7 L227.6,147.1 L227.1,153.5 L226.6,159.8 L226.2,166.2 L225.7,172.5 L225.2,178.9 L224.8,185.3 L224.3,191.6 L223.8,198.0" fill="none" stroke="#2dd4bf" stroke-width="23" stroke-linecap="round" stroke-linejoin="round" opacity="0.95"/><path d="M229.0,128.0 L228.5,134.4 L228.0,140.7 L227.6,147.1 L227.1,153.5 L226.6,159.8 L226.2,166.2 L225.7,172.5 L225.2,178.9 L224.8,185.3 L224.3,191.6 L223.8,198.0" fill="none" stroke="#0c2020" stroke-width="15" stroke-linecap="round" stroke-linejoin="round" opacity="1.0"/><circle cx="227.5" cy="100.0" r="19.0" fill="#2dd4bf" stroke="none" stroke-width="0" opacity="0.95"/><circle cx="227.5" cy="100.0" r="15.0" fill="#0c2020" stroke="none" stroke-width="6.3" opacity="1.0"/><path d="M225.5,83.0 L222.5,86.0 L219.6,89.0 L216.6,91.9 L213.6,94.9 L210.6,97.9 L207.7,100.9 L207.0,104.5 L207.9,108.6 L208.8,112.8 L209.6,116.9 L210.5,121.0" fill="none" stroke="#2dd4bf" stroke-width="5" stroke-linecap="round" stroke-linejoin="round" opacity="1.0"/><path d="M218.2,97.0 L219.9,97.0 L221.6,97.0 L223.3,97.0 L225.0,97.0 L226.7,97.0 L228.4,97.0 L230.1,97.0 L231.7,97.0 L233.4,97.0 L235.1,97.0 L236.8,97.0" fill="none" stroke="#a7f3ee" stroke-width="5" stroke-linecap="round" stroke-linejoin="round" opacity="1.0"/></g><g class="f6"><path d="M219.4,128.0 L223.6,131.6 L227.8,135.1 L232.0,138.7 L236.3,142.2 L240.5,145.8 L244.7,149.3 L249.2,148.0 L253.8,145.5 L258.4,143.0 L262.9,140.5 L267.5,138.0" fill="none" stroke="#2dd4bf" stroke-width="19" stroke-linecap="round" stroke-linejoin="round" opacity="0.95"/><path d="M219.4,128.0 L223.6,131.6 L227.8,135.1 L232.0,138.7 L236.3,142.2 L240.5,145.8 L244.7,149.3 L249.2,148.0 L253.8,145.5 L258.4,143.0 L262.9,140.5 L267.5,138.0" fill="none" stroke="#0c2020" stroke-width="11" stroke-linecap="round" stroke-linejoin="round" opacity="1.0"/><path d="M209.8,198.0 L214.0,205.1 L218.3,212.3 L222.5,219.4 L226.8,226.5 L231.1,233.6 L235.3,240.8 L240.4,241.6 L246.1,237.2 L251.9,232.8 L257.6,228.4 L263.4,224.0" fill="none" stroke="#8f2a3e" stroke-width="19" stroke-linecap="round" stroke-linejoin="round" opacity="0.95"/><path d="M209.8,198.0 L214.0,205.1 L218.3,212.3 L222.5,219.4 L226.8,226.5 L231.1,233.6 L235.3,240.8 L240.4,241.6 L246.1,237.2 L251.9,232.8 L257.6,228.4 L263.4,224.0" fill="none" stroke="#0c2020" stroke-width="11" stroke-linecap="round" stroke-linejoin="round" opacity="1.0"/><path d="M209.8,198.0 L207.5,206.3 L205.3,214.5 L203.1,222.8 L200.9,231.0 L198.6,239.3 L197.2,247.8 L196.7,256.6 L196.1,265.5 L195.6,274.3 L195.1,283.2 L194.6,292.0" fill="none" stroke="#f43f5e" stroke-width="19" stroke-linecap="round" stroke-linejoin="round" opacity="0.95"/><path d="M209.8,198.0 L207.5,206.3 L205.3,214.5 L203.1,222.8 L200.9,231.0 L198.6,239.3 L197.2,247.8 L196.7,256.6 L196.1,265.5 L195.6,274.3 L195.1,283.2 L194.6,292.0" fill="none" stroke="#0c2020" stroke-width="11" stroke-linecap="round" stroke-linejoin="round" opacity="1.0"/><path d="M219.4,128.0 L218.5,134.4 L217.6,140.7 L216.8,147.1 L215.9,153.5 L215.0,159.8 L214.1,166.2 L213.2,172.5 L212.4,178.9 L211.5,185.3 L210.6,191.6 L209.8,198.0" fill="none" stroke="#2dd4bf" stroke-width="23" stroke-linecap="round" stroke-linejoin="round" opacity="0.95"/><path d="M219.4,128.0 L218.5,134.4 L217.6,140.7 L216.8,147.1 L215.9,153.5 L215.0,159.8 L214.1,166.2 L213.2,172.5 L212.4,178.9 L211.5,185.3 L210.6,191.6 L209.8,198.0" fill="none" stroke="#0c2020" stroke-width="15" stroke-linecap="round" stroke-linejoin="round" opacity="1.0"/><circle cx="216.6" cy="100.0" r="19.0" fill="#2dd4bf" stroke="none" stroke-width="0" opacity="0.95"/><circle cx="216.6" cy="100.0" r="15.0" fill="#0c2020" stroke="none" stroke-width="6.3" opacity="1.0"/><path d="M214.6,83.0 L211.6,86.0 L208.7,89.0 L205.7,91.9 L202.7,94.9 L199.7,97.9 L196.8,100.9 L196.2,104.5 L197.0,108.6 L197.9,112.8 L198.8,116.9 L199.6,121.0" fill="none" stroke="#2dd4bf" stroke-width="5" stroke-linecap="round" stroke-linejoin="round" opacity="1.0"/><path d="M207.3,97.0 L209.0,97.0 L210.7,97.0 L212.4,97.0 L214.1,97.0 L215.8,97.0 L217.5,97.0 L219.2,97.0 L220.9,97.0 L222.5,97.0 L224.2,97.0 L225.9,97.0" fill="none" stroke="#a7f3ee" stroke-width="5" stroke-linecap="round" stroke-linejoin="round" opacity="1.0"/></g><g class="f7"><path d="M212.6,128.0 L218.2,131.6 L223.8,135.1 L229.4,138.7 L235.0,142.2 L240.7,145.8 L246.3,149.3 L252.3,148.0 L258.3,145.5 L264.4,143.0 L270.5,140.5 L276.6,138.0" fill="none" stroke="#2dd4bf" stroke-width="19" stroke-linecap="round" stroke-linejoin="round" opacity="0.95"/><path d="M212.6,128.0 L218.2,131.6 L223.8,135.1 L229.4,138.7 L235.0,142.2 L240.7,145.8 L246.3,149.3 L252.3,148.0 L258.3,145.5 L264.4,143.0 L270.5,140.5 L276.6,138.0" fill="none" stroke="#0c2020" stroke-width="11" stroke-linecap="round" stroke-linejoin="round" opacity="1.0"/><path d="M199.8,198.0 L205.4,205.1 L211.1,212.3 L216.8,219.4 L222.4,226.5 L228.1,233.6 L233.8,240.8 L240.5,241.6 L248.2,237.2 L255.8,232.8 L263.4,228.4 L271.1,224.0" fill="none" stroke="#8f2a3e" stroke-width="19" stroke-linecap="round" stroke-linejoin="round" opacity="0.95"/><path d="M199.8,198.0 L205.4,205.1 L211.1,212.3 L216.8,219.4 L222.4,226.5 L228.1,233.6 L233.8,240.8 L240.5,241.6 L248.2,237.2 L255.8,232.8 L263.4,228.4 L271.1,224.0" fill="none" stroke="#0c2020" stroke-width="11" stroke-linecap="round" stroke-linejoin="round" opacity="1.0"/><path d="M199.8,198.0 L196.8,206.3 L193.9,214.5 L190.9,222.8 L188.0,231.0 L185.0,239.3 L183.0,247.8 L182.4,256.6 L181.7,265.5 L181.0,274.3 L180.3,283.2 L179.7,292.0" fill="none" stroke="#f43f5e" stroke-width="19" stroke-linecap="round" stroke-linejoin="round" opacity="0.95"/><path d="M199.8,198.0 L196.8,206.3 L193.9,214.5 L190.9,222.8 L188.0,231.0 L185.0,239.3 L183.0,247.8 L182.4,256.6 L181.7,265.5 L181.0,274.3 L180.3,283.2 L179.7,292.0" fill="none" stroke="#0c2020" stroke-width="11" stroke-linecap="round" stroke-linejoin="round" opacity="1.0"/><path d="M212.6,128.0 L211.4,134.4 L210.3,140.7 L209.1,147.1 L207.9,153.5 L206.8,159.8 L205.6,166.2 L204.4,172.5 L203.3,178.9 L202.1,185.3 L200.9,191.6 L199.8,198.0" fill="none" stroke="#2dd4bf" stroke-width="23" stroke-linecap="round" stroke-linejoin="round" opacity="0.95"/><path d="M212.6,128.0 L211.4,134.4 L210.3,140.7 L209.1,147.1 L207.9,153.5 L206.8,159.8 L205.6,166.2 L204.4,172.5 L203.3,178.9 L202.1,185.3 L200.9,191.6 L199.8,198.0" fill="none" stroke="#0c2020" stroke-width="15" stroke-linecap="round" stroke-linejoin="round" opacity="1.0"/><circle cx="208.9" cy="100.0" r="19.0" fill="#2dd4bf" stroke="none" stroke-width="0" opacity="0.95"/><circle cx="208.9" cy="100.0" r="15.0" fill="#0c2020" stroke="none" stroke-width="6.3" opacity="1.0"/><path d="M206.9,83.0 L203.9,86.0 L201.0,89.0 L198.0,91.9 L195.0,94.9 L192.0,97.9 L189.1,100.9 L188.5,104.5 L189.3,108.6 L190.2,112.8 L191.1,116.9 L191.9,121.0" fill="none" stroke="#2dd4bf" stroke-width="5" stroke-linecap="round" stroke-linejoin="round" opacity="1.0"/><path d="M199.6,97.0 L201.3,97.0 L203.0,97.0 L204.7,97.0 L206.4,97.0 L208.1,97.0 L209.8,97.0 L211.5,97.0 L213.1,97.0 L214.8,97.0 L216.5,97.0 L218.2,97.0" fill="none" stroke="#a7f3ee" stroke-width="5" stroke-linecap="round" stroke-linejoin="round" opacity="1.0"/></g><g class="f8"><path d="M210.0,128.0 L216.1,131.6 L222.3,135.1 L228.4,138.7 L234.6,142.2 L240.7,145.8 L246.9,149.3 L253.4,148.0 L260.1,145.5 L266.7,143.0 L273.4,140.5 L280.0,138.0" fill="none" stroke="#2dd4bf" stroke-width="19" stroke-linecap="round" stroke-linejoin="round" opacity="0.95"/><path d="M210.0,128.0 L216.1,131.6 L222.3,135.1 L228.4,138.7 L234.6,142.2 L240.7,145.8 L246.9,149.3 L253.4,148.0 L260.1,145.5 L266.7,143.0 L273.4,140.5 L280.0,138.0" fill="none" stroke="#0c2020" stroke-width="11" stroke-linecap="round" stroke-linejoin="round" opacity="1.0"/><path d="M196.0,198.0 L202.2,205.1 L208.4,212.3 L214.6,219.4 L220.8,226.5 L227.0,233.6 L233.2,240.8 L240.6,241.6 L248.9,237.2 L257.3,232.8 L265.6,228.4 L274.0,224.0" fill="none" stroke="#8f2a3e" stroke-width="19" stroke-linecap="round" stroke-linejoin="round" opacity="0.95"/><path d="M196.0,198.0 L202.2,205.1 L208.4,212.3 L214.6,219.4 L220.8,226.5 L227.0,233.6 L233.2,240.8 L240.6,241.6 L248.9,237.2 L257.3,232.8 L265.6,228.4 L274.0,224.0" fill="none" stroke="#0c2020" stroke-width="11" stroke-linecap="round" stroke-linejoin="round" opacity="1.0"/><path d="M196.0,198.0 L192.8,206.3 L189.5,214.5 L186.3,222.8 L183.1,231.0 L179.8,239.3 L177.7,247.8 L176.9,256.6 L176.2,265.5 L175.5,274.3 L174.7,283.2 L174.0,292.0" fill="none" stroke="#f43f5e" stroke-width="19" stroke-linecap="round" stroke-linejoin="round" opacity="0.95"/><path d="M196.0,198.0 L192.8,206.3 L189.5,214.5 L186.3,222.8 L183.1,231.0 L179.8,239.3 L177.7,247.8 L176.9,256.6 L176.2,265.5 L175.5,274.3 L174.7,283.2 L174.0,292.0" fill="none" stroke="#0c2020" stroke-width="11" stroke-linecap="round" stroke-linejoin="round" opacity="1.0"/><path d="M210.0,128.0 L208.7,134.4 L207.5,140.7 L206.2,147.1 L204.9,153.5 L203.6,159.8 L202.4,166.2 L201.1,172.5 L199.8,178.9 L198.5,185.3 L197.3,191.6 L196.0,198.0" fill="none" stroke="#2dd4bf" stroke-width="23" stroke-linecap="round" stroke-linejoin="round" opacity="0.95"/><path d="M210.0,128.0 L208.7,134.4 L207.5,140.7 L206.2,147.1 L204.9,153.5 L203.6,159.8 L202.4,166.2 L201.1,172.5 L199.8,178.9 L198.5,185.3 L197.3,191.6 L196.0,198.0" fill="none" stroke="#0c2020" stroke-width="15" stroke-linecap="round" stroke-linejoin="round" opacity="1.0"/><circle cx="206.0" cy="100.0" r="19.0" fill="#2dd4bf" stroke="none" stroke-width="0" opacity="0.95"/><circle cx="206.0" cy="100.0" r="15.0" fill="#0c2020" stroke="none" stroke-width="6.3" opacity="1.0"/><path d="M204.0,83.0 L201.0,86.0 L198.0,89.0 L195.1,91.9 L192.1,94.9 L189.1,97.9 L186.1,100.9 L185.5,104.5 L186.4,108.6 L187.3,112.8 L188.1,116.9 L189.0,121.0" fill="none" stroke="#2dd4bf" stroke-width="5" stroke-linecap="round" stroke-linejoin="round" opacity="1.0"/><path d="M196.7,97.0 L198.4,97.0 L200.1,97.0 L201.8,97.0 L203.5,97.0 L205.2,97.0 L206.8,97.0 L208.5,97.0 L210.2,97.0 L211.9,97.0 L213.6,97.0 L215.3,97.0" fill="none" stroke="#a7f3ee" stroke-width="5" stroke-linecap="round" stroke-linejoin="round" opacity="1.0"/></g><g class="f9"><path d="M212.6,128.0 L218.2,131.6 L223.8,135.1 L229.4,138.7 L235.0,142.2 L240.7,145.8 L246.3,149.3 L252.3,148.0 L258.3,145.5 L264.4,143.0 L270.5,140.5 L276.6,138.0" fill="none" stroke="#2dd4bf" stroke-width="19" stroke-linecap="round" stroke-linejoin="round" opacity="0.95"/><path d="M212.6,128.0 L218.2,131.6 L223.8,135.1 L229.4,138.7 L235.0,142.2 L240.7,145.8 L246.3,149.3 L252.3,148.0 L258.3,145.5 L264.4,143.0 L270.5,140.5 L276.6,138.0" fill="none" stroke="#0c2020" stroke-width="11" stroke-linecap="round" stroke-linejoin="round" opacity="1.0"/><path d="M199.8,198.0 L205.4,205.1 L211.1,212.3 L216.8,219.4 L222.4,226.5 L228.1,233.6 L233.8,240.8 L240.5,241.6 L248.2,237.2 L255.8,232.8 L263.4,228.4 L271.1,224.0" fill="none" stroke="#8f2a3e" stroke-width="19" stroke-linecap="round" stroke-linejoin="round" opacity="0.95"/><path d="M199.8,198.0 L205.4,205.1 L211.1,212.3 L216.8,219.4 L222.4,226.5 L228.1,233.6 L233.8,240.8 L240.5,241.6 L248.2,237.2 L255.8,232.8 L263.4,228.4 L271.1,224.0" fill="none" stroke="#0c2020" stroke-width="11" stroke-linecap="round" stroke-linejoin="round" opacity="1.0"/><path d="M199.8,198.0 L196.8,206.3 L193.9,214.5 L190.9,222.8 L188.0,231.0 L185.0,239.3 L183.0,247.8 L182.4,256.6 L181.7,265.5 L181.0,274.3 L180.3,283.2 L179.7,292.0" fill="none" stroke="#f43f5e" stroke-width="19" stroke-linecap="round" stroke-linejoin="round" opacity="0.95"/><path d="M199.8,198.0 L196.8,206.3 L193.9,214.5 L190.9,222.8 L188.0,231.0 L185.0,239.3 L183.0,247.8 L182.4,256.6 L181.7,265.5 L181.0,274.3 L180.3,283.2 L179.7,292.0" fill="none" stroke="#0c2020" stroke-width="11" stroke-linecap="round" stroke-linejoin="round" opacity="1.0"/><path d="M212.6,128.0 L211.4,134.4 L210.3,140.7 L209.1,147.1 L207.9,153.5 L206.8,159.8 L205.6,166.2 L204.4,172.5 L203.3,178.9 L202.1,185.3 L200.9,191.6 L199.8,198.0" fill="none" stroke="#2dd4bf" stroke-width="23" stroke-linecap="round" stroke-linejoin="round" opacity="0.95"/><path d="M212.6,128.0 L211.4,134.4 L210.3,140.7 L209.1,147.1 L207.9,153.5 L206.8,159.8 L205.6,166.2 L204.4,172.5 L203.3,178.9 L202.1,185.3 L200.9,191.6 L199.8,198.0" fill="none" stroke="#0c2020" stroke-width="15" stroke-linecap="round" stroke-linejoin="round" opacity="1.0"/><circle cx="208.9" cy="100.0" r="19.0" fill="#2dd4bf" stroke="none" stroke-width="0" opacity="0.95"/><circle cx="208.9" cy="100.0" r="15.0" fill="#0c2020" stroke="none" stroke-width="6.3" opacity="1.0"/><path d="M206.9,83.0 L203.9,86.0 L201.0,89.0 L198.0,91.9 L195.0,94.9 L192.0,97.9 L189.1,100.9 L188.5,104.5 L189.3,108.6 L190.2,112.8 L191.1,116.9 L191.9,121.0" fill="none" stroke="#2dd4bf" stroke-width="5" stroke-linecap="round" stroke-linejoin="round" opacity="1.0"/><path d="M199.6,97.0 L201.3,97.0 L203.0,97.0 L204.7,97.0 L206.4,97.0 L208.1,97.0 L209.8,97.0 L211.5,97.0 L213.1,97.0 L214.8,97.0 L216.5,97.0 L218.2,97.0" fill="none" stroke="#a7f3ee" stroke-width="5" stroke-linecap="round" stroke-linejoin="round" opacity="1.0"/></g><g class="f10"><path d="M219.4,128.0 L223.6,131.6 L227.8,135.1 L232.0,138.7 L236.3,142.2 L240.5,145.8 L244.7,149.3 L249.2,148.0 L253.8,145.5 L258.4,143.0 L262.9,140.5 L267.5,138.0" fill="none" stroke="#2dd4bf" stroke-width="19" stroke-linecap="round" stroke-linejoin="round" opacity="0.95"/><path d="M219.4,128.0 L223.6,131.6 L227.8,135.1 L232.0,138.7 L236.3,142.2 L240.5,145.8 L244.7,149.3 L249.2,148.0 L253.8,145.5 L258.4,143.0 L262.9,140.5 L267.5,138.0" fill="none" stroke="#0c2020" stroke-width="11" stroke-linecap="round" stroke-linejoin="round" opacity="1.0"/><path d="M209.8,198.0 L214.0,205.1 L218.3,212.3 L222.5,219.4 L226.8,226.5 L231.1,233.6 L235.3,240.8 L240.4,241.6 L246.1,237.2 L251.9,232.8 L257.6,228.4 L263.4,224.0" fill="none" stroke="#8f2a3e" stroke-width="19" stroke-linecap="round" stroke-linejoin="round" opacity="0.95"/><path d="M209.8,198.0 L214.0,205.1 L218.3,212.3 L222.5,219.4 L226.8,226.5 L231.1,233.6 L235.3,240.8 L240.4,241.6 L246.1,237.2 L251.9,232.8 L257.6,228.4 L263.4,224.0" fill="none" stroke="#0c2020" stroke-width="11" stroke-linecap="round" stroke-linejoin="round" opacity="1.0"/><path d="M209.8,198.0 L207.5,206.3 L205.3,214.5 L203.1,222.8 L200.9,231.0 L198.6,239.3 L197.2,247.8 L196.7,256.6 L196.1,265.5 L195.6,274.3 L195.1,283.2 L194.6,292.0" fill="none" stroke="#f43f5e" stroke-width="19" stroke-linecap="round" stroke-linejoin="round" opacity="0.95"/><path d="M209.8,198.0 L207.5,206.3 L205.3,214.5 L203.1,222.8 L200.9,231.0 L198.6,239.3 L197.2,247.8 L196.7,256.6 L196.1,265.5 L195.6,274.3 L195.1,283.2 L194.6,292.0" fill="none" stroke="#0c2020" stroke-width="11" stroke-linecap="round" stroke-linejoin="round" opacity="1.0"/><path d="M219.4,128.0 L218.5,134.4 L217.6,140.7 L216.8,147.1 L215.9,153.5 L215.0,159.8 L214.1,166.2 L213.2,172.5 L212.4,178.9 L211.5,185.3 L210.6,191.6 L209.8,198.0" fill="none" stroke="#2dd4bf" stroke-width="23" stroke-linecap="round" stroke-linejoin="round" opacity="0.95"/><path d="M219.4,128.0 L218.5,134.4 L217.6,140.7 L216.8,147.1 L215.9,153.5 L215.0,159.8 L214.1,166.2 L213.2,172.5 L212.4,178.9 L211.5,185.3 L210.6,191.6 L209.8,198.0" fill="none" stroke="#0c2020" stroke-width="15" stroke-linecap="round" stroke-linejoin="round" opacity="1.0"/><circle cx="216.6" cy="100.0" r="19.0" fill="#2dd4bf" stroke="none" stroke-width="0" opacity="0.95"/><circle cx="216.6" cy="100.0" r="15.0" fill="#0c2020" stroke="none" stroke-width="6.3" opacity="1.0"/><path d="M214.6,83.0 L211.6,86.0 L208.7,89.0 L205.7,91.9 L202.7,94.9 L199.7,97.9 L196.8,100.9 L196.2,104.5 L197.0,108.6 L197.9,112.8 L198.8,116.9 L199.6,121.0" fill="none" stroke="#2dd4bf" stroke-width="5" stroke-linecap="round" stroke-linejoin="round" opacity="1.0"/><path d="M207.3,97.0 L209.0,97.0 L210.7,97.0 L212.4,97.0 L214.1,97.0 L215.8,97.0 L217.5,97.0 L219.2,97.0 L220.9,97.0 L222.5,97.0 L224.2,97.0 L225.9,97.0" fill="none" stroke="#a7f3ee" stroke-width="5" stroke-linecap="round" stroke-linejoin="round" opacity="1.0"/></g><g class="f11"><path d="M229.0,128.0 L231.2,131.6 L233.5,135.1 L235.8,138.7 L238.0,142.2 L240.3,145.8 L242.5,149.3 L244.9,148.0 L247.4,145.5 L249.8,143.0 L252.2,140.5 L254.7,138.0" fill="none" stroke="#2dd4bf" stroke-width="19" stroke-linecap="round" stroke-linejoin="round" opacity="0.95"/><path d="M229.0,128.0 L231.2,131.6 L233.5,135.1 L235.8,138.7 L238.0,142.2 L240.3,145.8 L242.5,149.3 L244.9,148.0 L247.4,145.5 L249.8,143.0 L252.2,140.5 L254.7,138.0" fill="none" stroke="#0c2020" stroke-width="11" stroke-linecap="round" stroke-linejoin="round" opacity="1.0"/><path d="M223.8,198.0 L226.1,205.1 L228.4,212.3 L230.7,219.4 L232.9,226.5 L235.2,233.6 L237.5,240.8 L240.2,241.6 L243.3,237.2 L246.3,232.8 L249.4,228.4 L252.5,224.0" fill="none" stroke="#8f2a3e" stroke-width="19" stroke-linecap="round" stroke-linejoin="round" opacity="0.95"/><path d="M223.8,198.0 L226.1,205.1 L228.4,212.3 L230.7,219.4 L232.9,226.5 L235.2,233.6 L237.5,240.8 L240.2,241.6 L243.3,237.2 L246.3,232.8 L249.4,228.4 L252.5,224.0" fill="none" stroke="#0c2020" stroke-width="11" stroke-linecap="round" stroke-linejoin="round" opacity="1.0"/><path d="M223.8,198.0 L222.7,206.3 L221.5,214.5 L220.3,222.8 L219.1,231.0 L217.9,239.3 L217.1,247.8 L216.8,256.6 L216.6,265.5 L216.3,274.3 L216.0,283.2 L215.8,292.0" fill="none" stroke="#f43f5e" stroke-width="19" stroke-linecap="round" stroke-linejoin="round" opacity="0.95"/><path d="M223.8,198.0 L222.7,206.3 L221.5,214.5 L220.3,222.8 L219.1,231.0 L217.9,239.3 L217.1,247.8 L216.8,256.6 L216.6,265.5 L216.3,274.3 L216.0,283.2 L215.8,292.0" fill="none" stroke="#0c2020" stroke-width="11" stroke-linecap="round" stroke-linejoin="round" opacity="1.0"/><path d="M229.0,128.0 L228.5,134.4 L228.0,140.7 L227.6,147.1 L227.1,153.5 L226.6,159.8 L226.2,166.2 L225.7,172.5 L225.2,178.9 L224.8,185.3 L224.3,191.6 L223.8,198.0" fill="none" stroke="#2dd4bf" stroke-width="23" stroke-linecap="round" stroke-linejoin="round" opacity="0.95"/><path d="M229.0,128.0 L228.5,134.4 L228.0,140.7 L227.6,147.1 L227.1,153.5 L226.6,159.8 L226.2,166.2 L225.7,172.5 L225.2,178.9 L224.8,185.3 L224.3,191.6 L223.8,198.0" fill="none" stroke="#0c2020" stroke-width="15" stroke-linecap="round" stroke-linejoin="round" opacity="1.0"/><circle cx="227.5" cy="100.0" r="19.0" fill="#2dd4bf" stroke="none" stroke-width="0" opacity="0.95"/><circle cx="227.5" cy="100.0" r="15.0" fill="#0c2020" stroke="none" stroke-width="6.3" opacity="1.0"/><path d="M225.5,83.0 L222.5,86.0 L219.6,89.0 L216.6,91.9 L213.6,94.9 L210.6,97.9 L207.7,100.9 L207.0,104.5 L207.9,108.6 L208.8,112.8 L209.6,116.9 L210.5,121.0" fill="none" stroke="#2dd4bf" stroke-width="5" stroke-linecap="round" stroke-linejoin="round" opacity="1.0"/><path d="M218.2,97.0 L219.9,97.0 L221.6,97.0 L223.3,97.0 L225.0,97.0 L226.7,97.0 L228.4,97.0 L230.1,97.0 L231.7,97.0 L233.4,97.0 L235.1,97.0 L236.8,97.0" fill="none" stroke="#a7f3ee" stroke-width="5" stroke-linecap="round" stroke-linejoin="round" opacity="1.0"/></g><g class="f12"><path d="M240.0,128.0 L240.0,131.6 L240.0,135.1 L240.0,138.7 L240.0,142.2 L240.0,145.8 L240.0,149.3 L240.0,148.0 L240.0,145.5 L240.0,143.0 L240.0,140.5 L240.0,138.0" fill="none" stroke="#2dd4bf" stroke-width="19" stroke-linecap="round" stroke-linejoin="round" opacity="0.95"/><path d="M240.0,128.0 L240.0,131.6 L240.0,135.1 L240.0,138.7 L240.0,142.2 L240.0,145.8 L240.0,149.3 L240.0,148.0 L240.0,145.5 L240.0,143.0 L240.0,140.5 L240.0,138.0" fill="none" stroke="#0c2020" stroke-width="11" stroke-linecap="round" stroke-linejoin="round" opacity="1.0"/><path d="M240.0,198.0 L240.0,205.1 L240.0,212.3 L240.0,219.4 L240.0,226.5 L240.0,233.6 L240.0,240.8 L240.0,241.6 L240.0,237.2 L240.0,232.8 L240.0,228.4 L240.0,224.0" fill="none" stroke="#8f2a3e" stroke-width="19" stroke-linecap="round" stroke-linejoin="round" opacity="0.95"/><path d="M240.0,198.0 L240.0,205.1 L240.0,212.3 L240.0,219.4 L240.0,226.5 L240.0,233.6 L240.0,240.8 L240.0,241.6 L240.0,237.2 L240.0,232.8 L240.0,228.4 L240.0,224.0" fill="none" stroke="#0c2020" stroke-width="11" stroke-linecap="round" stroke-linejoin="round" opacity="1.0"/><path d="M240.0,198.0 L240.0,206.3 L240.0,214.5 L240.0,222.8 L240.0,231.0 L240.0,239.3 L240.0,247.8 L240.0,256.6 L240.0,265.5 L240.0,274.3 L240.0,283.2 L240.0,292.0" fill="none" stroke="#f43f5e" stroke-width="19" stroke-linecap="round" stroke-linejoin="round" opacity="0.95"/><path d="M240.0,198.0 L240.0,206.3 L240.0,214.5 L240.0,222.8 L240.0,231.0 L240.0,239.3 L240.0,247.8 L240.0,256.6 L240.0,265.5 L240.0,274.3 L240.0,283.2 L240.0,292.0" fill="none" stroke="#0c2020" stroke-width="11" stroke-linecap="round" stroke-linejoin="round" opacity="1.0"/><path d="M240.0,128.0 L240.0,134.4 L240.0,140.7 L240.0,147.1 L240.0,153.5 L240.0,159.8 L240.0,166.2 L240.0,172.5 L240.0,178.9 L240.0,185.3 L240.0,191.6 L240.0,198.0" fill="none" stroke="#2dd4bf" stroke-width="23" stroke-linecap="round" stroke-linejoin="round" opacity="0.95"/><path d="M240.0,128.0 L240.0,134.4 L240.0,140.7 L240.0,147.1 L240.0,153.5 L240.0,159.8 L240.0,166.2 L240.0,172.5 L240.0,178.9 L240.0,185.3 L240.0,191.6 L240.0,198.0" fill="none" stroke="#0c2020" stroke-width="15" stroke-linecap="round" stroke-linejoin="round" opacity="1.0"/><circle cx="240.0" cy="100.0" r="19.0" fill="#2dd4bf" stroke="none" stroke-width="0" opacity="0.95"/><circle cx="240.0" cy="100.0" r="15.0" fill="#0c2020" stroke="none" stroke-width="6.3" opacity="1.0"/><path d="M238.0,83.0 L235.0,86.0 L232.0,89.0 L229.1,91.9 L226.1,94.9 L223.1,97.9 L220.1,100.9 L219.5,104.5 L220.4,108.6 L221.3,112.8 L222.1,116.9 L223.0,121.0" fill="none" stroke="#2dd4bf" stroke-width="5" stroke-linecap="round" stroke-linejoin="round" opacity="1.0"/><path d="M230.7,97.0 L232.4,97.0 L234.1,97.0 L235.8,97.0 L237.5,97.0 L239.2,97.0 L240.8,97.0 L242.5,97.0 L244.2,97.0 L245.9,97.0 L247.6,97.0 L249.3,97.0" fill="none" stroke="#a7f3ee" stroke-width="5" stroke-linecap="round" stroke-linejoin="round" opacity="1.0"/></g><g class="f13"><path d="M251.0,128.0 L248.8,131.6 L246.5,135.1 L244.2,138.7 L242.0,142.2 L239.7,145.8 L237.5,149.3 L235.1,148.0 L232.6,145.5 L230.2,143.0 L227.8,140.5 L225.3,138.0" fill="none" stroke="#2dd4bf" stroke-width="19" stroke-linecap="round" stroke-linejoin="round" opacity="0.95"/><path d="M251.0,128.0 L248.8,131.6 L246.5,135.1 L244.2,138.7 L242.0,142.2 L239.7,145.8 L237.5,149.3 L235.1,148.0 L232.6,145.5 L230.2,143.0 L227.8,140.5 L225.3,138.0" fill="none" stroke="#0c2020" stroke-width="11" stroke-linecap="round" stroke-linejoin="round" opacity="1.0"/><path d="M256.2,198.0 L253.9,205.1 L251.6,212.3 L249.3,219.4 L247.1,226.5 L244.8,233.6 L242.5,240.8 L239.8,241.6 L236.7,237.2 L233.7,232.8 L230.6,228.4 L227.5,224.0" fill="none" stroke="#8f2a3e" stroke-width="19" stroke-linecap="round" stroke-linejoin="round" opacity="0.95"/><path d="M256.2,198.0 L253.9,205.1 L251.6,212.3 L249.3,219.4 L247.1,226.5 L244.8,233.6 L242.5,240.8 L239.8,241.6 L236.7,237.2 L233.7,232.8 L230.6,228.4 L227.5,224.0" fill="none" stroke="#0c2020" stroke-width="11" stroke-linecap="round" stroke-linejoin="round" opacity="1.0"/><path d="M256.2,198.0 L257.3,206.3 L258.5,214.5 L259.7,222.8 L260.9,231.0 L262.1,239.3 L262.9,247.8 L263.2,256.6 L263.4,265.5 L263.7,274.3 L264.0,283.2 L264.2,292.0" fill="none" stroke="#f43f5e" stroke-width="19" stroke-linecap="round" stroke-linejoin="round" opacity="0.95"/><path d="M256.2,198.0 L257.3,206.3 L258.5,214.5 L259.7,222.8 L260.9,231.0 L262.1,239.3 L262.9,247.8 L263.2,256.6 L263.4,265.5 L263.7,274.3 L264.0,283.2 L264.2,292.0" fill="none" stroke="#0c2020" stroke-width="11" stroke-linecap="round" stroke-linejoin="round" opacity="1.0"/><path d="M251.0,128.0 L251.5,134.4 L252.0,140.7 L252.4,147.1 L252.9,153.5 L253.4,159.8 L253.8,166.2 L254.3,172.5 L254.8,178.9 L255.2,185.3 L255.7,191.6 L256.2,198.0" fill="none" stroke="#2dd4bf" stroke-width="23" stroke-linecap="round" stroke-linejoin="round" opacity="0.95"/><path d="M251.0,128.0 L251.5,134.4 L252.0,140.7 L252.4,147.1 L252.9,153.5 L253.4,159.8 L253.8,166.2 L254.3,172.5 L254.8,178.9 L255.2,185.3 L255.7,191.6 L256.2,198.0" fill="none" stroke="#0c2020" stroke-width="15" stroke-linecap="round" stroke-linejoin="round" opacity="1.0"/><circle cx="252.5" cy="100.0" r="19.0" fill="#2dd4bf" stroke="none" stroke-width="0" opacity="0.95"/><circle cx="252.5" cy="100.0" r="15.0" fill="#0c2020" stroke="none" stroke-width="6.3" opacity="1.0"/><path d="M250.5,83.0 L247.5,86.0 L244.5,89.0 L241.6,91.9 L238.6,94.9 L235.6,97.9 L232.6,100.9 L232.0,104.5 L232.9,108.6 L233.8,112.8 L234.6,116.9 L235.5,121.0" fill="none" stroke="#2dd4bf" stroke-width="5" stroke-linecap="round" stroke-linejoin="round" opacity="1.0"/><path d="M243.2,97.0 L244.9,97.0 L246.6,97.0 L248.3,97.0 L249.9,97.0 L251.6,97.0 L253.3,97.0 L255.0,97.0 L256.7,97.0 L258.4,97.0 L260.1,97.0 L261.8,97.0" fill="none" stroke="#a7f3ee" stroke-width="5" stroke-linecap="round" stroke-linejoin="round" opacity="1.0"/></g><g class="f14"><path d="M260.6,128.0 L256.4,131.6 L252.2,135.1 L248.0,138.7 L243.7,142.2 L239.5,145.8 L235.3,149.3 L230.8,148.0 L226.2,145.5 L221.6,143.0 L217.1,140.5 L212.5,138.0" fill="none" stroke="#2dd4bf" stroke-width="19" stroke-linecap="round" stroke-linejoin="round" opacity="0.95"/><path d="M260.6,128.0 L256.4,131.6 L252.2,135.1 L248.0,138.7 L243.7,142.2 L239.5,145.8 L235.3,149.3 L230.8,148.0 L226.2,145.5 L221.6,143.0 L217.1,140.5 L212.5,138.0" fill="none" stroke="#0c2020" stroke-width="11" stroke-linecap="round" stroke-linejoin="round" opacity="1.0"/><path d="M270.2,198.0 L266.0,205.1 L261.7,212.3 L257.5,219.4 L253.2,226.5 L248.9,233.6 L244.7,240.8 L239.6,241.6 L233.9,237.2 L228.1,232.8 L222.4,228.4 L216.6,224.0" fill="none" stroke="#8f2a3e" stroke-width="19" stroke-linecap="round" stroke-linejoin="round" opacity="0.95"/><path d="M270.2,198.0 L266.0,205.1 L261.7,212.3 L257.5,219.4 L253.2,226.5 L248.9,233.6 L244.7,240.8 L239.6,241.6 L233.9,237.2 L228.1,232.8 L222.4,228.4 L216.6,224.0" fill="none" stroke="#0c2020" stroke-width="11" stroke-linecap="round" stroke-linejoin="round" opacity="1.0"/><path d="M270.2,198.0 L272.5,206.3 L274.7,214.5 L276.9,222.8 L279.1,231.0 L281.4,239.3 L282.8,247.8 L283.3,256.6 L283.9,265.5 L284.4,274.3 L284.9,283.2 L285.4,292.0" fill="none" stroke="#f43f5e" stroke-width="19" stroke-linecap="round" stroke-linejoin="round" opacity="0.95"/><path d="M270.2,198.0 L272.5,206.3 L274.7,214.5 L276.9,222.8 L279.1,231.0 L281.4,239.3 L282.8,247.8 L283.3,256.6 L283.9,265.5 L284.4,274.3 L284.9,283.2 L285.4,292.0" fill="none" stroke="#0c2020" stroke-width="11" stroke-linecap="round" stroke-linejoin="round" opacity="1.0"/><path d="M260.6,128.0 L261.5,134.4 L262.4,140.7 L263.2,147.1 L264.1,153.5 L265.0,159.8 L265.9,166.2 L266.8,172.5 L267.6,178.9 L268.5,185.3 L269.4,191.6 L270.2,198.0" fill="none" stroke="#2dd4bf" stroke-width="23" stroke-linecap="round" stroke-linejoin="round" opacity="0.95"/><path d="M260.6,128.0 L261.5,134.4 L262.4,140.7 L263.2,147.1 L264.1,153.5 L265.0,159.8 L265.9,166.2 L266.8,172.5 L267.6,178.9 L268.5,185.3 L269.4,191.6 L270.2,198.0" fill="none" stroke="#0c2020" stroke-width="15" stroke-linecap="round" stroke-linejoin="round" opacity="1.0"/><circle cx="263.4" cy="100.0" r="19.0" fill="#2dd4bf" stroke="none" stroke-width="0" opacity="0.95"/><circle cx="263.4" cy="100.0" r="15.0" fill="#0c2020" stroke="none" stroke-width="6.3" opacity="1.0"/><path d="M261.4,83.0 L258.4,86.0 L255.4,89.0 L252.4,91.9 L249.5,94.9 L246.5,97.9 L243.5,100.9 L242.9,104.5 L243.8,108.6 L244.6,112.8 L245.5,116.9 L246.4,121.0" fill="none" stroke="#2dd4bf" stroke-width="5" stroke-linecap="round" stroke-linejoin="round" opacity="1.0"/><path d="M254.1,97.0 L255.8,97.0 L257.5,97.0 L259.1,97.0 L260.8,97.0 L262.5,97.0 L264.2,97.0 L265.9,97.0 L267.6,97.0 L269.3,97.0 L271.0,97.0 L272.7,97.0" fill="none" stroke="#a7f3ee" stroke-width="5" stroke-linecap="round" stroke-linejoin="round" opacity="1.0"/></g><g class="f15"><path d="M267.4,128.0 L261.8,131.6 L256.2,135.1 L250.6,138.7 L245.0,142.2 L239.3,145.8 L233.7,149.3 L227.7,148.0 L221.7,145.5 L215.6,143.0 L209.5,140.5 L203.4,138.0" fill="none" stroke="#2dd4bf" stroke-width="19" stroke-linecap="round" stroke-linejoin="round" opacity="0.95"/><path d="M267.4,128.0 L261.8,131.6 L256.2,135.1 L250.6,138.7 L245.0,142.2 L239.3,145.8 L233.7,149.3 L227.7,148.0 L221.7,145.5 L215.6,143.0 L209.5,140.5 L203.4,138.0" fill="none" stroke="#0c2020" stroke-width="11" stroke-linecap="round" stroke-linejoin="round" opacity="1.0"/><path d="M280.2,198.0 L274.6,205.1 L268.9,212.3 L263.2,219.4 L257.6,226.5 L251.9,233.6 L246.2,240.8 L239.5,241.6 L231.8,237.2 L224.2,232.8 L216.6,228.4 L208.9,224.0" fill="none" stroke="#8f2a3e" stroke-width="19" stroke-linecap="round" stroke-linejoin="round" opacity="0.95"/><path d="M280.2,198.0 L274.6,205.1 L268.9,212.3 L263.2,219.4 L257.6,226.5 L251.9,233.6 L246.2,240.8 L239.5,241.6 L231.8,237.2 L224.2,232.8 L216.6,228.4 L208.9,224.0" fill="none" stroke="#0c2020" stroke-width="11" stroke-linecap="round" stroke-linejoin="round" opacity="1.0"/><path d="M280.2,198.0 L283.2,206.3 L286.1,214.5 L289.1,222.8 L292.0,231.0 L295.0,239.3 L297.0,247.8 L297.6,256.6 L298.3,265.5 L299.0,274.3 L299.7,283.2 L300.3,292.0" fill="none" stroke="#f43f5e" stroke-width="19" stroke-linecap="round" stroke-linejoin="round" opacity="0.95"/><path d="M280.2,198.0 L283.2,206.3 L286.1,214.5 L289.1,222.8 L292.0,231.0 L295.0,239.3 L297.0,247.8 L297.6,256.6 L298.3,265.5 L299.0,274.3 L299.7,283.2 L300.3,292.0" fill="none" stroke="#0c2020" stroke-width="11" stroke-linecap="round" stroke-linejoin="round" opacity="1.0"/><path d="M267.4,128.0 L268.6,134.4 L269.7,140.7 L270.9,147.1 L272.1,153.5 L273.2,159.8 L274.4,166.2 L275.6,172.5 L276.7,178.9 L277.9,185.3 L279.1,191.6 L280.2,198.0" fill="none" stroke="#2dd4bf" stroke-width="23" stroke-linecap="round" stroke-linejoin="round" opacity="0.95"/><path d="M267.4,128.0 L268.6,134.4 L269.7,140.7 L270.9,147.1 L272.1,153.5 L273.2,159.8 L274.4,166.2 L275.6,172.5 L276.7,178.9 L277.9,185.3 L279.1,191.6 L280.2,198.0" fill="none" stroke="#0c2020" stroke-width="15" stroke-linecap="round" stroke-linejoin="round" opacity="1.0"/><circle cx="271.1" cy="100.0" r="19.0" fill="#2dd4bf" stroke="none" stroke-width="0" opacity="0.95"/><circle cx="271.1" cy="100.0" r="15.0" fill="#0c2020" stroke="none" stroke-width="6.3" opacity="1.0"/><path d="M269.1,83.0 L266.1,86.0 L263.1,89.0 L260.2,91.9 L257.2,94.9 L254.2,97.9 L251.2,100.9 L250.6,104.5 L251.5,108.6 L252.3,112.8 L253.2,116.9 L254.1,121.0" fill="none" stroke="#2dd4bf" stroke-width="5" stroke-linecap="round" stroke-linejoin="round" opacity="1.0"/><path d="M261.8,97.0 L263.5,97.0 L265.2,97.0 L266.9,97.0 L268.5,97.0 L270.2,97.0 L271.9,97.0 L273.6,97.0 L275.3,97.0 L277.0,97.0 L278.7,97.0 L280.4,97.0" fill="none" stroke="#a7f3ee" stroke-width="5" stroke-linecap="round" stroke-linejoin="round" opacity="1.0"/></g></svg>
