<svg xmlns="http://www.w3.org/2000/svg" viewBox="0 0 480 320"><style>@keyframes k0{0%{opacity:1}11.111%{opacity:0}100%{opacity:0}}.f0{opacity:0;animation:k0 2.4s steps(1,end) infinite}@keyframes k1{0%{opacity:0}11.111%{opacity:1}16.667%{opacity:0}100%{opacity:0}}.f1{opacity:0;animation:k1 2.4s steps(1,end) infinite}@keyframes k2{0%{opacity:0}16.667%{opacity:1}22.222%{opacity:0}100%{opacity:0}}.f2{opacity:0;animation:k2 2.4s steps(1,end) infinite}@keyframes k3{0%{opacity:0}22.222%{opacity:1}27.778%{opacity:0}100%{opacity:0}}.f3{opacity:0;animation:k3 2.4s steps(1,end) infinite}@keyframes k4{0%{opacity:0}27.778%{opacity:1}33.333%{opacity:0}100%{opacity:0}}.f4{opacity:0;animation:k4 2.4s steps(1,end) infinite}@keyframes k5{0%{opacity:0}33.333%{opacity:1}38.889%{opacity:0}100%{opacity:0}}.f5{opacity:0;animation:k5 2.4s steps(1,end) infinite}@keyframes k6{0%{opacity:0}38.889%{opacity:1}44.444%{opacity:0}100%{opacity:0}}.f6{opacity:0;animation:k6 2.4s steps(1,end) infinite}@keyframes k7{0%{opacity:0}44.444%{opacity:1}50.000%{opacity:0}100%{opacity:0}}.f7{opacity:0;animation:k7 2.4s steps(1,end) infinite}@keyframes k8{0%{opacity:0}50.000%{opacity:1}61.111%{opacity:0}100%{opacity:0}}.f8{opacity:0;animation:k8 2.4s steps(1,end) infinite}@keyframes k9{0%{opacity:0}61.111%{opacity:1}66.667%{opacity:0}100%{opacity:0}}.f9{opacity:0;animation:k9 2.4s steps(1,end) infinite}@keyframes k10{0%{opacity:0}66.667%{opacity:1}72.222%{opacity:0}100%{opacity:0}}.f10{opacity:0;animation:k10 2.4s steps(1,end) infinite}@keyframes k11{0%{opacity:0}72.222%{opacity:1}77.778%{opacity:0}100%{opacity:0}}.f11{opacity:0;animation:k11 2.4s steps(1,end) infinite}@keyframes k12{0%{opacity:0}77.778%{opacity:1}83.333%{opacity:0}100%{opacity:0}}.f12{opacity:0;animation:k12 2.4s steps(1,end) infinite}@keyframes k13{0%{opacity:0}83.333%{opacity:1}88.889%{opacity:0}100%{opacity:0}}.f13{opacity:0;animation:k13 2.4s steps(1,end) infinite}@keyframes k14{0%{opacity:0}88.889%{opacity:1}94.444%{opacity:0}100%{opacity:0}}.f14{opacity:0;animation:k14 2.4s steps(1,end) infinite}@keyframes k15{0%{opacity:0}94.444%{opacity:1}100%{opacity:1}}.f15{opacity:0;animation:k15 2.4s steps(1,end) infinite}</style><path d="M40.0,292.0 L440.0,292.0" fill="none" stroke="#1f3333" stroke-width="6" stroke-linecap="round" stroke-linejoin="round" opacity="1.0"/><path d="M266.0,122.0 L240.0,196.0" fill="none" stroke="#2dd4bf" stroke-width="25" stroke-linecap="round" stroke-linejoin="round" opacity="0.95"/><path d="M266.0,122.0 L240.0,196.0" fill="none" stroke="#0c2020" stroke-width="17" stroke-linecap="round" stroke-linejoin="round" opacity="1.0"/><circle cx="278.0" cy="96.0" r="19.0" fill="#2dd4bf" stroke="none" stroke-width="0" opacity="0.95"/><circle cx="278.0" cy="96.0" r="15.0" fill="#0c2020" stroke="none" stroke-width="6.3" opacity="1.0"/><path d="M268.7,93.0 L287.3,93.0" fill="none" stroke="#a7f3ee" stroke-width="5" stroke-linecap="round" stroke-linejoin="round" opacity="1.0"/><g class="f0"><path d="M266.0,122.0 L261.1,126.6 L256.1,131.2 L251.2,135.8 L246.3,140.4 L241.4,145.0 L236.4,149.6 L233.4,155.6 L230.6,161.7 L227.7,167.8 L224.9,173.9 L222.0,180.0" fill="none" stroke="#0d9488" stroke-width="21" stroke-linecap="round" stroke-linejoin="round" opacity="0.95"/><path d="M266.0,122.0 L261.1,126.6 L256.1,131.2 L251.2,135.8 L246.3,140.4 L241.4,145.0 L236.4,149.6 L233.4,155.6 L230.6,161.7 L227.7,167.8 L224.9,173.9 L222.0,180.0" fill="none" stroke="#0c2020" stroke-width="13" stroke-linecap="round" stroke-linejoin="round" opacity="1.0"/><path d="M266.0,122.0 L271.1,126.4 L276.1,130.8 L281.2,135.2 L286.3,139.6 L291.3,144.0 L296.3,147.6 L300.7,142.5 L305.0,137.4 L309.3,132.2 L313.7,127.1 L318.0,122.0" fill="none" stroke="#2dd4bf" stroke-width="21" stroke-linecap="round" stroke-linejoin="round" opacity="0.95"/><path d="M266.0,122.0 L271.1,126.4 L276.1,130.8 L281.2,135.2 L286.3,139.6 L291.3,144.0 L296.3,147.6 L300.7,142.5 L305.0,137.4 L309.3,132.2 L313.7,127.1 L318.0,122.0" fill="none" stroke="#0c2020" stroke-width="13" stroke-linecap="round" stroke-linejoin="round" opacity="1.0"/><path d="M240.0,196.0 L247.4,202.0 L254.8,208.1 L262.2,214.1 L269.6,220.2 L276.9,226.2 L284.0,232.4 L283.2,241.9 L282.4,251.5 L281.6,261.0 L280.8,270.5 L280.0,280.0" fill="none" stroke="#8f2a3e" stroke-width="21" stroke-linecap="round" stroke-linejoin="round" opacity="0.95"/><path d="M240.0,196.0 L247.4,202.0 L254.8,208.1 L262.2,214.1 L269.6,220.2 L276.9,226.2 L284.0,232.4 L283.2,241.9 L282.4,251.5 L281.6,261.0 L280.8,270.5 L280.0,280.0" fill="none" stroke="#0c2020" stroke-width="13" stroke-linecap="round" stroke-linejoin="round" opacity="1.0"/><path d="M240.0,196.0 L232.4,203.6 L224.8,211.2 L217.2,218.8 L209.6,226.4 L202.0,234.0 L196.6,243.2 L192.1,253.0 L187.6,262.7 L183.1,272.5 L178.5,282.2 L174.0,292.0" fill="none" stroke="#f43f5e" stroke-width="21" stroke-linecap="round" stroke-linejoin="round" opacity="0.95"/><path d="M240.0,196.0 L232.4,203.6 L224.8,211.2 L217.2,218.8 L209.6,226.4 L202.0,234.0 L196.6,243.2 L192.1,253.0 L187.6,262.7 L183.1,272.5 L178.5,282.2 L174.0,292.0" fill="none" stroke="#0c2020" stroke-width="13" stroke-linecap="round" stroke-linejoin="round" opacity="1.0"/></g><g class="f1"><path d="M266.0,122.0 L261.5,126.6 L257.0,131.2 L252.5,135.8 L248.0,140.4 L243.5,145.0 L239.0,149.5 L236.3,155.0 L233.8,160.6 L231.2,166.3 L228.7,171.9 L226.1,177.5" fill="none" stroke="#0d9488" stroke-width="21" stroke-linecap="round" stroke-linejoin="round" opacity="0.95"/><path d="M266.0,122.0 L261.5,126.6 L257.0,131.2 L252.5,135.8 L248.0,140.4 L243.5,145.0 L239.0,149.5 L236.3,155.0 L233.8,160.6 L231.2,166.3 L228.7,171.9 L226.1,177.5" fill="none" stroke="#0c2020" stroke-width="13" stroke-linecap="round" stroke-linejoin="round" opacity="1.0"/><path d="M266.0,122.0 L270.6,126.4 L275.3,130.8 L279.9,135.2 L284.6,139.6 L289.2,144.0 L293.8,147.7 L297.8,143.0 L301.8,138.4 L305.8,133.8 L309.9,129.1 L313.9,124.5" fill="none" stroke="#2dd4bf" stroke-width="21" stroke-linecap="round" stroke-linejoin="round" opacity="0.95"/><path d="M266.0,122.0 L270.6,126.4 L275.3,130.8 L279.9,135.2 L284.6,139.6 L289.2,144.0 L293.8,147.7 L297.8,143.0 L301.8,138.4 L305.8,133.8 L309.9,129.1 L313.9,124.5" fill="none" stroke="#0c2020" stroke-width="13" stroke-linecap="round" stroke-linejoin="round" opacity="1.0"/><path d="M240.0,196.0 L246.7,202.1 L253.5,208.2 L260.2,214.3 L267.0,220.5 L273.7,226.6 L280.2,232.9 L279.3,242.4 L278.3,251.9 L277.4,261.5 L276.4,271.0 L275.4,280.5" fill="none" stroke="#8f2a3e" stroke-width="21" stroke-linecap="round" stroke-linejoin="round" opacity="0.95"/><path d="M240.0,196.0 L246.7,202.1 L253.5,208.2 L260.2,214.3 L267.0,220.5 L273.7,226.6 L280.2,232.9 L279.3,242.4 L278.3,251.9 L277.4,261.5 L276.4,271.0 L275.4,280.5" fill="none" stroke="#0c2020" stroke-width="13" stroke-linecap="round" stroke-linejoin="round" opacity="1.0"/><path d="M240.0,196.0 L233.0,203.5 L226.1,211.1 L219.1,218.6 L212.2,226.2 L205.2,233.7 L200.4,242.8 L196.0,252.5 L191.7,262.2 L187.3,272.0 L182.9,281.7 L178.6,291.5" fill="none" stroke="#f43f5e" stroke-width="21" stroke-linecap="round" stroke-linejoin="round" opacity="0.95"/><path d="M240.0,196.0 L233.0,203.5 L226.1,211.1 L219.1,218.6 L212.2,226.2 L205.2,233.7 L200.4,242.8 L196.0,252.5 L191.7,262.2 L187.3,272.0 L182.9,281.7 L178.6,291.5" fill="none" stroke="#0c2020" stroke-width="13" stroke-linecap="round" stroke-linejoin="round" opacity="1.0"/></g><g class="f2"><path d="M266.0,122.0 L262.6,126.6 L259.3,131.1 L255.9,135.7 L252.5,140.3 L249.2,144.8 L245.8,149.3 L243.9,153.5 L242.2,157.9 L240.5,162.2 L238.7,166.6 L237.0,170.9" fill="none" stroke="#0d9488" stroke-width="21" stroke-linecap="round" stroke-linejoin="round" opacity="0.95"/><path d="M266.0,122.0 L262.6,126.6 L259.3,131.1 L255.9,135.7 L252.5,140.3 L249.2,144.8 L245.8,149.3 L243.9,153.5 L242.2,157.9 L240.5,162.2 L238.7,166.6 L237.0,170.9" fill="none" stroke="#0c2020" stroke-width="13" stroke-linecap="round" stroke-linejoin="round" opacity="1.0"/><path d="M266.0,122.0 L269.5,126.4 L273.0,130.8 L276.5,135.3 L280.0,139.7 L283.5,144.1 L287.0,147.9 L290.2,144.5 L293.4,141.2 L296.6,137.8 L299.8,134.4 L303.0,131.1" fill="none" stroke="#2dd4bf" stroke-width="21" stroke-linecap="round" stroke-linejoin="round" opacity="0.95"/><path d="M266.0,122.0 L269.5,126.4 L273.0,130.8 L276.5,135.3 L280.0,139.7 L283.5,144.1 L287.0,147.9 L290.2,144.5 L293.4,141.2 L296.6,137.8 L299.8,134.4 L303.0,131.1" fill="none" stroke="#0c2020" stroke-width="13" stroke-linecap="round" stroke-linejoin="round" opacity="1.0"/><path d="M240.0,196.0 L245.0,202.3 L250.1,208.6 L255.1,214.9 L260.2,221.2 L265.2,227.4 L270.3,234.1 L268.9,243.7 L267.6,253.2 L266.2,262.8 L264.8,272.3 L263.4,281.9" fill="none" stroke="#8f2a3e" stroke-width="21" stroke-linecap="round" stroke-linejoin="round" opacity="0.95"/><path d="M240.0,196.0 L245.0,202.3 L250.1,208.6 L255.1,214.9 L260.2,221.2 L265.2,227.4 L270.3,234.1 L268.9,243.7 L267.6,253.2 L266.2,262.8 L264.8,272.3 L263.4,281.9" fill="none" stroke="#0c2020" stroke-width="13" stroke-linecap="round" stroke-linejoin="round" opacity="1.0"/><path d="M240.0,196.0 L234.7,203.4 L229.5,210.7 L224.2,218.1 L219.0,225.4 L213.7,232.8 L210.3,241.5 L206.3,251.3 L202.4,261.0 L198.5,270.7 L194.5,280.4 L190.6,290.1" fill="none" stroke="#f43f5e" stroke-width="21" stroke-linecap="round" stroke-linejoin="round" opacity="0.95"/><path d="M240.0,196.0 L234.7,203.4 L229.5,210.7 L224.2,218.1 L219.0,225.4 L213.7,232.8 L210.3,241.5 L206.3,251.3 L202.4,261.0 L198.5,270.7 L194.5,280.4 L190.6,290.1" fill="none" stroke="#0c2020" stroke-width="13" stroke-linecap="round" stroke-linejoin="round" opacity="1.0"/></g><g class="f3"><path d="M266.0,122.0 L264.2,126.5 L262.5,131.1 L260.7,135.6 L258.9,140.1 L257.2,144.7 L255.4,149.0 L254.7,151.4 L254.1,154.0 L253.5,156.5 L253.0,159.1 L252.4,161.6" fill="none" stroke="#0d9488" stroke-width="21" stroke-linecap="round" stroke-linejoin="round" opacity="0.95"/><path d="M266.0,122.0 L264.2,126.5 L262.5,131.1 L260.7,135.6 L258.9,140.1 L257.2,144.7 L255.4,149.0 L254.7,151.4 L254.1,154.0 L253.5,156.5 L253.0,159.1 L252.4,161.6" fill="none" stroke="#0c2020" stroke-width="13" stroke-linecap="round" stroke-linejoin="round" opacity="1.0"/><path d="M266.0,122.0 L267.9,126.5 L269.8,130.9 L271.7,135.4 L273.6,139.8 L275.5,144.3 L277.4,148.2 L279.4,146.6 L281.4,145.1 L283.5,143.5 L285.6,141.9 L287.6,140.4" fill="none" stroke="#2dd4bf" stroke-width="21" stroke-linecap="round" stroke-linejoin="round" opacity="0.95"/><path d="M266.0,122.0 L267.9,126.5 L269.8,130.9 L271.7,135.4 L273.6,139.8 L275.5,144.3 L277.4,148.2 L279.4,146.6 L281.4,145.1 L283.5,143.5 L285.6,141.9 L287.6,140.4" fill="none" stroke="#0c2020" stroke-width="13" stroke-linecap="round" stroke-linejoin="round" opacity="1.0"/><path d="M240.0,196.0 L242.6,202.5 L245.3,209.1 L247.9,215.6 L250.6,222.2 L253.2,228.7 L256.3,235.8 L254.4,245.4 L252.4,255.0 L250.4,264.6 L248.4,274.2 L246.5,283.8" fill="none" stroke="#8f2a3e" stroke-width="21" stroke-linecap="round" stroke-linejoin="round" opacity="0.95"/><path d="M240.0,196.0 L242.6,202.5 L245.3,209.1 L247.9,215.6 L250.6,222.2 L253.2,228.7 L256.3,235.8 L254.4,245.4 L252.4,255.0 L250.4,264.6 L248.4,274.2 L246.5,283.8" fill="none" stroke="#0c2020" stroke-width="13" stroke-linecap="round" stroke-linejoin="round" opacity="1.0"/><path d="M240.0,196.0 L237.1,203.1 L234.3,210.2 L231.4,217.3 L228.6,224.4 L225.7,231.6 L224.3,239.8 L220.9,249.5 L217.6,259.2 L214.2,268.8 L210.9,278.5 L207.5,288.2" fill="none" stroke="#f43f5e" stroke-width="21" stroke-linecap="round" stroke-linejoin="round" opacity="0.95"/><path d="M240.0,196.0 L237.1,203.1 L234.3,210.2 L231.4,217.3 L228.6,224.4 L225.7,231.6 L224.3,239.8 L220.9,249.5 L217.6,259.2 L214.2,268.8 L210.9,278.5 L207.5,288.2" fill="none" stroke="#0c2020" stroke-width="13" stroke-linecap="round" stroke-linejoin="round" opacity="1.0"/></g><g class="f4"><path d="M266.0,122.0 L266.1,126.5 L266.1,131.0 L266.2,135.5 L266.3,140.0 L266.3,144.5 L266.4,148.6 L267.0,149.0 L267.8,149.5 L268.5,150.0 L269.3,150.5 L270.0,151.0" fill="none" stroke="#0d9488" stroke-width="21" stroke-linecap="round" stroke-linejoin="round" opacity="0.95"/><path d="M266.0,122.0 L266.1,126.5 L266.1,131.0 L266.2,135.5 L266.3,140.0 L266.3,144.5 L266.4,148.6 L267.0,149.0 L267.8,149.5 L268.5,150.0 L269.3,150.5 L270.0,151.0" fill="none" stroke="#0c2020" stroke-width="13" stroke-linecap="round" stroke-linejoin="round" opacity="1.0"/><path d="M266.0,122.0 L266.1,126.5 L266.1,131.0 L266.2,135.5 L266.3,140.0 L266.3,144.5 L266.4,148.6 L267.0,149.0 L267.8,149.5 L268.5,150.0 L269.3,150.5 L270.0,151.0" fill="none" stroke="#2dd4bf" stroke-width="21" stroke-linecap="round" stroke-linejoin="round" opacity="0.95"/><path d="M266.0,122.0 L266.1,126.5 L266.1,131.0 L266.2,135.5 L266.3,140.0 L266.3,144.5 L266.4,148.6 L267.0,149.0 L267.8,149.5 L268.5,150.0 L269.3,150.5 L270.0,151.0" fill="none" stroke="#0c2020" stroke-width="13" stroke-linecap="round" stroke-linejoin="round" opacity="1.0"/><path d="M240.0,196.0 L239.9,202.8 L239.8,209.7 L239.7,216.5 L239.6,223.3 L239.5,230.1 L240.3,237.8 L237.6,247.5 L235.0,257.1 L232.3,266.7 L229.7,276.4 L227.0,286.0" fill="none" stroke="#8f2a3e" stroke-width="21" stroke-linecap="round" stroke-linejoin="round" opacity="0.95"/><path d="M240.0,196.0 L239.9,202.8 L239.8,209.7 L239.7,216.5 L239.6,223.3 L239.5,230.1 L240.3,237.8 L237.6,247.5 L235.0,257.1 L232.3,266.7 L229.7,276.4 L227.0,286.0" fill="none" stroke="#0c2020" stroke-width="13" stroke-linecap="round" stroke-linejoin="round" opacity="1.0"/><path d="M240.0,196.0 L239.9,202.8 L239.8,209.7 L239.7,216.5 L239.6,223.3 L239.5,230.1 L240.3,237.8 L237.6,247.5 L235.0,257.1 L232.3,266.7 L229.7,276.4 L227.0,286.0" fill="none" stroke="#f43f5e" stroke-width="21" stroke-linecap="round" stroke-linejoin="round" opacity="0.95"/><path d="M240.0,196.0 L239.9,202.8 L239.8,209.7 L239.7,216.5 L239.6,223.3 L239.5,230.1 L240.3,237.8 L237.6,247.5 L235.0,257.1 L232.3,266.7 L229.7,276.4 L227.0,286.0" fill="none" stroke="#0c2020" stroke-width="13" stroke-linecap="round" stroke-linejoin="round" opacity="1.0"/></g><g class="f5"><path d="M266.0,122.0 L267.9,126.5 L269.8,130.9 L271.7,135.4 L273.6,139.8 L275.5,144.3 L277.4,148.2 L279.4,146.6 L281.4,145.1 L283.5,143.5 L285.6,141.9 L287.6,140.4" fill="none" stroke="#0d9488" stroke-width="21" stroke-linecap="round" stroke-linejoin="round" opacity="0.95"/><path d="M266.0,122.0 L267.9,126.5 L269.8,130.9 L271.7,135.4 L273.6,139.8 L275.5,144.3 L277.4,148.2 L279.4,146.6 L281.4,145.1 L283.5,143.5 L285.6,141.9 L287.6,140.4" fill="none" stroke="#0c2020" stroke-width="13" stroke-linecap="round" stroke-linejoin="round" opacity="1.0"/><path d="M266.0,122.0 L264.2,126.5 L262.5,131.1 L260.7,135.6 L258.9,140.1 L257.2,144.7 L255.4,149.0 L254.7,151.4 L254.1,154.0 L253.5,156.5 L253.0,159.1 L252.4,161.6" fill="none" stroke="#2dd4bf" stroke-width="21" stroke-linecap="round" stroke-linejoin="round" opacity="0.95"/><path d="M266.0,122.0 L264.2,126.5 L262.5,131.1 L260.7,135.6 L258.9,140.1 L257.2,144.7 L255.4,149.0 L254.7,151.4 L254.1,154.0 L253.5,156.5 L253.0,159.1 L252.4,161.6" fill="none" stroke="#0c2020" stroke-width="13" stroke-linecap="round" stroke-linejoin="round" opacity="1.0"/><path d="M240.0,196.0 L237.1,203.1 L234.3,210.2 L231.4,217.3 L228.6,224.4 L225.7,231.6 L224.3,239.8 L220.9,249.5 L217.6,259.2 L214.2,268.8 L210.9,278.5 L207.5,288.2" fill="none" stroke="#8f2a3e" stroke-width="21" stroke-linecap="round" stroke-linejoin="round" opacity="0.95"/><path d="M240.0,196.0 L237.1,203.1 L234.3,210.2 L231.4,217.3 L228.6,224.4 L225.7,231.6 L224.3,239.8 L220.9,249.5 L217.6,259.2 L214.2,268.8 L210.9,278.5 L207.5,288.2" fill="none" stroke="#0c2020" stroke-width="13" stroke-linecap="round" stroke-linejoin="round" opacity="1.0"/><path d="M240.0,196.0 L242.6,202.5 L245.3,209.1 L247.9,215.6 L250.6,222.2 L253.2,228.7 L256.3,235.8 L254.4,245.4 L252.4,255.0 L250.4,264.6 L248.4,274.2 L246.5,283.8" fill="none" stroke="#f43f5e" stroke-width="21" stroke-linecap="round" stroke-linejoin="round" opacity="0.95"/><path d="M240.0,196.0 L242.6,202.5 L245.3,209.1 L247.9,215.6 L250.6,222.2 L253.2,228.7 L256.3,235.8 L254.4,245.4 L252.4,255.0 L250.4,264.6 L248.4,274.2 L246.5,283.8" fill="none" stroke="#0c2020" stroke-width="13" stroke-linecap="round" stroke-linejoin="round" opacity="1.0"/></g><g class="f6"><path d="M266.0,122.0 L269.5,126.4 L273.0,130.8 L276.5,135.3 L280.0,139.7 L283.5,144.1 L287.0,147.9 L290.2,144.5 L293.4,141.2 L296.6,137.8 L299.8,134.4 L303.0,131.1" fill="none" stroke="#0d9488" stroke-width="21" stroke-linecap="round" stroke-linejoin="round" opacity="0.95"/><path d="M266.0,122.0 L269.5,126.4 L273.0,130.8 L276.5,135.3 L280.0,139.7 L283.5,144.1 L287.0,147.9 L290.2,144.5 L293.4,141.2 L296.6,137.8 L299.8,134.4 L303.0,131.1" fill="none" stroke="#0c2020" stroke-width="13" stroke-linecap="round" stroke-linejoin="round" opacity="1.0"/><path d="M266.0,122.0 L262.6,126.6 L259.3,131.1 L255.9,135.7 L252.5,140.3 L249.2,144.8 L245.8,149.3 L243.9,153.5 L242.2,157.9 L240.5,162.2 L238.7,166.6 L237.0,170.9" fill="none" stroke="#2dd4bf" stroke-width="21" stroke-linecap="round" stroke-linejoin="round" opacity="0.95"/><path d="M266.0,122.0 L262.6,126.6 L259.3,131.1 L255.9,135.7 L252.5,140.3 L249.2,144.8 L245.8,149.3 L243.9,153.5 L242.2,157.9 L240.5,162.2 L238.7,166.6 L237.0,170.9" fill="none" stroke="#0c2020" stroke-width="13" stroke-linecap="round" stroke-linejoin="round" opacity="1.0"/><path d="M240.0,196.0 L234.7,203.4 L229.5,210.7 L224.2,218.1 L219.0,225.4 L213.7,232.8 L210.3,241.5 L206.3,251.3 L202.4,261.0 L198.5,270.7 L194.5,280.4 L190.6,290.1" fill="none" stroke="#8f2a3e" stroke-width="21" stroke-linecap="round" stroke-linejoin="round" opacity="0.95"/><path d="M240.0,196.0 L234.7,203.4 L229.5,210.7 L224.2,218.1 L219.0,225.4 L213.7,232.8 L210.3,241.5 L206.3,251.3 L202.4,261.0 L198.5,270.7 L194.5,280.4 L190.6,290.1" fill="none" stroke="#0c2020" stroke-width="13" stroke-linecap="round" stroke-linejoin="round" opacity="1.0"/><path d="M240.0,196.0 L245.0,202.3 L250.1,208.6 L255.1,214.9 L260.2,221.2 L265.2,227.4 L270.3,234.1 L268.9,243.7 L267.6,253.2 L266.2,262.8 L264.8,272.3 L263.4,281.9" fill="none" stroke="#f43f5e" stroke-width="21" stroke-linecap="round" stroke-linejoin="round" opacity="0.95"/><path d="M240.0,196.0 L245.0,202.3 L250.1,208.6 L255.1,214.9 L260.2,221.2 L265.2,227.4 L270.3,234.1 L268.9,243.7 L267.6,253.2 L266.2,262.8 L264.8,272.3 L263.4,281.9" fill="none" stroke="#0c2020" stroke-width="13" stroke-linecap="round" stroke-linejoin="round" opacity="1.0"/></g><g class="f7"><path d="M266.0,122.0 L270.6,126.4 L275.3,130.8 L279.9,135.2 L284.6,139.6 L289.2,144.0 L293.8,147.7 L297.8,143.0 L301.8,138.4 L305.8,133.8 L309.9,129.1 L313.9,124.5" fill="none" stroke="#0d9488" stroke-width="21" stroke-linecap="round" stroke-linejoin="round" opacity="0.95"/><path d="M266.0,122.0 L270.6,126.4 L275.3,130.8 L279.9,135.2 L284.6,139.6 L289.2,144.0 L293.8,147.7 L297.8,143.0 L301.8,138.4 L305.8,133.8 L309.9,129.1 L313.9,124.5" fill="none" stroke="#0c2020" stroke-width="13" stroke-linecap="round" stroke-linejoin="round" opacity="1.0"/><path d="M266.0,122.0 L261.5,126.6 L257.0,131.2 L252.5,135.8 L248.0,140.4 L243.5,145.0 L239.0,149.5 L236.3,155.0 L233.8,160.6 L231.2,166.3 L228.7,171.9 L226.1,177.5" fill="none" stroke="#2dd4bf" stroke-width="21" stroke-linecap="round" stroke-linejoin="round" opacity="0.95"/><path d="M266.0,122.0 L261.5,126.6 L257.0,131.2 L252.5,135.8 L248.0,140.4 L243.5,145.0 L239.0,149.5 L236.3,155.0 L233.8,160.6 L231.2,166.3 L228.7,171.9 L226.1,177.5" fill="none" stroke="#0c2020" stroke-width="13" stroke-linecap="round" stroke-linejoin="round" opacity="1.0"/><path d="M240.0,196.0 L233.0,203.5 L226.1,211.1 L219.1,218.6 L212.2,226.2 L205.2,233.7 L200.4,242.8 L196.0,252.5 L191.7,262.2 L187.3,272.0 L182.9,281.7 L178.6,291.5" fill="none" stroke="#8f2a3e" stroke-width="21" stroke-linecap="round" stroke-linejoin="round" opacity="0.95"/><path d="M240.0,196.0 L233.0,203.5 L226.1,211.1 L219.1,218.6 L212.2,226.2 L205.2,233.7 L200.4,242.8 L196.0,252.5 L191.7,262.2 L187.3,272.0 L182.9,281.7 L178.6,291.5" fill="none" stroke="#0c2020" stroke-width="13" stroke-linecap="round" stroke-linejoin="round" opacity="1.0"/><path d="M240.0,196.0 L246.7,202.1 L253.5,208.2 L260.2,214.3 L267.0,220.5 L273.7,226.6 L280.2,232.9 L279.3,242.4 L278.3,251.9 L277.4,261.5 L276.4,271.0 L275.4,280.5" fill="none" stroke="#f43f5e" stroke-width="21" stroke-linecap="round" stroke-linejoin="round" opacity="0.95"/><path d="M240.0,196.0 L246.7,202.1 L253.5,208.2 L260.2,214.3 L267.0,220.5 L273.7,226.6 L280.2,232.9 L279.3,242.4 L278.3,251.9 L277.4,261.5 L276.4,271.0 L275.4,280.5" fill="none" stroke="#0c2020" stroke-width="13" stroke-linecap="round" stroke-linejoin="round" opacity="1.0"/></g><g class="f8"><path d="M266.0,122.0 L271.1,126.4 L276.1,130.8 L281.2,135.2 L286.3,139.6 L291.3,144.0 L296.3,147.6 L300.7,142.5 L305.0,137.4 L309.3,132.2 L313.7,127.1 L318.0,122.0" fill="none" stroke="#0d9488" stroke-width="21" stroke-linecap="round" stroke-linejoin="round" opacity="0.95"/><path d="M266.0,122.0 L271.1,126.4 L276.1,130.8 L281.2,135.2 L286.3,139.6 L291.3,144.0 L296.3,147.6 L300.7,142.5 L305.0,137.4 L309.3,132.2 L313.7,127.1 L318.0,122.0" fill="none" stroke="#0c2020" stroke-width="13" stroke-linecap="round" stroke-linejoin="round" opacity="1.0"/><path d="M266.0,122.0 L261.1,126.6 L256.1,131.2 L251.2,135.8 L246.3,140.4 L241.4,145.0 L236.4,149.6 L233.4,155.6 L230.6,161.7 L227.7,167.8 L224.9,173.9 L222.0,180.0" fill="none" stroke="#2dd4bf" stroke-width="21" stroke-linecap="round" stroke-linejoin="round" opacity="0.95"/><path d="M266.0,122.0 L261.1,126.6 L256.1,131.2 L251.2,135.8 L246.3,140.4 L241.4,145.0 L236.4,149.6 L233.4,155.6 L230.6,161.7 L227.7,167.8 L224.9,173.9 L222.0,180.0" fill="none" stroke="#0c2020" stroke-width="13" stroke-linecap="round" stroke-linejoin="round" opacity="1.0"/><path d="M240.0,196.0 L232.4,203.6 L224.8,211.2 L217.2,218.8 L209.6,226.4 L202.0,234.0 L196.6,243.2 L192.1,253.0 L187.6,262.7 L183.1,272.5 L178.5,282.2 L174.0,292.0" fill="none" stroke="#8f2a3e" stroke-width="21" stroke-linecap="round" stroke-linejoin="round" opacity="0.95"/><path d="M240.0,196.0 L232.4,203.6 L224.8,211.2 L217.2,218.8 L209.6,226.4 L202.0,234.0 L196.6,243.2 L192.1,253.0 L187.6,262.7 L183.1,272.5 L178.5,282.2 L174.0,292.0" fill="none" stroke="#0c2020" stroke-width="13" stroke-linecap="round" stroke-linejoin="round" opacity="1.0"/><path d="M240.0,196.0 L247.4,202.0 L254.8,208.1 L262.2,214.1 L269.6,220.2 L276.9,226.2 L284.0,232.4 L283.2,241.9 L282.4,251.5 L281.6,261.0 L280.8,270.5 L280.0,280.0" fill="none" stroke="#f43f5e" stroke-width="21" stroke-linecap="round" stroke-linejoin="round" opacity="0.95"/><path d="M240.0,196.0 L247.4,202.0 L254.8,208.1 L262.2,214.1 L269.6,220.2 L276.9,226.2 L284.0,232.4 L283.2,241.9 L282.4,251.5 L281.6,261.0 L280.8,270.5 L280.0,280.0" fill="none" stroke="#0c2020" stroke-width="13" stroke-linecap="round" stroke-linejoin="round" opacity="1.0"/></g><g class="f9"><path d="M266.0,122.0 L270.6,126.4 L275.3,130.8 L279.9,135.2 L284.6,139.6 L289.2,144.0 L293.8,147.7 L297.8,143.0 L301.8,138.4 L305.8,133.8 L309.9,129.1 L313.9,124.5" fill="none" stroke="#0d9488" stroke-width="21" stroke-linecap="round" stroke-linejoin="round" opacity="0.95"/><path d="M266.0,122.0 L270.6,126.4 L275.3,130.8 L279.9,135.2 L284.6,139.6 L289.2,144.0 L293.8,147.7 L297.8,143.0 L301.8,138.4 L305.8,133.8 L309.9,129.1 L313.9,124.5" fill="none" stroke="#0c2020" stroke-width="13" stroke-linecap="round" stroke-linejoin="round" opacity="1.0"/><path d="M266.0,122.0 L261.5,126.6 L257.0,131.2 L252.5,135.8 L248.0,140.4 L243.5,145.0 L239.0,149.5 L236.3,155.0 L233.8,160.6 L231.2,166.3 L228.7,171.9 L226.1,177.5" fill="none" stroke="#2dd4bf" stroke-width="21" stroke-linecap="round" stroke-linejoin="round" opacity="0.95"/><path d="M266.0,122.0 L261.5,126.6 L257.0,131.2 L252.5,135.8 L248.0,140.4 L243.5,145.0 L239.0,149.5 L236.3,155.0 L233.8,160.6 L231.2,166.3 L228.7,171.9 L226.1,177.5" fill="none" stroke="#0c2020" stroke-width="13" stroke-linecap="round" stroke-linejoin="round" opacity="1.0"/><path d="M240.0,196.0 L233.0,203.5 L226.1,211.1 L219.1,218.6 L212.2,226.2 L205.2,233.7 L200.4,242.8 L196.0,252.5 L191.7,262.2 L187.3,272.0 L182.9,281.7 L178.6,291.5" fill="none" stroke="#8f2a3e" stroke-width="21" stroke-linecap="round" stroke-linejoin="round" opacity="0.95"/><path d="M240.0,196.0 L233.0,203.5 L226.1,211.1 L219.1,218.6 L212.2,226.2 L205.2,233.7 L200.4,242.8 L196.0,252.5 L191.7,262.2 L187.3,272.0 L182.9,281.7 L178.6,291.5" fill="none" stroke="#0c2020" stroke-width="13" stroke-linecap="round" stroke-linejoin="round" opacity="1.0"/><path d="M240.0,196.0 L246.7,202.1 L253.5,208.2 L260.2,214.3 L267.0,220.5 L273.7,226.6 L280.2,232.9 L279.3,242.4 L278.3,251.9 L277.4,261.5 L276.4,271.0 L275.4,280.5" fill="none" stroke="#f43f5e" stroke-width="21" stroke-linecap="round" stroke-linejoin="round" opacity="0.95"/><path d="M240.0,196.0 L246.7,202.1 L253.5,208.2 L260.2,214.3 L267.0,220.5 L273.7,226.6 L280.2,232.9 L279.3,242.4 L278.3,251.9 L277.4,261.5 L276.4,271.0 L275.4,280.5" fill="none" stroke="#0c2020" stroke-width="13" stroke-linecap="round" stroke-linejoin="round" opacity="1.0"/></g><g class="f10"><path d="M266.0,122.0 L269.5,126.4 L273.0,130.8 L276.5,135.3 L280.0,139.7 L283.5,144.1 L287.0,147.9 L290.2,144.5 L293.4,141.2 L296.6,137.8 L299.8,134.4 L303.0,131.1" fill="none" stroke="#0d9488" stroke-width="21" stroke-linecap="round" stroke-linejoin="round" opacity="0.95"/><path d="M266.0,122.0 L269.5,126.4 L273.0,130.8 L276.5,135.3 L280.0,139.7 L283.5,144.1 L287.0,147.9 L290.2,144.5 L293.4,141.2 L296.6,137.8 L299.8,134.4 L303.0,131.1" fill="none" stroke="#0c2020" stroke-width="13" stroke-linecap="round" stroke-linejoin="round" opacity="1.0"/><path d="M266.0,122.0 L262.6,126.6 L259.3,131.1 L255.9,135.7 L252.5,140.3 L249.2,144.8 L245.8,149.3 L243.9,153.5 L242.2,157.9 L240.5,162.2 L238.7,166.6 L237.0,170.9" fill="none" stroke="#2dd4bf" stroke-width="21" stroke-linecap="round" stroke-linejoin="round" opacity="0.95"/><path d="M266.0,122.0 L262.6,126.6 L259.3,131.1 L255.9,135.7 L252.5,140.3 L249.2,144.8 L245.8,149.3 L243.9,153.5 L242.2,157.9 L240.5,162.2 L238.7,166.6 L237.0,170.9" fill="none" stroke="#0c2020" stroke-width="13" stroke-linecap="round" stroke-linejoin="round" opacity="1.0"/><path d="M240.0,196.0 L234.7,203.4 L229.5,210.7 L224.2,218.1 L219.0,225.4 L213.7,232.8 L210.3,241.5 L206.3,251.3 L202.4,261.0 L198.5,270.7 L194.5,280.4 L190.6,290.1" fill="none" stroke="#8f2a3e" stroke-width="21" stroke-linecap="round" stroke-linejoin="round" opacity="0.95"/><path d="M240.0,196.0 L234.7,203.4 L229.5,210.7 L224.2,218.1 L219.0,225.4 L213.7,232.8 L210.3,241.5 L206.3,251.3 L202.4,261.0 L198.5,270.7 L194.5,280.4 L190.6,290.1" fill="none" stroke="#0c2020" stroke-width="13" stroke-linecap="round" stroke-linejoin="round" opacity="1.0"/><path d="M240.0,196.0 L245.0,202.3 L250.1,208.6 L255.1,214.9 L260.2,221.2 L265.2,227.4 L270.3,234.1 L268.9,243.7 L267.6,253.2 L266.2,262.8 L264.8,272.3 L263.4,281.9" fill="none" stroke="#f43f5e" stroke-width="21" stroke-linecap="round" stroke-linejoin="round" opacity="0.95"/><path d="M240.0,196.0 L245.0,202.3 L250.1,208.6 L255.1,214.9 L260.2,221.2 L265.2,227.4 L270.3,234.1 L268.9,243.7 L267.6,253.2 L266.2,262.8 L264.8,272.3 L263.4,281.9" fill="none" stroke="#0c2020" stroke-width="13" stroke-linecap="round" stroke-linejoin="round" opacity="1.0"/></g><g class="f11"><path d="M266.0,122.0 L267.9,126.5 L269.8,130.9 L271.7,135.4 L273.6,139.8 L275.5,144.3 L277.4,148.2 L279.4,146.6 L281.4,145.1 L283.5,143.5 L285.6,141.9 L287.6,140.4" fill="none" stroke="#0d9488" stroke-width="21" stroke-linecap="round" stroke-linejoin="round" opacity="0.95"/><path d="M266.0,122.0 L267.9,126.5 L269.8,130.9 L271.7,135.4 L273.6,139.8 L275.5,144.3 L277.4,148.2 L279.4,146.6 L281.4,145.1 L283.5,143.5 L285.6,141.9 L287.6,140.4" fill="none" stroke="#0c2020" stroke-width="13" stroke-linecap="round" stroke-linejoin="round" opacity="1.0"/><path d="M266.0,122.0 L264.2,126.5 L262.5,131.1 L260.7,135.6 L258.9,140.1 L257.2,144.7 L255.4,149.0 L254.7,151.4 L254.1,154.0 L253.5,156.5 L253.0,159.1 L252.4,161.6" fill="none" stroke="#2dd4bf" stroke-width="21" stroke-linecap="round" stroke-linejoin="round" opacity="0.95"/><path d="M266.0,122.0 L264.2,126.5 L262.5,131.1 L260.7,135.6 L258.9,140.1 L257.2,144.7 L255.4,149.0 L254.7,151.4 L254.1,154.0 L253.5,156.5 L253.0,159.1 L252.4,161.6" fill="none" stroke="#0c2020" stroke-width="13" stroke-linecap="round" stroke-linejoin="round" opacity="1.0"/><path d="M240.0,196.0 L237.1,203.1 L234.3,210.2 L231.4,217.3 L228.6,224.4 L225.7,231.6 L224.3,239.8 L220.9,249.5 L217.6,259.2 L214.2,268.8 L210.9,278.5 L207.5,288.2" fill="none" stroke="#8f2a3e" stroke-width="21" stroke-linecap="round" stroke-linejoin="round" opacity="0.95"/><path d="M240.0,196.0 L237.1,203.1 L234.3,210.2 L231.4,217.3 L228.6,224.4 L225.7,231.6 L224.3,239.8 L220.9,249.5 L217.6,259.2 L214.2,268.8 L210.9,278.5 L207.5,288.2" fill="none" stroke="#0c2020" stroke-width="13" stroke-linecap="round" stroke-linejoin="round" opacity="1.0"/><path d="M240.0,196.0 L242.6,202.5 L245.3,209.1 L247.9,215.6 L250.6,222.2 L253.2,228.7 L256.3,235.8 L254.4,245.4 L252.4,255.0 L250.4,264.6 L248.4,274.2 L246.5,283.8" fill="none" stroke="#f43f5e" stroke-width="21" stroke-linecap="round" stroke-linejoin="round" opacity="0.95"/><path d="M240.0,196.0 L242.6,202.5 L245.3,209.1 L247.9,215.6 L250.6,222.2 L253.2,228.7 L256.3,235.8 L254.4,245.4 L252.4,255.0 L250.4,264.6 L248.4,274.2 L246.5,283.8" fill="none" stroke="#0c2020" stroke-width="13" stroke-linecap="round" stroke-linejoin="round" opacity="1.0"/></g><g class="f12"><path d="M266.0,122.0 L266.1,126.5 L266.1,131.0 L266.2,135.5 L266.3,140.0 L266.3,144.5 L266.4,148.6 L267.0,149.0 L267.8,149.5 L268.5,150.0 L269.3,150.5 L270.0,151.0" fill="none" stroke="#0d9488" stroke-width="21" stroke-linecap="round" stroke-linejoin="round" opacity="0.95"/><path d="M266.0,122.0 L266.1,126.5 L266.1,131.0 L266.2,135.5 L266.3,140.0 L266.3,144.5 L266.4,148.6 L267.0,149.0 L267.8,149.5 L268.5,150.0 L269.3,150.5 L270.0,151.0" fill="none" stroke="#0c2020" stroke-width="13" stroke-linecap="round" stroke-linejoin="round" opacity="1.0"/><path d="M266.0,122.0 L266.1,126.5 L266.1,131.0 L266.2,135.5 L266.3,140.0 L266.3,144.5 L266.4,148.6 L267.0,149.0 L267.8,149.5 L268.5,150.0 L269.3,150.5 L270.0,151.0" fill="none" stroke="#2dd4bf" stroke-width="21" stroke-linecap="round" stroke-linejoin="round" opacity="0.95"/><path d="M266.0,122.0 L266.1,126.5 L266.1,131.0 L266.2,135.5 L266.3,140.0 L266.3,144.5 L266.4,148.6 L267.0,149.0 L267.8,149.5 L268.5,150.0 L269.3,150.5 L270.0,151.0" fill="none" stroke="#0c2020" stroke-width="13" stroke-linecap="round" stroke-linejoin="round" opacity="1.0"/><path d="M240.0,196.0 L239.9,202.8 L239.8,209.7 L239.7,216.5 L239.6,223.3 L239.5,230.1 L240.3,237.8 L237.6,247.5 L235.0,257.1 L232.3,266.7 L229.7,276.4 L227.0,286.0" fill="none" stroke="#8f2a3e" stroke-width="21" stroke-linecap="round" stroke-linejoin="round" opacity="0.95"/><path d="M240.0,196.0 L239.9,202.8 L239.8,209.7 L239.7,216.5 L239.6,223.3 L239.5,230.1 L240.3,237.8 L237.6,247.5 L235.0,257.1 L232.3,266.7 L229.7,276.4 L227.0,286.0" fill="none" stroke="#0c2020" stroke-width="13" stroke-linecap="round" stroke-linejoin="round" opacity="1.0"/><path d="M240.0,196.0 L239.9,202.8 L239.8,209.7 L239.7,216.5 L239.6,223.3 L239.5,230.1 L240.3,237.8 L237.6,247.5 L235.0,257.1 L232.3,266.7 L229.7,276.4 L227.0,286.0" fill="none" stroke="#f43f5e" stroke-width="21" stroke-linecap="round" stroke-linejoin="round" opacity="0.95"/><path d="M240.0,196.0 L239.9,202.8 L239.8,209.7 L239.7,216.5 L239.6,223.3 L239.5,230.1 L240.3,237.8 L237.6,247.5 L235.0,257.1 L232.3,266.7 L229.7,276.4 L227.0,286.0" fill="none" stroke="#0c2020" stroke-width="13" stroke-linecap="round" stroke-linejoin="round" opacity="1.0"/></g><g class="f13"><path d="M266.0,122.0 L264.2,126.5 L262.5,131.1 L260.7,135.6 L258.9,140.1 L257.2,144.7 L255.4,149.0 L254.7,151.4 L254.1,154.0 L253.5,156.5 L253.0,159.1 L252.4,161.6" fill="none" stroke="#0d9488" stroke-width="21" stroke-linecap="round" stroke-linejoin="round" opacity="0.95"/><path d="M266.0,122.0 L264.2,126.5 L262.5,131.1 L260.7,135.6 L258.9,140.1 L257.2,144.7 L255.4,149.0 L254.7,151.4 L254.1,154.0 L253.5,156.5 L253.0,159.1 L252.4,161.6" fill="none" stroke="#0c2020" stroke-width="13" stroke-linecap="round" stroke-linejoin="round" opacity="1.0"/><path d="M266.0,122.0 L267.9,126.5 L269.8,130.9 L271.7,135.4 L273.6,139.8 L275.5,144.3 L277.4,148.2 L279.4,146.6 L281.4,145.1 L283.5,143.5 L285.6,141.9 L287.6,140.4" fill="none" stroke="#2dd4bf" stroke-width="21" stroke-linecap="round" stroke-linejoin="round" opacity="0.95"/><path d="M266.0,122.0 L267.9,126.5 L269.8,130.9 L271.7,135.4 L273.6,139.8 L275.5,144.3 L277.4,148.2 L279.4,146.6 L281.4,145.1 L283.5,143.5 L285.6,141.9 L287.6,140.4" fill="none" stroke="#0c2020" stroke-width="13" stroke-linecap="round" stroke-linejoin="round" opacity="1.0"/><path d="M240.0,196.0 L242.6,202.5 L245.3,209.1 L247.9,215.6 L250.6,222.2 L253.2,228.7 L256.3,235.8 L254.4,245.4 L252.4,255.0 L250.4,264.6 L248.4,274.2 L246.5,283.8" fill="none" stroke="#8f2a3e" stroke-width="21" stroke-linecap="round" stroke-linejoin="round" opacity="0.95"/><path d="M240.0,196.0 L242.6,202.5 L245.3,209.1 L247.9,215.6 L250.6,222.2 L253.2,228.7 L256.3,235.8 L254.4,245.4 L252.4,255.0 L250.4,264.6 L248.4,274.2 L246.5,283.8" fill="none" stroke="#0c2020" stroke-width="13" stroke-linecap="round" stroke-linejoin="round" opacity="1.0"/><path d="M240.0,196.0 L237.1,203.1 L234.3,210.2 L231.4,217.3 L228.6,224.4 L225.7,231.6 L224.3,239.8 L220.9,249.5 L217.6,259.2 L214.2,268.8 L210.9,278.5 L207.5,288.2" fill="none" stroke="#f43f5e" stroke-width="21" stroke-linecap="round" stroke-linejoin="round" opacity="0.95"/><path d="M240.0,196.0 L237.1,203.1 L234.3,210.2 L231.4,217.3 L228.6,224.4 L225.7,231.6 L224.3,239.8 L220.9,249.5 L217.6,259.2 L214.2,268.8 L210.9,278.5 L207.5,288.2" fill="none" stroke="#0c2020" stroke-width="13" stroke-linecap="round" stroke-linejoin="round" opacity="1.0"/></g><g class="f14"><path d="M266.0,122.0 L262.6,126.6 L259.3,131.1 L255.9,135.7 L252.5,140.3 L249.2,144.8 L245.8,149.3 L243.9,153.5 L242.2,157.9 L240.5,162.2 L238.7,166.6 L237.0,170.9" fill="none" stroke="#0d9488" stroke-width="21" stroke-linecap="round" stroke-linejoin="round" opacity="0.95"/><path d="M266.0,122.0 L262.6,126.6 L259.3,131.1 L255.9,135.7 L252.5,140.3 L249.2,144.8 L245.8,149.3 L243.9,153.5 L242.2,157.9 L240.5,162.2 L238.7,166.6 L237.0,170.9" fill="none" stroke="#0c2020" stroke-width="13" stroke-linecap="round" stroke-linejoin="round" opacity="1.0"/><path d="M266.0,122.0 L269.5,126.4 L273.0,130.8 L276.5,135.3 L280.0,139.7 L283.5,144.1 L287.0,147.9 L290.2,144.5 L293.4,141.2 L296.6,137.8 L299.8,134.4 L303.0,131.1" fill="none" stroke="#2dd4bf" stroke-width="21" stroke-linecap="round" stroke-linejoin="round" opacity="0.95"/><path d="M266.0,122.0 L269.5,126.4 L273.0,130.8 L276.5,135.3 L280.0,139.7 L283.5,144.1 L287.0,147.9 L290.2,144.5 L293.4,141.2 L296.6,137.8 L299.8,134.4 L303.0,131.1" fill="none" stroke="#0c2020" stroke-width="13" stroke-linecap="round" stroke-linejoin="round" opacity="1.0"/><path d="M240.0,196.0 L245.0,202.3 L250.1,208.6 L255.1,214.9 L260.2,221.2 L265.2,227.4 L270.3,234.1 L268.9,243.7 L267.6,253.2 L266.2,262.8 L264.8,272.3 L263.4,281.9" fill="none" stroke="#8f2a3e" stroke-width="21" stroke-linecap="round" stroke-linejoin="round" opacity="0.95"/><path d="M240.0,196.0 L245.0,202.3 L250.1,208.6 L255.1,214.9 L260.2,221.2 L265.2,227.4 L270.3,234.1 L268.9,243.7 L267.6,253.2 L266.2,262.8 L264.8,272.3 L263.4,281.9" fill="none" stroke="#0c2020" stroke-width="13" stroke-linecap="round" stroke-linejoin="round" opacity="1.0"/><path d="M240.0,196.0 L234.7,203.4 L229.5,210.7 L224.2,218.1 L219.0,225.4 L213.7,232.8 L210.3,241.5 L206.3,251.3 L202.4,261.0 L198.5,270.7 L194.5,280.4 L190.6,290.1" fill="none" stroke="#f43f5e" stroke-width="21" stroke-linecap="round" stroke-linejoin="round" opacity="0.95"/><path d="M240.0,196.0 L234.7,203.4 L229.5,210.7 L224.2,218.1 L219.0,225.4 L213.7,232.8 L210.3,241.5 L206.3,251.3 L202.4,261.0 L198.5,270.7 L194.5,280.4 L190.6,290.1" fill="none" stroke="#0c2020" stroke-width="13" stroke-linecap="round" stroke-linejoin="round" opacity="1.0"/></g><g class="f15"><path d="M266.0,122.0 L261.5,126.6 L257.0,131.2 L252.5,135.8 L248.0,140.4 L243.5,145.0 L239.0,149.5 L236.3,155.0 L233.8,160.6 L231.2,166.3 L228.7,171.9 L226.1,177.5" fill="none" stroke="#0d9488" stroke-width="21" stroke-linecap="round" stroke-linejoin="round" opacity="0.95"/><path d="M266.0,122.0 L261.5,126.6 L257.0,131.2 L252.5,135.8 L248.0,140.4 L243.5,145.0 L239.0,149.5 L236.3,155.0 L233.8,160.6 L231.2,166.3 L228.7,171.9 L226.1,177.5" fill="none" stroke="#0c2020" stroke-width="13" stroke-linecap="round" stroke-linejoin="round" opacity="1.0"/><path d="M266.0,122.0 L270.6,126.4 L275.3,130.8 L279.9,135.2 L284.6,139.6 L289.2,144.0 L293.8,147.7 L297.8,143.0 L301.8,138.4 L305.8,133.8 L309.9,129.1 L313.9,124.5" fill="none" stroke="#2dd4bf" stroke-width="21" stroke-linecap="round" stroke-linejoin="round" opacity="0.95"/><path d="M266.0,122.0 L270.6,126.4 L275.3,130.8 L279.9,135.2 L284.6,139.6 L289.2,144.0 L293.8,147.7 L297.8,143.0 L301.8,138.4 L305.8,133.8 L309.9,129.1 L313.9,124.5" fill="none" stroke="#0c2020" stroke-width="13" stroke-linecap="round" stroke-linejoin="round" opacity="1.0"/><path d="M240.0,196.0 L246.7,202.1 L253.5,208.2 L260.2,214.3 L267.0,220.5 L273.7,226.6 L280.2,232.9 L279.3,242.4 L278.3,251.9 L277.4,261.5 L276.4,271.0 L275.4,280.5" fill="none" stroke="#8f2a3e" stroke-width="21" stroke-linecap="round" stroke-linejoin="round" opacity="0.95"/><path d="M240.0,196.0 L246.7,202.1 L253.5,208.2 L260.2,214.3 L267.0,220.5 L273.7,226.6 L280.2,232.9 L279.3,242.4 L278.3,251.9 L277.4,261.5 L276.4,271.0 L275.4,280.5" fill="none" stroke="#0c2020" stroke-width="13" stroke-linecap="round" stroke-linejoin="round" opacity="1.0"/><path d="M240.0,196.0 L233.0,203.5 L226.1,211.1 L219.1,218.6 L212.2,226.2 L205.2,233.7 L200.4,242.8 L196.0,252.5 L191.7,262.2 L187.3,272.0 L182.9,281.7 L178.6,291.5" fill="none" stroke="#f43f5e" stroke-width="21" stroke-linecap="round" stroke-linejoin="round" opacity="0.95"/><path d="M240.0,196.0 L233.0,203.5 L226.1,211.1 L219.1,218.6 L212.2,226.2 L205.2,233.7 L200.4,242.8 L196.0,252.5 L191.7,262.2 L187.3,272.0 L182.9,281.7 L178.6,291.5" fill="none" stroke="#0c2020" stroke-width="13" stroke-linecap="round" stroke-linejoin="round" opacity="1.0"/></g></svg>
