<svg xmlns="http://www.w3.org/2000/svg" viewBox="0 0 480 320"><style>@keyframes k0{0%{opacity:1}11.111%{opacity:0}100%{opacity:0}}.f0{opacity:0;animation:k0 2.4s steps(1,end) infinite}@keyframes k1{0%{opacity:0}11.111%{opacity:1}16.667%{opacity:0}100%{opacity:0}}.f1{opacity:0;animation:k1 2.4s steps(1,end) infinite}@keyframes k2{0%{opacity:0}16.667%{opacity:1}22.222%{opacity:0}100%{opacity:0}}.f2{opacity:0;animation:k2 2.4s steps(1,end) infinite}@keyframes k3{0%{opacity:0}22.222%{opacity:1}27.778%{opacity:0}100%{opacity:0}}.f3{opacity:0;animation:k3 2.4s steps(1,end) infinite}@keyframes k4{0%{opacity:0}27.778%{opacity:1}33.333%{opacity:0}100%{opacity:0}}.f4{opacity:0;animation:k4 2.4s steps(1,end) infinite}@keyframes k5{0%{opacity:0}33.333%{opacity:1}38.889%{opacity:0}100%{opacity:0}}.f5{opacity:0;animation:k5 2.4s steps(1,end) infinite}@keyframes k6{0%{opacity:0}38.889%{opacity:1}44.444%{opacity:0}100%{opacity:0}}.f6{opacity:0;animation:k6 2.4s steps(1,end) infinite}@keyframes k7{0%{opacity:0}44.444%{opacity:1}50.000%{opacity:0}100%{opacity:0}}.f7{opacity:0;animation:k7 2.4s steps(1,end) infinite}@keyframes k8{0%{opacity:0}50.000%{opacity:1}61.111%{opacity:0}100%{opacity:0}}.f8{opacity:0;animation:k8 2.4s steps(1,end) infinite}@keyframes k9{0%{opacity:0}61.111%{opacity:1}66.667%{opacity:0}100%{opacity:0}}.f9{opacity:0;animation:k9 2.4s steps(1,end) infinite}@keyframes k10{0%{opacity:0}66.667%{opacity:1}72.222%{opacity:0}100%{opacity:0}}.f10{opacity:0;animation:k10 2.4s steps(1,end) infinite}@keyframes k11{0%{opacity:0}72.222%{opacity:1}77.778%{opacity:0}100%{opacity:0}}.f11{opacity:0;animation:k11 2.4s steps(1,end) infinite}@keyframes k12{0%{opacity:0}77.778%{opacity:1}83.333%{opacity:0}100%{opacity:0}}.f12{opacity:0;animation:k12 2.4s steps(1,end) infinite}@keyframes k13{0%{opacity:0}83.333%{opacity:1}88.889%{opacity:0}100%{opacity:0}}.f13{opacity:0;animation:k13 2.4s steps(1,end) infinite}@keyframes k14{0%{opacity:0}88.889%{opacity:1}94.444%{opacity:0}100%{opacity:0}}.f14{opacity:0;animation:k14 2.4s steps(1,end) infinite}@keyframes k15{0%{opacity:0}94.444%{opacity:1}100%{opacity:1}}.f15{opacity:0;animation:k15 2.4s steps(1,end) infinite}</style><path d="M40.0,292.0 L440.0,292.0" fill="none" stroke="#1f3333" stroke-width="6" stroke-linecap="round" stroke-linejoin="round" opacity="1.0"/><rect x="260.0" y="240.0" width="96.0" height="52.0" rx="6" fill="none" stroke="#1f3333" stroke-width="6"/><g class="f0"><path d="M220.0,128.0 L220.7,134.1 L221.3,140.2 L222.0,146.2 L222.6,152.3 L223.3,158.4 L223.9,164.5 L223.6,170.6 L223.2,176.7 L222.8,182.8 L222.4,188.9 L222.0,195.0" fill="none" stroke="#2dd4bf" stroke-width="21" stroke-linecap="round" stroke-linejoin="round" opacity="0.95"/><path d="M220.0,128.0 L220.7,134.1 L221.3,140.2 L222.0,146.2 L222.6,152.3 L223.3,158.4 L223.9,164.5 L223.6,170.6 L223.2,176.7 L222.8,182.8 L222.4,188.9 L222.0,195.0" fill="none" stroke="#0c2020" stroke-width="13" stroke-linecap="round" stroke-linejoin="round" opacity="1.0"/><path d="M220.0,202.0 L218.9,210.1 L217.8,218.3 L216.7,226.4 L215.6,234.6 L214.4,242.7 L213.8,250.9 L213.4,259.1 L213.1,267.4 L212.7,275.6 L212.4,283.8 L212.0,292.0" fill="none" stroke="#8f2a3e" stroke-width="21" stroke-linecap="round" stroke-linejoin="round" opacity="0.95"/><path d="M220.0,202.0 L218.9,210.1 L217.8,218.3 L216.7,226.4 L215.6,234.6 L214.4,242.7 L213.8,250.9 L213.4,259.1 L213.1,267.4 L212.7,275.6 L212.4,283.8 L212.0,292.0" fill="none" stroke="#0c2020" stroke-width="13" stroke-linecap="round" stroke-linejoin="round" opacity="1.0"/><path d="M220.0,202.0 L227.0,204.3 L234.1,206.7 L241.1,209.0 L248.2,211.4 L255.2,213.7 L262.3,216.1 L269.0,219.0 L274.2,224.2 L279.5,229.5 L284.7,234.7 L290.0,240.0" fill="none" stroke="#f43f5e" stroke-width="21" stroke-linecap="round" stroke-linejoin="round" opacity="0.95"/><path d="M220.0,202.0 L227.0,204.3 L234.1,206.7 L241.1,209.0 L248.2,211.4 L255.2,213.7 L262.3,216.1 L269.0,219.0 L274.2,224.2 L279.5,229.5 L284.7,234.7 L290.0,240.0" fill="none" stroke="#0c2020" stroke-width="13" stroke-linecap="round" stroke-linejoin="round" opacity="1.0"/><path d="M220.0,128.0 L220.0,134.7 L220.0,141.5 L220.0,148.2 L220.0,154.9 L220.0,161.6 L220.0,168.4 L220.0,175.1 L220.0,181.8 L220.0,188.5 L220.0,195.3 L220.0,202.0" fill="none" stroke="#2dd4bf" stroke-width="25" stroke-linecap="round" stroke-linejoin="round" opacity="0.95"/><path d="M220.0,128.0 L220.0,134.7 L220.0,141.5 L220.0,148.2 L220.0,154.9 L220.0,161.6 L220.0,168.4 L220.0,175.1 L220.0,181.8 L220.0,188.5 L220.0,195.3 L220.0,202.0" fill="none" stroke="#0c2020" stroke-width="17" stroke-linecap="round" stroke-linejoin="round" opacity="1.0"/><circle cx="222.0" cy="100.0" r="19.0" fill="#2dd4bf" stroke="none" stroke-width="0" opacity="0.95"/><circle cx="222.0" cy="100.0" r="15.0" fill="#0c2020" stroke="none" stroke-width="6.3" opacity="1.0"/><path d="M212.7,97.0 L214.4,97.0 L216.1,97.0 L217.8,97.0 L219.5,97.0 L221.2,97.0 L222.8,97.0 L224.5,97.0 L226.2,97.0 L227.9,97.0 L229.6,97.0 L231.3,97.0" fill="none" stroke="#a7f3ee" stroke-width="5" stroke-linecap="round" stroke-linejoin="round" opacity="1.0"/></g><g class="f1"><path d="M222.8,125.6 L223.5,131.7 L224.2,137.8 L224.8,143.8 L225.5,149.9 L226.1,156.0 L226.8,162.1 L226.5,168.2 L226.1,174.3 L225.6,180.4 L225.2,186.5 L224.8,192.6" fill="none" stroke="#2dd4bf" stroke-width="21" stroke-linecap="round" stroke-linejoin="round" opacity="0.95"/><path d="M222.8,125.6 L223.5,131.7 L224.2,137.8 L224.8,143.8 L225.5,149.9 L226.1,156.0 L226.8,162.1 L226.5,168.2 L226.1,174.3 L225.6,180.4 L225.2,186.5 L224.8,192.6" fill="none" stroke="#0c2020" stroke-width="13" stroke-linecap="round" stroke-linejoin="round" opacity="1.0"/><path d="M222.8,199.6 L221.7,207.8 L220.6,215.9 L219.5,224.1 L218.4,232.2 L217.3,240.4 L216.6,248.6 L216.3,256.8 L216.0,265.1 L215.7,273.3 L215.3,281.5 L215.0,289.8" fill="none" stroke="#8f2a3e" stroke-width="21" stroke-linecap="round" stroke-linejoin="round" opacity="0.95"/><path d="M222.8,199.6 L221.7,207.8 L220.6,215.9 L219.5,224.1 L218.4,232.2 L217.3,240.4 L216.6,248.6 L216.3,256.8 L216.0,265.1 L215.7,273.3 L215.3,281.5 L215.0,289.8" fill="none" stroke="#0c2020" stroke-width="13" stroke-linecap="round" stroke-linejoin="round" opacity="1.0"/><path d="M222.8,199.6 L229.6,202.2 L236.4,204.8 L243.3,207.4 L250.1,210.0 L256.9,212.7 L263.7,215.3 L270.1,218.4 L275.1,223.8 L280.2,229.2 L285.2,234.6 L290.3,240.0" fill="none" stroke="#f43f5e" stroke-width="21" stroke-linecap="round" stroke-linejoin="round" opacity="0.95"/><path d="M222.8,199.6 L229.6,202.2 L236.4,204.8 L243.3,207.4 L250.1,210.0 L256.9,212.7 L263.7,215.3 L270.1,218.4 L275.1,223.8 L280.2,229.2 L285.2,234.6 L290.3,240.0" fill="none" stroke="#0c2020" stroke-width="13" stroke-linecap="round" stroke-linejoin="round" opacity="1.0"/><path d="M222.8,125.6 L222.8,132.3 L222.8,139.0 L222.8,145.8 L222.8,152.5 L222.8,159.2 L222.8,166.0 L222.8,172.7 L222.8,179.4 L222.8,186.1 L222.8,192.9 L222.8,199.6" fill="none" stroke="#2dd4bf" stroke-width="25" stroke-linecap="round" stroke-linejoin="round" opacity="0.95"/><path d="M222.8,125.6 L222.8,132.3 L222.8,139.0 L222.8,145.8 L222.8,152.5 L222.8,159.2 L222.8,166.0 L222.8,172.7 L222.8,179.4 L222.8,186.1 L222.8,192.9 L222.8,199.6" fill="none" stroke="#0c2020" stroke-width="17" stroke-linecap="round" stroke-linejoin="round" opacity="1.0"/><circle cx="224.8" cy="97.6" r="19.0" fill="#2dd4bf" stroke="none" stroke-width="0" opacity="0.95"/><circle cx="224.8" cy="97.6" r="15.0" fill="#0c2020" stroke="none" stroke-width="6.3" opacity="1.0"/><path d="M215.5,94.6 L217.2,94.6 L218.9,94.6 L220.6,94.6 L222.3,94.6 L224.0,94.6 L225.7,94.6 L227.4,94.6 L229.1,94.6 L230.8,94.6 L232.4,94.6 L234.1,94.6" fill="none" stroke="#a7f3ee" stroke-width="5" stroke-linecap="round" stroke-linejoin="round" opacity="1.0"/></g><g class="f2"><path d="M230.3,119.2 L231.0,125.3 L231.6,131.4 L232.3,137.5 L232.9,143.6 L233.6,149.7 L234.3,155.7 L233.9,161.8 L233.5,167.9 L233.1,174.0 L232.7,180.1 L232.3,186.2" fill="none" stroke="#2dd4bf" stroke-width="21" stroke-linecap="round" stroke-linejoin="round" opacity="0.95"/><path d="M230.3,119.2 L231.0,125.3 L231.6,131.4 L232.3,137.5 L232.9,143.6 L233.6,149.7 L234.3,155.7 L233.9,161.8 L233.5,167.9 L233.1,174.0 L232.7,180.1 L232.3,186.2" fill="none" stroke="#0c2020" stroke-width="13" stroke-linecap="round" stroke-linejoin="round" opacity="1.0"/><path d="M230.3,193.2 L229.2,201.5 L228.1,209.7 L227.0,217.9 L225.9,226.1 L224.8,234.3 L224.2,242.5 L223.9,250.8 L223.7,259.1 L223.4,267.3 L223.2,275.6 L222.9,283.9" fill="none" stroke="#8f2a3e" stroke-width="21" stroke-linecap="round" stroke-linejoin="round" opacity="0.95"/><path d="M230.3,193.2 L229.2,201.5 L228.1,209.7 L227.0,217.9 L225.9,226.1 L224.8,234.3 L224.2,242.5 L223.9,250.8 L223.7,259.1 L223.4,267.3 L223.2,275.6 L222.9,283.9" fill="none" stroke="#0c2020" stroke-width="13" stroke-linecap="round" stroke-linejoin="round" opacity="1.0"/><path d="M230.3,193.2 L236.5,196.6 L242.6,199.9 L248.8,203.2 L255.0,206.5 L261.1,209.8 L267.3,213.1 L273.0,216.9 L277.5,222.7 L282.0,228.4 L286.4,234.2 L290.9,240.0" fill="none" stroke="#f43f5e" stroke-width="21" stroke-linecap="round" stroke-linejoin="round" opacity="0.95"/><path d="M230.3,193.2 L236.5,196.6 L242.6,199.9 L248.8,203.2 L255.0,206.5 L261.1,209.8 L267.3,213.1 L273.0,216.9 L277.5,222.7 L282.0,228.4 L286.4,234.2 L290.9,240.0" fill="none" stroke="#0c2020" stroke-width="13" stroke-linecap="round" stroke-linejoin="round" opacity="1.0"/><path d="M230.3,119.2 L230.3,126.0 L230.3,132.7 L230.3,139.4 L230.3,146.2 L230.3,152.9 L230.3,159.6 L230.3,166.3 L230.3,173.1 L230.3,179.8 L230.3,186.5 L230.3,193.2" fill="none" stroke="#2dd4bf" stroke-width="25" stroke-linecap="round" stroke-linejoin="round" opacity="0.95"/><path d="M230.3,119.2 L230.3,126.0 L230.3,132.7 L230.3,139.4 L230.3,146.2 L230.3,152.9 L230.3,159.6 L230.3,166.3 L230.3,173.1 L230.3,179.8 L230.3,186.5 L230.3,193.2" fill="none" stroke="#0c2020" stroke-width="17" stroke-linecap="round" stroke-linejoin="round" opacity="1.0"/><circle cx="232.3" cy="91.2" r="19.0" fill="#2dd4bf" stroke="none" stroke-width="0" opacity="0.95"/><circle cx="232.3" cy="91.2" r="15.0" fill="#0c2020" stroke="none" stroke-width="6.3" opacity="1.0"/><path d="M223.0,88.2 L224.7,88.2 L226.4,88.2 L228.1,88.2 L229.8,88.2 L231.5,88.2 L233.2,88.2 L234.8,88.2 L236.5,88.2 L238.2,88.2 L239.9,88.2 L241.6,88.2" fill="none" stroke="#a7f3ee" stroke-width="5" stroke-linecap="round" stroke-linejoin="round" opacity="1.0"/></g><g class="f3"><path d="M240.9,110.3 L241.5,116.4 L242.2,122.4 L242.9,128.5 L243.5,134.6 L244.2,140.7 L244.8,146.8 L244.5,152.9 L244.1,159.0 L243.7,165.1 L243.3,171.2 L242.9,177.3" fill="none" stroke="#2dd4bf" stroke-width="21" stroke-linecap="round" stroke-linejoin="round" opacity="0.95"/><path d="M240.9,110.3 L241.5,116.4 L242.2,122.4 L242.9,128.5 L243.5,134.6 L244.2,140.7 L244.8,146.8 L244.5,152.9 L244.1,159.0 L243.7,165.1 L243.3,171.2 L242.9,177.3" fill="none" stroke="#0c2020" stroke-width="13" stroke-linecap="round" stroke-linejoin="round" opacity="1.0"/><path d="M240.9,184.3 L239.8,192.5 L238.7,200.8 L237.6,209.1 L236.5,217.3 L235.4,225.6 L234.8,233.9 L234.7,242.2 L234.5,250.6 L234.4,258.9 L234.3,267.2 L234.1,275.5" fill="none" stroke="#8f2a3e" stroke-width="21" stroke-linecap="round" stroke-linejoin="round" opacity="0.95"/><path d="M240.9,184.3 L239.8,192.5 L238.7,200.8 L237.6,209.1 L236.5,217.3 L235.4,225.6 L234.8,233.9 L234.7,242.2 L234.5,250.6 L234.4,258.9 L234.3,267.2 L234.1,275.5" fill="none" stroke="#0c2020" stroke-width="13" stroke-linecap="round" stroke-linejoin="round" opacity="1.0"/><path d="M240.9,184.3 L246.1,188.6 L251.4,192.9 L256.7,197.2 L261.9,201.5 L267.2,205.7 L272.4,210.1 L277.1,214.8 L280.8,221.1 L284.5,227.4 L288.2,233.7 L291.9,240.0" fill="none" stroke="#f43f5e" stroke-width="21" stroke-linecap="round" stroke-linejoin="round" opacity="0.95"/><path d="M240.9,184.3 L246.1,188.6 L251.4,192.9 L256.7,197.2 L261.9,201.5 L267.2,205.7 L272.4,210.1 L277.1,214.8 L280.8,221.1 L284.5,227.4 L288.2,233.7 L291.9,240.0" fill="none" stroke="#0c2020" stroke-width="13" stroke-linecap="round" stroke-linejoin="round" opacity="1.0"/><path d="M240.9,110.3 L240.9,117.0 L240.9,123.7 L240.9,130.5 L240.9,137.2 L240.9,143.9 L240.9,150.6 L240.9,157.4 L240.9,164.1 L240.9,170.8 L240.9,177.6 L240.9,184.3" fill="none" stroke="#2dd4bf" stroke-width="25" stroke-linecap="round" stroke-linejoin="round" opacity="0.95"/><path d="M240.9,110.3 L240.9,117.0 L240.9,123.7 L240.9,130.5 L240.9,137.2 L240.9,143.9 L240.9,150.6 L240.9,157.4 L240.9,164.1 L240.9,170.8 L240.9,177.6 L240.9,184.3" fill="none" stroke="#0c2020" stroke-width="17" stroke-linecap="round" stroke-linejoin="round" opacity="1.0"/><circle cx="242.9" cy="82.3" r="19.0" fill="#2dd4bf" stroke="none" stroke-width="0" opacity="0.95"/><circle cx="242.9" cy="82.3" r="15.0" fill="#0c2020" stroke="none" stroke-width="6.3" opacity="1.0"/><path d="M233.6,79.3 L235.3,79.3 L237.0,79.3 L238.7,79.3 L240.3,79.3 L242.0,79.3 L243.7,79.3 L245.4,79.3 L247.1,79.3 L248.8,79.3 L250.5,79.3 L252.2,79.3" fill="none" stroke="#a7f3ee" stroke-width="5" stroke-linecap="round" stroke-linejoin="round" opacity="1.0"/></g><g class="f4"><path d="M253.0,100.0 L253.7,106.1 L254.3,112.2 L255.0,118.2 L255.6,124.3 L256.3,130.4 L256.9,136.5 L256.6,142.6 L256.2,148.7 L255.8,154.8 L255.4,160.9 L255.0,167.0" fill="none" stroke="#2dd4bf" stroke-width="21" stroke-linecap="round" stroke-linejoin="round" opacity="0.95"/><path d="M253.0,100.0 L253.7,106.1 L254.3,112.2 L255.0,118.2 L255.6,124.3 L256.3,130.4 L256.9,136.5 L256.6,142.6 L256.2,148.7 L255.8,154.8 L255.4,160.9 L255.0,167.0" fill="none" stroke="#0c2020" stroke-width="13" stroke-linecap="round" stroke-linejoin="round" opacity="1.0"/><path d="M253.0,174.0 L251.9,182.3 L250.8,190.7 L249.7,199.0 L248.6,207.3 L247.6,215.7 L247.0,224.0 L247.0,232.4 L247.0,240.8 L247.0,249.2 L247.0,257.6 L247.0,266.0" fill="none" stroke="#8f2a3e" stroke-width="21" stroke-linecap="round" stroke-linejoin="round" opacity="0.95"/><path d="M253.0,174.0 L251.9,182.3 L250.8,190.7 L249.7,199.0 L248.6,207.3 L247.6,215.7 L247.0,224.0 L247.0,232.4 L247.0,240.8 L247.0,249.2 L247.0,257.6 L247.0,266.0" fill="none" stroke="#0c2020" stroke-width="13" stroke-linecap="round" stroke-linejoin="round" opacity="1.0"/><path d="M253.0,174.0 L257.2,179.4 L261.5,184.8 L265.7,190.3 L269.9,195.7 L274.2,201.1 L278.2,206.5 L281.7,212.3 L284.6,219.2 L287.4,226.1 L290.2,233.1 L293.0,240.0" fill="none" stroke="#f43f5e" stroke-width="21" stroke-linecap="round" stroke-linejoin="round" opacity="0.95"/><path d="M253.0,174.0 L257.2,179.4 L261.5,184.8 L265.7,190.3 L269.9,195.7 L274.2,201.1 L278.2,206.5 L281.7,212.3 L284.6,219.2 L287.4,226.1 L290.2,233.1 L293.0,240.0" fill="none" stroke="#0c2020" stroke-width="13" stroke-linecap="round" stroke-linejoin="round" opacity="1.0"/><path d="M253.0,100.0 L253.0,106.7 L253.0,113.5 L253.0,120.2 L253.0,126.9 L253.0,133.6 L253.0,140.4 L253.0,147.1 L253.0,153.8 L253.0,160.5 L253.0,167.3 L253.0,174.0" fill="none" stroke="#2dd4bf" stroke-width="25" stroke-linecap="round" stroke-linejoin="round" opacity="0.95"/><path d="M253.0,100.0 L253.0,106.7 L253.0,113.5 L253.0,120.2 L253.0,126.9 L253.0,133.6 L253.0,140.4 L253.0,147.1 L253.0,153.8 L253.0,160.5 L253.0,167.3 L253.0,174.0" fill="none" stroke="#0c2020" stroke-width="17" stroke-linecap="round" stroke-linejoin="round" opacity="1.0"/><circle cx="255.0" cy="72.0" r="19.0" fill="#2dd4bf" stroke="none" stroke-width="0" opacity="0.95"/><circle cx="255.0" cy="72.0" r="15.0" fill="#0c2020" stroke="none" stroke-width="6.3" opacity="1.0"/><path d="M245.7,69.0 L247.4,69.0 L249.1,69.0 L250.8,69.0 L252.5,69.0 L254.2,69.0 L255.8,69.0 L257.5,69.0 L259.2,69.0 L260.9,69.0 L262.6,69.0 L264.3,69.0" fill="none" stroke="#a7f3ee" stroke-width="5" stroke-linecap="round" stroke-linejoin="round" opacity="1.0"/></g><g class="f5"><path d="M265.1,89.7 L265.8,95.8 L266.4,101.9 L267.1,108.0 L267.7,114.0 L268.4,120.1 L269.1,126.2 L268.7,132.3 L268.3,138.4 L267.9,144.5 L267.5,150.6 L267.1,156.7" fill="none" stroke="#2dd4bf" stroke-width="21" stroke-linecap="round" stroke-linejoin="round" opacity="0.95"/><path d="M265.1,89.7 L265.8,95.8 L266.4,101.9 L267.1,108.0 L267.7,114.0 L268.4,120.1 L269.1,126.2 L268.7,132.3 L268.3,138.4 L267.9,144.5 L267.5,150.6 L267.1,156.7" fill="none" stroke="#0c2020" stroke-width="13" stroke-linecap="round" stroke-linejoin="round" opacity="1.0"/><path d="M265.1,163.7 L264.0,172.1 L263.0,180.5 L261.9,188.9 L260.8,197.3 L259.7,205.7 L259.1,214.1 L259.3,222.6 L259.4,231.1 L259.6,239.5 L259.7,248.0 L259.9,256.5" fill="none" stroke="#8f2a3e" stroke-width="21" stroke-linecap="round" stroke-linejoin="round" opacity="0.95"/><path d="M265.1,163.7 L264.0,172.1 L263.0,180.5 L261.9,188.9 L260.8,197.3 L259.7,205.7 L259.1,214.1 L259.3,222.6 L259.4,231.1 L259.6,239.5 L259.7,248.0 L259.9,256.5" fill="none" stroke="#0c2020" stroke-width="13" stroke-linecap="round" stroke-linejoin="round" opacity="1.0"/><path d="M265.1,163.7 L268.3,170.3 L271.5,176.8 L274.7,183.4 L277.9,189.9 L281.1,196.5 L284.1,203.0 L286.4,209.8 L288.3,217.4 L290.3,224.9 L292.2,232.5 L294.1,240.0" fill="none" stroke="#f43f5e" stroke-width="21" stroke-linecap="round" stroke-linejoin="round" opacity="0.95"/><path d="M265.1,163.7 L268.3,170.3 L271.5,176.8 L274.7,183.4 L277.9,189.9 L281.1,196.5 L284.1,203.0 L286.4,209.8 L288.3,217.4 L290.3,224.9 L292.2,232.5 L294.1,240.0" fill="none" stroke="#0c2020" stroke-width="13" stroke-linecap="round" stroke-linejoin="round" opacity="1.0"/><path d="M265.1,89.7 L265.1,96.4 L265.1,103.2 L265.1,109.9 L265.1,116.6 L265.1,123.4 L265.1,130.1 L265.1,136.8 L265.1,143.5 L265.1,150.3 L265.1,157.0 L265.1,163.7" fill="none" stroke="#2dd4bf" stroke-width="25" stroke-linecap="round" stroke-linejoin="round" opacity="0.95"/><path d="M265.1,89.7 L265.1,96.4 L265.1,103.2 L265.1,109.9 L265.1,116.6 L265.1,123.4 L265.1,130.1 L265.1,136.8 L265.1,143.5 L265.1,150.3 L265.1,157.0 L265.1,163.7" fill="none" stroke="#0c2020" stroke-width="17" stroke-linecap="round" stroke-linejoin="round" opacity="1.0"/><circle cx="267.1" cy="61.7" r="19.0" fill="#2dd4bf" stroke="none" stroke-width="0" opacity="0.95"/><circle cx="267.1" cy="61.7" r="15.0" fill="#0c2020" stroke="none" stroke-width="6.3" opacity="1.0"/><path d="M257.8,58.7 L259.5,58.7 L261.2,58.7 L262.9,58.7 L264.6,58.7 L266.3,58.7 L268.0,58.7 L269.7,58.7 L271.3,58.7 L273.0,58.7 L274.7,58.7 L276.4,58.7" fill="none" stroke="#a7f3ee" stroke-width="5" stroke-linecap="round" stroke-linejoin="round" opacity="1.0"/></g><g class="f6"><path d="M275.7,80.8 L276.3,86.8 L277.0,92.9 L277.7,99.0 L278.3,105.1 L279.0,111.2 L279.6,117.2 L279.3,123.3 L278.9,129.4 L278.5,135.5 L278.1,141.6 L277.7,147.8" fill="none" stroke="#2dd4bf" stroke-width="21" stroke-linecap="round" stroke-linejoin="round" opacity="0.95"/><path d="M275.7,80.8 L276.3,86.8 L277.0,92.9 L277.7,99.0 L278.3,105.1 L279.0,111.2 L279.6,117.2 L279.3,123.3 L278.9,129.4 L278.5,135.5 L278.1,141.6 L277.7,147.8" fill="none" stroke="#0c2020" stroke-width="13" stroke-linecap="round" stroke-linejoin="round" opacity="1.0"/><path d="M275.7,154.8 L274.6,163.2 L273.5,171.7 L272.5,180.1 L271.4,188.6 L270.3,197.0 L269.8,205.5 L270.0,214.0 L270.3,222.6 L270.5,231.1 L270.8,239.6 L271.1,248.1" fill="none" stroke="#8f2a3e" stroke-width="21" stroke-linecap="round" stroke-linejoin="round" opacity="0.95"/><path d="M275.7,154.8 L274.6,163.2 L273.5,171.7 L272.5,180.1 L271.4,188.6 L270.3,197.0 L269.8,205.5 L270.0,214.0 L270.3,222.6 L270.5,231.1 L270.8,239.6 L271.1,248.1" fill="none" stroke="#0c2020" stroke-width="13" stroke-linecap="round" stroke-linejoin="round" opacity="1.0"/><path d="M275.7,154.8 L278.0,162.3 L280.3,169.8 L282.6,177.3 L284.9,184.9 L287.2,192.4 L289.2,200.0 L290.5,207.7 L291.7,215.8 L292.8,223.8 L293.9,231.9 L295.1,240.0" fill="none" stroke="#f43f5e" stroke-width="21" stroke-linecap="round" stroke-linejoin="round" opacity="0.95"/><path d="M275.7,154.8 L278.0,162.3 L280.3,169.8 L282.6,177.3 L284.9,184.9 L287.2,192.4 L289.2,200.0 L290.5,207.7 L291.7,215.8 L292.8,223.8 L293.9,231.9 L295.1,240.0" fill="none" stroke="#0c2020" stroke-width="13" stroke-linecap="round" stroke-linejoin="round" opacity="1.0"/><path d="M275.7,80.8 L275.7,87.5 L275.7,94.2 L275.7,100.9 L275.7,107.7 L275.7,114.4 L275.7,121.1 L275.7,127.8 L275.7,134.6 L275.7,141.3 L275.7,148.0 L275.7,154.8" fill="none" stroke="#2dd4bf" stroke-width="25" stroke-linecap="round" stroke-linejoin="round" opacity="0.95"/><path d="M275.7,80.8 L275.7,87.5 L275.7,94.2 L275.7,100.9 L275.7,107.7 L275.7,114.4 L275.7,121.1 L275.7,127.8 L275.7,134.6 L275.7,141.3 L275.7,148.0 L275.7,154.8" fill="none" stroke="#0c2020" stroke-width="17" stroke-linecap="round" stroke-linejoin="round" opacity="1.0"/><circle cx="277.7" cy="52.8" r="19.0" fill="#2dd4bf" stroke="none" stroke-width="0" opacity="0.95"/><circle cx="277.7" cy="52.8" r="15.0" fill="#0c2020" stroke="none" stroke-width="6.3" opacity="1.0"/><path d="M268.4,49.8 L270.1,49.8 L271.8,49.8 L273.5,49.8 L275.2,49.8 L276.8,49.8 L278.5,49.8 L280.2,49.8 L281.9,49.8 L283.6,49.8 L285.3,49.8 L287.0,49.8" fill="none" stroke="#a7f3ee" stroke-width="5" stroke-linecap="round" stroke-linejoin="round" opacity="1.0"/></g><g class="f7"><path d="M283.2,74.4 L283.8,80.5 L284.5,86.6 L285.1,92.6 L285.8,98.7 L286.5,104.8 L287.1,110.9 L286.8,117.0 L286.4,123.1 L286.0,129.2 L285.6,135.3 L285.2,141.4" fill="none" stroke="#2dd4bf" stroke-width="21" stroke-linecap="round" stroke-linejoin="round" opacity="0.95"/><path d="M283.2,74.4 L283.8,80.5 L284.5,86.6 L285.1,92.6 L285.8,98.7 L286.5,104.8 L287.1,110.9 L286.8,117.0 L286.4,123.1 L286.0,129.2 L285.6,135.3 L285.2,141.4" fill="none" stroke="#0c2020" stroke-width="13" stroke-linecap="round" stroke-linejoin="round" opacity="1.0"/><path d="M283.2,148.4 L282.1,156.9 L281.0,165.4 L280.0,173.9 L278.9,182.4 L277.8,190.9 L277.3,199.4 L277.6,208.0 L278.0,216.6 L278.3,225.1 L278.7,233.7 L279.0,242.2" fill="none" stroke="#8f2a3e" stroke-width="21" stroke-linecap="round" stroke-linejoin="round" opacity="0.95"/><path d="M283.2,148.4 L282.1,156.9 L281.0,165.4 L280.0,173.9 L278.9,182.4 L277.8,190.9 L277.3,199.4 L277.6,208.0 L278.0,216.6 L278.3,225.1 L278.7,233.7 L279.0,242.2" fill="none" stroke="#0c2020" stroke-width="13" stroke-linecap="round" stroke-linejoin="round" opacity="1.0"/><path d="M283.2,148.4 L284.8,156.6 L286.5,164.9 L288.1,173.1 L289.8,181.3 L291.5,189.5 L292.8,197.8 L293.4,206.2 L294.0,214.6 L294.6,223.1 L295.2,231.5 L295.7,240.0" fill="none" stroke="#f43f5e" stroke-width="21" stroke-linecap="round" stroke-linejoin="round" opacity="0.95"/><path d="M283.2,148.4 L284.8,156.6 L286.5,164.9 L288.1,173.1 L289.8,181.3 L291.5,189.5 L292.8,197.8 L293.4,206.2 L294.0,214.6 L294.6,223.1 L295.2,231.5 L295.7,240.0" fill="none" stroke="#0c2020" stroke-width="13" stroke-linecap="round" stroke-linejoin="round" opacity="1.0"/><path d="M283.2,74.4 L283.2,81.1 L283.2,87.9 L283.2,94.6 L283.2,101.3 L283.2,108.0 L283.2,114.8 L283.2,121.5 L283.2,128.2 L283.2,135.0 L283.2,141.7 L283.2,148.4" fill="none" stroke="#2dd4bf" stroke-width="25" stroke-linecap="round" stroke-linejoin="round" opacity="0.95"/><path d="M283.2,74.4 L283.2,81.1 L283.2,87.9 L283.2,94.6 L283.2,101.3 L283.2,108.0 L283.2,114.8 L283.2,121.5 L283.2,128.2 L283.2,135.0 L283.2,141.7 L283.2,148.4" fill="none" stroke="#0c2020" stroke-width="17" stroke-linecap="round" stroke-linejoin="round" opacity="1.0"/><circle cx="285.2" cy="46.4" r="19.0" fill="#2dd4bf" stroke="none" stroke-width="0" opacity="0.95"/><circle cx="285.2" cy="46.4" r="15.0" fill="#0c2020" stroke="none" stroke-width="6.3" opacity="1.0"/><path d="M275.9,43.4 L277.6,43.4 L279.2,43.4 L280.9,43.4 L282.6,43.4 L284.3,43.4 L286.0,43.4 L287.7,43.4 L289.4,43.4 L291.1,43.4 L292.8,43.4 L294.5,43.4" fill="none" stroke="#a7f3ee" stroke-width="5" stroke-linecap="round" stroke-linejoin="round" opacity="1.0"/></g><g class="f8"><path d="M286.0,72.0 L286.7,78.1 L287.3,84.2 L288.0,90.2 L288.6,96.3 L289.3,102.4 L289.9,108.5 L289.6,114.6 L289.2,120.7 L288.8,126.8 L288.4,132.9 L288.0,139.0" fill="none" stroke="#2dd4bf" stroke-width="21" stroke-linecap="round" stroke-linejoin="round" opacity="0.95"/><path d="M286.0,72.0 L286.7,78.1 L287.3,84.2 L288.0,90.2 L288.6,96.3 L289.3,102.4 L289.9,108.5 L289.6,114.6 L289.2,120.7 L288.8,126.8 L288.4,132.9 L288.0,139.0" fill="none" stroke="#0c2020" stroke-width="13" stroke-linecap="round" stroke-linejoin="round" opacity="1.0"/><path d="M286.0,146.0 L284.9,154.5 L283.9,163.0 L282.8,171.6 L281.7,180.1 L280.7,188.6 L280.1,197.1 L280.5,205.7 L280.9,214.3 L281.3,222.8 L281.6,231.4 L282.0,240.0" fill="none" stroke="#8f2a3e" stroke-width="21" stroke-linecap="round" stroke-linejoin="round" opacity="0.95"/><path d="M286.0,146.0 L284.9,154.5 L283.9,163.0 L282.8,171.6 L281.7,180.1 L280.7,188.6 L280.1,197.1 L280.5,205.7 L280.9,214.3 L281.3,222.8 L281.6,231.4 L282.0,240.0" fill="none" stroke="#0c2020" stroke-width="13" stroke-linecap="round" stroke-linejoin="round" opacity="1.0"/><path d="M286.0,146.0 L287.4,154.5 L288.8,163.0 L290.2,171.5 L291.7,180.0 L293.1,188.5 L294.1,197.0 L294.5,205.6 L294.9,214.2 L295.3,222.8 L295.6,231.4 L296.0,240.0" fill="none" stroke="#f43f5e" stroke-width="21" stroke-linecap="round" stroke-linejoin="round" opacity="0.95"/><path d="M286.0,146.0 L287.4,154.5 L288.8,163.0 L290.2,171.5 L291.7,180.0 L293.1,188.5 L294.1,197.0 L294.5,205.6 L294.9,214.2 L295.3,222.8 L295.6,231.4 L296.0,240.0" fill="none" stroke="#0c2020" stroke-width="13" stroke-linecap="round" stroke-linejoin="round" opacity="1.0"/><path d="M286.0,72.0 L286.0,78.7 L286.0,85.5 L286.0,92.2 L286.0,98.9 L286.0,105.6 L286.0,112.4 L286.0,119.1 L286.0,125.8 L286.0,132.5 L286.0,139.3 L286.0,146.0" fill="none" stroke="#2dd4bf" stroke-width="25" stroke-linecap="round" stroke-linejoin="round" opacity="0.95"/><path d="M286.0,72.0 L286.0,78.7 L286.0,85.5 L286.0,92.2 L286.0,98.9 L286.0,105.6 L286.0,112.4 L286.0,119.1 L286.0,125.8 L286.0,132.5 L286.0,139.3 L286.0,146.0" fill="none" stroke="#0c2020" stroke-width="17" stroke-linecap="round" stroke-linejoin="round" opacity="1.0"/><circle cx="288.0" cy="44.0" r="19.0" fill="#2dd4bf" stroke="none" stroke-width="0" opacity="0.95"/><circle cx="288.0" cy="44.0" r="15.0" fill="#0c2020" stroke="none" stroke-width="6.3" opacity="1.0"/><path d="M278.7,41.0 L280.4,41.0 L282.1,41.0 L283.8,41.0 L285.5,41.0 L287.2,41.0 L288.8,41.0 L290.5,41.0 L292.2,41.0 L293.9,41.0 L295.6,41.0 L297.3,41.0" fill="none" stroke="#a7f3ee" stroke-width="5" stroke-linecap="round" stroke-linejoin="round" opacity="1.0"/></g><g class="f9"><path d="M283.2,74.4 L283.8,80.5 L284.5,86.6 L285.1,92.6 L285.8,98.7 L286.5,104.8 L287.1,110.9 L286.8,117.0 L286.4,123.1 L286.0,129.2 L285.6,135.3 L285.2,141.4" fill="none" stroke="#2dd4bf" stroke-width="21" stroke-linecap="round" stroke-linejoin="round" opacity="0.95"/><path d="M283.2,74.4 L283.8,80.5 L284.5,86.6 L285.1,92.6 L285.8,98.7 L286.5,104.8 L287.1,110.9 L286.8,117.0 L286.4,123.1 L286.0,129.2 L285.6,135.3 L285.2,141.4" fill="none" stroke="#0c2020" stroke-width="13" stroke-linecap="round" stroke-linejoin="round" opacity="1.0"/><path d="M283.2,148.4 L282.1,156.9 L281.0,165.4 L280.0,173.9 L278.9,182.4 L277.8,190.9 L277.3,199.4 L277.6,208.0 L278.0,216.6 L278.3,225.1 L278.7,233.7 L279.0,242.2" fill="none" stroke="#8f2a3e" stroke-width="21" stroke-linecap="round" stroke-linejoin="round" opacity="0.95"/><path d="M283.2,148.4 L282.1,156.9 L281.0,165.4 L280.0,173.9 L278.9,182.4 L277.8,190.9 L277.3,199.4 L277.6,208.0 L278.0,216.6 L278.3,225.1 L278.7,233.7 L279.0,242.2" fill="none" stroke="#0c2020" stroke-width="13" stroke-linecap="round" stroke-linejoin="round" opacity="1.0"/><path d="M283.2,148.4 L284.8,156.6 L286.5,164.9 L288.1,173.1 L289.8,181.3 L291.5,189.5 L292.8,197.8 L293.4,206.2 L294.0,214.6 L294.6,223.1 L295.2,231.5 L295.7,240.0" fill="none" stroke="#f43f5e" stroke-width="21" stroke-linecap="round" stroke-linejoin="round" opacity="0.95"/><path d="M283.2,148.4 L284.8,156.6 L286.5,164.9 L288.1,173.1 L289.8,181.3 L291.5,189.5 L292.8,197.8 L293.4,206.2 L294.0,214.6 L294.6,223.1 L295.2,231.5 L295.7,240.0" fill="none" stroke="#0c2020" stroke-width="13" stroke-linecap="round" stroke-linejoin="round" opacity="1.0"/><path d="M283.2,74.4 L283.2,81.1 L283.2,87.9 L283.2,94.6 L283.2,101.3 L283.2,108.0 L283.2,114.8 L283.2,121.5 L283.2,128.2 L283.2,135.0 L283.2,141.7 L283.2,148.4" fill="none" stroke="#2dd4bf" stroke-width="25" stroke-linecap="round" stroke-linejoin="round" opacity="0.95"/><path d="M283.2,74.4 L283.2,81.1 L283.2,87.9 L283.2,94.6 L283.2,101.3 L283.2,108.0 L283.2,114.8 L283.2,121.5 L283.2,128.2 L283.2,135.0 L283.2,141.7 L283.2,148.4" fill="none" stroke="#0c2020" stroke-width="17" stroke-linecap="round" stroke-linejoin="round" opacity="1.0"/><circle cx="285.2" cy="46.4" r="19.0" fill="#2dd4bf" stroke="none" stroke-width="0" opacity="0.95"/><circle cx="285.2" cy="46.4" r="15.0" fill="#0c2020" stroke="none" stroke-width="6.3" opacity="1.0"/><path d="M275.9,43.4 L277.6,43.4 L279.2,43.4 L280.9,43.4 L282.6,43.4 L284.3,43.4 L286.0,43.4 L287.7,43.4 L289.4,43.4 L291.1,43.4 L292.8,43.4 L294.5,43.4" fill="none" stroke="#a7f3ee" stroke-width="5" stroke-linecap="round" stroke-linejoin="round" opacity="1.0"/></g><g class="f10"><path d="M275.7,80.8 L276.3,86.8 L277.0,92.9 L277.7,99.0 L278.3,105.1 L279.0,111.2 L279.6,117.2 L279.3,123.3 L278.9,129.4 L278.5,135.5 L278.1,141.6 L277.7,147.8" fill="none" stroke="#2dd4bf" stroke-width="21" stroke-linecap="round" stroke-linejoin="round" opacity="0.95"/><path d="M275.7,80.8 L276.3,86.8 L277.0,92.9 L277.7,99.0 L278.3,105.1 L279.0,111.2 L279.6,117.2 L279.3,123.3 L278.9,129.4 L278.5,135.5 L278.1,141.6 L277.7,147.8" fill="none" stroke="#0c2020" stroke-width="13" stroke-linecap="round" stroke-linejoin="round" opacity="1.0"/><path d="M275.7,154.8 L274.6,163.2 L273.5,171.7 L272.5,180.1 L271.4,188.6 L270.3,197.0 L269.8,205.5 L270.0,214.0 L270.3,222.6 L270.5,231.1 L270.8,239.6 L271.1,248.1" fill="none" stroke="#8f2a3e" stroke-width="21" stroke-linecap="round" stroke-linejoin="round" opacity="0.95"/><path d="M275.7,154.8 L274.6,163.2 L273.5,171.7 L272.5,180.1 L271.4,188.6 L270.3,197.0 L269.8,205.5 L270.0,214.0 L270.3,222.6 L270.5,231.1 L270.8,239.6 L271.1,248.1" fill="none" stroke="#0c2020" stroke-width="13" stroke-linecap="round" stroke-linejoin="round" opacity="1.0"/><path d="M275.7,154.8 L278.0,162.3 L280.3,169.8 L282.6,177.3 L284.9,184.9 L287.2,192.4 L289.2,200.0 L290.5,207.7 L291.7,215.8 L292.8,223.8 L293.9,231.9 L295.1,240.0" fill="none" stroke="#f43f5e" stroke-width="21" stroke-linecap="round" stroke-linejoin="round" opacity="0.95"/><path d="M275.7,154.8 L278.0,162.3 L280.3,169.8 L282.6,177.3 L284.9,184.9 L287.2,192.4 L289.2,200.0 L290.5,207.7 L291.7,215.8 L292.8,223.8 L293.9,231.9 L295.1,240.0" fill="none" stroke="#0c2020" stroke-width="13" stroke-linecap="round" stroke-linejoin="round" opacity="1.0"/><path d="M275.7,80.8 L275.7,87.5 L275.7,94.2 L275.7,100.9 L275.7,107.7 L275.7,114.4 L275.7,121.1 L275.7,127.8 L275.7,134.6 L275.7,141.3 L275.7,148.0 L275.7,154.8" fill="none" stroke="#2dd4bf" stroke-width="25" stroke-linecap="round" stroke-linejoin="round" opacity="0.95"/><path d="M275.7,80.8 L275.7,87.5 L275.7,94.2 L275.7,100.9 L275.7,107.7 L275.7,114.4 L275.7,121.1 L275.7,127.8 L275.7,134.6 L275.7,141.3 L275.7,148.0 L275.7,154.8" fill="none" stroke="#0c2020" stroke-width="17" stroke-linecap="round" stroke-linejoin="round" opacity="1.0"/><circle cx="277.7" cy="52.8" r="19.0" fill="#2dd4bf" stroke="none" stroke-width="0" opacity="0.95"/><circle cx="277.7" cy="52.8" r="15.0" fill="#0c2020" stroke="none" stroke-width="6.3" opacity="1.0"/><path d="M268.4,49.8 L270.1,49.8 L271.8,49.8 L273.5,49.8 L275.2,49.8 L276.8,49.8 L278.5,49.8 L280.2,49.8 L281.9,49.8 L283.6,49.8 L285.3,49.8 L287.0,49.8" fill="none" stroke="#a7f3ee" stroke-width="5" stroke-linecap="round" stroke-linejoin="round" opacity="1.0"/></g><g class="f11"><path d="M265.1,89.7 L265.8,95.8 L266.4,101.9 L267.1,108.0 L267.7,114.0 L268.4,120.1 L269.1,126.2 L268.7,132.3 L268.3,138.4 L267.9,144.5 L267.5,150.6 L267.1,156.7" fill="none" stroke="#2dd4bf" stroke-width="21" stroke-linecap="round" stroke-linejoin="round" opacity="0.95"/><path d="M265.1,89.7 L265.8,95.8 L266.4,101.9 L267.1,108.0 L267.7,114.0 L268.4,120.1 L269.1,126.2 L268.7,132.3 L268.3,138.4 L267.9,144.5 L267.5,150.6 L267.1,156.7" fill="none" stroke="#0c2020" stroke-width="13" stroke-linecap="round" stroke-linejoin="round" opacity="1.0"/><path d="M265.1,163.7 L264.0,172.1 L263.0,180.5 L261.9,188.9 L260.8,197.3 L259.7,205.7 L259.1,214.1 L259.3,222.6 L259.4,231.1 L259.6,239.5 L259.7,248.0 L259.9,256.5" fill="none" stroke="#8f2a3e" stroke-width="21" stroke-linecap="round" stroke-linejoin="round" opacity="0.95"/><path d="M265.1,163.7 L264.0,172.1 L263.0,180.5 L261.9,188.9 L260.8,197.3 L259.7,205.7 L259.1,214.1 L259.3,222.6 L259.4,231.1 L259.6,239.5 L259.7,248.0 L259.9,256.5" fill="none" stroke="#0c2020" stroke-width="13" stroke-linecap="round" stroke-linejoin="round" opacity="1.0"/><path d="M265.1,163.7 L268.3,170.3 L271.5,176.8 L274.7,183.4 L277.9,189.9 L281.1,196.5 L284.1,203.0 L286.4,209.8 L288.3,217.4 L290.3,224.9 L292.2,232.5 L294.1,240.0" fill="none" stroke="#f43f5e" stroke-width="21" stroke-linecap="round" stroke-linejoin="round" opacity="0.95"/><path d="M265.1,163.7 L268.3,170.3 L271.5,176.8 L274.7,183.4 L277.9,189.9 L281.1,196.5 L284.1,203.0 L286.4,209.8 L288.3,217.4 L290.3,224.9 L292.2,232.5 L294.1,240.0" fill="none" stroke="#0c2020" stroke-width="13" stroke-linecap="round" stroke-linejoin="round" opacity="1.0"/><path d="M265.1,89.7 L265.1,96.4 L265.1,103.2 L265.1,109.9 L265.1,116.6 L265.1,123.4 L265.1,130.1 L265.1,136.8 L265.1,143.5 L265.1,150.3 L265.1,157.0 L265.1,163.7" fill="none" stroke="#2dd4bf" stroke-width="25" stroke-linecap="round" stroke-linejoin="round" opacity="0.95"/><path d="M265.1,89.7 L265.1,96.4 L265.1,103.2 L265.1,109.9 L265.1,116.6 L265.1,123.4 L265.1,130.1 L265.1,136.8 L265.1,143.5 L265.1,150.3 L265.1,157.0 L265.1,163.7" fill="none" stroke="#0c2020" stroke-width="17" stroke-linecap="round" stroke-linejoin="round" opacity="1.0"/><circle cx="267.1" cy="61.7" r="19.0" fill="#2dd4bf" stroke="none" stroke-width="0" opacity="0.95"/><circle cx="267.1" cy="61.7" r="15.0" fill="#0c2020" stroke="none" stroke-width="6.3" opacity="1.0"/><path d="M257.8,58.7 L259.5,58.7 L261.2,58.7 L262.9,58.7 L264.6,58.7 L266.3,58.7 L268.0,58.7 L269.7,58.7 L271.3,58.7 L273.0,58.7 L274.7,58.7 L276.4,58.7" fill="none" stroke="#a7f3ee" stroke-width="5" stroke-linecap="round" stroke-linejoin="round" opacity="1.0"/></g><g class="f12"><path d="M253.0,100.0 L253.7,106.1 L254.3,112.2 L255.0,118.2 L255.6,124.3 L256.3,130.4 L256.9,136.5 L256.6,142.6 L256.2,148.7 L255.8,154.8 L255.4,160.9 L255.0,167.0" fill="none" stroke="#2dd4bf" stroke-width="21" stroke-linecap="round" stroke-linejoin="round" opacity="0.95"/><path d="M253.0,100.0 L253.7,106.1 L254.3,112.2 L255.0,118.2 L255.6,124.3 L256.3,130.4 L256.9,136.5 L256.6,142.6 L256.2,148.7 L255.8,154.8 L255.4,160.9 L255.0,167.0" fill="none" stroke="#0c2020" stroke-width="13" stroke-linecap="round" stroke-linejoin="round" opacity="1.0"/><path d="M253.0,174.0 L251.9,182.3 L250.8,190.7 L249.7,199.0 L248.6,207.3 L247.6,215.7 L247.0,224.0 L247.0,232.4 L247.0,240.8 L247.0,249.2 L247.0,257.6 L247.0,266.0" fill="none" stroke="#8f2a3e" stroke-width="21" stroke-linecap="round" stroke-linejoin="round" opacity="0.95"/><path d="M253.0,174.0 L251.9,182.3 L250.8,190.7 L249.7,199.0 L248.6,207.3 L247.6,215.7 L247.0,224.0 L247.0,232.4 L247.0,240.8 L247.0,249.2 L247.0,257.6 L247.0,266.0" fill="none" stroke="#0c2020" stroke-width="13" stroke-linecap="round" stroke-linejoin="round" opacity="1.0"/><path d="M253.0,174.0 L257.2,179.4 L261.5,184.8 L265.7,190.3 L269.9,195.7 L274.2,201.1 L278.2,206.5 L281.7,212.3 L284.6,219.2 L287.4,226.1 L290.2,233.1 L293.0,240.0" fill="none" stroke="#f43f5e" stroke-width="21" stroke-linecap="round" stroke-linejoin="round" opacity="0.95"/><path d="M253.0,174.0 L257.2,179.4 L261.5,184.8 L265.7,190.3 L269.9,195.7 L274.2,201.1 L278.2,206.5 L281.7,212.3 L284.6,219.2 L287.4,226.1 L290.2,233.1 L293.0,240.0" fill="none" stroke="#0c2020" stroke-width="13" stroke-linecap="round" stroke-linejoin="round" opacity="1.0"/><path d="M253.0,100.0 L253.0,106.7 L253.0,113.5 L253.0,120.2 L253.0,126.9 L253.0,133.6 L253.0,140.4 L253.0,147.1 L253.0,153.8 L253.0,160.5 L253.0,167.3 L253.0,174.0" fill="none" stroke="#2dd4bf" stroke-width="25" stroke-linecap="round" stroke-linejoin="round" opacity="0.95"/><path d="M253.0,100.0 L253.0,106.7 L253.0,113.5 L253.0,120.2 L253.0,126.9 L253.0,133.6 L253.0,140.4 L253.0,147.1 L253.0,153.8 L253.0,160.5 L253.0,167.3 L253.0,174.0" fill="none" stroke="#0c2020" stroke-width="17" stroke-linecap="round" stroke-linejoin="round" opacity="1.0"/><circle cx="255.0" cy="72.0" r="19.0" fill="#2dd4bf" stroke="none" stroke-width="0" opacity="0.95"/><circle cx="255.0" cy="72.0" r="15.0" fill="#0c2020" stroke="none" stroke-width="6.3" opacity="1.0"/><path d="M245.7,69.0 L247.4,69.0 L249.1,69.0 L250.8,69.0 L252.5,69.0 L254.2,69.0 L255.8,69.0 L257.5,69.0 L259.2,69.0 L260.9,69.0 L262.6,69.0 L264.3,69.0" fill="none" stroke="#a7f3ee" stroke-width="5" stroke-linecap="round" stroke-linejoin="round" opacity="1.0"/></g><g class="f13"><path d="M240.9,110.3 L241.5,116.4 L242.2,122.4 L242.9,128.5 L243.5,134.6 L244.2,140.7 L244.8,146.8 L244.5,152.9 L244.1,159.0 L243.7,165.1 L243.3,171.2 L242.9,177.3" fill="none" stroke="#2dd4bf" stroke-width="21" stroke-linecap="round" stroke-linejoin="round" opacity="0.95"/><path d="M240.9,110.3 L241.5,116.4 L242.2,122.4 L242.9,128.5 L243.5,134.6 L244.2,140.7 L244.8,146.8 L244.5,152.9 L244.1,159.0 L243.7,165.1 L243.3,171.2 L242.9,177.3" fill="none" stroke="#0c2020" stroke-width="13" stroke-linecap="round" stroke-linejoin="round" opacity="1.0"/><path d="M240.9,184.3 L239.8,192.5 L238.7,200.8 L237.6,209.1 L236.5,217.3 L235.4,225.6 L234.8,233.9 L234.7,242.2 L234.5,250.6 L234.4,258.9 L234.3,267.2 L234.1,275.5" fill="none" stroke="#8f2a3e" stroke-width="21" stroke-linecap="round" stroke-linejoin="round" opacity="0.95"/><path d="M240.9,184.3 L239.8,192.5 L238.7,200.8 L237.6,209.1 L236.5,217.3 L235.4,225.6 L234.8,233.9 L234.7,242.2 L234.5,250.6 L234.4,258.9 L234.3,267.2 L234.1,275.5" fill="none" stroke="#0c2020" stroke-width="13" stroke-linecap="round" stroke-linejoin="round" opacity="1.0"/><path d="M240.9,184.3 L246.1,188.6 L251.4,192.9 L256.7,197.2 L261.9,201.5 L267.2,205.7 L272.4,210.1 L277.1,214.8 L280.8,221.1 L284.5,227.4 L288.2,233.7 L291.9,240.0" fill="none" stroke="#f43f5e" stroke-width="21" stroke-linecap="round" stroke-linejoin="round" opacity="0.95"/><path d="M240.9,184.3 L246.1,188.6 L251.4,192.9 L256.7,197.2 L261.9,201.5 L267.2,205.7 L272.4,210.1 L277.1,214.8 L280.8,221.1 L284.5,227.4 L288.2,233.7 L291.9,240.0" fill="none" stroke="#0c2020" stroke-width="13" stroke-linecap="round" stroke-linejoin="round" opacity="1.0"/><path d="M240.9,110.3 L240.9,117.0 L240.9,123.7 L240.9,130.5 L240.9,137.2 L240.9,143.9 L240.9,150.6 L240.9,157.4 L240.9,164.1 L240.9,170.8 L240.9,177.6 L240.9,184.3" fill="none" stroke="#2dd4bf" stroke-width="25" stroke-linecap="round" stroke-linejoin="round" opacity="0.95"/><path d="M240.9,110.3 L240.9,117.0 L240.9,123.7 L240.9,130.5 L240.9,137.2 L240.9,143.9 L240.9,150.6 L240.9,157.4 L240.9,164.1 L240.9,170.8 L240.9,177.6 L240.9,184.3" fill="none" stroke="#0c2020" stroke-width="17" stroke-linecap="round" stroke-linejoin="round" opacity="1.0"/><circle cx="242.9" cy="82.3" r="19.0" fill="#2dd4bf" stroke="none" stroke-width="0" opacity="0.95"/><circle cx="242.9" cy="82.3" r="15.0" fill="#0c2020" stroke="none" stroke-width="6.3" opacity="1.0"/><path d="M233.6,79.3 L235.3,79.3 L237.0,79.3 L238.7,79.3 L240.3,79.3 L242.0,79.3 L243.7,79.3 L245.4,79.3 L247.1,79.3 L248.8,79.3 L250.5,79.3 L252.2,79.3" fill="none" stroke="#a7f3ee" stroke-width="5" stroke-linecap="round" stroke-linejoin="round" opacity="1.0"/></g><g class="f14"><path d="M230.3,119.2 L231.0,125.3 L231.6,131.4 L232.3,137.5 L232.9,143.6 L233.6,149.7 L234.3,155.7 L233.9,161.8 L233.5,167.9 L233.1,174.0 L232.7,180.1 L232.3,186.2" fill="none" stroke="#2dd4bf" stroke-width="21" stroke-linecap="round" stroke-linejoin="round" opacity="0.95"/><path d="M230.3,119.2 L231.0,125.3 L231.6,131.4 L232.3,137.5 L232.9,143.6 L233.6,149.7 L234.3,155.7 L233.9,161.8 L233.5,167.9 L233.1,174.0 L232.7,180.1 L232.3,186.2" fill="none" stroke="#0c2020" stroke-width="13" stroke-linecap="round" stroke-linejoin="round" opacity="1.0"/><path d="M230.3,193.2 L229.2,201.5 L228.1,209.7 L227.0,217.9 L225.9,226.1 L224.8,234.3 L224.2,242.5 L223.9,250.8 L223.7,259.1 L223.4,267.3 L223.2,275.6 L222.9,283.9" fill="none" stroke="#8f2a3e" stroke-width="21" stroke-linecap="round" stroke-linejoin="round" opacity="0.95"/><path d="M230.3,193.2 L229.2,201.5 L228.1,209.7 L227.0,217.9 L225.9,226.1 L224.8,234.3 L224.2,242.5 L223.9,250.8 L223.7,259.1 L223.4,267.3 L223.2,275.6 L222.9,283.9" fill="none" stroke="#0c2020" stroke-width="13" stroke-linecap="round" stroke-linejoin="round" opacity="1.0"/><path d="M230.3,193.2 L236.5,196.6 L242.6,199.9 L248.8,203.2 L255.0,206.5 L261.1,209.8 L267.3,213.1 L273.0,216.9 L277.5,222.7 L282.0,228.4 L286.4,234.2 L290.9,240.0" fill="none" stroke="#f43f5e" stroke-width="21" stroke-linecap="round" stroke-linejoin="round" opacity="0.95"/><path d="M230.3,193.2 L236.5,196.6 L242.6,199.9 L248.8,203.2 L255.0,206.5 L261.1,209.8 L267.3,213.1 L273.0,216.9 L277.5,222.7 L282.0,228.4 L286.4,234.2 L290.9,240.0" fill="none" stroke="#0c2020" stroke-width="13" stroke-linecap="round" stroke-linejoin="round" opacity="1.0"/><path d="M230.3,119.2 L230.3,126.0 L230.3,132.7 L230.3,139.4 L230.3,146.2 L230.3,152.9 L230.3,159.6 L230.3,166.3 L230.3,173.1 L230.3,179.8 L230.3,186.5 L230.3,193.2" fill="none" stroke="#2dd4bf" stroke-width="25" stroke-linecap="round" stroke-linejoin="round" opacity="0.95"/><path d="M230.3,119.2 L230.3,126.0 L230.3,132.7 L230.3,139.4 L230.3,146.2 L230.3,152.9 L230.3,159.6 L230.3,166.3 L230.3,173.1 L230.3,179.8 L230.3,186.5 L230.3,193.2" fill="none" stroke="#0c2020" stroke-width="17" stroke-linecap="round" stroke-linejoin="round" opacity="1.0"/><circle cx="232.3" cy="91.2" r="19.0" fill="#2dd4bf" stroke="none" stroke-width="0" opacity="0.95"/><circle cx="232.3" cy="91.2" r="15.0" fill="#0c2020" stroke="none" stroke-width="6.3" opacity="1.0"/><path d="M223.0,88.2 L224.7,88.2 L226.4,88.2 L228.1,88.2 L229.8,88.2 L231.5,88.2 L233.2,88.2 L234.8,88.2 L236.5,88.2 L238.2,88.2 L239.9,88.2 L241.6,88.2" fill="none" stroke="#a7f3ee" stroke-width="5" stroke-linecap="round" stroke-linejoin="round" opacity="1.0"/></g><g class="f15"><path d="M222.8,125.6 L223.5,131.7 L224.2,137.8 L224.8,143.8 L225.5,149.9 L226.1,156.0 L226.8,162.1 L226.5,168.2 L226.1,174.3 L225.6,180.4 L225.2,186.5 L224.8,192.6" fill="none" stroke="#2dd4bf" stroke-width="21" stroke-linecap="round" stroke-linejoin="round" opacity="0.95"/><path d="M222.8,125.6 L223.5,131.7 L224.2,137.8 L224.8,143.8 L225.5,149.9 L226.1,156.0 L226.8,162.1 L226.5,168.2 L226.1,174.3 L225.6,180.4 L225.2,186.5 L224.8,192.6" fill="none" stroke="#0c2020" stroke-width="13" stroke-linecap="round" stroke-linejoin="round" opacity="1.0"/><path d="M222.8,199.6 L221.7,207.8 L220.6,215.9 L219.5,224.1 L218.4,232.2 L217.3,240.4 L216.6,248.6 L216.3,256.8 L216.0,265.1 L215.7,273.3 L215.3,281.5 L215.0,289.8" fill="none" stroke="#8f2a3e" stroke-width="21" stroke-linecap="round" stroke-linejoin="round" opacity="0.95"/><path d="M222.8,199.6 L221.7,207.8 L220.6,215.9 L219.5,224.1 L218.4,232.2 L217.3,240.4 L216.6,248.6 L216.3,256.8 L216.0,265.1 L215.7,273.3 L215.3,281.5 L215.0,289.8" fill="none" stroke="#0c2020" stroke-width="13" stroke-linecap="round" stroke-linejoin="round" opacity="1.0"/><path d="M222.8,199.6 L229.6,202.2 L236.4,204.8 L243.3,207.4 L250.1,210.0 L256.9,212.7 L263.7,215.3 L270.1,218.4 L275.1,223.8 L280.2,229.2 L285.2,234.6 L290.3,240.0" fill="none" stroke="#f43f5e" stroke-width="21" stroke-linecap="round" stroke-linejoin="round" opacity="0.95"/><path d="M222.8,199.6 L229.6,202.2 L236.4,204.8 L243.3,207.4 L250.1,210.0 L256.9,212.7 L263.7,215.3 L270.1,218.4 L275.1,223.8 L280.2,229.2 L285.2,234.6 L290.3,240.0" fill="none" stroke="#0c2020" stroke-width="13" stroke-linecap="round" stroke-linejoin="round" opacity="1.0"/><path d="M222.8,125.6 L222.8,132.3 L222.8,139.0 L222.8,145.8 L222.8,152.5 L222.8,159.2 L222.8,166.0 L222.8,172.7 L222.8,179.4 L222.8,186.1 L222.8,192.9 L222.8,199.6" fill="none" stroke="#2dd4bf" stroke-width="25" stroke-linecap="round" stroke-linejoin="round" opacity="0.95"/><path d="M222.8,125.6 L222.8,132.3 L222.8,139.0 L222.8,145.8 L222.8,152.5 L222.8,159.2 L222.8,166.0 L222.8,172.7 L222.8,179.4 L222.8,186.1 L222.8,192.9 L222.8,199.6" fill="none" stroke="#0c2020" stroke-width="17" stroke-linecap="round" stroke-linejoin="round" opacity="1.0"/><circle cx="224.8" cy="97.6" r="19.0" fill="#2dd4bf" stroke="none" stroke-width="0" opacity="0.95"/><circle cx="224.8" cy="97.6" r="15.0" fill="#0c2020" stroke="none" stroke-width="6.3" opacity="1.0"/><path d="M215.5,94.6 L217.2,94.6 L218.9,94.6 L220.6,94.6 L222.3,94.6 L224.0,94.6 L225.7,94.6 L227.4,94.6 L229.1,94.6 L230.8,94.6 L232.4,94.6 L234.1,94.6" fill="none" stroke="#a7f3ee" stroke-width="5" stroke-linecap="round" stroke-linejoin="round" opacity="1.0"/></g></svg>
