<svg xmlns="http://www.w3.org/2000/svg" viewBox="0 0 480 320"><style>@keyframes k0{0%{opacity:1}11.111%{opacity:0}100%{opacity:0}}.f0{opacity:0;animation:k0 2.4s steps(1,end) infinite}@keyframes k1{0%{opacity:0}11.111%{opacity:1}16.667%{opacity:0}100%{opacity:0}}.f1{opacity:0;animation:k1 2.4s steps(1,end) infinite}@keyframes k2{0%{opacity:0}16.667%{opacity:1}22.222%{opacity:0}100%{opacity:0}}.f2{opacity:0;animation:k2 2.4s steps(1,end) infinite}@keyframes k3{0%{opacity:0}22.222%{opacity:1}27.778%{opacity:0}100%{opacity:0}}.f3{opacity:0;animation:k3 2.4s steps(1,end) infinite}@keyframes k4{0%{opacity:0}27.778%{opacity:1}33.333%{opacity:0}100%{opacity:0}}.f4{opacity:0;animation:k4 2.4s steps(1,end) infinite}@keyframes k5{0%{opacity:0}33.333%{opacity:1}38.889%{opacity:0}100%{opacity:0}}.f5{opacity:0;animation:k5 2.4s steps(1,end) infinite}@keyframes k6{0%{opacity:0}38.889%{opacity:1}44.444%{opacity:0}100%{opacity:0}}.f6{opacity:0;animation:k6 2.4s steps(1,end) infinite}@keyframes k7{0%{opacity:0}44.444%{opacity:1}50.000%{opacity:0}100%{opacity:0}}.f7{opacity:0;animation:k7 2.4s steps(1,end) infinite}@keyframes k8{0%{opacity:0}50.000%{opacity:1}61.111%{opacity:0}100%{opacity:0}}.f8{opacity:0;animation:k8 2.4s steps(1,end) infinite}@keyframes k9{0%{opacity:0}61.111%{opacity:1}66.667%{opacity:0}100%{opacity:0}}.f9{opacity:0;animation:k9 2.4s steps(1,end) infinite}@keyframes k10{0%{opacity:0}66.667%{opacity:1}72.222%{opacity:0}100%{opacity:0}}.f10{opacity:0;animation:k10 2.4s steps(1,end) infinite}@keyframes k11{0%{opacity:0}72.222%{opacity:1}77.778%{opacity:0}100%{opacity:0}}.f11{opacity:0;animation:k11 2.4s steps(1,end) infinite}@keyframes k12{0%{opacity:0}77.778%{opacity:1}83.333%{opacity:0}100%{opacity:0}}.f12{opacity:0;animation:k12 2.4s steps(1,end) infinite}@keyframes k13{0%{opacity:0}83.333%{opacity:1}88.889%{opacity:0}100%{opacity:0}}.f13{opacity:0;animation:k13 2.4s steps(1,end) infinite}@keyframes k14{0%{opacity:0}88.889%{opacity:1}94.444%{opacity:0}100%{opacity:0}}.f14{opacity:0;animation:k14 2.4s steps(1,end) infinite}@keyframes k15{0%{opacity:0}94.444%{opacity:1}100%{opacity:1}}.f15{opacity:0;animation:k15 2.4s steps(1,end) infinite}</style><path d="M40.0,292.0 L440.0,292.0" fill="none" stroke="#1f3333" stroke-width="6" stroke-linecap="round" stroke-linejoin="round" opacity="1.0"/><g class="f0"><path d="M324.0,255.0 L331.0,252.3 L337.9,249.6 L344.9,246.9 L351.8,244.2 L358.8,241.6 L365.8,238.9 L372.9,236.8 L380.2,235.1 L387.5,233.4 L394.7,231.7 L402.0,230.0" fill="none" stroke="#2dd4bf" stroke-width="19" stroke-linecap="round" stroke-linejoin="round" opacity="0.95"/><path d="M324.0,255.0 L331.0,252.3 L337.9,249.6 L344.9,246.9 L351.8,244.2 L358.8,241.6 L365.8,238.9 L372.9,236.8 L380.2,235.1 L387.5,233.4 L394.7,231.7 L402.0,230.0" fill="none" stroke="#0c2020" stroke-width="11" stroke-linecap="round" stroke-linejoin="round" opacity="1.0"/><path d="M240.0,262.0 L228.5,260.1 L217.0,258.2 L205.5,256.2 L194.0,254.3 L182.5,252.4 L171.0,250.3 L159.6,247.9 L148.2,245.4 L136.8,242.9 L125.4,240.5 L114.0,238.0" fill="none" stroke="#2dd4bf" stroke-width="19" stroke-linecap="round" stroke-linejoin="round" opacity="0.95"/><path d="M240.0,262.0 L228.5,260.1 L217.0,258.2 L205.5,256.2 L194.0,254.3 L182.5,252.4 L171.0,250.3 L159.6,247.9 L148.2,245.4 L136.8,242.9 L125.4,240.5 L114.0,238.0" fill="none" stroke="#0c2020" stroke-width="11" stroke-linecap="round" stroke-linejoin="round" opacity="1.0"/><path d="M324.0,255.0 L316.4,255.6 L308.7,256.3 L301.1,256.9 L293.5,257.5 L285.8,258.2 L278.2,258.8 L270.5,259.5 L262.9,260.1 L255.3,260.7 L247.6,261.4 L240.0,262.0" fill="none" stroke="#f43f5e" stroke-width="23" stroke-linecap="round" stroke-linejoin="round" opacity="0.95"/><path d="M324.0,255.0 L316.4,255.6 L308.7,256.3 L301.1,256.9 L293.5,257.5 L285.8,258.2 L278.2,258.8 L270.5,259.5 L262.9,260.1 L255.3,260.7 L247.6,261.4 L240.0,262.0" fill="none" stroke="#0c2020" stroke-width="15" stroke-linecap="round" stroke-linejoin="round" opacity="1.0"/><circle cx="350.0" cy="244.0" r="19.0" fill="#f43f5e" stroke="none" stroke-width="0" opacity="0.95"/><circle cx="350.0" cy="244.0" r="15.0" fill="#0c2020" stroke="none" stroke-width="6.3" opacity="1.0"/><path d="M348.0,227.0 L345.0,230.0 L342.0,233.0 L339.1,235.9 L336.1,238.9 L333.1,241.9 L330.1,244.9 L329.5,248.5 L330.4,252.6 L331.3,256.8 L332.1,260.9 L333.0,265.0" fill="none" stroke="#2dd4bf" stroke-width="5" stroke-linecap="round" stroke-linejoin="round" opacity="1.0"/><path d="M340.7,241.0 L342.4,241.0 L344.1,241.0 L345.8,241.0 L347.5,241.0 L349.2,241.0 L350.8,241.0 L352.5,241.0 L354.2,241.0 L355.9,241.0 L357.6,241.0 L359.3,241.0" fill="none" stroke="#a7f3ee" stroke-width="5" stroke-linecap="round" stroke-linejoin="round" opacity="1.0"/></g><g class="f1"><path d="M324.0,254.7 L331.0,251.9 L337.9,249.2 L344.9,246.4 L351.8,243.7 L358.8,241.0 L365.7,238.2 L372.9,236.2 L380.2,234.5 L387.4,232.7 L394.7,231.0 L402.0,229.3" fill="none" stroke="#2dd4bf" stroke-width="19" stroke-linecap="round" stroke-linejoin="round" opacity="0.95"/><path d="M324.0,254.7 L331.0,251.9 L337.9,249.2 L344.9,246.4 L351.8,243.7 L358.8,241.0 L365.7,238.2 L372.9,236.2 L380.2,234.5 L387.4,232.7 L394.7,231.0 L402.0,229.3" fill="none" stroke="#0c2020" stroke-width="11" stroke-linecap="round" stroke-linejoin="round" opacity="1.0"/><path d="M240.0,262.0 L228.5,260.0 L217.0,258.0 L205.5,256.1 L194.0,254.1 L182.5,252.1 L171.0,250.0 L159.6,247.5 L148.2,244.9 L136.8,242.4 L125.4,239.8 L114.0,237.3" fill="none" stroke="#2dd4bf" stroke-width="19" stroke-linecap="round" stroke-linejoin="round" opacity="0.95"/><path d="M240.0,262.0 L228.5,260.0 L217.0,258.0 L205.5,256.1 L194.0,254.1 L182.5,252.1 L171.0,250.0 L159.6,247.5 L148.2,244.9 L136.8,242.4 L125.4,239.8 L114.0,237.3" fill="none" stroke="#0c2020" stroke-width="11" stroke-linecap="round" stroke-linejoin="round" opacity="1.0"/><path d="M324.0,254.7 L316.4,255.3 L308.7,256.0 L301.1,256.7 L293.5,257.3 L285.8,258.0 L278.2,258.7 L270.5,259.3 L262.9,260.0 L255.3,260.7 L247.6,261.3 L240.0,262.0" fill="none" stroke="#f43f5e" stroke-width="23" stroke-linecap="round" stroke-linejoin="round" opacity="0.95"/><path d="M324.0,254.7 L316.4,255.3 L308.7,256.0 L301.1,256.7 L293.5,257.3 L285.8,258.0 L278.2,258.7 L270.5,259.3 L262.9,260.0 L255.3,260.7 L247.6,261.3 L240.0,262.0" fill="none" stroke="#0c2020" stroke-width="15" stroke-linecap="round" stroke-linejoin="round" opacity="1.0"/><circle cx="350.0" cy="243.3" r="19.0" fill="#f43f5e" stroke="none" stroke-width="0" opacity="0.95"/><circle cx="350.0" cy="243.3" r="15.0" fill="#0c2020" stroke="none" stroke-width="6.3" opacity="1.0"/><path d="M348.0,226.3 L345.0,229.3 L342.0,232.3 L339.1,235.2 L336.1,238.2 L333.1,241.2 L330.1,244.2 L329.5,247.8 L330.4,252.0 L331.3,256.1 L332.1,260.2 L333.0,264.3" fill="none" stroke="#2dd4bf" stroke-width="5" stroke-linecap="round" stroke-linejoin="round" opacity="1.0"/><path d="M340.7,240.3 L342.4,240.3 L344.1,240.3 L345.8,240.3 L347.5,240.3 L349.2,240.3 L350.8,240.3 L352.5,240.3 L354.2,240.3 L355.9,240.3 L357.6,240.3 L359.3,240.3" fill="none" stroke="#a7f3ee" stroke-width="5" stroke-linecap="round" stroke-linejoin="round" opacity="1.0"/></g><g class="f2"><path d="M324.0,253.8 L330.9,250.9 L337.9,248.0 L344.8,245.1 L351.7,242.3 L358.7,239.4 L365.6,236.5 L372.7,234.4 L380.1,232.7 L387.4,230.9 L394.7,229.2 L402.0,227.5" fill="none" stroke="#2dd4bf" stroke-width="19" stroke-linecap="round" stroke-linejoin="round" opacity="0.95"/><path d="M324.0,253.8 L330.9,250.9 L337.9,248.0 L344.8,245.1 L351.7,242.3 L358.7,239.4 L365.6,236.5 L372.7,234.4 L380.1,232.7 L387.4,230.9 L394.7,229.2 L402.0,227.5" fill="none" stroke="#0c2020" stroke-width="11" stroke-linecap="round" stroke-linejoin="round" opacity="1.0"/><path d="M240.0,262.0 L228.5,259.9 L217.0,257.7 L205.5,255.6 L193.9,253.4 L182.4,251.3 L171.0,249.0 L159.6,246.3 L148.2,243.6 L136.8,240.9 L125.4,238.2 L114.0,235.5" fill="none" stroke="#2dd4bf" stroke-width="19" stroke-linecap="round" stroke-linejoin="round" opacity="0.95"/><path d="M240.0,262.0 L228.5,259.9 L217.0,257.7 L205.5,255.6 L193.9,253.4 L182.4,251.3 L171.0,249.0 L159.6,246.3 L148.2,243.6 L136.8,240.9 L125.4,238.2 L114.0,235.5" fill="none" stroke="#0c2020" stroke-width="11" stroke-linecap="round" stroke-linejoin="round" opacity="1.0"/><path d="M324.0,253.8 L316.4,254.5 L308.7,255.2 L301.1,256.0 L293.5,256.8 L285.8,257.5 L278.2,258.2 L270.5,259.0 L262.9,259.8 L255.3,260.5 L247.6,261.2 L240.0,262.0" fill="none" stroke="#f43f5e" stroke-width="23" stroke-linecap="round" stroke-linejoin="round" opacity="0.95"/><path d="M324.0,253.8 L316.4,254.5 L308.7,255.2 L301.1,256.0 L293.5,256.8 L285.8,257.5 L278.2,258.2 L270.5,259.0 L262.9,259.8 L255.3,260.5 L247.6,261.2 L240.0,262.0" fill="none" stroke="#0c2020" stroke-width="15" stroke-linecap="round" stroke-linejoin="round" opacity="1.0"/><circle cx="350.0" cy="241.5" r="19.0" fill="#f43f5e" stroke="none" stroke-width="0" opacity="0.95"/><circle cx="350.0" cy="241.5" r="15.0" fill="#0c2020" stroke="none" stroke-width="6.3" opacity="1.0"/><path d="M348.0,224.5 L345.0,227.5 L342.0,230.5 L339.1,233.4 L336.1,236.4 L333.1,239.4 L330.1,242.4 L329.5,246.0 L330.4,250.1 L331.3,254.3 L332.1,258.4 L333.0,262.5" fill="none" stroke="#2dd4bf" stroke-width="5" stroke-linecap="round" stroke-linejoin="round" opacity="1.0"/><path d="M340.7,238.5 L342.4,238.5 L344.1,238.5 L345.8,238.5 L347.5,238.5 L349.2,238.5 L350.8,238.5 L352.5,238.5 L354.2,238.5 L355.9,238.5 L357.6,238.5 L359.3,238.5" fill="none" stroke="#a7f3ee" stroke-width="5" stroke-linecap="round" stroke-linejoin="round" opacity="1.0"/></g><g class="f3"><path d="M324.0,252.5 L330.9,249.4 L337.8,246.4 L344.7,243.3 L351.6,240.3 L358.5,237.2 L365.4,234.1 L372.6,231.9 L379.9,230.1 L387.3,228.4 L394.6,226.7 L402.0,224.9" fill="none" stroke="#2dd4bf" stroke-width="19" stroke-linecap="round" stroke-linejoin="round" opacity="0.95"/><path d="M324.0,252.5 L330.9,249.4 L337.8,246.4 L344.7,243.3 L351.6,240.3 L358.5,237.2 L365.4,234.1 L372.6,231.9 L379.9,230.1 L387.3,228.4 L394.6,226.7 L402.0,224.9" fill="none" stroke="#0c2020" stroke-width="11" stroke-linecap="round" stroke-linejoin="round" opacity="1.0"/><path d="M240.0,262.0 L228.5,259.6 L217.0,257.3 L205.4,254.9 L193.9,252.5 L182.4,250.2 L170.9,247.7 L159.5,244.7 L148.1,241.8 L136.8,238.8 L125.4,235.9 L114.0,232.9" fill="none" stroke="#2dd4bf" stroke-width="19" stroke-linecap="round" stroke-linejoin="round" opacity="0.95"/><path d="M240.0,262.0 L228.5,259.6 L217.0,257.3 L205.4,254.9 L193.9,252.5 L182.4,250.2 L170.9,247.7 L159.5,244.7 L148.1,241.8 L136.8,238.8 L125.4,235.9 L114.0,232.9" fill="none" stroke="#0c2020" stroke-width="11" stroke-linecap="round" stroke-linejoin="round" opacity="1.0"/><path d="M324.0,252.5 L316.4,253.3 L308.7,254.2 L301.1,255.1 L293.5,255.9 L285.8,256.8 L278.2,257.7 L270.5,258.5 L262.9,259.4 L255.3,260.3 L247.6,261.1 L240.0,262.0" fill="none" stroke="#f43f5e" stroke-width="23" stroke-linecap="round" stroke-linejoin="round" opacity="0.95"/><path d="M324.0,252.5 L316.4,253.3 L308.7,254.2 L301.1,255.1 L293.5,255.9 L285.8,256.8 L278.2,257.7 L270.5,258.5 L262.9,259.4 L255.3,260.3 L247.6,261.1 L240.0,262.0" fill="none" stroke="#0c2020" stroke-width="15" stroke-linecap="round" stroke-linejoin="round" opacity="1.0"/><circle cx="350.0" cy="238.9" r="19.0" fill="#f43f5e" stroke="none" stroke-width="0" opacity="0.95"/><circle cx="350.0" cy="238.9" r="15.0" fill="#0c2020" stroke="none" stroke-width="6.3" opacity="1.0"/><path d="M348.0,221.9 L345.0,224.9 L342.0,227.9 L339.1,230.9 L336.1,233.8 L333.1,236.8 L330.1,239.8 L329.5,243.5 L330.4,247.6 L331.3,251.7 L332.1,255.8 L333.0,259.9" fill="none" stroke="#2dd4bf" stroke-width="5" stroke-linecap="round" stroke-linejoin="round" opacity="1.0"/><path d="M340.7,235.9 L342.4,235.9 L344.1,235.9 L345.8,235.9 L347.5,235.9 L349.2,235.9 L350.8,235.9 L352.5,235.9 L354.2,235.9 L355.9,235.9 L357.6,235.9 L359.3,235.9" fill="none" stroke="#a7f3ee" stroke-width="5" stroke-linecap="round" stroke-linejoin="round" opacity="1.0"/></g><g class="f4"><path d="M324.0,251.0 L330.9,247.7 L337.7,244.5 L344.6,241.2 L351.4,237.9 L358.3,234.7 L365.2,231.4 L372.3,229.0 L379.7,227.2 L387.2,225.5 L394.6,223.7 L402.0,222.0" fill="none" stroke="#2dd4bf" stroke-width="19" stroke-linecap="round" stroke-linejoin="round" opacity="0.95"/><path d="M324.0,251.0 L330.9,247.7 L337.7,244.5 L344.6,241.2 L351.4,237.9 L358.3,234.7 L365.2,231.4 L372.3,229.0 L379.7,227.2 L387.2,225.5 L394.6,223.7 L402.0,222.0" fill="none" stroke="#0c2020" stroke-width="11" stroke-linecap="round" stroke-linejoin="round" opacity="1.0"/><path d="M240.0,262.0 L228.5,259.4 L216.9,256.8 L205.4,254.1 L193.9,251.5 L182.4,248.9 L170.9,246.1 L159.5,242.9 L148.1,239.7 L136.7,236.4 L125.4,233.2 L114.0,230.0" fill="none" stroke="#2dd4bf" stroke-width="19" stroke-linecap="round" stroke-linejoin="round" opacity="0.95"/><path d="M240.0,262.0 L228.5,259.4 L216.9,256.8 L205.4,254.1 L193.9,251.5 L182.4,248.9 L170.9,246.1 L159.5,242.9 L148.1,239.7 L136.7,236.4 L125.4,233.2 L114.0,230.0" fill="none" stroke="#0c2020" stroke-width="11" stroke-linecap="round" stroke-linejoin="round" opacity="1.0"/><path d="M324.0,251.0 L316.4,252.0 L308.7,253.0 L301.1,254.0 L293.5,255.0 L285.8,256.0 L278.2,257.0 L270.5,258.0 L262.9,259.0 L255.3,260.0 L247.6,261.0 L240.0,262.0" fill="none" stroke="#f43f5e" stroke-width="23" stroke-linecap="round" stroke-linejoin="round" opacity="0.95"/><path d="M324.0,251.0 L316.4,252.0 L308.7,253.0 L301.1,254.0 L293.5,255.0 L285.8,256.0 L278.2,257.0 L270.5,258.0 L262.9,259.0 L255.3,260.0 L247.6,261.0 L240.0,262.0" fill="none" stroke="#0c2020" stroke-width="15" stroke-linecap="round" stroke-linejoin="round" opacity="1.0"/><circle cx="350.0" cy="236.0" r="19.0" fill="#f43f5e" stroke="none" stroke-width="0" opacity="0.95"/><circle cx="350.0" cy="236.0" r="15.0" fill="#0c2020" stroke="none" stroke-width="6.3" opacity="1.0"/><path d="M348.0,219.0 L345.0,222.0 L342.0,225.0 L339.1,227.9 L336.1,230.9 L333.1,233.9 L330.1,236.9 L329.5,240.5 L330.4,244.6 L331.3,248.8 L332.1,252.9 L333.0,257.0" fill="none" stroke="#2dd4bf" stroke-width="5" stroke-linecap="round" stroke-linejoin="round" opacity="1.0"/><path d="M340.7,233.0 L342.4,233.0 L344.1,233.0 L345.8,233.0 L347.5,233.0 L349.2,233.0 L350.8,233.0 L352.5,233.0 L354.2,233.0 L355.9,233.0 L357.6,233.0 L359.3,233.0" fill="none" stroke="#a7f3ee" stroke-width="5" stroke-linecap="round" stroke-linejoin="round" opacity="1.0"/></g><g class="f5"><path d="M324.0,249.5 L330.8,246.1 L337.6,242.6 L344.5,239.1 L351.3,235.6 L358.1,232.1 L364.9,228.7 L372.1,226.1 L379.6,224.3 L387.1,222.6 L394.5,220.8 L402.0,219.1" fill="none" stroke="#2dd4bf" stroke-width="19" stroke-linecap="round" stroke-linejoin="round" opacity="0.95"/><path d="M324.0,249.5 L330.8,246.1 L337.6,242.6 L344.5,239.1 L351.3,235.6 L358.1,232.1 L364.9,228.7 L372.1,226.1 L379.6,224.3 L387.1,222.6 L394.5,220.8 L402.0,219.1" fill="none" stroke="#0c2020" stroke-width="11" stroke-linecap="round" stroke-linejoin="round" opacity="1.0"/><path d="M240.0,262.0 L228.5,259.1 L216.9,256.2 L205.4,253.4 L193.8,250.5 L182.3,247.6 L170.8,244.5 L159.5,241.0 L148.1,237.6 L136.7,234.1 L125.4,230.6 L114.0,227.1" fill="none" stroke="#2dd4bf" stroke-width="19" stroke-linecap="round" stroke-linejoin="round" opacity="0.95"/><path d="M240.0,262.0 L228.5,259.1 L216.9,256.2 L205.4,253.4 L193.8,250.5 L182.3,247.6 L170.8,244.5 L159.5,241.0 L148.1,237.6 L136.7,234.1 L125.4,230.6 L114.0,227.1" fill="none" stroke="#0c2020" stroke-width="11" stroke-linecap="round" stroke-linejoin="round" opacity="1.0"/><path d="M324.0,249.5 L316.4,250.7 L308.7,251.8 L301.1,252.9 L293.5,254.1 L285.8,255.2 L278.2,256.3 L270.5,257.5 L262.9,258.6 L255.3,259.7 L247.6,260.9 L240.0,262.0" fill="none" stroke="#f43f5e" stroke-width="23" stroke-linecap="round" stroke-linejoin="round" opacity="0.95"/><path d="M324.0,249.5 L316.4,250.7 L308.7,251.8 L301.1,252.9 L293.5,254.1 L285.8,255.2 L278.2,256.3 L270.5,257.5 L262.9,258.6 L255.3,259.7 L247.6,260.9 L240.0,262.0" fill="none" stroke="#0c2020" stroke-width="15" stroke-linecap="round" stroke-linejoin="round" opacity="1.0"/><circle cx="350.0" cy="233.1" r="19.0" fill="#f43f5e" stroke="none" stroke-width="0" opacity="0.95"/><circle cx="350.0" cy="233.1" r="15.0" fill="#0c2020" stroke="none" stroke-width="6.3" opacity="1.0"/><path d="M348.0,216.1 L345.0,219.0 L342.0,222.0 L339.1,225.0 L336.1,228.0 L333.1,230.9 L330.1,233.9 L329.5,237.6 L330.4,241.7 L331.3,245.8 L332.1,249.9 L333.0,254.1" fill="none" stroke="#2dd4bf" stroke-width="5" stroke-linecap="round" stroke-linejoin="round" opacity="1.0"/><path d="M340.7,230.1 L342.4,230.1 L344.1,230.1 L345.8,230.1 L347.5,230.1 L349.2,230.1 L350.8,230.1 L352.5,230.1 L354.2,230.1 L355.9,230.1 L357.6,230.1 L359.3,230.1" fill="none" stroke="#a7f3ee" stroke-width="5" stroke-linecap="round" stroke-linejoin="round" opacity="1.0"/></g><g class="f6"><path d="M324.0,248.2 L330.8,244.6 L337.6,240.9 L344.4,237.3 L351.2,233.6 L358.0,229.9 L364.8,226.3 L371.9,223.6 L379.4,221.8 L387.0,220.0 L394.5,218.3 L402.0,216.5" fill="none" stroke="#2dd4bf" stroke-width="19" stroke-linecap="round" stroke-linejoin="round" opacity="0.95"/><path d="M324.0,248.2 L330.8,244.6 L337.6,240.9 L344.4,237.3 L351.2,233.6 L358.0,229.9 L364.8,226.3 L371.9,223.6 L379.4,221.8 L387.0,220.0 L394.5,218.3 L402.0,216.5" fill="none" stroke="#0c2020" stroke-width="11" stroke-linecap="round" stroke-linejoin="round" opacity="1.0"/><path d="M240.0,262.0 L228.5,258.9 L216.9,255.8 L205.4,252.7 L193.8,249.6 L182.3,246.5 L170.8,243.2 L159.4,239.4 L148.1,235.7 L136.7,232.0 L125.4,228.2 L114.0,224.5" fill="none" stroke="#2dd4bf" stroke-width="19" stroke-linecap="round" stroke-linejoin="round" opacity="0.95"/><path d="M240.0,262.0 L228.5,258.9 L216.9,255.8 L205.4,252.7 L193.8,249.6 L182.3,246.5 L170.8,243.2 L159.4,239.4 L148.1,235.7 L136.7,232.0 L125.4,228.2 L114.0,224.5" fill="none" stroke="#0c2020" stroke-width="11" stroke-linecap="round" stroke-linejoin="round" opacity="1.0"/><path d="M324.0,248.2 L316.4,249.5 L308.7,250.8 L301.1,252.0 L293.5,253.2 L285.8,254.5 L278.2,255.8 L270.5,257.0 L262.9,258.2 L255.3,259.5 L247.6,260.8 L240.0,262.0" fill="none" stroke="#f43f5e" stroke-width="23" stroke-linecap="round" stroke-linejoin="round" opacity="0.95"/><path d="M324.0,248.2 L316.4,249.5 L308.7,250.8 L301.1,252.0 L293.5,253.2 L285.8,254.5 L278.2,255.8 L270.5,257.0 L262.9,258.2 L255.3,259.5 L247.6,260.8 L240.0,262.0" fill="none" stroke="#0c2020" stroke-width="15" stroke-linecap="round" stroke-linejoin="round" opacity="1.0"/><circle cx="350.0" cy="230.5" r="19.0" fill="#f43f5e" stroke="none" stroke-width="0" opacity="0.95"/><circle cx="350.0" cy="230.5" r="15.0" fill="#0c2020" stroke="none" stroke-width="6.3" opacity="1.0"/><path d="M348.0,213.5 L345.0,216.5 L342.0,219.5 L339.1,222.4 L336.1,225.4 L333.1,228.4 L330.1,231.4 L329.5,235.0 L330.4,239.1 L331.3,243.3 L332.1,247.4 L333.0,251.5" fill="none" stroke="#2dd4bf" stroke-width="5" stroke-linecap="round" stroke-linejoin="round" opacity="1.0"/><path d="M340.7,227.5 L342.4,227.5 L344.1,227.5 L345.8,227.5 L347.5,227.5 L349.2,227.5 L350.8,227.5 L352.5,227.5 L354.2,227.5 L355.9,227.5 L357.6,227.5 L359.3,227.5" fill="none" stroke="#a7f3ee" stroke-width="5" stroke-linecap="round" stroke-linejoin="round" opacity="1.0"/></g><g class="f7"><path d="M324.0,247.3 L330.8,243.6 L337.5,239.8 L344.3,236.0 L351.1,232.2 L357.8,228.4 L364.6,224.6 L371.8,221.8 L379.3,220.0 L386.9,218.2 L394.4,216.5 L402.0,214.7" fill="none" stroke="#2dd4bf" stroke-width="19" stroke-linecap="round" stroke-linejoin="round" opacity="0.95"/><path d="M324.0,247.3 L330.8,243.6 L337.5,239.8 L344.3,236.0 L351.1,232.2 L357.8,228.4 L364.6,224.6 L371.8,221.8 L379.3,220.0 L386.9,218.2 L394.4,216.5 L402.0,214.7" fill="none" stroke="#0c2020" stroke-width="11" stroke-linecap="round" stroke-linejoin="round" opacity="1.0"/><path d="M240.0,262.0 L228.4,258.7 L216.9,255.5 L205.3,252.2 L193.8,248.9 L182.2,245.7 L170.7,242.2 L159.4,238.3 L148.0,234.4 L136.7,230.5 L125.3,226.6 L114.0,222.7" fill="none" stroke="#2dd4bf" stroke-width="19" stroke-linecap="round" stroke-linejoin="round" opacity="0.95"/><path d="M240.0,262.0 L228.4,258.7 L216.9,255.5 L205.3,252.2 L193.8,248.9 L182.2,245.7 L170.7,242.2 L159.4,238.3 L148.0,234.4 L136.7,230.5 L125.3,226.6 L114.0,222.7" fill="none" stroke="#0c2020" stroke-width="11" stroke-linecap="round" stroke-linejoin="round" opacity="1.0"/><path d="M324.0,247.3 L316.4,248.7 L308.7,250.0 L301.1,251.3 L293.5,252.7 L285.8,254.0 L278.2,255.3 L270.5,256.7 L262.9,258.0 L255.3,259.3 L247.6,260.7 L240.0,262.0" fill="none" stroke="#f43f5e" stroke-width="23" stroke-linecap="round" stroke-linejoin="round" opacity="0.95"/><path d="M324.0,247.3 L316.4,248.7 L308.7,250.0 L301.1,251.3 L293.5,252.7 L285.8,254.0 L278.2,255.3 L270.5,256.7 L262.9,258.0 L255.3,259.3 L247.6,260.7 L240.0,262.0" fill="none" stroke="#0c2020" stroke-width="15" stroke-linecap="round" stroke-linejoin="round" opacity="1.0"/><circle cx="350.0" cy="228.7" r="19.0" fill="#f43f5e" stroke="none" stroke-width="0" opacity="0.95"/><circle cx="350.0" cy="228.7" r="15.0" fill="#0c2020" stroke="none" stroke-width="6.3" opacity="1.0"/><path d="M348.0,211.7 L345.0,214.7 L342.0,217.6 L339.1,220.6 L336.1,223.6 L333.1,226.6 L330.1,229.5 L329.5,233.2 L330.4,237.3 L331.3,241.5 L332.1,245.6 L333.0,249.7" fill="none" stroke="#2dd4bf" stroke-width="5" stroke-linecap="round" stroke-linejoin="round" opacity="1.0"/><path d="M340.7,225.7 L342.4,225.7 L344.1,225.7 L345.8,225.7 L347.5,225.7 L349.2,225.7 L350.8,225.7 L352.5,225.7 L354.2,225.7 L355.9,225.7 L357.6,225.7 L359.3,225.7" fill="none" stroke="#a7f3ee" stroke-width="5" stroke-linecap="round" stroke-linejoin="round" opacity="1.0"/></g><g class="f8"><path d="M324.0,247.0 L330.8,243.2 L337.5,239.3 L344.3,235.5 L351.0,231.6 L357.8,227.8 L364.6,224.0 L371.7,221.1 L379.3,219.3 L386.9,217.6 L394.4,215.8 L402.0,214.0" fill="none" stroke="#2dd4bf" stroke-width="19" stroke-linecap="round" stroke-linejoin="round" opacity="0.95"/><path d="M324.0,247.0 L330.8,243.2 L337.5,239.3 L344.3,235.5 L351.0,231.6 L357.8,227.8 L364.6,224.0 L371.7,221.1 L379.3,219.3 L386.9,217.6 L394.4,215.8 L402.0,214.0" fill="none" stroke="#0c2020" stroke-width="11" stroke-linecap="round" stroke-linejoin="round" opacity="1.0"/><path d="M240.0,262.0 L228.4,258.7 L216.9,255.3 L205.3,252.0 L193.8,248.7 L182.2,245.4 L170.7,241.9 L159.4,237.9 L148.0,233.9 L136.7,229.9 L125.3,226.0 L114.0,222.0" fill="none" stroke="#2dd4bf" stroke-width="19" stroke-linecap="round" stroke-linejoin="round" opacity="0.95"/><path d="M240.0,262.0 L228.4,258.7 L216.9,255.3 L205.3,252.0 L193.8,248.7 L182.2,245.4 L170.7,241.9 L159.4,237.9 L148.0,233.9 L136.7,229.9 L125.3,226.0 L114.0,222.0" fill="none" stroke="#0c2020" stroke-width="11" stroke-linecap="round" stroke-linejoin="round" opacity="1.0"/><path d="M324.0,247.0 L316.4,248.4 L308.7,249.7 L301.1,251.1 L293.5,252.5 L285.8,253.8 L278.2,255.2 L270.5,256.5 L262.9,257.9 L255.3,259.3 L247.6,260.6 L240.0,262.0" fill="none" stroke="#f43f5e" stroke-width="23" stroke-linecap="round" stroke-linejoin="round" opacity="0.95"/><path d="M324.0,247.0 L316.4,248.4 L308.7,249.7 L301.1,251.1 L293.5,252.5 L285.8,253.8 L278.2,255.2 L270.5,256.5 L262.9,257.9 L255.3,259.3 L247.6,260.6 L240.0,262.0" fill="none" stroke="#0c2020" stroke-width="15" stroke-linecap="round" stroke-linejoin="round" opacity="1.0"/><circle cx="350.0" cy="228.0" r="19.0" fill="#f43f5e" stroke="none" stroke-width="0" opacity="0.95"/><circle cx="350.0" cy="228.0" r="15.0" fill="#0c2020" stroke="none" stroke-width="6.3" opacity="1.0"/><path d="M348.0,211.0 L345.0,214.0 L342.0,217.0 L339.1,219.9 L336.1,222.9 L333.1,225.9 L330.1,228.9 L329.5,232.5 L330.4,236.6 L331.3,240.8 L332.1,244.9 L333.0,249.0" fill="none" stroke="#2dd4bf" stroke-width="5" stroke-linecap="round" stroke-linejoin="round" opacity="1.0"/><path d="M340.7,225.0 L342.4,225.0 L344.1,225.0 L345.8,225.0 L347.5,225.0 L349.2,225.0 L350.8,225.0 L352.5,225.0 L354.2,225.0 L355.9,225.0 L357.6,225.0 L359.3,225.0" fill="none" stroke="#a7f3ee" stroke-width="5" stroke-linecap="round" stroke-linejoin="round" opacity="1.0"/></g><g class="f9"><path d="M324.0,247.3 L330.8,243.6 L337.5,239.8 L344.3,236.0 L351.1,232.2 L357.8,228.4 L364.6,224.6 L371.8,221.8 L379.3,220.0 L386.9,218.2 L394.4,216.5 L402.0,214.7" fill="none" stroke="#2dd4bf" stroke-width="19" stroke-linecap="round" stroke-linejoin="round" opacity="0.95"/><path d="M324.0,247.3 L330.8,243.6 L337.5,239.8 L344.3,236.0 L351.1,232.2 L357.8,228.4 L364.6,224.6 L371.8,221.8 L379.3,220.0 L386.9,218.2 L394.4,216.5 L402.0,214.7" fill="none" stroke="#0c2020" stroke-width="11" stroke-linecap="round" stroke-linejoin="round" opacity="1.0"/><path d="M240.0,262.0 L228.4,258.7 L216.9,255.5 L205.3,252.2 L193.8,248.9 L182.2,245.7 L170.7,242.2 L159.4,238.3 L148.0,234.4 L136.7,230.5 L125.3,226.6 L114.0,222.7" fill="none" stroke="#2dd4bf" stroke-width="19" stroke-linecap="round" stroke-linejoin="round" opacity="0.95"/><path d="M240.0,262.0 L228.4,258.7 L216.9,255.5 L205.3,252.2 L193.8,248.9 L182.2,245.7 L170.7,242.2 L159.4,238.3 L148.0,234.4 L136.7,230.5 L125.3,226.6 L114.0,222.7" fill="none" stroke="#0c2020" stroke-width="11" stroke-linecap="round" stroke-linejoin="round" opacity="1.0"/><path d="M324.0,247.3 L316.4,248.7 L308.7,250.0 L301.1,251.3 L293.5,252.7 L285.8,254.0 L278.2,255.3 L270.5,256.7 L262.9,258.0 L255.3,259.3 L247.6,260.7 L240.0,262.0" fill="none" stroke="#f43f5e" stroke-width="23" stroke-linecap="round" stroke-linejoin="round" opacity="0.95"/><path d="M324.0,247.3 L316.4,248.7 L308.7,250.0 L301.1,251.3 L293.5,252.7 L285.8,254.0 L278.2,255.3 L270.5,256.7 L262.9,258.0 L255.3,259.3 L247.6,260.7 L240.0,262.0" fill="none" stroke="#0c2020" stroke-width="15" stroke-linecap="round" stroke-linejoin="round" opacity="1.0"/><circle cx="350.0" cy="228.7" r="19.0" fill="#f43f5e" stroke="none" stroke-width="0" opacity="0.95"/><circle cx="350.0" cy="228.7" r="15.0" fill="#0c2020" stroke="none" stroke-width="6.3" opacity="1.0"/><path d="M348.0,211.7 L345.0,214.7 L342.0,217.6 L339.1,220.6 L336.1,223.6 L333.1,226.6 L330.1,229.5 L329.5,233.2 L330.4,237.3 L331.3,241.5 L332.1,245.6 L333.0,249.7" fill="none" stroke="#2dd4bf" stroke-width="5" stroke-linecap="round" stroke-linejoin="round" opacity="1.0"/><path d="M340.7,225.7 L342.4,225.7 L344.1,225.7 L345.8,225.7 L347.5,225.7 L349.2,225.7 L350.8,225.7 L352.5,225.7 L354.2,225.7 L355.9,225.7 L357.6,225.7 L359.3,225.7" fill="none" stroke="#a7f3ee" stroke-width="5" stroke-linecap="round" stroke-linejoin="round" opacity="1.0"/></g><g class="f10"><path d="M324.0,248.2 L330.8,244.6 L337.6,240.9 L344.4,237.3 L351.2,233.6 L358.0,229.9 L364.8,226.3 L371.9,223.6 L379.4,221.8 L387.0,220.0 L394.5,218.3 L402.0,216.5" fill="none" stroke="#2dd4bf" stroke-width="19" stroke-linecap="round" stroke-linejoin="round" opacity="0.95"/><path d="M324.0,248.2 L330.8,244.6 L337.6,240.9 L344.4,237.3 L351.2,233.6 L358.0,229.9 L364.8,226.3 L371.9,223.6 L379.4,221.8 L387.0,220.0 L394.5,218.3 L402.0,216.5" fill="none" stroke="#0c2020" stroke-width="11" stroke-linecap="round" stroke-linejoin="round" opacity="1.0"/><path d="M240.0,262.0 L228.5,258.9 L216.9,255.8 L205.4,252.7 L193.8,249.6 L182.3,246.5 L170.8,243.2 L159.4,239.4 L148.1,235.7 L136.7,232.0 L125.4,228.2 L114.0,224.5" fill="none" stroke="#2dd4bf" stroke-width="19" stroke-linecap="round" stroke-linejoin="round" opacity="0.95"/><path d="M240.0,262.0 L228.5,258.9 L216.9,255.8 L205.4,252.7 L193.8,249.6 L182.3,246.5 L170.8,243.2 L159.4,239.4 L148.1,235.7 L136.7,232.0 L125.4,228.2 L114.0,224.5" fill="none" stroke="#0c2020" stroke-width="11" stroke-linecap="round" stroke-linejoin="round" opacity="1.0"/><path d="M324.0,248.2 L316.4,249.5 L308.7,250.8 L301.1,252.0 L293.5,253.2 L285.8,254.5 L278.2,255.8 L270.5,257.0 L262.9,258.2 L255.3,259.5 L247.6,260.8 L240.0,262.0" fill="none" stroke="#f43f5e" stroke-width="23" stroke-linecap="round" stroke-linejoin="round" opacity="0.95"/><path d="M324.0,248.2 L316.4,249.5 L308.7,250.8 L301.1,252.0 L293.5,253.2 L285.8,254.5 L278.2,255.8 L270.5,257.0 L262.9,258.2 L255.3,259.5 L247.6,260.8 L240.0,262.0" fill="none" stroke="#0c2020" stroke-width="15" stroke-linecap="round" stroke-linejoin="round" opacity="1.0"/><circle cx="350.0" cy="230.5" r="19.0" fill="#f43f5e" stroke="none" stroke-width="0" opacity="0.95"/><circle cx="350.0" cy="230.5" r="15.0" fill="#0c2020" stroke="none" stroke-width="6.3" opacity="1.0"/><path d="M348.0,213.5 L345.0,216.5 L342.0,219.5 L339.1,222.4 L336.1,225.4 L333.1,228.4 L330.1,231.4 L329.5,235.0 L330.4,239.1 L331.3,243.3 L332.1,247.4 L333.0,251.5" fill="none" stroke="#2dd4bf" stroke-width="5" stroke-linecap="round" stroke-linejoin="round" opacity="1.0"/><path d="M340.7,227.5 L342.4,227.5 L344.1,227.5 L345.8,227.5 L347.5,227.5 L349.2,227.5 L350.8,227.5 L352.5,227.5 L354.2,227.5 L355.9,227.5 L357.6,227.5 L359.3,227.5" fill="none" stroke="#a7f3ee" stroke-width="5" stroke-linecap="round" stroke-linejoin="round" opacity="1.0"/></g><g class="f11"><path d="M324.0,249.5 L330.8,246.1 L337.6,242.6 L344.5,239.1 L351.3,235.6 L358.1,232.1 L364.9,228.7 L372.1,226.1 L379.6,224.3 L387.1,222.6 L394.5,220.8 L402.0,219.1" fill="none" stroke="#2dd4bf" stroke-width="19" stroke-linecap="round" stroke-linejoin="round" opacity="0.95"/><path d="M324.0,249.5 L330.8,246.1 L337.6,242.6 L344.5,239.1 L351.3,235.6 L358.1,232.1 L364.9,228.7 L372.1,226.1 L379.6,224.3 L387.1,222.6 L394.5,220.8 L402.0,219.1" fill="none" stroke="#0c2020" stroke-width="11" stroke-linecap="round" stroke-linejoin="round" opacity="1.0"/><path d="M240.0,262.0 L228.5,259.1 L216.9,256.2 L205.4,253.4 L193.8,250.5 L182.3,247.6 L170.8,244.5 L159.5,241.0 L148.1,237.6 L136.7,234.1 L125.4,230.6 L114.0,227.1" fill="none" stroke="#2dd4bf" stroke-width="19" stroke-linecap="round" stroke-linejoin="round" opacity="0.95"/><path d="M240.0,262.0 L228.5,259.1 L216.9,256.2 L205.4,253.4 L193.8,250.5 L182.3,247.6 L170.8,244.5 L159.5,241.0 L148.1,237.6 L136.7,234.1 L125.4,230.6 L114.0,227.1" fill="none" stroke="#0c2020" stroke-width="11" stroke-linecap="round" stroke-linejoin="round" opacity="1.0"/><path d="M324.0,249.5 L316.4,250.7 L308.7,251.8 L301.1,252.9 L293.5,254.1 L285.8,255.2 L278.2,256.3 L270.5,257.5 L262.9,258.6 L255.3,259.7 L247.6,260.9 L240.0,262.0" fill="none" stroke="#f43f5e" stroke-width="23" stroke-linecap="round" stroke-linejoin="round" opacity="0.95"/><path d="M324.0,249.5 L316.4,250.7 L308.7,251.8 L301.1,252.9 L293.5,254.1 L285.8,255.2 L278.2,256.3 L270.5,257.5 L262.9,258.6 L255.3,259.7 L247.6,260.9 L240.0,262.0" fill="none" stroke="#0c2020" stroke-width="15" stroke-linecap="round" stroke-linejoin="round" opacity="1.0"/><circle cx="350.0" cy="233.1" r="19.0" fill="#f43f5e" stroke="none" stroke-width="0" opacity="0.95"/><circle cx="350.0" cy="233.1" r="15.0" fill="#0c2020" stroke="none" stroke-width="6.3" opacity="1.0"/><path d="M348.0,216.1 L345.0,219.0 L342.0,222.0 L339.1,225.0 L336.1,228.0 L333.1,230.9 L330.1,233.9 L329.5,237.6 L330.4,241.7 L331.3,245.8 L332.1,249.9 L333.0,254.1" fill="none" stroke="#2dd4bf" stroke-width="5" stroke-linecap="round" stroke-linejoin="round" opacity="1.0"/><path d="M340.7,230.1 L342.4,230.1 L344.1,230.1 L345.8,230.1 L347.5,230.1 L349.2,230.1 L350.8,230.1 L352.5,230.1 L354.2,230.1 L355.9,230.1 L357.6,230.1 L359.3,230.1" fill="none" stroke="#a7f3ee" stroke-width="5" stroke-linecap="round" stroke-linejoin="round" opacity="1.0"/></g><g class="f12"><path d="M324.0,251.0 L330.9,247.7 L337.7,244.5 L344.6,241.2 L351.4,237.9 L358.3,234.7 L365.2,231.4 L372.3,229.0 L379.7,227.2 L387.2,225.5 L394.6,223.7 L402.0,222.0" fill="none" stroke="#2dd4bf" stroke-width="19" stroke-linecap="round" stroke-linejoin="round" opacity="0.95"/><path d="M324.0,251.0 L330.9,247.7 L337.7,244.5 L344.6,241.2 L351.4,237.9 L358.3,234.7 L365.2,231.4 L372.3,229.0 L379.7,227.2 L387.2,225.5 L394.6,223.7 L402.0,222.0" fill="none" stroke="#0c2020" stroke-width="11" stroke-linecap="round" stroke-linejoin="round" opacity="1.0"/><path d="M240.0,262.0 L228.5,259.4 L216.9,256.8 L205.4,254.1 L193.9,251.5 L182.4,248.9 L170.9,246.1 L159.5,242.9 L148.1,239.7 L136.7,236.4 L125.4,233.2 L114.0,230.0" fill="none" stroke="#2dd4bf" stroke-width="19" stroke-linecap="round" stroke-linejoin="round" opacity="0.95"/><path d="M240.0,262.0 L228.5,259.4 L216.9,256.8 L205.4,254.1 L193.9,251.5 L182.4,248.9 L170.9,246.1 L159.5,242.9 L148.1,239.7 L136.7,236.4 L125.4,233.2 L114.0,230.0" fill="none" stroke="#0c2020" stroke-width="11" stroke-linecap="round" stroke-linejoin="round" opacity="1.0"/><path d="M324.0,251.0 L316.4,252.0 L308.7,253.0 L301.1,254.0 L293.5,255.0 L285.8,256.0 L278.2,257.0 L270.5,258.0 L262.9,259.0 L255.3,260.0 L247.6,261.0 L240.0,262.0" fill="none" stroke="#f43f5e" stroke-width="23" stroke-linecap="round" stroke-linejoin="round" opacity="0.95"/><path d="M324.0,251.0 L316.4,252.0 L308.7,253.0 L301.1,254.0 L293.5,255.0 L285.8,256.0 L278.2,257.0 L270.5,258.0 L262.9,259.0 L255.3,260.0 L247.6,261.0 L240.0,262.0" fill="none" stroke="#0c2020" stroke-width="15" stroke-linecap="round" stroke-linejoin="round" opacity="1.0"/><circle cx="350.0" cy="236.0" r="19.0" fill="#f43f5e" stroke="none" stroke-width="0" opacity="0.95"/><circle cx="350.0" cy="236.0" r="15.0" fill="#0c2020" stroke="none" stroke-width="6.3" opacity="1.0"/><path d="M348.0,219.0 L345.0,222.0 L342.0,225.0 L339.1,227.9 L336.1,230.9 L333.1,233.9 L330.1,236.9 L329.5,240.5 L330.4,244.6 L331.3,248.8 L332.1,252.9 L333.0,257.0" fill="none" stroke="#2dd4bf" stroke-width="5" stroke-linecap="round" stroke-linejoin="round" opacity="1.0"/><path d="M340.7,233.0 L342.4,233.0 L344.1,233.0 L345.8,233.0 L347.5,233.0 L349.2,233.0 L350.8,233.0 L352.5,233.0 L354.2,233.0 L355.9,233.0 L357.6,233.0 L359.3,233.0" fill="none" stroke="#a7f3ee" stroke-width="5" stroke-linecap="round" stroke-linejoin="round" opacity="1.0"/></g><g class="f13"><path d="M324.0,252.5 L330.9,249.4 L337.8,246.4 L344.7,243.3 L351.6,240.3 L358.5,237.2 L365.4,234.1 L372.6,231.9 L379.9,230.1 L387.3,228.4 L394.6,226.7 L402.0,224.9" fill="none" stroke="#2dd4bf" stroke-width="19" stroke-linecap="round" stroke-linejoin="round" opacity="0.95"/><path d="M324.0,252.5 L330.9,249.4 L337.8,246.4 L344.7,243.3 L351.6,240.3 L358.5,237.2 L365.4,234.1 L372.6,231.9 L379.9,230.1 L387.3,228.4 L394.6,226.7 L402.0,224.9" fill="none" stroke="#0c2020" stroke-width="11" stroke-linecap="round" stroke-linejoin="round" opacity="1.0"/><path d="M240.0,262.0 L228.5,259.6 L217.0,257.3 L205.4,254.9 L193.9,252.5 L182.4,250.2 L170.9,247.7 L159.5,244.7 L148.1,241.8 L136.8,238.8 L125.4,235.9 L114.0,232.9" fill="none" stroke="#2dd4bf" stroke-width="19" stroke-linecap="round" stroke-linejoin="round" opacity="0.95"/><path d="M240.0,262.0 L228.5,259.6 L217.0,257.3 L205.4,254.9 L193.9,252.5 L182.4,250.2 L170.9,247.7 L159.5,244.7 L148.1,241.8 L136.8,238.8 L125.4,235.9 L114.0,232.9" fill="none" stroke="#0c2020" stroke-width="11" stroke-linecap="round" stroke-linejoin="round" opacity="1.0"/><path d="M324.0,252.5 L316.4,253.3 L308.7,254.2 L301.1,255.1 L293.5,255.9 L285.8,256.8 L278.2,257.7 L270.5,258.5 L262.9,259.4 L255.3,260.3 L247.6,261.1 L240.0,262.0" fill="none" stroke="#f43f5e" stroke-width="23" stroke-linecap="round" stroke-linejoin="round" opacity="0.95"/><path d="M324.0,252.5 L316.4,253.3 L308.7,254.2 L301.1,255.1 L293.5,255.9 L285.8,256.8 L278.2,257.7 L270.5,258.5 L262.9,259.4 L255.3,260.3 L247.6,261.1 L240.0,262.0" fill="none" stroke="#0c2020" stroke-width="15" stroke-linecap="round" stroke-linejoin="round" opacity="1.0"/><circle cx="350.0" cy="238.9" r="19.0" fill="#f43f5e" stroke="none" stroke-width="0" opacity="0.95"/><circle cx="350.0" cy="238.9" r="15.0" fill="#0c2020" stroke="none" stroke-width="6.3" opacity="1.0"/><path d="M348.0,221.9 L345.0,224.9 L342.0,227.9 L339.1,230.9 L336.1,233.8 L333.1,236.8 L330.1,239.8 L329.5,243.5 L330.4,247.6 L331.3,251.7 L332.1,255.8 L333.0,259.9" fill="none" stroke="#2dd4bf" stroke-width="5" stroke-linecap="round" stroke-linejoin="round" opacity="1.0"/><path d="M340.7,235.9 L342.4,235.9 L344.1,235.9 L345.8,235.9 L347.5,235.9 L349.2,235.9 L350.8,235.9 L352.5,235.9 L354.2,235.9 L355.9,235.9 L357.6,235.9 L359.3,235.9" fill="none" stroke="#a7f3ee" stroke-width="5" stroke-linecap="round" stroke-linejoin="round" opacity="1.0"/></g><g class="f14"><path d="M324.0,253.8 L330.9,250.9 L337.9,248.0 L344.8,245.1 L351.7,242.3 L358.7,239.4 L365.6,236.5 L372.7,234.4 L380.1,232.7 L387.4,230.9 L394.7,229.2 L402.0,227.5" fill="none" stroke="#2dd4bf" stroke-width="19" stroke-linecap="round" stroke-linejoin="round" opacity="0.95"/><path d="M324.0,253.8 L330.9,250.9 L337.9,248.0 L344.8,245.1 L351.7,242.3 L358.7,239.4 L365.6,236.5 L372.7,234.4 L380.1,232.7 L387.4,230.9 L394.7,229.2 L402.0,227.5" fill="none" stroke="#0c2020" stroke-width="11" stroke-linecap="round" stroke-linejoin="round" opacity="1.0"/><path d="M240.0,262.0 L228.5,259.9 L217.0,257.7 L205.5,255.6 L193.9,253.4 L182.4,251.3 L171.0,249.0 L159.6,246.3 L148.2,243.6 L136.8,240.9 L125.4,238.2 L114.0,235.5" fill="none" stroke="#2dd4bf" stroke-width="19" stroke-linecap="round" stroke-linejoin="round" opacity="0.95"/><path d="M240.0,262.0 L228.5,259.9 L217.0,257.7 L205.5,255.6 L193.9,253.4 L182.4,251.3 L171.0,249.0 L159.6,246.3 L148.2,243.6 L136.8,240.9 L125.4,238.2 L114.0,235.5" fill="none" stroke="#0c2020" stroke-width="11" stroke-linecap="round" stroke-linejoin="round" opacity="1.0"/><path d="M324.0,253.8 L316.4,254.5 L308.7,255.2 L301.1,256.0 L293.5,256.8 L285.8,257.5 L278.2,258.2 L270.5,259.0 L262.9,259.8 L255.3,260.5 L247.6,261.2 L240.0,262.0" fill="none" stroke="#f43f5e" stroke-width="23" stroke-linecap="round" stroke-linejoin="round" opacity="0.95"/><path d="M324.0,253.8 L316.4,254.5 L308.7,255.2 L301.1,256.0 L293.5,256.8 L285.8,257.5 L278.2,258.2 L270.5,259.0 L262.9,259.8 L255.3,260.5 L247.6,261.2 L240.0,262.0" fill="none" stroke="#0c2020" stroke-width="15" stroke-linecap="round" stroke-linejoin="round" opacity="1.0"/><circle cx="350.0" cy="241.5" r="19.0" fill="#f43f5e" stroke="none" stroke-width="0" opacity="0.95"/><circle cx="350.0" cy="241.5" r="15.0" fill="#0c2020" stroke="none" stroke-width="6.3" opacity="1.0"/><path d="M348.0,224.5 L345.0,227.5 L342.0,230.5 L339.1,233.4 L336.1,236.4 L333.1,239.4 L330.1,242.4 L329.5,246.0 L330.4,250.1 L331.3,254.3 L332.1,258.4 L333.0,262.5" fill="none" stroke="#2dd4bf" stroke-width="5" stroke-linecap="round" stroke-linejoin="round" opacity="1.0"/><path d="M340.7,238.5 L342.4,238.5 L344.1,238.5 L345.8,238.5 L347.5,238.5 L349.2,238.5 L350.8,238.5 L352.5,238.5 L354.2,238.5 L355.9,238.5 L357.6,238.5 L359.3,238.5" fill="none" stroke="#a7f3ee" stroke-width="5" stroke-linecap="round" stroke-linejoin="round" opacity="1.0"/></g><g class="f15"><path d="M324.0,254.7 L331.0,251.9 L337.9,249.2 L344.9,246.4 L351.8,243.7 L358.8,241.0 L365.7,238.2 L372.9,236.2 L380.2,234.5 L387.4,232.7 L394.7,231.0 L402.0,229.3" fill="none" stroke="#2dd4bf" stroke-width="19" stroke-linecap="round" stroke-linejoin="round" opacity="0.95"/><path d="M324.0,254.7 L331.0,251.9 L337.9,249.2 L344.9,246.4 L351.8,243.7 L358.8,241.0 L365.7,238.2 L372.9,236.2 L380.2,234.5 L387.4,232.7 L394.7,231.0 L402.0,229.3" fill="none" stroke="#0c2020" stroke-width="11" stroke-linecap="round" stroke-linejoin="round" opacity="1.0"/><path d="M240.0,262.0 L228.5,260.0 L217.0,258.0 L205.5,256.1 L194.0,254.1 L182.5,252.1 L171.0,250.0 L159.6,247.5 L148.2,244.9 L136.8,242.4 L125.4,239.8 L114.0,237.3" fill="none" stroke="#2dd4bf" stroke-width="19" stroke-linecap="round" stroke-linejoin="round" opacity="0.95"/><path d="M240.0,262.0 L228.5,260.0 L217.0,258.0 L205.5,256.1 L194.0,254.1 L182.5,252.1 L171.0,250.0 L159.6,247.5 L148.2,244.9 L136.8,242.4 L125.4,239.8 L114.0,237.3" fill="none" stroke="#0c2020" stroke-width="11" stroke-linecap="round" stroke-linejoin="round" opacity="1.0"/><path d="M324.0,254.7 L316.4,255.3 L308.7,256.0 L301.1,256.7 L293.5,257.3 L285.8,258.0 L278.2,258.7 L270.5,259.3 L262.9,260.0 L255.3,260.7 L247.6,261.3 L240.0,262.0" fill="none" stroke="#f43f5e" stroke-width="23" stroke-linecap="round" stroke-linejoin="round" opacity="0.95"/><path d="M324.0,254.7 L316.4,255.3 L308.7,256.0 L301.1,256.7 L293.5,257.3 L285.8,258.0 L278.2,258.7 L270.5,259.3 L262.9,260.0 L255.3,260.7 L247.6,261.3 L240.0,262.0" fill="none" stroke="#0c2020" stroke-width="15" stroke-linecap="round" stroke-linejoin="round" opacity="1.0"/><circle cx="350.0" cy="243.3" r="19.0" fill="#f43f5e" stroke="none" stroke-width="0" opacity="0.95"/><circle cx="350.0" cy="243.3" r="15.0" fill="#0c2020" stroke="none" stroke-width="6.3" opacity="1.0"/><path d="M348.0,226.3 L345.0,229.3 L342.0,232.3 L339.1,235.2 L336.1,238.2 L333.1,241.2 L330.1,244.2 L329.5,247.8 L330.4,252.0 L331.3,256.1 L332.1,260.2 L333.0,264.3" fill="none" stroke="#2dd4bf" stroke-width="5" stroke-linecap="round" stroke-linejoin="round" opacity="1.0"/><path d="M340.7,240.3 L342.4,240.3 L344.1,240.3 L345.8,240.3 L347.5,240.3 L349.2,240.3 L350.8,240.3 L352.5,240.3 L354.2,240.3 L355.9,240.3 L357.6,240.3 L359.3,240.3" fill="none" stroke="#a7f3ee" stroke-width="5" stroke-linecap="round" stroke-linejoin="round" opacity="1.0"/></g></svg>
