<svg xmlns="http://www.w3.org/2000/svg" viewBox="0 0 480 320"><style>@keyframes k0{0%{opacity:1}11.111%{opacity:0}100%{opacity:0}}.f0{opacity:0;animation:k0 2.4s steps(1,end) infinite}@keyframes k1{0%{opacity:0}11.111%{opacity:1}16.667%{opacity:0}100%{opacity:0}}.f1{opacity:0;animation:k1 2.4s steps(1,end) infinite}@keyframes k2{0%{opacity:0}16.667%{opacity:1}22.222%{opacity:0}100%{opacity:0}}.f2{opacity:0;animation:k2 2.4s steps(1,end) infinite}@keyframes k3{0%{opacity:0}22.222%{opacity:1}27.778%{opacity:0}100%{opacity:0}}.f3{opacity:0;animation:k3 2.4s steps(1,end) infinite}@keyframes k4{0%{opacity:0}27.778%{opacity:1}33.333%{opacity:0}100%{opacity:0}}.f4{opacity:0;animation:k4 2.4s steps(1,end) infinite}@keyframes k5{0%{opacity:0}33.333%{opacity:1}38.889%{opacity:0}100%{opacity:0}}.f5{opacity:0;animation:k5 2.4s steps(1,end) infinite}@keyframes k6{0%{opacity:0}38.889%{opacity:1}44.444%{opacity:0}100%{opacity:0}}.f6{opacity:0;animation:k6 2.4s steps(1,end) infinite}@keyframes k7{0%{opacity:0}44.444%{opacity:1}50.000%{opacity:0}100%{opacity:0}}.f7{opacity:0;animation:k7 2.4s steps(1,end) infinite}@keyframes k8{0%{opacity:0}50.000%{opacity:1}61.111%{opacity:0}100%{opacity:0}}.f8{opacity:0;animation:k8 2.4s steps(1,end) infinite}@keyframes k9{0%{opacity:0}61.111%{opacity:1}66.667%{opacity:0}100%{opacity:0}}.f9{opacity:0;animation:k9 2.4s steps(1,end) infinite}@keyframes k10{0%{opacity:0}66.667%{opacity:1}72.222%{opacity:0}100%{opacity:0}}.f10{opacity:0;animation:k10 2.4s steps(1,end) infinite}@keyframes k11{0%{opacity:0}72.222%{opacity:1}77.778%{opacity:0}100%{opacity:0}}.f11{opacity:0;animation:k11 2.4s steps(1,end) infinite}@keyframes k12{0%{opacity:0}77.778%{opacity:1}83.333%{opacity:0}100%{opacity:0}}.f12{opacity:0;animation:k12 2.4s steps(1,end) infinite}@keyframes k13{0%{opacity:0}83.333%{opacity:1}88.889%{opacity:0}100%{opacity:0}}.f13{opacity:0;animation:k13 2.4s steps(1,end) infinite}@keyframes k14{0%{opacity:0}88.889%{opacity:1}94.444%{opacity:0}100%{opacity:0}}.f14{opacity:0;animation:k14 2.4s steps(1,end) infinite}@keyframes k15{0%{opacity:0}94.444%{opacity:1}100%{opacity:1}}.f15{opacity:0;animation:k15 2.4s steps(1,end) infinite}</style><path d="M40.0,292.0 L440.0,292.0" fill="none" stroke="#1f3333" stroke-width="6" stroke-linecap="round" stroke-linejoin="round" opacity="1.0"/><g class="f0"><path d="M320.0,240.0 L323.2,235.2 L326.4,230.4 L329.6,225.5 L332.9,220.7 L336.1,215.9 L341.4,213.6 L346.8,211.3 L352.1,209.0 L357.4,206.6 L362.7,204.3 L368.0,202.0" fill="none" stroke="#2dd4bf" stroke-width="21" stroke-linecap="round" stroke-linejoin="round" opacity="0.95"/><path d="M320.0,240.0 L323.2,235.2 L326.4,230.4 L329.6,225.5 L332.9,220.7 L336.1,215.9 L341.4,213.6 L346.8,211.3 L352.1,209.0 L357.4,206.6 L362.7,204.3 L368.0,202.0" fill="none" stroke="#0c2020" stroke-width="13" stroke-linecap="round" stroke-linejoin="round" opacity="1.0"/><path d="M240.0,262.0 L228.5,258.4 L216.9,254.7 L205.4,251.1 L193.8,247.5 L182.3,243.9 L170.8,240.2 L159.0,237.4 L147.3,234.5 L135.5,231.7 L123.8,228.8 L112.0,226.0" fill="none" stroke="#2dd4bf" stroke-width="21" stroke-linecap="round" stroke-linejoin="round" opacity="0.95"/><path d="M240.0,262.0 L228.5,258.4 L216.9,254.7 L205.4,251.1 L193.8,247.5 L182.3,243.9 L170.8,240.2 L159.0,237.4 L147.3,234.5 L135.5,231.7 L123.8,228.8 L112.0,226.0" fill="none" stroke="#0c2020" stroke-width="13" stroke-linecap="round" stroke-linejoin="round" opacity="1.0"/><path d="M320.0,240.0 L312.7,242.0 L305.5,244.0 L298.2,246.0 L290.9,248.0 L283.6,250.0 L276.4,252.0 L269.1,254.0 L261.8,256.0 L254.5,258.0 L247.3,260.0 L240.0,262.0" fill="none" stroke="#f43f5e" stroke-width="25" stroke-linecap="round" stroke-linejoin="round" opacity="0.95"/><path d="M320.0,240.0 L312.7,242.0 L305.5,244.0 L298.2,246.0 L290.9,248.0 L283.6,250.0 L276.4,252.0 L269.1,254.0 L261.8,256.0 L254.5,258.0 L247.3,260.0 L240.0,262.0" fill="none" stroke="#0c2020" stroke-width="17" stroke-linecap="round" stroke-linejoin="round" opacity="1.0"/><circle cx="344.0" cy="228.0" r="19.0" fill="#f43f5e" stroke="none" stroke-width="0" opacity="0.95"/><circle cx="344.0" cy="228.0" r="15.0" fill="#0c2020" stroke="none" stroke-width="6.3" opacity="1.0"/><path d="M334.7,225.0 L336.4,225.0 L338.1,225.0 L339.8,225.0 L341.5,225.0 L343.2,225.0 L344.8,225.0 L346.5,225.0 L348.2,225.0 L349.9,225.0 L351.6,225.0 L353.3,225.0" fill="none" stroke="#a7f3ee" stroke-width="5" stroke-linecap="round" stroke-linejoin="round" opacity="1.0"/></g><g class="f1"><path d="M318.8,237.9 L321.6,233.2 L324.4,228.4 L327.1,223.6 L329.9,218.8 L332.7,214.1 L337.5,211.8 L342.3,209.3 L347.1,206.9 L351.9,204.5 L356.7,202.1 L361.6,199.7" fill="none" stroke="#2dd4bf" stroke-width="21" stroke-linecap="round" stroke-linejoin="round" opacity="0.95"/><path d="M318.8,237.9 L321.6,233.2 L324.4,228.4 L327.1,223.6 L329.9,218.8 L332.7,214.1 L337.5,211.8 L342.3,209.3 L347.1,206.9 L351.9,204.5 L356.7,202.1 L361.6,199.7" fill="none" stroke="#0c2020" stroke-width="13" stroke-linecap="round" stroke-linejoin="round" opacity="1.0"/><path d="M240.0,262.0 L228.6,258.1 L217.3,254.2 L205.9,250.2 L194.5,246.3 L183.1,242.4 L171.8,238.5 L160.1,235.3 L148.5,232.2 L136.8,229.0 L125.2,225.9 L113.5,222.8" fill="none" stroke="#2dd4bf" stroke-width="21" stroke-linecap="round" stroke-linejoin="round" opacity="0.95"/><path d="M240.0,262.0 L228.6,258.1 L217.3,254.2 L205.9,250.2 L194.5,246.3 L183.1,242.4 L171.8,238.5 L160.1,235.3 L148.5,232.2 L136.8,229.0 L125.2,225.9 L113.5,222.8" fill="none" stroke="#0c2020" stroke-width="13" stroke-linecap="round" stroke-linejoin="round" opacity="1.0"/><path d="M318.8,237.9 L311.6,240.1 L304.5,242.3 L297.3,244.5 L290.1,246.7 L283.0,248.9 L275.8,251.1 L268.7,253.2 L261.5,255.4 L254.3,257.6 L247.2,259.8 L240.0,262.0" fill="none" stroke="#f43f5e" stroke-width="25" stroke-linecap="round" stroke-linejoin="round" opacity="0.95"/><path d="M318.8,237.9 L311.6,240.1 L304.5,242.3 L297.3,244.5 L290.1,246.7 L283.0,248.9 L275.8,251.1 L268.7,253.2 L261.5,255.4 L254.3,257.6 L247.2,259.8 L240.0,262.0" fill="none" stroke="#0c2020" stroke-width="17" stroke-linecap="round" stroke-linejoin="round" opacity="1.0"/><circle cx="342.4" cy="225.4" r="19.0" fill="#f43f5e" stroke="none" stroke-width="0" opacity="0.95"/><circle cx="342.4" cy="225.4" r="15.0" fill="#0c2020" stroke="none" stroke-width="6.3" opacity="1.0"/><path d="M333.1,222.4 L334.8,222.4 L336.4,222.4 L338.1,222.4 L339.8,222.4 L341.5,222.4 L343.2,222.4 L344.9,222.4 L346.6,222.4 L348.3,222.4 L350.0,222.4 L351.7,222.4" fill="none" stroke="#a7f3ee" stroke-width="5" stroke-linecap="round" stroke-linejoin="round" opacity="1.0"/></g><g class="f2"><path d="M315.6,232.5 L317.3,227.9 L318.9,223.2 L320.5,218.6 L322.1,213.9 L323.8,209.4 L327.2,206.8 L330.7,204.2 L334.1,201.5 L337.6,198.9 L341.1,196.2 L344.6,193.6" fill="none" stroke="#2dd4bf" stroke-width="21" stroke-linecap="round" stroke-linejoin="round" opacity="0.95"/><path d="M315.6,232.5 L317.3,227.9 L318.9,223.2 L320.5,218.6 L322.1,213.9 L323.8,209.4 L327.2,206.8 L330.7,204.2 L334.1,201.5 L337.6,198.9 L341.1,196.2 L344.6,193.6" fill="none" stroke="#0c2020" stroke-width="13" stroke-linecap="round" stroke-linejoin="round" opacity="1.0"/><path d="M240.0,262.0 L229.1,257.3 L218.1,252.6 L207.2,247.9 L196.3,243.2 L185.3,238.4 L174.4,233.7 L163.1,229.8 L151.7,226.0 L140.4,222.1 L129.0,218.3 L117.6,214.4" fill="none" stroke="#2dd4bf" stroke-width="21" stroke-linecap="round" stroke-linejoin="round" opacity="0.95"/><path d="M240.0,262.0 L229.1,257.3 L218.1,252.6 L207.2,247.9 L196.3,243.2 L185.3,238.4 L174.4,233.7 L163.1,229.8 L151.7,226.0 L140.4,222.1 L129.0,218.3 L117.6,214.4" fill="none" stroke="#0c2020" stroke-width="13" stroke-linecap="round" stroke-linejoin="round" opacity="1.0"/><path d="M315.6,232.5 L308.8,235.2 L301.9,237.9 L295.0,240.5 L288.1,243.2 L281.2,245.9 L274.4,248.6 L267.5,251.3 L260.6,254.0 L253.8,256.6 L246.9,259.3 L240.0,262.0" fill="none" stroke="#f43f5e" stroke-width="25" stroke-linecap="round" stroke-linejoin="round" opacity="0.95"/><path d="M315.6,232.5 L308.8,235.2 L301.9,237.9 L295.0,240.5 L288.1,243.2 L281.2,245.9 L274.4,248.6 L267.5,251.3 L260.6,254.0 L253.8,256.6 L246.9,259.3 L240.0,262.0" fill="none" stroke="#0c2020" stroke-width="17" stroke-linecap="round" stroke-linejoin="round" opacity="1.0"/><circle cx="338.1" cy="218.6" r="19.0" fill="#f43f5e" stroke="none" stroke-width="0" opacity="0.95"/><circle cx="338.1" cy="218.6" r="15.0" fill="#0c2020" stroke="none" stroke-width="6.3" opacity="1.0"/><path d="M328.8,215.6 L330.5,215.6 L332.1,215.6 L333.8,215.6 L335.5,215.6 L337.2,215.6 L338.9,215.6 L340.6,215.6 L342.3,215.6 L344.0,215.6 L345.7,215.6 L347.4,215.6" fill="none" stroke="#a7f3ee" stroke-width="5" stroke-linecap="round" stroke-linejoin="round" opacity="1.0"/></g><g class="f3"><path d="M311.1,224.8 L311.1,220.4 L311.1,215.9 L311.1,211.5 L311.1,207.0 L311.2,202.6 L312.6,199.9 L314.2,196.9 L315.8,193.9 L317.4,190.9 L319.0,187.9 L320.5,184.9" fill="none" stroke="#2dd4bf" stroke-width="21" stroke-linecap="round" stroke-linejoin="round" opacity="0.95"/><path d="M311.1,224.8 L311.1,220.4 L311.1,215.9 L311.1,211.5 L311.1,207.0 L311.2,202.6 L312.6,199.9 L314.2,196.9 L315.8,193.9 L317.4,190.9 L319.0,187.9 L320.5,184.9" fill="none" stroke="#0c2020" stroke-width="13" stroke-linecap="round" stroke-linejoin="round" opacity="1.0"/><path d="M240.0,262.0 L229.7,256.2 L219.4,250.4 L209.0,244.5 L198.7,238.7 L188.4,232.9 L178.1,227.1 L167.2,222.0 L156.3,217.2 L145.3,212.3 L134.4,207.5 L123.4,202.6" fill="none" stroke="#2dd4bf" stroke-width="21" stroke-linecap="round" stroke-linejoin="round" opacity="0.95"/><path d="M240.0,262.0 L229.7,256.2 L219.4,250.4 L209.0,244.5 L198.7,238.7 L188.4,232.9 L178.1,227.1 L167.2,222.0 L156.3,217.2 L145.3,212.3 L134.4,207.5 L123.4,202.6" fill="none" stroke="#0c2020" stroke-width="13" stroke-linecap="round" stroke-linejoin="round" opacity="1.0"/><path d="M311.1,224.8 L304.7,228.2 L298.2,231.6 L291.7,235.0 L285.3,238.3 L278.8,241.7 L272.3,245.1 L265.9,248.5 L259.4,251.9 L252.9,255.2 L246.5,258.6 L240.0,262.0" fill="none" stroke="#f43f5e" stroke-width="25" stroke-linecap="round" stroke-linejoin="round" opacity="0.95"/><path d="M311.1,224.8 L304.7,228.2 L298.2,231.6 L291.7,235.0 L285.3,238.3 L278.8,241.7 L272.3,245.1 L265.9,248.5 L259.4,251.9 L252.9,255.2 L246.5,258.6 L240.0,262.0" fill="none" stroke="#0c2020" stroke-width="17" stroke-linecap="round" stroke-linejoin="round" opacity="1.0"/><circle cx="332.0" cy="209.0" r="19.0" fill="#f43f5e" stroke="none" stroke-width="0" opacity="0.95"/><circle cx="332.0" cy="209.0" r="15.0" fill="#0c2020" stroke="none" stroke-width="6.3" opacity="1.0"/><path d="M322.7,206.0 L324.4,206.0 L326.1,206.0 L327.7,206.0 L329.4,206.0 L331.1,206.0 L332.8,206.0 L334.5,206.0 L336.2,206.0 L337.9,206.0 L339.6,206.0 L341.3,206.0" fill="none" stroke="#a7f3ee" stroke-width="5" stroke-linecap="round" stroke-linejoin="round" opacity="1.0"/></g><g class="f4"><path d="M306.0,216.0 L304.1,211.8 L302.3,207.5 L300.4,203.3 L298.5,199.1 L296.7,194.9 L295.9,191.9 L295.3,188.5 L294.7,185.1 L294.1,181.8 L293.6,178.4 L293.0,175.0" fill="none" stroke="#2dd4bf" stroke-width="21" stroke-linecap="round" stroke-linejoin="round" opacity="0.95"/><path d="M306.0,216.0 L304.1,211.8 L302.3,207.5 L300.4,203.3 L298.5,199.1 L296.7,194.9 L295.9,191.9 L295.3,188.5 L294.7,185.1 L294.1,181.8 L293.6,178.4 L293.0,175.0" fill="none" stroke="#0c2020" stroke-width="13" stroke-linecap="round" stroke-linejoin="round" opacity="1.0"/><path d="M240.0,262.0 L230.4,254.9 L220.8,247.8 L211.2,240.7 L201.5,233.6 L191.9,226.5 L182.3,219.4 L172.0,213.2 L161.5,207.1 L151.0,201.1 L140.5,195.0 L130.0,189.0" fill="none" stroke="#2dd4bf" stroke-width="21" stroke-linecap="round" stroke-linejoin="round" opacity="0.95"/><path d="M240.0,262.0 L230.4,254.9 L220.8,247.8 L211.2,240.7 L201.5,233.6 L191.9,226.5 L182.3,219.4 L172.0,213.2 L161.5,207.1 L151.0,201.1 L140.5,195.0 L130.0,189.0" fill="none" stroke="#0c2020" stroke-width="13" stroke-linecap="round" stroke-linejoin="round" opacity="1.0"/><path d="M306.0,216.0 L300.0,220.2 L294.0,224.4 L288.0,228.5 L282.0,232.7 L276.0,236.9 L270.0,241.1 L264.0,245.3 L258.0,249.5 L252.0,253.6 L246.0,257.8 L240.0,262.0" fill="none" stroke="#f43f5e" stroke-width="25" stroke-linecap="round" stroke-linejoin="round" opacity="0.95"/><path d="M306.0,216.0 L300.0,220.2 L294.0,224.4 L288.0,228.5 L282.0,232.7 L276.0,236.9 L270.0,241.1 L264.0,245.3 L258.0,249.5 L252.0,253.6 L246.0,257.8 L240.0,262.0" fill="none" stroke="#0c2020" stroke-width="17" stroke-linecap="round" stroke-linejoin="round" opacity="1.0"/><circle cx="325.0" cy="198.0" r="19.0" fill="#f43f5e" stroke="none" stroke-width="0" opacity="0.95"/><circle cx="325.0" cy="198.0" r="15.0" fill="#0c2020" stroke="none" stroke-width="6.3" opacity="1.0"/><path d="M315.7,195.0 L317.4,195.0 L319.1,195.0 L320.8,195.0 L322.5,195.0 L324.2,195.0 L325.8,195.0 L327.5,195.0 L329.2,195.0 L330.9,195.0 L332.6,195.0 L334.3,195.0" fill="none" stroke="#a7f3ee" stroke-width="5" stroke-linecap="round" stroke-linejoin="round" opacity="1.0"/></g><g class="f5"><path d="M300.9,207.2 L297.1,203.2 L293.4,199.2 L289.7,195.1 L285.9,191.1 L282.2,187.1 L279.2,183.9 L276.4,180.2 L273.7,176.4 L270.9,172.6 L268.2,168.9 L265.5,165.1" fill="none" stroke="#2dd4bf" stroke-width="21" stroke-linecap="round" stroke-linejoin="round" opacity="0.95"/><path d="M300.9,207.2 L297.1,203.2 L293.4,199.2 L289.7,195.1 L285.9,191.1 L282.2,187.1 L279.2,183.9 L276.4,180.2 L273.7,176.4 L270.9,172.6 L268.2,168.9 L265.5,165.1" fill="none" stroke="#0c2020" stroke-width="13" stroke-linecap="round" stroke-linejoin="round" opacity="1.0"/><path d="M240.0,262.0 L231.1,253.6 L222.2,245.2 L213.3,236.9 L204.4,228.5 L195.5,220.1 L186.6,211.7 L176.8,204.3 L166.7,197.1 L156.7,189.9 L146.6,182.6 L136.6,175.4" fill="none" stroke="#2dd4bf" stroke-width="21" stroke-linecap="round" stroke-linejoin="round" opacity="0.95"/><path d="M240.0,262.0 L231.1,253.6 L222.2,245.2 L213.3,236.9 L204.4,228.5 L195.5,220.1 L186.6,211.7 L176.8,204.3 L166.7,197.1 L156.7,189.9 L146.6,182.6 L136.6,175.4" fill="none" stroke="#0c2020" stroke-width="13" stroke-linecap="round" stroke-linejoin="round" opacity="1.0"/><path d="M300.9,207.2 L295.3,212.2 L289.8,217.2 L284.3,222.1 L278.7,227.1 L273.2,232.1 L267.7,237.1 L262.1,242.1 L256.6,247.1 L251.1,252.0 L245.5,257.0 L240.0,262.0" fill="none" stroke="#f43f5e" stroke-width="25" stroke-linecap="round" stroke-linejoin="round" opacity="0.95"/><path d="M300.9,207.2 L295.3,212.2 L289.8,217.2 L284.3,222.1 L278.7,227.1 L273.2,232.1 L267.7,237.1 L262.1,242.1 L256.6,247.1 L251.1,252.0 L245.5,257.0 L240.0,262.0" fill="none" stroke="#0c2020" stroke-width="17" stroke-linecap="round" stroke-linejoin="round" opacity="1.0"/><circle cx="318.0" cy="187.0" r="19.0" fill="#f43f5e" stroke="none" stroke-width="0" opacity="0.95"/><circle cx="318.0" cy="187.0" r="15.0" fill="#0c2020" stroke="none" stroke-width="6.3" opacity="1.0"/><path d="M308.7,184.0 L310.4,184.0 L312.1,184.0 L313.8,184.0 L315.5,184.0 L317.2,184.0 L318.9,184.0 L320.6,184.0 L322.3,184.0 L323.9,184.0 L325.6,184.0 L327.3,184.0" fill="none" stroke="#a7f3ee" stroke-width="5" stroke-linecap="round" stroke-linejoin="round" opacity="1.0"/></g><g class="f6"><path d="M296.4,199.5 L291.0,195.7 L285.7,191.9 L280.3,188.0 L274.9,184.2 L269.6,180.4 L264.6,177.0 L259.9,172.9 L255.3,168.8 L250.7,164.7 L246.1,160.5 L241.4,156.4" fill="none" stroke="#2dd4bf" stroke-width="21" stroke-linecap="round" stroke-linejoin="round" opacity="0.95"/><path d="M296.4,199.5 L291.0,195.7 L285.7,191.9 L280.3,188.0 L274.9,184.2 L269.6,180.4 L264.6,177.0 L259.9,172.9 L255.3,168.8 L250.7,164.7 L246.1,160.5 L241.4,156.4" fill="none" stroke="#0c2020" stroke-width="13" stroke-linecap="round" stroke-linejoin="round" opacity="1.0"/><path d="M240.0,262.0 L231.7,252.5 L223.4,243.0 L215.1,233.5 L206.8,224.0 L198.5,214.6 L190.2,205.1 L180.9,196.5 L171.3,188.3 L161.7,180.1 L152.0,171.8 L142.4,163.6" fill="none" stroke="#2dd4bf" stroke-width="21" stroke-linecap="round" stroke-linejoin="round" opacity="0.95"/><path d="M240.0,262.0 L231.7,252.5 L223.4,243.0 L215.1,233.5 L206.8,224.0 L198.5,214.6 L190.2,205.1 L180.9,196.5 L171.3,188.3 L161.7,180.1 L152.0,171.8 L142.4,163.6" fill="none" stroke="#0c2020" stroke-width="13" stroke-linecap="round" stroke-linejoin="round" opacity="1.0"/><path d="M296.4,199.5 L291.2,205.2 L286.1,210.9 L281.0,216.5 L275.9,222.2 L270.8,227.9 L265.6,233.6 L260.5,239.3 L255.4,245.0 L250.2,250.6 L245.1,256.3 L240.0,262.0" fill="none" stroke="#f43f5e" stroke-width="25" stroke-linecap="round" stroke-linejoin="round" opacity="0.95"/><path d="M296.4,199.5 L291.2,205.2 L286.1,210.9 L281.0,216.5 L275.9,222.2 L270.8,227.9 L265.6,233.6 L260.5,239.3 L255.4,245.0 L250.2,250.6 L245.1,256.3 L240.0,262.0" fill="none" stroke="#0c2020" stroke-width="17" stroke-linecap="round" stroke-linejoin="round" opacity="1.0"/><circle cx="311.9" cy="177.4" r="19.0" fill="#f43f5e" stroke="none" stroke-width="0" opacity="0.95"/><circle cx="311.9" cy="177.4" r="15.0" fill="#0c2020" stroke="none" stroke-width="6.3" opacity="1.0"/><path d="M302.6,174.4 L304.3,174.4 L306.0,174.4 L307.7,174.4 L309.4,174.4 L311.1,174.4 L312.8,174.4 L314.5,174.4 L316.2,174.4 L317.9,174.4 L319.5,174.4 L321.2,174.4" fill="none" stroke="#a7f3ee" stroke-width="5" stroke-linecap="round" stroke-linejoin="round" opacity="1.0"/></g><g class="f7"><path d="M293.2,194.1 L286.7,190.4 L280.2,186.7 L273.7,183.0 L267.2,179.3 L260.7,175.6 L254.2,172.0 L248.3,167.7 L242.3,163.4 L236.4,159.0 L230.4,154.7 L224.4,150.3" fill="none" stroke="#2dd4bf" stroke-width="21" stroke-linecap="round" stroke-linejoin="round" opacity="0.95"/><path d="M293.2,194.1 L286.7,190.4 L280.2,186.7 L273.7,183.0 L267.2,179.3 L260.7,175.6 L254.2,172.0 L248.3,167.7 L242.3,163.4 L236.4,159.0 L230.4,154.7 L224.4,150.3" fill="none" stroke="#0c2020" stroke-width="13" stroke-linecap="round" stroke-linejoin="round" opacity="1.0"/><path d="M240.0,262.0 L232.1,251.7 L224.3,241.4 L216.4,231.2 L208.6,220.9 L200.7,210.6 L192.9,200.3 L183.9,191.1 L174.5,182.1 L165.2,173.1 L155.8,164.2 L146.5,155.2" fill="none" stroke="#2dd4bf" stroke-width="21" stroke-linecap="round" stroke-linejoin="round" opacity="0.95"/><path d="M240.0,262.0 L232.1,251.7 L224.3,241.4 L216.4,231.2 L208.6,220.9 L200.7,210.6 L192.9,200.3 L183.9,191.1 L174.5,182.1 L165.2,173.1 L155.8,164.2 L146.5,155.2" fill="none" stroke="#0c2020" stroke-width="13" stroke-linecap="round" stroke-linejoin="round" opacity="1.0"/><path d="M293.2,194.1 L288.4,200.2 L283.5,206.4 L278.7,212.6 L273.9,218.8 L269.0,224.9 L264.2,231.1 L259.3,237.3 L254.5,243.5 L249.7,249.6 L244.8,255.8 L240.0,262.0" fill="none" stroke="#f43f5e" stroke-width="25" stroke-linecap="round" stroke-linejoin="round" opacity="0.95"/><path d="M293.2,194.1 L288.4,200.2 L283.5,206.4 L278.7,212.6 L273.9,218.8 L269.0,224.9 L264.2,231.1 L259.3,237.3 L254.5,243.5 L249.7,249.6 L244.8,255.8 L240.0,262.0" fill="none" stroke="#0c2020" stroke-width="17" stroke-linecap="round" stroke-linejoin="round" opacity="1.0"/><circle cx="307.6" cy="170.6" r="19.0" fill="#f43f5e" stroke="none" stroke-width="0" opacity="0.95"/><circle cx="307.6" cy="170.6" r="15.0" fill="#0c2020" stroke="none" stroke-width="6.3" opacity="1.0"/><path d="M298.3,167.6 L300.0,167.6 L301.7,167.6 L303.4,167.6 L305.1,167.6 L306.8,167.6 L308.5,167.6 L310.2,167.6 L311.9,167.6 L313.6,167.6 L315.2,167.6 L316.9,167.6" fill="none" stroke="#a7f3ee" stroke-width="5" stroke-linecap="round" stroke-linejoin="round" opacity="1.0"/></g><g class="f8"><path d="M292.0,192.0 L285.1,188.4 L278.1,184.7 L271.2,181.1 L264.2,177.4 L257.3,173.8 L250.3,170.2 L243.8,165.8 L237.4,161.3 L230.9,156.9 L224.5,152.4 L218.0,148.0" fill="none" stroke="#2dd4bf" stroke-width="21" stroke-linecap="round" stroke-linejoin="round" opacity="0.95"/><path d="M292.0,192.0 L285.1,188.4 L278.1,184.7 L271.2,181.1 L264.2,177.4 L257.3,173.8 L250.3,170.2 L243.8,165.8 L237.4,161.3 L230.9,156.9 L224.5,152.4 L218.0,148.0" fill="none" stroke="#0c2020" stroke-width="13" stroke-linecap="round" stroke-linejoin="round" opacity="1.0"/><path d="M240.0,262.0 L232.3,251.4 L224.6,240.9 L216.9,230.3 L209.2,219.7 L201.5,209.1 L193.9,198.6 L185.0,189.0 L175.7,179.7 L166.5,170.5 L157.2,161.2 L148.0,152.0" fill="none" stroke="#2dd4bf" stroke-width="21" stroke-linecap="round" stroke-linejoin="round" opacity="0.95"/><path d="M240.0,262.0 L232.3,251.4 L224.6,240.9 L216.9,230.3 L209.2,219.7 L201.5,209.1 L193.9,198.6 L185.0,189.0 L175.7,179.7 L166.5,170.5 L157.2,161.2 L148.0,152.0" fill="none" stroke="#0c2020" stroke-width="13" stroke-linecap="round" stroke-linejoin="round" opacity="1.0"/><path d="M292.0,192.0 L287.3,198.4 L282.5,204.7 L277.8,211.1 L273.1,217.5 L268.4,223.8 L263.6,230.2 L258.9,236.5 L254.2,242.9 L249.5,249.3 L244.7,255.6 L240.0,262.0" fill="none" stroke="#f43f5e" stroke-width="25" stroke-linecap="round" stroke-linejoin="round" opacity="0.95"/><path d="M292.0,192.0 L287.3,198.4 L282.5,204.7 L277.8,211.1 L273.1,217.5 L268.4,223.8 L263.6,230.2 L258.9,236.5 L254.2,242.9 L249.5,249.3 L244.7,255.6 L240.0,262.0" fill="none" stroke="#0c2020" stroke-width="17" stroke-linecap="round" stroke-linejoin="round" opacity="1.0"/><circle cx="306.0" cy="168.0" r="19.0" fill="#f43f5e" stroke="none" stroke-width="0" opacity="0.95"/><circle cx="306.0" cy="168.0" r="15.0" fill="#0c2020" stroke="none" stroke-width="6.3" opacity="1.0"/><path d="M296.7,165.0 L298.4,165.0 L300.1,165.0 L301.8,165.0 L303.5,165.0 L305.2,165.0 L306.8,165.0 L308.5,165.0 L310.2,165.0 L311.9,165.0 L313.6,165.0 L315.3,165.0" fill="none" stroke="#a7f3ee" stroke-width="5" stroke-linecap="round" stroke-linejoin="round" opacity="1.0"/></g><g class="f9"><path d="M293.2,194.1 L286.7,190.4 L280.2,186.7 L273.7,183.0 L267.2,179.3 L260.7,175.6 L254.2,172.0 L248.3,167.7 L242.3,163.4 L236.4,159.0 L230.4,154.7 L224.4,150.3" fill="none" stroke="#2dd4bf" stroke-width="21" stroke-linecap="round" stroke-linejoin="round" opacity="0.95"/><path d="M293.2,194.1 L286.7,190.4 L280.2,186.7 L273.7,183.0 L267.2,179.3 L260.7,175.6 L254.2,172.0 L248.3,167.7 L242.3,163.4 L236.4,159.0 L230.4,154.7 L224.4,150.3" fill="none" stroke="#0c2020" stroke-width="13" stroke-linecap="round" stroke-linejoin="round" opacity="1.0"/><path d="M240.0,262.0 L232.1,251.7 L224.3,241.4 L216.4,231.2 L208.6,220.9 L200.7,210.6 L192.9,200.3 L183.9,191.1 L174.5,182.1 L165.2,173.1 L155.8,164.2 L146.5,155.2" fill="none" stroke="#2dd4bf" stroke-width="21" stroke-linecap="round" stroke-linejoin="round" opacity="0.95"/><path d="M240.0,262.0 L232.1,251.7 L224.3,241.4 L216.4,231.2 L208.6,220.9 L200.7,210.6 L192.9,200.3 L183.9,191.1 L174.5,182.1 L165.2,173.1 L155.8,164.2 L146.5,155.2" fill="none" stroke="#0c2020" stroke-width="13" stroke-linecap="round" stroke-linejoin="round" opacity="1.0"/><path d="M293.2,194.1 L288.4,200.2 L283.5,206.4 L278.7,212.6 L273.9,218.8 L269.0,224.9 L264.2,231.1 L259.3,237.3 L254.5,243.5 L249.7,249.6 L244.8,255.8 L240.0,262.0" fill="none" stroke="#f43f5e" stroke-width="25" stroke-linecap="round" stroke-linejoin="round" opacity="0.95"/><path d="M293.2,194.1 L288.4,200.2 L283.5,206.4 L278.7,212.6 L273.9,218.8 L269.0,224.9 L264.2,231.1 L259.3,237.3 L254.5,243.5 L249.7,249.6 L244.8,255.8 L240.0,262.0" fill="none" stroke="#0c2020" stroke-width="17" stroke-linecap="round" stroke-linejoin="round" opacity="1.0"/><circle cx="307.6" cy="170.6" r="19.0" fill="#f43f5e" stroke="none" stroke-width="0" opacity="0.95"/><circle cx="307.6" cy="170.6" r="15.0" fill="#0c2020" stroke="none" stroke-width="6.3" opacity="1.0"/><path d="M298.3,167.6 L300.0,167.6 L301.7,167.6 L303.4,167.6 L305.1,167.6 L306.8,167.6 L308.5,167.6 L310.2,167.6 L311.9,167.6 L313.6,167.6 L315.2,167.6 L316.9,167.6" fill="none" stroke="#a7f3ee" stroke-width="5" stroke-linecap="round" stroke-linejoin="round" opacity="1.0"/></g><g class="f10"><path d="M296.4,199.5 L291.0,195.7 L285.7,191.9 L280.3,188.0 L274.9,184.2 L269.6,180.4 L264.6,177.0 L259.9,172.9 L255.3,168.8 L250.7,164.7 L246.1,160.5 L241.4,156.4" fill="none" stroke="#2dd4bf" stroke-width="21" stroke-linecap="round" stroke-linejoin="round" opacity="0.95"/><path d="M296.4,199.5 L291.0,195.7 L285.7,191.9 L280.3,188.0 L274.9,184.2 L269.6,180.4 L264.6,177.0 L259.9,172.9 L255.3,168.8 L250.7,164.7 L246.1,160.5 L241.4,156.4" fill="none" stroke="#0c2020" stroke-width="13" stroke-linecap="round" stroke-linejoin="round" opacity="1.0"/><path d="M240.0,262.0 L231.7,252.5 L223.4,243.0 L215.1,233.5 L206.8,224.0 L198.5,214.6 L190.2,205.1 L180.9,196.5 L171.3,188.3 L161.7,180.1 L152.0,171.8 L142.4,163.6" fill="none" stroke="#2dd4bf" stroke-width="21" stroke-linecap="round" stroke-linejoin="round" opacity="0.95"/><path d="M240.0,262.0 L231.7,252.5 L223.4,243.0 L215.1,233.5 L206.8,224.0 L198.5,214.6 L190.2,205.1 L180.9,196.5 L171.3,188.3 L161.7,180.1 L152.0,171.8 L142.4,163.6" fill="none" stroke="#0c2020" stroke-width="13" stroke-linecap="round" stroke-linejoin="round" opacity="1.0"/><path d="M296.4,199.5 L291.2,205.2 L286.1,210.9 L281.0,216.5 L275.9,222.2 L270.8,227.9 L265.6,233.6 L260.5,239.3 L255.4,245.0 L250.2,250.6 L245.1,256.3 L240.0,262.0" fill="none" stroke="#f43f5e" stroke-width="25" stroke-linecap="round" stroke-linejoin="round" opacity="0.95"/><path d="M296.4,199.5 L291.2,205.2 L286.1,210.9 L281.0,216.5 L275.9,222.2 L270.8,227.9 L265.6,233.6 L260.5,239.3 L255.4,245.0 L250.2,250.6 L245.1,256.3 L240.0,262.0" fill="none" stroke="#0c2020" stroke-width="17" stroke-linecap="round" stroke-linejoin="round" opacity="1.0"/><circle cx="311.9" cy="177.4" r="19.0" fill="#f43f5e" stroke="none" stroke-width="0" opacity="0.95"/><circle cx="311.9" cy="177.4" r="15.0" fill="#0c2020" stroke="none" stroke-width="6.3" opacity="1.0"/><path d="M302.6,174.4 L304.3,174.4 L306.0,174.4 L307.7,174.4 L309.4,174.4 L311.1,174.4 L312.8,174.4 L314.5,174.4 L316.2,174.4 L317.9,174.4 L319.5,174.4 L321.2,174.4" fill="none" stroke="#a7f3ee" stroke-width="5" stroke-linecap="round" stroke-linejoin="round" opacity="1.0"/></g><g class="f11"><path d="M300.9,207.2 L297.1,203.2 L293.4,199.2 L289.7,195.1 L285.9,191.1 L282.2,187.1 L279.2,183.9 L276.4,180.2 L273.7,176.4 L270.9,172.6 L268.2,168.9 L265.5,165.1" fill="none" stroke="#2dd4bf" stroke-width="21" stroke-linecap="round" stroke-linejoin="round" opacity="0.95"/><path d="M300.9,207.2 L297.1,203.2 L293.4,199.2 L289.7,195.1 L285.9,191.1 L282.2,187.1 L279.2,183.9 L276.4,180.2 L273.7,176.4 L270.9,172.6 L268.2,168.9 L265.5,165.1" fill="none" stroke="#0c2020" stroke-width="13" stroke-linecap="round" stroke-linejoin="round" opacity="1.0"/><path d="M240.0,262.0 L231.1,253.6 L222.2,245.2 L213.3,236.9 L204.4,228.5 L195.5,220.1 L186.6,211.7 L176.8,204.3 L166.7,197.1 L156.7,189.9 L146.6,182.6 L136.6,175.4" fill="none" stroke="#2dd4bf" stroke-width="21" stroke-linecap="round" stroke-linejoin="round" opacity="0.95"/><path d="M240.0,262.0 L231.1,253.6 L222.2,245.2 L213.3,236.9 L204.4,228.5 L195.5,220.1 L186.6,211.7 L176.8,204.3 L166.7,197.1 L156.7,189.9 L146.6,182.6 L136.6,175.4" fill="none" stroke="#0c2020" stroke-width="13" stroke-linecap="round" stroke-linejoin="round" opacity="1.0"/><path d="M300.9,207.2 L295.3,212.2 L289.8,217.2 L284.3,222.1 L278.7,227.1 L273.2,232.1 L267.7,237.1 L262.1,242.1 L256.6,247.1 L251.1,252.0 L245.5,257.0 L240.0,262.0" fill="none" stroke="#f43f5e" stroke-width="25" stroke-linecap="round" stroke-linejoin="round" opacity="0.95"/><path d="M300.9,207.2 L295.3,212.2 L289.8,217.2 L284.3,222.1 L278.7,227.1 L273.2,232.1 L267.7,237.1 L262.1,242.1 L256.6,247.1 L251.1,252.0 L245.5,257.0 L240.0,262.0" fill="none" stroke="#0c2020" stroke-width="17" stroke-linecap="round" stroke-linejoin="round" opacity="1.0"/><circle cx="318.0" cy="187.0" r="19.0" fill="#f43f5e" stroke="none" stroke-width="0" opacity="0.95"/><circle cx="318.0" cy="187.0" r="15.0" fill="#0c2020" stroke="none" stroke-width="6.3" opacity="1.0"/><path d="M308.7,184.0 L310.4,184.0 L312.1,184.0 L313.8,184.0 L315.5,184.0 L317.2,184.0 L318.9,184.0 L320.6,184.0 L322.3,184.0 L323.9,184.0 L325.6,184.0 L327.3,184.0" fill="none" stroke="#a7f3ee" stroke-width="5" stroke-linecap="round" stroke-linejoin="round" opacity="1.0"/></g><g class="f12"><path d="M306.0,216.0 L304.1,211.8 L302.3,207.5 L300.4,203.3 L298.5,199.1 L296.7,194.9 L295.9,191.9 L295.3,188.5 L294.7,185.1 L294.1,181.8 L293.6,178.4 L293.0,175.0" fill="none" stroke="#2dd4bf" stroke-width="21" stroke-linecap="round" stroke-linejoin="round" opacity="0.95"/><path d="M306.0,216.0 L304.1,211.8 L302.3,207.5 L300.4,203.3 L298.5,199.1 L296.7,194.9 L295.9,191.9 L295.3,188.5 L294.7,185.1 L294.1,181.8 L293.6,178.4 L293.0,175.0" fill="none" stroke="#0c2020" stroke-width="13" stroke-linecap="round" stroke-linejoin="round" opacity="1.0"/><path d="M240.0,262.0 L230.4,254.9 L220.8,247.8 L211.2,240.7 L201.5,233.6 L191.9,226.5 L182.3,219.4 L172.0,213.2 L161.5,207.1 L151.0,201.1 L140.5,195.0 L130.0,189.0" fill="none" stroke="#2dd4bf" stroke-width="21" stroke-linecap="round" stroke-linejoin="round" opacity="0.95"/><path d="M240.0,262.0 L230.4,254.9 L220.8,247.8 L211.2,240.7 L201.5,233.6 L191.9,226.5 L182.3,219.4 L172.0,213.2 L161.5,207.1 L151.0,201.1 L140.5,195.0 L130.0,189.0" fill="none" stroke="#0c2020" stroke-width="13" stroke-linecap="round" stroke-linejoin="round" opacity="1.0"/><path d="M306.0,216.0 L300.0,220.2 L294.0,224.4 L288.0,228.5 L282.0,232.7 L276.0,236.9 L270.0,241.1 L264.0,245.3 L258.0,249.5 L252.0,253.6 L246.0,257.8 L240.0,262.0" fill="none" stroke="#f43f5e" stroke-width="25" stroke-linecap="round" stroke-linejoin="round" opacity="0.95"/><path d="M306.0,216.0 L300.0,220.2 L294.0,224.4 L288.0,228.5 L282.0,232.7 L276.0,236.9 L270.0,241.1 L264.0,245.3 L258.0,249.5 L252.0,253.6 L246.0,257.8 L240.0,262.0" fill="none" stroke="#0c2020" stroke-width="17" stroke-linecap="round" stroke-linejoin="round" opacity="1.0"/><circle cx="325.0" cy="198.0" r="19.0" fill="#f43f5e" stroke="none" stroke-width="0" opacity="0.95"/><circle cx="325.0" cy="198.0" r="15.0" fill="#0c2020" stroke="none" stroke-width="6.3" opacity="1.0"/><path d="M315.7,195.0 L317.4,195.0 L319.1,195.0 L320.8,195.0 L322.5,195.0 L324.2,195.0 L325.8,195.0 L327.5,195.0 L329.2,195.0 L330.9,195.0 L332.6,195.0 L334.3,195.0" fill="none" stroke="#a7f3ee" stroke-width="5" stroke-linecap="round" stroke-linejoin="round" opacity="1.0"/></g><g class="f13"><path d="M311.1,224.8 L311.1,220.4 L311.1,215.9 L311.1,211.5 L311.1,207.0 L311.2,202.6 L312.6,199.9 L314.2,196.9 L315.8,193.9 L317.4,190.9 L319.0,187.9 L320.5,184.9" fill="none" stroke="#2dd4bf" stroke-width="21" stroke-linecap="round" stroke-linejoin="round" opacity="0.95"/><path d="M311.1,224.8 L311.1,220.4 L311.1,215.9 L311.1,211.5 L311.1,207.0 L311.2,202.6 L312.6,199.9 L314.2,196.9 L315.8,193.9 L317.4,190.9 L319.0,187.9 L320.5,184.9" fill="none" stroke="#0c2020" stroke-width="13" stroke-linecap="round" stroke-linejoin="round" opacity="1.0"/><path d="M240.0,262.0 L229.7,256.2 L219.4,250.4 L209.0,244.5 L198.7,238.7 L188.4,232.9 L178.1,227.1 L167.2,222.0 L156.3,217.2 L145.3,212.3 L134.4,207.5 L123.4,202.6" fill="none" stroke="#2dd4bf" stroke-width="21" stroke-linecap="round" stroke-linejoin="round" opacity="0.95"/><path d="M240.0,262.0 L229.7,256.2 L219.4,250.4 L209.0,244.5 L198.7,238.7 L188.4,232.9 L178.1,227.1 L167.2,222.0 L156.3,217.2 L145.3,212.3 L134.4,207.5 L123.4,202.6" fill="none" stroke="#0c2020" stroke-width="13" stroke-linecap="round" stroke-linejoin="round" opacity="1.0"/><path d="M311.1,224.8 L304.7,228.2 L298.2,231.6 L291.7,235.0 L285.3,238.3 L278.8,241.7 L272.3,245.1 L265.9,248.5 L259.4,251.9 L252.9,255.2 L246.5,258.6 L240.0,262.0" fill="none" stroke="#f43f5e" stroke-width="25" stroke-linecap="round" stroke-linejoin="round" opacity="0.95"/><path d="M311.1,224.8 L304.7,228.2 L298.2,231.6 L291.7,235.0 L285.3,238.3 L278.8,241.7 L272.3,245.1 L265.9,248.5 L259.4,251.9 L252.9,255.2 L246.5,258.6 L240.0,262.0" fill="none" stroke="#0c2020" stroke-width="17" stroke-linecap="round" stroke-linejoin="round" opacity="1.0"/><circle cx="332.0" cy="209.0" r="19.0" fill="#f43f5e" stroke="none" stroke-width="0" opacity="0.95"/><circle cx="332.0" cy="209.0" r="15.0" fill="#0c2020" stroke="none" stroke-width="6.3" opacity="1.0"/><path d="M322.7,206.0 L324.4,206.0 L326.1,206.0 L327.7,206.0 L329.4,206.0 L331.1,206.0 L332.8,206.0 L334.5,206.0 L336.2,206.0 L337.9,206.0 L339.6,206.0 L341.3,206.0" fill="none" stroke="#a7f3ee" stroke-width="5" stroke-linecap="round" stroke-linejoin="round" opacity="1.0"/></g><g class="f14"><path d="M315.6,232.5 L317.3,227.9 L318.9,223.2 L320.5,218.6 L322.1,213.9 L323.8,209.4 L327.2,206.8 L330.7,204.2 L334.1,201.5 L337.6,198.9 L341.1,196.2 L344.6,193.6" fill="none" stroke="#2dd4bf" stroke-width="21" stroke-linecap="round" stroke-linejoin="round" opacity="0.95"/><path d="M315.6,232.5 L317.3,227.9 L318.9,223.2 L320.5,218.6 L322.1,213.9 L323.8,209.4 L327.2,206.8 L330.7,204.2 L334.1,201.5 L337.6,198.9 L341.1,196.2 L344.6,193.6" fill="none" stroke="#0c2020" stroke-width="13" stroke-linecap="round" stroke-linejoin="round" opacity="1.0"/><path d="M240.0,262.0 L229.1,257.3 L218.1,252.6 L207.2,247.9 L196.3,243.2 L185.3,238.4 L174.4,233.7 L163.1,229.8 L151.7,226.0 L140.4,222.1 L129.0,218.3 L117.6,214.4" fill="none" stroke="#2dd4bf" stroke-width="21" stroke-linecap="round" stroke-linejoin="round" opacity="0.95"/><path d="M240.0,262.0 L229.1,257.3 L218.1,252.6 L207.2,247.9 L196.3,243.2 L185.3,238.4 L174.4,233.7 L163.1,229.8 L151.7,226.0 L140.4,222.1 L129.0,218.3 L117.6,214.4" fill="none" stroke="#0c2020" stroke-width="13" stroke-linecap="round" stroke-linejoin="round" opacity="1.0"/><path d="M315.6,232.5 L308.8,235.2 L301.9,237.9 L295.0,240.5 L288.1,243.2 L281.2,245.9 L274.4,248.6 L267.5,251.3 L260.6,254.0 L253.8,256.6 L246.9,259.3 L240.0,262.0" fill="none" stroke="#f43f5e" stroke-width="25" stroke-linecap="round" stroke-linejoin="round" opacity="0.95"/><path d="M315.6,232.5 L308.8,235.2 L301.9,237.9 L295.0,240.5 L288.1,243.2 L281.2,245.9 L274.4,248.6 L267.5,251.3 L260.6,254.0 L253.8,256.6 L246.9,259.3 L240.0,262.0" fill="none" stroke="#0c2020" stroke-width="17" stroke-linecap="round" stroke-linejoin="round" opacity="1.0"/><circle cx="338.1" cy="218.6" r="19.0" fill="#f43f5e" stroke="none" stroke-width="0" opacity="0.95"/><circle cx="338.1" cy="218.6" r="15.0" fill="#0c2020" stroke="none" stroke-width="6.3" opacity="1.0"/><path d="M328.8,215.6 L330.5,215.6 L332.1,215.6 L333.8,215.6 L335.5,215.6 L337.2,215.6 L338.9,215.6 L340.6,215.6 L342.3,215.6 L344.0,215.6 L345.7,215.6 L347.4,215.6" fill="none" stroke="#a7f3ee" stroke-width="5" stroke-linecap="round" stroke-linejoin="round" opacity="1.0"/></g><g class="f15"><path d="M318.8,237.9 L321.6,233.2 L324.4,228.4 L327.1,223.6 L329.9,218.8 L332.7,214.1 L337.5,211.8 L342.3,209.3 L347.1,206.9 L351.9,204.5 L356.7,202.1 L361.6,199.7" fill="none" stroke="#2dd4bf" stroke-width="21" stroke-linecap="round" stroke-linejoin="round" opacity="0.95"/><path d="M318.8,237.9 L321.6,233.2 L324.4,228.4 L327.1,223.6 L329.9,218.8 L332.7,214.1 L337.5,211.8 L342.3,209.3 L347.1,206.9 L351.9,204.5 L356.7,202.1 L361.6,199.7" fill="none" stroke="#0c2020" stroke-width="13" stroke-linecap="round" stroke-linejoin="round" opacity="1.0"/><path d="M240.0,262.0 L228.6,258.1 L217.3,254.2 L205.9,250.2 L194.5,246.3 L183.1,242.4 L171.8,238.5 L160.1,235.3 L148.5,232.2 L136.8,229.0 L125.2,225.9 L113.5,222.8" fill="none" stroke="#2dd4bf" stroke-width="21" stroke-linecap="round" stroke-linejoin="round" opacity="0.95"/><path d="M240.0,262.0 L228.6,258.1 L217.3,254.2 L205.9,250.2 L194.5,246.3 L183.1,242.4 L171.8,238.5 L160.1,235.3 L148.5,232.2 L136.8,229.0 L125.2,225.9 L113.5,222.8" fill="none" stroke="#0c2020" stroke-width="13" stroke-linecap="round" stroke-linejoin="round" opacity="1.0"/><path d="M318.8,237.9 L311.6,240.1 L304.5,242.3 L297.3,244.5 L290.1,246.7 L283.0,248.9 L275.8,251.1 L268.7,253.2 L261.5,255.4 L254.3,257.6 L247.2,259.8 L240.0,262.0" fill="none" stroke="#f43f5e" stroke-width="25" stroke-linecap="round" stroke-linejoin="round" opacity="0.95"/><path d="M318.8,237.9 L311.6,240.1 L304.5,242.3 L297.3,244.5 L290.1,246.7 L283.0,248.9 L275.8,251.1 L268.7,253.2 L261.5,255.4 L254.3,257.6 L247.2,259.8 L240.0,262.0" fill="none" stroke="#0c2020" stroke-width="17" stroke-linecap="round" stroke-linejoin="round" opacity="1.0"/><circle cx="342.4" cy="225.4" r="19.0" fill="#f43f5e" stroke="none" stroke-width="0" opacity="0.95"/><circle cx="342.4" cy="225.4" r="15.0" fill="#0c2020" stroke="none" stroke-width="6.3" opacity="1.0"/><path d="M333.1,222.4 L334.8,222.4 L336.4,222.4 L338.1,222.4 L339.8,222.4 L341.5,222.4 L343.2,222.4 L344.9,222.4 L346.6,222.4 L348.3,222.4 L350.0,222.4 L351.7,222.4" fill="none" stroke="#a7f3ee" stroke-width="5" stroke-linecap="round" stroke-linejoin="round" opacity="1.0"/></g></svg>
