<svg xmlns="http://www.w3.org/2000/svg" viewBox="0 0 480 320"><style>@keyframes k0{0%{opacity:1}11.111%{opacity:0}100%{opacity:0}}.f0{opacity:0;animation:k0 2.4s steps(1,end) infinite}@keyframes k1{0%{opacity:0}11.111%{opacity:1}16.667%{opacity:0}100%{opacity:0}}.f1{opacity:0;animation:k1 2.4s steps(1,end) infinite}@keyframes k2{0%{opacity:0}16.667%{opacity:1}22.222%{opacity:0}100%{opacity:0}}.f2{opacity:0;animation:k2 2.4s steps(1,end) infinite}@keyframes k3{0%{opacity:0}22.222%{opacity:1}27.778%{opacity:0}100%{opacity:0}}.f3{opacity:0;animation:k3 2.4s steps(1,end) infinite}@keyframes k4{0%{opacity:0}27.778%{opacity:1}33.333%{opacity:0}100%{opacity:0}}.f4{opacity:0;animation:k4 2.4s steps(1,end) infinite}@keyframes k5{0%{opacity:0}33.333%{opacity:1}38.889%{opacity:0}100%{opacity:0}}.f5{opacity:0;animation:k5 2.4s steps(1,end) infinite}@keyframes k6{0%{opacity:0}38.889%{opacity:1}44.444%{opacity:0}100%{opacity:0}}.f6{opacity:0;animation:k6 2.4s steps(1,end) infinite}@keyframes k7{0%{opacity:0}44.444%{opacity:1}50.000%{opacity:0}100%{opacity:0}}.f7{opacity:0;animation:k7 2.4s steps(1,end) infinite}@keyframes k8{0%{opacity:0}50.000%{opacity:1}61.111%{opacity:0}100%{opacity:0}}.f8{opacity:0;animation:k8 2.4s steps(1,end) infinite}@keyframes k9{0%{opacity:0}61.111%{opacity:1}66.667%{opacity:0}100%{opacity:0}}.f9{opacity:0;animation:k9 2.4s steps(1,end) infinite}@keyframes k10{0%{opacity:0}66.667%{opacity:1}72.222%{opacity:0}100%{opacity:0}}.f10{opacity:0;animation:k10 2.4s steps(1,end) infinite}@keyframes k11{0%{opacity:0}72.222%{opacity:1}77.778%{opacity:0}100%{opacity:0}}.f11{opacity:0;animation:k11 2.4s steps(1,end) infinite}@keyframes k12{0%{opacity:0}77.778%{opacity:1}83.333%{opacity:0}100%{opacity:0}}.f12{opacity:0;animation:k12 2.4s steps(1,end) infinite}@keyframes k13{0%{opacity:0}83.333%{opacity:1}88.889%{opacity:0}100%{opacity:0}}.f13{opacity:0;animation:k13 2.4s steps(1,end) infinite}@keyframes k14{0%{opacity:0}88.889%{opacity:1}94.444%{opacity:0}100%{opacity:0}}.f14{opacity:0;animation:k14 2.4s steps(1,end) infinite}@keyframes k15{0%{opacity:0}94.444%{opacity:1}100%{opacity:1}}.f15{opacity:0;animation:k15 2.4s steps(1,end) infinite}</style><path d="M40.0,292.0 L440.0,292.0" fill="none" stroke="#1f3333" stroke-width="6" stroke-linecap="round" stroke-linejoin="round" opacity="1.0"/><path d="M356.0,40.0 L356.0,292.0" fill="none" stroke="#1f3333" stroke-width="6" stroke-linecap="round" stroke-linejoin="round" opacity="1.0"/><path d="M338.0,210.0 L272.0,212.0 L274.0,292.0" fill="none" stroke="#8f2a3e" stroke-width="19" stroke-linecap="round" stroke-linejoin="round" opacity="0.95"/><path d="M338.0,210.0 L272.0,212.0 L274.0,292.0" fill="none" stroke="#0c2020" stroke-width="11" stroke-linecap="round" stroke-linejoin="round" opacity="1.0"/><path d="M338.0,210.0 L282.0,212.0 L284.0,292.0" fill="none" stroke="#f43f5e" stroke-width="19" stroke-linecap="round" stroke-linejoin="round" opacity="0.95"/><path d="M338.0,210.0 L282.0,212.0 L284.0,292.0" fill="none" stroke="#0c2020" stroke-width="11" stroke-linecap="round" stroke-linejoin="round" opacity="1.0"/><g class="f0"><path d="M340.0,128.0 L340.0,134.1 L340.0,140.2 L340.0,146.3 L340.0,152.4 L340.0,158.5 L340.0,164.6 L339.6,170.7 L339.2,176.7 L338.8,182.8 L338.4,188.9 L338.0,195.0" fill="none" stroke="#2dd4bf" stroke-width="19" stroke-linecap="round" stroke-linejoin="round" opacity="0.95"/><path d="M340.0,128.0 L340.0,134.1 L340.0,140.2 L340.0,146.3 L340.0,152.4 L340.0,158.5 L340.0,164.6 L339.6,170.7 L339.2,176.7 L338.8,182.8 L338.4,188.9 L338.0,195.0" fill="none" stroke="#0c2020" stroke-width="11" stroke-linecap="round" stroke-linejoin="round" opacity="1.0"/><path d="M340.0,128.0 L339.8,135.5 L339.6,142.9 L339.5,150.4 L339.3,157.8 L339.1,165.3 L338.9,172.7 L338.7,180.2 L338.5,187.6 L338.4,195.1 L338.2,202.5 L338.0,210.0" fill="none" stroke="#2dd4bf" stroke-width="23" stroke-linecap="round" stroke-linejoin="round" opacity="0.95"/><path d="M340.0,128.0 L339.8,135.5 L339.6,142.9 L339.5,150.4 L339.3,157.8 L339.1,165.3 L338.9,172.7 L338.7,180.2 L338.5,187.6 L338.4,195.1 L338.2,202.5 L338.0,210.0" fill="none" stroke="#0c2020" stroke-width="15" stroke-linecap="round" stroke-linejoin="round" opacity="1.0"/><circle cx="338.0" cy="100.0" r="19.0" fill="#2dd4bf" stroke="none" stroke-width="0" opacity="0.95"/><circle cx="338.0" cy="100.0" r="15.0" fill="#0c2020" stroke="none" stroke-width="6.3" opacity="1.0"/><path d="M336.0,83.0 L333.0,86.0 L330.0,89.0 L327.1,91.9 L324.1,94.9 L321.1,97.9 L318.1,100.9 L317.5,104.5 L318.4,108.6 L319.3,112.8 L320.1,116.9 L321.0,121.0" fill="none" stroke="#2dd4bf" stroke-width="5" stroke-linecap="round" stroke-linejoin="round" opacity="1.0"/><path d="M328.7,97.0 L330.4,97.0 L332.1,97.0 L333.8,97.0 L335.5,97.0 L337.2,97.0 L338.8,97.0 L340.5,97.0 L342.2,97.0 L343.9,97.0 L345.6,97.0 L347.3,97.0" fill="none" stroke="#a7f3ee" stroke-width="5" stroke-linecap="round" stroke-linejoin="round" opacity="1.0"/></g><g class="f1"><path d="M340.0,128.1 L340.0,134.2 L340.0,140.3 L340.0,146.4 L340.0,152.4 L340.0,158.5 L340.0,164.6 L339.6,170.7 L339.2,176.8 L338.8,182.8 L338.4,188.9 L338.0,195.0" fill="none" stroke="#2dd4bf" stroke-width="19" stroke-linecap="round" stroke-linejoin="round" opacity="0.95"/><path d="M340.0,128.1 L340.0,134.2 L340.0,140.3 L340.0,146.4 L340.0,152.4 L340.0,158.5 L340.0,164.6 L339.6,170.7 L339.2,176.8 L338.8,182.8 L338.4,188.9 L338.0,195.0" fill="none" stroke="#0c2020" stroke-width="11" stroke-linecap="round" stroke-linejoin="round" opacity="1.0"/><path d="M340.0,128.1 L339.8,135.5 L339.6,143.0 L339.5,150.4 L339.3,157.9 L339.1,165.3 L338.9,172.8 L338.7,180.2 L338.5,187.7 L338.4,195.1 L338.2,202.6 L338.0,210.0" fill="none" stroke="#2dd4bf" stroke-width="23" stroke-linecap="round" stroke-linejoin="round" opacity="0.95"/><path d="M340.0,128.1 L339.8,135.5 L339.6,143.0 L339.5,150.4 L339.3,157.9 L339.1,165.3 L338.9,172.8 L338.7,180.2 L338.5,187.7 L338.4,195.1 L338.2,202.6 L338.0,210.0" fill="none" stroke="#0c2020" stroke-width="15" stroke-linecap="round" stroke-linejoin="round" opacity="1.0"/><circle cx="338.0" cy="100.1" r="19.0" fill="#2dd4bf" stroke="none" stroke-width="0" opacity="0.95"/><circle cx="338.0" cy="100.1" r="15.0" fill="#0c2020" stroke="none" stroke-width="6.3" opacity="1.0"/><path d="M336.0,83.1 L333.0,86.1 L330.0,89.0 L327.1,92.0 L324.1,95.0 L321.1,98.0 L318.1,100.9 L317.5,104.6 L318.4,108.7 L319.3,112.9 L320.1,117.0 L321.0,121.1" fill="none" stroke="#2dd4bf" stroke-width="5" stroke-linecap="round" stroke-linejoin="round" opacity="1.0"/><path d="M328.7,97.1 L330.4,97.1 L332.1,97.1 L333.8,97.1 L335.5,97.1 L337.2,97.1 L338.8,97.1 L340.5,97.1 L342.2,97.1 L343.9,97.1 L345.6,97.1 L347.3,97.1" fill="none" stroke="#a7f3ee" stroke-width="5" stroke-linecap="round" stroke-linejoin="round" opacity="1.0"/></g><g class="f2"><path d="M340.0,128.3 L340.0,134.4 L340.0,140.4 L340.0,146.5 L340.0,152.6 L340.0,158.7 L340.0,164.7 L339.6,170.8 L339.2,176.8 L338.8,182.9 L338.4,188.9 L338.0,195.0" fill="none" stroke="#2dd4bf" stroke-width="19" stroke-linecap="round" stroke-linejoin="round" opacity="0.95"/><path d="M340.0,128.3 L340.0,134.4 L340.0,140.4 L340.0,146.5 L340.0,152.6 L340.0,158.7 L340.0,164.7 L339.6,170.8 L339.2,176.8 L338.8,182.9 L338.4,188.9 L338.0,195.0" fill="none" stroke="#0c2020" stroke-width="11" stroke-linecap="round" stroke-linejoin="round" opacity="1.0"/><path d="M340.0,128.3 L339.8,135.7 L339.6,143.2 L339.5,150.6 L339.3,158.0 L339.1,165.4 L338.9,172.9 L338.7,180.3 L338.5,187.7 L338.4,195.1 L338.2,202.6 L338.0,210.0" fill="none" stroke="#2dd4bf" stroke-width="23" stroke-linecap="round" stroke-linejoin="round" opacity="0.95"/><path d="M340.0,128.3 L339.8,135.7 L339.6,143.2 L339.5,150.6 L339.3,158.0 L339.1,165.4 L338.9,172.9 L338.7,180.3 L338.5,187.7 L338.4,195.1 L338.2,202.6 L338.0,210.0" fill="none" stroke="#0c2020" stroke-width="15" stroke-linecap="round" stroke-linejoin="round" opacity="1.0"/><circle cx="338.0" cy="100.3" r="19.0" fill="#2dd4bf" stroke="none" stroke-width="0" opacity="0.95"/><circle cx="338.0" cy="100.3" r="15.0" fill="#0c2020" stroke="none" stroke-width="6.3" opacity="1.0"/><path d="M336.0,83.3 L333.0,86.3 L330.0,89.3 L327.1,92.2 L324.1,95.2 L321.1,98.2 L318.1,101.2 L317.5,104.8 L318.4,109.0 L319.3,113.1 L320.1,117.2 L321.0,121.3" fill="none" stroke="#2dd4bf" stroke-width="5" stroke-linecap="round" stroke-linejoin="round" opacity="1.0"/><path d="M328.7,97.3 L330.4,97.3 L332.1,97.3 L333.8,97.3 L335.5,97.3 L337.2,97.3 L338.8,97.3 L340.5,97.3 L342.2,97.3 L343.9,97.3 L345.6,97.3 L347.3,97.3" fill="none" stroke="#a7f3ee" stroke-width="5" stroke-linecap="round" stroke-linejoin="round" opacity="1.0"/></g><g class="f3"><path d="M340.0,128.6 L340.0,134.7 L340.0,140.7 L340.0,146.8 L340.0,152.8 L340.0,158.8 L340.0,164.9 L339.6,170.9 L339.2,176.9 L338.8,182.9 L338.4,189.0 L338.0,195.0" fill="none" stroke="#2dd4bf" stroke-width="19" stroke-linecap="round" stroke-linejoin="round" opacity="0.95"/><path d="M340.0,128.6 L340.0,134.7 L340.0,140.7 L340.0,146.8 L340.0,152.8 L340.0,158.8 L340.0,164.9 L339.6,170.9 L339.2,176.9 L338.8,182.9 L338.4,189.0 L338.0,195.0" fill="none" stroke="#0c2020" stroke-width="11" stroke-linecap="round" stroke-linejoin="round" opacity="1.0"/><path d="M340.0,128.6 L339.8,136.0 L339.6,143.4 L339.5,150.8 L339.3,158.2 L339.1,165.6 L338.9,173.0 L338.7,180.4 L338.5,187.8 L338.4,195.2 L338.2,202.6 L338.0,210.0" fill="none" stroke="#2dd4bf" stroke-width="23" stroke-linecap="round" stroke-linejoin="round" opacity="0.95"/><path d="M340.0,128.6 L339.8,136.0 L339.6,143.4 L339.5,150.8 L339.3,158.2 L339.1,165.6 L338.9,173.0 L338.7,180.4 L338.5,187.8 L338.4,195.2 L338.2,202.6 L338.0,210.0" fill="none" stroke="#0c2020" stroke-width="15" stroke-linecap="round" stroke-linejoin="round" opacity="1.0"/><circle cx="338.0" cy="100.6" r="19.0" fill="#2dd4bf" stroke="none" stroke-width="0" opacity="0.95"/><circle cx="338.0" cy="100.6" r="15.0" fill="#0c2020" stroke="none" stroke-width="6.3" opacity="1.0"/><path d="M336.0,83.6 L333.0,86.6 L330.0,89.6 L327.1,92.6 L324.1,95.5 L321.1,98.5 L318.1,101.5 L317.5,105.2 L318.4,109.3 L319.3,113.4 L320.1,117.5 L321.0,121.6" fill="none" stroke="#2dd4bf" stroke-width="5" stroke-linecap="round" stroke-linejoin="round" opacity="1.0"/><path d="M328.7,97.6 L330.4,97.6 L332.1,97.6 L333.8,97.6 L335.5,97.6 L337.2,97.6 L338.8,97.6 L340.5,97.6 L342.2,97.6 L343.9,97.6 L345.6,97.6 L347.3,97.6" fill="none" stroke="#a7f3ee" stroke-width="5" stroke-linecap="round" stroke-linejoin="round" opacity="1.0"/></g><g class="f4"><path d="M340.0,129.0 L340.0,135.0 L340.0,141.0 L340.0,147.0 L340.0,153.0 L340.0,159.0 L340.0,165.0 L339.6,171.0 L339.2,177.0 L338.8,183.0 L338.4,189.0 L338.0,195.0" fill="none" stroke="#2dd4bf" stroke-width="19" stroke-linecap="round" stroke-linejoin="round" opacity="0.95"/><path d="M340.0,129.0 L340.0,135.0 L340.0,141.0 L340.0,147.0 L340.0,153.0 L340.0,159.0 L340.0,165.0 L339.6,171.0 L339.2,177.0 L338.8,183.0 L338.4,189.0 L338.0,195.0" fill="none" stroke="#0c2020" stroke-width="11" stroke-linecap="round" stroke-linejoin="round" opacity="1.0"/><path d="M340.0,129.0 L339.8,136.4 L339.6,143.7 L339.5,151.1 L339.3,158.5 L339.1,165.8 L338.9,173.2 L338.7,180.5 L338.5,187.9 L338.4,195.3 L338.2,202.6 L338.0,210.0" fill="none" stroke="#2dd4bf" stroke-width="23" stroke-linecap="round" stroke-linejoin="round" opacity="0.95"/><path d="M340.0,129.0 L339.8,136.4 L339.6,143.7 L339.5,151.1 L339.3,158.5 L339.1,165.8 L338.9,173.2 L338.7,180.5 L338.5,187.9 L338.4,195.3 L338.2,202.6 L338.0,210.0" fill="none" stroke="#0c2020" stroke-width="15" stroke-linecap="round" stroke-linejoin="round" opacity="1.0"/><circle cx="338.0" cy="101.0" r="19.0" fill="#2dd4bf" stroke="none" stroke-width="0" opacity="0.95"/><circle cx="338.0" cy="101.0" r="15.0" fill="#0c2020" stroke="none" stroke-width="6.3" opacity="1.0"/><path d="M336.0,84.0 L333.0,87.0 L330.0,90.0 L327.1,92.9 L324.1,95.9 L321.1,98.9 L318.1,101.9 L317.5,105.5 L318.4,109.6 L319.3,113.8 L320.1,117.9 L321.0,122.0" fill="none" stroke="#2dd4bf" stroke-width="5" stroke-linecap="round" stroke-linejoin="round" opacity="1.0"/><path d="M328.7,98.0 L330.4,98.0 L332.1,98.0 L333.8,98.0 L335.5,98.0 L337.2,98.0 L338.8,98.0 L340.5,98.0 L342.2,98.0 L343.9,98.0 L345.6,98.0 L347.3,98.0" fill="none" stroke="#a7f3ee" stroke-width="5" stroke-linecap="round" stroke-linejoin="round" opacity="1.0"/></g><g class="f5"><path d="M340.0,129.4 L340.0,135.3 L340.0,141.3 L340.0,147.3 L340.0,153.3 L340.0,159.2 L340.0,165.2 L339.6,171.2 L339.2,177.1 L338.8,183.1 L338.4,189.0 L338.0,195.0" fill="none" stroke="#2dd4bf" stroke-width="19" stroke-linecap="round" stroke-linejoin="round" opacity="0.95"/><path d="M340.0,129.4 L340.0,135.3 L340.0,141.3 L340.0,147.3 L340.0,153.3 L340.0,159.2 L340.0,165.2 L339.6,171.2 L339.2,177.1 L338.8,183.1 L338.4,189.0 L338.0,195.0" fill="none" stroke="#0c2020" stroke-width="11" stroke-linecap="round" stroke-linejoin="round" opacity="1.0"/><path d="M340.0,129.4 L339.8,136.7 L339.6,144.0 L339.5,151.4 L339.3,158.7 L339.1,166.0 L338.9,173.3 L338.7,180.7 L338.5,188.0 L338.4,195.3 L338.2,202.7 L338.0,210.0" fill="none" stroke="#2dd4bf" stroke-width="23" stroke-linecap="round" stroke-linejoin="round" opacity="0.95"/><path d="M340.0,129.4 L339.8,136.7 L339.6,144.0 L339.5,151.4 L339.3,158.7 L339.1,166.0 L338.9,173.3 L338.7,180.7 L338.5,188.0 L338.4,195.3 L338.2,202.7 L338.0,210.0" fill="none" stroke="#0c2020" stroke-width="15" stroke-linecap="round" stroke-linejoin="round" opacity="1.0"/><circle cx="338.0" cy="101.4" r="19.0" fill="#2dd4bf" stroke="none" stroke-width="0" opacity="0.95"/><circle cx="338.0" cy="101.4" r="15.0" fill="#0c2020" stroke="none" stroke-width="6.3" opacity="1.0"/><path d="M336.0,84.4 L333.0,87.3 L330.0,90.3 L327.1,93.3 L324.1,96.3 L321.1,99.2 L318.1,102.2 L317.5,105.9 L318.4,110.0 L319.3,114.1 L320.1,118.2 L321.0,122.4" fill="none" stroke="#2dd4bf" stroke-width="5" stroke-linecap="round" stroke-linejoin="round" opacity="1.0"/><path d="M328.7,98.4 L330.4,98.4 L332.1,98.4 L333.8,98.4 L335.5,98.4 L337.2,98.4 L338.8,98.4 L340.5,98.4 L342.2,98.4 L343.9,98.4 L345.6,98.4 L347.3,98.4" fill="none" stroke="#a7f3ee" stroke-width="5" stroke-linecap="round" stroke-linejoin="round" opacity="1.0"/></g><g class="f6"><path d="M340.0,129.7 L340.0,135.6 L340.0,141.6 L340.0,147.5 L340.0,153.5 L340.0,159.4 L340.0,165.3 L339.6,171.3 L339.2,177.2 L338.8,183.1 L338.4,189.1 L338.0,195.0" fill="none" stroke="#2dd4bf" stroke-width="19" stroke-linecap="round" stroke-linejoin="round" opacity="0.95"/><path d="M340.0,129.7 L340.0,135.6 L340.0,141.6 L340.0,147.5 L340.0,153.5 L340.0,159.4 L340.0,165.3 L339.6,171.3 L339.2,177.2 L338.8,183.1 L338.4,189.1 L338.0,195.0" fill="none" stroke="#0c2020" stroke-width="11" stroke-linecap="round" stroke-linejoin="round" opacity="1.0"/><path d="M340.0,129.7 L339.8,137.0 L339.6,144.3 L339.5,151.6 L339.3,158.9 L339.1,166.2 L338.9,173.5 L338.7,180.8 L338.5,188.1 L338.4,195.4 L338.2,202.7 L338.0,210.0" fill="none" stroke="#2dd4bf" stroke-width="23" stroke-linecap="round" stroke-linejoin="round" opacity="0.95"/><path d="M340.0,129.7 L339.8,137.0 L339.6,144.3 L339.5,151.6 L339.3,158.9 L339.1,166.2 L338.9,173.5 L338.7,180.8 L338.5,188.1 L338.4,195.4 L338.2,202.7 L338.0,210.0" fill="none" stroke="#0c2020" stroke-width="15" stroke-linecap="round" stroke-linejoin="round" opacity="1.0"/><circle cx="338.0" cy="101.7" r="19.0" fill="#2dd4bf" stroke="none" stroke-width="0" opacity="0.95"/><circle cx="338.0" cy="101.7" r="15.0" fill="#0c2020" stroke="none" stroke-width="6.3" opacity="1.0"/><path d="M336.0,84.7 L333.0,87.7 L330.0,90.6 L327.1,93.6 L324.1,96.6 L321.1,99.6 L318.1,102.5 L317.5,106.2 L318.4,110.3 L319.3,114.5 L320.1,118.6 L321.0,122.7" fill="none" stroke="#2dd4bf" stroke-width="5" stroke-linecap="round" stroke-linejoin="round" opacity="1.0"/><path d="M328.7,98.7 L330.4,98.7 L332.1,98.7 L333.8,98.7 L335.5,98.7 L337.2,98.7 L338.8,98.7 L340.5,98.7 L342.2,98.7 L343.9,98.7 L345.6,98.7 L347.3,98.7" fill="none" stroke="#a7f3ee" stroke-width="5" stroke-linecap="round" stroke-linejoin="round" opacity="1.0"/></g><g class="f7"><path d="M340.0,129.9 L340.0,135.8 L340.0,141.8 L340.0,147.7 L340.0,153.6 L340.0,159.5 L340.0,165.5 L339.6,171.4 L339.2,177.3 L338.8,183.2 L338.4,189.1 L338.0,195.0" fill="none" stroke="#2dd4bf" stroke-width="19" stroke-linecap="round" stroke-linejoin="round" opacity="0.95"/><path d="M340.0,129.9 L340.0,135.8 L340.0,141.8 L340.0,147.7 L340.0,153.6 L340.0,159.5 L340.0,165.5 L339.6,171.4 L339.2,177.3 L338.8,183.2 L338.4,189.1 L338.0,195.0" fill="none" stroke="#0c2020" stroke-width="11" stroke-linecap="round" stroke-linejoin="round" opacity="1.0"/><path d="M340.0,129.9 L339.8,137.2 L339.6,144.5 L339.5,151.8 L339.3,159.0 L339.1,166.3 L338.9,173.6 L338.7,180.9 L338.5,188.2 L338.4,195.4 L338.2,202.7 L338.0,210.0" fill="none" stroke="#2dd4bf" stroke-width="23" stroke-linecap="round" stroke-linejoin="round" opacity="0.95"/><path d="M340.0,129.9 L339.8,137.2 L339.6,144.5 L339.5,151.8 L339.3,159.0 L339.1,166.3 L338.9,173.6 L338.7,180.9 L338.5,188.2 L338.4,195.4 L338.2,202.7 L338.0,210.0" fill="none" stroke="#0c2020" stroke-width="15" stroke-linecap="round" stroke-linejoin="round" opacity="1.0"/><circle cx="338.0" cy="101.9" r="19.0" fill="#2dd4bf" stroke="none" stroke-width="0" opacity="0.95"/><circle cx="338.0" cy="101.9" r="15.0" fill="#0c2020" stroke="none" stroke-width="6.3" opacity="1.0"/><path d="M336.0,84.9 L333.0,87.9 L330.0,90.9 L327.1,93.8 L324.1,96.8 L321.1,99.8 L318.1,102.8 L317.5,106.4 L318.4,110.6 L319.3,114.7 L320.1,118.8 L321.0,122.9" fill="none" stroke="#2dd4bf" stroke-width="5" stroke-linecap="round" stroke-linejoin="round" opacity="1.0"/><path d="M328.7,98.9 L330.4,98.9 L332.1,98.9 L333.8,98.9 L335.5,98.9 L337.2,98.9 L338.8,98.9 L340.5,98.9 L342.2,98.9 L343.9,98.9 L345.6,98.9 L347.3,98.9" fill="none" stroke="#a7f3ee" stroke-width="5" stroke-linecap="round" stroke-linejoin="round" opacity="1.0"/></g><g class="f8"><path d="M340.0,130.0 L340.0,135.9 L340.0,141.8 L340.0,147.7 L340.0,153.7 L340.0,159.6 L340.0,165.5 L339.6,171.4 L339.2,177.3 L338.8,183.2 L338.4,189.1 L338.0,195.0" fill="none" stroke="#2dd4bf" stroke-width="19" stroke-linecap="round" stroke-linejoin="round" opacity="0.95"/><path d="M340.0,130.0 L340.0,135.9 L340.0,141.8 L340.0,147.7 L340.0,153.7 L340.0,159.6 L340.0,165.5 L339.6,171.4 L339.2,177.3 L338.8,183.2 L338.4,189.1 L338.0,195.0" fill="none" stroke="#0c2020" stroke-width="11" stroke-linecap="round" stroke-linejoin="round" opacity="1.0"/><path d="M340.0,130.0 L339.8,137.3 L339.6,144.5 L339.5,151.8 L339.3,159.1 L339.1,166.4 L338.9,173.6 L338.7,180.9 L338.5,188.2 L338.4,195.5 L338.2,202.7 L338.0,210.0" fill="none" stroke="#2dd4bf" stroke-width="23" stroke-linecap="round" stroke-linejoin="round" opacity="0.95"/><path d="M340.0,130.0 L339.8,137.3 L339.6,144.5 L339.5,151.8 L339.3,159.1 L339.1,166.4 L338.9,173.6 L338.7,180.9 L338.5,188.2 L338.4,195.5 L338.2,202.7 L338.0,210.0" fill="none" stroke="#0c2020" stroke-width="15" stroke-linecap="round" stroke-linejoin="round" opacity="1.0"/><circle cx="338.0" cy="102.0" r="19.0" fill="#2dd4bf" stroke="none" stroke-width="0" opacity="0.95"/><circle cx="338.0" cy="102.0" r="15.0" fill="#0c2020" stroke="none" stroke-width="6.3" opacity="1.0"/><path d="M336.0,85.0 L333.0,88.0 L330.0,91.0 L327.1,93.9 L324.1,96.9 L321.1,99.9 L318.1,102.9 L317.5,106.5 L318.4,110.6 L319.3,114.8 L320.1,118.9 L321.0,123.0" fill="none" stroke="#2dd4bf" stroke-width="5" stroke-linecap="round" stroke-linejoin="round" opacity="1.0"/><path d="M328.7,99.0 L330.4,99.0 L332.1,99.0 L333.8,99.0 L335.5,99.0 L337.2,99.0 L338.8,99.0 L340.5,99.0 L342.2,99.0 L343.9,99.0 L345.6,99.0 L347.3,99.0" fill="none" stroke="#a7f3ee" stroke-width="5" stroke-linecap="round" stroke-linejoin="round" opacity="1.0"/></g><g class="f9"><path d="M340.0,129.9 L340.0,135.8 L340.0,141.8 L340.0,147.7 L340.0,153.6 L340.0,159.5 L340.0,165.5 L339.6,171.4 L339.2,177.3 L338.8,183.2 L338.4,189.1 L338.0,195.0" fill="none" stroke="#2dd4bf" stroke-width="19" stroke-linecap="round" stroke-linejoin="round" opacity="0.95"/><path d="M340.0,129.9 L340.0,135.8 L340.0,141.8 L340.0,147.7 L340.0,153.6 L340.0,159.5 L340.0,165.5 L339.6,171.4 L339.2,177.3 L338.8,183.2 L338.4,189.1 L338.0,195.0" fill="none" stroke="#0c2020" stroke-width="11" stroke-linecap="round" stroke-linejoin="round" opacity="1.0"/><path d="M340.0,129.9 L339.8,137.2 L339.6,144.5 L339.5,151.8 L339.3,159.0 L339.1,166.3 L338.9,173.6 L338.7,180.9 L338.5,188.2 L338.4,195.4 L338.2,202.7 L338.0,210.0" fill="none" stroke="#2dd4bf" stroke-width="23" stroke-linecap="round" stroke-linejoin="round" opacity="0.95"/><path d="M340.0,129.9 L339.8,137.2 L339.6,144.5 L339.5,151.8 L339.3,159.0 L339.1,166.3 L338.9,173.6 L338.7,180.9 L338.5,188.2 L338.4,195.4 L338.2,202.7 L338.0,210.0" fill="none" stroke="#0c2020" stroke-width="15" stroke-linecap="round" stroke-linejoin="round" opacity="1.0"/><circle cx="338.0" cy="101.9" r="19.0" fill="#2dd4bf" stroke="none" stroke-width="0" opacity="0.95"/><circle cx="338.0" cy="101.9" r="15.0" fill="#0c2020" stroke="none" stroke-width="6.3" opacity="1.0"/><path d="M336.0,84.9 L333.0,87.9 L330.0,90.9 L327.1,93.8 L324.1,96.8 L321.1,99.8 L318.1,102.8 L317.5,106.4 L318.4,110.6 L319.3,114.7 L320.1,118.8 L321.0,122.9" fill="none" stroke="#2dd4bf" stroke-width="5" stroke-linecap="round" stroke-linejoin="round" opacity="1.0"/><path d="M328.7,98.9 L330.4,98.9 L332.1,98.9 L333.8,98.9 L335.5,98.9 L337.2,98.9 L338.8,98.9 L340.5,98.9 L342.2,98.9 L343.9,98.9 L345.6,98.9 L347.3,98.9" fill="none" stroke="#a7f3ee" stroke-width="5" stroke-linecap="round" stroke-linejoin="round" opacity="1.0"/></g><g class="f10"><path d="M340.0,129.7 L340.0,135.6 L340.0,141.6 L340.0,147.5 L340.0,153.5 L340.0,159.4 L340.0,165.3 L339.6,171.3 L339.2,177.2 L338.8,183.1 L338.4,189.1 L338.0,195.0" fill="none" stroke="#2dd4bf" stroke-width="19" stroke-linecap="round" stroke-linejoin="round" opacity="0.95"/><path d="M340.0,129.7 L340.0,135.6 L340.0,141.6 L340.0,147.5 L340.0,153.5 L340.0,159.4 L340.0,165.3 L339.6,171.3 L339.2,177.2 L338.8,183.1 L338.4,189.1 L338.0,195.0" fill="none" stroke="#0c2020" stroke-width="11" stroke-linecap="round" stroke-linejoin="round" opacity="1.0"/><path d="M340.0,129.7 L339.8,137.0 L339.6,144.3 L339.5,151.6 L339.3,158.9 L339.1,166.2 L338.9,173.5 L338.7,180.8 L338.5,188.1 L338.4,195.4 L338.2,202.7 L338.0,210.0" fill="none" stroke="#2dd4bf" stroke-width="23" stroke-linecap="round" stroke-linejoin="round" opacity="0.95"/><path d="M340.0,129.7 L339.8,137.0 L339.6,144.3 L339.5,151.6 L339.3,158.9 L339.1,166.2 L338.9,173.5 L338.7,180.8 L338.5,188.1 L338.4,195.4 L338.2,202.7 L338.0,210.0" fill="none" stroke="#0c2020" stroke-width="15" stroke-linecap="round" stroke-linejoin="round" opacity="1.0"/><circle cx="338.0" cy="101.7" r="19.0" fill="#2dd4bf" stroke="none" stroke-width="0" opacity="0.95"/><circle cx="338.0" cy="101.7" r="15.0" fill="#0c2020" stroke="none" stroke-width="6.3" opacity="1.0"/><path d="M336.0,84.7 L333.0,87.7 L330.0,90.6 L327.1,93.6 L324.1,96.6 L321.1,99.6 L318.1,102.5 L317.5,106.2 L318.4,110.3 L319.3,114.5 L320.1,118.6 L321.0,122.7" fill="none" stroke="#2dd4bf" stroke-width="5" stroke-linecap="round" stroke-linejoin="round" opacity="1.0"/><path d="M328.7,98.7 L330.4,98.7 L332.1,98.7 L333.8,98.7 L335.5,98.7 L337.2,98.7 L338.8,98.7 L340.5,98.7 L342.2,98.7 L343.9,98.7 L345.6,98.7 L347.3,98.7" fill="none" stroke="#a7f3ee" stroke-width="5" stroke-linecap="round" stroke-linejoin="round" opacity="1.0"/></g><g class="f11"><path d="M340.0,129.4 L340.0,135.3 L340.0,141.3 L340.0,147.3 L340.0,153.3 L340.0,159.2 L340.0,165.2 L339.6,171.2 L339.2,177.1 L338.8,183.1 L338.4,189.0 L338.0,195.0" fill="none" stroke="#2dd4bf" stroke-width="19" stroke-linecap="round" stroke-linejoin="round" opacity="0.95"/><path d="M340.0,129.4 L340.0,135.3 L340.0,141.3 L340.0,147.3 L340.0,153.3 L340.0,159.2 L340.0,165.2 L339.6,171.2 L339.2,177.1 L338.8,183.1 L338.4,189.0 L338.0,195.0" fill="none" stroke="#0c2020" stroke-width="11" stroke-linecap="round" stroke-linejoin="round" opacity="1.0"/><path d="M340.0,129.4 L339.8,136.7 L339.6,144.0 L339.5,151.4 L339.3,158.7 L339.1,166.0 L338.9,173.3 L338.7,180.7 L338.5,188.0 L338.4,195.3 L338.2,202.7 L338.0,210.0" fill="none" stroke="#2dd4bf" stroke-width="23" stroke-linecap="round" stroke-linejoin="round" opacity="0.95"/><path d="M340.0,129.4 L339.8,136.7 L339.6,144.0 L339.5,151.4 L339.3,158.7 L339.1,166.0 L338.9,173.3 L338.7,180.7 L338.5,188.0 L338.4,195.3 L338.2,202.7 L338.0,210.0" fill="none" stroke="#0c2020" stroke-width="15" stroke-linecap="round" stroke-linejoin="round" opacity="1.0"/><circle cx="338.0" cy="101.4" r="19.0" fill="#2dd4bf" stroke="none" stroke-width="0" opacity="0.95"/><circle cx="338.0" cy="101.4" r="15.0" fill="#0c2020" stroke="none" stroke-width="6.3" opacity="1.0"/><path d="M336.0,84.4 L333.0,87.3 L330.0,90.3 L327.1,93.3 L324.1,96.3 L321.1,99.2 L318.1,102.2 L317.5,105.9 L318.4,110.0 L319.3,114.1 L320.1,118.2 L321.0,122.4" fill="none" stroke="#2dd4bf" stroke-width="5" stroke-linecap="round" stroke-linejoin="round" opacity="1.0"/><path d="M328.7,98.4 L330.4,98.4 L332.1,98.4 L333.8,98.4 L335.5,98.4 L337.2,98.4 L338.8,98.4 L340.5,98.4 L342.2,98.4 L343.9,98.4 L345.6,98.4 L347.3,98.4" fill="none" stroke="#a7f3ee" stroke-width="5" stroke-linecap="round" stroke-linejoin="round" opacity="1.0"/></g><g class="f12"><path d="M340.0,129.0 L340.0,135.0 L340.0,141.0 L340.0,147.0 L340.0,153.0 L340.0,159.0 L340.0,165.0 L339.6,171.0 L339.2,177.0 L338.8,183.0 L338.4,189.0 L338.0,195.0" fill="none" stroke="#2dd4bf" stroke-width="19" stroke-linecap="round" stroke-linejoin="round" opacity="0.95"/><path d="M340.0,129.0 L340.0,135.0 L340.0,141.0 L340.0,147.0 L340.0,153.0 L340.0,159.0 L340.0,165.0 L339.6,171.0 L339.2,177.0 L338.8,183.0 L338.4,189.0 L338.0,195.0" fill="none" stroke="#0c2020" stroke-width="11" stroke-linecap="round" stroke-linejoin="round" opacity="1.0"/><path d="M340.0,129.0 L339.8,136.4 L339.6,143.7 L339.5,151.1 L339.3,158.5 L339.1,165.8 L338.9,173.2 L338.7,180.5 L338.5,187.9 L338.4,195.3 L338.2,202.6 L338.0,210.0" fill="none" stroke="#2dd4bf" stroke-width="23" stroke-linecap="round" stroke-linejoin="round" opacity="0.95"/><path d="M340.0,129.0 L339.8,136.4 L339.6,143.7 L339.5,151.1 L339.3,158.5 L339.1,165.8 L338.9,173.2 L338.7,180.5 L338.5,187.9 L338.4,195.3 L338.2,202.6 L338.0,210.0" fill="none" stroke="#0c2020" stroke-width="15" stroke-linecap="round" stroke-linejoin="round" opacity="1.0"/><circle cx="338.0" cy="101.0" r="19.0" fill="#2dd4bf" stroke="none" stroke-width="0" opacity="0.95"/><circle cx="338.0" cy="101.0" r="15.0" fill="#0c2020" stroke="none" stroke-width="6.3" opacity="1.0"/><path d="M336.0,84.0 L333.0,87.0 L330.0,90.0 L327.1,92.9 L324.1,95.9 L321.1,98.9 L318.1,101.9 L317.5,105.5 L318.4,109.6 L319.3,113.8 L320.1,117.9 L321.0,122.0" fill="none" stroke="#2dd4bf" stroke-width="5" stroke-linecap="round" stroke-linejoin="round" opacity="1.0"/><path d="M328.7,98.0 L330.4,98.0 L332.1,98.0 L333.8,98.0 L335.5,98.0 L337.2,98.0 L338.8,98.0 L340.5,98.0 L342.2,98.0 L343.9,98.0 L345.6,98.0 L347.3,98.0" fill="none" stroke="#a7f3ee" stroke-width="5" stroke-linecap="round" stroke-linejoin="round" opacity="1.0"/></g><g class="f13"><path d="M340.0,128.6 L340.0,134.7 L340.0,140.7 L340.0,146.8 L340.0,152.8 L340.0,158.8 L340.0,164.9 L339.6,170.9 L339.2,176.9 L338.8,182.9 L338.4,189.0 L338.0,195.0" fill="none" stroke="#2dd4bf" stroke-width="19" stroke-linecap="round" stroke-linejoin="round" opacity="0.95"/><path d="M340.0,128.6 L340.0,134.7 L340.0,140.7 L340.0,146.8 L340.0,152.8 L340.0,158.8 L340.0,164.9 L339.6,170.9 L339.2,176.9 L338.8,182.9 L338.4,189.0 L338.0,195.0" fill="none" stroke="#0c2020" stroke-width="11" stroke-linecap="round" stroke-linejoin="round" opacity="1.0"/><path d="M340.0,128.6 L339.8,136.0 L339.6,143.4 L339.5,150.8 L339.3,158.2 L339.1,165.6 L338.9,173.0 L338.7,180.4 L338.5,187.8 L338.4,195.2 L338.2,202.6 L338.0,210.0" fill="none" stroke="#2dd4bf" stroke-width="23" stroke-linecap="round" stroke-linejoin="round" opacity="0.95"/><path d="M340.0,128.6 L339.8,136.0 L339.6,143.4 L339.5,150.8 L339.3,158.2 L339.1,165.6 L338.9,173.0 L338.7,180.4 L338.5,187.8 L338.4,195.2 L338.2,202.6 L338.0,210.0" fill="none" stroke="#0c2020" stroke-width="15" stroke-linecap="round" stroke-linejoin="round" opacity="1.0"/><circle cx="338.0" cy="100.6" r="19.0" fill="#2dd4bf" stroke="none" stroke-width="0" opacity="0.95"/><circle cx="338.0" cy="100.6" r="15.0" fill="#0c2020" stroke="none" stroke-width="6.3" opacity="1.0"/><path d="M336.0,83.6 L333.0,86.6 L330.0,89.6 L327.1,92.6 L324.1,95.5 L321.1,98.5 L318.1,101.5 L317.5,105.2 L318.4,109.3 L319.3,113.4 L320.1,117.5 L321.0,121.6" fill="none" stroke="#2dd4bf" stroke-width="5" stroke-linecap="round" stroke-linejoin="round" opacity="1.0"/><path d="M328.7,97.6 L330.4,97.6 L332.1,97.6 L333.8,97.6 L335.5,97.6 L337.2,97.6 L338.8,97.6 L340.5,97.6 L342.2,97.6 L343.9,97.6 L345.6,97.6 L347.3,97.6" fill="none" stroke="#a7f3ee" stroke-width="5" stroke-linecap="round" stroke-linejoin="round" opacity="1.0"/></g><g class="f14"><path d="M340.0,128.3 L340.0,134.4 L340.0,140.4 L340.0,146.5 L340.0,152.6 L340.0,158.7 L340.0,164.7 L339.6,170.8 L339.2,176.8 L338.8,182.9 L338.4,188.9 L338.0,195.0" fill="none" stroke="#2dd4bf" stroke-width="19" stroke-linecap="round" stroke-linejoin="round" opacity="0.95"/><path d="M340.0,128.3 L340.0,134.4 L340.0,140.4 L340.0,146.5 L340.0,152.6 L340.0,158.7 L340.0,164.7 L339.6,170.8 L339.2,176.8 L338.8,182.9 L338.4,188.9 L338.0,195.0" fill="none" stroke="#0c2020" stroke-width="11" stroke-linecap="round" stroke-linejoin="round" opacity="1.0"/><path d="M340.0,128.3 L339.8,135.7 L339.6,143.2 L339.5,150.6 L339.3,158.0 L339.1,165.4 L338.9,172.9 L338.7,180.3 L338.5,187.7 L338.4,195.1 L338.2,202.6 L338.0,210.0" fill="none" stroke="#2dd4bf" stroke-width="23" stroke-linecap="round" stroke-linejoin="round" opacity="0.95"/><path d="M340.0,128.3 L339.8,135.7 L339.6,143.2 L339.5,150.6 L339.3,158.0 L339.1,165.4 L338.9,172.9 L338.7,180.3 L338.5,187.7 L338.4,195.1 L338.2,202.6 L338.0,210.0" fill="none" stroke="#0c2020" stroke-width="15" stroke-linecap="round" stroke-linejoin="round" opacity="1.0"/><circle cx="338.0" cy="100.3" r="19.0" fill="#2dd4bf" stroke="none" stroke-width="0" opacity="0.95"/><circle cx="338.0" cy="100.3" r="15.0" fill="#0c2020" stroke="none" stroke-width="6.3" opacity="1.0"/><path d="M336.0,83.3 L333.0,86.3 L330.0,89.3 L327.1,92.2 L324.1,95.2 L321.1,98.2 L318.1,101.2 L317.5,104.8 L318.4,109.0 L319.3,113.1 L320.1,117.2 L321.0,121.3" fill="none" stroke="#2dd4bf" stroke-width="5" stroke-linecap="round" stroke-linejoin="round" opacity="1.0"/><path d="M328.7,97.3 L330.4,97.3 L332.1,97.3 L333.8,97.3 L335.5,97.3 L337.2,97.3 L338.8,97.3 L340.5,97.3 L342.2,97.3 L343.9,97.3 L345.6,97.3 L347.3,97.3" fill="none" stroke="#a7f3ee" stroke-width="5" stroke-linecap="round" stroke-linejoin="round" opacity="1.0"/></g><g class="f15"><path d="M340.0,128.1 L340.0,134.2 L340.0,140.3 L340.0,146.4 L340.0,152.4 L340.0,158.5 L340.0,164.6 L339.6,170.7 L339.2,176.8 L338.8,182.8 L338.4,188.9 L338.0,195.0" fill="none" stroke="#2dd4bf" stroke-width="19" stroke-linecap="round" stroke-linejoin="round" opacity="0.95"/><path d="M340.0,128.1 L340.0,134.2 L340.0,140.3 L340.0,146.4 L340.0,152.4 L340.0,158.5 L340.0,164.6 L339.6,170.7 L339.2,176.8 L338.8,182.8 L338.4,188.9 L338.0,195.0" fill="none" stroke="#0c2020" stroke-width="11" stroke-linecap="round" stroke-linejoin="round" opacity="1.0"/><path d="M340.0,128.1 L339.8,135.5 L339.6,143.0 L339.5,150.4 L339.3,157.9 L339.1,165.3 L338.9,172.8 L338.7,180.2 L338.5,187.7 L338.4,195.1 L338.2,202.6 L338.0,210.0" fill="none" stroke="#2dd4bf" stroke-width="23" stroke-linecap="round" stroke-linejoin="round" opacity="0.95"/><path d="M340.0,128.1 L339.8,135.5 L339.6,143.0 L339.5,150.4 L339.3,157.9 L339.1,165.3 L338.9,172.8 L338.7,180.2 L338.5,187.7 L338.4,195.1 L338.2,202.6 L338.0,210.0" fill="none" stroke="#0c2020" stroke-width="15" stroke-linecap="round" stroke-linejoin="round" opacity="1.0"/><circle cx="338.0" cy="100.1" r="19.0" fill="#2dd4bf" stroke="none" stroke-width="0" opacity="0.95"/><circle cx="338.0" cy="100.1" r="15.0" fill="#0c2020" stroke="none" stroke-width="6.3" opacity="1.0"/><path d="M336.0,83.1 L333.0,86.1 L330.0,89.0 L327.1,92.0 L324.1,95.0 L321.1,98.0 L318.1,100.9 L317.5,104.6 L318.4,108.7 L319.3,112.9 L320.1,117.0 L321.0,121.1" fill="none" stroke="#2dd4bf" stroke-width="5" stroke-linecap="round" stroke-linejoin="round" opacity="1.0"/><path d="M328.7,97.1 L330.4,97.1 L332.1,97.1 L333.8,97.1 L335.5,97.1 L337.2,97.1 L338.8,97.1 L340.5,97.1 L342.2,97.1 L343.9,97.1 L345.6,97.1 L347.3,97.1" fill="none" stroke="#a7f3ee" stroke-width="5" stroke-linecap="round" stroke-linejoin="round" opacity="1.0"/></g></svg>
